<?xml version="1.0" encoding="utf-8" standalone="no"?>
<!DOCTYPE svg PUBLIC "-//W3C//DTD SVG 1.1//EN"
  "http://www.w3.org/Graphics/SVG/1.1/DTD/svg11.dtd">
<svg xmlns:xlink="http://www.w3.org/1999/xlink" width="460.8pt" height="345.6pt" viewBox="0 0 460.8 345.6" xmlns="http://www.w3.org/2000/svg" version="1.1">
 <metadata>
  <rdf:RDF xmlns:dc="http://purl.org/dc/elements/1.1/" xmlns:cc="http://creativecommons.org/ns#" xmlns:rdf="http://www.w3.org/1999/02/22-rdf-syntax-ns#">
   <cc:Work>
    <dc:type rdf:resource="http://purl.org/dc/dcmitype/StillImage"/>
    <dc:date>2024-07-10T03:58:29.684098</dc:date>
    <dc:format>image/svg+xml</dc:format>
    <dc:creator>
     <cc:Agent>
      <dc:title>Matplotlib v3.8.4, https://matplotlib.org/</dc:title>
     </cc:Agent>
    </dc:creator>
   </cc:Work>
  </rdf:RDF>
 </metadata>
 <defs>
  <style type="text/css">*{stroke-linejoin: round; stroke-linecap: butt}</style>
 </defs>
 <g id="figure_1">
  <g id="patch_1">
   <path d="M 0 345.6 
L 460.8 345.6 
L 460.8 0 
L 0 0 
z
" style="fill: #ffffff"/>
  </g>
  <g id="axes_1">
   <g id="patch_2">
    <path d="M 57.6 307.584 
L 414.72 307.584 
L 414.72 41.472 
L 57.6 41.472 
z
" style="fill: #ffffff"/>
   </g>
   <g id="matplotlib.axis_1">
    <g id="xtick_1">
     <g id="text_1">
      <!-- Elasticnet -->
      <g style="fill: #262626" transform="translate(49.4475 326.202125) scale(0.12 -0.12)">
       <defs>
        <path id="DejaVuSerif-45" d="M 353 0 
L 353 331 
L 947 331 
L 947 4331 
L 353 4331 
L 353 4666 
L 4109 4666 
L 4109 3628 
L 3725 3628 
L 3725 4281 
L 1581 4281 
L 1581 2719 
L 3109 2719 
L 3109 3303 
L 3494 3303 
L 3494 1753 
L 3109 1753 
L 3109 2338 
L 1581 2338 
L 1581 384 
L 3775 384 
L 3775 1038 
L 4159 1038 
L 4159 0 
L 353 0 
z
" transform="scale(0.015625)"/>
        <path id="DejaVuSerif-6c" d="M 1313 331 
L 1856 331 
L 1856 0 
L 184 0 
L 184 331 
L 738 331 
L 738 4531 
L 184 4531 
L 184 4863 
L 1313 4863 
L 1313 331 
z
" transform="scale(0.015625)"/>
        <path id="DejaVuSerif-61" d="M 2547 1044 
L 2547 1747 
L 1806 1747 
Q 1378 1747 1168 1562 
Q 959 1378 959 997 
Q 959 650 1171 447 
Q 1384 244 1747 244 
Q 2106 244 2326 466 
Q 2547 688 2547 1044 
z
M 3122 2075 
L 3122 331 
L 3634 331 
L 3634 0 
L 2547 0 
L 2547 359 
Q 2356 128 2106 18 
Q 1856 -91 1522 -91 
Q 969 -91 644 203 
Q 319 497 319 997 
Q 319 1513 691 1797 
Q 1063 2081 1741 2081 
L 2547 2081 
L 2547 2309 
Q 2547 2688 2317 2895 
Q 2088 3103 1672 3103 
Q 1328 3103 1125 2947 
Q 922 2791 872 2484 
L 575 2484 
L 575 3156 
Q 875 3284 1158 3348 
Q 1441 3413 1709 3413 
Q 2400 3413 2761 3070 
Q 3122 2728 3122 2075 
z
" transform="scale(0.015625)"/>
        <path id="DejaVuSerif-73" d="M 359 184 
L 359 959 
L 691 959 
Q 703 588 923 403 
Q 1144 219 1575 219 
Q 1963 219 2166 364 
Q 2369 509 2369 788 
Q 2369 1006 2220 1140 
Q 2072 1275 1594 1428 
L 1178 1569 
Q 750 1706 558 1912 
Q 366 2119 366 2438 
Q 366 2894 700 3153 
Q 1034 3413 1625 3413 
Q 1888 3413 2178 3344 
Q 2469 3275 2778 3144 
L 2778 2419 
L 2447 2419 
Q 2434 2741 2221 2922 
Q 2009 3103 1644 3103 
Q 1281 3103 1095 2975 
Q 909 2847 909 2591 
Q 909 2381 1050 2254 
Q 1191 2128 1613 1997 
L 2069 1856 
Q 2541 1709 2748 1489 
Q 2956 1269 2956 922 
Q 2956 450 2595 179 
Q 2234 -91 1600 -91 
Q 1278 -91 972 -22 
Q 666 47 359 184 
z
" transform="scale(0.015625)"/>
        <path id="DejaVuSerif-74" d="M 691 2988 
L 184 2988 
L 184 3322 
L 691 3322 
L 691 4353 
L 1269 4353 
L 1269 3322 
L 2350 3322 
L 2350 2988 
L 1269 2988 
L 1269 878 
Q 1269 456 1350 337 
Q 1431 219 1650 219 
Q 1875 219 1978 351 
Q 2081 484 2088 781 
L 2522 781 
Q 2497 328 2275 118 
Q 2053 -91 1600 -91 
Q 1103 -91 897 129 
Q 691 350 691 878 
L 691 2988 
z
" transform="scale(0.015625)"/>
        <path id="DejaVuSerif-69" d="M 622 4353 
Q 622 4497 726 4603 
Q 831 4709 978 4709 
Q 1122 4709 1226 4603 
Q 1331 4497 1331 4353 
Q 1331 4206 1228 4103 
Q 1125 4000 978 4000 
Q 831 4000 726 4103 
Q 622 4206 622 4353 
z
M 1356 331 
L 1900 331 
L 1900 0 
L 231 0 
L 231 331 
L 781 331 
L 781 2988 
L 231 2988 
L 231 3322 
L 1356 3322 
L 1356 331 
z
" transform="scale(0.015625)"/>
        <path id="DejaVuSerif-63" d="M 3291 997 
Q 3169 466 2822 187 
Q 2475 -91 1925 -91 
Q 1200 -91 759 389 
Q 319 869 319 1663 
Q 319 2459 759 2936 
Q 1200 3413 1925 3413 
Q 2241 3413 2553 3339 
Q 2866 3266 3181 3116 
L 3181 2266 
L 2847 2266 
Q 2781 2703 2561 2903 
Q 2341 3103 1931 3103 
Q 1466 3103 1228 2742 
Q 991 2381 991 1663 
Q 991 944 1227 581 
Q 1463 219 1931 219 
Q 2303 219 2525 412 
Q 2747 606 2828 997 
L 3291 997 
z
" transform="scale(0.015625)"/>
        <path id="DejaVuSerif-6e" d="M 263 0 
L 263 331 
L 781 331 
L 781 2988 
L 231 2988 
L 231 3322 
L 1356 3322 
L 1356 2731 
Q 1516 3069 1770 3241 
Q 2025 3413 2363 3413 
Q 2913 3413 3172 3097 
Q 3431 2781 3431 2113 
L 3431 331 
L 3944 331 
L 3944 0 
L 2356 0 
L 2356 331 
L 2853 331 
L 2853 1931 
Q 2853 2541 2703 2767 
Q 2553 2994 2175 2994 
Q 1775 2994 1565 2701 
Q 1356 2409 1356 1850 
L 1356 331 
L 1856 331 
L 1856 0 
L 263 0 
z
" transform="scale(0.015625)"/>
        <path id="DejaVuSerif-65" d="M 3469 1600 
L 991 1600 
L 991 1575 
Q 991 903 1244 561 
Q 1497 219 1991 219 
Q 2369 219 2611 417 
Q 2853 616 2950 1006 
L 3413 1006 
Q 3275 459 2904 184 
Q 2534 -91 1931 -91 
Q 1203 -91 761 389 
Q 319 869 319 1663 
Q 319 2450 753 2931 
Q 1188 3413 1894 3413 
Q 2647 3413 3050 2948 
Q 3453 2484 3469 1600 
z
M 2791 1931 
Q 2772 2513 2545 2808 
Q 2319 3103 1894 3103 
Q 1497 3103 1269 2806 
Q 1041 2509 991 1931 
L 2791 1931 
z
" transform="scale(0.015625)"/>
       </defs>
       <use xlink:href="#DejaVuSerif-45"/>
       <use xlink:href="#DejaVuSerif-6c" x="72.998047"/>
       <use xlink:href="#DejaVuSerif-61" x="104.980469"/>
       <use xlink:href="#DejaVuSerif-73" x="164.599609"/>
       <use xlink:href="#DejaVuSerif-74" x="215.917969"/>
       <use xlink:href="#DejaVuSerif-69" x="256.103516"/>
       <use xlink:href="#DejaVuSerif-63" x="288.085938"/>
       <use xlink:href="#DejaVuSerif-6e" x="344.091797"/>
       <use xlink:href="#DejaVuSerif-65" x="408.496094"/>
       <use xlink:href="#DejaVuSerif-74" x="467.675781"/>
      </g>
      <!-- herb -->
      <g style="fill: #262626" transform="translate(65.795625 339.6395) scale(0.12 -0.12)">
       <defs>
        <path id="DejaVuSerif-68" d="M 263 0 
L 263 331 
L 781 331 
L 781 4531 
L 231 4531 
L 231 4863 
L 1356 4863 
L 1356 2731 
Q 1516 3069 1770 3241 
Q 2025 3413 2363 3413 
Q 2913 3413 3172 3097 
Q 3431 2781 3431 2113 
L 3431 331 
L 3944 331 
L 3944 0 
L 2356 0 
L 2356 331 
L 2853 331 
L 2853 1931 
Q 2853 2541 2704 2764 
Q 2556 2988 2175 2988 
Q 1775 2988 1565 2697 
Q 1356 2406 1356 1850 
L 1356 331 
L 1856 331 
L 1856 0 
L 263 0 
z
" transform="scale(0.015625)"/>
        <path id="DejaVuSerif-72" d="M 3059 3328 
L 3059 2497 
L 2728 2497 
Q 2713 2744 2591 2866 
Q 2469 2988 2234 2988 
Q 1809 2988 1582 2694 
Q 1356 2400 1356 1850 
L 1356 331 
L 2022 331 
L 2022 0 
L 263 0 
L 263 331 
L 781 331 
L 781 2994 
L 231 2994 
L 231 3322 
L 1356 3322 
L 1356 2731 
Q 1525 3078 1790 3245 
Q 2056 3413 2438 3413 
Q 2578 3413 2733 3391 
Q 2888 3369 3059 3328 
z
" transform="scale(0.015625)"/>
        <path id="DejaVuSerif-62" d="M 738 331 
L 738 4531 
L 184 4531 
L 184 4863 
L 1313 4863 
L 1313 2803 
Q 1481 3116 1742 3264 
Q 2003 3413 2388 3413 
Q 3000 3413 3387 2928 
Q 3775 2444 3775 1663 
Q 3775 881 3387 395 
Q 3000 -91 2388 -91 
Q 2003 -91 1742 57 
Q 1481 206 1313 519 
L 1313 0 
L 184 0 
L 184 331 
L 738 331 
z
M 1313 1497 
Q 1313 897 1542 583 
Q 1772 269 2209 269 
Q 2650 269 2876 622 
Q 3103 975 3103 1663 
Q 3103 2353 2876 2703 
Q 2650 3053 2209 3053 
Q 1772 3053 1542 2737 
Q 1313 2422 1313 1825 
L 1313 1497 
z
" transform="scale(0.015625)"/>
       </defs>
       <use xlink:href="#DejaVuSerif-68"/>
       <use xlink:href="#DejaVuSerif-65" x="64.404297"/>
       <use xlink:href="#DejaVuSerif-72" x="123.583984"/>
       <use xlink:href="#DejaVuSerif-62" x="171.386719"/>
      </g>
     </g>
    </g>
    <g id="xtick_2">
     <g id="text_2">
      <!-- Random Forest -->
      <g style="fill: #262626" transform="translate(78.060937 326.202125) scale(0.12 -0.12)">
       <defs>
        <path id="DejaVuSerif-52" d="M 3066 2316 
Q 3284 2256 3442 2114 
Q 3600 1972 3725 1716 
L 4403 331 
L 4972 331 
L 4972 0 
L 3872 0 
L 3144 1484 
Q 2934 1916 2759 2042 
Q 2584 2169 2278 2169 
L 1581 2169 
L 1581 331 
L 2241 331 
L 2241 0 
L 353 0 
L 353 331 
L 947 331 
L 947 4331 
L 353 4331 
L 353 4666 
L 2719 4666 
Q 3400 4666 3770 4341 
Q 4141 4016 4141 3419 
Q 4141 2938 3870 2661 
Q 3600 2384 3066 2316 
z
M 1581 2503 
L 2503 2503 
Q 2975 2503 3200 2726 
Q 3425 2950 3425 3419 
Q 3425 3888 3200 4109 
Q 2975 4331 2503 4331 
L 1581 4331 
L 1581 2503 
z
" transform="scale(0.015625)"/>
        <path id="DejaVuSerif-64" d="M 3359 331 
L 3909 331 
L 3909 0 
L 2784 0 
L 2784 519 
Q 2616 206 2355 57 
Q 2094 -91 1709 -91 
Q 1097 -91 708 395 
Q 319 881 319 1663 
Q 319 2444 706 2928 
Q 1094 3413 1709 3413 
Q 2094 3413 2355 3264 
Q 2616 3116 2784 2803 
L 2784 4531 
L 2241 4531 
L 2241 4863 
L 3359 4863 
L 3359 331 
z
M 2784 1497 
L 2784 1825 
Q 2784 2422 2554 2737 
Q 2325 3053 1888 3053 
Q 1444 3053 1217 2703 
Q 991 2353 991 1663 
Q 991 975 1217 622 
Q 1444 269 1888 269 
Q 2325 269 2554 583 
Q 2784 897 2784 1497 
z
" transform="scale(0.015625)"/>
        <path id="DejaVuSerif-6f" d="M 1925 219 
Q 2388 219 2623 584 
Q 2859 950 2859 1663 
Q 2859 2375 2623 2739 
Q 2388 3103 1925 3103 
Q 1463 3103 1227 2739 
Q 991 2375 991 1663 
Q 991 950 1228 584 
Q 1466 219 1925 219 
z
M 1925 -91 
Q 1200 -91 759 389 
Q 319 869 319 1663 
Q 319 2456 758 2934 
Q 1197 3413 1925 3413 
Q 2653 3413 3092 2934 
Q 3531 2456 3531 1663 
Q 3531 869 3092 389 
Q 2653 -91 1925 -91 
z
" transform="scale(0.015625)"/>
        <path id="DejaVuSerif-6d" d="M 3316 2675 
Q 3481 3041 3739 3227 
Q 3997 3413 4341 3413 
Q 4863 3413 5119 3089 
Q 5375 2766 5375 2113 
L 5375 331 
L 5894 331 
L 5894 0 
L 4300 0 
L 4300 331 
L 4800 331 
L 4800 2047 
Q 4800 2556 4650 2772 
Q 4500 2988 4153 2988 
Q 3769 2988 3567 2697 
Q 3366 2406 3366 1850 
L 3366 331 
L 3866 331 
L 3866 0 
L 2291 0 
L 2291 331 
L 2791 331 
L 2791 2069 
Q 2791 2566 2641 2777 
Q 2491 2988 2144 2988 
Q 1759 2988 1557 2697 
Q 1356 2406 1356 1850 
L 1356 331 
L 1856 331 
L 1856 0 
L 263 0 
L 263 331 
L 781 331 
L 781 2994 
L 231 2994 
L 231 3322 
L 1356 3322 
L 1356 2731 
Q 1516 3063 1762 3238 
Q 2009 3413 2322 3413 
Q 2709 3413 2968 3220 
Q 3228 3028 3316 2675 
z
" transform="scale(0.015625)"/>
        <path id="DejaVuSerif-20" transform="scale(0.015625)"/>
        <path id="DejaVuSerif-46" d="M 353 0 
L 353 331 
L 947 331 
L 947 4331 
L 353 4331 
L 353 4666 
L 4172 4666 
L 4172 3628 
L 3788 3628 
L 3788 4281 
L 1581 4281 
L 1581 2719 
L 3175 2719 
L 3175 3303 
L 3559 3303 
L 3559 1753 
L 3175 1753 
L 3175 2338 
L 1581 2338 
L 1581 331 
L 2328 331 
L 2328 0 
L 353 0 
z
" transform="scale(0.015625)"/>
       </defs>
       <use xlink:href="#DejaVuSerif-52"/>
       <use xlink:href="#DejaVuSerif-61" x="77.542969"/>
       <use xlink:href="#DejaVuSerif-6e" x="137.162109"/>
       <use xlink:href="#DejaVuSerif-64" x="201.566406"/>
       <use xlink:href="#DejaVuSerif-6f" x="265.580078"/>
       <use xlink:href="#DejaVuSerif-6d" x="325.785156"/>
       <use xlink:href="#DejaVuSerif-20" x="420.609375"/>
       <use xlink:href="#DejaVuSerif-46" x="452.396484"/>
       <use xlink:href="#DejaVuSerif-6f" x="516.28125"/>
       <use xlink:href="#DejaVuSerif-72" x="576.486328"/>
       <use xlink:href="#DejaVuSerif-65" x="624.289062"/>
       <use xlink:href="#DejaVuSerif-73" x="683.46875"/>
       <use xlink:href="#DejaVuSerif-74" x="734.787109"/>
      </g>
      <!-- herb -->
      <g style="fill: #262626" transform="translate(110.435625 339.6395) scale(0.12 -0.12)">
       <use xlink:href="#DejaVuSerif-68"/>
       <use xlink:href="#DejaVuSerif-65" x="64.404297"/>
       <use xlink:href="#DejaVuSerif-72" x="123.583984"/>
       <use xlink:href="#DejaVuSerif-62" x="171.386719"/>
      </g>
     </g>
    </g>
    <g id="xtick_3">
     <g id="text_3">
      <!-- Elasticnet -->
      <g style="fill: #262626" transform="translate(138.7275 326.202125) scale(0.12 -0.12)">
       <use xlink:href="#DejaVuSerif-45"/>
       <use xlink:href="#DejaVuSerif-6c" x="72.998047"/>
       <use xlink:href="#DejaVuSerif-61" x="104.980469"/>
       <use xlink:href="#DejaVuSerif-73" x="164.599609"/>
       <use xlink:href="#DejaVuSerif-74" x="215.917969"/>
       <use xlink:href="#DejaVuSerif-69" x="256.103516"/>
       <use xlink:href="#DejaVuSerif-63" x="288.085938"/>
       <use xlink:href="#DejaVuSerif-6e" x="344.091797"/>
       <use xlink:href="#DejaVuSerif-65" x="408.496094"/>
       <use xlink:href="#DejaVuSerif-74" x="467.675781"/>
      </g>
      <!-- moly -->
      <g style="fill: #262626" transform="translate(154.589062 339.6395) scale(0.12 -0.12)">
       <defs>
        <path id="DejaVuSerif-79" d="M 1381 -609 
L 1600 -56 
L 359 2988 
L -19 2988 
L -19 3322 
L 1509 3322 
L 1509 2988 
L 978 2988 
L 1913 703 
L 2847 2988 
L 2350 2988 
L 2350 3322 
L 3597 3322 
L 3597 2988 
L 3225 2988 
L 1703 -750 
Q 1547 -1138 1356 -1280 
Q 1166 -1422 819 -1422 
Q 672 -1422 517 -1397 
Q 363 -1372 206 -1325 
L 206 -691 
L 500 -691 
Q 519 -903 608 -995 
Q 697 -1088 884 -1088 
Q 1056 -1088 1161 -992 
Q 1266 -897 1381 -609 
z
" transform="scale(0.015625)"/>
       </defs>
       <use xlink:href="#DejaVuSerif-6d"/>
       <use xlink:href="#DejaVuSerif-6f" x="94.824219"/>
       <use xlink:href="#DejaVuSerif-6c" x="155.029297"/>
       <use xlink:href="#DejaVuSerif-79" x="187.011719"/>
      </g>
     </g>
    </g>
    <g id="xtick_4">
     <g id="text_4">
      <!-- Random Forest -->
      <g style="fill: #262626" transform="translate(167.340938 326.202125) scale(0.12 -0.12)">
       <use xlink:href="#DejaVuSerif-52"/>
       <use xlink:href="#DejaVuSerif-61" x="77.542969"/>
       <use xlink:href="#DejaVuSerif-6e" x="137.162109"/>
       <use xlink:href="#DejaVuSerif-64" x="201.566406"/>
       <use xlink:href="#DejaVuSerif-6f" x="265.580078"/>
       <use xlink:href="#DejaVuSerif-6d" x="325.785156"/>
       <use xlink:href="#DejaVuSerif-20" x="420.609375"/>
       <use xlink:href="#DejaVuSerif-46" x="452.396484"/>
       <use xlink:href="#DejaVuSerif-6f" x="516.28125"/>
       <use xlink:href="#DejaVuSerif-72" x="576.486328"/>
       <use xlink:href="#DejaVuSerif-65" x="624.289062"/>
       <use xlink:href="#DejaVuSerif-73" x="683.46875"/>
       <use xlink:href="#DejaVuSerif-74" x="734.787109"/>
      </g>
      <!-- moly -->
      <g style="fill: #262626" transform="translate(199.229063 339.6395) scale(0.12 -0.12)">
       <use xlink:href="#DejaVuSerif-6d"/>
       <use xlink:href="#DejaVuSerif-6f" x="94.824219"/>
       <use xlink:href="#DejaVuSerif-6c" x="155.029297"/>
       <use xlink:href="#DejaVuSerif-79" x="187.011719"/>
      </g>
     </g>
    </g>
    <g id="xtick_5">
     <g id="text_5">
      <!-- Ridge -->
      <g style="fill: #262626" transform="translate(240.81 326.202125) scale(0.12 -0.12)">
       <defs>
        <path id="DejaVuSerif-67" d="M 3359 2988 
L 3359 72 
Q 3359 -644 2965 -1033 
Q 2572 -1422 1844 -1422 
Q 1516 -1422 1216 -1362 
Q 916 -1303 641 -1184 
L 641 -488 
L 941 -488 
Q 997 -813 1206 -963 
Q 1416 -1113 1806 -1113 
Q 2313 -1113 2548 -827 
Q 2784 -541 2784 72 
L 2784 519 
Q 2616 206 2355 57 
Q 2094 -91 1709 -91 
Q 1097 -91 708 395 
Q 319 881 319 1663 
Q 319 2444 706 2928 
Q 1094 3413 1709 3413 
Q 2094 3413 2355 3264 
Q 2616 3116 2784 2803 
L 2784 3322 
L 3909 3322 
L 3909 2988 
L 3359 2988 
z
M 2784 1825 
Q 2784 2422 2554 2737 
Q 2325 3053 1888 3053 
Q 1444 3053 1217 2703 
Q 991 2353 991 1663 
Q 991 975 1217 622 
Q 1444 269 1888 269 
Q 2325 269 2554 583 
Q 2784 897 2784 1497 
L 2784 1825 
z
" transform="scale(0.015625)"/>
       </defs>
       <use xlink:href="#DejaVuSerif-52"/>
       <use xlink:href="#DejaVuSerif-69" x="75.292969"/>
       <use xlink:href="#DejaVuSerif-64" x="107.275391"/>
       <use xlink:href="#DejaVuSerif-67" x="171.289062"/>
       <use xlink:href="#DejaVuSerif-65" x="235.302734"/>
      </g>
      <!-- Regression -->
      <g style="fill: #262626" transform="translate(224.597813 339.810125) scale(0.12 -0.12)">
       <use xlink:href="#DejaVuSerif-52"/>
       <use xlink:href="#DejaVuSerif-65" x="75.292969"/>
       <use xlink:href="#DejaVuSerif-67" x="134.472656"/>
       <use xlink:href="#DejaVuSerif-72" x="198.486328"/>
       <use xlink:href="#DejaVuSerif-65" x="246.289062"/>
       <use xlink:href="#DejaVuSerif-73" x="305.46875"/>
       <use xlink:href="#DejaVuSerif-73" x="356.787109"/>
       <use xlink:href="#DejaVuSerif-69" x="408.105469"/>
       <use xlink:href="#DejaVuSerif-6f" x="440.087891"/>
       <use xlink:href="#DejaVuSerif-6e" x="500.292969"/>
      </g>
      <!-- ft -->
      <g style="fill: #262626" transform="translate(253.847813 353.418125) scale(0.12 -0.12)">
       <defs>
        <path id="DejaVuSerif-66" d="M 2753 4078 
L 2450 4078 
Q 2447 4313 2317 4434 
Q 2188 4556 1941 4556 
Q 1619 4556 1487 4379 
Q 1356 4203 1356 3750 
L 1356 3322 
L 2284 3322 
L 2284 2988 
L 1356 2988 
L 1356 331 
L 2094 331 
L 2094 0 
L 231 0 
L 231 331 
L 781 331 
L 781 2988 
L 231 2988 
L 231 3322 
L 781 3322 
L 781 3738 
Q 781 4294 1070 4578 
Q 1359 4863 1919 4863 
Q 2128 4863 2337 4825 
Q 2547 4788 2753 4709 
L 2753 4078 
z
" transform="scale(0.015625)"/>
       </defs>
       <use xlink:href="#DejaVuSerif-66"/>
       <use xlink:href="#DejaVuSerif-74" x="37.011719"/>
      </g>
     </g>
    </g>
    <g id="xtick_6">
     <g id="text_6">
      <!-- Random Forest -->
      <g style="fill: #262626" transform="translate(256.620938 326.202125) scale(0.12 -0.12)">
       <use xlink:href="#DejaVuSerif-52"/>
       <use xlink:href="#DejaVuSerif-61" x="77.542969"/>
       <use xlink:href="#DejaVuSerif-6e" x="137.162109"/>
       <use xlink:href="#DejaVuSerif-64" x="201.566406"/>
       <use xlink:href="#DejaVuSerif-6f" x="265.580078"/>
       <use xlink:href="#DejaVuSerif-6d" x="325.785156"/>
       <use xlink:href="#DejaVuSerif-20" x="420.609375"/>
       <use xlink:href="#DejaVuSerif-46" x="452.396484"/>
       <use xlink:href="#DejaVuSerif-6f" x="516.28125"/>
       <use xlink:href="#DejaVuSerif-72" x="576.486328"/>
       <use xlink:href="#DejaVuSerif-65" x="624.289062"/>
       <use xlink:href="#DejaVuSerif-73" x="683.46875"/>
       <use xlink:href="#DejaVuSerif-74" x="734.787109"/>
      </g>
      <!-- ft -->
      <g style="fill: #262626" transform="translate(298.487813 339.6395) scale(0.12 -0.12)">
       <use xlink:href="#DejaVuSerif-66"/>
       <use xlink:href="#DejaVuSerif-74" x="37.011719"/>
      </g>
     </g>
    </g>
    <g id="xtick_7">
     <g id="text_7">
      <!-- Ridge -->
      <g style="fill: #262626" transform="translate(330.09 326.202125) scale(0.12 -0.12)">
       <use xlink:href="#DejaVuSerif-52"/>
       <use xlink:href="#DejaVuSerif-69" x="75.292969"/>
       <use xlink:href="#DejaVuSerif-64" x="107.275391"/>
       <use xlink:href="#DejaVuSerif-67" x="171.289062"/>
       <use xlink:href="#DejaVuSerif-65" x="235.302734"/>
      </g>
      <!-- Regression -->
      <g style="fill: #262626" transform="translate(313.877813 339.810125) scale(0.12 -0.12)">
       <use xlink:href="#DejaVuSerif-52"/>
       <use xlink:href="#DejaVuSerif-65" x="75.292969"/>
       <use xlink:href="#DejaVuSerif-67" x="134.472656"/>
       <use xlink:href="#DejaVuSerif-72" x="198.486328"/>
       <use xlink:href="#DejaVuSerif-65" x="246.289062"/>
       <use xlink:href="#DejaVuSerif-73" x="305.46875"/>
       <use xlink:href="#DejaVuSerif-73" x="356.787109"/>
       <use xlink:href="#DejaVuSerif-69" x="408.105469"/>
       <use xlink:href="#DejaVuSerif-6f" x="440.087891"/>
       <use xlink:href="#DejaVuSerif-6e" x="500.292969"/>
      </g>
      <!-- seed -->
      <g style="fill: #262626" transform="translate(333.737813 353.418125) scale(0.12 -0.12)">
       <use xlink:href="#DejaVuSerif-73"/>
       <use xlink:href="#DejaVuSerif-65" x="51.318359"/>
       <use xlink:href="#DejaVuSerif-65" x="110.498047"/>
       <use xlink:href="#DejaVuSerif-64" x="169.677734"/>
      </g>
     </g>
    </g>
    <g id="xtick_8">
     <g id="text_8">
      <!-- Random Forest -->
      <g style="fill: #262626" transform="translate(345.900938 326.202125) scale(0.12 -0.12)">
       <use xlink:href="#DejaVuSerif-52"/>
       <use xlink:href="#DejaVuSerif-61" x="77.542969"/>
       <use xlink:href="#DejaVuSerif-6e" x="137.162109"/>
       <use xlink:href="#DejaVuSerif-64" x="201.566406"/>
       <use xlink:href="#DejaVuSerif-6f" x="265.580078"/>
       <use xlink:href="#DejaVuSerif-6d" x="325.785156"/>
       <use xlink:href="#DejaVuSerif-20" x="420.609375"/>
       <use xlink:href="#DejaVuSerif-46" x="452.396484"/>
       <use xlink:href="#DejaVuSerif-6f" x="516.28125"/>
       <use xlink:href="#DejaVuSerif-72" x="576.486328"/>
       <use xlink:href="#DejaVuSerif-65" x="624.289062"/>
       <use xlink:href="#DejaVuSerif-73" x="683.46875"/>
       <use xlink:href="#DejaVuSerif-74" x="734.787109"/>
      </g>
      <!-- seed -->
      <g style="fill: #262626" transform="translate(378.377813 339.6395) scale(0.12 -0.12)">
       <use xlink:href="#DejaVuSerif-73"/>
       <use xlink:href="#DejaVuSerif-65" x="51.318359"/>
       <use xlink:href="#DejaVuSerif-65" x="110.498047"/>
       <use xlink:href="#DejaVuSerif-64" x="169.677734"/>
      </g>
     </g>
    </g>
   </g>
   <g id="matplotlib.axis_2">
    <g id="ytick_1">
     <g id="line2d_1">
      <path d="M 57.6 258.356809 
L 414.72 258.356809 
" clip-path="url(#p3e28e76d0f)" style="fill: none; stroke: #cccccc; stroke-linecap: round"/>
     </g>
     <g id="text_9">
      <!-- 0.0 -->
      <g style="fill: #262626" transform="translate(29.01625 262.915871) scale(0.12 -0.12)">
       <defs>
        <path id="DejaVuSerif-30" d="M 2034 219 
Q 2513 219 2750 744 
Q 2988 1269 2988 2328 
Q 2988 3391 2750 3916 
Q 2513 4441 2034 4441 
Q 1556 4441 1318 3916 
Q 1081 3391 1081 2328 
Q 1081 1269 1318 744 
Q 1556 219 2034 219 
z
M 2034 -91 
Q 1275 -91 848 546 
Q 422 1184 422 2328 
Q 422 3475 848 4112 
Q 1275 4750 2034 4750 
Q 2797 4750 3222 4112 
Q 3647 3475 3647 2328 
Q 3647 1184 3222 546 
Q 2797 -91 2034 -91 
z
" transform="scale(0.015625)"/>
        <path id="DejaVuSerif-2e" d="M 603 325 
Q 603 500 722 622 
Q 841 744 1019 744 
Q 1191 744 1312 622 
Q 1434 500 1434 325 
Q 1434 153 1312 31 
Q 1191 -91 1019 -91 
Q 841 -91 722 29 
Q 603 150 603 325 
z
" transform="scale(0.015625)"/>
       </defs>
       <use xlink:href="#DejaVuSerif-30"/>
       <use xlink:href="#DejaVuSerif-2e" x="63.623047"/>
       <use xlink:href="#DejaVuSerif-30" x="95.410156"/>
      </g>
     </g>
    </g>
    <g id="ytick_2">
     <g id="line2d_2">
      <path d="M 57.6 206.381769 
L 414.72 206.381769 
" clip-path="url(#p3e28e76d0f)" style="fill: none; stroke: #cccccc; stroke-linecap: round"/>
     </g>
     <g id="text_10">
      <!-- 0.2 -->
      <g style="fill: #262626" transform="translate(29.01625 210.940831) scale(0.12 -0.12)">
       <defs>
        <path id="DejaVuSerif-32" d="M 819 3553 
L 469 3553 
L 469 4384 
Q 803 4563 1142 4656 
Q 1481 4750 1806 4750 
Q 2534 4750 2956 4397 
Q 3378 4044 3378 3438 
Q 3378 2753 2422 1800 
Q 2347 1728 2309 1691 
L 1131 513 
L 3078 513 
L 3078 1088 
L 3444 1088 
L 3444 0 
L 434 0 
L 434 341 
L 1850 1753 
Q 2319 2222 2519 2614 
Q 2719 3006 2719 3438 
Q 2719 3909 2473 4175 
Q 2228 4441 1797 4441 
Q 1350 4441 1106 4219 
Q 863 3997 819 3553 
z
" transform="scale(0.015625)"/>
       </defs>
       <use xlink:href="#DejaVuSerif-30"/>
       <use xlink:href="#DejaVuSerif-2e" x="63.623047"/>
       <use xlink:href="#DejaVuSerif-32" x="95.410156"/>
      </g>
     </g>
    </g>
    <g id="ytick_3">
     <g id="line2d_3">
      <path d="M 57.6 154.406729 
L 414.72 154.406729 
" clip-path="url(#p3e28e76d0f)" style="fill: none; stroke: #cccccc; stroke-linecap: round"/>
     </g>
     <g id="text_11">
      <!-- 0.4 -->
      <g style="fill: #262626" transform="translate(29.01625 158.965791) scale(0.12 -0.12)">
       <defs>
        <path id="DejaVuSerif-34" d="M 2234 1581 
L 2234 4063 
L 641 1581 
L 2234 1581 
z
M 3609 0 
L 1484 0 
L 1484 331 
L 2234 331 
L 2234 1247 
L 197 1247 
L 197 1588 
L 2241 4750 
L 2859 4750 
L 2859 1581 
L 3750 1581 
L 3750 1247 
L 2859 1247 
L 2859 331 
L 3609 331 
L 3609 0 
z
" transform="scale(0.015625)"/>
       </defs>
       <use xlink:href="#DejaVuSerif-30"/>
       <use xlink:href="#DejaVuSerif-2e" x="63.623047"/>
       <use xlink:href="#DejaVuSerif-34" x="95.410156"/>
      </g>
     </g>
    </g>
    <g id="ytick_4">
     <g id="line2d_4">
      <path d="M 57.6 102.431689 
L 414.72 102.431689 
" clip-path="url(#p3e28e76d0f)" style="fill: none; stroke: #cccccc; stroke-linecap: round"/>
     </g>
     <g id="text_12">
      <!-- 0.6 -->
      <g style="fill: #262626" transform="translate(29.01625 106.990751) scale(0.12 -0.12)">
       <defs>
        <path id="DejaVuSerif-36" d="M 2094 219 
Q 2534 219 2771 542 
Q 3009 866 3009 1472 
Q 3009 2078 2771 2401 
Q 2534 2725 2094 2725 
Q 1647 2725 1412 2412 
Q 1178 2100 1178 1509 
Q 1178 888 1415 553 
Q 1653 219 2094 219 
z
M 1075 2569 
Q 1288 2803 1556 2918 
Q 1825 3034 2163 3034 
Q 2859 3034 3264 2615 
Q 3669 2197 3669 1472 
Q 3669 763 3233 336 
Q 2797 -91 2069 -91 
Q 1278 -91 853 498 
Q 428 1088 428 2181 
Q 428 3406 931 4078 
Q 1434 4750 2350 4750 
Q 2597 4750 2869 4703 
Q 3141 4656 3425 4563 
L 3425 3794 
L 3072 3794 
Q 3034 4109 2831 4275 
Q 2628 4441 2284 4441 
Q 1678 4441 1381 3981 
Q 1084 3522 1075 2569 
z
" transform="scale(0.015625)"/>
       </defs>
       <use xlink:href="#DejaVuSerif-30"/>
       <use xlink:href="#DejaVuSerif-2e" x="63.623047"/>
       <use xlink:href="#DejaVuSerif-36" x="95.410156"/>
      </g>
     </g>
    </g>
    <g id="ytick_5">
     <g id="line2d_5">
      <path d="M 57.6 50.456648 
L 414.72 50.456648 
" clip-path="url(#p3e28e76d0f)" style="fill: none; stroke: #cccccc; stroke-linecap: round"/>
     </g>
     <g id="text_13">
      <!-- 0.8 -->
      <g style="fill: #262626" transform="translate(29.01625 55.015711) scale(0.12 -0.12)">
       <defs>
        <path id="DejaVuSerif-38" d="M 2981 1275 
Q 2981 1775 2732 2051 
Q 2484 2328 2034 2328 
Q 1584 2328 1336 2051 
Q 1088 1775 1088 1275 
Q 1088 772 1336 495 
Q 1584 219 2034 219 
Q 2484 219 2732 495 
Q 2981 772 2981 1275 
z
M 2853 3541 
Q 2853 3966 2637 4203 
Q 2422 4441 2034 4441 
Q 1650 4441 1433 4203 
Q 1216 3966 1216 3541 
Q 1216 3113 1433 2875 
Q 1650 2638 2034 2638 
Q 2422 2638 2637 2875 
Q 2853 3113 2853 3541 
z
M 2516 2484 
Q 3047 2413 3344 2092 
Q 3641 1772 3641 1275 
Q 3641 619 3225 264 
Q 2809 -91 2034 -91 
Q 1263 -91 845 264 
Q 428 619 428 1275 
Q 428 1772 725 2092 
Q 1022 2413 1556 2484 
Q 1084 2569 832 2842 
Q 581 3116 581 3541 
Q 581 4103 968 4426 
Q 1356 4750 2034 4750 
Q 2713 4750 3100 4426 
Q 3488 4103 3488 3541 
Q 3488 3116 3236 2842 
Q 2984 2569 2516 2484 
z
" transform="scale(0.015625)"/>
       </defs>
       <use xlink:href="#DejaVuSerif-30"/>
       <use xlink:href="#DejaVuSerif-2e" x="63.623047"/>
       <use xlink:href="#DejaVuSerif-38" x="95.410156"/>
      </g>
     </g>
    </g>
    <g id="text_14">
     <!-- $\text{r}^2$ -->
     <g style="fill: #262626" transform="translate(22.104688 180.828) rotate(-90) scale(0.14 -0.14)">
      <defs>
       <path id="DejaVuSans-72" d="M 2631 2963 
Q 2534 3019 2420 3045 
Q 2306 3072 2169 3072 
Q 1681 3072 1420 2755 
Q 1159 2438 1159 1844 
L 1159 0 
L 581 0 
L 581 3500 
L 1159 3500 
L 1159 2956 
Q 1341 3275 1631 3429 
Q 1922 3584 2338 3584 
Q 2397 3584 2469 3576 
Q 2541 3569 2628 3553 
L 2631 2963 
z
" transform="scale(0.015625)"/>
       <path id="DejaVuSans-32" d="M 1228 531 
L 3431 531 
L 3431 0 
L 469 0 
L 469 531 
Q 828 903 1448 1529 
Q 2069 2156 2228 2338 
Q 2531 2678 2651 2914 
Q 2772 3150 2772 3378 
Q 2772 3750 2511 3984 
Q 2250 4219 1831 4219 
Q 1534 4219 1204 4116 
Q 875 4013 500 3803 
L 500 4441 
Q 881 4594 1212 4672 
Q 1544 4750 1819 4750 
Q 2544 4750 2975 4387 
Q 3406 4025 3406 3419 
Q 3406 3131 3298 2873 
Q 3191 2616 2906 2266 
Q 2828 2175 2409 1742 
Q 1991 1309 1228 531 
z
" transform="scale(0.015625)"/>
      </defs>
      <use xlink:href="#DejaVuSans-72" transform="translate(0 0.765625)"/>
      <use xlink:href="#DejaVuSans-32" transform="translate(42.070312 39.046875) scale(0.7)"/>
     </g>
    </g>
   </g>
   <g id="PolyCollection_1">
    <defs>
     <path id="m4caa893e90" d="M 80.259913 -103.188975 
L 79.580087 -103.188975 
L 79.519781 -104.848838 
L 79.451703 -106.508701 
L 79.37544 -108.168564 
L 79.290665 -109.828426 
L 79.197163 -111.488289 
L 79.094849 -113.148152 
L 78.983786 -114.808015 
L 78.864203 -116.467878 
L 78.736501 -118.12774 
L 78.601267 -119.787603 
L 78.459269 -121.447466 
L 78.311457 -123.107329 
L 78.158946 -124.767192 
L 78.003002 -126.427055 
L 77.845013 -128.086917 
L 77.686462 -129.74678 
L 77.52889 -131.406643 
L 77.373853 -133.066506 
L 77.222885 -134.726369 
L 77.07745 -136.386231 
L 76.938904 -138.046094 
L 76.808453 -139.705957 
L 76.687121 -141.36582 
L 76.575718 -143.025683 
L 76.474827 -144.685546 
L 76.384781 -146.345408 
L 76.30567 -148.005271 
L 76.23734 -149.665134 
L 76.17941 -151.324997 
L 76.131292 -152.98486 
L 76.09222 -154.644722 
L 76.061283 -156.304585 
L 76.037458 -157.964448 
L 76.019652 -159.624311 
L 76.006733 -161.284174 
L 75.997567 -162.944037 
L 75.991048 -164.603899 
L 75.986122 -166.263762 
L 75.98181 -167.923625 
L 75.977221 -169.583488 
L 75.971561 -171.243351 
L 75.964141 -172.903213 
L 75.954374 -174.563076 
L 75.941774 -176.222939 
L 75.925955 -177.882802 
L 75.906626 -179.542665 
L 75.883586 -181.202528 
L 75.856725 -182.86239 
L 75.826023 -184.522253 
L 75.791556 -186.182116 
L 75.753501 -187.841979 
L 75.71214 -189.501842 
L 75.667877 -191.161705 
L 75.62124 -192.821567 
L 75.572892 -194.48143 
L 75.523637 -196.141293 
L 75.474422 -197.801156 
L 75.426333 -199.461019 
L 75.380586 -201.120881 
L 75.338513 -202.780744 
L 75.301538 -204.440607 
L 75.271147 -206.10047 
L 75.248855 -207.760333 
L 75.236165 -209.420196 
L 75.234524 -211.080058 
L 75.245276 -212.739921 
L 75.269616 -214.399784 
L 75.308552 -216.059647 
L 75.362856 -217.71951 
L 75.433039 -219.379372 
L 75.519319 -221.039235 
L 75.621609 -222.699098 
L 75.739508 -224.358961 
L 75.872303 -226.018824 
L 76.018985 -227.678687 
L 76.178275 -229.338549 
L 76.348651 -230.998412 
L 76.528391 -232.658275 
L 76.715622 -234.318138 
L 76.908364 -235.978001 
L 77.104585 -237.637863 
L 77.302255 -239.297726 
L 77.499388 -240.957589 
L 77.694096 -242.617452 
L 77.884625 -244.277315 
L 78.069386 -245.937178 
L 78.24699 -247.59704 
L 78.416259 -249.256903 
L 78.576239 -250.916766 
L 78.726207 -252.576629 
L 78.865662 -254.236492 
L 78.994319 -255.896354 
L 79.112093 -257.556217 
L 79.219079 -259.21608 
L 79.31553 -260.875943 
L 79.401834 -262.535806 
L 79.478487 -264.195669 
L 79.54607 -265.855531 
L 79.605222 -267.515394 
L 80.234778 -267.515394 
L 80.234778 -267.515394 
L 80.29393 -265.855531 
L 80.361513 -264.195669 
L 80.438166 -262.535806 
L 80.52447 -260.875943 
L 80.620921 -259.21608 
L 80.727907 -257.556217 
L 80.845681 -255.896354 
L 80.974338 -254.236492 
L 81.113793 -252.576629 
L 81.263761 -250.916766 
L 81.423741 -249.256903 
L 81.59301 -247.59704 
L 81.770614 -245.937178 
L 81.955375 -244.277315 
L 82.145904 -242.617452 
L 82.340612 -240.957589 
L 82.537745 -239.297726 
L 82.735415 -237.637863 
L 82.931636 -235.978001 
L 83.124378 -234.318138 
L 83.311609 -232.658275 
L 83.491349 -230.998412 
L 83.661725 -229.338549 
L 83.821015 -227.678687 
L 83.967697 -226.018824 
L 84.100492 -224.358961 
L 84.218391 -222.699098 
L 84.320681 -221.039235 
L 84.406961 -219.379372 
L 84.477144 -217.71951 
L 84.531448 -216.059647 
L 84.570384 -214.399784 
L 84.594724 -212.739921 
L 84.605476 -211.080058 
L 84.603835 -209.420196 
L 84.591145 -207.760333 
L 84.568853 -206.10047 
L 84.538462 -204.440607 
L 84.501487 -202.780744 
L 84.459414 -201.120881 
L 84.413667 -199.461019 
L 84.365578 -197.801156 
L 84.316363 -196.141293 
L 84.267108 -194.48143 
L 84.21876 -192.821567 
L 84.172123 -191.161705 
L 84.12786 -189.501842 
L 84.086499 -187.841979 
L 84.048444 -186.182116 
L 84.013977 -184.522253 
L 83.983275 -182.86239 
L 83.956414 -181.202528 
L 83.933374 -179.542665 
L 83.914045 -177.882802 
L 83.898226 -176.222939 
L 83.885626 -174.563076 
L 83.875859 -172.903213 
L 83.868439 -171.243351 
L 83.862779 -169.583488 
L 83.85819 -167.923625 
L 83.853878 -166.263762 
L 83.848952 -164.603899 
L 83.842433 -162.944037 
L 83.833267 -161.284174 
L 83.820348 -159.624311 
L 83.802542 -157.964448 
L 83.778717 -156.304585 
L 83.74778 -154.644722 
L 83.708708 -152.98486 
L 83.66059 -151.324997 
L 83.60266 -149.665134 
L 83.53433 -148.005271 
L 83.455219 -146.345408 
L 83.365173 -144.685546 
L 83.264282 -143.025683 
L 83.152879 -141.36582 
L 83.031547 -139.705957 
L 82.901096 -138.046094 
L 82.76255 -136.386231 
L 82.617115 -134.726369 
L 82.466147 -133.066506 
L 82.31111 -131.406643 
L 82.153538 -129.74678 
L 81.994987 -128.086917 
L 81.836998 -126.427055 
L 81.681054 -124.767192 
L 81.528543 -123.107329 
L 81.380731 -121.447466 
L 81.238733 -119.787603 
L 81.103499 -118.12774 
L 80.975797 -116.467878 
L 80.856214 -114.808015 
L 80.745151 -113.148152 
L 80.642837 -111.488289 
L 80.549335 -109.828426 
L 80.46456 -108.168564 
L 80.388297 -106.508701 
L 80.320219 -104.848838 
L 80.259913 -103.188975 
z
" style="stroke: #404040; stroke-width: 1.25"/>
    </defs>
    <g clip-path="url(#p3e28e76d0f)">
     <use xlink:href="#m4caa893e90" x="0" y="345.6" style="fill: #e6e6e6; stroke: #404040; stroke-width: 1.25"/>
    </g>
   </g>
   <g id="PolyCollection_2">
    <defs>
     <path id="m4712245140" d="M 124.717518 -109.961129 
L 124.402482 -109.961129 
L 124.370318 -111.758659 
L 124.333041 -113.556189 
L 124.290145 -115.353719 
L 124.241131 -117.151249 
L 124.185516 -118.948779 
L 124.122848 -120.74631 
L 124.052714 -122.54384 
L 123.974757 -124.34137 
L 123.888684 -126.1389 
L 123.794282 -127.93643 
L 123.69143 -129.73396 
L 123.580105 -131.531491 
L 123.460396 -133.329021 
L 123.332514 -135.126551 
L 123.196793 -136.924081 
L 123.0537 -138.721611 
L 122.903837 -140.519141 
L 122.747943 -142.316672 
L 122.586891 -144.114202 
L 122.421689 -145.911732 
L 122.253468 -147.709262 
L 122.083475 -149.506792 
L 121.913061 -151.304322 
L 121.743662 -153.101853 
L 121.576779 -154.899383 
L 121.413953 -156.696913 
L 121.256732 -158.494443 
L 121.106642 -160.291973 
L 120.96515 -162.089503 
L 120.83362 -163.887034 
L 120.713279 -165.684564 
L 120.605173 -167.482094 
L 120.510128 -169.279624 
L 120.428719 -171.077154 
L 120.361236 -172.874684 
L 120.307664 -174.672215 
L 120.267672 -176.469745 
L 120.240606 -178.267275 
L 120.225502 -180.064805 
L 120.221106 -181.862335 
L 120.225905 -183.659865 
L 120.238174 -185.457396 
L 120.256029 -187.254926 
L 120.277489 -189.052456 
L 120.300549 -190.849986 
L 120.323246 -192.647516 
L 120.343739 -194.445046 
L 120.360372 -196.242577 
L 120.371744 -198.040107 
L 120.376763 -199.837637 
L 120.374691 -201.635167 
L 120.365175 -203.432697 
L 120.34827 -205.230227 
L 120.324434 -207.027758 
L 120.294524 -208.825288 
L 120.259763 -210.622818 
L 120.2217 -212.420348 
L 120.182158 -214.217878 
L 120.143176 -216.015408 
L 120.10693 -217.812939 
L 120.075667 -219.610469 
L 120.051625 -221.407999 
L 120.036962 -223.205529 
L 120.033678 -225.003059 
L 120.04356 -226.80059 
L 120.068118 -228.59812 
L 120.10854 -230.39565 
L 120.165661 -232.19318 
L 120.239937 -233.99071 
L 120.331436 -235.78824 
L 120.439838 -237.585771 
L 120.564454 -239.383301 
L 120.704246 -241.180831 
L 120.857868 -242.978361 
L 121.023703 -244.775891 
L 121.199915 -246.573421 
L 121.384505 -248.370952 
L 121.575365 -250.168482 
L 121.770334 -251.966012 
L 121.967257 -253.763542 
L 122.164033 -255.561072 
L 122.358669 -257.358602 
L 122.549311 -259.156133 
L 122.734289 -260.953663 
L 122.912139 -262.751193 
L 123.081622 -264.548723 
L 123.241734 -266.346253 
L 123.391712 -268.143783 
L 123.531028 -269.941314 
L 123.659378 -271.738844 
L 123.776669 -273.536374 
L 123.882995 -275.333904 
L 123.978617 -277.131434 
L 124.063937 -278.928964 
L 124.139471 -280.726495 
L 124.205821 -282.524025 
L 124.263654 -284.321555 
L 124.313675 -286.119085 
L 124.356609 -287.916615 
L 124.763391 -287.916615 
L 124.763391 -287.916615 
L 124.806325 -286.119085 
L 124.856346 -284.321555 
L 124.914179 -282.524025 
L 124.980529 -280.726495 
L 125.056063 -278.928964 
L 125.141383 -277.131434 
L 125.237005 -275.333904 
L 125.343331 -273.536374 
L 125.460622 -271.738844 
L 125.588972 -269.941314 
L 125.728288 -268.143783 
L 125.878266 -266.346253 
L 126.038378 -264.548723 
L 126.207861 -262.751193 
L 126.385711 -260.953663 
L 126.570689 -259.156133 
L 126.761331 -257.358602 
L 126.955967 -255.561072 
L 127.152743 -253.763542 
L 127.349666 -251.966012 
L 127.544635 -250.168482 
L 127.735495 -248.370952 
L 127.920085 -246.573421 
L 128.096297 -244.775891 
L 128.262132 -242.978361 
L 128.415754 -241.180831 
L 128.555546 -239.383301 
L 128.680162 -237.585771 
L 128.788564 -235.78824 
L 128.880063 -233.99071 
L 128.954339 -232.19318 
L 129.01146 -230.39565 
L 129.051882 -228.59812 
L 129.07644 -226.80059 
L 129.086322 -225.003059 
L 129.083038 -223.205529 
L 129.068375 -221.407999 
L 129.044333 -219.610469 
L 129.01307 -217.812939 
L 128.976824 -216.015408 
L 128.937842 -214.217878 
L 128.8983 -212.420348 
L 128.860237 -210.622818 
L 128.825476 -208.825288 
L 128.795566 -207.027758 
L 128.77173 -205.230227 
L 128.754825 -203.432697 
L 128.745309 -201.635167 
L 128.743237 -199.837637 
L 128.748256 -198.040107 
L 128.759628 -196.242577 
L 128.776261 -194.445046 
L 128.796754 -192.647516 
L 128.819451 -190.849986 
L 128.842511 -189.052456 
L 128.863971 -187.254926 
L 128.881826 -185.457396 
L 128.894095 -183.659865 
L 128.898894 -181.862335 
L 128.894498 -180.064805 
L 128.879394 -178.267275 
L 128.852328 -176.469745 
L 128.812336 -174.672215 
L 128.758764 -172.874684 
L 128.691281 -171.077154 
L 128.609872 -169.279624 
L 128.514827 -167.482094 
L 128.406721 -165.684564 
L 128.28638 -163.887034 
L 128.15485 -162.089503 
L 128.013358 -160.291973 
L 127.863268 -158.494443 
L 127.706047 -156.696913 
L 127.543221 -154.899383 
L 127.376338 -153.101853 
L 127.206939 -151.304322 
L 127.036525 -149.506792 
L 126.866532 -147.709262 
L 126.698311 -145.911732 
L 126.533109 -144.114202 
L 126.372057 -142.316672 
L 126.216163 -140.519141 
L 126.0663 -138.721611 
L 125.923207 -136.924081 
L 125.787486 -135.126551 
L 125.659604 -133.329021 
L 125.539895 -131.531491 
L 125.42857 -129.73396 
L 125.325718 -127.93643 
L 125.231316 -126.1389 
L 125.145243 -124.34137 
L 125.067286 -122.54384 
L 124.997152 -120.74631 
L 124.934484 -118.948779 
L 124.878869 -117.151249 
L 124.829855 -115.353719 
L 124.786959 -113.556189 
L 124.749682 -111.758659 
L 124.717518 -109.961129 
z
" style="stroke: #404040; stroke-width: 1.25"/>
    </defs>
    <g clip-path="url(#p3e28e76d0f)">
     <use xlink:href="#m4712245140" x="0" y="345.6" style="fill: #e6e6e6; stroke: #404040; stroke-width: 1.25"/>
    </g>
   </g>
   <g id="PolyCollection_3">
    <defs>
     <path id="m51a9ae87d5" d="M 169.413683 -88.343483 
L 168.986317 -88.343483 
L 168.942978 -89.562105 
L 168.892909 -90.780726 
L 168.835481 -91.999347 
L 168.770071 -93.217969 
L 168.696073 -94.43659 
L 168.612902 -95.655211 
L 168.520002 -96.873833 
L 168.416852 -98.092454 
L 168.302961 -99.311075 
L 168.177875 -100.529697 
L 168.041177 -101.748318 
L 167.892478 -102.966939 
L 167.731427 -104.185561 
L 167.557703 -105.404182 
L 167.371024 -106.622803 
L 167.171159 -107.841425 
L 166.957934 -109.060046 
L 166.731263 -110.278668 
L 166.491168 -111.497289 
L 166.23782 -112.71591 
L 165.971577 -113.934532 
L 165.69303 -115.153153 
L 165.403049 -116.371774 
L 165.102833 -117.590396 
L 164.793941 -118.809017 
L 164.478332 -120.027638 
L 164.158379 -121.24626 
L 163.836869 -122.464881 
L 163.516984 -123.683502 
L 163.20226 -124.902124 
L 162.896523 -126.120745 
L 162.6038 -127.339366 
L 162.32821 -128.557988 
L 162.073844 -129.776609 
L 161.844624 -130.99523 
L 161.644164 -132.213852 
L 161.475628 -133.432473 
L 161.341599 -134.651094 
L 161.243963 -135.869716 
L 161.183813 -137.088337 
L 161.161388 -138.306958 
L 161.176035 -139.52558 
L 161.226213 -140.744201 
L 161.309531 -141.962822 
L 161.422813 -143.181444 
L 161.562206 -144.400065 
L 161.723308 -145.618686 
L 161.901314 -146.837308 
L 162.091185 -148.055929 
L 162.287817 -149.27455 
L 162.486214 -150.493172 
L 162.68165 -151.711793 
L 162.869826 -152.930414 
L 163.046998 -154.149036 
L 163.210091 -155.367657 
L 163.356777 -156.586278 
L 163.485535 -157.8049 
L 163.595675 -159.023521 
L 163.687328 -160.242142 
L 163.761418 -161.460764 
L 163.819599 -162.679385 
L 163.864169 -163.898006 
L 163.897966 -165.116628 
L 163.92425 -166.335249 
L 163.946562 -167.55387 
L 163.968592 -168.772492 
L 163.994032 -169.991113 
L 164.026439 -171.209734 
L 164.069105 -172.428356 
L 164.12494 -173.646977 
L 164.196374 -174.865598 
L 164.285278 -176.08422 
L 164.392905 -177.302841 
L 164.519869 -178.521462 
L 164.666131 -179.740084 
L 164.831027 -180.958705 
L 165.013308 -182.177326 
L 165.211206 -183.395948 
L 165.422513 -184.614569 
L 165.644678 -185.83319 
L 165.874907 -187.051812 
L 166.110266 -188.270433 
L 166.347786 -189.489054 
L 166.584562 -190.707676 
L 166.817835 -191.926297 
L 167.045074 -193.144918 
L 167.26403 -194.36354 
L 167.472787 -195.582161 
L 167.669781 -196.800782 
L 167.853822 -198.019404 
L 168.024085 -199.238025 
L 168.180097 -200.456646 
L 168.32171 -201.675268 
L 168.449067 -202.893889 
L 168.562563 -204.11251 
L 168.6628 -205.331132 
L 168.750544 -206.549753 
L 168.826679 -207.768374 
L 168.892168 -208.986996 
L 169.507832 -208.986996 
L 169.507832 -208.986996 
L 169.573321 -207.768374 
L 169.649456 -206.549753 
L 169.7372 -205.331132 
L 169.837437 -204.11251 
L 169.950933 -202.893889 
L 170.07829 -201.675268 
L 170.219903 -200.456646 
L 170.375915 -199.238025 
L 170.546178 -198.019404 
L 170.730219 -196.800782 
L 170.927213 -195.582161 
L 171.13597 -194.36354 
L 171.354926 -193.144918 
L 171.582165 -191.926297 
L 171.815438 -190.707676 
L 172.052214 -189.489054 
L 172.289734 -188.270433 
L 172.525093 -187.051812 
L 172.755322 -185.83319 
L 172.977487 -184.614569 
L 173.188794 -183.395948 
L 173.386692 -182.177326 
L 173.568973 -180.958705 
L 173.733869 -179.740084 
L 173.880131 -178.521462 
L 174.007095 -177.302841 
L 174.114722 -176.08422 
L 174.203626 -174.865598 
L 174.27506 -173.646977 
L 174.330895 -172.428356 
L 174.373561 -171.209734 
L 174.405968 -169.991113 
L 174.431408 -168.772492 
L 174.453438 -167.55387 
L 174.47575 -166.335249 
L 174.502034 -165.116628 
L 174.535831 -163.898006 
L 174.580401 -162.679385 
L 174.638582 -161.460764 
L 174.712672 -160.242142 
L 174.804325 -159.023521 
L 174.914465 -157.8049 
L 175.043223 -156.586278 
L 175.189909 -155.367657 
L 175.353002 -154.149036 
L 175.530174 -152.930414 
L 175.71835 -151.711793 
L 175.913786 -150.493172 
L 176.112183 -149.27455 
L 176.308815 -148.055929 
L 176.498686 -146.837308 
L 176.676692 -145.618686 
L 176.837794 -144.400065 
L 176.977187 -143.181444 
L 177.090469 -141.962822 
L 177.173787 -140.744201 
L 177.223965 -139.52558 
L 177.238612 -138.306958 
L 177.216187 -137.088337 
L 177.156037 -135.869716 
L 177.058401 -134.651094 
L 176.924372 -133.432473 
L 176.755836 -132.213852 
L 176.555376 -130.99523 
L 176.326156 -129.776609 
L 176.07179 -128.557988 
L 175.7962 -127.339366 
L 175.503477 -126.120745 
L 175.19774 -124.902124 
L 174.883016 -123.683502 
L 174.563131 -122.464881 
L 174.241621 -121.24626 
L 173.921668 -120.027638 
L 173.606059 -118.809017 
L 173.297167 -117.590396 
L 172.996951 -116.371774 
L 172.70697 -115.153153 
L 172.428423 -113.934532 
L 172.16218 -112.71591 
L 171.908832 -111.497289 
L 171.668737 -110.278668 
L 171.442066 -109.060046 
L 171.228841 -107.841425 
L 171.028976 -106.622803 
L 170.842297 -105.404182 
L 170.668573 -104.185561 
L 170.507522 -102.966939 
L 170.358823 -101.748318 
L 170.222125 -100.529697 
L 170.097039 -99.311075 
L 169.983148 -98.092454 
L 169.879998 -96.873833 
L 169.787098 -95.655211 
L 169.703927 -94.43659 
L 169.629929 -93.217969 
L 169.564519 -91.999347 
L 169.507091 -90.780726 
L 169.457022 -89.562105 
L 169.413683 -88.343483 
z
" style="stroke: #404040; stroke-width: 1.25"/>
    </defs>
    <g clip-path="url(#p3e28e76d0f)">
     <use xlink:href="#m51a9ae87d5" x="0" y="345.6" style="fill: #e6e6e6; stroke: #404040; stroke-width: 1.25"/>
    </g>
   </g>
   <g id="PolyCollection_4">
    <defs>
     <path id="m25b07a42e5" d="M 214.000098 -95.725347 
L 213.679902 -95.725347 
L 213.647727 -97.299357 
L 213.610845 -98.873367 
L 213.568938 -100.447377 
L 213.521728 -102.021387 
L 213.468986 -103.595397 
L 213.410534 -105.169407 
L 213.346253 -106.743417 
L 213.276068 -108.317427 
L 213.199949 -109.891437 
L 213.117891 -111.465447 
L 213.029895 -113.039457 
L 212.935947 -114.613467 
L 212.83599 -116.187477 
L 212.729898 -117.761487 
L 212.61745 -119.335497 
L 212.49831 -120.909507 
L 212.372012 -122.483517 
L 212.237957 -124.057527 
L 212.095423 -125.631537 
L 211.943584 -127.205547 
L 211.781556 -128.779557 
L 211.608445 -130.353567 
L 211.423417 -131.927577 
L 211.225784 -133.501587 
L 211.015086 -135.075596 
L 210.791188 -136.649606 
L 210.554365 -138.223616 
L 210.305384 -139.797626 
L 210.045567 -141.371636 
L 209.776832 -142.945646 
L 209.501707 -144.519656 
L 209.223313 -146.093666 
L 208.945311 -147.667676 
L 208.67182 -149.241686 
L 208.407294 -150.815696 
L 208.156385 -152.389706 
L 207.92377 -153.963716 
L 207.713975 -155.537726 
L 207.531193 -157.111736 
L 207.3791 -158.685746 
L 207.2607 -160.259756 
L 207.178179 -161.833766 
L 207.132805 -163.407776 
L 207.124854 -164.981786 
L 207.15359 -166.555796 
L 207.21728 -168.129806 
L 207.313256 -169.703816 
L 207.438014 -171.277826 
L 207.587353 -172.851836 
L 207.756537 -174.425846 
L 207.940475 -175.999856 
L 208.133922 -177.573866 
L 208.33167 -179.147876 
L 208.528738 -180.721886 
L 208.720548 -182.295896 
L 208.903078 -183.869906 
L 209.072987 -185.443915 
L 209.22771 -187.017925 
L 209.365514 -188.591935 
L 209.485526 -190.165945 
L 209.587723 -191.739955 
L 209.672884 -193.313965 
L 209.742519 -194.887975 
L 209.798772 -196.461985 
L 209.844294 -198.035995 
L 209.882114 -199.610005 
L 209.915495 -201.184015 
L 209.94778 -202.758025 
L 209.982258 -204.332035 
L 210.022021 -205.906045 
L 210.069849 -207.480055 
L 210.128109 -209.054065 
L 210.19867 -210.628075 
L 210.282855 -212.202085 
L 210.381409 -213.776095 
L 210.494495 -215.350105 
L 210.621714 -216.924115 
L 210.762149 -218.498125 
L 210.914427 -220.072135 
L 211.076795 -221.646145 
L 211.247203 -223.220155 
L 211.423404 -224.794165 
L 211.60304 -226.368175 
L 211.783736 -227.942185 
L 211.963188 -229.516195 
L 212.139228 -231.090205 
L 212.309893 -232.664215 
L 212.47347 -234.238225 
L 212.628529 -235.812235 
L 212.773939 -237.386244 
L 212.908879 -238.960254 
L 213.032825 -240.534264 
L 213.145533 -242.108274 
L 213.247016 -243.682284 
L 213.33751 -245.256294 
L 213.417434 -246.830304 
L 213.48736 -248.404314 
L 213.54797 -249.978324 
L 213.600022 -251.552334 
L 214.079978 -251.552334 
L 214.079978 -251.552334 
L 214.13203 -249.978324 
L 214.19264 -248.404314 
L 214.262566 -246.830304 
L 214.34249 -245.256294 
L 214.432984 -243.682284 
L 214.534467 -242.108274 
L 214.647175 -240.534264 
L 214.771121 -238.960254 
L 214.906061 -237.386244 
L 215.051471 -235.812235 
L 215.20653 -234.238225 
L 215.370107 -232.664215 
L 215.540772 -231.090205 
L 215.716812 -229.516195 
L 215.896264 -227.942185 
L 216.07696 -226.368175 
L 216.256596 -224.794165 
L 216.432797 -223.220155 
L 216.603205 -221.646145 
L 216.765573 -220.072135 
L 216.917851 -218.498125 
L 217.058286 -216.924115 
L 217.185505 -215.350105 
L 217.298591 -213.776095 
L 217.397145 -212.202085 
L 217.48133 -210.628075 
L 217.551891 -209.054065 
L 217.610151 -207.480055 
L 217.657979 -205.906045 
L 217.697742 -204.332035 
L 217.73222 -202.758025 
L 217.764505 -201.184015 
L 217.797886 -199.610005 
L 217.835706 -198.035995 
L 217.881228 -196.461985 
L 217.937481 -194.887975 
L 218.007116 -193.313965 
L 218.092277 -191.739955 
L 218.194474 -190.165945 
L 218.314486 -188.591935 
L 218.45229 -187.017925 
L 218.607013 -185.443915 
L 218.776922 -183.869906 
L 218.959452 -182.295896 
L 219.151262 -180.721886 
L 219.34833 -179.147876 
L 219.546078 -177.573866 
L 219.739525 -175.999856 
L 219.923463 -174.425846 
L 220.092647 -172.851836 
L 220.241986 -171.277826 
L 220.366744 -169.703816 
L 220.46272 -168.129806 
L 220.52641 -166.555796 
L 220.555146 -164.981786 
L 220.547195 -163.407776 
L 220.501821 -161.833766 
L 220.4193 -160.259756 
L 220.3009 -158.685746 
L 220.148807 -157.111736 
L 219.966025 -155.537726 
L 219.75623 -153.963716 
L 219.523615 -152.389706 
L 219.272706 -150.815696 
L 219.00818 -149.241686 
L 218.734689 -147.667676 
L 218.456687 -146.093666 
L 218.178293 -144.519656 
L 217.903168 -142.945646 
L 217.634433 -141.371636 
L 217.374616 -139.797626 
L 217.125635 -138.223616 
L 216.888812 -136.649606 
L 216.664914 -135.075596 
L 216.454216 -133.501587 
L 216.256583 -131.927577 
L 216.071555 -130.353567 
L 215.898444 -128.779557 
L 215.736416 -127.205547 
L 215.584577 -125.631537 
L 215.442043 -124.057527 
L 215.307988 -122.483517 
L 215.18169 -120.909507 
L 215.06255 -119.335497 
L 214.950102 -117.761487 
L 214.84401 -116.187477 
L 214.744053 -114.613467 
L 214.650105 -113.039457 
L 214.562109 -111.465447 
L 214.480051 -109.891437 
L 214.403932 -108.317427 
L 214.333747 -106.743417 
L 214.269466 -105.169407 
L 214.211014 -103.595397 
L 214.158272 -102.021387 
L 214.111062 -100.447377 
L 214.069155 -98.873367 
L 214.032273 -97.299357 
L 214.000098 -95.725347 
z
" style="stroke: #404040; stroke-width: 1.25"/>
    </defs>
    <g clip-path="url(#p3e28e76d0f)">
     <use xlink:href="#m25b07a42e5" x="0" y="345.6" style="fill: #e6e6e6; stroke: #404040; stroke-width: 1.25"/>
    </g>
   </g>
   <g id="PolyCollection_5">
    <defs>
     <path id="m00d255e202" d="M 258.888433 -227.165709 
L 258.071567 -227.165709 
L 257.983976 -227.820924 
L 257.883324 -228.476139 
L 257.769032 -229.131354 
L 257.640804 -229.786569 
L 257.498678 -230.441784 
L 257.343071 -231.096999 
L 257.174804 -231.752214 
L 256.995104 -232.407429 
L 256.805587 -233.062644 
L 256.608206 -233.717859 
L 256.405176 -234.373074 
L 256.198864 -235.02829 
L 255.991662 -235.683505 
L 255.785836 -236.33872 
L 255.583366 -236.993935 
L 255.385783 -237.64915 
L 255.194017 -238.304365 
L 255.008268 -238.95958 
L 254.827904 -239.614795 
L 254.6514 -240.27001 
L 254.476332 -240.925225 
L 254.299414 -241.58044 
L 254.116598 -242.235655 
L 253.923215 -242.89087 
L 253.714172 -243.546085 
L 253.484174 -244.2013 
L 253.22798 -244.856515 
L 252.940662 -245.511731 
L 252.617867 -246.166946 
L 252.256053 -246.822161 
L 251.852706 -247.477376 
L 251.406509 -248.132591 
L 250.917457 -248.787806 
L 250.386927 -249.443021 
L 249.817682 -250.098236 
L 249.213821 -250.753451 
L 248.580678 -251.408666 
L 247.924671 -252.063881 
L 247.253116 -252.719096 
L 246.574015 -253.374311 
L 245.895826 -254.029526 
L 245.22723 -254.684741 
L 244.576904 -255.339956 
L 243.953317 -255.995172 
L 243.364539 -256.650387 
L 242.81809 -257.305602 
L 242.32082 -257.960817 
L 241.878823 -258.616032 
L 241.497377 -259.271247 
L 241.180919 -259.926462 
L 240.933035 -260.581677 
L 240.756461 -261.236892 
L 240.653095 -261.892107 
L 240.624 -262.547322 
L 240.66941 -263.202537 
L 240.78872 -263.857752 
L 240.980478 -264.512967 
L 241.242363 -265.168182 
L 241.571177 -265.823397 
L 241.962838 -266.478613 
L 242.412407 -267.133828 
L 242.914126 -267.789043 
L 243.461502 -268.444258 
L 244.047432 -269.099473 
L 244.664354 -269.754688 
L 245.30444 -270.409903 
L 245.959819 -271.065118 
L 246.622799 -271.720333 
L 247.286104 -272.375548 
L 247.943083 -273.030763 
L 248.587894 -273.685978 
L 249.215647 -274.341193 
L 249.82248 -274.996408 
L 250.405595 -275.651623 
L 250.963222 -276.306838 
L 251.494531 -276.962054 
L 251.999505 -277.617269 
L 252.478769 -278.272484 
L 252.933414 -278.927699 
L 253.364802 -279.582914 
L 253.774398 -280.238129 
L 254.163609 -280.893344 
L 254.533671 -281.548559 
L 254.885561 -282.203774 
L 255.219955 -282.858989 
L 255.537228 -283.514204 
L 255.837475 -284.169419 
L 256.120575 -284.824634 
L 256.386255 -285.479849 
L 256.634176 -286.135064 
L 256.86401 -286.790279 
L 257.075518 -287.445495 
L 257.268606 -288.10071 
L 257.44337 -288.755925 
L 257.600124 -289.41114 
L 257.739402 -290.066355 
L 257.861951 -290.72157 
L 257.968709 -291.376785 
L 258.060768 -292.032 
L 258.899232 -292.032 
L 258.899232 -292.032 
L 258.991291 -291.376785 
L 259.098049 -290.72157 
L 259.220598 -290.066355 
L 259.359876 -289.41114 
L 259.51663 -288.755925 
L 259.691394 -288.10071 
L 259.884482 -287.445495 
L 260.09599 -286.790279 
L 260.325824 -286.135064 
L 260.573745 -285.479849 
L 260.839425 -284.824634 
L 261.122525 -284.169419 
L 261.422772 -283.514204 
L 261.740045 -282.858989 
L 262.074439 -282.203774 
L 262.426329 -281.548559 
L 262.796391 -280.893344 
L 263.185602 -280.238129 
L 263.595198 -279.582914 
L 264.026586 -278.927699 
L 264.481231 -278.272484 
L 264.960495 -277.617269 
L 265.465469 -276.962054 
L 265.996778 -276.306838 
L 266.554405 -275.651623 
L 267.13752 -274.996408 
L 267.744353 -274.341193 
L 268.372106 -273.685978 
L 269.016917 -273.030763 
L 269.673896 -272.375548 
L 270.337201 -271.720333 
L 271.000181 -271.065118 
L 271.65556 -270.409903 
L 272.295646 -269.754688 
L 272.912568 -269.099473 
L 273.498498 -268.444258 
L 274.045874 -267.789043 
L 274.547593 -267.133828 
L 274.997162 -266.478613 
L 275.388823 -265.823397 
L 275.717637 -265.168182 
L 275.979522 -264.512967 
L 276.17128 -263.857752 
L 276.29059 -263.202537 
L 276.336 -262.547322 
L 276.306905 -261.892107 
L 276.203539 -261.236892 
L 276.026965 -260.581677 
L 275.779081 -259.926462 
L 275.462623 -259.271247 
L 275.081177 -258.616032 
L 274.63918 -257.960817 
L 274.14191 -257.305602 
L 273.595461 -256.650387 
L 273.006683 -255.995172 
L 272.383096 -255.339956 
L 271.73277 -254.684741 
L 271.064174 -254.029526 
L 270.385985 -253.374311 
L 269.706884 -252.719096 
L 269.035329 -252.063881 
L 268.379322 -251.408666 
L 267.746179 -250.753451 
L 267.142318 -250.098236 
L 266.573073 -249.443021 
L 266.042543 -248.787806 
L 265.553491 -248.132591 
L 265.107294 -247.477376 
L 264.703947 -246.822161 
L 264.342133 -246.166946 
L 264.019338 -245.511731 
L 263.73202 -244.856515 
L 263.475826 -244.2013 
L 263.245828 -243.546085 
L 263.036785 -242.89087 
L 262.843402 -242.235655 
L 262.660586 -241.58044 
L 262.483668 -240.925225 
L 262.3086 -240.27001 
L 262.132096 -239.614795 
L 261.951732 -238.95958 
L 261.765983 -238.304365 
L 261.574217 -237.64915 
L 261.376634 -236.993935 
L 261.174164 -236.33872 
L 260.968338 -235.683505 
L 260.761136 -235.02829 
L 260.554824 -234.373074 
L 260.351794 -233.717859 
L 260.154413 -233.062644 
L 259.964896 -232.407429 
L 259.785196 -231.752214 
L 259.616929 -231.096999 
L 259.461322 -230.441784 
L 259.319196 -229.786569 
L 259.190968 -229.131354 
L 259.076676 -228.476139 
L 258.976024 -227.820924 
L 258.888433 -227.165709 
z
" style="stroke: #404040; stroke-width: 1.25"/>
    </defs>
    <g clip-path="url(#p3e28e76d0f)">
     <use xlink:href="#m00d255e202" x="0" y="345.6" style="fill: #e6e6e6; stroke: #404040; stroke-width: 1.25"/>
    </g>
   </g>
   <g id="PolyCollection_6">
    <defs>
     <path id="m295e9083a9" d="M 304.107802 -222.592283 
L 302.132198 -222.592283 
L 301.947782 -223.154015 
L 301.738144 -223.715748 
L 301.501757 -224.27748 
L 301.237385 -224.839213 
L 300.944148 -225.400945 
L 300.621605 -225.962678 
L 300.269817 -226.52441 
L 299.889408 -227.086143 
L 299.48161 -227.647875 
L 299.048292 -228.209608 
L 298.591966 -228.77134 
L 298.115778 -229.333073 
L 297.623463 -229.894805 
L 297.119288 -230.456538 
L 296.607958 -231.01827 
L 296.09451 -231.580002 
L 295.584182 -232.141735 
L 295.082273 -232.703467 
L 294.593985 -233.2652 
L 294.124277 -233.826932 
L 293.677708 -234.388665 
L 293.2583 -234.950397 
L 292.869423 -235.51213 
L 292.513686 -236.073862 
L 292.192877 -236.635595 
L 291.90792 -237.197327 
L 291.658868 -237.75906 
L 291.444931 -238.320792 
L 291.264528 -238.882525 
L 291.115377 -239.444257 
L 290.994595 -240.00599 
L 290.898827 -240.567722 
L 290.824371 -241.129455 
L 290.767327 -241.691187 
L 290.723721 -242.25292 
L 290.689644 -242.814652 
L 290.661362 -243.376384 
L 290.635418 -243.938117 
L 290.608716 -244.499849 
L 290.578584 -245.061582 
L 290.542821 -245.623314 
L 290.499718 -246.185047 
L 290.448076 -246.746779 
L 290.387198 -247.308512 
L 290.316881 -247.870244 
L 290.237388 -248.431977 
L 290.149426 -248.993709 
L 290.054113 -249.555442 
L 289.952944 -250.117174 
L 289.84776 -250.678907 
L 289.740707 -251.240639 
L 289.634208 -251.802372 
L 289.53092 -252.364104 
L 289.433697 -252.925837 
L 289.345547 -253.487569 
L 289.269589 -254.049301 
L 289.209003 -254.611034 
L 289.166974 -255.172766 
L 289.146639 -255.734499 
L 289.151024 -256.296231 
L 289.182981 -256.857964 
L 289.245122 -257.419696 
L 289.339759 -257.981429 
L 289.468838 -258.543161 
L 289.633884 -259.104894 
L 289.835948 -259.666626 
L 290.075567 -260.228359 
L 290.352729 -260.790091 
L 290.666854 -261.351824 
L 291.016783 -261.913556 
L 291.400788 -262.475289 
L 291.816591 -263.037021 
L 292.261396 -263.598754 
L 292.73194 -264.160486 
L 293.224554 -264.722218 
L 293.735231 -265.283951 
L 294.259709 -265.845683 
L 294.79356 -266.407416 
L 295.332275 -266.969148 
L 295.871363 -267.530881 
L 296.406435 -268.092613 
L 296.933296 -268.654346 
L 297.448017 -269.216078 
L 297.947012 -269.777811 
L 298.427087 -270.339543 
L 298.885493 -270.901276 
L 299.319952 -271.463008 
L 299.728677 -272.024741 
L 300.110374 -272.586473 
L 300.464231 -273.148206 
L 300.789898 -273.709938 
L 301.087457 -274.271671 
L 301.357374 -274.833403 
L 301.600458 -275.395135 
L 301.81781 -275.956868 
L 302.010763 -276.5186 
L 302.180834 -277.080333 
L 302.329667 -277.642065 
L 302.458989 -278.203798 
L 303.781011 -278.203798 
L 303.781011 -278.203798 
L 303.910333 -277.642065 
L 304.059166 -277.080333 
L 304.229237 -276.5186 
L 304.42219 -275.956868 
L 304.639542 -275.395135 
L 304.882626 -274.833403 
L 305.152543 -274.271671 
L 305.450102 -273.709938 
L 305.775769 -273.148206 
L 306.129626 -272.586473 
L 306.511323 -272.024741 
L 306.920048 -271.463008 
L 307.354507 -270.901276 
L 307.812913 -270.339543 
L 308.292988 -269.777811 
L 308.791983 -269.216078 
L 309.306704 -268.654346 
L 309.833565 -268.092613 
L 310.368637 -267.530881 
L 310.907725 -266.969148 
L 311.44644 -266.407416 
L 311.980291 -265.845683 
L 312.504769 -265.283951 
L 313.015446 -264.722218 
L 313.50806 -264.160486 
L 313.978604 -263.598754 
L 314.423409 -263.037021 
L 314.839212 -262.475289 
L 315.223217 -261.913556 
L 315.573146 -261.351824 
L 315.887271 -260.790091 
L 316.164433 -260.228359 
L 316.404052 -259.666626 
L 316.606116 -259.104894 
L 316.771162 -258.543161 
L 316.900241 -257.981429 
L 316.994878 -257.419696 
L 317.057019 -256.857964 
L 317.088976 -256.296231 
L 317.093361 -255.734499 
L 317.073026 -255.172766 
L 317.030997 -254.611034 
L 316.970411 -254.049301 
L 316.894453 -253.487569 
L 316.806303 -252.925837 
L 316.70908 -252.364104 
L 316.605792 -251.802372 
L 316.499293 -251.240639 
L 316.39224 -250.678907 
L 316.287056 -250.117174 
L 316.185887 -249.555442 
L 316.090574 -248.993709 
L 316.002612 -248.431977 
L 315.923119 -247.870244 
L 315.852802 -247.308512 
L 315.791924 -246.746779 
L 315.740282 -246.185047 
L 315.697179 -245.623314 
L 315.661416 -245.061582 
L 315.631284 -244.499849 
L 315.604582 -243.938117 
L 315.578638 -243.376384 
L 315.550356 -242.814652 
L 315.516279 -242.25292 
L 315.472673 -241.691187 
L 315.415629 -241.129455 
L 315.341173 -240.567722 
L 315.245405 -240.00599 
L 315.124623 -239.444257 
L 314.975472 -238.882525 
L 314.795069 -238.320792 
L 314.581132 -237.75906 
L 314.33208 -237.197327 
L 314.047123 -236.635595 
L 313.726314 -236.073862 
L 313.370577 -235.51213 
L 312.9817 -234.950397 
L 312.562292 -234.388665 
L 312.115723 -233.826932 
L 311.646015 -233.2652 
L 311.157727 -232.703467 
L 310.655818 -232.141735 
L 310.14549 -231.580002 
L 309.632042 -231.01827 
L 309.120712 -230.456538 
L 308.616537 -229.894805 
L 308.124222 -229.333073 
L 307.648034 -228.77134 
L 307.191708 -228.209608 
L 306.75839 -227.647875 
L 306.350592 -227.086143 
L 305.970183 -226.52441 
L 305.618395 -225.962678 
L 305.295852 -225.400945 
L 305.002615 -224.839213 
L 304.738243 -224.27748 
L 304.501856 -223.715748 
L 304.292218 -223.154015 
L 304.107802 -222.592283 
z
" style="stroke: #404040; stroke-width: 1.25"/>
    </defs>
    <g clip-path="url(#p3e28e76d0f)">
     <use xlink:href="#m295e9083a9" x="0" y="345.6" style="fill: #e6e6e6; stroke: #404040; stroke-width: 1.25"/>
    </g>
   </g>
   <g id="PolyCollection_7">
    <defs>
     <path id="m71381fe05e" d="M 347.98303 -50.112 
L 347.53697 -50.112 
L 347.489328 -52.163605 
L 347.434002 -54.215211 
L 347.370335 -56.266816 
L 347.297746 -58.318422 
L 347.215752 -60.370027 
L 347.124007 -62.421633 
L 347.022329 -64.473238 
L 346.910732 -66.524844 
L 346.789449 -68.576449 
L 346.658956 -70.628055 
L 346.519983 -72.67966 
L 346.373514 -74.731266 
L 346.220785 -76.782871 
L 346.063263 -78.834477 
L 345.902616 -80.886082 
L 345.740671 -82.937688 
L 345.579365 -84.989293 
L 345.42068 -87.040899 
L 345.266581 -89.092504 
L 345.11894 -91.144109 
L 344.979468 -93.195715 
L 344.84965 -95.24732 
L 344.730676 -97.298926 
L 344.623396 -99.350531 
L 344.528281 -101.402137 
L 344.445396 -103.453742 
L 344.374397 -105.505348 
L 344.314541 -107.556953 
L 344.264716 -109.608559 
L 344.223489 -111.660164 
L 344.189162 -113.71177 
L 344.159854 -115.763375 
L 344.133578 -117.814981 
L 344.108335 -119.866586 
L 344.082202 -121.918192 
L 344.053426 -123.969797 
L 344.020504 -126.021403 
L 343.982259 -128.073008 
L 343.937902 -130.124613 
L 343.887075 -132.176219 
L 343.829879 -134.227824 
L 343.766882 -136.27943 
L 343.69911 -138.331035 
L 343.628009 -140.382641 
L 343.555402 -142.434246 
L 343.483415 -144.485852 
L 343.4144 -146.537457 
L 343.350841 -148.589063 
L 343.295257 -150.640668 
L 343.250095 -152.692274 
L 343.217638 -154.743879 
L 343.199906 -156.795485 
L 343.198577 -158.84709 
L 343.214915 -160.898696 
L 343.249725 -162.950301 
L 343.303317 -165.001907 
L 343.375503 -167.053512 
L 343.465607 -169.105117 
L 343.572499 -171.156723 
L 343.694647 -173.208328 
L 343.830186 -175.259934 
L 343.976998 -177.311539 
L 344.1328 -179.363145 
L 344.295233 -181.41475 
L 344.461955 -183.466356 
L 344.63072 -185.517961 
L 344.799451 -187.569567 
L 344.9663 -189.621172 
L 345.129694 -191.672778 
L 345.288357 -193.724383 
L 345.441325 -195.775989 
L 345.587935 -197.827594 
L 345.727809 -199.8792 
L 345.860819 -201.930805 
L 345.987047 -203.98241 
L 346.106739 -206.034016 
L 346.220256 -208.085621 
L 346.328027 -210.137227 
L 346.430503 -212.188832 
L 346.528122 -214.240438 
L 346.62128 -216.292043 
L 346.710306 -218.343649 
L 346.79545 -220.395254 
L 346.876882 -222.44686 
L 346.954689 -224.498465 
L 347.028891 -226.550071 
L 347.099449 -228.601676 
L 347.166284 -230.653282 
L 347.229295 -232.704887 
L 347.288374 -234.756493 
L 347.343429 -236.808098 
L 347.394388 -238.859704 
L 347.441218 -240.911309 
L 347.483926 -242.962914 
L 347.522569 -245.01452 
L 347.557249 -247.066125 
L 347.588113 -249.117731 
L 347.615346 -251.169336 
L 347.639169 -253.220942 
L 347.880831 -253.220942 
L 347.880831 -253.220942 
L 347.904654 -251.169336 
L 347.931887 -249.117731 
L 347.962751 -247.066125 
L 347.997431 -245.01452 
L 348.036074 -242.962914 
L 348.078782 -240.911309 
L 348.125612 -238.859704 
L 348.176571 -236.808098 
L 348.231626 -234.756493 
L 348.290705 -232.704887 
L 348.353716 -230.653282 
L 348.420551 -228.601676 
L 348.491109 -226.550071 
L 348.565311 -224.498465 
L 348.643118 -222.44686 
L 348.72455 -220.395254 
L 348.809694 -218.343649 
L 348.89872 -216.292043 
L 348.991878 -214.240438 
L 349.089497 -212.188832 
L 349.191973 -210.137227 
L 349.299744 -208.085621 
L 349.413261 -206.034016 
L 349.532953 -203.98241 
L 349.659181 -201.930805 
L 349.792191 -199.8792 
L 349.932065 -197.827594 
L 350.078675 -195.775989 
L 350.231643 -193.724383 
L 350.390306 -191.672778 
L 350.5537 -189.621172 
L 350.720549 -187.569567 
L 350.88928 -185.517961 
L 351.058045 -183.466356 
L 351.224767 -181.41475 
L 351.3872 -179.363145 
L 351.543002 -177.311539 
L 351.689814 -175.259934 
L 351.825353 -173.208328 
L 351.947501 -171.156723 
L 352.054393 -169.105117 
L 352.144497 -167.053512 
L 352.216683 -165.001907 
L 352.270275 -162.950301 
L 352.305085 -160.898696 
L 352.321423 -158.84709 
L 352.320094 -156.795485 
L 352.302362 -154.743879 
L 352.269905 -152.692274 
L 352.224743 -150.640668 
L 352.169159 -148.589063 
L 352.1056 -146.537457 
L 352.036585 -144.485852 
L 351.964598 -142.434246 
L 351.891991 -140.382641 
L 351.82089 -138.331035 
L 351.753118 -136.27943 
L 351.690121 -134.227824 
L 351.632925 -132.176219 
L 351.582098 -130.124613 
L 351.537741 -128.073008 
L 351.499496 -126.021403 
L 351.466574 -123.969797 
L 351.437798 -121.918192 
L 351.411665 -119.866586 
L 351.386422 -117.814981 
L 351.360146 -115.763375 
L 351.330838 -113.71177 
L 351.296511 -111.660164 
L 351.255284 -109.608559 
L 351.205459 -107.556953 
L 351.145603 -105.505348 
L 351.074604 -103.453742 
L 350.991719 -101.402137 
L 350.896604 -99.350531 
L 350.789324 -97.298926 
L 350.67035 -95.24732 
L 350.540532 -93.195715 
L 350.40106 -91.144109 
L 350.253419 -89.092504 
L 350.09932 -87.040899 
L 349.940635 -84.989293 
L 349.779329 -82.937688 
L 349.617384 -80.886082 
L 349.456737 -78.834477 
L 349.299215 -76.782871 
L 349.146486 -74.731266 
L 349.000017 -72.67966 
L 348.861044 -70.628055 
L 348.730551 -68.576449 
L 348.609268 -66.524844 
L 348.497671 -64.473238 
L 348.395993 -62.421633 
L 348.304248 -60.370027 
L 348.222254 -58.318422 
L 348.149665 -56.266816 
L 348.085998 -54.215211 
L 348.030672 -52.163605 
L 347.98303 -50.112 
z
" style="stroke: #404040; stroke-width: 1.25"/>
    </defs>
    <g clip-path="url(#p3e28e76d0f)">
     <use xlink:href="#m71381fe05e" x="0" y="345.6" style="fill: #e6e6e6; stroke: #404040; stroke-width: 1.25"/>
    </g>
   </g>
   <g id="PolyCollection_8">
    <defs>
     <path id="m2bc8c63264" d="M 392.749185 -67.221716 
L 392.050815 -67.221716 
L 391.981367 -68.747592 
L 391.901663 -70.273467 
L 391.810974 -71.799342 
L 391.708685 -73.325217 
L 391.594325 -74.851093 
L 391.467609 -76.376968 
L 391.328472 -77.902843 
L 391.177099 -79.428718 
L 391.013954 -80.954593 
L 390.839797 -82.480469 
L 390.655697 -84.006344 
L 390.46303 -85.532219 
L 390.263466 -87.058094 
L 390.058946 -88.583969 
L 389.851643 -90.109845 
L 389.643909 -91.63572 
L 389.438218 -93.161595 
L 389.237091 -94.68747 
L 389.043022 -96.213345 
L 388.85839 -97.739221 
L 388.685382 -99.265096 
L 388.525911 -100.790971 
L 388.381542 -102.316846 
L 388.253434 -103.842721 
L 388.142287 -105.368597 
L 388.048311 -106.894472 
L 387.971213 -108.420347 
L 387.910199 -109.946222 
L 387.864004 -111.472097 
L 387.830931 -112.997973 
L 387.808917 -114.523848 
L 387.795607 -116.049723 
L 387.788448 -117.575598 
L 387.784783 -119.101473 
L 387.781957 -120.627349 
L 387.777421 -122.153224 
L 387.768832 -123.679099 
L 387.754142 -125.204974 
L 387.731682 -126.730849 
L 387.700228 -128.256725 
L 387.659044 -129.7826 
L 387.607918 -131.308475 
L 387.547162 -132.83435 
L 387.477605 -134.360225 
L 387.400559 -135.886101 
L 387.317769 -137.411976 
L 387.231345 -138.937851 
L 387.143685 -140.463726 
L 387.057388 -141.989601 
L 386.975153 -143.515477 
L 386.899692 -145.041352 
L 386.833631 -146.567227 
L 386.779426 -148.093102 
L 386.739285 -149.618977 
L 386.715102 -151.144853 
L 386.708406 -152.670728 
L 386.720326 -154.196603 
L 386.751573 -155.722478 
L 386.802437 -157.248353 
L 386.872799 -158.774229 
L 386.962157 -160.300104 
L 387.069662 -161.825979 
L 387.194168 -163.351854 
L 387.334282 -164.877729 
L 387.488418 -166.403605 
L 387.654859 -167.92948 
L 387.831806 -169.455355 
L 388.017432 -170.98123 
L 388.209925 -172.507105 
L 388.407529 -174.032981 
L 388.608569 -175.558856 
L 388.811477 -177.084731 
L 389.014808 -178.610606 
L 389.217243 -180.136481 
L 389.417595 -181.662357 
L 389.614806 -183.188232 
L 389.807939 -184.714107 
L 389.99617 -186.239982 
L 390.178779 -187.765857 
L 390.355144 -189.291733 
L 390.524725 -190.817608 
L 390.687065 -192.343483 
L 390.84178 -193.869358 
L 390.988555 -195.395233 
L 391.127146 -196.921109 
L 391.257376 -198.446984 
L 391.379133 -199.972859 
L 391.492377 -201.498734 
L 391.597132 -203.024609 
L 391.693492 -204.550485 
L 391.781615 -206.07636 
L 391.861723 -207.602235 
L 391.934094 -209.12811 
L 391.999063 -210.653985 
L 392.057005 -212.179861 
L 392.108339 -213.705736 
L 392.153509 -215.231611 
L 392.192981 -216.757486 
L 392.227232 -218.283361 
L 392.572768 -218.283361 
L 392.572768 -218.283361 
L 392.607019 -216.757486 
L 392.646491 -215.231611 
L 392.691661 -213.705736 
L 392.742995 -212.179861 
L 392.800937 -210.653985 
L 392.865906 -209.12811 
L 392.938277 -207.602235 
L 393.018385 -206.07636 
L 393.106508 -204.550485 
L 393.202868 -203.024609 
L 393.307623 -201.498734 
L 393.420867 -199.972859 
L 393.542624 -198.446984 
L 393.672854 -196.921109 
L 393.811445 -195.395233 
L 393.95822 -193.869358 
L 394.112935 -192.343483 
L 394.275275 -190.817608 
L 394.444856 -189.291733 
L 394.621221 -187.765857 
L 394.80383 -186.239982 
L 394.992061 -184.714107 
L 395.185194 -183.188232 
L 395.382405 -181.662357 
L 395.582757 -180.136481 
L 395.785192 -178.610606 
L 395.988523 -177.084731 
L 396.191431 -175.558856 
L 396.392471 -174.032981 
L 396.590075 -172.507105 
L 396.782568 -170.98123 
L 396.968194 -169.455355 
L 397.145141 -167.92948 
L 397.311582 -166.403605 
L 397.465718 -164.877729 
L 397.605832 -163.351854 
L 397.730338 -161.825979 
L 397.837843 -160.300104 
L 397.927201 -158.774229 
L 397.997563 -157.248353 
L 398.048427 -155.722478 
L 398.079674 -154.196603 
L 398.091594 -152.670728 
L 398.084898 -151.144853 
L 398.060715 -149.618977 
L 398.020574 -148.093102 
L 397.966369 -146.567227 
L 397.900308 -145.041352 
L 397.824847 -143.515477 
L 397.742612 -141.989601 
L 397.656315 -140.463726 
L 397.568655 -138.937851 
L 397.482231 -137.411976 
L 397.399441 -135.886101 
L 397.322395 -134.360225 
L 397.252838 -132.83435 
L 397.192082 -131.308475 
L 397.140956 -129.7826 
L 397.099772 -128.256725 
L 397.068318 -126.730849 
L 397.045858 -125.204974 
L 397.031168 -123.679099 
L 397.022579 -122.153224 
L 397.018043 -120.627349 
L 397.015217 -119.101473 
L 397.011552 -117.575598 
L 397.004393 -116.049723 
L 396.991083 -114.523848 
L 396.969069 -112.997973 
L 396.935996 -111.472097 
L 396.889801 -109.946222 
L 396.828787 -108.420347 
L 396.751689 -106.894472 
L 396.657713 -105.368597 
L 396.546566 -103.842721 
L 396.418458 -102.316846 
L 396.274089 -100.790971 
L 396.114618 -99.265096 
L 395.94161 -97.739221 
L 395.756978 -96.213345 
L 395.562909 -94.68747 
L 395.361782 -93.161595 
L 395.156091 -91.63572 
L 394.948357 -90.109845 
L 394.741054 -88.583969 
L 394.536534 -87.058094 
L 394.33697 -85.532219 
L 394.144303 -84.006344 
L 393.960203 -82.480469 
L 393.786046 -80.954593 
L 393.622901 -79.428718 
L 393.471528 -77.902843 
L 393.332391 -76.376968 
L 393.205675 -74.851093 
L 393.091315 -73.325217 
L 392.989026 -71.799342 
L 392.898337 -70.273467 
L 392.818633 -68.747592 
L 392.749185 -67.221716 
z
" style="stroke: #404040; stroke-width: 1.25"/>
    </defs>
    <g clip-path="url(#p3e28e76d0f)">
     <use xlink:href="#m2bc8c63264" x="0" y="345.6" style="fill: #e6e6e6; stroke: #404040; stroke-width: 1.25"/>
    </g>
   </g>
   <g id="patch_3">
    <path d="M 57.6 307.584 
L 57.6 41.472 
" style="fill: none; stroke: #cccccc; stroke-width: 1.25; stroke-linejoin: miter; stroke-linecap: square"/>
   </g>
   <g id="patch_4">
    <path d="M 414.72 307.584 
L 414.72 41.472 
" style="fill: none; stroke: #cccccc; stroke-width: 1.25; stroke-linejoin: miter; stroke-linecap: square"/>
   </g>
   <g id="patch_5">
    <path d="M 57.6 307.584 
L 414.72 307.584 
" style="fill: none; stroke: #cccccc; stroke-width: 1.25; stroke-linejoin: miter; stroke-linecap: square"/>
   </g>
   <g id="patch_6">
    <path d="M 57.6 41.472 
L 414.72 41.472 
" style="fill: none; stroke: #cccccc; stroke-width: 1.25; stroke-linejoin: miter; stroke-linecap: square"/>
   </g>
   <g id="PathCollection_1">
    <defs>
     <path id="C0_0_2e45850303" d="M 0 1.5 
C 0.397805 1.5 0.77937 1.341951 1.06066 1.06066 
C 1.341951 0.77937 1.5 0.397805 1.5 -0 
C 1.5 -0.397805 1.341951 -0.77937 1.06066 -1.06066 
C 0.77937 -1.341951 0.397805 -1.5 0 -1.5 
C -0.397805 -1.5 -0.77937 -1.341951 -1.06066 -1.06066 
C -1.341951 -0.77937 -1.5 -0.397805 -1.5 0 
C -1.5 0.397805 -1.341951 0.77937 -1.06066 1.06066 
C -0.77937 1.341951 -0.397805 1.5 0 1.5 
z
"/>
    </defs>
    <g clip-path="url(#p3e28e76d0f)">
     <use xlink:href="#C0_0_2e45850303" x="79.92" y="168.958403" style="fill: #c44e52"/>
    </g>
    <g clip-path="url(#p3e28e76d0f)">
     <use xlink:href="#C0_0_2e45850303" x="79.92" y="125.017398" style="fill: #c44e52"/>
    </g>
    <g clip-path="url(#p3e28e76d0f)">
     <use xlink:href="#C0_0_2e45850303" x="79.92" y="200.931937" style="fill: #c44e52"/>
    </g>
    <g clip-path="url(#p3e28e76d0f)">
     <use xlink:href="#C0_0_2e45850303" x="77.283376" y="199.290436" style="fill: #c44e52"/>
    </g>
    <g clip-path="url(#p3e28e76d0f)">
     <use xlink:href="#C0_0_2e45850303" x="79.92" y="149.884685" style="fill: #c44e52"/>
    </g>
    <g clip-path="url(#p3e28e76d0f)">
     <use xlink:href="#C0_0_2e45850303" x="79.92" y="119.563694" style="fill: #c44e52"/>
    </g>
    <g clip-path="url(#p3e28e76d0f)">
     <use xlink:href="#C0_0_2e45850303" x="80.765053" y="198.041906" style="fill: #c44e52"/>
    </g>
    <g clip-path="url(#p3e28e76d0f)">
     <use xlink:href="#C0_0_2e45850303" x="76.897482" y="124.172573" style="fill: #c44e52"/>
    </g>
    <g clip-path="url(#p3e28e76d0f)">
     <use xlink:href="#C0_0_2e45850303" x="78.294721" y="166.388567" style="fill: #c44e52"/>
    </g>
    <g clip-path="url(#p3e28e76d0f)">
     <use xlink:href="#C0_0_2e45850303" x="79.92" y="133.306247" style="fill: #c44e52"/>
    </g>
   </g>
   <g id="PathCollection_2">
    <defs>
     <path id="C1_0_85a6dd7ff0" d="M 0 1.5 
C 0.397805 1.5 0.77937 1.341951 1.06066 1.06066 
C 1.341951 0.77937 1.5 0.397805 1.5 -0 
C 1.5 -0.397805 1.341951 -0.77937 1.06066 -1.06066 
C 0.77937 -1.341951 0.397805 -1.5 0 -1.5 
C -0.397805 -1.5 -0.77937 -1.341951 -1.06066 -1.06066 
C -1.341951 -0.77937 -1.5 -0.397805 -1.5 0 
C -1.5 0.397805 -1.341951 0.77937 -1.06066 1.06066 
C -0.77937 1.341951 -0.397805 1.5 0 1.5 
z
"/>
    </defs>
    <g clip-path="url(#p3e28e76d0f)">
     <use xlink:href="#C1_0_85a6dd7ff0" x="121.597393" y="167.152773" style="fill: #4c72b0"/>
    </g>
    <g clip-path="url(#p3e28e76d0f)">
     <use xlink:href="#C1_0_85a6dd7ff0" x="124.56" y="123.380484" style="fill: #4c72b0"/>
    </g>
    <g clip-path="url(#p3e28e76d0f)">
     <use xlink:href="#C1_0_85a6dd7ff0" x="124.56" y="194.382867" style="fill: #4c72b0"/>
    </g>
    <g clip-path="url(#p3e28e76d0f)">
     <use xlink:href="#C1_0_85a6dd7ff0" x="124.56" y="177.612555" style="fill: #4c72b0"/>
    </g>
    <g clip-path="url(#p3e28e76d0f)">
     <use xlink:href="#C1_0_85a6dd7ff0" x="124.56" y="130.922082" style="fill: #4c72b0"/>
    </g>
    <g clip-path="url(#p3e28e76d0f)">
     <use xlink:href="#C1_0_85a6dd7ff0" x="124.56" y="109.307679" style="fill: #4c72b0"/>
    </g>
    <g clip-path="url(#p3e28e76d0f)">
     <use xlink:href="#C1_0_85a6dd7ff0" x="124.56" y="168.172071" style="fill: #4c72b0"/>
    </g>
    <g clip-path="url(#p3e28e76d0f)">
     <use xlink:href="#C1_0_85a6dd7ff0" x="124.56" y="98.939389" style="fill: #4c72b0"/>
    </g>
    <g clip-path="url(#p3e28e76d0f)">
     <use xlink:href="#C1_0_85a6dd7ff0" x="124.56" y="153.933976" style="fill: #4c72b0"/>
    </g>
    <g clip-path="url(#p3e28e76d0f)">
     <use xlink:href="#C1_0_85a6dd7ff0" x="124.56" y="113.956279" style="fill: #4c72b0"/>
    </g>
   </g>
   <g id="PathCollection_3">
    <defs>
     <path id="C2_0_4009ba1a60" d="M 0 1.5 
C 0.397805 1.5 0.77937 1.341951 1.06066 1.06066 
C 1.341951 0.77937 1.5 0.397805 1.5 -0 
C 1.5 -0.397805 1.341951 -0.77937 1.06066 -1.06066 
C 0.77937 -1.341951 0.397805 -1.5 0 -1.5 
C -0.397805 -1.5 -0.77937 -1.341951 -1.06066 -1.06066 
C -1.341951 -0.77937 -1.5 -0.397805 -1.5 0 
C -1.5 0.397805 -1.341951 0.77937 -1.06066 1.06066 
C -0.77937 1.341951 -0.397805 1.5 0 1.5 
z
"/>
    </defs>
    <g clip-path="url(#p3e28e76d0f)">
     <use xlink:href="#C2_0_4009ba1a60" x="166.465927" y="211.652875" style="fill: #c44e52"/>
    </g>
    <g clip-path="url(#p3e28e76d0f)">
     <use xlink:href="#C2_0_4009ba1a60" x="170.29668" y="203.472836" style="fill: #c44e52"/>
    </g>
    <g clip-path="url(#p3e28e76d0f)">
     <use xlink:href="#C2_0_4009ba1a60" x="169.2" y="172.123271" style="fill: #c44e52"/>
    </g>
    <g clip-path="url(#p3e28e76d0f)">
     <use xlink:href="#C2_0_4009ba1a60" x="166.243108" y="171.089033" style="fill: #c44e52"/>
    </g>
    <g clip-path="url(#p3e28e76d0f)">
     <use xlink:href="#C2_0_4009ba1a60" x="169.2" y="188.719182" style="fill: #c44e52"/>
    </g>
    <g clip-path="url(#p3e28e76d0f)">
     <use xlink:href="#C2_0_4009ba1a60" x="169.2" y="207.612663" style="fill: #c44e52"/>
    </g>
    <g clip-path="url(#p3e28e76d0f)">
     <use xlink:href="#C2_0_4009ba1a60" x="169.2" y="213.142779" style="fill: #c44e52"/>
    </g>
    <g clip-path="url(#p3e28e76d0f)">
     <use xlink:href="#C2_0_4009ba1a60" x="167.602414" y="205.027125" style="fill: #c44e52"/>
    </g>
    <g clip-path="url(#p3e28e76d0f)">
     <use xlink:href="#C2_0_4009ba1a60" x="169.2" y="229.909633" style="fill: #c44e52"/>
    </g>
    <g clip-path="url(#p3e28e76d0f)">
     <use xlink:href="#C2_0_4009ba1a60" x="169.2" y="163.959888" style="fill: #c44e52"/>
    </g>
   </g>
   <g id="PathCollection_4">
    <defs>
     <path id="C3_0_7322b67a1f" d="M 0 1.5 
C 0.397805 1.5 0.77937 1.341951 1.06066 1.06066 
C 1.341951 0.77937 1.5 0.397805 1.5 -0 
C 1.5 -0.397805 1.341951 -0.77937 1.06066 -1.06066 
C 0.77937 -1.341951 0.397805 -1.5 0 -1.5 
C -0.397805 -1.5 -0.77937 -1.341951 -1.06066 -1.06066 
C -1.341951 -0.77937 -1.5 -0.397805 -1.5 0 
C -1.5 0.397805 -1.341951 0.77937 -1.06066 1.06066 
C -0.77937 1.341951 -0.397805 1.5 0 1.5 
z
"/>
    </defs>
    <g clip-path="url(#p3e28e76d0f)">
     <use xlink:href="#C3_0_7322b67a1f" x="213.84" y="184.031286" style="fill: #4c72b0"/>
    </g>
    <g clip-path="url(#p3e28e76d0f)">
     <use xlink:href="#C3_0_7322b67a1f" x="213.84" y="165.686505" style="fill: #4c72b0"/>
    </g>
    <g clip-path="url(#p3e28e76d0f)">
     <use xlink:href="#C3_0_7322b67a1f" x="213.84" y="128.427733" style="fill: #4c72b0"/>
    </g>
    <g clip-path="url(#p3e28e76d0f)">
     <use xlink:href="#C3_0_7322b67a1f" x="213.84" y="142.217724" style="fill: #4c72b0"/>
    </g>
    <g clip-path="url(#p3e28e76d0f)">
     <use xlink:href="#C3_0_7322b67a1f" x="213.84" y="178.470272" style="fill: #4c72b0"/>
    </g>
    <g clip-path="url(#p3e28e76d0f)">
     <use xlink:href="#C3_0_7322b67a1f" x="210.721124" y="183.610603" style="fill: #4c72b0"/>
    </g>
    <g clip-path="url(#p3e28e76d0f)">
     <use xlink:href="#C3_0_7322b67a1f" x="213.84" y="187.346849" style="fill: #4c72b0"/>
    </g>
    <g clip-path="url(#p3e28e76d0f)">
     <use xlink:href="#C3_0_7322b67a1f" x="216.771365" y="182.933111" style="fill: #4c72b0"/>
    </g>
    <g clip-path="url(#p3e28e76d0f)">
     <use xlink:href="#C3_0_7322b67a1f" x="213.84" y="215.494586" style="fill: #4c72b0"/>
    </g>
    <g clip-path="url(#p3e28e76d0f)">
     <use xlink:href="#C3_0_7322b67a1f" x="213.84" y="135.774672" style="fill: #4c72b0"/>
    </g>
   </g>
   <g id="PathCollection_5">
    <defs>
     <path id="C4_0_9c367eee27" d="M 0 1.5 
C 0.397805 1.5 0.77937 1.341951 1.06066 1.06066 
C 1.341951 0.77937 1.5 0.397805 1.5 -0 
C 1.5 -0.397805 1.341951 -0.77937 1.06066 -1.06066 
C 0.77937 -1.341951 0.397805 -1.5 0 -1.5 
C -0.397805 -1.5 -0.77937 -1.341951 -1.06066 -1.06066 
C -1.341951 -0.77937 -1.5 -0.397805 -1.5 0 
C -1.5 0.397805 -1.341951 0.77937 -1.06066 1.06066 
C -0.77937 1.341951 -0.397805 1.5 0 1.5 
z
"/>
    </defs>
    <g clip-path="url(#p3e28e76d0f)">
     <use xlink:href="#C4_0_9c367eee27" x="258.48" y="66.807176" style="fill: #c44e52"/>
    </g>
    <g clip-path="url(#p3e28e76d0f)">
     <use xlink:href="#C4_0_9c367eee27" x="258.48" y="105.195115" style="fill: #c44e52"/>
    </g>
    <g clip-path="url(#p3e28e76d0f)">
     <use xlink:href="#C4_0_9c367eee27" x="255.666654" y="87.297669" style="fill: #c44e52"/>
    </g>
    <g clip-path="url(#p3e28e76d0f)">
     <use xlink:href="#C4_0_9c367eee27" x="256.168615" y="76.745542" style="fill: #c44e52"/>
    </g>
    <g clip-path="url(#p3e28e76d0f)">
     <use xlink:href="#C4_0_9c367eee27" x="258.48" y="85.279008" style="fill: #c44e52"/>
    </g>
    <g clip-path="url(#p3e28e76d0f)">
     <use xlink:href="#C4_0_9c367eee27" x="261.305069" y="77.456705" style="fill: #c44e52"/>
    </g>
    <g clip-path="url(#p3e28e76d0f)">
     <use xlink:href="#C4_0_9c367eee27" x="256.686199" y="82.812952" style="fill: #c44e52"/>
    </g>
    <g clip-path="url(#p3e28e76d0f)">
     <use xlink:href="#C4_0_9c367eee27" x="258.48" y="78.783725" style="fill: #c44e52"/>
    </g>
    <g clip-path="url(#p3e28e76d0f)">
     <use xlink:href="#C4_0_9c367eee27" x="258.48" y="88.64709" style="fill: #c44e52"/>
    </g>
    <g clip-path="url(#p3e28e76d0f)">
     <use xlink:href="#C4_0_9c367eee27" x="258.48" y="93.391782" style="fill: #c44e52"/>
    </g>
   </g>
   <g id="PathCollection_6">
    <defs>
     <path id="C5_0_0dd7b7cba8" d="M 0 1.5 
C 0.397805 1.5 0.77937 1.341951 1.06066 1.06066 
C 1.341951 0.77937 1.5 0.397805 1.5 -0 
C 1.5 -0.397805 1.341951 -0.77937 1.06066 -1.06066 
C 0.77937 -1.341951 0.397805 -1.5 0 -1.5 
C -0.397805 -1.5 -0.77937 -1.341951 -1.06066 -1.06066 
C -1.341951 -0.77937 -1.5 -0.397805 -1.5 0 
C -1.5 0.397805 -1.341951 0.77937 -1.06066 1.06066 
C -0.77937 1.341951 -0.397805 1.5 0 1.5 
z
"/>
    </defs>
    <g clip-path="url(#p3e28e76d0f)">
     <use xlink:href="#C5_0_0dd7b7cba8" x="300.88128" y="80.956132" style="fill: #4c72b0"/>
    </g>
    <g clip-path="url(#p3e28e76d0f)">
     <use xlink:href="#C5_0_0dd7b7cba8" x="306.012042" y="108.258801" style="fill: #4c72b0"/>
    </g>
    <g clip-path="url(#p3e28e76d0f)">
     <use xlink:href="#C5_0_0dd7b7cba8" x="303.12" y="92.543913" style="fill: #4c72b0"/>
    </g>
    <g clip-path="url(#p3e28e76d0f)">
     <use xlink:href="#C5_0_0dd7b7cba8" x="300.454853" y="87.284541" style="fill: #4c72b0"/>
    </g>
    <g clip-path="url(#p3e28e76d0f)">
     <use xlink:href="#C5_0_0dd7b7cba8" x="300.918481" y="97.784759" style="fill: #4c72b0"/>
    </g>
    <g clip-path="url(#p3e28e76d0f)">
     <use xlink:href="#C5_0_0dd7b7cba8" x="303.12" y="99.930432" style="fill: #4c72b0"/>
    </g>
    <g clip-path="url(#p3e28e76d0f)">
     <use xlink:href="#C5_0_0dd7b7cba8" x="303.12" y="83.066603" style="fill: #4c72b0"/>
    </g>
    <g clip-path="url(#p3e28e76d0f)">
     <use xlink:href="#C5_0_0dd7b7cba8" x="303.12" y="88.883716" style="fill: #4c72b0"/>
    </g>
    <g clip-path="url(#p3e28e76d0f)">
     <use xlink:href="#C5_0_0dd7b7cba8" x="303.12" y="109.447788" style="fill: #4c72b0"/>
    </g>
    <g clip-path="url(#p3e28e76d0f)">
     <use xlink:href="#C5_0_0dd7b7cba8" x="300.103272" y="108.584395" style="fill: #4c72b0"/>
    </g>
   </g>
   <g id="PathCollection_7">
    <defs>
     <path id="C6_0_d99d4fda08" d="M 0 1.5 
C 0.397805 1.5 0.77937 1.341951 1.06066 1.06066 
C 1.341951 0.77937 1.5 0.397805 1.5 -0 
C 1.5 -0.397805 1.341951 -0.77937 1.06066 -1.06066 
C 0.77937 -1.341951 0.397805 -1.5 0 -1.5 
C -0.397805 -1.5 -0.77937 -1.341951 -1.06066 -1.06066 
C -1.341951 -0.77937 -1.5 -0.397805 -1.5 0 
C -1.5 0.397805 -1.341951 0.77937 -1.06066 1.06066 
C -0.77937 1.341951 -0.397805 1.5 0 1.5 
z
"/>
    </defs>
    <g clip-path="url(#p3e28e76d0f)">
     <use xlink:href="#C6_0_d99d4fda08" x="347.76" y="218.785179" style="fill: #c44e52"/>
    </g>
    <g clip-path="url(#p3e28e76d0f)">
     <use xlink:href="#C6_0_d99d4fda08" x="345.375798" y="240.162522" style="fill: #c44e52"/>
    </g>
    <g clip-path="url(#p3e28e76d0f)">
     <use xlink:href="#C6_0_d99d4fda08" x="344.688773" y="185.642772" style="fill: #c44e52"/>
    </g>
    <g clip-path="url(#p3e28e76d0f)">
     <use xlink:href="#C6_0_d99d4fda08" x="347.76" y="242.123151" style="fill: #c44e52"/>
    </g>
    <g clip-path="url(#p3e28e76d0f)">
     <use xlink:href="#C6_0_d99d4fda08" x="347.76" y="137.968341" style="fill: #c44e52"/>
    </g>
    <g clip-path="url(#p3e28e76d0f)">
     <use xlink:href="#C6_0_d99d4fda08" x="347.76" y="197.953027" style="fill: #c44e52"/>
    </g>
    <g clip-path="url(#p3e28e76d0f)">
     <use xlink:href="#C6_0_d99d4fda08" x="347.76" y="186.309481" style="fill: #c44e52"/>
    </g>
    <g clip-path="url(#p3e28e76d0f)">
     <use xlink:href="#C6_0_d99d4fda08" x="347.76" y="249.898717" style="fill: #c44e52"/>
    </g>
    <g clip-path="url(#p3e28e76d0f)">
     <use xlink:href="#C6_0_d99d4fda08" x="344.61698" y="174.626499" style="fill: #c44e52"/>
    </g>
    <g clip-path="url(#p3e28e76d0f)">
     <use xlink:href="#C6_0_d99d4fda08" x="347.76" y="174.826098" style="fill: #c44e52"/>
    </g>
   </g>
   <g id="PathCollection_8">
    <defs>
     <path id="C7_0_2f0900670e" d="M 0 1.5 
C 0.397805 1.5 0.77937 1.341951 1.06066 1.06066 
C 1.341951 0.77937 1.5 0.397805 1.5 -0 
C 1.5 -0.397805 1.341951 -0.77937 1.06066 -1.06066 
C 0.77937 -1.341951 0.397805 -1.5 0 -1.5 
C -0.397805 -1.5 -0.77937 -1.341951 -1.06066 -1.06066 
C -1.341951 -0.77937 -1.5 -0.397805 -1.5 0 
C -1.5 0.397805 -1.341951 0.77937 -1.06066 1.06066 
C -0.77937 1.341951 -0.397805 1.5 0 1.5 
z
"/>
    </defs>
    <g clip-path="url(#p3e28e76d0f)">
     <use xlink:href="#C7_0_2f0900670e" x="392.4" y="223.256387" style="fill: #4c72b0"/>
    </g>
    <g clip-path="url(#p3e28e76d0f)">
     <use xlink:href="#C7_0_2f0900670e" x="390.304101" y="240.789814" style="fill: #4c72b0"/>
    </g>
    <g clip-path="url(#p3e28e76d0f)">
     <use xlink:href="#C7_0_2f0900670e" x="392.4" y="197.419266" style="fill: #4c72b0"/>
    </g>
    <g clip-path="url(#p3e28e76d0f)">
     <use xlink:href="#C7_0_2f0900670e" x="392.4" y="236.87324" style="fill: #4c72b0"/>
    </g>
    <g clip-path="url(#p3e28e76d0f)">
     <use xlink:href="#C7_0_2f0900670e" x="392.4" y="162.665553" style="fill: #4c72b0"/>
    </g>
    <g clip-path="url(#p3e28e76d0f)">
     <use xlink:href="#C7_0_2f0900670e" x="392.4" y="179.464845" style="fill: #4c72b0"/>
    </g>
    <g clip-path="url(#p3e28e76d0f)">
     <use xlink:href="#C7_0_2f0900670e" x="392.4" y="201.828232" style="fill: #4c72b0"/>
    </g>
    <g clip-path="url(#p3e28e76d0f)">
     <use xlink:href="#C7_0_2f0900670e" x="392.4" y="243.029369" style="fill: #4c72b0"/>
    </g>
    <g clip-path="url(#p3e28e76d0f)">
     <use xlink:href="#C7_0_2f0900670e" x="392.4" y="193.76667" style="fill: #4c72b0"/>
    </g>
    <g clip-path="url(#p3e28e76d0f)">
     <use xlink:href="#C7_0_2f0900670e" x="392.4" y="185.767477" style="fill: #4c72b0"/>
    </g>
   </g>
   <g id="PathCollection_9">
    <defs>
     <path id="m7985808191" d="M 22.36068 0 
L -22.36068 -0 
" style="stroke: #1a1a1a; stroke-width: 1.5"/>
    </defs>
    <g clip-path="url(#p3e28e76d0f)">
     <use xlink:href="#m7985808191" x="79.92" y="158.555585" style="fill: #1a1a1a; stroke: #1a1a1a; stroke-width: 1.5"/>
     <use xlink:href="#m7985808191" x="124.56" y="143.776016" style="fill: #1a1a1a; stroke: #1a1a1a; stroke-width: 1.5"/>
     <use xlink:href="#m7985808191" x="169.2" y="196.670928" style="fill: #1a1a1a; stroke: #1a1a1a; stroke-width: 1.5"/>
     <use xlink:href="#m7985808191" x="213.84" y="170.399334" style="fill: #1a1a1a; stroke: #1a1a1a; stroke-width: 1.5"/>
     <use xlink:href="#m7985808191" x="258.48" y="84.241676" style="fill: #1a1a1a; stroke: #1a1a1a; stroke-width: 1.5"/>
     <use xlink:href="#m7985808191" x="303.12" y="95.674108" style="fill: #1a1a1a; stroke: #1a1a1a; stroke-width: 1.5"/>
     <use xlink:href="#m7985808191" x="347.76" y="200.829579" style="fill: #1a1a1a; stroke: #1a1a1a; stroke-width: 1.5"/>
     <use xlink:href="#m7985808191" x="392.4" y="206.486085" style="fill: #1a1a1a; stroke: #1a1a1a; stroke-width: 1.5"/>
    </g>
   </g>
  </g>
 </g>
 <defs>
  <clipPath id="p3e28e76d0f">
   <rect x="57.6" y="41.472" width="357.12" height="266.112"/>
  </clipPath>
 </defs>
</svg>
