<?xml version="1.0" encoding="utf-8" standalone="no"?>
<!DOCTYPE svg PUBLIC "-//W3C//DTD SVG 1.1//EN"
  "http://www.w3.org/Graphics/SVG/1.1/DTD/svg11.dtd">
<svg xmlns:xlink="http://www.w3.org/1999/xlink" width="1332pt" height="396pt" viewBox="0 0 1332 396" xmlns="http://www.w3.org/2000/svg" version="1.1">
 <metadata>
  <rdf:RDF xmlns:dc="http://purl.org/dc/elements/1.1/" xmlns:cc="http://creativecommons.org/ns#" xmlns:rdf="http://www.w3.org/1999/02/22-rdf-syntax-ns#">
   <cc:Work>
    <dc:type rdf:resource="http://purl.org/dc/dcmitype/StillImage"/>
    <dc:date>2024-10-21T03:04:58.276850</dc:date>
    <dc:format>image/svg+xml</dc:format>
    <dc:creator>
     <cc:Agent>
      <dc:title>Matplotlib v3.8.4, https://matplotlib.org/</dc:title>
     </cc:Agent>
    </dc:creator>
   </cc:Work>
  </rdf:RDF>
 </metadata>
 <defs>
  <style type="text/css">*{stroke-linejoin: round; stroke-linecap: butt}</style>
 </defs>
 <g id="figure_1">
  <g id="patch_1">
   <path d="M 0 396 
L 1332 396 
L 1332 0 
L 0 0 
z
" style="fill: #ffffff"/>
  </g>
  <g id="axes_1">
   <g id="patch_2">
    <path d="M 43.19 364.42 
L 460.793333 364.42 
L 460.793333 15.64 
L 43.19 15.64 
z
" style="fill: #ffffff"/>
   </g>
   <g id="matplotlib.axis_1">
    <g id="xtick_1">
     <g id="text_1">
      <!-- Low -->
      <g style="fill: #262626" transform="translate(102.701493 381.793594) scale(0.11 -0.11)">
       <defs>
        <path id="ArialMT-4c" d="M 469 0 
L 469 4581 
L 1075 4581 
L 1075 541 
L 3331 541 
L 3331 0 
L 469 0 
z
" transform="scale(0.015625)"/>
        <path id="ArialMT-6f" d="M 213 1659 
Q 213 2581 725 3025 
Q 1153 3394 1769 3394 
Q 2453 3394 2887 2945 
Q 3322 2497 3322 1706 
Q 3322 1066 3130 698 
Q 2938 331 2570 128 
Q 2203 -75 1769 -75 
Q 1072 -75 642 372 
Q 213 819 213 1659 
z
M 791 1659 
Q 791 1022 1069 705 
Q 1347 388 1769 388 
Q 2188 388 2466 706 
Q 2744 1025 2744 1678 
Q 2744 2294 2464 2611 
Q 2184 2928 1769 2928 
Q 1347 2928 1069 2612 
Q 791 2297 791 1659 
z
" transform="scale(0.015625)"/>
        <path id="ArialMT-77" d="M 1034 0 
L 19 3319 
L 600 3319 
L 1128 1403 
L 1325 691 
Q 1338 744 1497 1375 
L 2025 3319 
L 2603 3319 
L 3100 1394 
L 3266 759 
L 3456 1400 
L 4025 3319 
L 4572 3319 
L 3534 0 
L 2950 0 
L 2422 1988 
L 2294 2553 
L 1622 0 
L 1034 0 
z
" transform="scale(0.015625)"/>
       </defs>
       <use xlink:href="#ArialMT-4c"/>
       <use xlink:href="#ArialMT-6f" x="55.615234"/>
       <use xlink:href="#ArialMT-77" x="111.230469"/>
      </g>
     </g>
    </g>
    <g id="xtick_2">
     <g id="text_2">
      <!-- Medium -->
      <g style="fill: #262626" transform="translate(232.431432 381.793594) scale(0.11 -0.11)">
       <defs>
        <path id="ArialMT-4d" d="M 475 0 
L 475 4581 
L 1388 4581 
L 2472 1338 
Q 2622 884 2691 659 
Q 2769 909 2934 1394 
L 4031 4581 
L 4847 4581 
L 4847 0 
L 4263 0 
L 4263 3834 
L 2931 0 
L 2384 0 
L 1059 3900 
L 1059 0 
L 475 0 
z
" transform="scale(0.015625)"/>
        <path id="ArialMT-65" d="M 2694 1069 
L 3275 997 
Q 3138 488 2766 206 
Q 2394 -75 1816 -75 
Q 1088 -75 661 373 
Q 234 822 234 1631 
Q 234 2469 665 2931 
Q 1097 3394 1784 3394 
Q 2450 3394 2872 2941 
Q 3294 2488 3294 1666 
Q 3294 1616 3291 1516 
L 816 1516 
Q 847 969 1125 678 
Q 1403 388 1819 388 
Q 2128 388 2347 550 
Q 2566 713 2694 1069 
z
M 847 1978 
L 2700 1978 
Q 2663 2397 2488 2606 
Q 2219 2931 1791 2931 
Q 1403 2931 1139 2672 
Q 875 2413 847 1978 
z
" transform="scale(0.015625)"/>
        <path id="ArialMT-64" d="M 2575 0 
L 2575 419 
Q 2259 -75 1647 -75 
Q 1250 -75 917 144 
Q 584 363 401 755 
Q 219 1147 219 1656 
Q 219 2153 384 2558 
Q 550 2963 881 3178 
Q 1213 3394 1622 3394 
Q 1922 3394 2156 3267 
Q 2391 3141 2538 2938 
L 2538 4581 
L 3097 4581 
L 3097 0 
L 2575 0 
z
M 797 1656 
Q 797 1019 1065 703 
Q 1334 388 1700 388 
Q 2069 388 2326 689 
Q 2584 991 2584 1609 
Q 2584 2291 2321 2609 
Q 2059 2928 1675 2928 
Q 1300 2928 1048 2622 
Q 797 2316 797 1656 
z
" transform="scale(0.015625)"/>
        <path id="ArialMT-69" d="M 425 3934 
L 425 4581 
L 988 4581 
L 988 3934 
L 425 3934 
z
M 425 0 
L 425 3319 
L 988 3319 
L 988 0 
L 425 0 
z
" transform="scale(0.015625)"/>
        <path id="ArialMT-75" d="M 2597 0 
L 2597 488 
Q 2209 -75 1544 -75 
Q 1250 -75 995 37 
Q 741 150 617 320 
Q 494 491 444 738 
Q 409 903 409 1263 
L 409 3319 
L 972 3319 
L 972 1478 
Q 972 1038 1006 884 
Q 1059 663 1231 536 
Q 1403 409 1656 409 
Q 1909 409 2131 539 
Q 2353 669 2445 892 
Q 2538 1116 2538 1541 
L 2538 3319 
L 3100 3319 
L 3100 0 
L 2597 0 
z
" transform="scale(0.015625)"/>
        <path id="ArialMT-6d" d="M 422 0 
L 422 3319 
L 925 3319 
L 925 2853 
Q 1081 3097 1340 3245 
Q 1600 3394 1931 3394 
Q 2300 3394 2536 3241 
Q 2772 3088 2869 2813 
Q 3263 3394 3894 3394 
Q 4388 3394 4653 3120 
Q 4919 2847 4919 2278 
L 4919 0 
L 4359 0 
L 4359 2091 
Q 4359 2428 4304 2576 
Q 4250 2725 4106 2815 
Q 3963 2906 3769 2906 
Q 3419 2906 3187 2673 
Q 2956 2441 2956 1928 
L 2956 0 
L 2394 0 
L 2394 2156 
Q 2394 2531 2256 2718 
Q 2119 2906 1806 2906 
Q 1569 2906 1367 2781 
Q 1166 2656 1075 2415 
Q 984 2175 984 1722 
L 984 0 
L 422 0 
z
" transform="scale(0.015625)"/>
       </defs>
       <use xlink:href="#ArialMT-4d"/>
       <use xlink:href="#ArialMT-65" x="83.300781"/>
       <use xlink:href="#ArialMT-64" x="138.916016"/>
       <use xlink:href="#ArialMT-69" x="194.53125"/>
       <use xlink:href="#ArialMT-75" x="216.748047"/>
       <use xlink:href="#ArialMT-6d" x="272.363281"/>
      </g>
     </g>
    </g>
    <g id="xtick_3">
     <g id="text_3">
      <!-- High -->
      <g style="fill: #262626" transform="translate(379.881684 381.793594) scale(0.11 -0.11)">
       <defs>
        <path id="ArialMT-48" d="M 513 0 
L 513 4581 
L 1119 4581 
L 1119 2700 
L 3500 2700 
L 3500 4581 
L 4106 4581 
L 4106 0 
L 3500 0 
L 3500 2159 
L 1119 2159 
L 1119 0 
L 513 0 
z
" transform="scale(0.015625)"/>
        <path id="ArialMT-67" d="M 319 -275 
L 866 -356 
Q 900 -609 1056 -725 
Q 1266 -881 1628 -881 
Q 2019 -881 2231 -725 
Q 2444 -569 2519 -288 
Q 2563 -116 2559 434 
Q 2191 0 1641 0 
Q 956 0 581 494 
Q 206 988 206 1678 
Q 206 2153 378 2554 
Q 550 2956 876 3175 
Q 1203 3394 1644 3394 
Q 2231 3394 2613 2919 
L 2613 3319 
L 3131 3319 
L 3131 450 
Q 3131 -325 2973 -648 
Q 2816 -972 2473 -1159 
Q 2131 -1347 1631 -1347 
Q 1038 -1347 672 -1080 
Q 306 -813 319 -275 
z
M 784 1719 
Q 784 1066 1043 766 
Q 1303 466 1694 466 
Q 2081 466 2343 764 
Q 2606 1063 2606 1700 
Q 2606 2309 2336 2618 
Q 2066 2928 1684 2928 
Q 1309 2928 1046 2623 
Q 784 2319 784 1719 
z
" transform="scale(0.015625)"/>
        <path id="ArialMT-68" d="M 422 0 
L 422 4581 
L 984 4581 
L 984 2938 
Q 1378 3394 1978 3394 
Q 2347 3394 2619 3248 
Q 2891 3103 3008 2847 
Q 3125 2591 3125 2103 
L 3125 0 
L 2563 0 
L 2563 2103 
Q 2563 2525 2380 2717 
Q 2197 2909 1863 2909 
Q 1613 2909 1392 2779 
Q 1172 2650 1078 2428 
Q 984 2206 984 1816 
L 984 0 
L 422 0 
z
" transform="scale(0.015625)"/>
       </defs>
       <use xlink:href="#ArialMT-48"/>
       <use xlink:href="#ArialMT-69" x="72.216797"/>
       <use xlink:href="#ArialMT-67" x="94.433594"/>
       <use xlink:href="#ArialMT-68" x="150.048828"/>
      </g>
     </g>
    </g>
   </g>
   <g id="matplotlib.axis_2">
    <g id="ytick_1">
     <g id="line2d_1">
      <path d="M 43.19 339.507143 
L 460.793333 339.507143 
" clip-path="url(#p773905b569)" style="fill: none; stroke: #cccccc; stroke-linecap: round"/>
     </g>
     <g id="text_4">
      <!-- −0.4 -->
      <g style="fill: #262626" transform="translate(11.975313 343.44394) scale(0.11 -0.11)">
       <defs>
        <path id="ArialMT-2212" d="M 3381 1997 
L 356 1997 
L 356 2522 
L 3381 2522 
L 3381 1997 
z
" transform="scale(0.015625)"/>
        <path id="ArialMT-30" d="M 266 2259 
Q 266 3072 433 3567 
Q 600 4063 929 4331 
Q 1259 4600 1759 4600 
Q 2128 4600 2406 4451 
Q 2684 4303 2865 4023 
Q 3047 3744 3150 3342 
Q 3253 2941 3253 2259 
Q 3253 1453 3087 958 
Q 2922 463 2592 192 
Q 2263 -78 1759 -78 
Q 1097 -78 719 397 
Q 266 969 266 2259 
z
M 844 2259 
Q 844 1131 1108 757 
Q 1372 384 1759 384 
Q 2147 384 2411 759 
Q 2675 1134 2675 2259 
Q 2675 3391 2411 3762 
Q 2147 4134 1753 4134 
Q 1366 4134 1134 3806 
Q 844 3388 844 2259 
z
" transform="scale(0.015625)"/>
        <path id="ArialMT-2e" d="M 581 0 
L 581 641 
L 1222 641 
L 1222 0 
L 581 0 
z
" transform="scale(0.015625)"/>
        <path id="ArialMT-34" d="M 2069 0 
L 2069 1097 
L 81 1097 
L 81 1613 
L 2172 4581 
L 2631 4581 
L 2631 1613 
L 3250 1613 
L 3250 1097 
L 2631 1097 
L 2631 0 
L 2069 0 
z
M 2069 1613 
L 2069 3678 
L 634 1613 
L 2069 1613 
z
" transform="scale(0.015625)"/>
       </defs>
       <use xlink:href="#ArialMT-2212"/>
       <use xlink:href="#ArialMT-30" x="58.398438"/>
       <use xlink:href="#ArialMT-2e" x="114.013672"/>
       <use xlink:href="#ArialMT-34" x="141.796875"/>
      </g>
     </g>
    </g>
    <g id="ytick_2">
     <g id="line2d_2">
      <path d="M 43.19 289.681429 
L 460.793333 289.681429 
" clip-path="url(#p773905b569)" style="fill: none; stroke: #cccccc; stroke-linecap: round"/>
     </g>
     <g id="text_5">
      <!-- −0.2 -->
      <g style="fill: #262626" transform="translate(11.975313 293.618225) scale(0.11 -0.11)">
       <defs>
        <path id="ArialMT-32" d="M 3222 541 
L 3222 0 
L 194 0 
Q 188 203 259 391 
Q 375 700 629 1000 
Q 884 1300 1366 1694 
Q 2113 2306 2375 2664 
Q 2638 3022 2638 3341 
Q 2638 3675 2398 3904 
Q 2159 4134 1775 4134 
Q 1369 4134 1125 3890 
Q 881 3647 878 3216 
L 300 3275 
Q 359 3922 746 4261 
Q 1134 4600 1788 4600 
Q 2447 4600 2831 4234 
Q 3216 3869 3216 3328 
Q 3216 3053 3103 2787 
Q 2991 2522 2730 2228 
Q 2469 1934 1863 1422 
Q 1356 997 1212 845 
Q 1069 694 975 541 
L 3222 541 
z
" transform="scale(0.015625)"/>
       </defs>
       <use xlink:href="#ArialMT-2212"/>
       <use xlink:href="#ArialMT-30" x="58.398438"/>
       <use xlink:href="#ArialMT-2e" x="114.013672"/>
       <use xlink:href="#ArialMT-32" x="141.796875"/>
      </g>
     </g>
    </g>
    <g id="ytick_3">
     <g id="line2d_3">
      <path d="M 43.19 239.855714 
L 460.793333 239.855714 
" clip-path="url(#p773905b569)" style="fill: none; stroke: #cccccc; stroke-linecap: round"/>
     </g>
     <g id="text_6">
      <!-- 0.0 -->
      <g style="fill: #262626" transform="translate(18.4 243.792511) scale(0.11 -0.11)">
       <use xlink:href="#ArialMT-30"/>
       <use xlink:href="#ArialMT-2e" x="55.615234"/>
       <use xlink:href="#ArialMT-30" x="83.398438"/>
      </g>
     </g>
    </g>
    <g id="ytick_4">
     <g id="line2d_4">
      <path d="M 43.19 190.03 
L 460.793333 190.03 
" clip-path="url(#p773905b569)" style="fill: none; stroke: #cccccc; stroke-linecap: round"/>
     </g>
     <g id="text_7">
      <!-- 0.2 -->
      <g style="fill: #262626" transform="translate(18.4 193.966797) scale(0.11 -0.11)">
       <use xlink:href="#ArialMT-30"/>
       <use xlink:href="#ArialMT-2e" x="55.615234"/>
       <use xlink:href="#ArialMT-32" x="83.398438"/>
      </g>
     </g>
    </g>
    <g id="ytick_5">
     <g id="line2d_5">
      <path d="M 43.19 140.204286 
L 460.793333 140.204286 
" clip-path="url(#p773905b569)" style="fill: none; stroke: #cccccc; stroke-linecap: round"/>
     </g>
     <g id="text_8">
      <!-- 0.4 -->
      <g style="fill: #262626" transform="translate(18.4 144.141083) scale(0.11 -0.11)">
       <use xlink:href="#ArialMT-30"/>
       <use xlink:href="#ArialMT-2e" x="55.615234"/>
       <use xlink:href="#ArialMT-34" x="83.398438"/>
      </g>
     </g>
    </g>
    <g id="ytick_6">
     <g id="line2d_6">
      <path d="M 43.19 90.378571 
L 460.793333 90.378571 
" clip-path="url(#p773905b569)" style="fill: none; stroke: #cccccc; stroke-linecap: round"/>
     </g>
     <g id="text_9">
      <!-- 0.6 -->
      <g style="fill: #262626" transform="translate(18.4 94.315368) scale(0.11 -0.11)">
       <defs>
        <path id="ArialMT-36" d="M 3184 3459 
L 2625 3416 
Q 2550 3747 2413 3897 
Q 2184 4138 1850 4138 
Q 1581 4138 1378 3988 
Q 1113 3794 959 3422 
Q 806 3050 800 2363 
Q 1003 2672 1297 2822 
Q 1591 2972 1913 2972 
Q 2475 2972 2870 2558 
Q 3266 2144 3266 1488 
Q 3266 1056 3080 686 
Q 2894 316 2569 119 
Q 2244 -78 1831 -78 
Q 1128 -78 684 439 
Q 241 956 241 2144 
Q 241 3472 731 4075 
Q 1159 4600 1884 4600 
Q 2425 4600 2770 4297 
Q 3116 3994 3184 3459 
z
M 888 1484 
Q 888 1194 1011 928 
Q 1134 663 1356 523 
Q 1578 384 1822 384 
Q 2178 384 2434 671 
Q 2691 959 2691 1453 
Q 2691 1928 2437 2201 
Q 2184 2475 1800 2475 
Q 1419 2475 1153 2201 
Q 888 1928 888 1484 
z
" transform="scale(0.015625)"/>
       </defs>
       <use xlink:href="#ArialMT-30"/>
       <use xlink:href="#ArialMT-2e" x="55.615234"/>
       <use xlink:href="#ArialMT-36" x="83.398438"/>
      </g>
     </g>
    </g>
    <g id="ytick_7">
     <g id="line2d_7">
      <path d="M 43.19 40.552857 
L 460.793333 40.552857 
" clip-path="url(#p773905b569)" style="fill: none; stroke: #cccccc; stroke-linecap: round"/>
     </g>
     <g id="text_10">
      <!-- 0.8 -->
      <g style="fill: #262626" transform="translate(18.4 44.489654) scale(0.11 -0.11)">
       <defs>
        <path id="ArialMT-38" d="M 1131 2484 
Q 781 2613 612 2850 
Q 444 3088 444 3419 
Q 444 3919 803 4259 
Q 1163 4600 1759 4600 
Q 2359 4600 2725 4251 
Q 3091 3903 3091 3403 
Q 3091 3084 2923 2848 
Q 2756 2613 2416 2484 
Q 2838 2347 3058 2040 
Q 3278 1734 3278 1309 
Q 3278 722 2862 322 
Q 2447 -78 1769 -78 
Q 1091 -78 675 323 
Q 259 725 259 1325 
Q 259 1772 486 2073 
Q 713 2375 1131 2484 
z
M 1019 3438 
Q 1019 3113 1228 2906 
Q 1438 2700 1772 2700 
Q 2097 2700 2305 2904 
Q 2513 3109 2513 3406 
Q 2513 3716 2298 3927 
Q 2084 4138 1766 4138 
Q 1444 4138 1231 3931 
Q 1019 3725 1019 3438 
z
M 838 1322 
Q 838 1081 952 856 
Q 1066 631 1291 507 
Q 1516 384 1775 384 
Q 2178 384 2440 643 
Q 2703 903 2703 1303 
Q 2703 1709 2433 1975 
Q 2163 2241 1756 2241 
Q 1359 2241 1098 1978 
Q 838 1716 838 1322 
z
" transform="scale(0.015625)"/>
       </defs>
       <use xlink:href="#ArialMT-30"/>
       <use xlink:href="#ArialMT-2e" x="55.615234"/>
       <use xlink:href="#ArialMT-38" x="83.398438"/>
      </g>
     </g>
    </g>
   </g>
   <g id="patch_3">
    <path d="M 57.110111 76.183015 
L 168.471 76.183015 
L 168.471 67.498232 
L 57.110111 67.498232 
L 57.110111 76.183015 
z
" clip-path="url(#p773905b569)" style="fill: #5875a4; stroke: #4c4c4c; stroke-linejoin: miter"/>
   </g>
   <g id="line2d_8">
    <path d="M 112.790556 76.183015 
L 112.790556 82.360373 
" clip-path="url(#p773905b569)" style="fill: none; stroke: #4c4c4c"/>
   </g>
   <g id="line2d_9">
    <path d="M 112.790556 67.498232 
L 112.790556 54.693058 
" clip-path="url(#p773905b569)" style="fill: none; stroke: #4c4c4c"/>
   </g>
   <g id="line2d_10">
    <path d="M 84.950333 82.360373 
L 140.630778 82.360373 
" clip-path="url(#p773905b569)" style="fill: none; stroke: #4c4c4c; stroke-linecap: round"/>
   </g>
   <g id="line2d_11">
    <path d="M 84.950333 54.693058 
L 140.630778 54.693058 
" clip-path="url(#p773905b569)" style="fill: none; stroke: #4c4c4c; stroke-linecap: round"/>
   </g>
   <g id="line2d_12">
    <defs>
     <path id="m8d2ef02094" d="M 0 3 
C 0.795609 3 1.55874 2.683901 2.12132 2.12132 
C 2.683901 1.55874 3 0.795609 3 0 
C 3 -0.795609 2.683901 -1.55874 2.12132 -2.12132 
C 1.55874 -2.683901 0.795609 -3 0 -3 
C -0.795609 -3 -1.55874 -2.683901 -2.12132 -2.12132 
C -2.683901 -1.55874 -3 -0.795609 -3 0 
C -3 0.795609 -2.683901 1.55874 -2.12132 2.12132 
C -1.55874 2.683901 -0.795609 3 0 3 
z
" style="stroke: #4c4c4c"/>
    </defs>
    <g clip-path="url(#p773905b569)">
     <use xlink:href="#m8d2ef02094" x="112.790556" y="91.290479" style="fill-opacity: 0; stroke: #4c4c4c"/>
    </g>
   </g>
   <g id="patch_4">
    <path d="M 196.311222 76.942886 
L 307.672111 76.942886 
L 307.672111 67.972446 
L 196.311222 67.972446 
L 196.311222 76.942886 
z
" clip-path="url(#p773905b569)" style="fill: #5875a4; stroke: #4c4c4c; stroke-linejoin: miter"/>
   </g>
   <g id="line2d_13">
    <path d="M 251.991667 76.942886 
L 251.991667 84.548039 
" clip-path="url(#p773905b569)" style="fill: none; stroke: #4c4c4c"/>
   </g>
   <g id="line2d_14">
    <path d="M 251.991667 67.972446 
L 251.991667 56.036253 
" clip-path="url(#p773905b569)" style="fill: none; stroke: #4c4c4c"/>
   </g>
   <g id="line2d_15">
    <path d="M 224.151444 84.548039 
L 279.831889 84.548039 
" clip-path="url(#p773905b569)" style="fill: none; stroke: #4c4c4c; stroke-linecap: round"/>
   </g>
   <g id="line2d_16">
    <path d="M 224.151444 56.036253 
L 279.831889 56.036253 
" clip-path="url(#p773905b569)" style="fill: none; stroke: #4c4c4c; stroke-linecap: round"/>
   </g>
   <g id="line2d_17">
    <g clip-path="url(#p773905b569)">
     <use xlink:href="#m8d2ef02094" x="251.991667" y="93.285332" style="fill-opacity: 0; stroke: #4c4c4c"/>
    </g>
   </g>
   <g id="patch_5">
    <path d="M 335.512333 80.018775 
L 446.873222 80.018775 
L 446.873222 70.504496 
L 335.512333 70.504496 
L 335.512333 80.018775 
z
" clip-path="url(#p773905b569)" style="fill: #5875a4; stroke: #4c4c4c; stroke-linejoin: miter"/>
   </g>
   <g id="line2d_18">
    <path d="M 391.192778 80.018775 
L 391.192778 86.592381 
" clip-path="url(#p773905b569)" style="fill: none; stroke: #4c4c4c"/>
   </g>
   <g id="line2d_19">
    <path d="M 391.192778 70.504496 
L 391.192778 59.665358 
" clip-path="url(#p773905b569)" style="fill: none; stroke: #4c4c4c"/>
   </g>
   <g id="line2d_20">
    <path d="M 363.352556 86.592381 
L 419.033 86.592381 
" clip-path="url(#p773905b569)" style="fill: none; stroke: #4c4c4c; stroke-linecap: round"/>
   </g>
   <g id="line2d_21">
    <path d="M 363.352556 59.665358 
L 419.033 59.665358 
" clip-path="url(#p773905b569)" style="fill: none; stroke: #4c4c4c; stroke-linecap: round"/>
   </g>
   <g id="line2d_22">
    <g clip-path="url(#p773905b569)">
     <use xlink:href="#m8d2ef02094" x="391.192778" y="99.656916" style="fill-opacity: 0; stroke: #4c4c4c"/>
    </g>
   </g>
   <g id="line2d_23">
    <path d="M 57.110111 71.989165 
L 168.471 71.989165 
" clip-path="url(#p773905b569)" style="fill: none; stroke: #4c4c4c"/>
   </g>
   <g id="line2d_24">
    <path d="M 196.311222 72.614554 
L 307.672111 72.614554 
" clip-path="url(#p773905b569)" style="fill: none; stroke: #4c4c4c"/>
   </g>
   <g id="line2d_25">
    <path d="M 335.512333 73.752051 
L 446.873222 73.752051 
" clip-path="url(#p773905b569)" style="fill: none; stroke: #4c4c4c"/>
   </g>
   <g id="patch_6">
    <path d="M 43.19 364.42 
L 43.19 15.64 
" style="fill: none; stroke: #cccccc; stroke-width: 1.25; stroke-linejoin: miter; stroke-linecap: square"/>
   </g>
   <g id="patch_7">
    <path d="M 43.19 364.42 
L 460.793333 364.42 
" style="fill: none; stroke: #cccccc; stroke-width: 1.25; stroke-linejoin: miter; stroke-linecap: square"/>
   </g>
   <g id="text_11">
    <!-- FT10 -->
    <g style="fill: #262626" transform="translate(237.989167 20.64) scale(0.12 -0.12)">
     <defs>
      <path id="ArialMT-46" d="M 525 0 
L 525 4581 
L 3616 4581 
L 3616 4041 
L 1131 4041 
L 1131 2622 
L 3281 2622 
L 3281 2081 
L 1131 2081 
L 1131 0 
L 525 0 
z
" transform="scale(0.015625)"/>
      <path id="ArialMT-54" d="M 1659 0 
L 1659 4041 
L 150 4041 
L 150 4581 
L 3781 4581 
L 3781 4041 
L 2266 4041 
L 2266 0 
L 1659 0 
z
" transform="scale(0.015625)"/>
      <path id="ArialMT-31" d="M 2384 0 
L 1822 0 
L 1822 3584 
Q 1619 3391 1289 3197 
Q 959 3003 697 2906 
L 697 3450 
Q 1169 3672 1522 3987 
Q 1875 4303 2022 4600 
L 2384 4600 
L 2384 0 
z
" transform="scale(0.015625)"/>
     </defs>
     <use xlink:href="#ArialMT-46"/>
     <use xlink:href="#ArialMT-54" x="61.083984"/>
     <use xlink:href="#ArialMT-31" x="122.167969"/>
     <use xlink:href="#ArialMT-30" x="177.783203"/>
    </g>
   </g>
  </g>
  <g id="axes_2">
   <g id="patch_8">
    <path d="M 472.793333 364.42 
L 890.396667 364.42 
L 890.396667 15.64 
L 472.793333 15.64 
z
" style="fill: #ffffff"/>
   </g>
   <g id="matplotlib.axis_3">
    <g id="xtick_4">
     <g id="text_12">
      <!-- Low -->
      <g style="fill: #262626" transform="translate(532.304826 381.793594) scale(0.11 -0.11)">
       <use xlink:href="#ArialMT-4c"/>
       <use xlink:href="#ArialMT-6f" x="55.615234"/>
       <use xlink:href="#ArialMT-77" x="111.230469"/>
      </g>
     </g>
    </g>
    <g id="xtick_5">
     <g id="text_13">
      <!-- Medium -->
      <g style="fill: #262626" transform="translate(662.034766 381.793594) scale(0.11 -0.11)">
       <use xlink:href="#ArialMT-4d"/>
       <use xlink:href="#ArialMT-65" x="83.300781"/>
       <use xlink:href="#ArialMT-64" x="138.916016"/>
       <use xlink:href="#ArialMT-69" x="194.53125"/>
       <use xlink:href="#ArialMT-75" x="216.748047"/>
       <use xlink:href="#ArialMT-6d" x="272.363281"/>
      </g>
     </g>
    </g>
    <g id="xtick_6">
     <g id="text_14">
      <!-- High -->
      <g style="fill: #262626" transform="translate(809.485017 381.793594) scale(0.11 -0.11)">
       <use xlink:href="#ArialMT-48"/>
       <use xlink:href="#ArialMT-69" x="72.216797"/>
       <use xlink:href="#ArialMT-67" x="94.433594"/>
       <use xlink:href="#ArialMT-68" x="150.048828"/>
      </g>
     </g>
    </g>
   </g>
   <g id="matplotlib.axis_4">
    <g id="ytick_8">
     <g id="line2d_26">
      <path d="M 472.793333 339.507143 
L 890.396667 339.507143 
" clip-path="url(#pa2e20b980a)" style="fill: none; stroke: #cccccc; stroke-linecap: round"/>
     </g>
    </g>
    <g id="ytick_9">
     <g id="line2d_27">
      <path d="M 472.793333 289.681429 
L 890.396667 289.681429 
" clip-path="url(#pa2e20b980a)" style="fill: none; stroke: #cccccc; stroke-linecap: round"/>
     </g>
    </g>
    <g id="ytick_10">
     <g id="line2d_28">
      <path d="M 472.793333 239.855714 
L 890.396667 239.855714 
" clip-path="url(#pa2e20b980a)" style="fill: none; stroke: #cccccc; stroke-linecap: round"/>
     </g>
    </g>
    <g id="ytick_11">
     <g id="line2d_29">
      <path d="M 472.793333 190.03 
L 890.396667 190.03 
" clip-path="url(#pa2e20b980a)" style="fill: none; stroke: #cccccc; stroke-linecap: round"/>
     </g>
    </g>
    <g id="ytick_12">
     <g id="line2d_30">
      <path d="M 472.793333 140.204286 
L 890.396667 140.204286 
" clip-path="url(#pa2e20b980a)" style="fill: none; stroke: #cccccc; stroke-linecap: round"/>
     </g>
    </g>
    <g id="ytick_13">
     <g id="line2d_31">
      <path d="M 472.793333 90.378571 
L 890.396667 90.378571 
" clip-path="url(#pa2e20b980a)" style="fill: none; stroke: #cccccc; stroke-linecap: round"/>
     </g>
    </g>
    <g id="ytick_14">
     <g id="line2d_32">
      <path d="M 472.793333 40.552857 
L 890.396667 40.552857 
" clip-path="url(#pa2e20b980a)" style="fill: none; stroke: #cccccc; stroke-linecap: round"/>
     </g>
    </g>
   </g>
   <g id="patch_9">
    <path d="M 486.713444 157.094868 
L 598.074333 157.094868 
L 598.074333 108.536404 
L 486.713444 108.536404 
L 486.713444 157.094868 
z
" clip-path="url(#pa2e20b980a)" style="fill: #5875a4; stroke: #4c4c4c; stroke-linejoin: miter"/>
   </g>
   <g id="line2d_33">
    <path d="M 542.393889 157.094868 
L 542.393889 172.053272 
" clip-path="url(#pa2e20b980a)" style="fill: none; stroke: #4c4c4c"/>
   </g>
   <g id="line2d_34">
    <path d="M 542.393889 108.536404 
L 542.393889 82.670913 
" clip-path="url(#pa2e20b980a)" style="fill: none; stroke: #4c4c4c"/>
   </g>
   <g id="line2d_35">
    <path d="M 514.553667 172.053272 
L 570.234111 172.053272 
" clip-path="url(#pa2e20b980a)" style="fill: none; stroke: #4c4c4c; stroke-linecap: round"/>
   </g>
   <g id="line2d_36">
    <path d="M 514.553667 82.670913 
L 570.234111 82.670913 
" clip-path="url(#pa2e20b980a)" style="fill: none; stroke: #4c4c4c; stroke-linecap: round"/>
   </g>
   <g id="line2d_37"/>
   <g id="patch_10">
    <path d="M 625.914556 170.711278 
L 737.275444 170.711278 
L 737.275444 128.553951 
L 625.914556 128.553951 
L 625.914556 170.711278 
z
" clip-path="url(#pa2e20b980a)" style="fill: #5875a4; stroke: #4c4c4c; stroke-linejoin: miter"/>
   </g>
   <g id="line2d_38">
    <path d="M 681.595 170.711278 
L 681.595 201.338469 
" clip-path="url(#pa2e20b980a)" style="fill: none; stroke: #4c4c4c"/>
   </g>
   <g id="line2d_39">
    <path d="M 681.595 128.553951 
L 681.595 97.633395 
" clip-path="url(#pa2e20b980a)" style="fill: none; stroke: #4c4c4c"/>
   </g>
   <g id="line2d_40">
    <path d="M 653.754778 201.338469 
L 709.435222 201.338469 
" clip-path="url(#pa2e20b980a)" style="fill: none; stroke: #4c4c4c; stroke-linecap: round"/>
   </g>
   <g id="line2d_41">
    <path d="M 653.754778 97.633395 
L 709.435222 97.633395 
" clip-path="url(#pa2e20b980a)" style="fill: none; stroke: #4c4c4c; stroke-linecap: round"/>
   </g>
   <g id="line2d_42"/>
   <g id="patch_11">
    <path d="M 765.115667 172.115456 
L 876.476556 172.115456 
L 876.476556 134.597398 
L 765.115667 134.597398 
L 765.115667 172.115456 
z
" clip-path="url(#pa2e20b980a)" style="fill: #5875a4; stroke: #4c4c4c; stroke-linejoin: miter"/>
   </g>
   <g id="line2d_43">
    <path d="M 820.796111 172.115456 
L 820.796111 201.957054 
" clip-path="url(#pa2e20b980a)" style="fill: none; stroke: #4c4c4c"/>
   </g>
   <g id="line2d_44">
    <path d="M 820.796111 134.597398 
L 820.796111 121.11003 
" clip-path="url(#pa2e20b980a)" style="fill: none; stroke: #4c4c4c"/>
   </g>
   <g id="line2d_45">
    <path d="M 792.955889 201.957054 
L 848.636333 201.957054 
" clip-path="url(#pa2e20b980a)" style="fill: none; stroke: #4c4c4c; stroke-linecap: round"/>
   </g>
   <g id="line2d_46">
    <path d="M 792.955889 121.11003 
L 848.636333 121.11003 
" clip-path="url(#pa2e20b980a)" style="fill: none; stroke: #4c4c4c; stroke-linecap: round"/>
   </g>
   <g id="line2d_47"/>
   <g id="line2d_48">
    <path d="M 486.713444 129.690403 
L 598.074333 129.690403 
" clip-path="url(#pa2e20b980a)" style="fill: none; stroke: #4c4c4c"/>
   </g>
   <g id="line2d_49">
    <path d="M 625.914556 141.470481 
L 737.275444 141.470481 
" clip-path="url(#pa2e20b980a)" style="fill: none; stroke: #4c4c4c"/>
   </g>
   <g id="line2d_50">
    <path d="M 765.115667 143.579654 
L 876.476556 143.579654 
" clip-path="url(#pa2e20b980a)" style="fill: none; stroke: #4c4c4c"/>
   </g>
   <g id="patch_12">
    <path d="M 472.793333 364.42 
L 472.793333 15.64 
" style="fill: none; stroke: #cccccc; stroke-width: 1.25; stroke-linejoin: miter; stroke-linecap: square"/>
   </g>
   <g id="patch_13">
    <path d="M 472.793333 364.42 
L 890.396667 364.42 
" style="fill: none; stroke: #cccccc; stroke-width: 1.25; stroke-linejoin: miter; stroke-linecap: square"/>
   </g>
   <g id="text_15">
    <!-- G2P -->
    <g style="fill: #262626" transform="translate(669.589375 20.64) scale(0.12 -0.12)">
     <defs>
      <path id="ArialMT-47" d="M 2638 1797 
L 2638 2334 
L 4578 2338 
L 4578 638 
Q 4131 281 3656 101 
Q 3181 -78 2681 -78 
Q 2006 -78 1454 211 
Q 903 500 622 1047 
Q 341 1594 341 2269 
Q 341 2938 620 3517 
Q 900 4097 1425 4378 
Q 1950 4659 2634 4659 
Q 3131 4659 3532 4498 
Q 3934 4338 4162 4050 
Q 4391 3763 4509 3300 
L 3963 3150 
Q 3859 3500 3706 3700 
Q 3553 3900 3268 4020 
Q 2984 4141 2638 4141 
Q 2222 4141 1919 4014 
Q 1616 3888 1430 3681 
Q 1244 3475 1141 3228 
Q 966 2803 966 2306 
Q 966 1694 1177 1281 
Q 1388 869 1791 669 
Q 2194 469 2647 469 
Q 3041 469 3416 620 
Q 3791 772 3984 944 
L 3984 1797 
L 2638 1797 
z
" transform="scale(0.015625)"/>
      <path id="ArialMT-50" d="M 494 0 
L 494 4581 
L 2222 4581 
Q 2678 4581 2919 4538 
Q 3256 4481 3484 4323 
Q 3713 4166 3852 3881 
Q 3991 3597 3991 3256 
Q 3991 2672 3619 2267 
Q 3247 1863 2275 1863 
L 1100 1863 
L 1100 0 
L 494 0 
z
M 1100 2403 
L 2284 2403 
Q 2872 2403 3119 2622 
Q 3366 2841 3366 3238 
Q 3366 3525 3220 3729 
Q 3075 3934 2838 4000 
Q 2684 4041 2272 4041 
L 1100 4041 
L 1100 2403 
z
" transform="scale(0.015625)"/>
     </defs>
     <use xlink:href="#ArialMT-47"/>
     <use xlink:href="#ArialMT-32" x="77.783203"/>
     <use xlink:href="#ArialMT-50" x="133.398438"/>
    </g>
   </g>
  </g>
  <g id="axes_3">
   <g id="patch_14">
    <path d="M 902.396667 364.42 
L 1320 364.42 
L 1320 15.64 
L 902.396667 15.64 
z
" style="fill: #ffffff"/>
   </g>
   <g id="matplotlib.axis_5">
    <g id="xtick_7">
     <g id="text_16">
      <!-- Low -->
      <g style="fill: #262626" transform="translate(961.90816 381.793594) scale(0.11 -0.11)">
       <use xlink:href="#ArialMT-4c"/>
       <use xlink:href="#ArialMT-6f" x="55.615234"/>
       <use xlink:href="#ArialMT-77" x="111.230469"/>
      </g>
     </g>
    </g>
    <g id="xtick_8">
     <g id="text_17">
      <!-- Medium -->
      <g style="fill: #262626" transform="translate(1091.638099 381.793594) scale(0.11 -0.11)">
       <use xlink:href="#ArialMT-4d"/>
       <use xlink:href="#ArialMT-65" x="83.300781"/>
       <use xlink:href="#ArialMT-64" x="138.916016"/>
       <use xlink:href="#ArialMT-69" x="194.53125"/>
       <use xlink:href="#ArialMT-75" x="216.748047"/>
       <use xlink:href="#ArialMT-6d" x="272.363281"/>
      </g>
     </g>
    </g>
    <g id="xtick_9">
     <g id="text_18">
      <!-- High -->
      <g style="fill: #262626" transform="translate(1239.088351 381.793594) scale(0.11 -0.11)">
       <use xlink:href="#ArialMT-48"/>
       <use xlink:href="#ArialMT-69" x="72.216797"/>
       <use xlink:href="#ArialMT-67" x="94.433594"/>
       <use xlink:href="#ArialMT-68" x="150.048828"/>
      </g>
     </g>
    </g>
   </g>
   <g id="matplotlib.axis_6">
    <g id="ytick_15">
     <g id="line2d_51">
      <path d="M 902.396667 339.507143 
L 1320 339.507143 
" clip-path="url(#p418118d248)" style="fill: none; stroke: #cccccc; stroke-linecap: round"/>
     </g>
    </g>
    <g id="ytick_16">
     <g id="line2d_52">
      <path d="M 902.396667 289.681429 
L 1320 289.681429 
" clip-path="url(#p418118d248)" style="fill: none; stroke: #cccccc; stroke-linecap: round"/>
     </g>
    </g>
    <g id="ytick_17">
     <g id="line2d_53">
      <path d="M 902.396667 239.855714 
L 1320 239.855714 
" clip-path="url(#p418118d248)" style="fill: none; stroke: #cccccc; stroke-linecap: round"/>
     </g>
    </g>
    <g id="ytick_18">
     <g id="line2d_54">
      <path d="M 902.396667 190.03 
L 1320 190.03 
" clip-path="url(#p418118d248)" style="fill: none; stroke: #cccccc; stroke-linecap: round"/>
     </g>
    </g>
    <g id="ytick_19">
     <g id="line2d_55">
      <path d="M 902.396667 140.204286 
L 1320 140.204286 
" clip-path="url(#p418118d248)" style="fill: none; stroke: #cccccc; stroke-linecap: round"/>
     </g>
    </g>
    <g id="ytick_20">
     <g id="line2d_56">
      <path d="M 902.396667 90.378571 
L 1320 90.378571 
" clip-path="url(#p418118d248)" style="fill: none; stroke: #cccccc; stroke-linecap: round"/>
     </g>
    </g>
    <g id="ytick_21">
     <g id="line2d_57">
      <path d="M 902.396667 40.552857 
L 1320 40.552857 
" clip-path="url(#p418118d248)" style="fill: none; stroke: #cccccc; stroke-linecap: round"/>
     </g>
    </g>
   </g>
   <g id="patch_15">
    <path d="M 916.316778 113.36336 
L 1027.677667 113.36336 
L 1027.677667 54.728952 
L 916.316778 54.728952 
L 916.316778 113.36336 
z
" clip-path="url(#p418118d248)" style="fill: #5875a4; stroke: #4c4c4c; stroke-linejoin: miter"/>
   </g>
   <g id="line2d_58">
    <path d="M 971.997222 113.36336 
L 971.997222 195.190787 
" clip-path="url(#p418118d248)" style="fill: none; stroke: #4c4c4c"/>
   </g>
   <g id="line2d_59">
    <path d="M 971.997222 54.728952 
L 971.997222 24.696632 
" clip-path="url(#p418118d248)" style="fill: none; stroke: #4c4c4c"/>
   </g>
   <g id="line2d_60">
    <path d="M 944.157 195.190787 
L 999.837444 195.190787 
" clip-path="url(#p418118d248)" style="fill: none; stroke: #4c4c4c; stroke-linecap: round"/>
   </g>
   <g id="line2d_61">
    <path d="M 944.157 24.696632 
L 999.837444 24.696632 
" clip-path="url(#p418118d248)" style="fill: none; stroke: #4c4c4c; stroke-linecap: round"/>
   </g>
   <g id="line2d_62"/>
   <g id="patch_16">
    <path d="M 1055.517889 136.782872 
L 1166.878778 136.782872 
L 1166.878778 104.34169 
L 1055.517889 104.34169 
L 1055.517889 136.782872 
z
" clip-path="url(#p418118d248)" style="fill: #5875a4; stroke: #4c4c4c; stroke-linejoin: miter"/>
   </g>
   <g id="line2d_63">
    <path d="M 1111.198333 136.782872 
L 1111.198333 138.611065 
" clip-path="url(#p418118d248)" style="fill: none; stroke: #4c4c4c"/>
   </g>
   <g id="line2d_64">
    <path d="M 1111.198333 104.34169 
L 1111.198333 85.850944 
" clip-path="url(#p418118d248)" style="fill: none; stroke: #4c4c4c"/>
   </g>
   <g id="line2d_65">
    <path d="M 1083.358111 138.611065 
L 1139.038556 138.611065 
" clip-path="url(#p418118d248)" style="fill: none; stroke: #4c4c4c; stroke-linecap: round"/>
   </g>
   <g id="line2d_66">
    <path d="M 1083.358111 85.850944 
L 1139.038556 85.850944 
" clip-path="url(#p418118d248)" style="fill: none; stroke: #4c4c4c; stroke-linecap: round"/>
   </g>
   <g id="line2d_67">
    <g clip-path="url(#p418118d248)">
     <use xlink:href="#m8d2ef02094" x="1111.198333" y="230.442315" style="fill-opacity: 0; stroke: #4c4c4c"/>
     <use xlink:href="#m8d2ef02094" x="1111.198333" y="287.03461" style="fill-opacity: 0; stroke: #4c4c4c"/>
    </g>
   </g>
   <g id="patch_17">
    <path d="M 1194.719 219.589671 
L 1306.079889 219.589671 
L 1306.079889 175.515057 
L 1194.719 175.515057 
L 1194.719 219.589671 
z
" clip-path="url(#p418118d248)" style="fill: #5875a4; stroke: #4c4c4c; stroke-linejoin: miter"/>
   </g>
   <g id="line2d_68">
    <path d="M 1250.399444 219.589671 
L 1250.399444 276.368385 
" clip-path="url(#p418118d248)" style="fill: none; stroke: #4c4c4c"/>
   </g>
   <g id="line2d_69">
    <path d="M 1250.399444 175.515057 
L 1250.399444 165.576965 
" clip-path="url(#p418118d248)" style="fill: none; stroke: #4c4c4c"/>
   </g>
   <g id="line2d_70">
    <path d="M 1222.559222 276.368385 
L 1278.239667 276.368385 
" clip-path="url(#p418118d248)" style="fill: none; stroke: #4c4c4c; stroke-linecap: round"/>
   </g>
   <g id="line2d_71">
    <path d="M 1222.559222 165.576965 
L 1278.239667 165.576965 
" clip-path="url(#p418118d248)" style="fill: none; stroke: #4c4c4c; stroke-linecap: round"/>
   </g>
   <g id="line2d_72">
    <g clip-path="url(#p418118d248)">
     <use xlink:href="#m8d2ef02094" x="1250.399444" y="309.665064" style="fill-opacity: 0; stroke: #4c4c4c"/>
    </g>
   </g>
   <g id="line2d_73">
    <path d="M 916.316778 81.039039 
L 1027.677667 81.039039 
" clip-path="url(#p418118d248)" style="fill: none; stroke: #4c4c4c"/>
   </g>
   <g id="line2d_74">
    <path d="M 1055.517889 124.922612 
L 1166.878778 124.922612 
" clip-path="url(#p418118d248)" style="fill: none; stroke: #4c4c4c"/>
   </g>
   <g id="line2d_75">
    <path d="M 1194.719 190.117601 
L 1306.079889 190.117601 
" clip-path="url(#p418118d248)" style="fill: none; stroke: #4c4c4c"/>
   </g>
   <g id="patch_18">
    <path d="M 902.396667 364.42 
L 902.396667 15.64 
" style="fill: none; stroke: #cccccc; stroke-width: 1.25; stroke-linejoin: miter; stroke-linecap: square"/>
   </g>
   <g id="patch_19">
    <path d="M 902.396667 364.42 
L 1320 364.42 
" style="fill: none; stroke: #cccccc; stroke-width: 1.25; stroke-linejoin: miter; stroke-linecap: square"/>
   </g>
   <g id="text_19">
    <!-- M130T666 -->
    <g style="fill: #262626" transform="translate(1082.516458 20.64) scale(0.12 -0.12)">
     <defs>
      <path id="ArialMT-33" d="M 269 1209 
L 831 1284 
Q 928 806 1161 595 
Q 1394 384 1728 384 
Q 2125 384 2398 659 
Q 2672 934 2672 1341 
Q 2672 1728 2419 1979 
Q 2166 2231 1775 2231 
Q 1616 2231 1378 2169 
L 1441 2663 
Q 1497 2656 1531 2656 
Q 1891 2656 2178 2843 
Q 2466 3031 2466 3422 
Q 2466 3731 2256 3934 
Q 2047 4138 1716 4138 
Q 1388 4138 1169 3931 
Q 950 3725 888 3313 
L 325 3413 
Q 428 3978 793 4289 
Q 1159 4600 1703 4600 
Q 2078 4600 2393 4439 
Q 2709 4278 2876 4000 
Q 3044 3722 3044 3409 
Q 3044 3113 2884 2869 
Q 2725 2625 2413 2481 
Q 2819 2388 3044 2092 
Q 3269 1797 3269 1353 
Q 3269 753 2831 336 
Q 2394 -81 1725 -81 
Q 1122 -81 723 278 
Q 325 638 269 1209 
z
" transform="scale(0.015625)"/>
     </defs>
     <use xlink:href="#ArialMT-4d"/>
     <use xlink:href="#ArialMT-31" x="83.300781"/>
     <use xlink:href="#ArialMT-33" x="138.916016"/>
     <use xlink:href="#ArialMT-30" x="194.53125"/>
     <use xlink:href="#ArialMT-54" x="250.146484"/>
     <use xlink:href="#ArialMT-36" x="311.230469"/>
     <use xlink:href="#ArialMT-36" x="366.845703"/>
     <use xlink:href="#ArialMT-36" x="422.460938"/>
    </g>
   </g>
  </g>
 </g>
 <defs>
  <clipPath id="p773905b569">
   <rect x="43.19" y="15.64" width="417.603333" height="348.78"/>
  </clipPath>
  <clipPath id="pa2e20b980a">
   <rect x="472.793333" y="15.64" width="417.603333" height="348.78"/>
  </clipPath>
  <clipPath id="p418118d248">
   <rect x="902.396667" y="15.64" width="417.603333" height="348.78"/>
  </clipPath>
 </defs>
</svg>
