<?xml version="1.0" encoding="utf-8" standalone="no"?>
<!DOCTYPE svg PUBLIC "-//W3C//DTD SVG 1.1//EN"
  "http://www.w3.org/Graphics/SVG/1.1/DTD/svg11.dtd">
<svg xmlns:xlink="http://www.w3.org/1999/xlink" width="1332pt" height="396pt" viewBox="0 0 1332 396" xmlns="http://www.w3.org/2000/svg" version="1.1">
 <metadata>
  <rdf:RDF xmlns:dc="http://purl.org/dc/elements/1.1/" xmlns:cc="http://creativecommons.org/ns#" xmlns:rdf="http://www.w3.org/1999/02/22-rdf-syntax-ns#">
   <cc:Work>
    <dc:type rdf:resource="http://purl.org/dc/dcmitype/StillImage"/>
    <dc:date>2024-12-16T03:20:12.499683</dc:date>
    <dc:format>image/svg+xml</dc:format>
    <dc:creator>
     <cc:Agent>
      <dc:title>Matplotlib v3.8.4, https://matplotlib.org/</dc:title>
     </cc:Agent>
    </dc:creator>
   </cc:Work>
  </rdf:RDF>
 </metadata>
 <defs>
  <style type="text/css">*{stroke-linejoin: round; stroke-linecap: butt}</style>
 </defs>
 <g id="figure_1">
  <g id="patch_1">
   <path d="M 0 396 
L 1332 396 
L 1332 0 
L 0 0 
z
" style="fill: #ffffff"/>
  </g>
  <g id="axes_1">
   <g id="patch_2">
    <path d="M 41.3 368.92 
L 459.2 368.92 
L 459.2 20.8 
L 41.3 20.8 
z
" style="fill: #ffffff"/>
   </g>
   <g id="matplotlib.axis_1">
    <g id="xtick_1">
     <g id="line2d_1">
      <defs>
       <path id="m53272341ca" d="M 0 0 
L 0 3.5 
" style="stroke: #000000; stroke-width: 0.8"/>
      </defs>
      <g>
       <use xlink:href="#m53272341ca" x="110.95" y="368.92" style="stroke: #000000; stroke-width: 0.8"/>
      </g>
     </g>
     <g id="text_1">
      <!-- Low -->
      <g transform="translate(101.103125 383.518438) scale(0.1 -0.1)">
       <defs>
        <path id="DejaVuSans-4c" d="M 628 4666 
L 1259 4666 
L 1259 531 
L 3531 531 
L 3531 0 
L 628 0 
L 628 4666 
z
" transform="scale(0.015625)"/>
        <path id="DejaVuSans-6f" d="M 1959 3097 
Q 1497 3097 1228 2736 
Q 959 2375 959 1747 
Q 959 1119 1226 758 
Q 1494 397 1959 397 
Q 2419 397 2687 759 
Q 2956 1122 2956 1747 
Q 2956 2369 2687 2733 
Q 2419 3097 1959 3097 
z
M 1959 3584 
Q 2709 3584 3137 3096 
Q 3566 2609 3566 1747 
Q 3566 888 3137 398 
Q 2709 -91 1959 -91 
Q 1206 -91 779 398 
Q 353 888 353 1747 
Q 353 2609 779 3096 
Q 1206 3584 1959 3584 
z
" transform="scale(0.015625)"/>
        <path id="DejaVuSans-77" d="M 269 3500 
L 844 3500 
L 1563 769 
L 2278 3500 
L 2956 3500 
L 3675 769 
L 4391 3500 
L 4966 3500 
L 4050 0 
L 3372 0 
L 2619 2869 
L 1863 0 
L 1184 0 
L 269 3500 
z
" transform="scale(0.015625)"/>
       </defs>
       <use xlink:href="#DejaVuSans-4c"/>
       <use xlink:href="#DejaVuSans-6f" x="53.962891"/>
       <use xlink:href="#DejaVuSans-77" x="115.144531"/>
      </g>
     </g>
    </g>
    <g id="xtick_2">
     <g id="line2d_2">
      <g>
       <use xlink:href="#m53272341ca" x="250.25" y="368.92" style="stroke: #000000; stroke-width: 0.8"/>
      </g>
     </g>
     <g id="text_2">
      <!-- Medium -->
      <g transform="translate(230.257031 383.518438) scale(0.1 -0.1)">
       <defs>
        <path id="DejaVuSans-4d" d="M 628 4666 
L 1569 4666 
L 2759 1491 
L 3956 4666 
L 4897 4666 
L 4897 0 
L 4281 0 
L 4281 4097 
L 3078 897 
L 2444 897 
L 1241 4097 
L 1241 0 
L 628 0 
L 628 4666 
z
" transform="scale(0.015625)"/>
        <path id="DejaVuSans-65" d="M 3597 1894 
L 3597 1613 
L 953 1613 
Q 991 1019 1311 708 
Q 1631 397 2203 397 
Q 2534 397 2845 478 
Q 3156 559 3463 722 
L 3463 178 
Q 3153 47 2828 -22 
Q 2503 -91 2169 -91 
Q 1331 -91 842 396 
Q 353 884 353 1716 
Q 353 2575 817 3079 
Q 1281 3584 2069 3584 
Q 2775 3584 3186 3129 
Q 3597 2675 3597 1894 
z
M 3022 2063 
Q 3016 2534 2758 2815 
Q 2500 3097 2075 3097 
Q 1594 3097 1305 2825 
Q 1016 2553 972 2059 
L 3022 2063 
z
" transform="scale(0.015625)"/>
        <path id="DejaVuSans-64" d="M 2906 2969 
L 2906 4863 
L 3481 4863 
L 3481 0 
L 2906 0 
L 2906 525 
Q 2725 213 2448 61 
Q 2172 -91 1784 -91 
Q 1150 -91 751 415 
Q 353 922 353 1747 
Q 353 2572 751 3078 
Q 1150 3584 1784 3584 
Q 2172 3584 2448 3432 
Q 2725 3281 2906 2969 
z
M 947 1747 
Q 947 1113 1208 752 
Q 1469 391 1925 391 
Q 2381 391 2643 752 
Q 2906 1113 2906 1747 
Q 2906 2381 2643 2742 
Q 2381 3103 1925 3103 
Q 1469 3103 1208 2742 
Q 947 2381 947 1747 
z
" transform="scale(0.015625)"/>
        <path id="DejaVuSans-69" d="M 603 3500 
L 1178 3500 
L 1178 0 
L 603 0 
L 603 3500 
z
M 603 4863 
L 1178 4863 
L 1178 4134 
L 603 4134 
L 603 4863 
z
" transform="scale(0.015625)"/>
        <path id="DejaVuSans-75" d="M 544 1381 
L 544 3500 
L 1119 3500 
L 1119 1403 
Q 1119 906 1312 657 
Q 1506 409 1894 409 
Q 2359 409 2629 706 
Q 2900 1003 2900 1516 
L 2900 3500 
L 3475 3500 
L 3475 0 
L 2900 0 
L 2900 538 
Q 2691 219 2414 64 
Q 2138 -91 1772 -91 
Q 1169 -91 856 284 
Q 544 659 544 1381 
z
M 1991 3584 
L 1991 3584 
z
" transform="scale(0.015625)"/>
        <path id="DejaVuSans-6d" d="M 3328 2828 
Q 3544 3216 3844 3400 
Q 4144 3584 4550 3584 
Q 5097 3584 5394 3201 
Q 5691 2819 5691 2113 
L 5691 0 
L 5113 0 
L 5113 2094 
Q 5113 2597 4934 2840 
Q 4756 3084 4391 3084 
Q 3944 3084 3684 2787 
Q 3425 2491 3425 1978 
L 3425 0 
L 2847 0 
L 2847 2094 
Q 2847 2600 2669 2842 
Q 2491 3084 2119 3084 
Q 1678 3084 1418 2786 
Q 1159 2488 1159 1978 
L 1159 0 
L 581 0 
L 581 3500 
L 1159 3500 
L 1159 2956 
Q 1356 3278 1631 3431 
Q 1906 3584 2284 3584 
Q 2666 3584 2933 3390 
Q 3200 3197 3328 2828 
z
" transform="scale(0.015625)"/>
       </defs>
       <use xlink:href="#DejaVuSans-4d"/>
       <use xlink:href="#DejaVuSans-65" x="86.279297"/>
       <use xlink:href="#DejaVuSans-64" x="147.802734"/>
       <use xlink:href="#DejaVuSans-69" x="211.279297"/>
       <use xlink:href="#DejaVuSans-75" x="239.0625"/>
       <use xlink:href="#DejaVuSans-6d" x="302.441406"/>
      </g>
     </g>
    </g>
    <g id="xtick_3">
     <g id="line2d_3">
      <g>
       <use xlink:href="#m53272341ca" x="389.55" y="368.92" style="stroke: #000000; stroke-width: 0.8"/>
      </g>
     </g>
     <g id="text_3">
      <!-- High -->
      <g transform="translate(378.057813 383.518438) scale(0.1 -0.1)">
       <defs>
        <path id="DejaVuSans-48" d="M 628 4666 
L 1259 4666 
L 1259 2753 
L 3553 2753 
L 3553 4666 
L 4184 4666 
L 4184 0 
L 3553 0 
L 3553 2222 
L 1259 2222 
L 1259 0 
L 628 0 
L 628 4666 
z
" transform="scale(0.015625)"/>
        <path id="DejaVuSans-67" d="M 2906 1791 
Q 2906 2416 2648 2759 
Q 2391 3103 1925 3103 
Q 1463 3103 1205 2759 
Q 947 2416 947 1791 
Q 947 1169 1205 825 
Q 1463 481 1925 481 
Q 2391 481 2648 825 
Q 2906 1169 2906 1791 
z
M 3481 434 
Q 3481 -459 3084 -895 
Q 2688 -1331 1869 -1331 
Q 1566 -1331 1297 -1286 
Q 1028 -1241 775 -1147 
L 775 -588 
Q 1028 -725 1275 -790 
Q 1522 -856 1778 -856 
Q 2344 -856 2625 -561 
Q 2906 -266 2906 331 
L 2906 616 
Q 2728 306 2450 153 
Q 2172 0 1784 0 
Q 1141 0 747 490 
Q 353 981 353 1791 
Q 353 2603 747 3093 
Q 1141 3584 1784 3584 
Q 2172 3584 2450 3431 
Q 2728 3278 2906 2969 
L 2906 3500 
L 3481 3500 
L 3481 434 
z
" transform="scale(0.015625)"/>
        <path id="DejaVuSans-68" d="M 3513 2113 
L 3513 0 
L 2938 0 
L 2938 2094 
Q 2938 2591 2744 2837 
Q 2550 3084 2163 3084 
Q 1697 3084 1428 2787 
Q 1159 2491 1159 1978 
L 1159 0 
L 581 0 
L 581 4863 
L 1159 4863 
L 1159 2956 
Q 1366 3272 1645 3428 
Q 1925 3584 2291 3584 
Q 2894 3584 3203 3211 
Q 3513 2838 3513 2113 
z
" transform="scale(0.015625)"/>
       </defs>
       <use xlink:href="#DejaVuSans-48"/>
       <use xlink:href="#DejaVuSans-69" x="75.195312"/>
       <use xlink:href="#DejaVuSans-67" x="102.978516"/>
       <use xlink:href="#DejaVuSans-68" x="166.455078"/>
      </g>
     </g>
    </g>
   </g>
   <g id="matplotlib.axis_2">
    <g id="ytick_1">
     <g id="line2d_4">
      <defs>
       <path id="mbdc19c65a7" d="M 0 0 
L -3.5 0 
" style="stroke: #000000; stroke-width: 0.8"/>
      </defs>
      <g>
       <use xlink:href="#mbdc19c65a7" x="41.3" y="344.054286" style="stroke: #000000; stroke-width: 0.8"/>
      </g>
     </g>
     <g id="text_4">
      <!-- −0.4 -->
      <g transform="translate(10.017188 347.853504) scale(0.1 -0.1)">
       <defs>
        <path id="DejaVuSans-2212" d="M 678 2272 
L 4684 2272 
L 4684 1741 
L 678 1741 
L 678 2272 
z
" transform="scale(0.015625)"/>
        <path id="DejaVuSans-30" d="M 2034 4250 
Q 1547 4250 1301 3770 
Q 1056 3291 1056 2328 
Q 1056 1369 1301 889 
Q 1547 409 2034 409 
Q 2525 409 2770 889 
Q 3016 1369 3016 2328 
Q 3016 3291 2770 3770 
Q 2525 4250 2034 4250 
z
M 2034 4750 
Q 2819 4750 3233 4129 
Q 3647 3509 3647 2328 
Q 3647 1150 3233 529 
Q 2819 -91 2034 -91 
Q 1250 -91 836 529 
Q 422 1150 422 2328 
Q 422 3509 836 4129 
Q 1250 4750 2034 4750 
z
" transform="scale(0.015625)"/>
        <path id="DejaVuSans-2e" d="M 684 794 
L 1344 794 
L 1344 0 
L 684 0 
L 684 794 
z
" transform="scale(0.015625)"/>
        <path id="DejaVuSans-34" d="M 2419 4116 
L 825 1625 
L 2419 1625 
L 2419 4116 
z
M 2253 4666 
L 3047 4666 
L 3047 1625 
L 3713 1625 
L 3713 1100 
L 3047 1100 
L 3047 0 
L 2419 0 
L 2419 1100 
L 313 1100 
L 313 1709 
L 2253 4666 
z
" transform="scale(0.015625)"/>
       </defs>
       <use xlink:href="#DejaVuSans-2212"/>
       <use xlink:href="#DejaVuSans-30" x="83.789062"/>
       <use xlink:href="#DejaVuSans-2e" x="147.412109"/>
       <use xlink:href="#DejaVuSans-34" x="179.199219"/>
      </g>
     </g>
    </g>
    <g id="ytick_2">
     <g id="line2d_5">
      <g>
       <use xlink:href="#mbdc19c65a7" x="41.3" y="294.322857" style="stroke: #000000; stroke-width: 0.8"/>
      </g>
     </g>
     <g id="text_5">
      <!-- −0.2 -->
      <g transform="translate(10.017188 298.122076) scale(0.1 -0.1)">
       <defs>
        <path id="DejaVuSans-32" d="M 1228 531 
L 3431 531 
L 3431 0 
L 469 0 
L 469 531 
Q 828 903 1448 1529 
Q 2069 2156 2228 2338 
Q 2531 2678 2651 2914 
Q 2772 3150 2772 3378 
Q 2772 3750 2511 3984 
Q 2250 4219 1831 4219 
Q 1534 4219 1204 4116 
Q 875 4013 500 3803 
L 500 4441 
Q 881 4594 1212 4672 
Q 1544 4750 1819 4750 
Q 2544 4750 2975 4387 
Q 3406 4025 3406 3419 
Q 3406 3131 3298 2873 
Q 3191 2616 2906 2266 
Q 2828 2175 2409 1742 
Q 1991 1309 1228 531 
z
" transform="scale(0.015625)"/>
       </defs>
       <use xlink:href="#DejaVuSans-2212"/>
       <use xlink:href="#DejaVuSans-30" x="83.789062"/>
       <use xlink:href="#DejaVuSans-2e" x="147.412109"/>
       <use xlink:href="#DejaVuSans-32" x="179.199219"/>
      </g>
     </g>
    </g>
    <g id="ytick_3">
     <g id="line2d_6">
      <g>
       <use xlink:href="#mbdc19c65a7" x="41.3" y="244.591429" style="stroke: #000000; stroke-width: 0.8"/>
      </g>
     </g>
     <g id="text_6">
      <!-- 0.0 -->
      <g transform="translate(18.396875 248.390647) scale(0.1 -0.1)">
       <use xlink:href="#DejaVuSans-30"/>
       <use xlink:href="#DejaVuSans-2e" x="63.623047"/>
       <use xlink:href="#DejaVuSans-30" x="95.410156"/>
      </g>
     </g>
    </g>
    <g id="ytick_4">
     <g id="line2d_7">
      <g>
       <use xlink:href="#mbdc19c65a7" x="41.3" y="194.86" style="stroke: #000000; stroke-width: 0.8"/>
      </g>
     </g>
     <g id="text_7">
      <!-- 0.2 -->
      <g transform="translate(18.396875 198.659219) scale(0.1 -0.1)">
       <use xlink:href="#DejaVuSans-30"/>
       <use xlink:href="#DejaVuSans-2e" x="63.623047"/>
       <use xlink:href="#DejaVuSans-32" x="95.410156"/>
      </g>
     </g>
    </g>
    <g id="ytick_5">
     <g id="line2d_8">
      <g>
       <use xlink:href="#mbdc19c65a7" x="41.3" y="145.128571" style="stroke: #000000; stroke-width: 0.8"/>
      </g>
     </g>
     <g id="text_8">
      <!-- 0.4 -->
      <g transform="translate(18.396875 148.92779) scale(0.1 -0.1)">
       <use xlink:href="#DejaVuSans-30"/>
       <use xlink:href="#DejaVuSans-2e" x="63.623047"/>
       <use xlink:href="#DejaVuSans-34" x="95.410156"/>
      </g>
     </g>
    </g>
    <g id="ytick_6">
     <g id="line2d_9">
      <g>
       <use xlink:href="#mbdc19c65a7" x="41.3" y="95.397143" style="stroke: #000000; stroke-width: 0.8"/>
      </g>
     </g>
     <g id="text_9">
      <!-- 0.6 -->
      <g transform="translate(18.396875 99.196362) scale(0.1 -0.1)">
       <defs>
        <path id="DejaVuSans-36" d="M 2113 2584 
Q 1688 2584 1439 2293 
Q 1191 2003 1191 1497 
Q 1191 994 1439 701 
Q 1688 409 2113 409 
Q 2538 409 2786 701 
Q 3034 994 3034 1497 
Q 3034 2003 2786 2293 
Q 2538 2584 2113 2584 
z
M 3366 4563 
L 3366 3988 
Q 3128 4100 2886 4159 
Q 2644 4219 2406 4219 
Q 1781 4219 1451 3797 
Q 1122 3375 1075 2522 
Q 1259 2794 1537 2939 
Q 1816 3084 2150 3084 
Q 2853 3084 3261 2657 
Q 3669 2231 3669 1497 
Q 3669 778 3244 343 
Q 2819 -91 2113 -91 
Q 1303 -91 875 529 
Q 447 1150 447 2328 
Q 447 3434 972 4092 
Q 1497 4750 2381 4750 
Q 2619 4750 2861 4703 
Q 3103 4656 3366 4563 
z
" transform="scale(0.015625)"/>
       </defs>
       <use xlink:href="#DejaVuSans-30"/>
       <use xlink:href="#DejaVuSans-2e" x="63.623047"/>
       <use xlink:href="#DejaVuSans-36" x="95.410156"/>
      </g>
     </g>
    </g>
    <g id="ytick_7">
     <g id="line2d_10">
      <g>
       <use xlink:href="#mbdc19c65a7" x="41.3" y="45.665714" style="stroke: #000000; stroke-width: 0.8"/>
      </g>
     </g>
     <g id="text_10">
      <!-- 0.8 -->
      <g transform="translate(18.396875 49.464933) scale(0.1 -0.1)">
       <defs>
        <path id="DejaVuSans-38" d="M 2034 2216 
Q 1584 2216 1326 1975 
Q 1069 1734 1069 1313 
Q 1069 891 1326 650 
Q 1584 409 2034 409 
Q 2484 409 2743 651 
Q 3003 894 3003 1313 
Q 3003 1734 2745 1975 
Q 2488 2216 2034 2216 
z
M 1403 2484 
Q 997 2584 770 2862 
Q 544 3141 544 3541 
Q 544 4100 942 4425 
Q 1341 4750 2034 4750 
Q 2731 4750 3128 4425 
Q 3525 4100 3525 3541 
Q 3525 3141 3298 2862 
Q 3072 2584 2669 2484 
Q 3125 2378 3379 2068 
Q 3634 1759 3634 1313 
Q 3634 634 3220 271 
Q 2806 -91 2034 -91 
Q 1263 -91 848 271 
Q 434 634 434 1313 
Q 434 1759 690 2068 
Q 947 2378 1403 2484 
z
M 1172 3481 
Q 1172 3119 1398 2916 
Q 1625 2713 2034 2713 
Q 2441 2713 2670 2916 
Q 2900 3119 2900 3481 
Q 2900 3844 2670 4047 
Q 2441 4250 2034 4250 
Q 1625 4250 1398 4047 
Q 1172 3844 1172 3481 
z
" transform="scale(0.015625)"/>
       </defs>
       <use xlink:href="#DejaVuSans-30"/>
       <use xlink:href="#DejaVuSans-2e" x="63.623047"/>
       <use xlink:href="#DejaVuSans-38" x="95.410156"/>
      </g>
     </g>
    </g>
   </g>
   <g id="patch_3">
    <path d="M 55.23 81.228449 
L 166.67 81.228449 
L 166.67 72.5601 
L 55.23 72.5601 
L 55.23 81.228449 
z
" clip-path="url(#pedecb82867)" style="fill: #3274a1; stroke: #3f3f3f; stroke-linejoin: miter"/>
   </g>
   <g id="line2d_11">
    <path d="M 110.95 81.228449 
L 110.95 87.394117 
" clip-path="url(#pedecb82867)" style="fill: none; stroke: #3f3f3f"/>
   </g>
   <g id="line2d_12">
    <path d="M 110.95 72.5601 
L 110.95 59.779158 
" clip-path="url(#pedecb82867)" style="fill: none; stroke: #3f3f3f"/>
   </g>
   <g id="line2d_13">
    <path d="M 83.09 87.394117 
L 138.81 87.394117 
" clip-path="url(#pedecb82867)" style="fill: none; stroke: #3f3f3f; stroke-linecap: square"/>
   </g>
   <g id="line2d_14">
    <path d="M 83.09 59.779158 
L 138.81 59.779158 
" clip-path="url(#pedecb82867)" style="fill: none; stroke: #3f3f3f; stroke-linecap: square"/>
   </g>
   <g id="line2d_15">
    <defs>
     <path id="m11a0bbd2a6" d="M 0 3 
C 0.795609 3 1.55874 2.683901 2.12132 2.12132 
C 2.683901 1.55874 3 0.795609 3 0 
C 3 -0.795609 2.683901 -1.55874 2.12132 -2.12132 
C 1.55874 -2.683901 0.795609 -3 0 -3 
C -0.795609 -3 -1.55874 -2.683901 -2.12132 -2.12132 
C -2.683901 -1.55874 -3 -0.795609 -3 0 
C -3 0.795609 -2.683901 1.55874 -2.12132 2.12132 
C -1.55874 2.683901 -0.795609 3 0 3 
z
" style="stroke: #3f3f3f"/>
    </defs>
    <g clip-path="url(#pedecb82867)">
     <use xlink:href="#m11a0bbd2a6" x="110.95" y="96.307325" style="fill-opacity: 0; stroke: #3f3f3f"/>
    </g>
   </g>
   <g id="patch_4">
    <path d="M 194.53 81.986881 
L 305.97 81.986881 
L 305.97 73.033417 
L 194.53 73.033417 
L 194.53 81.986881 
z
" clip-path="url(#pedecb82867)" style="fill: #3274a1; stroke: #3f3f3f; stroke-linejoin: miter"/>
   </g>
   <g id="line2d_16">
    <path d="M 250.25 81.986881 
L 250.25 89.577644 
" clip-path="url(#pedecb82867)" style="fill: none; stroke: #3f3f3f"/>
   </g>
   <g id="line2d_17">
    <path d="M 250.25 73.033417 
L 250.25 61.119811 
" clip-path="url(#pedecb82867)" style="fill: none; stroke: #3f3f3f"/>
   </g>
   <g id="line2d_18">
    <path d="M 222.39 89.577644 
L 278.11 89.577644 
" clip-path="url(#pedecb82867)" style="fill: none; stroke: #3f3f3f; stroke-linecap: square"/>
   </g>
   <g id="line2d_19">
    <path d="M 222.39 61.119811 
L 278.11 61.119811 
" clip-path="url(#pedecb82867)" style="fill: none; stroke: #3f3f3f; stroke-linecap: square"/>
   </g>
   <g id="line2d_20">
    <g clip-path="url(#pedecb82867)">
     <use xlink:href="#m11a0bbd2a6" x="250.25" y="98.298403" style="fill-opacity: 0; stroke: #3f3f3f"/>
    </g>
   </g>
   <g id="patch_5">
    <path d="M 333.83 85.056951 
L 445.27 85.056951 
L 445.27 75.560676 
L 333.83 75.560676 
L 333.83 85.056951 
z
" clip-path="url(#pedecb82867)" style="fill: #3274a1; stroke: #3f3f3f; stroke-linejoin: miter"/>
   </g>
   <g id="line2d_21">
    <path d="M 389.55 85.056951 
L 389.55 91.618117 
" clip-path="url(#pedecb82867)" style="fill: none; stroke: #3f3f3f"/>
   </g>
   <g id="line2d_22">
    <path d="M 389.55 75.560676 
L 389.55 64.742048 
" clip-path="url(#pedecb82867)" style="fill: none; stroke: #3f3f3f"/>
   </g>
   <g id="line2d_23">
    <path d="M 361.69 91.618117 
L 417.41 91.618117 
" clip-path="url(#pedecb82867)" style="fill: none; stroke: #3f3f3f; stroke-linecap: square"/>
   </g>
   <g id="line2d_24">
    <path d="M 361.69 64.742048 
L 417.41 64.742048 
" clip-path="url(#pedecb82867)" style="fill: none; stroke: #3f3f3f; stroke-linecap: square"/>
   </g>
   <g id="line2d_25">
    <g clip-path="url(#pedecb82867)">
     <use xlink:href="#m11a0bbd2a6" x="389.55" y="104.65793" style="fill-opacity: 0; stroke: #3f3f3f"/>
    </g>
   </g>
   <g id="line2d_26">
    <path d="M 55.23 77.042535 
L 166.67 77.042535 
" clip-path="url(#pedecb82867)" style="fill: none; stroke: #3f3f3f"/>
   </g>
   <g id="line2d_27">
    <path d="M 194.53 77.666741 
L 305.97 77.666741 
" clip-path="url(#pedecb82867)" style="fill: none; stroke: #3f3f3f"/>
   </g>
   <g id="line2d_28">
    <path d="M 333.83 78.802085 
L 445.27 78.802085 
" clip-path="url(#pedecb82867)" style="fill: none; stroke: #3f3f3f"/>
   </g>
   <g id="patch_6">
    <path d="M 41.3 368.92 
L 41.3 20.8 
" style="fill: none; stroke: #000000; stroke-width: 0.8; stroke-linejoin: miter; stroke-linecap: square"/>
   </g>
   <g id="patch_7">
    <path d="M 41.3 368.92 
L 459.2 368.92 
" style="fill: none; stroke: #000000; stroke-width: 0.8; stroke-linejoin: miter; stroke-linecap: square"/>
   </g>
   <g id="text_11">
    <!-- FT10 -->
    <g transform="translate(235.604375 18.304375) scale(0.12 -0.12)">
     <defs>
      <path id="DejaVuSans-46" d="M 628 4666 
L 3309 4666 
L 3309 4134 
L 1259 4134 
L 1259 2759 
L 3109 2759 
L 3109 2228 
L 1259 2228 
L 1259 0 
L 628 0 
L 628 4666 
z
" transform="scale(0.015625)"/>
      <path id="DejaVuSans-54" d="M -19 4666 
L 3928 4666 
L 3928 4134 
L 2272 4134 
L 2272 0 
L 1638 0 
L 1638 4134 
L -19 4134 
L -19 4666 
z
" transform="scale(0.015625)"/>
      <path id="DejaVuSans-31" d="M 794 531 
L 1825 531 
L 1825 4091 
L 703 3866 
L 703 4441 
L 1819 4666 
L 2450 4666 
L 2450 531 
L 3481 531 
L 3481 0 
L 794 0 
L 794 531 
z
" transform="scale(0.015625)"/>
     </defs>
     <use xlink:href="#DejaVuSans-46"/>
     <use xlink:href="#DejaVuSans-54" x="55.769531"/>
     <use xlink:href="#DejaVuSans-31" x="116.853516"/>
     <use xlink:href="#DejaVuSans-30" x="180.476562"/>
    </g>
   </g>
  </g>
  <g id="axes_2">
   <g id="patch_8">
    <path d="M 472.7 368.92 
L 890.6 368.92 
L 890.6 20.8 
L 472.7 20.8 
z
" style="fill: #ffffff"/>
   </g>
   <g id="matplotlib.axis_3">
    <g id="xtick_4">
     <g id="line2d_29">
      <g>
       <use xlink:href="#m53272341ca" x="542.35" y="368.92" style="stroke: #000000; stroke-width: 0.8"/>
      </g>
     </g>
     <g id="text_12">
      <!-- Low -->
      <g transform="translate(532.503125 383.518438) scale(0.1 -0.1)">
       <use xlink:href="#DejaVuSans-4c"/>
       <use xlink:href="#DejaVuSans-6f" x="53.962891"/>
       <use xlink:href="#DejaVuSans-77" x="115.144531"/>
      </g>
     </g>
    </g>
    <g id="xtick_5">
     <g id="line2d_30">
      <g>
       <use xlink:href="#m53272341ca" x="681.65" y="368.92" style="stroke: #000000; stroke-width: 0.8"/>
      </g>
     </g>
     <g id="text_13">
      <!-- Medium -->
      <g transform="translate(661.657031 383.518438) scale(0.1 -0.1)">
       <use xlink:href="#DejaVuSans-4d"/>
       <use xlink:href="#DejaVuSans-65" x="86.279297"/>
       <use xlink:href="#DejaVuSans-64" x="147.802734"/>
       <use xlink:href="#DejaVuSans-69" x="211.279297"/>
       <use xlink:href="#DejaVuSans-75" x="239.0625"/>
       <use xlink:href="#DejaVuSans-6d" x="302.441406"/>
      </g>
     </g>
    </g>
    <g id="xtick_6">
     <g id="line2d_31">
      <g>
       <use xlink:href="#m53272341ca" x="820.95" y="368.92" style="stroke: #000000; stroke-width: 0.8"/>
      </g>
     </g>
     <g id="text_14">
      <!-- High -->
      <g transform="translate(809.457812 383.518438) scale(0.1 -0.1)">
       <use xlink:href="#DejaVuSans-48"/>
       <use xlink:href="#DejaVuSans-69" x="75.195312"/>
       <use xlink:href="#DejaVuSans-67" x="102.978516"/>
       <use xlink:href="#DejaVuSans-68" x="166.455078"/>
      </g>
     </g>
    </g>
   </g>
   <g id="matplotlib.axis_4">
    <g id="ytick_8">
     <g id="line2d_32">
      <g>
       <use xlink:href="#mbdc19c65a7" x="472.7" y="344.054286" style="stroke: #000000; stroke-width: 0.8"/>
      </g>
     </g>
    </g>
    <g id="ytick_9">
     <g id="line2d_33">
      <g>
       <use xlink:href="#mbdc19c65a7" x="472.7" y="294.322857" style="stroke: #000000; stroke-width: 0.8"/>
      </g>
     </g>
    </g>
    <g id="ytick_10">
     <g id="line2d_34">
      <g>
       <use xlink:href="#mbdc19c65a7" x="472.7" y="244.591429" style="stroke: #000000; stroke-width: 0.8"/>
      </g>
     </g>
    </g>
    <g id="ytick_11">
     <g id="line2d_35">
      <g>
       <use xlink:href="#mbdc19c65a7" x="472.7" y="194.86" style="stroke: #000000; stroke-width: 0.8"/>
      </g>
     </g>
    </g>
    <g id="ytick_12">
     <g id="line2d_36">
      <g>
       <use xlink:href="#mbdc19c65a7" x="472.7" y="145.128571" style="stroke: #000000; stroke-width: 0.8"/>
      </g>
     </g>
    </g>
    <g id="ytick_13">
     <g id="line2d_37">
      <g>
       <use xlink:href="#mbdc19c65a7" x="472.7" y="95.397143" style="stroke: #000000; stroke-width: 0.8"/>
      </g>
     </g>
    </g>
    <g id="ytick_14">
     <g id="line2d_38">
      <g>
       <use xlink:href="#mbdc19c65a7" x="472.7" y="45.665714" style="stroke: #000000; stroke-width: 0.8"/>
      </g>
     </g>
    </g>
   </g>
   <g id="patch_9">
    <path d="M 486.63 161.987191 
L 598.07 161.987191 
L 598.07 113.520615 
L 486.63 113.520615 
L 486.63 161.987191 
z
" clip-path="url(#p2ecd6234e3)" style="fill: #3274a1; stroke: #3f3f3f; stroke-linejoin: miter"/>
   </g>
   <g id="line2d_39">
    <path d="M 542.35 161.987191 
L 542.35 176.91729 
" clip-path="url(#p2ecd6234e3)" style="fill: none; stroke: #3f3f3f"/>
   </g>
   <g id="line2d_40">
    <path d="M 542.35 113.520615 
L 542.35 87.70407 
" clip-path="url(#p2ecd6234e3)" style="fill: none; stroke: #3f3f3f"/>
   </g>
   <g id="line2d_41">
    <path d="M 514.49 176.91729 
L 570.21 176.91729 
" clip-path="url(#p2ecd6234e3)" style="fill: none; stroke: #3f3f3f; stroke-linecap: square"/>
   </g>
   <g id="line2d_42">
    <path d="M 514.49 87.70407 
L 570.21 87.70407 
" clip-path="url(#p2ecd6234e3)" style="fill: none; stroke: #3f3f3f; stroke-linecap: square"/>
   </g>
   <g id="line2d_43"/>
   <g id="patch_10">
    <path d="M 625.93 175.577835 
L 737.37 175.577835 
L 737.37 133.500282 
L 625.93 133.500282 
L 625.93 175.577835 
z
" clip-path="url(#p2ecd6234e3)" style="fill: #3274a1; stroke: #3f3f3f; stroke-linejoin: miter"/>
   </g>
   <g id="line2d_44">
    <path d="M 681.65 175.577835 
L 681.65 206.14707 
" clip-path="url(#p2ecd6234e3)" style="fill: none; stroke: #3f3f3f"/>
   </g>
   <g id="line2d_45">
    <path d="M 681.65 133.500282 
L 681.65 102.638238 
" clip-path="url(#p2ecd6234e3)" style="fill: none; stroke: #3f3f3f"/>
   </g>
   <g id="line2d_46">
    <path d="M 653.79 206.14707 
L 709.51 206.14707 
" clip-path="url(#p2ecd6234e3)" style="fill: none; stroke: #3f3f3f; stroke-linecap: square"/>
   </g>
   <g id="line2d_47">
    <path d="M 653.79 102.638238 
L 709.51 102.638238 
" clip-path="url(#p2ecd6234e3)" style="fill: none; stroke: #3f3f3f; stroke-linecap: square"/>
   </g>
   <g id="line2d_48"/>
   <g id="patch_11">
    <path d="M 765.23 176.979356 
L 876.67 176.979356 
L 876.67 139.532294 
L 765.23 139.532294 
L 765.23 176.979356 
z
" clip-path="url(#p2ecd6234e3)" style="fill: #3274a1; stroke: #3f3f3f; stroke-linejoin: miter"/>
   </g>
   <g id="line2d_49">
    <path d="M 820.95 176.979356 
L 820.95 206.764484 
" clip-path="url(#p2ecd6234e3)" style="fill: none; stroke: #3f3f3f"/>
   </g>
   <g id="line2d_50">
    <path d="M 820.95 139.532294 
L 820.95 126.070448 
" clip-path="url(#p2ecd6234e3)" style="fill: none; stroke: #3f3f3f"/>
   </g>
   <g id="line2d_51">
    <path d="M 793.09 206.764484 
L 848.81 206.764484 
" clip-path="url(#p2ecd6234e3)" style="fill: none; stroke: #3f3f3f; stroke-linecap: square"/>
   </g>
   <g id="line2d_52">
    <path d="M 793.09 126.070448 
L 848.81 126.070448 
" clip-path="url(#p2ecd6234e3)" style="fill: none; stroke: #3f3f3f; stroke-linecap: square"/>
   </g>
   <g id="line2d_53"/>
   <g id="line2d_54">
    <path d="M 486.63 134.634584 
L 598.07 134.634584 
" clip-path="url(#p2ecd6234e3)" style="fill: none; stroke: #3f3f3f"/>
   </g>
   <g id="line2d_55">
    <path d="M 625.93 146.392371 
L 737.37 146.392371 
" clip-path="url(#p2ecd6234e3)" style="fill: none; stroke: #3f3f3f"/>
   </g>
   <g id="line2d_56">
    <path d="M 765.23 148.497553 
L 876.67 148.497553 
" clip-path="url(#p2ecd6234e3)" style="fill: none; stroke: #3f3f3f"/>
   </g>
   <g id="patch_12">
    <path d="M 472.7 368.92 
L 472.7 20.8 
" style="fill: none; stroke: #000000; stroke-width: 0.8; stroke-linejoin: miter; stroke-linecap: square"/>
   </g>
   <g id="patch_13">
    <path d="M 472.7 368.92 
L 890.6 368.92 
" style="fill: none; stroke: #000000; stroke-width: 0.8; stroke-linejoin: miter; stroke-linecap: square"/>
   </g>
   <g id="text_15">
    <!-- G2P -->
    <g transform="translate(669.565625 18.304375) scale(0.12 -0.12)">
     <defs>
      <path id="DejaVuSans-47" d="M 3809 666 
L 3809 1919 
L 2778 1919 
L 2778 2438 
L 4434 2438 
L 4434 434 
Q 4069 175 3628 42 
Q 3188 -91 2688 -91 
Q 1594 -91 976 548 
Q 359 1188 359 2328 
Q 359 3472 976 4111 
Q 1594 4750 2688 4750 
Q 3144 4750 3555 4637 
Q 3966 4525 4313 4306 
L 4313 3634 
Q 3963 3931 3569 4081 
Q 3175 4231 2741 4231 
Q 1884 4231 1454 3753 
Q 1025 3275 1025 2328 
Q 1025 1384 1454 906 
Q 1884 428 2741 428 
Q 3075 428 3337 486 
Q 3600 544 3809 666 
z
" transform="scale(0.015625)"/>
      <path id="DejaVuSans-50" d="M 1259 4147 
L 1259 2394 
L 2053 2394 
Q 2494 2394 2734 2622 
Q 2975 2850 2975 3272 
Q 2975 3691 2734 3919 
Q 2494 4147 2053 4147 
L 1259 4147 
z
M 628 4666 
L 2053 4666 
Q 2838 4666 3239 4311 
Q 3641 3956 3641 3272 
Q 3641 2581 3239 2228 
Q 2838 1875 2053 1875 
L 1259 1875 
L 1259 0 
L 628 0 
L 628 4666 
z
" transform="scale(0.015625)"/>
     </defs>
     <use xlink:href="#DejaVuSans-47"/>
     <use xlink:href="#DejaVuSans-32" x="77.490234"/>
     <use xlink:href="#DejaVuSans-50" x="141.113281"/>
    </g>
   </g>
  </g>
  <g id="axes_3">
   <g id="patch_14">
    <path d="M 904.1 368.92 
L 1322 368.92 
L 1322 20.8 
L 904.1 20.8 
z
" style="fill: #ffffff"/>
   </g>
   <g id="matplotlib.axis_5">
    <g id="xtick_7">
     <g id="line2d_57">
      <g>
       <use xlink:href="#m53272341ca" x="973.75" y="368.92" style="stroke: #000000; stroke-width: 0.8"/>
      </g>
     </g>
     <g id="text_16">
      <!-- Low -->
      <g transform="translate(963.903125 383.518438) scale(0.1 -0.1)">
       <use xlink:href="#DejaVuSans-4c"/>
       <use xlink:href="#DejaVuSans-6f" x="53.962891"/>
       <use xlink:href="#DejaVuSans-77" x="115.144531"/>
      </g>
     </g>
    </g>
    <g id="xtick_8">
     <g id="line2d_58">
      <g>
       <use xlink:href="#m53272341ca" x="1113.05" y="368.92" style="stroke: #000000; stroke-width: 0.8"/>
      </g>
     </g>
     <g id="text_17">
      <!-- Medium -->
      <g transform="translate(1093.057031 383.518438) scale(0.1 -0.1)">
       <use xlink:href="#DejaVuSans-4d"/>
       <use xlink:href="#DejaVuSans-65" x="86.279297"/>
       <use xlink:href="#DejaVuSans-64" x="147.802734"/>
       <use xlink:href="#DejaVuSans-69" x="211.279297"/>
       <use xlink:href="#DejaVuSans-75" x="239.0625"/>
       <use xlink:href="#DejaVuSans-6d" x="302.441406"/>
      </g>
     </g>
    </g>
    <g id="xtick_9">
     <g id="line2d_59">
      <g>
       <use xlink:href="#m53272341ca" x="1252.35" y="368.92" style="stroke: #000000; stroke-width: 0.8"/>
      </g>
     </g>
     <g id="text_18">
      <!-- High -->
      <g transform="translate(1240.857812 383.518438) scale(0.1 -0.1)">
       <use xlink:href="#DejaVuSans-48"/>
       <use xlink:href="#DejaVuSans-69" x="75.195312"/>
       <use xlink:href="#DejaVuSans-67" x="102.978516"/>
       <use xlink:href="#DejaVuSans-68" x="166.455078"/>
      </g>
     </g>
    </g>
   </g>
   <g id="matplotlib.axis_6">
    <g id="ytick_15">
     <g id="line2d_60">
      <g>
       <use xlink:href="#mbdc19c65a7" x="904.1" y="344.054286" style="stroke: #000000; stroke-width: 0.8"/>
      </g>
     </g>
    </g>
    <g id="ytick_16">
     <g id="line2d_61">
      <g>
       <use xlink:href="#mbdc19c65a7" x="904.1" y="294.322857" style="stroke: #000000; stroke-width: 0.8"/>
      </g>
     </g>
    </g>
    <g id="ytick_17">
     <g id="line2d_62">
      <g>
       <use xlink:href="#mbdc19c65a7" x="904.1" y="244.591429" style="stroke: #000000; stroke-width: 0.8"/>
      </g>
     </g>
    </g>
    <g id="ytick_18">
     <g id="line2d_63">
      <g>
       <use xlink:href="#mbdc19c65a7" x="904.1" y="194.86" style="stroke: #000000; stroke-width: 0.8"/>
      </g>
     </g>
    </g>
    <g id="ytick_19">
     <g id="line2d_64">
      <g>
       <use xlink:href="#mbdc19c65a7" x="904.1" y="145.128571" style="stroke: #000000; stroke-width: 0.8"/>
      </g>
     </g>
    </g>
    <g id="ytick_20">
     <g id="line2d_65">
      <g>
       <use xlink:href="#mbdc19c65a7" x="904.1" y="95.397143" style="stroke: #000000; stroke-width: 0.8"/>
      </g>
     </g>
    </g>
    <g id="ytick_21">
     <g id="line2d_66">
      <g>
       <use xlink:href="#mbdc19c65a7" x="904.1" y="45.665714" style="stroke: #000000; stroke-width: 0.8"/>
      </g>
     </g>
    </g>
   </g>
   <g id="patch_15">
    <path d="M 918.03 118.338437 
L 1029.47 118.338437 
L 1029.47 59.814984 
L 918.03 59.814984 
L 918.03 118.338437 
z
" clip-path="url(#p2c78582a21)" style="fill: #3274a1; stroke: #3f3f3f; stroke-linejoin: miter"/>
   </g>
   <g id="line2d_67">
    <path d="M 973.75 118.338437 
L 973.75 200.011022 
" clip-path="url(#p2c78582a21)" style="fill: none; stroke: #3f3f3f"/>
   </g>
   <g id="line2d_68">
    <path d="M 973.75 59.814984 
L 973.75 29.839494 
" clip-path="url(#p2c78582a21)" style="fill: none; stroke: #3f3f3f"/>
   </g>
   <g id="line2d_69">
    <path d="M 945.89 200.011022 
L 1001.61 200.011022 
" clip-path="url(#p2c78582a21)" style="fill: none; stroke: #3f3f3f; stroke-linecap: square"/>
   </g>
   <g id="line2d_70">
    <path d="M 945.89 29.839494 
L 1001.61 29.839494 
" clip-path="url(#p2c78582a21)" style="fill: none; stroke: #3f3f3f; stroke-linecap: square"/>
   </g>
   <g id="line2d_71"/>
   <g id="patch_16">
    <path d="M 1057.33 141.713632 
L 1168.77 141.713632 
L 1168.77 109.333839 
L 1057.33 109.333839 
L 1057.33 141.713632 
z
" clip-path="url(#p2c78582a21)" style="fill: #3274a1; stroke: #3f3f3f; stroke-linejoin: miter"/>
   </g>
   <g id="line2d_72">
    <path d="M 1113.05 141.713632 
L 1113.05 143.538366 
" clip-path="url(#p2c78582a21)" style="fill: none; stroke: #3f3f3f"/>
   </g>
   <g id="line2d_73">
    <path d="M 1113.05 109.333839 
L 1113.05 90.878084 
" clip-path="url(#p2c78582a21)" style="fill: none; stroke: #3f3f3f"/>
   </g>
   <g id="line2d_74">
    <path d="M 1085.19 143.538366 
L 1140.91 143.538366 
" clip-path="url(#p2c78582a21)" style="fill: none; stroke: #3f3f3f; stroke-linecap: square"/>
   </g>
   <g id="line2d_75">
    <path d="M 1085.19 90.878084 
L 1140.91 90.878084 
" clip-path="url(#p2c78582a21)" style="fill: none; stroke: #3f3f3f; stroke-linecap: square"/>
   </g>
   <g id="line2d_76">
    <g clip-path="url(#p2c78582a21)">
     <use xlink:href="#m11a0bbd2a6" x="1113.05" y="235.195843" style="fill-opacity: 0; stroke: #3f3f3f"/>
     <use xlink:href="#m11a0bbd2a6" x="1113.05" y="291.681048" style="fill-opacity: 0; stroke: #3f3f3f"/>
    </g>
   </g>
   <g id="patch_17">
    <path d="M 1196.63 224.363735 
L 1308.07 224.363735 
L 1308.07 180.372523 
L 1196.63 180.372523 
L 1196.63 224.363735 
z
" clip-path="url(#p2c78582a21)" style="fill: #3274a1; stroke: #3f3f3f; stroke-linejoin: miter"/>
   </g>
   <g id="line2d_77">
    <path d="M 1252.35 224.363735 
L 1252.35 281.035006 
" clip-path="url(#p2c78582a21)" style="fill: none; stroke: #3f3f3f"/>
   </g>
   <g id="line2d_78">
    <path d="M 1252.35 180.372523 
L 1252.35 170.453237 
" clip-path="url(#p2c78582a21)" style="fill: none; stroke: #3f3f3f"/>
   </g>
   <g id="line2d_79">
    <path d="M 1224.49 281.035006 
L 1280.21 281.035006 
" clip-path="url(#p2c78582a21)" style="fill: none; stroke: #3f3f3f; stroke-linecap: square"/>
   </g>
   <g id="line2d_80">
    <path d="M 1224.49 170.453237 
L 1280.21 170.453237 
" clip-path="url(#p2c78582a21)" style="fill: none; stroke: #3f3f3f; stroke-linecap: square"/>
   </g>
   <g id="line2d_81">
    <g clip-path="url(#p2c78582a21)">
     <use xlink:href="#m11a0bbd2a6" x="1252.35" y="314.268677" style="fill-opacity: 0; stroke: #3f3f3f"/>
    </g>
   </g>
   <g id="line2d_82">
    <path d="M 918.03 86.075284 
L 1029.47 86.075284 
" clip-path="url(#p2c78582a21)" style="fill: none; stroke: #3f3f3f"/>
   </g>
   <g id="line2d_83">
    <path d="M 1057.33 129.875815 
L 1168.77 129.875815 
" clip-path="url(#p2c78582a21)" style="fill: none; stroke: #3f3f3f"/>
   </g>
   <g id="line2d_84">
    <path d="M 1196.63 194.947435 
L 1308.07 194.947435 
" clip-path="url(#p2c78582a21)" style="fill: none; stroke: #3f3f3f"/>
   </g>
   <g id="patch_18">
    <path d="M 904.1 368.92 
L 904.1 20.8 
" style="fill: none; stroke: #000000; stroke-width: 0.8; stroke-linejoin: miter; stroke-linecap: square"/>
   </g>
   <g id="patch_19">
    <path d="M 904.1 368.92 
L 1322 368.92 
" style="fill: none; stroke: #000000; stroke-width: 0.8; stroke-linejoin: miter; stroke-linecap: square"/>
   </g>
   <g id="text_19">
    <!-- M130T666 -->
    <g transform="translate(1081.303437 18.304375) scale(0.12 -0.12)">
     <defs>
      <path id="DejaVuSans-33" d="M 2597 2516 
Q 3050 2419 3304 2112 
Q 3559 1806 3559 1356 
Q 3559 666 3084 287 
Q 2609 -91 1734 -91 
Q 1441 -91 1130 -33 
Q 819 25 488 141 
L 488 750 
Q 750 597 1062 519 
Q 1375 441 1716 441 
Q 2309 441 2620 675 
Q 2931 909 2931 1356 
Q 2931 1769 2642 2001 
Q 2353 2234 1838 2234 
L 1294 2234 
L 1294 2753 
L 1863 2753 
Q 2328 2753 2575 2939 
Q 2822 3125 2822 3475 
Q 2822 3834 2567 4026 
Q 2313 4219 1838 4219 
Q 1578 4219 1281 4162 
Q 984 4106 628 3988 
L 628 4550 
Q 988 4650 1302 4700 
Q 1616 4750 1894 4750 
Q 2613 4750 3031 4423 
Q 3450 4097 3450 3541 
Q 3450 3153 3228 2886 
Q 3006 2619 2597 2516 
z
" transform="scale(0.015625)"/>
     </defs>
     <use xlink:href="#DejaVuSans-4d"/>
     <use xlink:href="#DejaVuSans-31" x="86.279297"/>
     <use xlink:href="#DejaVuSans-33" x="149.902344"/>
     <use xlink:href="#DejaVuSans-30" x="213.525391"/>
     <use xlink:href="#DejaVuSans-54" x="277.148438"/>
     <use xlink:href="#DejaVuSans-36" x="338.232422"/>
     <use xlink:href="#DejaVuSans-36" x="401.855469"/>
     <use xlink:href="#DejaVuSans-36" x="465.478516"/>
    </g>
   </g>
  </g>
 </g>
 <defs>
  <clipPath id="pedecb82867">
   <rect x="41.3" y="20.8" width="417.9" height="348.12"/>
  </clipPath>
  <clipPath id="p2ecd6234e3">
   <rect x="472.7" y="20.8" width="417.9" height="348.12"/>
  </clipPath>
  <clipPath id="p2c78582a21">
   <rect x="904.1" y="20.8" width="417.9" height="348.12"/>
  </clipPath>
 </defs>
</svg>
