<?xml version="1.0" encoding="utf-8" standalone="no"?>
<!DOCTYPE svg PUBLIC "-//W3C//DTD SVG 1.1//EN"
  "http://www.w3.org/Graphics/SVG/1.1/DTD/svg11.dtd">
<svg xmlns:xlink="http://www.w3.org/1999/xlink" width="460.8pt" height="345.6pt" viewBox="0 0 460.8 345.6" xmlns="http://www.w3.org/2000/svg" version="1.1">
 <metadata>
  <rdf:RDF xmlns:dc="http://purl.org/dc/elements/1.1/" xmlns:cc="http://creativecommons.org/ns#" xmlns:rdf="http://www.w3.org/1999/02/22-rdf-syntax-ns#">
   <cc:Work>
    <dc:type rdf:resource="http://purl.org/dc/dcmitype/StillImage"/>
    <dc:date>2024-07-18T07:03:21.046092</dc:date>
    <dc:format>image/svg+xml</dc:format>
    <dc:creator>
     <cc:Agent>
      <dc:title>Matplotlib v3.8.4, https://matplotlib.org/</dc:title>
     </cc:Agent>
    </dc:creator>
   </cc:Work>
  </rdf:RDF>
 </metadata>
 <defs>
  <style type="text/css">*{stroke-linejoin: round; stroke-linecap: butt}</style>
 </defs>
 <g id="figure_1">
  <g id="patch_1">
   <path d="M 0 345.6 
L 460.8 345.6 
L 460.8 0 
L 0 0 
z
" style="fill: #ffffff"/>
  </g>
  <g id="axes_1">
   <g id="patch_2">
    <path d="M 57.6 307.584 
L 414.72 307.584 
L 414.72 41.472 
L 57.6 41.472 
z
" style="fill: #ffffff"/>
   </g>
   <g id="matplotlib.axis_1">
    <g id="xtick_1">
     <g id="text_1">
      <!-- Elasticnet -->
      <g style="fill: #262626" transform="translate(49.4475 326.202125) scale(0.12 -0.12)">
       <defs>
        <path id="DejaVuSerif-45" d="M 353 0 
L 353 331 
L 947 331 
L 947 4331 
L 353 4331 
L 353 4666 
L 4109 4666 
L 4109 3628 
L 3725 3628 
L 3725 4281 
L 1581 4281 
L 1581 2719 
L 3109 2719 
L 3109 3303 
L 3494 3303 
L 3494 1753 
L 3109 1753 
L 3109 2338 
L 1581 2338 
L 1581 384 
L 3775 384 
L 3775 1038 
L 4159 1038 
L 4159 0 
L 353 0 
z
" transform="scale(0.015625)"/>
        <path id="DejaVuSerif-6c" d="M 1313 331 
L 1856 331 
L 1856 0 
L 184 0 
L 184 331 
L 738 331 
L 738 4531 
L 184 4531 
L 184 4863 
L 1313 4863 
L 1313 331 
z
" transform="scale(0.015625)"/>
        <path id="DejaVuSerif-61" d="M 2547 1044 
L 2547 1747 
L 1806 1747 
Q 1378 1747 1168 1562 
Q 959 1378 959 997 
Q 959 650 1171 447 
Q 1384 244 1747 244 
Q 2106 244 2326 466 
Q 2547 688 2547 1044 
z
M 3122 2075 
L 3122 331 
L 3634 331 
L 3634 0 
L 2547 0 
L 2547 359 
Q 2356 128 2106 18 
Q 1856 -91 1522 -91 
Q 969 -91 644 203 
Q 319 497 319 997 
Q 319 1513 691 1797 
Q 1063 2081 1741 2081 
L 2547 2081 
L 2547 2309 
Q 2547 2688 2317 2895 
Q 2088 3103 1672 3103 
Q 1328 3103 1125 2947 
Q 922 2791 872 2484 
L 575 2484 
L 575 3156 
Q 875 3284 1158 3348 
Q 1441 3413 1709 3413 
Q 2400 3413 2761 3070 
Q 3122 2728 3122 2075 
z
" transform="scale(0.015625)"/>
        <path id="DejaVuSerif-73" d="M 359 184 
L 359 959 
L 691 959 
Q 703 588 923 403 
Q 1144 219 1575 219 
Q 1963 219 2166 364 
Q 2369 509 2369 788 
Q 2369 1006 2220 1140 
Q 2072 1275 1594 1428 
L 1178 1569 
Q 750 1706 558 1912 
Q 366 2119 366 2438 
Q 366 2894 700 3153 
Q 1034 3413 1625 3413 
Q 1888 3413 2178 3344 
Q 2469 3275 2778 3144 
L 2778 2419 
L 2447 2419 
Q 2434 2741 2221 2922 
Q 2009 3103 1644 3103 
Q 1281 3103 1095 2975 
Q 909 2847 909 2591 
Q 909 2381 1050 2254 
Q 1191 2128 1613 1997 
L 2069 1856 
Q 2541 1709 2748 1489 
Q 2956 1269 2956 922 
Q 2956 450 2595 179 
Q 2234 -91 1600 -91 
Q 1278 -91 972 -22 
Q 666 47 359 184 
z
" transform="scale(0.015625)"/>
        <path id="DejaVuSerif-74" d="M 691 2988 
L 184 2988 
L 184 3322 
L 691 3322 
L 691 4353 
L 1269 4353 
L 1269 3322 
L 2350 3322 
L 2350 2988 
L 1269 2988 
L 1269 878 
Q 1269 456 1350 337 
Q 1431 219 1650 219 
Q 1875 219 1978 351 
Q 2081 484 2088 781 
L 2522 781 
Q 2497 328 2275 118 
Q 2053 -91 1600 -91 
Q 1103 -91 897 129 
Q 691 350 691 878 
L 691 2988 
z
" transform="scale(0.015625)"/>
        <path id="DejaVuSerif-69" d="M 622 4353 
Q 622 4497 726 4603 
Q 831 4709 978 4709 
Q 1122 4709 1226 4603 
Q 1331 4497 1331 4353 
Q 1331 4206 1228 4103 
Q 1125 4000 978 4000 
Q 831 4000 726 4103 
Q 622 4206 622 4353 
z
M 1356 331 
L 1900 331 
L 1900 0 
L 231 0 
L 231 331 
L 781 331 
L 781 2988 
L 231 2988 
L 231 3322 
L 1356 3322 
L 1356 331 
z
" transform="scale(0.015625)"/>
        <path id="DejaVuSerif-63" d="M 3291 997 
Q 3169 466 2822 187 
Q 2475 -91 1925 -91 
Q 1200 -91 759 389 
Q 319 869 319 1663 
Q 319 2459 759 2936 
Q 1200 3413 1925 3413 
Q 2241 3413 2553 3339 
Q 2866 3266 3181 3116 
L 3181 2266 
L 2847 2266 
Q 2781 2703 2561 2903 
Q 2341 3103 1931 3103 
Q 1466 3103 1228 2742 
Q 991 2381 991 1663 
Q 991 944 1227 581 
Q 1463 219 1931 219 
Q 2303 219 2525 412 
Q 2747 606 2828 997 
L 3291 997 
z
" transform="scale(0.015625)"/>
        <path id="DejaVuSerif-6e" d="M 263 0 
L 263 331 
L 781 331 
L 781 2988 
L 231 2988 
L 231 3322 
L 1356 3322 
L 1356 2731 
Q 1516 3069 1770 3241 
Q 2025 3413 2363 3413 
Q 2913 3413 3172 3097 
Q 3431 2781 3431 2113 
L 3431 331 
L 3944 331 
L 3944 0 
L 2356 0 
L 2356 331 
L 2853 331 
L 2853 1931 
Q 2853 2541 2703 2767 
Q 2553 2994 2175 2994 
Q 1775 2994 1565 2701 
Q 1356 2409 1356 1850 
L 1356 331 
L 1856 331 
L 1856 0 
L 263 0 
z
" transform="scale(0.015625)"/>
        <path id="DejaVuSerif-65" d="M 3469 1600 
L 991 1600 
L 991 1575 
Q 991 903 1244 561 
Q 1497 219 1991 219 
Q 2369 219 2611 417 
Q 2853 616 2950 1006 
L 3413 1006 
Q 3275 459 2904 184 
Q 2534 -91 1931 -91 
Q 1203 -91 761 389 
Q 319 869 319 1663 
Q 319 2450 753 2931 
Q 1188 3413 1894 3413 
Q 2647 3413 3050 2948 
Q 3453 2484 3469 1600 
z
M 2791 1931 
Q 2772 2513 2545 2808 
Q 2319 3103 1894 3103 
Q 1497 3103 1269 2806 
Q 1041 2509 991 1931 
L 2791 1931 
z
" transform="scale(0.015625)"/>
       </defs>
       <use xlink:href="#DejaVuSerif-45"/>
       <use xlink:href="#DejaVuSerif-6c" x="72.998047"/>
       <use xlink:href="#DejaVuSerif-61" x="104.980469"/>
       <use xlink:href="#DejaVuSerif-73" x="164.599609"/>
       <use xlink:href="#DejaVuSerif-74" x="215.917969"/>
       <use xlink:href="#DejaVuSerif-69" x="256.103516"/>
       <use xlink:href="#DejaVuSerif-63" x="288.085938"/>
       <use xlink:href="#DejaVuSerif-6e" x="344.091797"/>
       <use xlink:href="#DejaVuSerif-65" x="408.496094"/>
       <use xlink:href="#DejaVuSerif-74" x="467.675781"/>
      </g>
      <!-- herb -->
      <g style="fill: #262626" transform="translate(65.795625 339.6395) scale(0.12 -0.12)">
       <defs>
        <path id="DejaVuSerif-68" d="M 263 0 
L 263 331 
L 781 331 
L 781 4531 
L 231 4531 
L 231 4863 
L 1356 4863 
L 1356 2731 
Q 1516 3069 1770 3241 
Q 2025 3413 2363 3413 
Q 2913 3413 3172 3097 
Q 3431 2781 3431 2113 
L 3431 331 
L 3944 331 
L 3944 0 
L 2356 0 
L 2356 331 
L 2853 331 
L 2853 1931 
Q 2853 2541 2704 2764 
Q 2556 2988 2175 2988 
Q 1775 2988 1565 2697 
Q 1356 2406 1356 1850 
L 1356 331 
L 1856 331 
L 1856 0 
L 263 0 
z
" transform="scale(0.015625)"/>
        <path id="DejaVuSerif-72" d="M 3059 3328 
L 3059 2497 
L 2728 2497 
Q 2713 2744 2591 2866 
Q 2469 2988 2234 2988 
Q 1809 2988 1582 2694 
Q 1356 2400 1356 1850 
L 1356 331 
L 2022 331 
L 2022 0 
L 263 0 
L 263 331 
L 781 331 
L 781 2994 
L 231 2994 
L 231 3322 
L 1356 3322 
L 1356 2731 
Q 1525 3078 1790 3245 
Q 2056 3413 2438 3413 
Q 2578 3413 2733 3391 
Q 2888 3369 3059 3328 
z
" transform="scale(0.015625)"/>
        <path id="DejaVuSerif-62" d="M 738 331 
L 738 4531 
L 184 4531 
L 184 4863 
L 1313 4863 
L 1313 2803 
Q 1481 3116 1742 3264 
Q 2003 3413 2388 3413 
Q 3000 3413 3387 2928 
Q 3775 2444 3775 1663 
Q 3775 881 3387 395 
Q 3000 -91 2388 -91 
Q 2003 -91 1742 57 
Q 1481 206 1313 519 
L 1313 0 
L 184 0 
L 184 331 
L 738 331 
z
M 1313 1497 
Q 1313 897 1542 583 
Q 1772 269 2209 269 
Q 2650 269 2876 622 
Q 3103 975 3103 1663 
Q 3103 2353 2876 2703 
Q 2650 3053 2209 3053 
Q 1772 3053 1542 2737 
Q 1313 2422 1313 1825 
L 1313 1497 
z
" transform="scale(0.015625)"/>
       </defs>
       <use xlink:href="#DejaVuSerif-68"/>
       <use xlink:href="#DejaVuSerif-65" x="64.404297"/>
       <use xlink:href="#DejaVuSerif-72" x="123.583984"/>
       <use xlink:href="#DejaVuSerif-62" x="171.386719"/>
      </g>
     </g>
    </g>
    <g id="xtick_2">
     <g id="text_2">
      <!-- Random Forest -->
      <g style="fill: #262626" transform="translate(78.060937 326.202125) scale(0.12 -0.12)">
       <defs>
        <path id="DejaVuSerif-52" d="M 3066 2316 
Q 3284 2256 3442 2114 
Q 3600 1972 3725 1716 
L 4403 331 
L 4972 331 
L 4972 0 
L 3872 0 
L 3144 1484 
Q 2934 1916 2759 2042 
Q 2584 2169 2278 2169 
L 1581 2169 
L 1581 331 
L 2241 331 
L 2241 0 
L 353 0 
L 353 331 
L 947 331 
L 947 4331 
L 353 4331 
L 353 4666 
L 2719 4666 
Q 3400 4666 3770 4341 
Q 4141 4016 4141 3419 
Q 4141 2938 3870 2661 
Q 3600 2384 3066 2316 
z
M 1581 2503 
L 2503 2503 
Q 2975 2503 3200 2726 
Q 3425 2950 3425 3419 
Q 3425 3888 3200 4109 
Q 2975 4331 2503 4331 
L 1581 4331 
L 1581 2503 
z
" transform="scale(0.015625)"/>
        <path id="DejaVuSerif-64" d="M 3359 331 
L 3909 331 
L 3909 0 
L 2784 0 
L 2784 519 
Q 2616 206 2355 57 
Q 2094 -91 1709 -91 
Q 1097 -91 708 395 
Q 319 881 319 1663 
Q 319 2444 706 2928 
Q 1094 3413 1709 3413 
Q 2094 3413 2355 3264 
Q 2616 3116 2784 2803 
L 2784 4531 
L 2241 4531 
L 2241 4863 
L 3359 4863 
L 3359 331 
z
M 2784 1497 
L 2784 1825 
Q 2784 2422 2554 2737 
Q 2325 3053 1888 3053 
Q 1444 3053 1217 2703 
Q 991 2353 991 1663 
Q 991 975 1217 622 
Q 1444 269 1888 269 
Q 2325 269 2554 583 
Q 2784 897 2784 1497 
z
" transform="scale(0.015625)"/>
        <path id="DejaVuSerif-6f" d="M 1925 219 
Q 2388 219 2623 584 
Q 2859 950 2859 1663 
Q 2859 2375 2623 2739 
Q 2388 3103 1925 3103 
Q 1463 3103 1227 2739 
Q 991 2375 991 1663 
Q 991 950 1228 584 
Q 1466 219 1925 219 
z
M 1925 -91 
Q 1200 -91 759 389 
Q 319 869 319 1663 
Q 319 2456 758 2934 
Q 1197 3413 1925 3413 
Q 2653 3413 3092 2934 
Q 3531 2456 3531 1663 
Q 3531 869 3092 389 
Q 2653 -91 1925 -91 
z
" transform="scale(0.015625)"/>
        <path id="DejaVuSerif-6d" d="M 3316 2675 
Q 3481 3041 3739 3227 
Q 3997 3413 4341 3413 
Q 4863 3413 5119 3089 
Q 5375 2766 5375 2113 
L 5375 331 
L 5894 331 
L 5894 0 
L 4300 0 
L 4300 331 
L 4800 331 
L 4800 2047 
Q 4800 2556 4650 2772 
Q 4500 2988 4153 2988 
Q 3769 2988 3567 2697 
Q 3366 2406 3366 1850 
L 3366 331 
L 3866 331 
L 3866 0 
L 2291 0 
L 2291 331 
L 2791 331 
L 2791 2069 
Q 2791 2566 2641 2777 
Q 2491 2988 2144 2988 
Q 1759 2988 1557 2697 
Q 1356 2406 1356 1850 
L 1356 331 
L 1856 331 
L 1856 0 
L 263 0 
L 263 331 
L 781 331 
L 781 2994 
L 231 2994 
L 231 3322 
L 1356 3322 
L 1356 2731 
Q 1516 3063 1762 3238 
Q 2009 3413 2322 3413 
Q 2709 3413 2968 3220 
Q 3228 3028 3316 2675 
z
" transform="scale(0.015625)"/>
        <path id="DejaVuSerif-20" transform="scale(0.015625)"/>
        <path id="DejaVuSerif-46" d="M 353 0 
L 353 331 
L 947 331 
L 947 4331 
L 353 4331 
L 353 4666 
L 4172 4666 
L 4172 3628 
L 3788 3628 
L 3788 4281 
L 1581 4281 
L 1581 2719 
L 3175 2719 
L 3175 3303 
L 3559 3303 
L 3559 1753 
L 3175 1753 
L 3175 2338 
L 1581 2338 
L 1581 331 
L 2328 331 
L 2328 0 
L 353 0 
z
" transform="scale(0.015625)"/>
       </defs>
       <use xlink:href="#DejaVuSerif-52"/>
       <use xlink:href="#DejaVuSerif-61" x="77.542969"/>
       <use xlink:href="#DejaVuSerif-6e" x="137.162109"/>
       <use xlink:href="#DejaVuSerif-64" x="201.566406"/>
       <use xlink:href="#DejaVuSerif-6f" x="265.580078"/>
       <use xlink:href="#DejaVuSerif-6d" x="325.785156"/>
       <use xlink:href="#DejaVuSerif-20" x="420.609375"/>
       <use xlink:href="#DejaVuSerif-46" x="452.396484"/>
       <use xlink:href="#DejaVuSerif-6f" x="516.28125"/>
       <use xlink:href="#DejaVuSerif-72" x="576.486328"/>
       <use xlink:href="#DejaVuSerif-65" x="624.289062"/>
       <use xlink:href="#DejaVuSerif-73" x="683.46875"/>
       <use xlink:href="#DejaVuSerif-74" x="734.787109"/>
      </g>
      <!-- herb -->
      <g style="fill: #262626" transform="translate(110.435625 339.6395) scale(0.12 -0.12)">
       <use xlink:href="#DejaVuSerif-68"/>
       <use xlink:href="#DejaVuSerif-65" x="64.404297"/>
       <use xlink:href="#DejaVuSerif-72" x="123.583984"/>
       <use xlink:href="#DejaVuSerif-62" x="171.386719"/>
      </g>
     </g>
    </g>
    <g id="xtick_3">
     <g id="text_3">
      <!-- Elasticnet -->
      <g style="fill: #262626" transform="translate(138.7275 326.202125) scale(0.12 -0.12)">
       <use xlink:href="#DejaVuSerif-45"/>
       <use xlink:href="#DejaVuSerif-6c" x="72.998047"/>
       <use xlink:href="#DejaVuSerif-61" x="104.980469"/>
       <use xlink:href="#DejaVuSerif-73" x="164.599609"/>
       <use xlink:href="#DejaVuSerif-74" x="215.917969"/>
       <use xlink:href="#DejaVuSerif-69" x="256.103516"/>
       <use xlink:href="#DejaVuSerif-63" x="288.085938"/>
       <use xlink:href="#DejaVuSerif-6e" x="344.091797"/>
       <use xlink:href="#DejaVuSerif-65" x="408.496094"/>
       <use xlink:href="#DejaVuSerif-74" x="467.675781"/>
      </g>
      <!-- moly -->
      <g style="fill: #262626" transform="translate(154.589062 339.6395) scale(0.12 -0.12)">
       <defs>
        <path id="DejaVuSerif-79" d="M 1381 -609 
L 1600 -56 
L 359 2988 
L -19 2988 
L -19 3322 
L 1509 3322 
L 1509 2988 
L 978 2988 
L 1913 703 
L 2847 2988 
L 2350 2988 
L 2350 3322 
L 3597 3322 
L 3597 2988 
L 3225 2988 
L 1703 -750 
Q 1547 -1138 1356 -1280 
Q 1166 -1422 819 -1422 
Q 672 -1422 517 -1397 
Q 363 -1372 206 -1325 
L 206 -691 
L 500 -691 
Q 519 -903 608 -995 
Q 697 -1088 884 -1088 
Q 1056 -1088 1161 -992 
Q 1266 -897 1381 -609 
z
" transform="scale(0.015625)"/>
       </defs>
       <use xlink:href="#DejaVuSerif-6d"/>
       <use xlink:href="#DejaVuSerif-6f" x="94.824219"/>
       <use xlink:href="#DejaVuSerif-6c" x="155.029297"/>
       <use xlink:href="#DejaVuSerif-79" x="187.011719"/>
      </g>
     </g>
    </g>
    <g id="xtick_4">
     <g id="text_4">
      <!-- Random Forest -->
      <g style="fill: #262626" transform="translate(167.340938 326.202125) scale(0.12 -0.12)">
       <use xlink:href="#DejaVuSerif-52"/>
       <use xlink:href="#DejaVuSerif-61" x="77.542969"/>
       <use xlink:href="#DejaVuSerif-6e" x="137.162109"/>
       <use xlink:href="#DejaVuSerif-64" x="201.566406"/>
       <use xlink:href="#DejaVuSerif-6f" x="265.580078"/>
       <use xlink:href="#DejaVuSerif-6d" x="325.785156"/>
       <use xlink:href="#DejaVuSerif-20" x="420.609375"/>
       <use xlink:href="#DejaVuSerif-46" x="452.396484"/>
       <use xlink:href="#DejaVuSerif-6f" x="516.28125"/>
       <use xlink:href="#DejaVuSerif-72" x="576.486328"/>
       <use xlink:href="#DejaVuSerif-65" x="624.289062"/>
       <use xlink:href="#DejaVuSerif-73" x="683.46875"/>
       <use xlink:href="#DejaVuSerif-74" x="734.787109"/>
      </g>
      <!-- moly -->
      <g style="fill: #262626" transform="translate(199.229063 339.6395) scale(0.12 -0.12)">
       <use xlink:href="#DejaVuSerif-6d"/>
       <use xlink:href="#DejaVuSerif-6f" x="94.824219"/>
       <use xlink:href="#DejaVuSerif-6c" x="155.029297"/>
       <use xlink:href="#DejaVuSerif-79" x="187.011719"/>
      </g>
     </g>
    </g>
    <g id="xtick_5">
     <g id="text_5">
      <!-- Ridge -->
      <g style="fill: #262626" transform="translate(240.81 326.202125) scale(0.12 -0.12)">
       <defs>
        <path id="DejaVuSerif-67" d="M 3359 2988 
L 3359 72 
Q 3359 -644 2965 -1033 
Q 2572 -1422 1844 -1422 
Q 1516 -1422 1216 -1362 
Q 916 -1303 641 -1184 
L 641 -488 
L 941 -488 
Q 997 -813 1206 -963 
Q 1416 -1113 1806 -1113 
Q 2313 -1113 2548 -827 
Q 2784 -541 2784 72 
L 2784 519 
Q 2616 206 2355 57 
Q 2094 -91 1709 -91 
Q 1097 -91 708 395 
Q 319 881 319 1663 
Q 319 2444 706 2928 
Q 1094 3413 1709 3413 
Q 2094 3413 2355 3264 
Q 2616 3116 2784 2803 
L 2784 3322 
L 3909 3322 
L 3909 2988 
L 3359 2988 
z
M 2784 1825 
Q 2784 2422 2554 2737 
Q 2325 3053 1888 3053 
Q 1444 3053 1217 2703 
Q 991 2353 991 1663 
Q 991 975 1217 622 
Q 1444 269 1888 269 
Q 2325 269 2554 583 
Q 2784 897 2784 1497 
L 2784 1825 
z
" transform="scale(0.015625)"/>
       </defs>
       <use xlink:href="#DejaVuSerif-52"/>
       <use xlink:href="#DejaVuSerif-69" x="75.292969"/>
       <use xlink:href="#DejaVuSerif-64" x="107.275391"/>
       <use xlink:href="#DejaVuSerif-67" x="171.289062"/>
       <use xlink:href="#DejaVuSerif-65" x="235.302734"/>
      </g>
      <!-- Regression -->
      <g style="fill: #262626" transform="translate(224.597813 339.810125) scale(0.12 -0.12)">
       <use xlink:href="#DejaVuSerif-52"/>
       <use xlink:href="#DejaVuSerif-65" x="75.292969"/>
       <use xlink:href="#DejaVuSerif-67" x="134.472656"/>
       <use xlink:href="#DejaVuSerif-72" x="198.486328"/>
       <use xlink:href="#DejaVuSerif-65" x="246.289062"/>
       <use xlink:href="#DejaVuSerif-73" x="305.46875"/>
       <use xlink:href="#DejaVuSerif-73" x="356.787109"/>
       <use xlink:href="#DejaVuSerif-69" x="408.105469"/>
       <use xlink:href="#DejaVuSerif-6f" x="440.087891"/>
       <use xlink:href="#DejaVuSerif-6e" x="500.292969"/>
      </g>
      <!-- ft -->
      <g style="fill: #262626" transform="translate(253.847813 353.418125) scale(0.12 -0.12)">
       <defs>
        <path id="DejaVuSerif-66" d="M 2753 4078 
L 2450 4078 
Q 2447 4313 2317 4434 
Q 2188 4556 1941 4556 
Q 1619 4556 1487 4379 
Q 1356 4203 1356 3750 
L 1356 3322 
L 2284 3322 
L 2284 2988 
L 1356 2988 
L 1356 331 
L 2094 331 
L 2094 0 
L 231 0 
L 231 331 
L 781 331 
L 781 2988 
L 231 2988 
L 231 3322 
L 781 3322 
L 781 3738 
Q 781 4294 1070 4578 
Q 1359 4863 1919 4863 
Q 2128 4863 2337 4825 
Q 2547 4788 2753 4709 
L 2753 4078 
z
" transform="scale(0.015625)"/>
       </defs>
       <use xlink:href="#DejaVuSerif-66"/>
       <use xlink:href="#DejaVuSerif-74" x="37.011719"/>
      </g>
     </g>
    </g>
    <g id="xtick_6">
     <g id="text_6">
      <!-- Random Forest -->
      <g style="fill: #262626" transform="translate(256.620938 326.202125) scale(0.12 -0.12)">
       <use xlink:href="#DejaVuSerif-52"/>
       <use xlink:href="#DejaVuSerif-61" x="77.542969"/>
       <use xlink:href="#DejaVuSerif-6e" x="137.162109"/>
       <use xlink:href="#DejaVuSerif-64" x="201.566406"/>
       <use xlink:href="#DejaVuSerif-6f" x="265.580078"/>
       <use xlink:href="#DejaVuSerif-6d" x="325.785156"/>
       <use xlink:href="#DejaVuSerif-20" x="420.609375"/>
       <use xlink:href="#DejaVuSerif-46" x="452.396484"/>
       <use xlink:href="#DejaVuSerif-6f" x="516.28125"/>
       <use xlink:href="#DejaVuSerif-72" x="576.486328"/>
       <use xlink:href="#DejaVuSerif-65" x="624.289062"/>
       <use xlink:href="#DejaVuSerif-73" x="683.46875"/>
       <use xlink:href="#DejaVuSerif-74" x="734.787109"/>
      </g>
      <!-- ft -->
      <g style="fill: #262626" transform="translate(298.487813 339.6395) scale(0.12 -0.12)">
       <use xlink:href="#DejaVuSerif-66"/>
       <use xlink:href="#DejaVuSerif-74" x="37.011719"/>
      </g>
     </g>
    </g>
    <g id="xtick_7">
     <g id="text_7">
      <!-- Ridge -->
      <g style="fill: #262626" transform="translate(330.09 326.202125) scale(0.12 -0.12)">
       <use xlink:href="#DejaVuSerif-52"/>
       <use xlink:href="#DejaVuSerif-69" x="75.292969"/>
       <use xlink:href="#DejaVuSerif-64" x="107.275391"/>
       <use xlink:href="#DejaVuSerif-67" x="171.289062"/>
       <use xlink:href="#DejaVuSerif-65" x="235.302734"/>
      </g>
      <!-- Regression -->
      <g style="fill: #262626" transform="translate(313.877813 339.810125) scale(0.12 -0.12)">
       <use xlink:href="#DejaVuSerif-52"/>
       <use xlink:href="#DejaVuSerif-65" x="75.292969"/>
       <use xlink:href="#DejaVuSerif-67" x="134.472656"/>
       <use xlink:href="#DejaVuSerif-72" x="198.486328"/>
       <use xlink:href="#DejaVuSerif-65" x="246.289062"/>
       <use xlink:href="#DejaVuSerif-73" x="305.46875"/>
       <use xlink:href="#DejaVuSerif-73" x="356.787109"/>
       <use xlink:href="#DejaVuSerif-69" x="408.105469"/>
       <use xlink:href="#DejaVuSerif-6f" x="440.087891"/>
       <use xlink:href="#DejaVuSerif-6e" x="500.292969"/>
      </g>
      <!-- seed -->
      <g style="fill: #262626" transform="translate(333.737813 353.418125) scale(0.12 -0.12)">
       <use xlink:href="#DejaVuSerif-73"/>
       <use xlink:href="#DejaVuSerif-65" x="51.318359"/>
       <use xlink:href="#DejaVuSerif-65" x="110.498047"/>
       <use xlink:href="#DejaVuSerif-64" x="169.677734"/>
      </g>
     </g>
    </g>
    <g id="xtick_8">
     <g id="text_8">
      <!-- Random Forest -->
      <g style="fill: #262626" transform="translate(345.900938 326.202125) scale(0.12 -0.12)">
       <use xlink:href="#DejaVuSerif-52"/>
       <use xlink:href="#DejaVuSerif-61" x="77.542969"/>
       <use xlink:href="#DejaVuSerif-6e" x="137.162109"/>
       <use xlink:href="#DejaVuSerif-64" x="201.566406"/>
       <use xlink:href="#DejaVuSerif-6f" x="265.580078"/>
       <use xlink:href="#DejaVuSerif-6d" x="325.785156"/>
       <use xlink:href="#DejaVuSerif-20" x="420.609375"/>
       <use xlink:href="#DejaVuSerif-46" x="452.396484"/>
       <use xlink:href="#DejaVuSerif-6f" x="516.28125"/>
       <use xlink:href="#DejaVuSerif-72" x="576.486328"/>
       <use xlink:href="#DejaVuSerif-65" x="624.289062"/>
       <use xlink:href="#DejaVuSerif-73" x="683.46875"/>
       <use xlink:href="#DejaVuSerif-74" x="734.787109"/>
      </g>
      <!-- seed -->
      <g style="fill: #262626" transform="translate(378.377813 339.6395) scale(0.12 -0.12)">
       <use xlink:href="#DejaVuSerif-73"/>
       <use xlink:href="#DejaVuSerif-65" x="51.318359"/>
       <use xlink:href="#DejaVuSerif-65" x="110.498047"/>
       <use xlink:href="#DejaVuSerif-64" x="169.677734"/>
      </g>
     </g>
    </g>
   </g>
   <g id="matplotlib.axis_2">
    <g id="ytick_1">
     <g id="line2d_1">
      <path d="M 57.6 261.272891 
L 414.72 261.272891 
" clip-path="url(#pe8074a28b4)" style="fill: none; stroke: #cccccc; stroke-linecap: round"/>
     </g>
     <g id="text_9">
      <!-- 0.0 -->
      <g style="fill: #262626" transform="translate(29.01625 265.831954) scale(0.12 -0.12)">
       <defs>
        <path id="DejaVuSerif-30" d="M 2034 219 
Q 2513 219 2750 744 
Q 2988 1269 2988 2328 
Q 2988 3391 2750 3916 
Q 2513 4441 2034 4441 
Q 1556 4441 1318 3916 
Q 1081 3391 1081 2328 
Q 1081 1269 1318 744 
Q 1556 219 2034 219 
z
M 2034 -91 
Q 1275 -91 848 546 
Q 422 1184 422 2328 
Q 422 3475 848 4112 
Q 1275 4750 2034 4750 
Q 2797 4750 3222 4112 
Q 3647 3475 3647 2328 
Q 3647 1184 3222 546 
Q 2797 -91 2034 -91 
z
" transform="scale(0.015625)"/>
        <path id="DejaVuSerif-2e" d="M 603 325 
Q 603 500 722 622 
Q 841 744 1019 744 
Q 1191 744 1312 622 
Q 1434 500 1434 325 
Q 1434 153 1312 31 
Q 1191 -91 1019 -91 
Q 841 -91 722 29 
Q 603 150 603 325 
z
" transform="scale(0.015625)"/>
       </defs>
       <use xlink:href="#DejaVuSerif-30"/>
       <use xlink:href="#DejaVuSerif-2e" x="63.623047"/>
       <use xlink:href="#DejaVuSerif-30" x="95.410156"/>
      </g>
     </g>
    </g>
    <g id="ytick_2">
     <g id="line2d_2">
      <path d="M 57.6 208.904028 
L 414.72 208.904028 
" clip-path="url(#pe8074a28b4)" style="fill: none; stroke: #cccccc; stroke-linecap: round"/>
     </g>
     <g id="text_10">
      <!-- 0.2 -->
      <g style="fill: #262626" transform="translate(29.01625 213.463091) scale(0.12 -0.12)">
       <defs>
        <path id="DejaVuSerif-32" d="M 819 3553 
L 469 3553 
L 469 4384 
Q 803 4563 1142 4656 
Q 1481 4750 1806 4750 
Q 2534 4750 2956 4397 
Q 3378 4044 3378 3438 
Q 3378 2753 2422 1800 
Q 2347 1728 2309 1691 
L 1131 513 
L 3078 513 
L 3078 1088 
L 3444 1088 
L 3444 0 
L 434 0 
L 434 341 
L 1850 1753 
Q 2319 2222 2519 2614 
Q 2719 3006 2719 3438 
Q 2719 3909 2473 4175 
Q 2228 4441 1797 4441 
Q 1350 4441 1106 4219 
Q 863 3997 819 3553 
z
" transform="scale(0.015625)"/>
       </defs>
       <use xlink:href="#DejaVuSerif-30"/>
       <use xlink:href="#DejaVuSerif-2e" x="63.623047"/>
       <use xlink:href="#DejaVuSerif-32" x="95.410156"/>
      </g>
     </g>
    </g>
    <g id="ytick_3">
     <g id="line2d_3">
      <path d="M 57.6 156.535166 
L 414.72 156.535166 
" clip-path="url(#pe8074a28b4)" style="fill: none; stroke: #cccccc; stroke-linecap: round"/>
     </g>
     <g id="text_11">
      <!-- 0.4 -->
      <g style="fill: #262626" transform="translate(29.01625 161.094228) scale(0.12 -0.12)">
       <defs>
        <path id="DejaVuSerif-34" d="M 2234 1581 
L 2234 4063 
L 641 1581 
L 2234 1581 
z
M 3609 0 
L 1484 0 
L 1484 331 
L 2234 331 
L 2234 1247 
L 197 1247 
L 197 1588 
L 2241 4750 
L 2859 4750 
L 2859 1581 
L 3750 1581 
L 3750 1247 
L 2859 1247 
L 2859 331 
L 3609 331 
L 3609 0 
z
" transform="scale(0.015625)"/>
       </defs>
       <use xlink:href="#DejaVuSerif-30"/>
       <use xlink:href="#DejaVuSerif-2e" x="63.623047"/>
       <use xlink:href="#DejaVuSerif-34" x="95.410156"/>
      </g>
     </g>
    </g>
    <g id="ytick_4">
     <g id="line2d_4">
      <path d="M 57.6 104.166303 
L 414.72 104.166303 
" clip-path="url(#pe8074a28b4)" style="fill: none; stroke: #cccccc; stroke-linecap: round"/>
     </g>
     <g id="text_12">
      <!-- 0.6 -->
      <g style="fill: #262626" transform="translate(29.01625 108.725365) scale(0.12 -0.12)">
       <defs>
        <path id="DejaVuSerif-36" d="M 2094 219 
Q 2534 219 2771 542 
Q 3009 866 3009 1472 
Q 3009 2078 2771 2401 
Q 2534 2725 2094 2725 
Q 1647 2725 1412 2412 
Q 1178 2100 1178 1509 
Q 1178 888 1415 553 
Q 1653 219 2094 219 
z
M 1075 2569 
Q 1288 2803 1556 2918 
Q 1825 3034 2163 3034 
Q 2859 3034 3264 2615 
Q 3669 2197 3669 1472 
Q 3669 763 3233 336 
Q 2797 -91 2069 -91 
Q 1278 -91 853 498 
Q 428 1088 428 2181 
Q 428 3406 931 4078 
Q 1434 4750 2350 4750 
Q 2597 4750 2869 4703 
Q 3141 4656 3425 4563 
L 3425 3794 
L 3072 3794 
Q 3034 4109 2831 4275 
Q 2628 4441 2284 4441 
Q 1678 4441 1381 3981 
Q 1084 3522 1075 2569 
z
" transform="scale(0.015625)"/>
       </defs>
       <use xlink:href="#DejaVuSerif-30"/>
       <use xlink:href="#DejaVuSerif-2e" x="63.623047"/>
       <use xlink:href="#DejaVuSerif-36" x="95.410156"/>
      </g>
     </g>
    </g>
    <g id="ytick_5">
     <g id="line2d_5">
      <path d="M 57.6 51.79744 
L 414.72 51.79744 
" clip-path="url(#pe8074a28b4)" style="fill: none; stroke: #cccccc; stroke-linecap: round"/>
     </g>
     <g id="text_13">
      <!-- 0.8 -->
      <g style="fill: #262626" transform="translate(29.01625 56.356503) scale(0.12 -0.12)">
       <defs>
        <path id="DejaVuSerif-38" d="M 2981 1275 
Q 2981 1775 2732 2051 
Q 2484 2328 2034 2328 
Q 1584 2328 1336 2051 
Q 1088 1775 1088 1275 
Q 1088 772 1336 495 
Q 1584 219 2034 219 
Q 2484 219 2732 495 
Q 2981 772 2981 1275 
z
M 2853 3541 
Q 2853 3966 2637 4203 
Q 2422 4441 2034 4441 
Q 1650 4441 1433 4203 
Q 1216 3966 1216 3541 
Q 1216 3113 1433 2875 
Q 1650 2638 2034 2638 
Q 2422 2638 2637 2875 
Q 2853 3113 2853 3541 
z
M 2516 2484 
Q 3047 2413 3344 2092 
Q 3641 1772 3641 1275 
Q 3641 619 3225 264 
Q 2809 -91 2034 -91 
Q 1263 -91 845 264 
Q 428 619 428 1275 
Q 428 1772 725 2092 
Q 1022 2413 1556 2484 
Q 1084 2569 832 2842 
Q 581 3116 581 3541 
Q 581 4103 968 4426 
Q 1356 4750 2034 4750 
Q 2713 4750 3100 4426 
Q 3488 4103 3488 3541 
Q 3488 3116 3236 2842 
Q 2984 2569 2516 2484 
z
" transform="scale(0.015625)"/>
       </defs>
       <use xlink:href="#DejaVuSerif-30"/>
       <use xlink:href="#DejaVuSerif-2e" x="63.623047"/>
       <use xlink:href="#DejaVuSerif-38" x="95.410156"/>
      </g>
     </g>
    </g>
    <g id="text_14">
     <!-- $\text{r}^2$ -->
     <g style="fill: #262626" transform="translate(22.104688 180.828) rotate(-90) scale(0.14 -0.14)">
      <defs>
       <path id="DejaVuSans-72" d="M 2631 2963 
Q 2534 3019 2420 3045 
Q 2306 3072 2169 3072 
Q 1681 3072 1420 2755 
Q 1159 2438 1159 1844 
L 1159 0 
L 581 0 
L 581 3500 
L 1159 3500 
L 1159 2956 
Q 1341 3275 1631 3429 
Q 1922 3584 2338 3584 
Q 2397 3584 2469 3576 
Q 2541 3569 2628 3553 
L 2631 2963 
z
" transform="scale(0.015625)"/>
       <path id="DejaVuSans-32" d="M 1228 531 
L 3431 531 
L 3431 0 
L 469 0 
L 469 531 
Q 828 903 1448 1529 
Q 2069 2156 2228 2338 
Q 2531 2678 2651 2914 
Q 2772 3150 2772 3378 
Q 2772 3750 2511 3984 
Q 2250 4219 1831 4219 
Q 1534 4219 1204 4116 
Q 875 4013 500 3803 
L 500 4441 
Q 881 4594 1212 4672 
Q 1544 4750 1819 4750 
Q 2544 4750 2975 4387 
Q 3406 4025 3406 3419 
Q 3406 3131 3298 2873 
Q 3191 2616 2906 2266 
Q 2828 2175 2409 1742 
Q 1991 1309 1228 531 
z
" transform="scale(0.015625)"/>
      </defs>
      <use xlink:href="#DejaVuSans-72" transform="translate(0 0.765625)"/>
      <use xlink:href="#DejaVuSans-32" transform="translate(42.070312 39.046875) scale(0.7)"/>
     </g>
    </g>
   </g>
   <g id="PolyCollection_1">
    <defs>
     <path id="m593974f3ce" d="M 80.096742 -97.154757 
L 79.743258 -97.154757 
L 79.708121 -98.801571 
L 79.667669 -100.448385 
L 79.621455 -102.095199 
L 79.569065 -103.742013 
L 79.510128 -105.388827 
L 79.444336 -107.035641 
L 79.371458 -108.682455 
L 79.291349 -110.329269 
L 79.203968 -111.976083 
L 79.109384 -113.622897 
L 79.007785 -115.269711 
L 78.899483 -116.916526 
L 78.784909 -118.56334 
L 78.664615 -120.210154 
L 78.53926 -121.856968 
L 78.4096 -123.503782 
L 78.276472 -125.150596 
L 78.140775 -126.79741 
L 78.003447 -128.444224 
L 77.865445 -130.091038 
L 77.727718 -131.737852 
L 77.59119 -133.384666 
L 77.456735 -135.03148 
L 77.325159 -136.678294 
L 77.19719 -138.325108 
L 77.073461 -139.971922 
L 76.954506 -141.618736 
L 76.840757 -143.26555 
L 76.732543 -144.912364 
L 76.630092 -146.559178 
L 76.533541 -148.205993 
L 76.442939 -149.852807 
L 76.358256 -151.499621 
L 76.279392 -153.146435 
L 76.206182 -154.793249 
L 76.138404 -156.440063 
L 76.07578 -158.086877 
L 76.017984 -159.733691 
L 75.964639 -161.380505 
L 75.915321 -163.027319 
L 75.869559 -164.674133 
L 75.826842 -166.320947 
L 75.786616 -167.967761 
L 75.748299 -169.614575 
L 75.711287 -171.261389 
L 75.67497 -172.908203 
L 75.638752 -174.555017 
L 75.602071 -176.201831 
L 75.564427 -177.848645 
L 75.525406 -179.49546 
L 75.484713 -181.142274 
L 75.442196 -182.789088 
L 75.397872 -184.435902 
L 75.351951 -186.082716 
L 75.304847 -187.72953 
L 75.257191 -189.376344 
L 75.209831 -191.023158 
L 75.16382 -192.669972 
L 75.1204 -194.316786 
L 75.080978 -195.9636 
L 75.047086 -197.610414 
L 75.020338 -199.257228 
L 75.002385 -200.904042 
L 74.994859 -202.550856 
L 74.99932 -204.19767 
L 75.017196 -205.844484 
L 75.04974 -207.491298 
L 75.097974 -209.138112 
L 75.162651 -210.784927 
L 75.244224 -212.431741 
L 75.34282 -214.078555 
L 75.458228 -215.725369 
L 75.5899 -217.372183 
L 75.736958 -219.018997 
L 75.898215 -220.665811 
L 76.072206 -222.312625 
L 76.257224 -223.959439 
L 76.451368 -225.606253 
L 76.652592 -227.253067 
L 76.85876 -228.899881 
L 77.067699 -230.546695 
L 77.277255 -232.193509 
L 77.485342 -233.840323 
L 77.689991 -235.487137 
L 77.88939 -237.133951 
L 78.081918 -238.780765 
L 78.266168 -240.427579 
L 78.440973 -242.074394 
L 78.605406 -243.721208 
L 78.758787 -245.368022 
L 78.900678 -247.014836 
L 79.030867 -248.66165 
L 79.149354 -250.308464 
L 79.256326 -251.955278 
L 79.352135 -253.602092 
L 79.437268 -255.248906 
L 79.512319 -256.89572 
L 79.577966 -258.542534 
L 79.634941 -260.189348 
L 80.205059 -260.189348 
L 80.205059 -260.189348 
L 80.262034 -258.542534 
L 80.327681 -256.89572 
L 80.402732 -255.248906 
L 80.487865 -253.602092 
L 80.583674 -251.955278 
L 80.690646 -250.308464 
L 80.809133 -248.66165 
L 80.939322 -247.014836 
L 81.081213 -245.368022 
L 81.234594 -243.721208 
L 81.399027 -242.074394 
L 81.573832 -240.427579 
L 81.758082 -238.780765 
L 81.95061 -237.133951 
L 82.150009 -235.487137 
L 82.354658 -233.840323 
L 82.562745 -232.193509 
L 82.772301 -230.546695 
L 82.98124 -228.899881 
L 83.187408 -227.253067 
L 83.388632 -225.606253 
L 83.582776 -223.959439 
L 83.767794 -222.312625 
L 83.941785 -220.665811 
L 84.103042 -219.018997 
L 84.2501 -217.372183 
L 84.381772 -215.725369 
L 84.49718 -214.078555 
L 84.595776 -212.431741 
L 84.677349 -210.784927 
L 84.742026 -209.138112 
L 84.79026 -207.491298 
L 84.822804 -205.844484 
L 84.84068 -204.19767 
L 84.845141 -202.550856 
L 84.837615 -200.904042 
L 84.819662 -199.257228 
L 84.792914 -197.610414 
L 84.759022 -195.9636 
L 84.7196 -194.316786 
L 84.67618 -192.669972 
L 84.630169 -191.023158 
L 84.582809 -189.376344 
L 84.535153 -187.72953 
L 84.488049 -186.082716 
L 84.442128 -184.435902 
L 84.397804 -182.789088 
L 84.355287 -181.142274 
L 84.314594 -179.49546 
L 84.275573 -177.848645 
L 84.237929 -176.201831 
L 84.201248 -174.555017 
L 84.16503 -172.908203 
L 84.128713 -171.261389 
L 84.091701 -169.614575 
L 84.053384 -167.967761 
L 84.013158 -166.320947 
L 83.970441 -164.674133 
L 83.924679 -163.027319 
L 83.875361 -161.380505 
L 83.822016 -159.733691 
L 83.76422 -158.086877 
L 83.701596 -156.440063 
L 83.633818 -154.793249 
L 83.560608 -153.146435 
L 83.481744 -151.499621 
L 83.397061 -149.852807 
L 83.306459 -148.205993 
L 83.209908 -146.559178 
L 83.107457 -144.912364 
L 82.999243 -143.26555 
L 82.885494 -141.618736 
L 82.766539 -139.971922 
L 82.64281 -138.325108 
L 82.514841 -136.678294 
L 82.383265 -135.03148 
L 82.24881 -133.384666 
L 82.112282 -131.737852 
L 81.974555 -130.091038 
L 81.836553 -128.444224 
L 81.699225 -126.79741 
L 81.563528 -125.150596 
L 81.4304 -123.503782 
L 81.30074 -121.856968 
L 81.175385 -120.210154 
L 81.055091 -118.56334 
L 80.940517 -116.916526 
L 80.832215 -115.269711 
L 80.730616 -113.622897 
L 80.636032 -111.976083 
L 80.548651 -110.329269 
L 80.468542 -108.682455 
L 80.395664 -107.035641 
L 80.329872 -105.388827 
L 80.270935 -103.742013 
L 80.218545 -102.095199 
L 80.172331 -100.448385 
L 80.131879 -98.801571 
L 80.096742 -97.154757 
z
" style="stroke: #404040; stroke-width: 1.25"/>
    </defs>
    <g clip-path="url(#pe8074a28b4)">
     <use xlink:href="#m593974f3ce" x="0" y="345.6" style="fill: #e6e6e6; stroke: #404040; stroke-width: 1.25"/>
    </g>
   </g>
   <g id="PolyCollection_2">
    <defs>
     <path id="mf28e65761e" d="M 124.708734 -107.217184 
L 124.411266 -107.217184 
L 124.380896 -109.028334 
L 124.345697 -110.839484 
L 124.305193 -112.650635 
L 124.258912 -114.461785 
L 124.206399 -116.272935 
L 124.147226 -118.084086 
L 124.081003 -119.895236 
L 124.007393 -121.706386 
L 123.926119 -123.517536 
L 123.836982 -125.328687 
L 123.739865 -127.139837 
L 123.634748 -128.950987 
L 123.521715 -130.762138 
L 123.400964 -132.573288 
L 123.272811 -134.384438 
L 123.137698 -136.195589 
L 122.996192 -138.006739 
L 122.848991 -139.817889 
L 122.696921 -141.62904 
L 122.540931 -143.44019 
L 122.38209 -145.25134 
L 122.221577 -147.062491 
L 122.060666 -148.873641 
L 121.900714 -150.684791 
L 121.743137 -152.495942 
L 121.589391 -154.307092 
L 121.440937 -156.118242 
L 121.299217 -157.929393 
L 121.165615 -159.740543 
L 121.04142 -161.551693 
L 120.92779 -163.362844 
L 120.825712 -165.173994 
L 120.735968 -166.985144 
L 120.659098 -168.796295 
L 120.595378 -170.607445 
L 120.544794 -172.418595 
L 120.507032 -174.229745 
L 120.481475 -176.040896 
L 120.467214 -177.852046 
L 120.463063 -179.663196 
L 120.467594 -181.474347 
L 120.479179 -183.285497 
L 120.496038 -185.096647 
L 120.516301 -186.907798 
L 120.538075 -188.718948 
L 120.559507 -190.530098 
L 120.578857 -192.341249 
L 120.594562 -194.152399 
L 120.6053 -195.963549 
L 120.610039 -197.7747 
L 120.608082 -199.58585 
L 120.599098 -201.397 
L 120.583135 -203.208151 
L 120.560629 -205.019301 
L 120.532387 -206.830451 
L 120.499564 -208.641602 
L 120.463623 -210.452752 
L 120.426287 -212.263902 
L 120.389478 -214.075053 
L 120.355253 -215.886203 
L 120.325733 -217.697353 
L 120.303033 -219.508504 
L 120.289187 -221.319654 
L 120.286087 -223.130804 
L 120.295417 -224.941955 
L 120.318605 -226.753105 
L 120.356774 -228.564255 
L 120.410709 -230.375405 
L 120.480844 -232.186556 
L 120.56724 -233.997706 
L 120.669597 -235.808856 
L 120.787263 -237.620007 
L 120.919261 -239.431157 
L 121.064316 -241.242307 
L 121.220903 -243.053458 
L 121.387289 -244.864608 
L 121.561585 -246.675758 
L 121.741801 -248.486909 
L 121.925898 -250.298059 
L 122.11184 -252.109209 
L 122.297643 -253.92036 
L 122.481425 -255.73151 
L 122.661436 -257.54266 
L 122.836099 -259.353811 
L 123.004032 -261.164961 
L 123.164063 -262.976111 
L 123.315246 -264.787262 
L 123.456861 -266.598412 
L 123.588408 -268.409562 
L 123.709601 -270.220713 
L 123.820351 -272.031863 
L 123.920748 -273.843013 
L 124.011038 -275.654164 
L 124.0916 -277.465314 
L 124.162921 -279.276464 
L 124.225571 -281.087614 
L 124.280179 -282.898765 
L 124.327411 -284.709915 
L 124.367951 -286.521065 
L 124.752049 -286.521065 
L 124.752049 -286.521065 
L 124.792589 -284.709915 
L 124.839821 -282.898765 
L 124.894429 -281.087614 
L 124.957079 -279.276464 
L 125.0284 -277.465314 
L 125.108962 -275.654164 
L 125.199252 -273.843013 
L 125.299649 -272.031863 
L 125.410399 -270.220713 
L 125.531592 -268.409562 
L 125.663139 -266.598412 
L 125.804754 -264.787262 
L 125.955937 -262.976111 
L 126.115968 -261.164961 
L 126.283901 -259.353811 
L 126.458564 -257.54266 
L 126.638575 -255.73151 
L 126.822357 -253.92036 
L 127.00816 -252.109209 
L 127.194102 -250.298059 
L 127.378199 -248.486909 
L 127.558415 -246.675758 
L 127.732711 -244.864608 
L 127.899097 -243.053458 
L 128.055684 -241.242307 
L 128.200739 -239.431157 
L 128.332737 -237.620007 
L 128.450403 -235.808856 
L 128.55276 -233.997706 
L 128.639156 -232.186556 
L 128.709291 -230.375405 
L 128.763226 -228.564255 
L 128.801395 -226.753105 
L 128.824583 -224.941955 
L 128.833913 -223.130804 
L 128.830813 -221.319654 
L 128.816967 -219.508504 
L 128.794267 -217.697353 
L 128.764747 -215.886203 
L 128.730522 -214.075053 
L 128.693713 -212.263902 
L 128.656377 -210.452752 
L 128.620436 -208.641602 
L 128.587613 -206.830451 
L 128.559371 -205.019301 
L 128.536865 -203.208151 
L 128.520902 -201.397 
L 128.511918 -199.58585 
L 128.509961 -197.7747 
L 128.5147 -195.963549 
L 128.525438 -194.152399 
L 128.541143 -192.341249 
L 128.560493 -190.530098 
L 128.581925 -188.718948 
L 128.603699 -186.907798 
L 128.623962 -185.096647 
L 128.640821 -183.285497 
L 128.652406 -181.474347 
L 128.656937 -179.663196 
L 128.652786 -177.852046 
L 128.638525 -176.040896 
L 128.612968 -174.229745 
L 128.575206 -172.418595 
L 128.524622 -170.607445 
L 128.460902 -168.796295 
L 128.384032 -166.985144 
L 128.294288 -165.173994 
L 128.19221 -163.362844 
L 128.07858 -161.551693 
L 127.954385 -159.740543 
L 127.820783 -157.929393 
L 127.679063 -156.118242 
L 127.530609 -154.307092 
L 127.376863 -152.495942 
L 127.219286 -150.684791 
L 127.059334 -148.873641 
L 126.898423 -147.062491 
L 126.73791 -145.25134 
L 126.579069 -143.44019 
L 126.423079 -141.62904 
L 126.271009 -139.817889 
L 126.123808 -138.006739 
L 125.982302 -136.195589 
L 125.847189 -134.384438 
L 125.719036 -132.573288 
L 125.598285 -130.762138 
L 125.485252 -128.950987 
L 125.380135 -127.139837 
L 125.283018 -125.328687 
L 125.193881 -123.517536 
L 125.112607 -121.706386 
L 125.038997 -119.895236 
L 124.972774 -118.084086 
L 124.913601 -116.272935 
L 124.861088 -114.461785 
L 124.814807 -112.650635 
L 124.774303 -110.839484 
L 124.739104 -109.028334 
L 124.708734 -107.217184 
z
" style="stroke: #404040; stroke-width: 1.25"/>
    </defs>
    <g clip-path="url(#pe8074a28b4)">
     <use xlink:href="#mf28e65761e" x="0" y="345.6" style="fill: #e6e6e6; stroke: #404040; stroke-width: 1.25"/>
    </g>
   </g>
   <g id="PolyCollection_3">
    <defs>
     <path id="m942055baff" d="M 169.445088 -90.13663 
L 168.954912 -90.13663 
L 168.902149 -91.36238 
L 168.840301 -92.588129 
L 168.768303 -93.813878 
L 168.685062 -95.039628 
L 168.589477 -96.265377 
L 168.48046 -97.491126 
L 168.356961 -98.716876 
L 168.217996 -99.942625 
L 168.062675 -101.168374 
L 167.890243 -102.394124 
L 167.700107 -103.619873 
L 167.491876 -104.845622 
L 167.265399 -106.071371 
L 167.020797 -107.297121 
L 166.758504 -108.52287 
L 166.479294 -109.748619 
L 166.184306 -110.974369 
L 165.875072 -112.200118 
L 165.553523 -113.425867 
L 165.221994 -114.651617 
L 164.883217 -115.877366 
L 164.5403 -117.103115 
L 164.196689 -118.328865 
L 163.85612 -119.554614 
L 163.522554 -120.780363 
L 163.2001 -122.006113 
L 162.89292 -123.231862 
L 162.605132 -124.457611 
L 162.340696 -125.683361 
L 162.103303 -126.90911 
L 161.896264 -128.134859 
L 161.722399 -129.360609 
L 161.583945 -130.586358 
L 161.482469 -131.812107 
L 161.418804 -133.037857 
L 161.393014 -134.263606 
L 161.40437 -135.489355 
L 161.451365 -136.715105 
L 161.531749 -137.940854 
L 161.642594 -139.166603 
L 161.780379 -140.392353 
L 161.941098 -141.618102 
L 162.120381 -142.843851 
L 162.313631 -144.0696 
L 162.516158 -145.29535 
L 162.723329 -146.521099 
L 162.930691 -147.746848 
L 163.134107 -148.972598 
L 163.329861 -150.198347 
L 163.514753 -151.424096 
L 163.686176 -152.649846 
L 163.842161 -153.875595 
L 163.981412 -155.101344 
L 164.103308 -156.327094 
L 164.207891 -157.552843 
L 164.295826 -158.778592 
L 164.368351 -160.004342 
L 164.427204 -161.230091 
L 164.474545 -162.45584 
L 164.512859 -163.68159 
L 164.544864 -164.907339 
L 164.573405 -166.133088 
L 164.601359 -167.358838 
L 164.631539 -168.584587 
L 164.6666 -169.810336 
L 164.708966 -171.036086 
L 164.760756 -172.261835 
L 164.82373 -173.487584 
L 164.899252 -174.713334 
L 164.988256 -175.939083 
L 165.091245 -177.164832 
L 165.208285 -178.390582 
L 165.339029 -179.616331 
L 165.482744 -180.84208 
L 165.63835 -182.06783 
L 165.804472 -183.293579 
L 165.979489 -184.519328 
L 166.161599 -185.745077 
L 166.348876 -186.970827 
L 166.539328 -188.196576 
L 166.73096 -189.422325 
L 166.921822 -190.648075 
L 167.110063 -191.873824 
L 167.293965 -193.099573 
L 167.471982 -194.325323 
L 167.642767 -195.551072 
L 167.805183 -196.776821 
L 167.958321 -198.002571 
L 168.101497 -199.22832 
L 168.234251 -200.454069 
L 168.356333 -201.679819 
L 168.467692 -202.905568 
L 168.568453 -204.131317 
L 168.658897 -205.357067 
L 168.739436 -206.582816 
L 168.810587 -207.808565 
L 168.872948 -209.034315 
L 168.927176 -210.260064 
L 168.973959 -211.485813 
L 169.426041 -211.485813 
L 169.426041 -211.485813 
L 169.472824 -210.260064 
L 169.527052 -209.034315 
L 169.589413 -207.808565 
L 169.660564 -206.582816 
L 169.741103 -205.357067 
L 169.831547 -204.131317 
L 169.932308 -202.905568 
L 170.043667 -201.679819 
L 170.165749 -200.454069 
L 170.298503 -199.22832 
L 170.441679 -198.002571 
L 170.594817 -196.776821 
L 170.757233 -195.551072 
L 170.928018 -194.325323 
L 171.106035 -193.099573 
L 171.289937 -191.873824 
L 171.478178 -190.648075 
L 171.66904 -189.422325 
L 171.860672 -188.196576 
L 172.051124 -186.970827 
L 172.238401 -185.745077 
L 172.420511 -184.519328 
L 172.595528 -183.293579 
L 172.76165 -182.06783 
L 172.917256 -180.84208 
L 173.060971 -179.616331 
L 173.191715 -178.390582 
L 173.308755 -177.164832 
L 173.411744 -175.939083 
L 173.500748 -174.713334 
L 173.57627 -173.487584 
L 173.639244 -172.261835 
L 173.691034 -171.036086 
L 173.7334 -169.810336 
L 173.768461 -168.584587 
L 173.798641 -167.358838 
L 173.826595 -166.133088 
L 173.855136 -164.907339 
L 173.887141 -163.68159 
L 173.925455 -162.45584 
L 173.972796 -161.230091 
L 174.031649 -160.004342 
L 174.104174 -158.778592 
L 174.192109 -157.552843 
L 174.296692 -156.327094 
L 174.418588 -155.101344 
L 174.557839 -153.875595 
L 174.713824 -152.649846 
L 174.885247 -151.424096 
L 175.070139 -150.198347 
L 175.265893 -148.972598 
L 175.469309 -147.746848 
L 175.676671 -146.521099 
L 175.883842 -145.29535 
L 176.086369 -144.0696 
L 176.279619 -142.843851 
L 176.458902 -141.618102 
L 176.619621 -140.392353 
L 176.757406 -139.166603 
L 176.868251 -137.940854 
L 176.948635 -136.715105 
L 176.99563 -135.489355 
L 177.006986 -134.263606 
L 176.981196 -133.037857 
L 176.917531 -131.812107 
L 176.816055 -130.586358 
L 176.677601 -129.360609 
L 176.503736 -128.134859 
L 176.296697 -126.90911 
L 176.059304 -125.683361 
L 175.794868 -124.457611 
L 175.50708 -123.231862 
L 175.1999 -122.006113 
L 174.877446 -120.780363 
L 174.54388 -119.554614 
L 174.203311 -118.328865 
L 173.8597 -117.103115 
L 173.516783 -115.877366 
L 173.178006 -114.651617 
L 172.846477 -113.425867 
L 172.524928 -112.200118 
L 172.215694 -110.974369 
L 171.920706 -109.748619 
L 171.641496 -108.52287 
L 171.379203 -107.297121 
L 171.134601 -106.071371 
L 170.908124 -104.845622 
L 170.699893 -103.619873 
L 170.509757 -102.394124 
L 170.337325 -101.168374 
L 170.182004 -99.942625 
L 170.043039 -98.716876 
L 169.91954 -97.491126 
L 169.810523 -96.265377 
L 169.714938 -95.039628 
L 169.631697 -93.813878 
L 169.559699 -92.588129 
L 169.497851 -91.36238 
L 169.445088 -90.13663 
z
" style="stroke: #404040; stroke-width: 1.25"/>
    </defs>
    <g clip-path="url(#pe8074a28b4)">
     <use xlink:href="#m942055baff" x="0" y="345.6" style="fill: #e6e6e6; stroke: #404040; stroke-width: 1.25"/>
    </g>
   </g>
   <g id="PolyCollection_4">
    <defs>
     <path id="m45f211f0a8" d="M 213.99117 -92.873536 
L 213.68883 -92.873536 
L 213.658449 -94.459472 
L 213.623624 -96.045409 
L 213.584054 -97.631345 
L 213.539477 -99.217282 
L 213.489675 -100.803218 
L 213.434483 -102.389155 
L 213.373786 -103.975091 
L 213.307516 -105.561027 
L 213.235642 -107.146964 
L 213.158159 -108.7329 
L 213.07507 -110.318837 
L 212.986361 -111.904773 
L 212.891978 -113.49071 
L 212.791802 -115.076646 
L 212.685625 -116.662583 
L 212.573129 -118.248519 
L 212.453874 -119.834456 
L 212.327294 -121.420392 
L 212.192708 -123.006329 
L 212.049337 -124.592265 
L 211.896344 -126.178202 
L 211.732886 -127.764138 
L 211.558177 -129.350075 
L 211.371565 -130.936011 
L 211.172616 -132.521948 
L 210.961204 -134.107884 
L 210.737587 -135.693821 
L 210.50249 -137.279757 
L 210.257162 -138.865693 
L 210.003413 -140.45163 
L 209.74363 -142.037566 
L 209.48076 -143.623503 
L 209.218261 -145.209439 
L 208.960021 -146.795376 
L 208.710247 -148.381312 
L 208.473329 -149.967249 
L 208.253686 -151.553185 
L 208.05559 -153.139122 
L 207.883 -154.725058 
L 207.739389 -156.310995 
L 207.627592 -157.896931 
L 207.549673 -159.482868 
L 207.506828 -161.068804 
L 207.499321 -162.654741 
L 207.526455 -164.240677 
L 207.586593 -165.826614 
L 207.677217 -167.41255 
L 207.795018 -168.998487 
L 207.936029 -170.584423 
L 208.095778 -172.170359 
L 208.269459 -173.756296 
L 208.452119 -175.342232 
L 208.638839 -176.928169 
L 208.824918 -178.514105 
L 209.006032 -180.100042 
L 209.178383 -181.685978 
L 209.338818 -183.271915 
L 209.484912 -184.857851 
L 209.615031 -186.443788 
L 209.728351 -188.029724 
L 209.824849 -189.615661 
L 209.905261 -191.201597 
L 209.971014 -192.787534 
L 210.024129 -194.37347 
L 210.067112 -195.959407 
L 210.102824 -197.545343 
L 210.134343 -199.13128 
L 210.164828 -200.717216 
L 210.197383 -202.303153 
L 210.234929 -203.889089 
L 210.28009 -205.475026 
L 210.335101 -207.060962 
L 210.401727 -208.646898 
L 210.481218 -210.232835 
L 210.574276 -211.818771 
L 210.681056 -213.404708 
L 210.80118 -214.990644 
L 210.933784 -216.576581 
L 211.07757 -218.162517 
L 211.230884 -219.748454 
L 211.391789 -221.33439 
L 211.558164 -222.920327 
L 211.727783 -224.506263 
L 211.898403 -226.0922 
L 212.067847 -227.678136 
L 212.234071 -229.264073 
L 212.395219 -230.850009 
L 212.549674 -232.435946 
L 212.696086 -234.021882 
L 212.833388 -235.607819 
L 212.960803 -237.193755 
L 213.077836 -238.779692 
L 213.18426 -240.365628 
L 213.280084 -241.951564 
L 213.365531 -243.537501 
L 213.440998 -245.123437 
L 213.507025 -246.709374 
L 213.564255 -248.29531 
L 213.613404 -249.881247 
L 214.066596 -249.881247 
L 214.066596 -249.881247 
L 214.115745 -248.29531 
L 214.172975 -246.709374 
L 214.239002 -245.123437 
L 214.314469 -243.537501 
L 214.399916 -241.951564 
L 214.49574 -240.365628 
L 214.602164 -238.779692 
L 214.719197 -237.193755 
L 214.846612 -235.607819 
L 214.983914 -234.021882 
L 215.130326 -232.435946 
L 215.284781 -230.850009 
L 215.445929 -229.264073 
L 215.612153 -227.678136 
L 215.781597 -226.0922 
L 215.952217 -224.506263 
L 216.121836 -222.920327 
L 216.288211 -221.33439 
L 216.449116 -219.748454 
L 216.60243 -218.162517 
L 216.746216 -216.576581 
L 216.87882 -214.990644 
L 216.998944 -213.404708 
L 217.105724 -211.818771 
L 217.198782 -210.232835 
L 217.278273 -208.646898 
L 217.344899 -207.060962 
L 217.39991 -205.475026 
L 217.445071 -203.889089 
L 217.482617 -202.303153 
L 217.515172 -200.717216 
L 217.545657 -199.13128 
L 217.577176 -197.545343 
L 217.612888 -195.959407 
L 217.655871 -194.37347 
L 217.708986 -192.787534 
L 217.774739 -191.201597 
L 217.855151 -189.615661 
L 217.951649 -188.029724 
L 218.064969 -186.443788 
L 218.195088 -184.857851 
L 218.341182 -183.271915 
L 218.501617 -181.685978 
L 218.673968 -180.100042 
L 218.855082 -178.514105 
L 219.041161 -176.928169 
L 219.227881 -175.342232 
L 219.410541 -173.756296 
L 219.584222 -172.170359 
L 219.743971 -170.584423 
L 219.884982 -168.998487 
L 220.002783 -167.41255 
L 220.093407 -165.826614 
L 220.153545 -164.240677 
L 220.180679 -162.654741 
L 220.173172 -161.068804 
L 220.130327 -159.482868 
L 220.052408 -157.896931 
L 219.940611 -156.310995 
L 219.797 -154.725058 
L 219.62441 -153.139122 
L 219.426314 -151.553185 
L 219.206671 -149.967249 
L 218.969753 -148.381312 
L 218.719979 -146.795376 
L 218.461739 -145.209439 
L 218.19924 -143.623503 
L 217.93637 -142.037566 
L 217.676587 -140.45163 
L 217.422838 -138.865693 
L 217.17751 -137.279757 
L 216.942413 -135.693821 
L 216.718796 -134.107884 
L 216.507384 -132.521948 
L 216.308435 -130.936011 
L 216.121823 -129.350075 
L 215.947114 -127.764138 
L 215.783656 -126.178202 
L 215.630663 -124.592265 
L 215.487292 -123.006329 
L 215.352706 -121.420392 
L 215.226126 -119.834456 
L 215.106871 -118.248519 
L 214.994375 -116.662583 
L 214.888198 -115.076646 
L 214.788022 -113.49071 
L 214.693639 -111.904773 
L 214.60493 -110.318837 
L 214.521841 -108.7329 
L 214.444358 -107.146964 
L 214.372484 -105.561027 
L 214.306214 -103.975091 
L 214.245517 -102.389155 
L 214.190325 -100.803218 
L 214.140523 -99.217282 
L 214.095946 -97.631345 
L 214.056376 -96.045409 
L 214.021551 -94.459472 
L 213.99117 -92.873536 
z
" style="stroke: #404040; stroke-width: 1.25"/>
    </defs>
    <g clip-path="url(#pe8074a28b4)">
     <use xlink:href="#m45f211f0a8" x="0" y="345.6" style="fill: #e6e6e6; stroke: #404040; stroke-width: 1.25"/>
    </g>
   </g>
   <g id="PolyCollection_5">
    <defs>
     <path id="m1486f224df" d="M 258.878781 -227.383875 
L 258.081219 -227.383875 
L 257.993993 -228.036887 
L 257.893252 -228.689898 
L 257.778227 -229.342909 
L 257.648391 -229.995921 
L 257.503512 -230.648932 
L 257.343697 -231.301943 
L 257.169414 -231.954955 
L 256.98151 -232.607966 
L 256.781191 -233.260977 
L 256.569992 -233.913989 
L 256.349712 -234.567 
L 256.122335 -235.220012 
L 255.889917 -235.873023 
L 255.654476 -236.526034 
L 255.417852 -237.179046 
L 255.181586 -237.832057 
L 254.946792 -238.485068 
L 254.714048 -239.13808 
L 254.48332 -239.791091 
L 254.2539 -240.444102 
L 254.024393 -241.097114 
L 253.792733 -241.750125 
L 253.556241 -242.403137 
L 253.31171 -243.056148 
L 253.055532 -243.709159 
L 252.783836 -244.362171 
L 252.492658 -245.015182 
L 252.178111 -245.668193 
L 251.836561 -246.321205 
L 251.464807 -246.974216 
L 251.060242 -247.627227 
L 250.621008 -248.280239 
L 250.146132 -248.93325 
L 249.635642 -249.586261 
L 249.090661 -250.239273 
L 248.513471 -250.892284 
L 247.907559 -251.545296 
L 247.277623 -252.198307 
L 246.629553 -252.851318 
L 245.970378 -253.50433 
L 245.30817 -254.157341 
L 244.651918 -254.810352 
L 244.01136 -255.463364 
L 243.396786 -256.116375 
L 242.818794 -256.769386 
L 242.288037 -257.422398 
L 241.814926 -258.075409 
L 241.409335 -258.728421 
L 241.080297 -259.381432 
L 240.835699 -260.034443 
L 240.682004 -260.687455 
L 240.624 -261.340466 
L 240.664586 -261.993477 
L 240.804619 -262.646489 
L 241.042817 -263.2995 
L 241.375733 -263.952511 
L 241.797816 -264.605523 
L 242.301532 -265.258534 
L 242.877582 -265.911546 
L 243.515177 -266.564557 
L 244.202385 -267.217568 
L 244.926525 -267.87058 
L 245.674595 -268.523591 
L 246.433713 -269.176602 
L 247.19155 -269.829614 
L 247.936741 -270.482625 
L 248.659239 -271.135636 
L 249.350603 -271.788648 
L 250.00421 -272.441659 
L 250.615368 -273.094671 
L 251.181336 -273.747682 
L 251.701249 -274.400693 
L 252.175958 -275.053705 
L 252.607792 -275.706716 
L 253.000267 -276.359727 
L 253.357757 -277.012739 
L 253.685153 -277.66575 
L 253.987521 -278.318761 
L 254.269798 -278.971773 
L 254.536521 -279.624784 
L 254.791621 -280.277795 
L 255.038272 -280.930807 
L 255.278816 -281.583818 
L 255.514739 -282.23683 
L 255.746721 -282.889841 
L 255.974722 -283.542852 
L 256.198104 -284.195864 
L 256.415785 -284.848875 
L 256.626394 -285.501886 
L 256.828423 -286.154898 
L 257.020374 -286.807909 
L 257.200873 -287.46092 
L 257.368773 -288.113932 
L 257.52321 -288.766943 
L 257.663648 -289.419955 
L 257.789886 -290.072966 
L 257.902046 -290.725977 
L 258.000542 -291.378989 
L 258.086036 -292.032 
L 258.873964 -292.032 
L 258.873964 -292.032 
L 258.959458 -291.378989 
L 259.057954 -290.725977 
L 259.170114 -290.072966 
L 259.296352 -289.419955 
L 259.43679 -288.766943 
L 259.591227 -288.113932 
L 259.759127 -287.46092 
L 259.939626 -286.807909 
L 260.131577 -286.154898 
L 260.333606 -285.501886 
L 260.544215 -284.848875 
L 260.761896 -284.195864 
L 260.985278 -283.542852 
L 261.213279 -282.889841 
L 261.445261 -282.23683 
L 261.681184 -281.583818 
L 261.921728 -280.930807 
L 262.168379 -280.277795 
L 262.423479 -279.624784 
L 262.690202 -278.971773 
L 262.972479 -278.318761 
L 263.274847 -277.66575 
L 263.602243 -277.012739 
L 263.959733 -276.359727 
L 264.352208 -275.706716 
L 264.784042 -275.053705 
L 265.258751 -274.400693 
L 265.778664 -273.747682 
L 266.344632 -273.094671 
L 266.95579 -272.441659 
L 267.609397 -271.788648 
L 268.300761 -271.135636 
L 269.023259 -270.482625 
L 269.76845 -269.829614 
L 270.526287 -269.176602 
L 271.285405 -268.523591 
L 272.033475 -267.87058 
L 272.757615 -267.217568 
L 273.444823 -266.564557 
L 274.082418 -265.911546 
L 274.658468 -265.258534 
L 275.162184 -264.605523 
L 275.584267 -263.952511 
L 275.917183 -263.2995 
L 276.155381 -262.646489 
L 276.295414 -261.993477 
L 276.336 -261.340466 
L 276.277996 -260.687455 
L 276.124301 -260.034443 
L 275.879703 -259.381432 
L 275.550665 -258.728421 
L 275.145074 -258.075409 
L 274.671963 -257.422398 
L 274.141206 -256.769386 
L 273.563214 -256.116375 
L 272.94864 -255.463364 
L 272.308082 -254.810352 
L 271.65183 -254.157341 
L 270.989622 -253.50433 
L 270.330447 -252.851318 
L 269.682377 -252.198307 
L 269.052441 -251.545296 
L 268.446529 -250.892284 
L 267.869339 -250.239273 
L 267.324358 -249.586261 
L 266.813868 -248.93325 
L 266.338992 -248.280239 
L 265.899758 -247.627227 
L 265.495193 -246.974216 
L 265.123439 -246.321205 
L 264.781889 -245.668193 
L 264.467342 -245.015182 
L 264.176164 -244.362171 
L 263.904468 -243.709159 
L 263.64829 -243.056148 
L 263.403759 -242.403137 
L 263.167267 -241.750125 
L 262.935607 -241.097114 
L 262.7061 -240.444102 
L 262.47668 -239.791091 
L 262.245952 -239.13808 
L 262.013208 -238.485068 
L 261.778414 -237.832057 
L 261.542148 -237.179046 
L 261.305524 -236.526034 
L 261.070083 -235.873023 
L 260.837665 -235.220012 
L 260.610288 -234.567 
L 260.390008 -233.913989 
L 260.178809 -233.260977 
L 259.97849 -232.607966 
L 259.790586 -231.954955 
L 259.616303 -231.301943 
L 259.456488 -230.648932 
L 259.311609 -229.995921 
L 259.181773 -229.342909 
L 259.066748 -228.689898 
L 258.966007 -228.036887 
L 258.878781 -227.383875 
z
" style="stroke: #404040; stroke-width: 1.25"/>
    </defs>
    <g clip-path="url(#pe8074a28b4)">
     <use xlink:href="#m1486f224df" x="0" y="345.6" style="fill: #e6e6e6; stroke: #404040; stroke-width: 1.25"/>
    </g>
   </g>
   <g id="PolyCollection_6">
    <defs>
     <path id="ma23b27e43a" d="M 304.052717 -220.701761 
L 302.187283 -220.701761 
L 302.01315 -221.26775 
L 301.815202 -221.833739 
L 301.591998 -222.399727 
L 301.342368 -222.965716 
L 301.065483 -223.531705 
L 300.760927 -224.097694 
L 300.428756 -224.663683 
L 300.069561 -225.229671 
L 299.684504 -225.79566 
L 299.275349 -226.361649 
L 298.84447 -226.927638 
L 298.394836 -227.493627 
L 297.929975 -228.059615 
L 297.453915 -228.625604 
L 296.971099 -229.191593 
L 296.486283 -229.757582 
L 296.004414 -230.323571 
L 295.530493 -230.889559 
L 295.069435 -231.455548 
L 294.625919 -232.021537 
L 294.204253 -232.587526 
L 293.808234 -233.153515 
L 293.441041 -233.719503 
L 293.105142 -234.285492 
L 292.802223 -234.851481 
L 292.533157 -235.41747 
L 292.297993 -235.983459 
L 292.095985 -236.549447 
L 291.925643 -237.115436 
L 291.784809 -237.681425 
L 291.670763 -238.247414 
L 291.580335 -238.813403 
L 291.510031 -239.379392 
L 291.456168 -239.94538 
L 291.414994 -240.511369 
L 291.382818 -241.077358 
L 291.356112 -241.643347 
L 291.331615 -242.209336 
L 291.306402 -242.775324 
L 291.277951 -243.341313 
L 291.244181 -243.907302 
L 291.203482 -244.473291 
L 291.15472 -245.03928 
L 291.097237 -245.605268 
L 291.030841 -246.171257 
L 290.955781 -246.737246 
L 290.872724 -247.303235 
L 290.782726 -247.869224 
L 290.687199 -248.435212 
L 290.58788 -249.001201 
L 290.486797 -249.56719 
L 290.386237 -250.133179 
L 290.288709 -250.699168 
L 290.196907 -251.265156 
L 290.113673 -251.831145 
L 290.041951 -252.397134 
L 289.984743 -252.963123 
L 289.945058 -253.529112 
L 289.925857 -254.0951 
L 289.929998 -254.661089 
L 289.960172 -255.227078 
L 290.018849 -255.793067 
L 290.108208 -256.359056 
L 290.230089 -256.925044 
L 290.385931 -257.491033 
L 290.576727 -258.057022 
L 290.802984 -258.623011 
L 291.06469 -259.189 
L 291.361298 -259.754988 
L 291.691713 -260.320977 
L 292.054305 -260.886966 
L 292.44692 -261.452955 
L 292.866921 -262.018944 
L 293.311225 -262.584933 
L 293.776369 -263.150921 
L 294.258568 -263.71691 
L 294.753799 -264.282899 
L 295.25788 -264.848888 
L 295.766554 -265.414877 
L 296.27558 -265.980865 
L 296.780814 -266.546854 
L 297.278295 -267.112843 
L 297.764313 -267.678832 
L 298.235481 -268.244821 
L 298.688785 -268.810809 
L 299.121628 -269.376798 
L 299.53186 -269.942787 
L 299.917793 -270.508776 
L 300.278204 -271.074765 
L 300.612328 -271.640753 
L 300.919835 -272.206742 
L 301.200801 -272.772731 
L 301.455666 -273.33872 
L 301.685195 -273.904709 
L 301.890426 -274.470697 
L 302.072619 -275.036686 
L 302.233206 -275.602675 
L 302.37374 -276.168664 
L 302.49585 -276.734653 
L 303.74415 -276.734653 
L 303.74415 -276.734653 
L 303.86626 -276.168664 
L 304.006794 -275.602675 
L 304.167381 -275.036686 
L 304.349574 -274.470697 
L 304.554805 -273.904709 
L 304.784334 -273.33872 
L 305.039199 -272.772731 
L 305.320165 -272.206742 
L 305.627672 -271.640753 
L 305.961796 -271.074765 
L 306.322207 -270.508776 
L 306.70814 -269.942787 
L 307.118372 -269.376798 
L 307.551215 -268.810809 
L 308.004519 -268.244821 
L 308.475687 -267.678832 
L 308.961705 -267.112843 
L 309.459186 -266.546854 
L 309.96442 -265.980865 
L 310.473446 -265.414877 
L 310.98212 -264.848888 
L 311.486201 -264.282899 
L 311.981432 -263.71691 
L 312.463631 -263.150921 
L 312.928775 -262.584933 
L 313.373079 -262.018944 
L 313.79308 -261.452955 
L 314.185695 -260.886966 
L 314.548287 -260.320977 
L 314.878702 -259.754988 
L 315.17531 -259.189 
L 315.437016 -258.623011 
L 315.663273 -258.057022 
L 315.854069 -257.491033 
L 316.009911 -256.925044 
L 316.131792 -256.359056 
L 316.221151 -255.793067 
L 316.279828 -255.227078 
L 316.310002 -254.661089 
L 316.314143 -254.0951 
L 316.294942 -253.529112 
L 316.255257 -252.963123 
L 316.198049 -252.397134 
L 316.126327 -251.831145 
L 316.043093 -251.265156 
L 315.951291 -250.699168 
L 315.853763 -250.133179 
L 315.753203 -249.56719 
L 315.65212 -249.001201 
L 315.552801 -248.435212 
L 315.457274 -247.869224 
L 315.367276 -247.303235 
L 315.284219 -246.737246 
L 315.209159 -246.171257 
L 315.142763 -245.605268 
L 315.08528 -245.03928 
L 315.036518 -244.473291 
L 314.995819 -243.907302 
L 314.962049 -243.341313 
L 314.933598 -242.775324 
L 314.908385 -242.209336 
L 314.883888 -241.643347 
L 314.857182 -241.077358 
L 314.825006 -240.511369 
L 314.783832 -239.94538 
L 314.729969 -239.379392 
L 314.659665 -238.813403 
L 314.569237 -238.247414 
L 314.455191 -237.681425 
L 314.314357 -237.115436 
L 314.144015 -236.549447 
L 313.942007 -235.983459 
L 313.706843 -235.41747 
L 313.437777 -234.851481 
L 313.134858 -234.285492 
L 312.798959 -233.719503 
L 312.431766 -233.153515 
L 312.035747 -232.587526 
L 311.614081 -232.021537 
L 311.170565 -231.455548 
L 310.709507 -230.889559 
L 310.235586 -230.323571 
L 309.753717 -229.757582 
L 309.268901 -229.191593 
L 308.786085 -228.625604 
L 308.310025 -228.059615 
L 307.845164 -227.493627 
L 307.39553 -226.927638 
L 306.964651 -226.361649 
L 306.555496 -225.79566 
L 306.170439 -225.229671 
L 305.811244 -224.663683 
L 305.479073 -224.097694 
L 305.174517 -223.531705 
L 304.897632 -222.965716 
L 304.648002 -222.399727 
L 304.424798 -221.833739 
L 304.22685 -221.26775 
L 304.052717 -220.701761 
z
" style="stroke: #404040; stroke-width: 1.25"/>
    </defs>
    <g clip-path="url(#pe8074a28b4)">
     <use xlink:href="#ma23b27e43a" x="0" y="345.6" style="fill: #e6e6e6; stroke: #404040; stroke-width: 1.25"/>
    </g>
   </g>
   <g id="PolyCollection_7">
    <defs>
     <path id="m6207dbe66c" d="M 347.976204 -50.112 
L 347.543796 -50.112 
L 347.498194 -52.087355 
L 347.445324 -54.062711 
L 347.384575 -56.038066 
L 347.315399 -58.013422 
L 347.237344 -59.988777 
L 347.150081 -61.964133 
L 347.053436 -63.939488 
L 346.947413 -65.914844 
L 346.832224 -67.890199 
L 346.708306 -69.865555 
L 346.576338 -71.84091 
L 346.437239 -73.816265 
L 346.292175 -75.791621 
L 346.142535 -77.766976 
L 345.989915 -79.742332 
L 345.836076 -81.717687 
L 345.682905 -83.693043 
L 345.532356 -85.668398 
L 345.386392 -87.643754 
L 345.246917 -89.619109 
L 345.11571 -91.594465 
L 344.994354 -93.56982 
L 344.884174 -95.545175 
L 344.786177 -97.520531 
L 344.701008 -99.495886 
L 344.62891 -101.471242 
L 344.569703 -103.446597 
L 344.522782 -105.421953 
L 344.487123 -107.397308 
L 344.461315 -109.372664 
L 344.443605 -111.348019 
L 344.431954 -113.323375 
L 344.424116 -115.29873 
L 344.417722 -117.274085 
L 344.41037 -119.249441 
L 344.399727 -121.224796 
L 344.383626 -123.200152 
L 344.360162 -125.175507 
L 344.32778 -127.150863 
L 344.285353 -129.126218 
L 344.232247 -131.101574 
L 344.168361 -133.076929 
L 344.094156 -135.052285 
L 344.010653 -137.02764 
L 343.919413 -139.002995 
L 343.822493 -140.978351 
L 343.722377 -142.953706 
L 343.621887 -144.929062 
L 343.524085 -146.904417 
L 343.432151 -148.879773 
L 343.349265 -150.855128 
L 343.278478 -152.830484 
L 343.222597 -154.805839 
L 343.184072 -156.781195 
L 343.164904 -158.75655 
L 343.166568 -160.731905 
L 343.189966 -162.707261 
L 343.235401 -164.682616 
L 343.302576 -166.657972 
L 343.390629 -168.633327 
L 343.498176 -170.608683 
L 343.623389 -172.584038 
L 343.764083 -174.559394 
L 343.917812 -176.534749 
L 344.081977 -178.510105 
L 344.253924 -180.48546 
L 344.431046 -182.460815 
L 344.610867 -184.436171 
L 344.791115 -186.411526 
L 344.969781 -188.386882 
L 345.145151 -190.362237 
L 345.315832 -192.337593 
L 345.480747 -194.312948 
L 345.639126 -196.288304 
L 345.790478 -198.263659 
L 345.934554 -200.239015 
L 346.071304 -202.21437 
L 346.200834 -204.189726 
L 346.323359 -206.165081 
L 346.439159 -208.140436 
L 346.548548 -210.115792 
L 346.65184 -212.091147 
L 346.749324 -214.066503 
L 346.841257 -216.041858 
L 346.927848 -218.017214 
L 347.009265 -219.992569 
L 347.085631 -221.967925 
L 347.157039 -223.94328 
L 347.223561 -225.918636 
L 347.285258 -227.893991 
L 347.342191 -229.869346 
L 347.394433 -231.844702 
L 347.44208 -233.820057 
L 347.485252 -235.795413 
L 347.524097 -237.770768 
L 347.558796 -239.746124 
L 347.589559 -241.721479 
L 347.61662 -243.696835 
L 347.640238 -245.67219 
L 347.879762 -245.67219 
L 347.879762 -245.67219 
L 347.90338 -243.696835 
L 347.930441 -241.721479 
L 347.961204 -239.746124 
L 347.995903 -237.770768 
L 348.034748 -235.795413 
L 348.07792 -233.820057 
L 348.125567 -231.844702 
L 348.177809 -229.869346 
L 348.234742 -227.893991 
L 348.296439 -225.918636 
L 348.362961 -223.94328 
L 348.434369 -221.967925 
L 348.510735 -219.992569 
L 348.592152 -218.017214 
L 348.678743 -216.041858 
L 348.770676 -214.066503 
L 348.86816 -212.091147 
L 348.971452 -210.115792 
L 349.080841 -208.140436 
L 349.196641 -206.165081 
L 349.319166 -204.189726 
L 349.448696 -202.21437 
L 349.585446 -200.239015 
L 349.729522 -198.263659 
L 349.880874 -196.288304 
L 350.039253 -194.312948 
L 350.204168 -192.337593 
L 350.374849 -190.362237 
L 350.550219 -188.386882 
L 350.728885 -186.411526 
L 350.909133 -184.436171 
L 351.088954 -182.460815 
L 351.266076 -180.48546 
L 351.438023 -178.510105 
L 351.602188 -176.534749 
L 351.755917 -174.559394 
L 351.896611 -172.584038 
L 352.021824 -170.608683 
L 352.129371 -168.633327 
L 352.217424 -166.657972 
L 352.284599 -164.682616 
L 352.330034 -162.707261 
L 352.353432 -160.731905 
L 352.355096 -158.75655 
L 352.335928 -156.781195 
L 352.297403 -154.805839 
L 352.241522 -152.830484 
L 352.170735 -150.855128 
L 352.087849 -148.879773 
L 351.995915 -146.904417 
L 351.898113 -144.929062 
L 351.797623 -142.953706 
L 351.697507 -140.978351 
L 351.600587 -139.002995 
L 351.509347 -137.02764 
L 351.425844 -135.052285 
L 351.351639 -133.076929 
L 351.287753 -131.101574 
L 351.234647 -129.126218 
L 351.19222 -127.150863 
L 351.159838 -125.175507 
L 351.136374 -123.200152 
L 351.120273 -121.224796 
L 351.10963 -119.249441 
L 351.102278 -117.274085 
L 351.095884 -115.29873 
L 351.088046 -113.323375 
L 351.076395 -111.348019 
L 351.058685 -109.372664 
L 351.032877 -107.397308 
L 350.997218 -105.421953 
L 350.950297 -103.446597 
L 350.89109 -101.471242 
L 350.818992 -99.495886 
L 350.733823 -97.520531 
L 350.635826 -95.545175 
L 350.525646 -93.56982 
L 350.40429 -91.594465 
L 350.273083 -89.619109 
L 350.133608 -87.643754 
L 349.987644 -85.668398 
L 349.837095 -83.693043 
L 349.683924 -81.717687 
L 349.530085 -79.742332 
L 349.377465 -77.766976 
L 349.227825 -75.791621 
L 349.082761 -73.816265 
L 348.943662 -71.84091 
L 348.811694 -69.865555 
L 348.687776 -67.890199 
L 348.572587 -65.914844 
L 348.466564 -63.939488 
L 348.369919 -61.964133 
L 348.282656 -59.988777 
L 348.204601 -58.013422 
L 348.135425 -56.038066 
L 348.074676 -54.062711 
L 348.021806 -52.087355 
L 347.976204 -50.112 
z
" style="stroke: #404040; stroke-width: 1.25"/>
    </defs>
    <g clip-path="url(#pe8074a28b4)">
     <use xlink:href="#m6207dbe66c" x="0" y="345.6" style="fill: #e6e6e6; stroke: #404040; stroke-width: 1.25"/>
    </g>
   </g>
   <g id="PolyCollection_8">
    <defs>
     <path id="mcdfa2966b4" d="M 392.729713 -64.153929 
L 392.070287 -64.153929 
L 392.004712 -65.691366 
L 391.929452 -67.228803 
L 391.843821 -68.76624 
L 391.747236 -70.303677 
L 391.639253 -71.841114 
L 391.519603 -73.378551 
L 391.388225 -74.915988 
L 391.245293 -76.453425 
L 391.091246 -77.990862 
L 390.926801 -79.528298 
L 390.752967 -81.065735 
L 390.571044 -82.603172 
L 390.382609 -84.140609 
L 390.189494 -85.678046 
L 389.993751 -87.215483 
L 389.797601 -88.75292 
L 389.60338 -90.290357 
L 389.41347 -91.827794 
L 389.230222 -93.365231 
L 389.055886 -94.902668 
L 388.892526 -96.440105 
L 388.741947 -97.977542 
L 388.605629 -99.514979 
L 388.484665 -101.052416 
L 388.379716 -102.589853 
L 388.290981 -104.12729 
L 388.218182 -105.664727 
L 388.160571 -107.202164 
L 388.116952 -108.739601 
L 388.085723 -110.277038 
L 388.064936 -111.814475 
L 388.052369 -113.351912 
L 388.045609 -114.889349 
L 388.042148 -116.426786 
L 388.03948 -117.964223 
L 388.035197 -119.50166 
L 388.027087 -121.039097 
L 388.013216 -122.576534 
L 387.992009 -124.113971 
L 387.962308 -125.651408 
L 387.923422 -127.188845 
L 387.875146 -128.726282 
L 387.817778 -130.263719 
L 387.7521 -131.801156 
L 387.67935 -133.338593 
L 387.601177 -134.87603 
L 387.519572 -136.413467 
L 387.436801 -137.950904 
L 387.355316 -139.488341 
L 387.277667 -141.025778 
L 387.206414 -142.563215 
L 387.144037 -144.100652 
L 387.092855 -145.638089 
L 387.054953 -147.175526 
L 387.032118 -148.712963 
L 387.025795 -150.2504 
L 387.03705 -151.787837 
L 387.066555 -153.325274 
L 387.114583 -154.862711 
L 387.181021 -156.400148 
L 387.265396 -157.937585 
L 387.366906 -159.475022 
L 387.484469 -161.012459 
L 387.616769 -162.549896 
L 387.76231 -164.087333 
L 387.919469 -165.62477 
L 388.086549 -167.162207 
L 388.261824 -168.699644 
L 388.443583 -170.237081 
L 388.630167 -171.774518 
L 388.819996 -173.311955 
L 389.01159 -174.849392 
L 389.203582 -176.386829 
L 389.394728 -177.924266 
L 389.583908 -179.461703 
L 389.770121 -180.99914 
L 389.952484 -182.536577 
L 390.130218 -184.074014 
L 390.302645 -185.61145 
L 390.469174 -187.148887 
L 390.629299 -188.686324 
L 390.782586 -190.223761 
L 390.928673 -191.761198 
L 391.067264 -193.298635 
L 391.198126 -194.836072 
L 391.321094 -196.373509 
L 391.436061 -197.910946 
L 391.54299 -199.448383 
L 391.641903 -200.98582 
L 391.73289 -202.523257 
L 391.816099 -204.060694 
L 391.89174 -205.598131 
L 391.960076 -207.135568 
L 392.021421 -208.673005 
L 392.076132 -210.210442 
L 392.124603 -211.747879 
L 392.167254 -213.285316 
L 392.204525 -214.822753 
L 392.236866 -216.36019 
L 392.563134 -216.36019 
L 392.563134 -216.36019 
L 392.595475 -214.822753 
L 392.632746 -213.285316 
L 392.675397 -211.747879 
L 392.723868 -210.210442 
L 392.778579 -208.673005 
L 392.839924 -207.135568 
L 392.90826 -205.598131 
L 392.983901 -204.060694 
L 393.06711 -202.523257 
L 393.158097 -200.98582 
L 393.25701 -199.448383 
L 393.363939 -197.910946 
L 393.478906 -196.373509 
L 393.601874 -194.836072 
L 393.732736 -193.298635 
L 393.871327 -191.761198 
L 394.017414 -190.223761 
L 394.170701 -188.686324 
L 394.330826 -187.148887 
L 394.497355 -185.61145 
L 394.669782 -184.074014 
L 394.847516 -182.536577 
L 395.029879 -180.99914 
L 395.216092 -179.461703 
L 395.405272 -177.924266 
L 395.596418 -176.386829 
L 395.78841 -174.849392 
L 395.980004 -173.311955 
L 396.169833 -171.774518 
L 396.356417 -170.237081 
L 396.538176 -168.699644 
L 396.713451 -167.162207 
L 396.880531 -165.62477 
L 397.03769 -164.087333 
L 397.183231 -162.549896 
L 397.315531 -161.012459 
L 397.433094 -159.475022 
L 397.534604 -157.937585 
L 397.618979 -156.400148 
L 397.685417 -154.862711 
L 397.733445 -153.325274 
L 397.76295 -151.787837 
L 397.774205 -150.2504 
L 397.767882 -148.712963 
L 397.745047 -147.175526 
L 397.707145 -145.638089 
L 397.655963 -144.100652 
L 397.593586 -142.563215 
L 397.522333 -141.025778 
L 397.444684 -139.488341 
L 397.363199 -137.950904 
L 397.280428 -136.413467 
L 397.198823 -134.87603 
L 397.12065 -133.338593 
L 397.0479 -131.801156 
L 396.982222 -130.263719 
L 396.924854 -128.726282 
L 396.876578 -127.188845 
L 396.837692 -125.651408 
L 396.807991 -124.113971 
L 396.786784 -122.576534 
L 396.772913 -121.039097 
L 396.764803 -119.50166 
L 396.76052 -117.964223 
L 396.757852 -116.426786 
L 396.754391 -114.889349 
L 396.747631 -113.351912 
L 396.735064 -111.814475 
L 396.714277 -110.277038 
L 396.683048 -108.739601 
L 396.639429 -107.202164 
L 396.581818 -105.664727 
L 396.509019 -104.12729 
L 396.420284 -102.589853 
L 396.315335 -101.052416 
L 396.194371 -99.514979 
L 396.058053 -97.977542 
L 395.907474 -96.440105 
L 395.744114 -94.902668 
L 395.569778 -93.365231 
L 395.38653 -91.827794 
L 395.19662 -90.290357 
L 395.002399 -88.75292 
L 394.806249 -87.215483 
L 394.610506 -85.678046 
L 394.417391 -84.140609 
L 394.228956 -82.603172 
L 394.047033 -81.065735 
L 393.873199 -79.528298 
L 393.708754 -77.990862 
L 393.554707 -76.453425 
L 393.411775 -74.915988 
L 393.280397 -73.378551 
L 393.160747 -71.841114 
L 393.052764 -70.303677 
L 392.956179 -68.76624 
L 392.870548 -67.228803 
L 392.795288 -65.691366 
L 392.729713 -64.153929 
z
" style="stroke: #404040; stroke-width: 1.25"/>
    </defs>
    <g clip-path="url(#pe8074a28b4)">
     <use xlink:href="#mcdfa2966b4" x="0" y="345.6" style="fill: #e6e6e6; stroke: #404040; stroke-width: 1.25"/>
    </g>
   </g>
   <g id="patch_3">
    <path d="M 57.6 307.584 
L 57.6 41.472 
" style="fill: none; stroke: #cccccc; stroke-width: 1.25; stroke-linejoin: miter; stroke-linecap: square"/>
   </g>
   <g id="patch_4">
    <path d="M 414.72 307.584 
L 414.72 41.472 
" style="fill: none; stroke: #cccccc; stroke-width: 1.25; stroke-linejoin: miter; stroke-linecap: square"/>
   </g>
   <g id="patch_5">
    <path d="M 57.6 307.584 
L 414.72 307.584 
" style="fill: none; stroke: #cccccc; stroke-width: 1.25; stroke-linejoin: miter; stroke-linecap: square"/>
   </g>
   <g id="patch_6">
    <path d="M 57.6 41.472 
L 414.72 41.472 
" style="fill: none; stroke: #cccccc; stroke-width: 1.25; stroke-linejoin: miter; stroke-linecap: square"/>
   </g>
   <g id="PathCollection_1">
    <defs>
     <path id="C0_0_3e9fed070f" d="M 0 1.5 
C 0.397805 1.5 0.77937 1.341951 1.06066 1.06066 
C 1.341951 0.77937 1.5 0.397805 1.5 -0 
C 1.5 -0.397805 1.341951 -0.77937 1.06066 -1.06066 
C 0.77937 -1.341951 0.397805 -1.5 0 -1.5 
C -0.397805 -1.5 -0.77937 -1.341951 -1.06066 -1.06066 
C -1.341951 -0.77937 -1.5 -0.397805 -1.5 0 
C -1.5 0.397805 -1.341951 0.77937 -1.06066 1.06066 
C -0.77937 1.341951 -0.397805 1.5 0 1.5 
z
"/>
    </defs>
    <g clip-path="url(#pe8074a28b4)">
     <use xlink:href="#C0_0_3e9fed070f" x="79.92" y="174.740479" style="fill: #c44e52"/>
    </g>
    <g clip-path="url(#pe8074a28b4)">
     <use xlink:href="#C0_0_3e9fed070f" x="79.92" y="125.8041" style="fill: #c44e52"/>
    </g>
    <g clip-path="url(#pe8074a28b4)">
     <use xlink:href="#C0_0_3e9fed070f" x="79.92" y="209.973304" style="fill: #c44e52"/>
    </g>
    <g clip-path="url(#pe8074a28b4)">
     <use xlink:href="#C0_0_3e9fed070f" x="79.92" y="199.623376" style="fill: #c44e52"/>
    </g>
    <g clip-path="url(#pe8074a28b4)">
     <use xlink:href="#C0_0_3e9fed070f" x="79.92" y="149.721757" style="fill: #c44e52"/>
    </g>
    <g clip-path="url(#pe8074a28b4)">
     <use xlink:href="#C0_0_3e9fed070f" x="79.92" y="139.690232" style="fill: #c44e52"/>
    </g>
    <g clip-path="url(#pe8074a28b4)">
     <use xlink:href="#C0_0_3e9fed070f" x="79.92" y="184.462545" style="fill: #c44e52"/>
    </g>
    <g clip-path="url(#pe8074a28b4)">
     <use xlink:href="#C0_0_3e9fed070f" x="77.50094" y="123.882591" style="fill: #c44e52"/>
    </g>
    <g clip-path="url(#pe8074a28b4)">
     <use xlink:href="#C0_0_3e9fed070f" x="79.92" y="166.781091" style="fill: #c44e52"/>
    </g>
    <g clip-path="url(#pe8074a28b4)">
     <use xlink:href="#C0_0_3e9fed070f" x="77.020937" y="138.516856" style="fill: #c44e52"/>
    </g>
   </g>
   <g id="PathCollection_2">
    <defs>
     <path id="C1_0_a42a8a3b3c" d="M 0 1.5 
C 0.397805 1.5 0.77937 1.341951 1.06066 1.06066 
C 1.341951 0.77937 1.5 0.397805 1.5 -0 
C 1.5 -0.397805 1.341951 -0.77937 1.06066 -1.06066 
C 0.77937 -1.341951 0.397805 -1.5 0 -1.5 
C -0.397805 -1.5 -0.77937 -1.341951 -1.06066 -1.06066 
C -1.341951 -0.77937 -1.5 -0.397805 -1.5 0 
C -1.5 0.397805 -1.341951 0.77937 -1.06066 1.06066 
C -0.77937 1.341951 -0.397805 1.5 0 1.5 
z
"/>
    </defs>
    <g clip-path="url(#pe8074a28b4)">
     <use xlink:href="#C1_0_a42a8a3b3c" x="121.600336" y="169.377788" style="fill: #4c72b0"/>
    </g>
    <g clip-path="url(#pe8074a28b4)">
     <use xlink:href="#C1_0_a42a8a3b3c" x="124.56" y="125.273831" style="fill: #4c72b0"/>
    </g>
    <g clip-path="url(#pe8074a28b4)">
     <use xlink:href="#C1_0_a42a8a3b3c" x="124.56" y="196.814209" style="fill: #4c72b0"/>
    </g>
    <g clip-path="url(#pe8074a28b4)">
     <use xlink:href="#C1_0_a42a8a3b3c" x="124.56" y="179.916826" style="fill: #4c72b0"/>
    </g>
    <g clip-path="url(#pe8074a28b4)">
     <use xlink:href="#C1_0_a42a8a3b3c" x="124.56" y="132.872573" style="fill: #4c72b0"/>
    </g>
    <g clip-path="url(#pe8074a28b4)">
     <use xlink:href="#C1_0_a42a8a3b3c" x="124.56" y="111.094394" style="fill: #4c72b0"/>
    </g>
    <g clip-path="url(#pe8074a28b4)">
     <use xlink:href="#C1_0_a42a8a3b3c" x="124.56" y="170.40481" style="fill: #4c72b0"/>
    </g>
    <g clip-path="url(#pe8074a28b4)">
     <use xlink:href="#C1_0_a42a8a3b3c" x="124.56" y="100.647542" style="fill: #4c72b0"/>
    </g>
    <g clip-path="url(#pe8074a28b4)">
     <use xlink:href="#C1_0_a42a8a3b3c" x="124.56" y="156.058831" style="fill: #4c72b0"/>
    </g>
    <g clip-path="url(#pe8074a28b4)">
     <use xlink:href="#C1_0_a42a8a3b3c" x="124.56" y="115.778217" style="fill: #4c72b0"/>
    </g>
   </g>
   <g id="PathCollection_3">
    <defs>
     <path id="C2_0_103cc76ee6" d="M 0 1.5 
C 0.397805 1.5 0.77937 1.341951 1.06066 1.06066 
C 1.341951 0.77937 1.5 0.397805 1.5 -0 
C 1.5 -0.397805 1.341951 -0.77937 1.06066 -1.06066 
C 0.77937 -1.341951 0.397805 -1.5 0 -1.5 
C -0.397805 -1.5 -0.77937 -1.341951 -1.06066 -1.06066 
C -1.341951 -0.77937 -1.5 -0.397805 -1.5 0 
C -1.5 0.397805 -1.341951 0.77937 -1.06066 1.06066 
C -0.77937 1.341951 -0.397805 1.5 0 1.5 
z
"/>
    </defs>
    <g clip-path="url(#pe8074a28b4)">
     <use xlink:href="#C2_0_103cc76ee6" x="169.2" y="216.994999" style="fill: #c44e52"/>
    </g>
    <g clip-path="url(#pe8074a28b4)">
     <use xlink:href="#C2_0_103cc76ee6" x="166.564357" y="206.153663" style="fill: #c44e52"/>
    </g>
    <g clip-path="url(#pe8074a28b4)">
     <use xlink:href="#C2_0_103cc76ee6" x="169.2" y="175.396419" style="fill: #c44e52"/>
    </g>
    <g clip-path="url(#pe8074a28b4)">
     <use xlink:href="#C2_0_103cc76ee6" x="167.005124" y="173.244581" style="fill: #c44e52"/>
    </g>
    <g clip-path="url(#pe8074a28b4)">
     <use xlink:href="#C2_0_103cc76ee6" x="169.2" y="191.75921" style="fill: #c44e52"/>
    </g>
    <g clip-path="url(#pe8074a28b4)">
     <use xlink:href="#C2_0_103cc76ee6" x="166.35467" y="212.469601" style="fill: #c44e52"/>
    </g>
    <g clip-path="url(#pe8074a28b4)">
     <use xlink:href="#C2_0_103cc76ee6" x="169.2" y="213.756761" style="fill: #c44e52"/>
    </g>
    <g clip-path="url(#pe8074a28b4)">
     <use xlink:href="#C2_0_103cc76ee6" x="169.2" y="207.796591" style="fill: #c44e52"/>
    </g>
    <g clip-path="url(#pe8074a28b4)">
     <use xlink:href="#C2_0_103cc76ee6" x="169.2" y="227.769565" style="fill: #c44e52"/>
    </g>
    <g clip-path="url(#pe8074a28b4)">
     <use xlink:href="#C2_0_103cc76ee6" x="169.2" y="161.807992" style="fill: #c44e52"/>
    </g>
   </g>
   <g id="PathCollection_4">
    <defs>
     <path id="C3_0_165b06ac6b" d="M 0 1.5 
C 0.397805 1.5 0.77937 1.341951 1.06066 1.06066 
C 1.341951 0.77937 1.5 0.397805 1.5 -0 
C 1.5 -0.397805 1.341951 -0.77937 1.06066 -1.06066 
C 0.77937 -1.341951 0.397805 -1.5 0 -1.5 
C -0.397805 -1.5 -0.77937 -1.341951 -1.06066 -1.06066 
C -1.341951 -0.77937 -1.5 -0.397805 -1.5 0 
C -1.5 0.397805 -1.341951 0.77937 -1.06066 1.06066 
C -0.77937 1.341951 -0.397805 1.5 0 1.5 
z
"/>
    </defs>
    <g clip-path="url(#pe8074a28b4)">
     <use xlink:href="#C3_0_165b06ac6b" x="213.84" y="186.384192" style="fill: #4c72b0"/>
    </g>
    <g clip-path="url(#pe8074a28b4)">
     <use xlink:href="#C3_0_165b06ac6b" x="213.84" y="167.900411" style="fill: #4c72b0"/>
    </g>
    <g clip-path="url(#pe8074a28b4)">
     <use xlink:href="#C3_0_165b06ac6b" x="213.84" y="130.359323" style="fill: #4c72b0"/>
    </g>
    <g clip-path="url(#pe8074a28b4)">
     <use xlink:href="#C3_0_165b06ac6b" x="213.84" y="144.253803" style="fill: #4c72b0"/>
    </g>
    <g clip-path="url(#pe8074a28b4)">
     <use xlink:href="#C3_0_165b06ac6b" x="213.84" y="180.781042" style="fill: #4c72b0"/>
    </g>
    <g clip-path="url(#pe8074a28b4)">
     <use xlink:href="#C3_0_165b06ac6b" x="210.7216" y="185.960322" style="fill: #4c72b0"/>
    </g>
    <g clip-path="url(#pe8074a28b4)">
     <use xlink:href="#C3_0_165b06ac6b" x="213.84" y="189.724878" style="fill: #4c72b0"/>
    </g>
    <g clip-path="url(#pe8074a28b4)">
     <use xlink:href="#C3_0_165b06ac6b" x="216.767913" y="185.277696" style="fill: #4c72b0"/>
    </g>
    <g clip-path="url(#pe8074a28b4)">
     <use xlink:href="#C3_0_165b06ac6b" x="213.84" y="218.085895" style="fill: #4c72b0"/>
    </g>
    <g clip-path="url(#pe8074a28b4)">
     <use xlink:href="#C3_0_165b06ac6b" x="213.84" y="137.761931" style="fill: #4c72b0"/>
    </g>
   </g>
   <g id="PathCollection_5">
    <defs>
     <path id="C4_0_50940d5713" d="M 0 1.5 
C 0.397805 1.5 0.77937 1.341951 1.06066 1.06066 
C 1.341951 0.77937 1.5 0.397805 1.5 -0 
C 1.5 -0.397805 1.341951 -0.77937 1.06066 -1.06066 
C 0.77937 -1.341951 0.397805 -1.5 0 -1.5 
C -0.397805 -1.5 -0.77937 -1.341951 -1.06066 -1.06066 
C -1.341951 -0.77937 -1.5 -0.397805 -1.5 0 
C -1.5 0.397805 -1.341951 0.77937 -1.06066 1.06066 
C -0.77937 1.341951 -0.397805 1.5 0 1.5 
z
"/>
    </defs>
    <g clip-path="url(#pe8074a28b4)">
     <use xlink:href="#C4_0_50940d5713" x="258.48" y="66.659369" style="fill: #c44e52"/>
    </g>
    <g clip-path="url(#pe8074a28b4)">
     <use xlink:href="#C4_0_50940d5713" x="258.48" y="105.124755" style="fill: #c44e52"/>
    </g>
    <g clip-path="url(#pe8074a28b4)">
     <use xlink:href="#C4_0_50940d5713" x="256.610002" y="87.435566" style="fill: #c44e52"/>
    </g>
    <g clip-path="url(#pe8074a28b4)">
     <use xlink:href="#C4_0_50940d5713" x="259.832789" y="78.536574" style="fill: #c44e52"/>
    </g>
    <g clip-path="url(#pe8074a28b4)">
     <use xlink:href="#C4_0_50940d5713" x="258.862632" y="85.338562" style="fill: #c44e52"/>
    </g>
    <g clip-path="url(#pe8074a28b4)">
     <use xlink:href="#C4_0_50940d5713" x="255.75421" y="79.742229" style="fill: #c44e52"/>
    </g>
    <g clip-path="url(#pe8074a28b4)">
     <use xlink:href="#C4_0_50940d5713" x="255.892989" y="84.338007" style="fill: #c44e52"/>
    </g>
    <g clip-path="url(#pe8074a28b4)">
     <use xlink:href="#C4_0_50940d5713" x="258.48" y="81.245836" style="fill: #c44e52"/>
    </g>
    <g clip-path="url(#pe8074a28b4)">
     <use xlink:href="#C4_0_50940d5713" x="258.48" y="89.849736" style="fill: #c44e52"/>
    </g>
    <g clip-path="url(#pe8074a28b4)">
     <use xlink:href="#C4_0_50940d5713" x="258.48" y="95.738848" style="fill: #c44e52"/>
    </g>
   </g>
   <g id="PathCollection_6">
    <defs>
     <path id="C5_0_d0d5f948ee" d="M 0 1.5 
C 0.397805 1.5 0.77937 1.341951 1.06066 1.06066 
C 1.341951 0.77937 1.5 0.397805 1.5 -0 
C 1.5 -0.397805 1.341951 -0.77937 1.06066 -1.06066 
C 0.77937 -1.341951 0.397805 -1.5 0 -1.5 
C -0.397805 -1.5 -0.77937 -1.341951 -1.06066 -1.06066 
C -1.341951 -0.77937 -1.5 -0.397805 -1.5 0 
C -1.5 0.397805 -1.341951 0.77937 -1.06066 1.06066 
C -0.77937 1.341951 -0.397805 1.5 0 1.5 
z
"/>
    </defs>
    <g clip-path="url(#pe8074a28b4)">
     <use xlink:href="#C5_0_d0d5f948ee" x="300.898026" y="82.528022" style="fill: #4c72b0"/>
    </g>
    <g clip-path="url(#pe8074a28b4)">
     <use xlink:href="#C5_0_d0d5f948ee" x="306.00794" y="110.037568" style="fill: #4c72b0"/>
    </g>
    <g clip-path="url(#pe8074a28b4)">
     <use xlink:href="#C5_0_d0d5f948ee" x="303.12" y="94.203606" style="fill: #4c72b0"/>
    </g>
    <g clip-path="url(#pe8074a28b4)">
     <use xlink:href="#C5_0_d0d5f948ee" x="300.462912" y="88.904383" style="fill: #4c72b0"/>
    </g>
    <g clip-path="url(#pe8074a28b4)">
     <use xlink:href="#C5_0_d0d5f948ee" x="300.936087" y="99.484163" style="fill: #4c72b0"/>
    </g>
    <g clip-path="url(#pe8074a28b4)">
     <use xlink:href="#C5_0_d0d5f948ee" x="303.12" y="101.646093" style="fill: #4c72b0"/>
    </g>
    <g clip-path="url(#pe8074a28b4)">
     <use xlink:href="#C5_0_d0d5f948ee" x="303.12" y="84.654485" style="fill: #4c72b0"/>
    </g>
    <g clip-path="url(#pe8074a28b4)">
     <use xlink:href="#C5_0_d0d5f948ee" x="303.12" y="90.515676" style="fill: #4c72b0"/>
    </g>
    <g clip-path="url(#pe8074a28b4)">
     <use xlink:href="#C5_0_d0d5f948ee" x="303.12" y="111.235564" style="fill: #4c72b0"/>
    </g>
    <g clip-path="url(#pe8074a28b4)">
     <use xlink:href="#C5_0_d0d5f948ee" x="300.105345" y="110.36563" style="fill: #4c72b0"/>
    </g>
   </g>
   <g id="PathCollection_7">
    <defs>
     <path id="C6_0_f9b18a46b2" d="M 0 1.5 
C 0.397805 1.5 0.77937 1.341951 1.06066 1.06066 
C 1.341951 0.77937 1.5 0.397805 1.5 -0 
C 1.5 -0.397805 1.341951 -0.77937 1.06066 -1.06066 
C 0.77937 -1.341951 0.397805 -1.5 0 -1.5 
C -0.397805 -1.5 -0.77937 -1.341951 -1.06066 -1.06066 
C -1.341951 -0.77937 -1.5 -0.397805 -1.5 0 
C -1.5 0.397805 -1.341951 0.77937 -1.06066 1.06066 
C -0.77937 1.341951 -0.397805 1.5 0 1.5 
z
"/>
    </defs>
    <g clip-path="url(#pe8074a28b4)">
     <use xlink:href="#C6_0_f9b18a46b2" x="347.76" y="221.479679" style="fill: #c44e52"/>
    </g>
    <g clip-path="url(#pe8074a28b4)">
     <use xlink:href="#C6_0_f9b18a46b2" x="347.76" y="239.610346" style="fill: #c44e52"/>
    </g>
    <g clip-path="url(#pe8074a28b4)">
     <use xlink:href="#C6_0_f9b18a46b2" x="344.672863" y="189.133969" style="fill: #c44e52"/>
    </g>
    <g clip-path="url(#pe8074a28b4)">
     <use xlink:href="#C6_0_f9b18a46b2" x="347.76" y="244.770181" style="fill: #c44e52"/>
    </g>
    <g clip-path="url(#pe8074a28b4)">
     <use xlink:href="#C6_0_f9b18a46b2" x="347.76" y="144.248235" style="fill: #c44e52"/>
    </g>
    <g clip-path="url(#pe8074a28b4)">
     <use xlink:href="#C6_0_f9b18a46b2" x="347.76" y="189.730321" style="fill: #c44e52"/>
    </g>
    <g clip-path="url(#pe8074a28b4)">
     <use xlink:href="#C6_0_f9b18a46b2" x="347.76" y="185.882453" style="fill: #c44e52"/>
    </g>
    <g clip-path="url(#pe8074a28b4)">
     <use xlink:href="#C6_0_f9b18a46b2" x="347.76" y="251.167575" style="fill: #c44e52"/>
    </g>
    <g clip-path="url(#pe8074a28b4)">
     <use xlink:href="#C6_0_f9b18a46b2" x="347.76" y="178.951035" style="fill: #c44e52"/>
    </g>
    <g clip-path="url(#pe8074a28b4)">
     <use xlink:href="#C6_0_f9b18a46b2" x="345.26534" y="177.1193" style="fill: #c44e52"/>
    </g>
   </g>
   <g id="PathCollection_8">
    <defs>
     <path id="C7_0_87f38362c6" d="M 0 1.5 
C 0.397805 1.5 0.77937 1.341951 1.06066 1.06066 
C 1.341951 0.77937 1.5 0.397805 1.5 -0 
C 1.5 -0.397805 1.341951 -0.77937 1.06066 -1.06066 
C 0.77937 -1.341951 0.397805 -1.5 0 -1.5 
C -0.397805 -1.5 -0.77937 -1.341951 -1.06066 -1.06066 
C -1.341951 -0.77937 -1.5 -0.397805 -1.5 0 
C -1.5 0.397805 -1.341951 0.77937 -1.06066 1.06066 
C -0.77937 1.341951 -0.397805 1.5 0 1.5 
z
"/>
    </defs>
    <g clip-path="url(#pe8074a28b4)">
     <use xlink:href="#C7_0_87f38362c6" x="392.4" y="225.906508" style="fill: #4c72b0"/>
    </g>
    <g clip-path="url(#pe8074a28b4)">
     <use xlink:href="#C7_0_87f38362c6" x="390.324265" y="243.572788" style="fill: #4c72b0"/>
    </g>
    <g clip-path="url(#pe8074a28b4)">
     <use xlink:href="#C7_0_87f38362c6" x="392.4" y="199.873615" style="fill: #4c72b0"/>
    </g>
    <g clip-path="url(#pe8074a28b4)">
     <use xlink:href="#C7_0_87f38362c6" x="392.4" y="239.626538" style="fill: #4c72b0"/>
    </g>
    <g clip-path="url(#pe8074a28b4)">
     <use xlink:href="#C7_0_87f38362c6" x="392.4" y="164.856568" style="fill: #4c72b0"/>
    </g>
    <g clip-path="url(#pe8074a28b4)">
     <use xlink:href="#C7_0_87f38362c6" x="392.4" y="181.783151" style="fill: #4c72b0"/>
    </g>
    <g clip-path="url(#pe8074a28b4)">
     <use xlink:href="#C7_0_87f38362c6" x="392.4" y="204.315988" style="fill: #4c72b0"/>
    </g>
    <g clip-path="url(#pe8074a28b4)">
     <use xlink:href="#C7_0_87f38362c6" x="392.4" y="245.829313" style="fill: #4c72b0"/>
    </g>
    <g clip-path="url(#pe8074a28b4)">
     <use xlink:href="#C7_0_87f38362c6" x="392.4" y="196.193343" style="fill: #4c72b0"/>
    </g>
    <g clip-path="url(#pe8074a28b4)">
     <use xlink:href="#C7_0_87f38362c6" x="392.4" y="188.133539" style="fill: #4c72b0"/>
    </g>
   </g>
   <g id="PathCollection_9">
    <defs>
     <path id="macc26426fb" d="M 22.36068 0 
L -22.36068 -0 
" style="stroke: #1a1a1a; stroke-width: 1.5"/>
    </defs>
    <g clip-path="url(#pe8074a28b4)">
     <use xlink:href="#macc26426fb" x="79.92" y="161.319633" style="fill: #1a1a1a; stroke: #1a1a1a; stroke-width: 1.5"/>
     <use xlink:href="#macc26426fb" x="124.56" y="145.823902" style="fill: #1a1a1a; stroke: #1a1a1a; stroke-width: 1.5"/>
     <use xlink:href="#macc26426fb" x="169.2" y="198.714938" style="fill: #1a1a1a; stroke: #1a1a1a; stroke-width: 1.5"/>
     <use xlink:href="#macc26426fb" x="213.84" y="172.648949" style="fill: #1a1a1a; stroke: #1a1a1a; stroke-width: 1.5"/>
     <use xlink:href="#macc26426fb" x="258.48" y="85.400948" style="fill: #1a1a1a; stroke: #1a1a1a; stroke-width: 1.5"/>
     <use xlink:href="#macc26426fb" x="303.12" y="97.357519" style="fill: #1a1a1a; stroke: #1a1a1a; stroke-width: 1.5"/>
     <use xlink:href="#macc26426fb" x="347.76" y="202.209309" style="fill: #1a1a1a; stroke: #1a1a1a; stroke-width: 1.5"/>
     <use xlink:href="#macc26426fb" x="392.4" y="209.009135" style="fill: #1a1a1a; stroke: #1a1a1a; stroke-width: 1.5"/>
    </g>
   </g>
  </g>
 </g>
 <defs>
  <clipPath id="pe8074a28b4">
   <rect x="57.6" y="41.472" width="357.12" height="266.112"/>
  </clipPath>
 </defs>
</svg>
