<?xml version="1.0" encoding="utf-8" standalone="no"?>
<!DOCTYPE svg PUBLIC "-//W3C//DTD SVG 1.1//EN"
  "http://www.w3.org/Graphics/SVG/1.1/DTD/svg11.dtd">
<svg xmlns:xlink="http://www.w3.org/1999/xlink" width="1008pt" height="396pt" viewBox="0 0 1008 396" xmlns="http://www.w3.org/2000/svg" version="1.1">
 <metadata>
  <rdf:RDF xmlns:dc="http://purl.org/dc/elements/1.1/" xmlns:cc="http://creativecommons.org/ns#" xmlns:rdf="http://www.w3.org/1999/02/22-rdf-syntax-ns#">
   <cc:Work>
    <dc:type rdf:resource="http://purl.org/dc/dcmitype/StillImage"/>
    <dc:date>2024-07-19T03:09:55.944201</dc:date>
    <dc:format>image/svg+xml</dc:format>
    <dc:creator>
     <cc:Agent>
      <dc:title>Matplotlib v3.8.4, https://matplotlib.org/</dc:title>
     </cc:Agent>
    </dc:creator>
   </cc:Work>
  </rdf:RDF>
 </metadata>
 <defs>
  <style type="text/css">*{stroke-linejoin: round; stroke-linecap: butt}</style>
 </defs>
 <g id="figure_1">
  <g id="patch_1">
   <path d="M 0 396 
L 1008 396 
L 1008 0 
L 0 0 
z
" style="fill: #ffffff"/>
  </g>
  <g id="axes_1">
   <g id="patch_2">
    <path d="M 126 352.44 
L 355.764706 352.44 
L 355.764706 47.52 
L 126 47.52 
z
" style="fill: #ffffff"/>
   </g>
   <g id="matplotlib.axis_1">
    <g id="xtick_1">
     <g id="line2d_1">
      <defs>
       <path id="m1e9b301437" d="M 0 0 
L 0 3.5 
" style="stroke: #000000; stroke-width: 0.8"/>
      </defs>
      <g>
       <use xlink:href="#m1e9b301437" x="183.441176" y="352.44" style="stroke: #000000; stroke-width: 0.8"/>
      </g>
     </g>
     <g id="text_1">
      <!-- macroscopic trait -->
      <g transform="translate(140.011489 367.038437) scale(0.1 -0.1)">
       <defs>
        <path id="DejaVuSans-6d" d="M 3328 2828 
Q 3544 3216 3844 3400 
Q 4144 3584 4550 3584 
Q 5097 3584 5394 3201 
Q 5691 2819 5691 2113 
L 5691 0 
L 5113 0 
L 5113 2094 
Q 5113 2597 4934 2840 
Q 4756 3084 4391 3084 
Q 3944 3084 3684 2787 
Q 3425 2491 3425 1978 
L 3425 0 
L 2847 0 
L 2847 2094 
Q 2847 2600 2669 2842 
Q 2491 3084 2119 3084 
Q 1678 3084 1418 2786 
Q 1159 2488 1159 1978 
L 1159 0 
L 581 0 
L 581 3500 
L 1159 3500 
L 1159 2956 
Q 1356 3278 1631 3431 
Q 1906 3584 2284 3584 
Q 2666 3584 2933 3390 
Q 3200 3197 3328 2828 
z
" transform="scale(0.015625)"/>
        <path id="DejaVuSans-61" d="M 2194 1759 
Q 1497 1759 1228 1600 
Q 959 1441 959 1056 
Q 959 750 1161 570 
Q 1363 391 1709 391 
Q 2188 391 2477 730 
Q 2766 1069 2766 1631 
L 2766 1759 
L 2194 1759 
z
M 3341 1997 
L 3341 0 
L 2766 0 
L 2766 531 
Q 2569 213 2275 61 
Q 1981 -91 1556 -91 
Q 1019 -91 701 211 
Q 384 513 384 1019 
Q 384 1609 779 1909 
Q 1175 2209 1959 2209 
L 2766 2209 
L 2766 2266 
Q 2766 2663 2505 2880 
Q 2244 3097 1772 3097 
Q 1472 3097 1187 3025 
Q 903 2953 641 2809 
L 641 3341 
Q 956 3463 1253 3523 
Q 1550 3584 1831 3584 
Q 2591 3584 2966 3190 
Q 3341 2797 3341 1997 
z
" transform="scale(0.015625)"/>
        <path id="DejaVuSans-63" d="M 3122 3366 
L 3122 2828 
Q 2878 2963 2633 3030 
Q 2388 3097 2138 3097 
Q 1578 3097 1268 2742 
Q 959 2388 959 1747 
Q 959 1106 1268 751 
Q 1578 397 2138 397 
Q 2388 397 2633 464 
Q 2878 531 3122 666 
L 3122 134 
Q 2881 22 2623 -34 
Q 2366 -91 2075 -91 
Q 1284 -91 818 406 
Q 353 903 353 1747 
Q 353 2603 823 3093 
Q 1294 3584 2113 3584 
Q 2378 3584 2631 3529 
Q 2884 3475 3122 3366 
z
" transform="scale(0.015625)"/>
        <path id="DejaVuSans-72" d="M 2631 2963 
Q 2534 3019 2420 3045 
Q 2306 3072 2169 3072 
Q 1681 3072 1420 2755 
Q 1159 2438 1159 1844 
L 1159 0 
L 581 0 
L 581 3500 
L 1159 3500 
L 1159 2956 
Q 1341 3275 1631 3429 
Q 1922 3584 2338 3584 
Q 2397 3584 2469 3576 
Q 2541 3569 2628 3553 
L 2631 2963 
z
" transform="scale(0.015625)"/>
        <path id="DejaVuSans-6f" d="M 1959 3097 
Q 1497 3097 1228 2736 
Q 959 2375 959 1747 
Q 959 1119 1226 758 
Q 1494 397 1959 397 
Q 2419 397 2687 759 
Q 2956 1122 2956 1747 
Q 2956 2369 2687 2733 
Q 2419 3097 1959 3097 
z
M 1959 3584 
Q 2709 3584 3137 3096 
Q 3566 2609 3566 1747 
Q 3566 888 3137 398 
Q 2709 -91 1959 -91 
Q 1206 -91 779 398 
Q 353 888 353 1747 
Q 353 2609 779 3096 
Q 1206 3584 1959 3584 
z
" transform="scale(0.015625)"/>
        <path id="DejaVuSans-73" d="M 2834 3397 
L 2834 2853 
Q 2591 2978 2328 3040 
Q 2066 3103 1784 3103 
Q 1356 3103 1142 2972 
Q 928 2841 928 2578 
Q 928 2378 1081 2264 
Q 1234 2150 1697 2047 
L 1894 2003 
Q 2506 1872 2764 1633 
Q 3022 1394 3022 966 
Q 3022 478 2636 193 
Q 2250 -91 1575 -91 
Q 1294 -91 989 -36 
Q 684 19 347 128 
L 347 722 
Q 666 556 975 473 
Q 1284 391 1588 391 
Q 1994 391 2212 530 
Q 2431 669 2431 922 
Q 2431 1156 2273 1281 
Q 2116 1406 1581 1522 
L 1381 1569 
Q 847 1681 609 1914 
Q 372 2147 372 2553 
Q 372 3047 722 3315 
Q 1072 3584 1716 3584 
Q 2034 3584 2315 3537 
Q 2597 3491 2834 3397 
z
" transform="scale(0.015625)"/>
        <path id="DejaVuSans-70" d="M 1159 525 
L 1159 -1331 
L 581 -1331 
L 581 3500 
L 1159 3500 
L 1159 2969 
Q 1341 3281 1617 3432 
Q 1894 3584 2278 3584 
Q 2916 3584 3314 3078 
Q 3713 2572 3713 1747 
Q 3713 922 3314 415 
Q 2916 -91 2278 -91 
Q 1894 -91 1617 61 
Q 1341 213 1159 525 
z
M 3116 1747 
Q 3116 2381 2855 2742 
Q 2594 3103 2138 3103 
Q 1681 3103 1420 2742 
Q 1159 2381 1159 1747 
Q 1159 1113 1420 752 
Q 1681 391 2138 391 
Q 2594 391 2855 752 
Q 3116 1113 3116 1747 
z
" transform="scale(0.015625)"/>
        <path id="DejaVuSans-69" d="M 603 3500 
L 1178 3500 
L 1178 0 
L 603 0 
L 603 3500 
z
M 603 4863 
L 1178 4863 
L 1178 4134 
L 603 4134 
L 603 4863 
z
" transform="scale(0.015625)"/>
        <path id="DejaVuSans-20" transform="scale(0.015625)"/>
        <path id="DejaVuSans-74" d="M 1172 4494 
L 1172 3500 
L 2356 3500 
L 2356 3053 
L 1172 3053 
L 1172 1153 
Q 1172 725 1289 603 
Q 1406 481 1766 481 
L 2356 481 
L 2356 0 
L 1766 0 
Q 1100 0 847 248 
Q 594 497 594 1153 
L 594 3053 
L 172 3053 
L 172 3500 
L 594 3500 
L 594 4494 
L 1172 4494 
z
" transform="scale(0.015625)"/>
       </defs>
       <use xlink:href="#DejaVuSans-6d"/>
       <use xlink:href="#DejaVuSans-61" x="97.412109"/>
       <use xlink:href="#DejaVuSans-63" x="158.691406"/>
       <use xlink:href="#DejaVuSans-72" x="213.671875"/>
       <use xlink:href="#DejaVuSans-6f" x="252.535156"/>
       <use xlink:href="#DejaVuSans-73" x="313.716797"/>
       <use xlink:href="#DejaVuSans-63" x="365.816406"/>
       <use xlink:href="#DejaVuSans-6f" x="420.796875"/>
       <use xlink:href="#DejaVuSans-70" x="481.978516"/>
       <use xlink:href="#DejaVuSans-69" x="545.455078"/>
       <use xlink:href="#DejaVuSans-63" x="573.238281"/>
       <use xlink:href="#DejaVuSans-20" x="628.21875"/>
       <use xlink:href="#DejaVuSans-74" x="660.005859"/>
       <use xlink:href="#DejaVuSans-72" x="699.214844"/>
       <use xlink:href="#DejaVuSans-61" x="740.328125"/>
       <use xlink:href="#DejaVuSans-69" x="801.607422"/>
       <use xlink:href="#DejaVuSans-74" x="829.390625"/>
      </g>
     </g>
    </g>
    <g id="xtick_2">
     <g id="line2d_2">
      <g>
       <use xlink:href="#m1e9b301437" x="298.323529" y="352.44" style="stroke: #000000; stroke-width: 0.8"/>
      </g>
     </g>
     <g id="text_2">
      <!-- biochemical trait -->
      <g transform="translate(256.226654 367.038437) scale(0.1 -0.1)">
       <defs>
        <path id="DejaVuSans-62" d="M 3116 1747 
Q 3116 2381 2855 2742 
Q 2594 3103 2138 3103 
Q 1681 3103 1420 2742 
Q 1159 2381 1159 1747 
Q 1159 1113 1420 752 
Q 1681 391 2138 391 
Q 2594 391 2855 752 
Q 3116 1113 3116 1747 
z
M 1159 2969 
Q 1341 3281 1617 3432 
Q 1894 3584 2278 3584 
Q 2916 3584 3314 3078 
Q 3713 2572 3713 1747 
Q 3713 922 3314 415 
Q 2916 -91 2278 -91 
Q 1894 -91 1617 61 
Q 1341 213 1159 525 
L 1159 0 
L 581 0 
L 581 4863 
L 1159 4863 
L 1159 2969 
z
" transform="scale(0.015625)"/>
        <path id="DejaVuSans-68" d="M 3513 2113 
L 3513 0 
L 2938 0 
L 2938 2094 
Q 2938 2591 2744 2837 
Q 2550 3084 2163 3084 
Q 1697 3084 1428 2787 
Q 1159 2491 1159 1978 
L 1159 0 
L 581 0 
L 581 4863 
L 1159 4863 
L 1159 2956 
Q 1366 3272 1645 3428 
Q 1925 3584 2291 3584 
Q 2894 3584 3203 3211 
Q 3513 2838 3513 2113 
z
" transform="scale(0.015625)"/>
        <path id="DejaVuSans-65" d="M 3597 1894 
L 3597 1613 
L 953 1613 
Q 991 1019 1311 708 
Q 1631 397 2203 397 
Q 2534 397 2845 478 
Q 3156 559 3463 722 
L 3463 178 
Q 3153 47 2828 -22 
Q 2503 -91 2169 -91 
Q 1331 -91 842 396 
Q 353 884 353 1716 
Q 353 2575 817 3079 
Q 1281 3584 2069 3584 
Q 2775 3584 3186 3129 
Q 3597 2675 3597 1894 
z
M 3022 2063 
Q 3016 2534 2758 2815 
Q 2500 3097 2075 3097 
Q 1594 3097 1305 2825 
Q 1016 2553 972 2059 
L 3022 2063 
z
" transform="scale(0.015625)"/>
        <path id="DejaVuSans-6c" d="M 603 4863 
L 1178 4863 
L 1178 0 
L 603 0 
L 603 4863 
z
" transform="scale(0.015625)"/>
       </defs>
       <use xlink:href="#DejaVuSans-62"/>
       <use xlink:href="#DejaVuSans-69" x="63.476562"/>
       <use xlink:href="#DejaVuSans-6f" x="91.259766"/>
       <use xlink:href="#DejaVuSans-63" x="152.441406"/>
       <use xlink:href="#DejaVuSans-68" x="207.421875"/>
       <use xlink:href="#DejaVuSans-65" x="270.800781"/>
       <use xlink:href="#DejaVuSans-6d" x="332.324219"/>
       <use xlink:href="#DejaVuSans-69" x="429.736328"/>
       <use xlink:href="#DejaVuSans-63" x="457.519531"/>
       <use xlink:href="#DejaVuSans-61" x="512.5"/>
       <use xlink:href="#DejaVuSans-6c" x="573.779297"/>
       <use xlink:href="#DejaVuSans-20" x="601.5625"/>
       <use xlink:href="#DejaVuSans-74" x="633.349609"/>
       <use xlink:href="#DejaVuSans-72" x="672.558594"/>
       <use xlink:href="#DejaVuSans-61" x="713.671875"/>
       <use xlink:href="#DejaVuSans-69" x="774.951172"/>
       <use xlink:href="#DejaVuSans-74" x="802.734375"/>
      </g>
     </g>
    </g>
    <g id="text_3">
     <!-- trait ontology -->
     <g transform="translate(207.034697 380.716563) scale(0.1 -0.1)">
      <defs>
       <path id="DejaVuSans-6e" d="M 3513 2113 
L 3513 0 
L 2938 0 
L 2938 2094 
Q 2938 2591 2744 2837 
Q 2550 3084 2163 3084 
Q 1697 3084 1428 2787 
Q 1159 2491 1159 1978 
L 1159 0 
L 581 0 
L 581 3500 
L 1159 3500 
L 1159 2956 
Q 1366 3272 1645 3428 
Q 1925 3584 2291 3584 
Q 2894 3584 3203 3211 
Q 3513 2838 3513 2113 
z
" transform="scale(0.015625)"/>
       <path id="DejaVuSans-67" d="M 2906 1791 
Q 2906 2416 2648 2759 
Q 2391 3103 1925 3103 
Q 1463 3103 1205 2759 
Q 947 2416 947 1791 
Q 947 1169 1205 825 
Q 1463 481 1925 481 
Q 2391 481 2648 825 
Q 2906 1169 2906 1791 
z
M 3481 434 
Q 3481 -459 3084 -895 
Q 2688 -1331 1869 -1331 
Q 1566 -1331 1297 -1286 
Q 1028 -1241 775 -1147 
L 775 -588 
Q 1028 -725 1275 -790 
Q 1522 -856 1778 -856 
Q 2344 -856 2625 -561 
Q 2906 -266 2906 331 
L 2906 616 
Q 2728 306 2450 153 
Q 2172 0 1784 0 
Q 1141 0 747 490 
Q 353 981 353 1791 
Q 353 2603 747 3093 
Q 1141 3584 1784 3584 
Q 2172 3584 2450 3431 
Q 2728 3278 2906 2969 
L 2906 3500 
L 3481 3500 
L 3481 434 
z
" transform="scale(0.015625)"/>
       <path id="DejaVuSans-79" d="M 2059 -325 
Q 1816 -950 1584 -1140 
Q 1353 -1331 966 -1331 
L 506 -1331 
L 506 -850 
L 844 -850 
Q 1081 -850 1212 -737 
Q 1344 -625 1503 -206 
L 1606 56 
L 191 3500 
L 800 3500 
L 1894 763 
L 2988 3500 
L 3597 3500 
L 2059 -325 
z
" transform="scale(0.015625)"/>
      </defs>
      <use xlink:href="#DejaVuSans-74"/>
      <use xlink:href="#DejaVuSans-72" x="39.208984"/>
      <use xlink:href="#DejaVuSans-61" x="80.322266"/>
      <use xlink:href="#DejaVuSans-69" x="141.601562"/>
      <use xlink:href="#DejaVuSans-74" x="169.384766"/>
      <use xlink:href="#DejaVuSans-20" x="208.59375"/>
      <use xlink:href="#DejaVuSans-6f" x="240.380859"/>
      <use xlink:href="#DejaVuSans-6e" x="301.5625"/>
      <use xlink:href="#DejaVuSans-74" x="364.941406"/>
      <use xlink:href="#DejaVuSans-6f" x="404.150391"/>
      <use xlink:href="#DejaVuSans-6c" x="465.332031"/>
      <use xlink:href="#DejaVuSans-6f" x="493.115234"/>
      <use xlink:href="#DejaVuSans-67" x="554.296875"/>
      <use xlink:href="#DejaVuSans-79" x="617.773438"/>
     </g>
    </g>
   </g>
   <g id="matplotlib.axis_2">
    <g id="ytick_1">
     <g id="line2d_3">
      <defs>
       <path id="m3b0627489c" d="M 0 0 
L -3.5 0 
" style="stroke: #000000; stroke-width: 0.8"/>
      </defs>
      <g>
       <use xlink:href="#m3b0627489c" x="126" y="325.91914" style="stroke: #000000; stroke-width: 0.8"/>
      </g>
     </g>
     <g id="text_4">
      <!-- 2 -->
      <g transform="translate(112.6375 329.718359) scale(0.1 -0.1)">
       <defs>
        <path id="DejaVuSans-32" d="M 1228 531 
L 3431 531 
L 3431 0 
L 469 0 
L 469 531 
Q 828 903 1448 1529 
Q 2069 2156 2228 2338 
Q 2531 2678 2651 2914 
Q 2772 3150 2772 3378 
Q 2772 3750 2511 3984 
Q 2250 4219 1831 4219 
Q 1534 4219 1204 4116 
Q 875 4013 500 3803 
L 500 4441 
Q 881 4594 1212 4672 
Q 1544 4750 1819 4750 
Q 2544 4750 2975 4387 
Q 3406 4025 3406 3419 
Q 3406 3131 3298 2873 
Q 3191 2616 2906 2266 
Q 2828 2175 2409 1742 
Q 1991 1309 1228 531 
z
" transform="scale(0.015625)"/>
       </defs>
       <use xlink:href="#DejaVuSans-32"/>
      </g>
     </g>
    </g>
    <g id="ytick_2">
     <g id="line2d_4">
      <g>
       <use xlink:href="#m3b0627489c" x="126" y="282.441252" style="stroke: #000000; stroke-width: 0.8"/>
      </g>
     </g>
     <g id="text_5">
      <!-- 3 -->
      <g transform="translate(112.6375 286.24047) scale(0.1 -0.1)">
       <defs>
        <path id="DejaVuSans-33" d="M 2597 2516 
Q 3050 2419 3304 2112 
Q 3559 1806 3559 1356 
Q 3559 666 3084 287 
Q 2609 -91 1734 -91 
Q 1441 -91 1130 -33 
Q 819 25 488 141 
L 488 750 
Q 750 597 1062 519 
Q 1375 441 1716 441 
Q 2309 441 2620 675 
Q 2931 909 2931 1356 
Q 2931 1769 2642 2001 
Q 2353 2234 1838 2234 
L 1294 2234 
L 1294 2753 
L 1863 2753 
Q 2328 2753 2575 2939 
Q 2822 3125 2822 3475 
Q 2822 3834 2567 4026 
Q 2313 4219 1838 4219 
Q 1578 4219 1281 4162 
Q 984 4106 628 3988 
L 628 4550 
Q 988 4650 1302 4700 
Q 1616 4750 1894 4750 
Q 2613 4750 3031 4423 
Q 3450 4097 3450 3541 
Q 3450 3153 3228 2886 
Q 3006 2619 2597 2516 
z
" transform="scale(0.015625)"/>
       </defs>
       <use xlink:href="#DejaVuSans-33"/>
      </g>
     </g>
    </g>
    <g id="ytick_3">
     <g id="line2d_5">
      <g>
       <use xlink:href="#m3b0627489c" x="126" y="238.963363" style="stroke: #000000; stroke-width: 0.8"/>
      </g>
     </g>
     <g id="text_6">
      <!-- 4 -->
      <g transform="translate(112.6375 242.762582) scale(0.1 -0.1)">
       <defs>
        <path id="DejaVuSans-34" d="M 2419 4116 
L 825 1625 
L 2419 1625 
L 2419 4116 
z
M 2253 4666 
L 3047 4666 
L 3047 1625 
L 3713 1625 
L 3713 1100 
L 3047 1100 
L 3047 0 
L 2419 0 
L 2419 1100 
L 313 1100 
L 313 1709 
L 2253 4666 
z
" transform="scale(0.015625)"/>
       </defs>
       <use xlink:href="#DejaVuSans-34"/>
      </g>
     </g>
    </g>
    <g id="ytick_4">
     <g id="line2d_6">
      <g>
       <use xlink:href="#m3b0627489c" x="126" y="195.485475" style="stroke: #000000; stroke-width: 0.8"/>
      </g>
     </g>
     <g id="text_7">
      <!-- 5 -->
      <g transform="translate(112.6375 199.284694) scale(0.1 -0.1)">
       <defs>
        <path id="DejaVuSans-35" d="M 691 4666 
L 3169 4666 
L 3169 4134 
L 1269 4134 
L 1269 2991 
Q 1406 3038 1543 3061 
Q 1681 3084 1819 3084 
Q 2600 3084 3056 2656 
Q 3513 2228 3513 1497 
Q 3513 744 3044 326 
Q 2575 -91 1722 -91 
Q 1428 -91 1123 -41 
Q 819 9 494 109 
L 494 744 
Q 775 591 1075 516 
Q 1375 441 1709 441 
Q 2250 441 2565 725 
Q 2881 1009 2881 1497 
Q 2881 1984 2565 2268 
Q 2250 2553 1709 2553 
Q 1456 2553 1204 2497 
Q 953 2441 691 2322 
L 691 4666 
z
" transform="scale(0.015625)"/>
       </defs>
       <use xlink:href="#DejaVuSans-35"/>
      </g>
     </g>
    </g>
    <g id="ytick_5">
     <g id="line2d_7">
      <g>
       <use xlink:href="#m3b0627489c" x="126" y="152.007587" style="stroke: #000000; stroke-width: 0.8"/>
      </g>
     </g>
     <g id="text_8">
      <!-- 6 -->
      <g transform="translate(112.6375 155.806806) scale(0.1 -0.1)">
       <defs>
        <path id="DejaVuSans-36" d="M 2113 2584 
Q 1688 2584 1439 2293 
Q 1191 2003 1191 1497 
Q 1191 994 1439 701 
Q 1688 409 2113 409 
Q 2538 409 2786 701 
Q 3034 994 3034 1497 
Q 3034 2003 2786 2293 
Q 2538 2584 2113 2584 
z
M 3366 4563 
L 3366 3988 
Q 3128 4100 2886 4159 
Q 2644 4219 2406 4219 
Q 1781 4219 1451 3797 
Q 1122 3375 1075 2522 
Q 1259 2794 1537 2939 
Q 1816 3084 2150 3084 
Q 2853 3084 3261 2657 
Q 3669 2231 3669 1497 
Q 3669 778 3244 343 
Q 2819 -91 2113 -91 
Q 1303 -91 875 529 
Q 447 1150 447 2328 
Q 447 3434 972 4092 
Q 1497 4750 2381 4750 
Q 2619 4750 2861 4703 
Q 3103 4656 3366 4563 
z
" transform="scale(0.015625)"/>
       </defs>
       <use xlink:href="#DejaVuSans-36"/>
      </g>
     </g>
    </g>
    <g id="ytick_6">
     <g id="line2d_8">
      <g>
       <use xlink:href="#m3b0627489c" x="126" y="108.529699" style="stroke: #000000; stroke-width: 0.8"/>
      </g>
     </g>
     <g id="text_9">
      <!-- 7 -->
      <g transform="translate(112.6375 112.328917) scale(0.1 -0.1)">
       <defs>
        <path id="DejaVuSans-37" d="M 525 4666 
L 3525 4666 
L 3525 4397 
L 1831 0 
L 1172 0 
L 2766 4134 
L 525 4134 
L 525 4666 
z
" transform="scale(0.015625)"/>
       </defs>
       <use xlink:href="#DejaVuSans-37"/>
      </g>
     </g>
    </g>
    <g id="ytick_7">
     <g id="line2d_9">
      <g>
       <use xlink:href="#m3b0627489c" x="126" y="65.051811" style="stroke: #000000; stroke-width: 0.8"/>
      </g>
     </g>
     <g id="text_10">
      <!-- 8 -->
      <g transform="translate(112.6375 68.851029) scale(0.1 -0.1)">
       <defs>
        <path id="DejaVuSans-38" d="M 2034 2216 
Q 1584 2216 1326 1975 
Q 1069 1734 1069 1313 
Q 1069 891 1326 650 
Q 1584 409 2034 409 
Q 2484 409 2743 651 
Q 3003 894 3003 1313 
Q 3003 1734 2745 1975 
Q 2488 2216 2034 2216 
z
M 1403 2484 
Q 997 2584 770 2862 
Q 544 3141 544 3541 
Q 544 4100 942 4425 
Q 1341 4750 2034 4750 
Q 2731 4750 3128 4425 
Q 3525 4100 3525 3541 
Q 3525 3141 3298 2862 
Q 3072 2584 2669 2484 
Q 3125 2378 3379 2068 
Q 3634 1759 3634 1313 
Q 3634 634 3220 271 
Q 2806 -91 2034 -91 
Q 1263 -91 848 271 
Q 434 634 434 1313 
Q 434 1759 690 2068 
Q 947 2378 1403 2484 
z
M 1172 3481 
Q 1172 3119 1398 2916 
Q 1625 2713 2034 2713 
Q 2441 2713 2670 2916 
Q 2900 3119 2900 3481 
Q 2900 3844 2670 4047 
Q 2441 4250 2034 4250 
Q 1625 4250 1398 4047 
Q 1172 3844 1172 3481 
z
" transform="scale(0.015625)"/>
       </defs>
       <use xlink:href="#DejaVuSans-38"/>
      </g>
     </g>
    </g>
    <g id="text_11">
     <!-- kurtosis of log(p-values$\mathregular{^{-1}}$) in GWAS -->
     <g transform="translate(106.5375 288.98) rotate(-90) scale(0.1 -0.1)">
      <defs>
       <path id="DejaVuSans-6b" d="M 581 4863 
L 1159 4863 
L 1159 1991 
L 2875 3500 
L 3609 3500 
L 1753 1863 
L 3688 0 
L 2938 0 
L 1159 1709 
L 1159 0 
L 581 0 
L 581 4863 
z
" transform="scale(0.015625)"/>
       <path id="DejaVuSans-75" d="M 544 1381 
L 544 3500 
L 1119 3500 
L 1119 1403 
Q 1119 906 1312 657 
Q 1506 409 1894 409 
Q 2359 409 2629 706 
Q 2900 1003 2900 1516 
L 2900 3500 
L 3475 3500 
L 3475 0 
L 2900 0 
L 2900 538 
Q 2691 219 2414 64 
Q 2138 -91 1772 -91 
Q 1169 -91 856 284 
Q 544 659 544 1381 
z
M 1991 3584 
L 1991 3584 
z
" transform="scale(0.015625)"/>
       <path id="DejaVuSans-66" d="M 2375 4863 
L 2375 4384 
L 1825 4384 
Q 1516 4384 1395 4259 
Q 1275 4134 1275 3809 
L 1275 3500 
L 2222 3500 
L 2222 3053 
L 1275 3053 
L 1275 0 
L 697 0 
L 697 3053 
L 147 3053 
L 147 3500 
L 697 3500 
L 697 3744 
Q 697 4328 969 4595 
Q 1241 4863 1831 4863 
L 2375 4863 
z
" transform="scale(0.015625)"/>
       <path id="DejaVuSans-28" d="M 1984 4856 
Q 1566 4138 1362 3434 
Q 1159 2731 1159 2009 
Q 1159 1288 1364 580 
Q 1569 -128 1984 -844 
L 1484 -844 
Q 1016 -109 783 600 
Q 550 1309 550 2009 
Q 550 2706 781 3412 
Q 1013 4119 1484 4856 
L 1984 4856 
z
" transform="scale(0.015625)"/>
       <path id="DejaVuSans-2d" d="M 313 2009 
L 1997 2009 
L 1997 1497 
L 313 1497 
L 313 2009 
z
" transform="scale(0.015625)"/>
       <path id="DejaVuSans-76" d="M 191 3500 
L 800 3500 
L 1894 563 
L 2988 3500 
L 3597 3500 
L 2284 0 
L 1503 0 
L 191 3500 
z
" transform="scale(0.015625)"/>
       <path id="DejaVuSans-2212" d="M 678 2272 
L 4684 2272 
L 4684 1741 
L 678 1741 
L 678 2272 
z
" transform="scale(0.015625)"/>
       <path id="DejaVuSans-31" d="M 794 531 
L 1825 531 
L 1825 4091 
L 703 3866 
L 703 4441 
L 1819 4666 
L 2450 4666 
L 2450 531 
L 3481 531 
L 3481 0 
L 794 0 
L 794 531 
z
" transform="scale(0.015625)"/>
       <path id="DejaVuSans-29" d="M 513 4856 
L 1013 4856 
Q 1481 4119 1714 3412 
Q 1947 2706 1947 2009 
Q 1947 1309 1714 600 
Q 1481 -109 1013 -844 
L 513 -844 
Q 928 -128 1133 580 
Q 1338 1288 1338 2009 
Q 1338 2731 1133 3434 
Q 928 4138 513 4856 
z
" transform="scale(0.015625)"/>
       <path id="DejaVuSans-47" d="M 3809 666 
L 3809 1919 
L 2778 1919 
L 2778 2438 
L 4434 2438 
L 4434 434 
Q 4069 175 3628 42 
Q 3188 -91 2688 -91 
Q 1594 -91 976 548 
Q 359 1188 359 2328 
Q 359 3472 976 4111 
Q 1594 4750 2688 4750 
Q 3144 4750 3555 4637 
Q 3966 4525 4313 4306 
L 4313 3634 
Q 3963 3931 3569 4081 
Q 3175 4231 2741 4231 
Q 1884 4231 1454 3753 
Q 1025 3275 1025 2328 
Q 1025 1384 1454 906 
Q 1884 428 2741 428 
Q 3075 428 3337 486 
Q 3600 544 3809 666 
z
" transform="scale(0.015625)"/>
       <path id="DejaVuSans-57" d="M 213 4666 
L 850 4666 
L 1831 722 
L 2809 4666 
L 3519 4666 
L 4500 722 
L 5478 4666 
L 6119 4666 
L 4947 0 
L 4153 0 
L 3169 4050 
L 2175 0 
L 1381 0 
L 213 4666 
z
" transform="scale(0.015625)"/>
       <path id="DejaVuSans-41" d="M 2188 4044 
L 1331 1722 
L 3047 1722 
L 2188 4044 
z
M 1831 4666 
L 2547 4666 
L 4325 0 
L 3669 0 
L 3244 1197 
L 1141 1197 
L 716 0 
L 50 0 
L 1831 4666 
z
" transform="scale(0.015625)"/>
       <path id="DejaVuSans-53" d="M 3425 4513 
L 3425 3897 
Q 3066 4069 2747 4153 
Q 2428 4238 2131 4238 
Q 1616 4238 1336 4038 
Q 1056 3838 1056 3469 
Q 1056 3159 1242 3001 
Q 1428 2844 1947 2747 
L 2328 2669 
Q 3034 2534 3370 2195 
Q 3706 1856 3706 1288 
Q 3706 609 3251 259 
Q 2797 -91 1919 -91 
Q 1588 -91 1214 -16 
Q 841 59 441 206 
L 441 856 
Q 825 641 1194 531 
Q 1563 422 1919 422 
Q 2459 422 2753 634 
Q 3047 847 3047 1241 
Q 3047 1584 2836 1778 
Q 2625 1972 2144 2069 
L 1759 2144 
Q 1053 2284 737 2584 
Q 422 2884 422 3419 
Q 422 4038 858 4394 
Q 1294 4750 2059 4750 
Q 2388 4750 2728 4690 
Q 3069 4631 3425 4513 
z
" transform="scale(0.015625)"/>
      </defs>
      <use xlink:href="#DejaVuSans-6b" transform="translate(0 0.684375)"/>
      <use xlink:href="#DejaVuSans-75" transform="translate(57.910156 0.684375)"/>
      <use xlink:href="#DejaVuSans-72" transform="translate(121.289062 0.684375)"/>
      <use xlink:href="#DejaVuSans-74" transform="translate(162.402344 0.684375)"/>
      <use xlink:href="#DejaVuSans-6f" transform="translate(201.611328 0.684375)"/>
      <use xlink:href="#DejaVuSans-73" transform="translate(262.792969 0.684375)"/>
      <use xlink:href="#DejaVuSans-69" transform="translate(314.892578 0.684375)"/>
      <use xlink:href="#DejaVuSans-73" transform="translate(342.675781 0.684375)"/>
      <use xlink:href="#DejaVuSans-20" transform="translate(394.775391 0.684375)"/>
      <use xlink:href="#DejaVuSans-6f" transform="translate(426.5625 0.684375)"/>
      <use xlink:href="#DejaVuSans-66" transform="translate(487.744141 0.684375)"/>
      <use xlink:href="#DejaVuSans-20" transform="translate(522.949219 0.684375)"/>
      <use xlink:href="#DejaVuSans-6c" transform="translate(554.736328 0.684375)"/>
      <use xlink:href="#DejaVuSans-6f" transform="translate(582.519531 0.684375)"/>
      <use xlink:href="#DejaVuSans-67" transform="translate(643.701172 0.684375)"/>
      <use xlink:href="#DejaVuSans-28" transform="translate(707.177734 0.684375)"/>
      <use xlink:href="#DejaVuSans-70" transform="translate(746.191406 0.684375)"/>
      <use xlink:href="#DejaVuSans-2d" transform="translate(809.667969 0.684375)"/>
      <use xlink:href="#DejaVuSans-76" transform="translate(845.751953 0.684375)"/>
      <use xlink:href="#DejaVuSans-61" transform="translate(904.931641 0.684375)"/>
      <use xlink:href="#DejaVuSans-6c" transform="translate(966.210938 0.684375)"/>
      <use xlink:href="#DejaVuSans-75" transform="translate(993.994141 0.684375)"/>
      <use xlink:href="#DejaVuSans-65" transform="translate(1057.373047 0.684375)"/>
      <use xlink:href="#DejaVuSans-73" transform="translate(1118.896484 0.684375)"/>
      <use xlink:href="#DejaVuSans-2212" transform="translate(1171.953125 38.965625) scale(0.7)"/>
      <use xlink:href="#DejaVuSans-31" transform="translate(1230.605469 38.965625) scale(0.7)"/>
      <use xlink:href="#DejaVuSans-29" transform="translate(1277.875977 0.684375)"/>
      <use xlink:href="#DejaVuSans-20" transform="translate(1316.889648 0.684375)"/>
      <use xlink:href="#DejaVuSans-69" transform="translate(1348.676758 0.684375)"/>
      <use xlink:href="#DejaVuSans-6e" transform="translate(1376.459961 0.684375)"/>
      <use xlink:href="#DejaVuSans-20" transform="translate(1439.838867 0.684375)"/>
      <use xlink:href="#DejaVuSans-47" transform="translate(1471.625977 0.684375)"/>
      <use xlink:href="#DejaVuSans-57" transform="translate(1549.116211 0.684375)"/>
      <use xlink:href="#DejaVuSans-41" transform="translate(1647.993164 0.684375)"/>
      <use xlink:href="#DejaVuSans-53" transform="translate(1716.401367 0.684375)"/>
     </g>
    </g>
   </g>
   <g id="patch_3">
    <path d="M 126 352.44 
L 126 47.52 
" style="fill: none; stroke: #000000; stroke-width: 0.8; stroke-linejoin: miter; stroke-linecap: square"/>
   </g>
   <g id="patch_4">
    <path d="M 126 352.44 
L 355.764706 352.44 
" style="fill: none; stroke: #000000; stroke-width: 0.8; stroke-linejoin: miter; stroke-linecap: square"/>
   </g>
   <g id="PathCollection_1">
    <defs>
     <path id="C0_0_7ae9adadee" d="M 0 2.5 
C 0.663008 2.5 1.29895 2.236584 1.767767 1.767767 
C 2.236584 1.29895 2.5 0.663008 2.5 -0 
C 2.5 -0.663008 2.236584 -1.29895 1.767767 -1.767767 
C 1.29895 -2.236584 0.663008 -2.5 0 -2.5 
C -0.663008 -2.5 -1.29895 -2.236584 -1.767767 -1.767767 
C -2.236584 -1.29895 -2.5 -0.663008 -2.5 0 
C -2.5 0.663008 -2.236584 1.29895 -1.767767 1.767767 
C -1.29895 2.236584 -0.663008 2.5 0 2.5 
z
"/>
    </defs>
    <g clip-path="url(#p14a543bcd6)">
     <use xlink:href="#C0_0_7ae9adadee" x="183.441176" y="338.58" style="fill: #4c72b0"/>
    </g>
    <g clip-path="url(#p14a543bcd6)">
     <use xlink:href="#C0_0_7ae9adadee" x="183.441176" y="301.799863" style="fill: #4c72b0"/>
    </g>
    <g clip-path="url(#p14a543bcd6)">
     <use xlink:href="#C0_0_7ae9adadee" x="185.803544" y="324.038558" style="fill: #4c72b0"/>
    </g>
    <g clip-path="url(#p14a543bcd6)">
     <use xlink:href="#C0_0_7ae9adadee" x="178.263659" y="300.971889" style="fill: #4c72b0"/>
    </g>
    <g clip-path="url(#p14a543bcd6)">
     <use xlink:href="#C0_0_7ae9adadee" x="178.38116" y="277.648014" style="fill: #4c72b0"/>
    </g>
    <g clip-path="url(#p14a543bcd6)">
     <use xlink:href="#C0_0_7ae9adadee" x="183.441176" y="273.032884" style="fill: #4c72b0"/>
    </g>
    <g clip-path="url(#p14a543bcd6)">
     <use xlink:href="#C0_0_7ae9adadee" x="183.441176" y="287.18723" style="fill: #4c72b0"/>
    </g>
    <g clip-path="url(#p14a543bcd6)">
     <use xlink:href="#C0_0_7ae9adadee" x="183.441176" y="296.525096" style="fill: #4c72b0"/>
    </g>
    <g clip-path="url(#p14a543bcd6)">
     <use xlink:href="#C0_0_7ae9adadee" x="188.664644" y="311.462949" style="fill: #4c72b0"/>
    </g>
    <g clip-path="url(#p14a543bcd6)">
     <use xlink:href="#C0_0_7ae9adadee" x="178.449632" y="285.637749" style="fill: #4c72b0"/>
    </g>
    <g clip-path="url(#p14a543bcd6)">
     <use xlink:href="#C0_0_7ae9adadee" x="183.441176" y="278.980915" style="fill: #4c72b0"/>
    </g>
    <g clip-path="url(#p14a543bcd6)">
     <use xlink:href="#C0_0_7ae9adadee" x="178.194927" y="311.776024" style="fill: #55a868"/>
    </g>
    <g clip-path="url(#p14a543bcd6)">
     <use xlink:href="#C0_0_7ae9adadee" x="188.16009" y="336.388622" style="fill: #4c72b0"/>
    </g>
    <g clip-path="url(#p14a543bcd6)">
     <use xlink:href="#C0_0_7ae9adadee" x="188.090752" y="299.477939" style="fill: #55a868"/>
    </g>
    <g clip-path="url(#p14a543bcd6)">
     <use xlink:href="#C0_0_7ae9adadee" x="178.308936" y="330.905458" style="fill: #4c72b0"/>
    </g>
    <g clip-path="url(#p14a543bcd6)">
     <use xlink:href="#C0_0_7ae9adadee" x="183.441176" y="311.964997" style="fill: #55a868"/>
    </g>
    <g clip-path="url(#p14a543bcd6)">
     <use xlink:href="#C0_0_7ae9adadee" x="188.543605" y="330.781367" style="fill: #4c72b0"/>
    </g>
    <g clip-path="url(#p14a543bcd6)">
     <use xlink:href="#C0_0_7ae9adadee" x="193.687888" y="329.783025" style="fill: #4c72b0"/>
    </g>
    <g clip-path="url(#p14a543bcd6)">
     <use xlink:href="#C0_0_7ae9adadee" x="183.441176" y="331.958522" style="fill: #4c72b0"/>
    </g>
    <g clip-path="url(#p14a543bcd6)">
     <use xlink:href="#C0_0_7ae9adadee" x="178.332428" y="316.881649" style="fill: #4c72b0"/>
    </g>
    <g clip-path="url(#p14a543bcd6)">
     <use xlink:href="#C0_0_7ae9adadee" x="181.756088" y="327.223073" style="fill: #4c72b0"/>
    </g>
    <g clip-path="url(#p14a543bcd6)">
     <use xlink:href="#C0_0_7ae9adadee" x="183.441176" y="318.033673" style="fill: #4c72b0"/>
    </g>
    <g clip-path="url(#p14a543bcd6)">
     <use xlink:href="#C0_0_7ae9adadee" x="178.691247" y="336.450269" style="fill: #4c72b0"/>
    </g>
   </g>
   <g id="PathCollection_2">
    <defs>
     <path id="C1_0_f1d0f179f2" d="M 0 2.5 
C 0.663008 2.5 1.29895 2.236584 1.767767 1.767767 
C 2.236584 1.29895 2.5 0.663008 2.5 -0 
C 2.5 -0.663008 2.236584 -1.29895 1.767767 -1.767767 
C 1.29895 -2.236584 0.663008 -2.5 0 -2.5 
C -0.663008 -2.5 -1.29895 -2.236584 -1.767767 -1.767767 
C -2.236584 -1.29895 -2.5 -0.663008 -2.5 0 
C -2.5 0.663008 -2.236584 1.29895 -1.767767 1.767767 
C -1.29895 2.236584 -0.663008 2.5 0 2.5 
z
"/>
    </defs>
    <g clip-path="url(#p14a543bcd6)">
     <use xlink:href="#C1_0_f1d0f179f2" x="303.304804" y="270.571992" style="fill: #4c72b0"/>
    </g>
    <g clip-path="url(#p14a543bcd6)">
     <use xlink:href="#C1_0_f1d0f179f2" x="298.323529" y="261.423255" style="fill: #4c72b0"/>
    </g>
    <g clip-path="url(#p14a543bcd6)">
     <use xlink:href="#C1_0_f1d0f179f2" x="298.323529" y="194.904612" style="fill: #dd8452"/>
    </g>
    <g clip-path="url(#p14a543bcd6)">
     <use xlink:href="#C1_0_f1d0f179f2" x="298.323529" y="272.151166" style="fill: #4c72b0"/>
    </g>
    <g clip-path="url(#p14a543bcd6)">
     <use xlink:href="#C1_0_f1d0f179f2" x="298.323529" y="84.800535" style="fill: #55a868"/>
    </g>
    <g clip-path="url(#p14a543bcd6)">
     <use xlink:href="#C1_0_f1d0f179f2" x="298.323529" y="208.515019" style="fill: #dd8452"/>
    </g>
    <g clip-path="url(#p14a543bcd6)">
     <use xlink:href="#C1_0_f1d0f179f2" x="293.268805" y="270.800173" style="fill: #4c72b0"/>
    </g>
    <g clip-path="url(#p14a543bcd6)">
     <use xlink:href="#C1_0_f1d0f179f2" x="298.323529" y="219.700197" style="fill: #dd8452"/>
    </g>
    <g clip-path="url(#p14a543bcd6)">
     <use xlink:href="#C1_0_f1d0f179f2" x="298.323529" y="175.753732" style="fill: #dd8452"/>
    </g>
    <g clip-path="url(#p14a543bcd6)">
     <use xlink:href="#C1_0_f1d0f179f2" x="298.323529" y="237.235593" style="fill: #dd8452"/>
    </g>
    <g clip-path="url(#p14a543bcd6)">
     <use xlink:href="#C1_0_f1d0f179f2" x="298.323529" y="289.431599" style="fill: #4c72b0"/>
    </g>
    <g clip-path="url(#p14a543bcd6)">
     <use xlink:href="#C1_0_f1d0f179f2" x="298.323529" y="304.595816" style="fill: #dd8452"/>
    </g>
    <g clip-path="url(#p14a543bcd6)">
     <use xlink:href="#C1_0_f1d0f179f2" x="298.323529" y="61.38" style="fill: #dd8452"/>
    </g>
   </g>
   <g id="line2d_10"/>
   <g id="line2d_11"/>
   <g id="line2d_12"/>
   <g id="legend_1">
    <g id="patch_5">
     <path d="M 133 97.955938 
L 226.3875 97.955938 
Q 228.3875 97.955938 228.3875 95.955938 
L 228.3875 54.52 
Q 228.3875 52.52 226.3875 52.52 
L 133 52.52 
Q 131 52.52 131 54.52 
L 131 95.955938 
Q 131 97.955938 133 97.955938 
z
" style="fill: #ffffff; opacity: 0.8; stroke: #cccccc; stroke-linejoin: miter"/>
    </g>
    <g id="line2d_13">
     <defs>
      <path id="m59a1bde094" d="M 0 2.5 
C 0.663008 2.5 1.29895 2.236584 1.767767 1.767767 
C 2.236584 1.29895 2.5 0.663008 2.5 0 
C 2.5 -0.663008 2.236584 -1.29895 1.767767 -1.767767 
C 1.29895 -2.236584 0.663008 -2.5 0 -2.5 
C -0.663008 -2.5 -1.29895 -2.236584 -1.767767 -1.767767 
C -2.236584 -1.29895 -2.5 -0.663008 -2.5 0 
C -2.5 0.663008 -2.236584 1.29895 -1.767767 1.767767 
C -1.29895 2.236584 -0.663008 2.5 0 2.5 
z
"/>
     </defs>
     <g>
      <use xlink:href="#m59a1bde094" x="145" y="60.02" style="fill: #4c72b0"/>
     </g>
    </g>
    <g id="text_12">
     <!-- Ridge -->
     <g transform="translate(163 63.52) scale(0.1 -0.1)">
      <defs>
       <path id="TimesNewRomanPSMT-52" d="M 4325 0 
L 3194 0 
L 1759 1981 
Q 1600 1975 1500 1975 
Q 1459 1975 1412 1976 
Q 1366 1978 1316 1981 
L 1316 750 
Q 1316 350 1403 253 
Q 1522 116 1759 116 
L 1925 116 
L 1925 0 
L 109 0 
L 109 116 
L 269 116 
Q 538 116 653 291 
Q 719 388 719 750 
L 719 3488 
Q 719 3888 631 3984 
Q 509 4122 269 4122 
L 109 4122 
L 109 4238 
L 1653 4238 
Q 2328 4238 2648 4139 
Q 2969 4041 3192 3777 
Q 3416 3513 3416 3147 
Q 3416 2756 3161 2468 
Q 2906 2181 2372 2063 
L 3247 847 
Q 3547 428 3762 290 
Q 3978 153 4325 116 
L 4325 0 
z
M 1316 2178 
Q 1375 2178 1419 2176 
Q 1463 2175 1491 2175 
Q 2097 2175 2405 2437 
Q 2713 2700 2713 3106 
Q 2713 3503 2464 3751 
Q 2216 4000 1806 4000 
Q 1625 4000 1316 3941 
L 1316 2178 
z
" transform="scale(0.015625)"/>
       <path id="TimesNewRomanPSMT-69" d="M 928 4444 
Q 1059 4444 1151 4351 
Q 1244 4259 1244 4128 
Q 1244 3997 1151 3903 
Q 1059 3809 928 3809 
Q 797 3809 703 3903 
Q 609 3997 609 4128 
Q 609 4259 701 4351 
Q 794 4444 928 4444 
z
M 1188 2947 
L 1188 647 
Q 1188 378 1227 289 
Q 1266 200 1342 156 
Q 1419 113 1622 113 
L 1622 0 
L 231 0 
L 231 113 
Q 441 113 512 153 
Q 584 194 626 287 
Q 669 381 669 647 
L 669 1750 
Q 669 2216 641 2353 
Q 619 2453 572 2492 
Q 525 2531 444 2531 
Q 356 2531 231 2484 
L 188 2597 
L 1050 2947 
L 1188 2947 
z
" transform="scale(0.015625)"/>
       <path id="TimesNewRomanPSMT-64" d="M 2222 322 
Q 2013 103 1813 7 
Q 1613 -88 1381 -88 
Q 913 -88 563 304 
Q 213 697 213 1313 
Q 213 1928 600 2439 
Q 988 2950 1597 2950 
Q 1975 2950 2222 2709 
L 2222 3238 
Q 2222 3728 2198 3840 
Q 2175 3953 2125 3993 
Q 2075 4034 2000 4034 
Q 1919 4034 1784 3984 
L 1744 4094 
L 2597 4444 
L 2738 4444 
L 2738 1134 
Q 2738 631 2761 520 
Q 2784 409 2836 365 
Q 2888 322 2956 322 
Q 3041 322 3181 375 
L 3216 266 
L 2366 -88 
L 2222 -88 
L 2222 322 
z
M 2222 541 
L 2222 2016 
Q 2203 2228 2109 2403 
Q 2016 2578 1861 2667 
Q 1706 2756 1559 2756 
Q 1284 2756 1069 2509 
Q 784 2184 784 1559 
Q 784 928 1059 592 
Q 1334 256 1672 256 
Q 1956 256 2222 541 
z
" transform="scale(0.015625)"/>
       <path id="TimesNewRomanPSMT-67" d="M 966 1044 
Q 703 1172 562 1401 
Q 422 1631 422 1909 
Q 422 2334 742 2640 
Q 1063 2947 1563 2947 
Q 1972 2947 2272 2747 
L 2878 2747 
Q 3013 2747 3034 2739 
Q 3056 2731 3066 2713 
Q 3084 2684 3084 2613 
Q 3084 2531 3069 2500 
Q 3059 2484 3036 2475 
Q 3013 2466 2878 2466 
L 2506 2466 
Q 2681 2241 2681 1891 
Q 2681 1491 2375 1206 
Q 2069 922 1553 922 
Q 1341 922 1119 984 
Q 981 866 932 777 
Q 884 688 884 625 
Q 884 572 936 522 
Q 988 472 1138 450 
Q 1225 438 1575 428 
Q 2219 413 2409 384 
Q 2700 344 2873 169 
Q 3047 -6 3047 -263 
Q 3047 -616 2716 -925 
Q 2228 -1381 1444 -1381 
Q 841 -1381 425 -1109 
Q 191 -953 191 -784 
Q 191 -709 225 -634 
Q 278 -519 444 -313 
Q 466 -284 763 25 
Q 600 122 533 198 
Q 466 275 466 372 
Q 466 481 555 628 
Q 644 775 966 1044 
z
M 1509 2797 
Q 1278 2797 1122 2612 
Q 966 2428 966 2047 
Q 966 1553 1178 1281 
Q 1341 1075 1591 1075 
Q 1828 1075 1981 1253 
Q 2134 1431 2134 1813 
Q 2134 2309 1919 2591 
Q 1759 2797 1509 2797 
z
M 934 0 
Q 788 -159 713 -296 
Q 638 -434 638 -550 
Q 638 -700 819 -813 
Q 1131 -1006 1722 -1006 
Q 2284 -1006 2551 -807 
Q 2819 -609 2819 -384 
Q 2819 -222 2659 -153 
Q 2497 -84 2016 -72 
Q 1313 -53 934 0 
z
" transform="scale(0.015625)"/>
       <path id="TimesNewRomanPSMT-65" d="M 681 1784 
Q 678 1147 991 784 
Q 1303 422 1725 422 
Q 2006 422 2214 576 
Q 2422 731 2563 1106 
L 2659 1044 
Q 2594 616 2278 264 
Q 1963 -88 1488 -88 
Q 972 -88 605 314 
Q 238 716 238 1394 
Q 238 2128 614 2539 
Q 991 2950 1559 2950 
Q 2041 2950 2350 2633 
Q 2659 2316 2659 1784 
L 681 1784 
z
M 681 1966 
L 2006 1966 
Q 1991 2241 1941 2353 
Q 1863 2528 1708 2628 
Q 1553 2728 1384 2728 
Q 1125 2728 920 2526 
Q 716 2325 681 1966 
z
" transform="scale(0.015625)"/>
      </defs>
      <use xlink:href="#TimesNewRomanPSMT-52"/>
      <use xlink:href="#TimesNewRomanPSMT-69" x="66.699219"/>
      <use xlink:href="#TimesNewRomanPSMT-64" x="94.482422"/>
      <use xlink:href="#TimesNewRomanPSMT-67" x="144.482422"/>
      <use xlink:href="#TimesNewRomanPSMT-65" x="194.482422"/>
     </g>
    </g>
    <g id="line2d_14">
     <defs>
      <path id="m4be6e34245" d="M 0 2.5 
C 0.663008 2.5 1.29895 2.236584 1.767767 1.767767 
C 2.236584 1.29895 2.5 0.663008 2.5 0 
C 2.5 -0.663008 2.236584 -1.29895 1.767767 -1.767767 
C 1.29895 -2.236584 0.663008 -2.5 0 -2.5 
C -0.663008 -2.5 -1.29895 -2.236584 -1.767767 -1.767767 
C -2.236584 -1.29895 -2.5 -0.663008 -2.5 0 
C -2.5 0.663008 -2.236584 1.29895 -1.767767 1.767767 
C -1.29895 2.236584 -0.663008 2.5 0 2.5 
z
"/>
     </defs>
     <g>
      <use xlink:href="#m4be6e34245" x="145" y="74.177812" style="fill: #dd8452"/>
     </g>
    </g>
    <g id="text_13">
     <!-- Random Forest -->
     <g transform="translate(163 77.677812) scale(0.1 -0.1)">
      <defs>
       <path id="TimesNewRomanPSMT-61" d="M 1822 413 
Q 1381 72 1269 19 
Q 1100 -59 909 -59 
Q 613 -59 420 144 
Q 228 347 228 678 
Q 228 888 322 1041 
Q 450 1253 767 1440 
Q 1084 1628 1822 1897 
L 1822 2009 
Q 1822 2438 1686 2597 
Q 1550 2756 1291 2756 
Q 1094 2756 978 2650 
Q 859 2544 859 2406 
L 866 2225 
Q 866 2081 792 2003 
Q 719 1925 600 1925 
Q 484 1925 411 2006 
Q 338 2088 338 2228 
Q 338 2497 613 2722 
Q 888 2947 1384 2947 
Q 1766 2947 2009 2819 
Q 2194 2722 2281 2516 
Q 2338 2381 2338 1966 
L 2338 994 
Q 2338 584 2353 492 
Q 2369 400 2405 369 
Q 2441 338 2488 338 
Q 2538 338 2575 359 
Q 2641 400 2828 588 
L 2828 413 
Q 2478 -56 2159 -56 
Q 2006 -56 1915 50 
Q 1825 156 1822 413 
z
M 1822 616 
L 1822 1706 
Q 1350 1519 1213 1441 
Q 966 1303 859 1153 
Q 753 1003 753 825 
Q 753 600 887 451 
Q 1022 303 1197 303 
Q 1434 303 1822 616 
z
" transform="scale(0.015625)"/>
       <path id="TimesNewRomanPSMT-6e" d="M 1034 2341 
Q 1538 2947 1994 2947 
Q 2228 2947 2397 2830 
Q 2566 2713 2666 2444 
Q 2734 2256 2734 1869 
L 2734 647 
Q 2734 375 2778 278 
Q 2813 200 2889 156 
Q 2966 113 3172 113 
L 3172 0 
L 1756 0 
L 1756 113 
L 1816 113 
Q 2016 113 2095 173 
Q 2175 234 2206 353 
Q 2219 400 2219 647 
L 2219 1819 
Q 2219 2209 2117 2386 
Q 2016 2563 1775 2563 
Q 1403 2563 1034 2156 
L 1034 647 
Q 1034 356 1069 288 
Q 1113 197 1189 155 
Q 1266 113 1500 113 
L 1500 0 
L 84 0 
L 84 113 
L 147 113 
Q 366 113 442 223 
Q 519 334 519 647 
L 519 1709 
Q 519 2225 495 2337 
Q 472 2450 423 2490 
Q 375 2531 294 2531 
Q 206 2531 84 2484 
L 38 2597 
L 900 2947 
L 1034 2947 
L 1034 2341 
z
" transform="scale(0.015625)"/>
       <path id="TimesNewRomanPSMT-6f" d="M 1600 2947 
Q 2250 2947 2644 2453 
Q 2978 2031 2978 1484 
Q 2978 1100 2793 706 
Q 2609 313 2286 112 
Q 1963 -88 1566 -88 
Q 919 -88 538 428 
Q 216 863 216 1403 
Q 216 1797 411 2186 
Q 606 2575 925 2761 
Q 1244 2947 1600 2947 
z
M 1503 2744 
Q 1338 2744 1170 2645 
Q 1003 2547 900 2300 
Q 797 2053 797 1666 
Q 797 1041 1045 587 
Q 1294 134 1700 134 
Q 2003 134 2200 384 
Q 2397 634 2397 1244 
Q 2397 2006 2069 2444 
Q 1847 2744 1503 2744 
z
" transform="scale(0.015625)"/>
       <path id="TimesNewRomanPSMT-6d" d="M 1050 2338 
Q 1363 2650 1419 2697 
Q 1559 2816 1721 2881 
Q 1884 2947 2044 2947 
Q 2313 2947 2506 2790 
Q 2700 2634 2766 2338 
Q 3088 2713 3309 2830 
Q 3531 2947 3766 2947 
Q 3994 2947 4170 2830 
Q 4347 2713 4450 2447 
Q 4519 2266 4519 1878 
L 4519 647 
Q 4519 378 4559 278 
Q 4591 209 4675 161 
Q 4759 113 4950 113 
L 4950 0 
L 3538 0 
L 3538 113 
L 3597 113 
Q 3781 113 3884 184 
Q 3956 234 3988 344 
Q 4000 397 4000 647 
L 4000 1878 
Q 4000 2228 3916 2372 
Q 3794 2572 3525 2572 
Q 3359 2572 3192 2489 
Q 3025 2406 2788 2181 
L 2781 2147 
L 2788 2013 
L 2788 647 
Q 2788 353 2820 281 
Q 2853 209 2943 161 
Q 3034 113 3253 113 
L 3253 0 
L 1806 0 
L 1806 113 
Q 2044 113 2133 169 
Q 2222 225 2256 338 
Q 2272 391 2272 647 
L 2272 1878 
Q 2272 2228 2169 2381 
Q 2031 2581 1784 2581 
Q 1616 2581 1450 2491 
Q 1191 2353 1050 2181 
L 1050 647 
Q 1050 366 1089 281 
Q 1128 197 1204 155 
Q 1281 113 1516 113 
L 1516 0 
L 100 0 
L 100 113 
Q 297 113 375 155 
Q 453 197 493 289 
Q 534 381 534 647 
L 534 1741 
Q 534 2213 506 2350 
Q 484 2453 437 2492 
Q 391 2531 309 2531 
Q 222 2531 100 2484 
L 53 2597 
L 916 2947 
L 1050 2947 
L 1050 2338 
z
" transform="scale(0.015625)"/>
       <path id="TimesNewRomanPSMT-20" transform="scale(0.015625)"/>
       <path id="TimesNewRomanPSMT-46" d="M 1309 4006 
L 1309 2341 
L 2081 2341 
Q 2347 2341 2470 2458 
Q 2594 2575 2634 2922 
L 2750 2922 
L 2750 1488 
L 2634 1488 
Q 2631 1734 2570 1850 
Q 2509 1966 2401 2023 
Q 2294 2081 2081 2081 
L 1309 2081 
L 1309 750 
Q 1309 428 1350 325 
Q 1381 247 1481 191 
Q 1619 116 1769 116 
L 1922 116 
L 1922 0 
L 103 0 
L 103 116 
L 253 116 
Q 516 116 634 269 
Q 709 369 709 750 
L 709 3488 
Q 709 3809 669 3913 
Q 638 3991 541 4047 
Q 406 4122 253 4122 
L 103 4122 
L 103 4238 
L 3256 4238 
L 3297 3306 
L 3188 3306 
Q 3106 3603 2998 3742 
Q 2891 3881 2733 3943 
Q 2575 4006 2244 4006 
L 1309 4006 
z
" transform="scale(0.015625)"/>
       <path id="TimesNewRomanPSMT-72" d="M 1038 2947 
L 1038 2303 
Q 1397 2947 1775 2947 
Q 1947 2947 2059 2842 
Q 2172 2738 2172 2600 
Q 2172 2478 2090 2393 
Q 2009 2309 1897 2309 
Q 1788 2309 1652 2417 
Q 1516 2525 1450 2525 
Q 1394 2525 1328 2463 
Q 1188 2334 1038 2041 
L 1038 669 
Q 1038 431 1097 309 
Q 1138 225 1241 169 
Q 1344 113 1538 113 
L 1538 0 
L 72 0 
L 72 113 
Q 291 113 397 181 
Q 475 231 506 341 
Q 522 394 522 644 
L 522 1753 
Q 522 2253 501 2348 
Q 481 2444 426 2487 
Q 372 2531 291 2531 
Q 194 2531 72 2484 
L 41 2597 
L 906 2947 
L 1038 2947 
z
" transform="scale(0.015625)"/>
       <path id="TimesNewRomanPSMT-73" d="M 2050 2947 
L 2050 1972 
L 1947 1972 
Q 1828 2431 1642 2597 
Q 1456 2763 1169 2763 
Q 950 2763 815 2647 
Q 681 2531 681 2391 
Q 681 2216 781 2091 
Q 878 1963 1175 1819 
L 1631 1597 
Q 2266 1288 2266 781 
Q 2266 391 1970 151 
Q 1675 -88 1309 -88 
Q 1047 -88 709 6 
Q 606 38 541 38 
Q 469 38 428 -44 
L 325 -44 
L 325 978 
L 428 978 
Q 516 541 762 319 
Q 1009 97 1316 97 
Q 1531 97 1667 223 
Q 1803 350 1803 528 
Q 1803 744 1651 891 
Q 1500 1038 1047 1263 
Q 594 1488 453 1669 
Q 313 1847 313 2119 
Q 313 2472 555 2709 
Q 797 2947 1181 2947 
Q 1350 2947 1591 2875 
Q 1750 2828 1803 2828 
Q 1853 2828 1881 2850 
Q 1909 2872 1947 2947 
L 2050 2947 
z
" transform="scale(0.015625)"/>
       <path id="TimesNewRomanPSMT-74" d="M 1031 3803 
L 1031 2863 
L 1700 2863 
L 1700 2644 
L 1031 2644 
L 1031 788 
Q 1031 509 1111 412 
Q 1191 316 1316 316 
Q 1419 316 1516 380 
Q 1613 444 1666 569 
L 1788 569 
Q 1678 263 1478 108 
Q 1278 -47 1066 -47 
Q 922 -47 784 33 
Q 647 113 581 261 
Q 516 409 516 719 
L 516 2644 
L 63 2644 
L 63 2747 
Q 234 2816 414 2980 
Q 594 3144 734 3369 
Q 806 3488 934 3803 
L 1031 3803 
z
" transform="scale(0.015625)"/>
      </defs>
      <use xlink:href="#TimesNewRomanPSMT-52"/>
      <use xlink:href="#TimesNewRomanPSMT-61" x="66.699219"/>
      <use xlink:href="#TimesNewRomanPSMT-6e" x="111.083984"/>
      <use xlink:href="#TimesNewRomanPSMT-64" x="161.083984"/>
      <use xlink:href="#TimesNewRomanPSMT-6f" x="211.083984"/>
      <use xlink:href="#TimesNewRomanPSMT-6d" x="261.083984"/>
      <use xlink:href="#TimesNewRomanPSMT-20" x="338.867188"/>
      <use xlink:href="#TimesNewRomanPSMT-46" x="363.867188"/>
      <use xlink:href="#TimesNewRomanPSMT-6f" x="419.482422"/>
      <use xlink:href="#TimesNewRomanPSMT-72" x="469.482422"/>
      <use xlink:href="#TimesNewRomanPSMT-65" x="502.783203"/>
      <use xlink:href="#TimesNewRomanPSMT-73" x="547.167969"/>
      <use xlink:href="#TimesNewRomanPSMT-74" x="586.083984"/>
     </g>
    </g>
    <g id="line2d_15">
     <defs>
      <path id="mfe1fb3348f" d="M 0 2.5 
C 0.663008 2.5 1.29895 2.236584 1.767767 1.767767 
C 2.236584 1.29895 2.5 0.663008 2.5 0 
C 2.5 -0.663008 2.236584 -1.29895 1.767767 -1.767767 
C 1.29895 -2.236584 0.663008 -2.5 0 -2.5 
C -0.663008 -2.5 -1.29895 -2.236584 -1.767767 -1.767767 
C -2.236584 -1.29895 -2.5 -0.663008 -2.5 0 
C -2.5 0.663008 -2.236584 1.29895 -1.767767 1.767767 
C -1.29895 2.236584 -0.663008 2.5 0 2.5 
z
"/>
     </defs>
     <g>
      <use xlink:href="#mfe1fb3348f" x="145" y="88.316875" style="fill: #55a868"/>
     </g>
    </g>
    <g id="text_14">
     <!-- Lasso -->
     <g transform="translate(163 91.816875) scale(0.1 -0.1)">
      <defs>
       <path id="TimesNewRomanPSMT-4c" d="M 3669 1172 
L 3772 1150 
L 3409 0 
L 128 0 
L 128 116 
L 288 116 
Q 556 116 672 291 
Q 738 391 738 753 
L 738 3488 
Q 738 3884 650 3984 
Q 528 4122 288 4122 
L 128 4122 
L 128 4238 
L 2047 4238 
L 2047 4122 
Q 1709 4125 1573 4059 
Q 1438 3994 1388 3894 
Q 1338 3794 1338 3416 
L 1338 753 
Q 1338 494 1388 397 
Q 1425 331 1503 300 
Q 1581 269 1991 269 
L 2300 269 
Q 2788 269 2984 341 
Q 3181 413 3343 595 
Q 3506 778 3669 1172 
z
" transform="scale(0.015625)"/>
      </defs>
      <use xlink:href="#TimesNewRomanPSMT-4c"/>
      <use xlink:href="#TimesNewRomanPSMT-61" x="61.083984"/>
      <use xlink:href="#TimesNewRomanPSMT-73" x="105.46875"/>
      <use xlink:href="#TimesNewRomanPSMT-73" x="144.384766"/>
      <use xlink:href="#TimesNewRomanPSMT-6f" x="183.300781"/>
     </g>
    </g>
   </g>
  </g>
  <g id="axes_2">
   <g id="patch_6">
    <path d="M 401.717647 352.44 
L 631.482353 352.44 
L 631.482353 47.52 
L 401.717647 47.52 
z
" style="fill: #ffffff"/>
   </g>
   <g id="matplotlib.axis_3">
    <g id="xtick_3">
     <g id="line2d_16">
      <g>
       <use xlink:href="#m1e9b301437" x="459.158824" y="352.44" style="stroke: #000000; stroke-width: 0.8"/>
      </g>
     </g>
     <g id="text_15">
      <!-- macroscopic trait -->
      <g transform="translate(415.729136 367.038437) scale(0.1 -0.1)">
       <use xlink:href="#DejaVuSans-6d"/>
       <use xlink:href="#DejaVuSans-61" x="97.412109"/>
       <use xlink:href="#DejaVuSans-63" x="158.691406"/>
       <use xlink:href="#DejaVuSans-72" x="213.671875"/>
       <use xlink:href="#DejaVuSans-6f" x="252.535156"/>
       <use xlink:href="#DejaVuSans-73" x="313.716797"/>
       <use xlink:href="#DejaVuSans-63" x="365.816406"/>
       <use xlink:href="#DejaVuSans-6f" x="420.796875"/>
       <use xlink:href="#DejaVuSans-70" x="481.978516"/>
       <use xlink:href="#DejaVuSans-69" x="545.455078"/>
       <use xlink:href="#DejaVuSans-63" x="573.238281"/>
       <use xlink:href="#DejaVuSans-20" x="628.21875"/>
       <use xlink:href="#DejaVuSans-74" x="660.005859"/>
       <use xlink:href="#DejaVuSans-72" x="699.214844"/>
       <use xlink:href="#DejaVuSans-61" x="740.328125"/>
       <use xlink:href="#DejaVuSans-69" x="801.607422"/>
       <use xlink:href="#DejaVuSans-74" x="829.390625"/>
      </g>
     </g>
    </g>
    <g id="xtick_4">
     <g id="line2d_17">
      <g>
       <use xlink:href="#m1e9b301437" x="574.041176" y="352.44" style="stroke: #000000; stroke-width: 0.8"/>
      </g>
     </g>
     <g id="text_16">
      <!-- biochemical trait -->
      <g transform="translate(531.944301 367.038437) scale(0.1 -0.1)">
       <use xlink:href="#DejaVuSans-62"/>
       <use xlink:href="#DejaVuSans-69" x="63.476562"/>
       <use xlink:href="#DejaVuSans-6f" x="91.259766"/>
       <use xlink:href="#DejaVuSans-63" x="152.441406"/>
       <use xlink:href="#DejaVuSans-68" x="207.421875"/>
       <use xlink:href="#DejaVuSans-65" x="270.800781"/>
       <use xlink:href="#DejaVuSans-6d" x="332.324219"/>
       <use xlink:href="#DejaVuSans-69" x="429.736328"/>
       <use xlink:href="#DejaVuSans-63" x="457.519531"/>
       <use xlink:href="#DejaVuSans-61" x="512.5"/>
       <use xlink:href="#DejaVuSans-6c" x="573.779297"/>
       <use xlink:href="#DejaVuSans-20" x="601.5625"/>
       <use xlink:href="#DejaVuSans-74" x="633.349609"/>
       <use xlink:href="#DejaVuSans-72" x="672.558594"/>
       <use xlink:href="#DejaVuSans-61" x="713.671875"/>
       <use xlink:href="#DejaVuSans-69" x="774.951172"/>
       <use xlink:href="#DejaVuSans-74" x="802.734375"/>
      </g>
     </g>
    </g>
    <g id="text_17">
     <!-- ont -->
     <g transform="translate(508.411719 380.716563) scale(0.1 -0.1)">
      <use xlink:href="#DejaVuSans-6f"/>
      <use xlink:href="#DejaVuSans-6e" x="61.181641"/>
      <use xlink:href="#DejaVuSans-74" x="124.560547"/>
     </g>
    </g>
   </g>
   <g id="matplotlib.axis_4">
    <g id="ytick_8">
     <g id="line2d_18">
      <g>
       <use xlink:href="#m3b0627489c" x="401.717647" y="318.036362" style="stroke: #000000; stroke-width: 0.8"/>
      </g>
     </g>
     <g id="text_18">
      <!-- 0.2 -->
      <g transform="translate(378.814522 321.835581) scale(0.1 -0.1)">
       <defs>
        <path id="DejaVuSans-30" d="M 2034 4250 
Q 1547 4250 1301 3770 
Q 1056 3291 1056 2328 
Q 1056 1369 1301 889 
Q 1547 409 2034 409 
Q 2525 409 2770 889 
Q 3016 1369 3016 2328 
Q 3016 3291 2770 3770 
Q 2525 4250 2034 4250 
z
M 2034 4750 
Q 2819 4750 3233 4129 
Q 3647 3509 3647 2328 
Q 3647 1150 3233 529 
Q 2819 -91 2034 -91 
Q 1250 -91 836 529 
Q 422 1150 422 2328 
Q 422 3509 836 4129 
Q 1250 4750 2034 4750 
z
" transform="scale(0.015625)"/>
        <path id="DejaVuSans-2e" d="M 684 794 
L 1344 794 
L 1344 0 
L 684 0 
L 684 794 
z
" transform="scale(0.015625)"/>
       </defs>
       <use xlink:href="#DejaVuSans-30"/>
       <use xlink:href="#DejaVuSans-2e" x="63.623047"/>
       <use xlink:href="#DejaVuSans-32" x="95.410156"/>
      </g>
     </g>
    </g>
    <g id="ytick_9">
     <g id="line2d_19">
      <g>
       <use xlink:href="#m3b0627489c" x="401.717647" y="264.502314" style="stroke: #000000; stroke-width: 0.8"/>
      </g>
     </g>
     <g id="text_19">
      <!-- 0.4 -->
      <g transform="translate(378.814522 268.301532) scale(0.1 -0.1)">
       <use xlink:href="#DejaVuSans-30"/>
       <use xlink:href="#DejaVuSans-2e" x="63.623047"/>
       <use xlink:href="#DejaVuSans-34" x="95.410156"/>
      </g>
     </g>
    </g>
    <g id="ytick_10">
     <g id="line2d_20">
      <g>
       <use xlink:href="#m3b0627489c" x="401.717647" y="210.968265" style="stroke: #000000; stroke-width: 0.8"/>
      </g>
     </g>
     <g id="text_20">
      <!-- 0.6 -->
      <g transform="translate(378.814522 214.767484) scale(0.1 -0.1)">
       <use xlink:href="#DejaVuSans-30"/>
       <use xlink:href="#DejaVuSans-2e" x="63.623047"/>
       <use xlink:href="#DejaVuSans-36" x="95.410156"/>
      </g>
     </g>
    </g>
    <g id="ytick_11">
     <g id="line2d_21">
      <g>
       <use xlink:href="#m3b0627489c" x="401.717647" y="157.434217" style="stroke: #000000; stroke-width: 0.8"/>
      </g>
     </g>
     <g id="text_21">
      <!-- 0.8 -->
      <g transform="translate(378.814522 161.233436) scale(0.1 -0.1)">
       <use xlink:href="#DejaVuSans-30"/>
       <use xlink:href="#DejaVuSans-2e" x="63.623047"/>
       <use xlink:href="#DejaVuSans-38" x="95.410156"/>
      </g>
     </g>
    </g>
    <g id="ytick_12">
     <g id="line2d_22">
      <g>
       <use xlink:href="#m3b0627489c" x="401.717647" y="103.900169" style="stroke: #000000; stroke-width: 0.8"/>
      </g>
     </g>
     <g id="text_22">
      <!-- 1.0 -->
      <g transform="translate(378.814522 107.699387) scale(0.1 -0.1)">
       <use xlink:href="#DejaVuSans-31"/>
       <use xlink:href="#DejaVuSans-2e" x="63.623047"/>
       <use xlink:href="#DejaVuSans-30" x="95.410156"/>
      </g>
     </g>
    </g>
    <g id="ytick_13">
     <g id="line2d_23">
      <g>
       <use xlink:href="#m3b0627489c" x="401.717647" y="50.36612" style="stroke: #000000; stroke-width: 0.8"/>
      </g>
     </g>
     <g id="text_23">
      <!-- 1.2 -->
      <g transform="translate(378.814522 54.165339) scale(0.1 -0.1)">
       <use xlink:href="#DejaVuSans-31"/>
       <use xlink:href="#DejaVuSans-2e" x="63.623047"/>
       <use xlink:href="#DejaVuSans-32" x="95.410156"/>
      </g>
     </g>
    </g>
    <g id="text_24">
     <!-- r2 of pca regression divided by -->
     <g transform="translate(361.537022 277.479219) rotate(-90) scale(0.1 -0.1)">
      <defs>
       <path id="DejaVuSans-64" d="M 2906 2969 
L 2906 4863 
L 3481 4863 
L 3481 0 
L 2906 0 
L 2906 525 
Q 2725 213 2448 61 
Q 2172 -91 1784 -91 
Q 1150 -91 751 415 
Q 353 922 353 1747 
Q 353 2572 751 3078 
Q 1150 3584 1784 3584 
Q 2172 3584 2448 3432 
Q 2725 3281 2906 2969 
z
M 947 1747 
Q 947 1113 1208 752 
Q 1469 391 1925 391 
Q 2381 391 2643 752 
Q 2906 1113 2906 1747 
Q 2906 2381 2643 2742 
Q 2381 3103 1925 3103 
Q 1469 3103 1208 2742 
Q 947 2381 947 1747 
z
" transform="scale(0.015625)"/>
      </defs>
      <use xlink:href="#DejaVuSans-72"/>
      <use xlink:href="#DejaVuSans-32" x="41.113281"/>
      <use xlink:href="#DejaVuSans-20" x="104.736328"/>
      <use xlink:href="#DejaVuSans-6f" x="136.523438"/>
      <use xlink:href="#DejaVuSans-66" x="197.705078"/>
      <use xlink:href="#DejaVuSans-20" x="232.910156"/>
      <use xlink:href="#DejaVuSans-70" x="264.697266"/>
      <use xlink:href="#DejaVuSans-63" x="328.173828"/>
      <use xlink:href="#DejaVuSans-61" x="383.154297"/>
      <use xlink:href="#DejaVuSans-20" x="444.433594"/>
      <use xlink:href="#DejaVuSans-72" x="476.220703"/>
      <use xlink:href="#DejaVuSans-65" x="515.083984"/>
      <use xlink:href="#DejaVuSans-67" x="576.607422"/>
      <use xlink:href="#DejaVuSans-72" x="640.083984"/>
      <use xlink:href="#DejaVuSans-65" x="678.947266"/>
      <use xlink:href="#DejaVuSans-73" x="740.470703"/>
      <use xlink:href="#DejaVuSans-73" x="792.570312"/>
      <use xlink:href="#DejaVuSans-69" x="844.669922"/>
      <use xlink:href="#DejaVuSans-6f" x="872.453125"/>
      <use xlink:href="#DejaVuSans-6e" x="933.634766"/>
      <use xlink:href="#DejaVuSans-20" x="997.013672"/>
      <use xlink:href="#DejaVuSans-64" x="1028.800781"/>
      <use xlink:href="#DejaVuSans-69" x="1092.277344"/>
      <use xlink:href="#DejaVuSans-76" x="1120.060547"/>
      <use xlink:href="#DejaVuSans-69" x="1179.240234"/>
      <use xlink:href="#DejaVuSans-64" x="1207.023438"/>
      <use xlink:href="#DejaVuSans-65" x="1270.5"/>
      <use xlink:href="#DejaVuSans-64" x="1332.023438"/>
      <use xlink:href="#DejaVuSans-20" x="1395.5"/>
      <use xlink:href="#DejaVuSans-62" x="1427.287109"/>
      <use xlink:href="#DejaVuSans-79" x="1490.763672"/>
     </g>
     <!-- r2 of marker based regression -->
     <g transform="translate(372.734835 275.362031) rotate(-90) scale(0.1 -0.1)">
      <use xlink:href="#DejaVuSans-72"/>
      <use xlink:href="#DejaVuSans-32" x="41.113281"/>
      <use xlink:href="#DejaVuSans-20" x="104.736328"/>
      <use xlink:href="#DejaVuSans-6f" x="136.523438"/>
      <use xlink:href="#DejaVuSans-66" x="197.705078"/>
      <use xlink:href="#DejaVuSans-20" x="232.910156"/>
      <use xlink:href="#DejaVuSans-6d" x="264.697266"/>
      <use xlink:href="#DejaVuSans-61" x="362.109375"/>
      <use xlink:href="#DejaVuSans-72" x="423.388672"/>
      <use xlink:href="#DejaVuSans-6b" x="464.501953"/>
      <use xlink:href="#DejaVuSans-65" x="518.787109"/>
      <use xlink:href="#DejaVuSans-72" x="580.310547"/>
      <use xlink:href="#DejaVuSans-20" x="621.423828"/>
      <use xlink:href="#DejaVuSans-62" x="653.210938"/>
      <use xlink:href="#DejaVuSans-61" x="716.6875"/>
      <use xlink:href="#DejaVuSans-73" x="777.966797"/>
      <use xlink:href="#DejaVuSans-65" x="830.066406"/>
      <use xlink:href="#DejaVuSans-64" x="891.589844"/>
      <use xlink:href="#DejaVuSans-20" x="955.066406"/>
      <use xlink:href="#DejaVuSans-72" x="986.853516"/>
      <use xlink:href="#DejaVuSans-65" x="1025.716797"/>
      <use xlink:href="#DejaVuSans-67" x="1087.240234"/>
      <use xlink:href="#DejaVuSans-72" x="1150.716797"/>
      <use xlink:href="#DejaVuSans-65" x="1189.580078"/>
      <use xlink:href="#DejaVuSans-73" x="1251.103516"/>
      <use xlink:href="#DejaVuSans-73" x="1303.203125"/>
      <use xlink:href="#DejaVuSans-69" x="1355.302734"/>
      <use xlink:href="#DejaVuSans-6f" x="1383.085938"/>
      <use xlink:href="#DejaVuSans-6e" x="1444.267578"/>
     </g>
    </g>
   </g>
   <g id="patch_7">
    <path d="M 401.717647 352.44 
L 401.717647 47.52 
" style="fill: none; stroke: #000000; stroke-width: 0.8; stroke-linejoin: miter; stroke-linecap: square"/>
   </g>
   <g id="patch_8">
    <path d="M 401.717647 352.44 
L 631.482353 352.44 
" style="fill: none; stroke: #000000; stroke-width: 0.8; stroke-linejoin: miter; stroke-linecap: square"/>
   </g>
   <g id="PathCollection_3">
    <defs>
     <path id="C2_0_7066c216d5" d="M 0 2.5 
C 0.663008 2.5 1.29895 2.236584 1.767767 1.767767 
C 2.236584 1.29895 2.5 0.663008 2.5 -0 
C 2.5 -0.663008 2.236584 -1.29895 1.767767 -1.767767 
C 1.29895 -2.236584 0.663008 -2.5 0 -2.5 
C -0.663008 -2.5 -1.29895 -2.236584 -1.767767 -1.767767 
C -2.236584 -1.29895 -2.5 -0.663008 -2.5 0 
C -2.5 0.663008 -2.236584 1.29895 -1.767767 1.767767 
C -1.29895 2.236584 -0.663008 2.5 0 2.5 
z
"/>
    </defs>
    <g clip-path="url(#pc7a2982aef)">
     <use xlink:href="#C2_0_7066c216d5" x="463.349817" y="117.795909" style="fill: #4c72b0"/>
    </g>
    <g clip-path="url(#pc7a2982aef)">
     <use xlink:href="#C2_0_7066c216d5" x="464.209877" y="111.516718" style="fill: #4c72b0"/>
    </g>
    <g clip-path="url(#pc7a2982aef)">
     <use xlink:href="#C2_0_7066c216d5" x="459.158824" y="135.118019" style="fill: #4c72b0"/>
    </g>
    <g clip-path="url(#pc7a2982aef)">
     <use xlink:href="#C2_0_7066c216d5" x="459.158824" y="112.880105" style="fill: #4c72b0"/>
    </g>
    <g clip-path="url(#pc7a2982aef)">
     <use xlink:href="#C2_0_7066c216d5" x="459.158824" y="127.328593" style="fill: #4c72b0"/>
    </g>
    <g clip-path="url(#pc7a2982aef)">
     <use xlink:href="#C2_0_7066c216d5" x="454.065559" y="150.237494" style="fill: #4c72b0"/>
    </g>
    <g clip-path="url(#pc7a2982aef)">
     <use xlink:href="#C2_0_7066c216d5" x="459.158824" y="101.830305" style="fill: #4c72b0"/>
    </g>
    <g clip-path="url(#pc7a2982aef)">
     <use xlink:href="#C2_0_7066c216d5" x="459.158824" y="88.659231" style="fill: #4c72b0"/>
    </g>
    <g clip-path="url(#pc7a2982aef)">
     <use xlink:href="#C2_0_7066c216d5" x="453.914596" y="134.883615" style="fill: #4c72b0"/>
    </g>
    <g clip-path="url(#pc7a2982aef)">
     <use xlink:href="#C2_0_7066c216d5" x="454.123068" y="118.750542" style="fill: #4c72b0"/>
    </g>
    <g clip-path="url(#pc7a2982aef)">
     <use xlink:href="#C2_0_7066c216d5" x="459.158824" y="151.45011" style="fill: #4c72b0"/>
    </g>
    <g clip-path="url(#pc7a2982aef)">
     <use xlink:href="#C2_0_7066c216d5" x="459.158824" y="219.092298" style="fill: #55a868"/>
    </g>
    <g clip-path="url(#pc7a2982aef)">
     <use xlink:href="#C2_0_7066c216d5" x="459.158824" y="146.214035" style="fill: #4c72b0"/>
    </g>
    <g clip-path="url(#pc7a2982aef)">
     <use xlink:href="#C2_0_7066c216d5" x="459.158824" y="306.339261" style="fill: #55a868"/>
    </g>
    <g clip-path="url(#pc7a2982aef)">
     <use xlink:href="#C2_0_7066c216d5" x="455.794024" y="123.49053" style="fill: #4c72b0"/>
    </g>
    <g clip-path="url(#pc7a2982aef)">
     <use xlink:href="#C2_0_7066c216d5" x="460.866464" y="122.201169" style="fill: #55a868"/>
    </g>
    <g clip-path="url(#pc7a2982aef)">
     <use xlink:href="#C2_0_7066c216d5" x="459.158824" y="61.38" style="fill: #4c72b0"/>
    </g>
    <g clip-path="url(#pc7a2982aef)">
     <use xlink:href="#C2_0_7066c216d5" x="449.49965" y="109.465745" style="fill: #4c72b0"/>
    </g>
    <g clip-path="url(#pc7a2982aef)">
     <use xlink:href="#C2_0_7066c216d5" x="459.158824" y="94.231116" style="fill: #4c72b0"/>
    </g>
    <g clip-path="url(#pc7a2982aef)">
     <use xlink:href="#C2_0_7066c216d5" x="455.32829" y="85.239996" style="fill: #4c72b0"/>
    </g>
    <g clip-path="url(#pc7a2982aef)">
     <use xlink:href="#C2_0_7066c216d5" x="466.116394" y="122.175312" style="fill: #4c72b0"/>
    </g>
    <g clip-path="url(#pc7a2982aef)">
     <use xlink:href="#C2_0_7066c216d5" x="453.977055" y="112.076614" style="fill: #4c72b0"/>
    </g>
    <g clip-path="url(#pc7a2982aef)">
     <use xlink:href="#C2_0_7066c216d5" x="459.158824" y="165.848636" style="fill: #4c72b0"/>
    </g>
   </g>
   <g id="PathCollection_4">
    <defs>
     <path id="C3_0_c46d14158e" d="M 0 2.5 
C 0.663008 2.5 1.29895 2.236584 1.767767 1.767767 
C 2.236584 1.29895 2.5 0.663008 2.5 -0 
C 2.5 -0.663008 2.236584 -1.29895 1.767767 -1.767767 
C 1.29895 -2.236584 0.663008 -2.5 0 -2.5 
C -0.663008 -2.5 -1.29895 -2.236584 -1.767767 -1.767767 
C -2.236584 -1.29895 -2.5 -0.663008 -2.5 0 
C -2.5 0.663008 -2.236584 1.29895 -1.767767 1.767767 
C -1.29895 2.236584 -0.663008 2.5 0 2.5 
z
"/>
    </defs>
    <g clip-path="url(#pc7a2982aef)">
     <use xlink:href="#C3_0_c46d14158e" x="574.041176" y="87.281673" style="fill: #4c72b0"/>
    </g>
    <g clip-path="url(#pc7a2982aef)">
     <use xlink:href="#C3_0_c46d14158e" x="568.803047" y="86.945629" style="fill: #4c72b0"/>
    </g>
    <g clip-path="url(#pc7a2982aef)">
     <use xlink:href="#C3_0_c46d14158e" x="574.041176" y="134.195646" style="fill: #dd8452"/>
    </g>
    <g clip-path="url(#pc7a2982aef)">
     <use xlink:href="#C3_0_c46d14158e" x="574.041176" y="119.266242" style="fill: #4c72b0"/>
    </g>
    <g clip-path="url(#pc7a2982aef)">
     <use xlink:href="#C3_0_c46d14158e" x="574.041176" y="214.923807" style="fill: #55a868"/>
    </g>
    <g clip-path="url(#pc7a2982aef)">
     <use xlink:href="#C3_0_c46d14158e" x="568.908789" y="133.143232" style="fill: #dd8452"/>
    </g>
    <g clip-path="url(#pc7a2982aef)">
     <use xlink:href="#C3_0_c46d14158e" x="574.041176" y="112.208644" style="fill: #4c72b0"/>
    </g>
    <g clip-path="url(#pc7a2982aef)">
     <use xlink:href="#C3_0_c46d14158e" x="574.041176" y="154.097066" style="fill: #dd8452"/>
    </g>
    <g clip-path="url(#pc7a2982aef)">
     <use xlink:href="#C3_0_c46d14158e" x="574.041176" y="338.58" style="fill: #dd8452"/>
    </g>
    <g clip-path="url(#pc7a2982aef)">
     <use xlink:href="#C3_0_c46d14158e" x="574.041176" y="262.383513" style="fill: #dd8452"/>
    </g>
    <g clip-path="url(#pc7a2982aef)">
     <use xlink:href="#C3_0_c46d14158e" x="574.041176" y="207.362814" style="fill: #4c72b0"/>
    </g>
    <g clip-path="url(#pc7a2982aef)">
     <use xlink:href="#C3_0_c46d14158e" x="568.842628" y="261.685217" style="fill: #dd8452"/>
    </g>
    <g clip-path="url(#pc7a2982aef)">
     <use xlink:href="#C3_0_c46d14158e" x="570.899298" y="334.574211" style="fill: #dd8452"/>
    </g>
   </g>
   <g id="line2d_24"/>
   <g id="line2d_25"/>
   <g id="line2d_26"/>
   <g id="legend_2">
    <g id="patch_9">
     <path d="M 469.90625 347.44 
L 563.29375 347.44 
Q 565.29375 347.44 565.29375 345.44 
L 565.29375 304.004063 
Q 565.29375 302.004063 563.29375 302.004063 
L 469.90625 302.004063 
Q 467.90625 302.004063 467.90625 304.004063 
L 467.90625 345.44 
Q 467.90625 347.44 469.90625 347.44 
z
" style="fill: #ffffff; opacity: 0.8; stroke: #cccccc; stroke-linejoin: miter"/>
    </g>
    <g id="line2d_27">
     <g>
      <use xlink:href="#m59a1bde094" x="481.90625" y="309.504063" style="fill: #4c72b0"/>
     </g>
    </g>
    <g id="text_25">
     <!-- Ridge -->
     <g transform="translate(499.90625 313.004063) scale(0.1 -0.1)">
      <use xlink:href="#TimesNewRomanPSMT-52"/>
      <use xlink:href="#TimesNewRomanPSMT-69" x="66.699219"/>
      <use xlink:href="#TimesNewRomanPSMT-64" x="94.482422"/>
      <use xlink:href="#TimesNewRomanPSMT-67" x="144.482422"/>
      <use xlink:href="#TimesNewRomanPSMT-65" x="194.482422"/>
     </g>
    </g>
    <g id="line2d_28">
     <g>
      <use xlink:href="#m4be6e34245" x="481.90625" y="323.661875" style="fill: #dd8452"/>
     </g>
    </g>
    <g id="text_26">
     <!-- Random Forest -->
     <g transform="translate(499.90625 327.161875) scale(0.1 -0.1)">
      <use xlink:href="#TimesNewRomanPSMT-52"/>
      <use xlink:href="#TimesNewRomanPSMT-61" x="66.699219"/>
      <use xlink:href="#TimesNewRomanPSMT-6e" x="111.083984"/>
      <use xlink:href="#TimesNewRomanPSMT-64" x="161.083984"/>
      <use xlink:href="#TimesNewRomanPSMT-6f" x="211.083984"/>
      <use xlink:href="#TimesNewRomanPSMT-6d" x="261.083984"/>
      <use xlink:href="#TimesNewRomanPSMT-20" x="338.867188"/>
      <use xlink:href="#TimesNewRomanPSMT-46" x="363.867188"/>
      <use xlink:href="#TimesNewRomanPSMT-6f" x="419.482422"/>
      <use xlink:href="#TimesNewRomanPSMT-72" x="469.482422"/>
      <use xlink:href="#TimesNewRomanPSMT-65" x="502.783203"/>
      <use xlink:href="#TimesNewRomanPSMT-73" x="547.167969"/>
      <use xlink:href="#TimesNewRomanPSMT-74" x="586.083984"/>
     </g>
    </g>
    <g id="line2d_29">
     <g>
      <use xlink:href="#mfe1fb3348f" x="481.90625" y="337.800938" style="fill: #55a868"/>
     </g>
    </g>
    <g id="text_27">
     <!-- Lasso -->
     <g transform="translate(499.90625 341.300938) scale(0.1 -0.1)">
      <use xlink:href="#TimesNewRomanPSMT-4c"/>
      <use xlink:href="#TimesNewRomanPSMT-61" x="61.083984"/>
      <use xlink:href="#TimesNewRomanPSMT-73" x="105.46875"/>
      <use xlink:href="#TimesNewRomanPSMT-73" x="144.384766"/>
      <use xlink:href="#TimesNewRomanPSMT-6f" x="183.300781"/>
     </g>
    </g>
   </g>
  </g>
  <g id="axes_3">
   <g id="patch_10">
    <path d="M 677.435294 352.44 
L 907.2 352.44 
L 907.2 47.52 
L 677.435294 47.52 
z
" style="fill: #ffffff"/>
   </g>
   <g id="matplotlib.axis_5">
    <g id="xtick_5">
     <g id="line2d_30">
      <g>
       <use xlink:href="#m1e9b301437" x="734.876471" y="352.44" style="stroke: #000000; stroke-width: 0.8"/>
      </g>
     </g>
     <g id="text_28">
      <!-- macroscopic trait -->
      <g transform="translate(691.446783 367.038437) scale(0.1 -0.1)">
       <use xlink:href="#DejaVuSans-6d"/>
       <use xlink:href="#DejaVuSans-61" x="97.412109"/>
       <use xlink:href="#DejaVuSans-63" x="158.691406"/>
       <use xlink:href="#DejaVuSans-72" x="213.671875"/>
       <use xlink:href="#DejaVuSans-6f" x="252.535156"/>
       <use xlink:href="#DejaVuSans-73" x="313.716797"/>
       <use xlink:href="#DejaVuSans-63" x="365.816406"/>
       <use xlink:href="#DejaVuSans-6f" x="420.796875"/>
       <use xlink:href="#DejaVuSans-70" x="481.978516"/>
       <use xlink:href="#DejaVuSans-69" x="545.455078"/>
       <use xlink:href="#DejaVuSans-63" x="573.238281"/>
       <use xlink:href="#DejaVuSans-20" x="628.21875"/>
       <use xlink:href="#DejaVuSans-74" x="660.005859"/>
       <use xlink:href="#DejaVuSans-72" x="699.214844"/>
       <use xlink:href="#DejaVuSans-61" x="740.328125"/>
       <use xlink:href="#DejaVuSans-69" x="801.607422"/>
       <use xlink:href="#DejaVuSans-74" x="829.390625"/>
      </g>
     </g>
    </g>
    <g id="xtick_6">
     <g id="line2d_31">
      <g>
       <use xlink:href="#m1e9b301437" x="849.758824" y="352.44" style="stroke: #000000; stroke-width: 0.8"/>
      </g>
     </g>
     <g id="text_29">
      <!-- biochemical trait -->
      <g transform="translate(807.661949 367.038437) scale(0.1 -0.1)">
       <use xlink:href="#DejaVuSans-62"/>
       <use xlink:href="#DejaVuSans-69" x="63.476562"/>
       <use xlink:href="#DejaVuSans-6f" x="91.259766"/>
       <use xlink:href="#DejaVuSans-63" x="152.441406"/>
       <use xlink:href="#DejaVuSans-68" x="207.421875"/>
       <use xlink:href="#DejaVuSans-65" x="270.800781"/>
       <use xlink:href="#DejaVuSans-6d" x="332.324219"/>
       <use xlink:href="#DejaVuSans-69" x="429.736328"/>
       <use xlink:href="#DejaVuSans-63" x="457.519531"/>
       <use xlink:href="#DejaVuSans-61" x="512.5"/>
       <use xlink:href="#DejaVuSans-6c" x="573.779297"/>
       <use xlink:href="#DejaVuSans-20" x="601.5625"/>
       <use xlink:href="#DejaVuSans-74" x="633.349609"/>
       <use xlink:href="#DejaVuSans-72" x="672.558594"/>
       <use xlink:href="#DejaVuSans-61" x="713.671875"/>
       <use xlink:href="#DejaVuSans-69" x="774.951172"/>
       <use xlink:href="#DejaVuSans-74" x="802.734375"/>
      </g>
     </g>
    </g>
    <g id="text_30">
     <!-- ontology -->
     <g transform="translate(770.48796 380.716563) scale(0.1 -0.1)">
      <use xlink:href="#DejaVuSans-6f"/>
      <use xlink:href="#DejaVuSans-6e" x="61.181641"/>
      <use xlink:href="#DejaVuSans-74" x="124.560547"/>
      <use xlink:href="#DejaVuSans-6f" x="163.769531"/>
      <use xlink:href="#DejaVuSans-6c" x="224.951172"/>
      <use xlink:href="#DejaVuSans-6f" x="252.734375"/>
      <use xlink:href="#DejaVuSans-67" x="313.916016"/>
      <use xlink:href="#DejaVuSans-79" x="377.392578"/>
     </g>
    </g>
   </g>
   <g id="matplotlib.axis_6">
    <g id="ytick_14">
     <g id="line2d_32">
      <g>
       <use xlink:href="#m3b0627489c" x="677.435294" y="344.858601" style="stroke: #000000; stroke-width: 0.8"/>
      </g>
     </g>
     <g id="text_31">
      <!-- 0.0 -->
      <g transform="translate(654.532169 348.657819) scale(0.1 -0.1)">
       <use xlink:href="#DejaVuSans-30"/>
       <use xlink:href="#DejaVuSans-2e" x="63.623047"/>
       <use xlink:href="#DejaVuSans-30" x="95.410156"/>
      </g>
     </g>
    </g>
    <g id="ytick_15">
     <g id="line2d_33">
      <g>
       <use xlink:href="#m3b0627489c" x="677.435294" y="286.041835" style="stroke: #000000; stroke-width: 0.8"/>
      </g>
     </g>
     <g id="text_32">
      <!-- 0.1 -->
      <g transform="translate(654.532169 289.841053) scale(0.1 -0.1)">
       <use xlink:href="#DejaVuSans-30"/>
       <use xlink:href="#DejaVuSans-2e" x="63.623047"/>
       <use xlink:href="#DejaVuSans-31" x="95.410156"/>
      </g>
     </g>
    </g>
    <g id="ytick_16">
     <g id="line2d_34">
      <g>
       <use xlink:href="#m3b0627489c" x="677.435294" y="227.225069" style="stroke: #000000; stroke-width: 0.8"/>
      </g>
     </g>
     <g id="text_33">
      <!-- 0.2 -->
      <g transform="translate(654.532169 231.024287) scale(0.1 -0.1)">
       <use xlink:href="#DejaVuSans-30"/>
       <use xlink:href="#DejaVuSans-2e" x="63.623047"/>
       <use xlink:href="#DejaVuSans-32" x="95.410156"/>
      </g>
     </g>
    </g>
    <g id="ytick_17">
     <g id="line2d_35">
      <g>
       <use xlink:href="#m3b0627489c" x="677.435294" y="168.408302" style="stroke: #000000; stroke-width: 0.8"/>
      </g>
     </g>
     <g id="text_34">
      <!-- 0.3 -->
      <g transform="translate(654.532169 172.207521) scale(0.1 -0.1)">
       <use xlink:href="#DejaVuSans-30"/>
       <use xlink:href="#DejaVuSans-2e" x="63.623047"/>
       <use xlink:href="#DejaVuSans-33" x="95.410156"/>
      </g>
     </g>
    </g>
    <g id="ytick_18">
     <g id="line2d_36">
      <g>
       <use xlink:href="#m3b0627489c" x="677.435294" y="109.591536" style="stroke: #000000; stroke-width: 0.8"/>
      </g>
     </g>
     <g id="text_35">
      <!-- 0.4 -->
      <g transform="translate(654.532169 113.390755) scale(0.1 -0.1)">
       <use xlink:href="#DejaVuSans-30"/>
       <use xlink:href="#DejaVuSans-2e" x="63.623047"/>
       <use xlink:href="#DejaVuSans-34" x="95.410156"/>
      </g>
     </g>
    </g>
    <g id="ytick_19">
     <g id="line2d_37">
      <g>
       <use xlink:href="#m3b0627489c" x="677.435294" y="50.77477" style="stroke: #000000; stroke-width: 0.8"/>
      </g>
     </g>
     <g id="text_36">
      <!-- 0.5 -->
      <g transform="translate(654.532169 54.573989) scale(0.1 -0.1)">
       <use xlink:href="#DejaVuSans-30"/>
       <use xlink:href="#DejaVuSans-2e" x="63.623047"/>
       <use xlink:href="#DejaVuSans-35" x="95.410156"/>
      </g>
     </g>
    </g>
    <g id="text_37">
     <!-- phenotypic variance explained by geographic model -->
     <g transform="translate(648.452482 331.504219) rotate(-90) scale(0.1 -0.1)">
      <defs>
       <path id="DejaVuSans-78" d="M 3513 3500 
L 2247 1797 
L 3578 0 
L 2900 0 
L 1881 1375 
L 863 0 
L 184 0 
L 1544 1831 
L 300 3500 
L 978 3500 
L 1906 2253 
L 2834 3500 
L 3513 3500 
z
" transform="scale(0.015625)"/>
      </defs>
      <use xlink:href="#DejaVuSans-70"/>
      <use xlink:href="#DejaVuSans-68" x="63.476562"/>
      <use xlink:href="#DejaVuSans-65" x="126.855469"/>
      <use xlink:href="#DejaVuSans-6e" x="188.378906"/>
      <use xlink:href="#DejaVuSans-6f" x="251.757812"/>
      <use xlink:href="#DejaVuSans-74" x="312.939453"/>
      <use xlink:href="#DejaVuSans-79" x="352.148438"/>
      <use xlink:href="#DejaVuSans-70" x="411.328125"/>
      <use xlink:href="#DejaVuSans-69" x="474.804688"/>
      <use xlink:href="#DejaVuSans-63" x="502.587891"/>
      <use xlink:href="#DejaVuSans-20" x="557.568359"/>
      <use xlink:href="#DejaVuSans-76" x="589.355469"/>
      <use xlink:href="#DejaVuSans-61" x="648.535156"/>
      <use xlink:href="#DejaVuSans-72" x="709.814453"/>
      <use xlink:href="#DejaVuSans-69" x="750.927734"/>
      <use xlink:href="#DejaVuSans-61" x="778.710938"/>
      <use xlink:href="#DejaVuSans-6e" x="839.990234"/>
      <use xlink:href="#DejaVuSans-63" x="903.369141"/>
      <use xlink:href="#DejaVuSans-65" x="958.349609"/>
      <use xlink:href="#DejaVuSans-20" x="1019.873047"/>
      <use xlink:href="#DejaVuSans-65" x="1051.660156"/>
      <use xlink:href="#DejaVuSans-78" x="1111.433594"/>
      <use xlink:href="#DejaVuSans-70" x="1170.613281"/>
      <use xlink:href="#DejaVuSans-6c" x="1234.089844"/>
      <use xlink:href="#DejaVuSans-61" x="1261.873047"/>
      <use xlink:href="#DejaVuSans-69" x="1323.152344"/>
      <use xlink:href="#DejaVuSans-6e" x="1350.935547"/>
      <use xlink:href="#DejaVuSans-65" x="1414.314453"/>
      <use xlink:href="#DejaVuSans-64" x="1475.837891"/>
      <use xlink:href="#DejaVuSans-20" x="1539.314453"/>
      <use xlink:href="#DejaVuSans-62" x="1571.101562"/>
      <use xlink:href="#DejaVuSans-79" x="1634.578125"/>
      <use xlink:href="#DejaVuSans-20" x="1693.757812"/>
      <use xlink:href="#DejaVuSans-67" x="1725.544922"/>
      <use xlink:href="#DejaVuSans-65" x="1789.021484"/>
      <use xlink:href="#DejaVuSans-6f" x="1850.544922"/>
      <use xlink:href="#DejaVuSans-67" x="1911.726562"/>
      <use xlink:href="#DejaVuSans-72" x="1975.203125"/>
      <use xlink:href="#DejaVuSans-61" x="2016.316406"/>
      <use xlink:href="#DejaVuSans-70" x="2077.595703"/>
      <use xlink:href="#DejaVuSans-68" x="2141.072266"/>
      <use xlink:href="#DejaVuSans-69" x="2204.451172"/>
      <use xlink:href="#DejaVuSans-63" x="2232.234375"/>
      <use xlink:href="#DejaVuSans-20" x="2287.214844"/>
      <use xlink:href="#DejaVuSans-6d" x="2319.001953"/>
      <use xlink:href="#DejaVuSans-6f" x="2416.414062"/>
      <use xlink:href="#DejaVuSans-64" x="2477.595703"/>
      <use xlink:href="#DejaVuSans-65" x="2541.072266"/>
      <use xlink:href="#DejaVuSans-6c" x="2602.595703"/>
     </g>
    </g>
   </g>
   <g id="patch_11">
    <path d="M 677.435294 352.44 
L 677.435294 47.52 
" style="fill: none; stroke: #000000; stroke-width: 0.8; stroke-linejoin: miter; stroke-linecap: square"/>
   </g>
   <g id="patch_12">
    <path d="M 677.435294 352.44 
L 907.2 352.44 
" style="fill: none; stroke: #000000; stroke-width: 0.8; stroke-linejoin: miter; stroke-linecap: square"/>
   </g>
   <g id="PathCollection_5">
    <defs>
     <path id="C4_0_7c0eafb823" d="M 0 2.5 
C 0.663008 2.5 1.29895 2.236584 1.767767 1.767767 
C 2.236584 1.29895 2.5 0.663008 2.5 -0 
C 2.5 -0.663008 2.236584 -1.29895 1.767767 -1.767767 
C 1.29895 -2.236584 0.663008 -2.5 0 -2.5 
C -0.663008 -2.5 -1.29895 -2.236584 -1.767767 -1.767767 
C -2.236584 -1.29895 -2.5 -0.663008 -2.5 0 
C -2.5 0.663008 -2.236584 1.29895 -1.767767 1.767767 
C -1.29895 2.236584 -0.663008 2.5 0 2.5 
z
"/>
    </defs>
    <g clip-path="url(#pe844ea33a6)">
     <use xlink:href="#C4_0_7c0eafb823" x="734.876471" y="253.061135" style="fill: #4c72b0"/>
    </g>
    <g clip-path="url(#pe844ea33a6)">
     <use xlink:href="#C4_0_7c0eafb823" x="734.876471" y="205.382881" style="fill: #4c72b0"/>
    </g>
    <g clip-path="url(#pe844ea33a6)">
     <use xlink:href="#C4_0_7c0eafb823" x="734.876471" y="90.949274" style="fill: #4c72b0"/>
    </g>
    <g clip-path="url(#pe844ea33a6)">
     <use xlink:href="#C4_0_7c0eafb823" x="731.478506" y="123.103444" style="fill: #4c72b0"/>
    </g>
    <g clip-path="url(#pe844ea33a6)">
     <use xlink:href="#C4_0_7c0eafb823" x="734.876471" y="176.406837" style="fill: #4c72b0"/>
    </g>
    <g clip-path="url(#pe844ea33a6)">
     <use xlink:href="#C4_0_7c0eafb823" x="732.819965" y="200.782449" style="fill: #4c72b0"/>
    </g>
    <g clip-path="url(#pe844ea33a6)">
     <use xlink:href="#C4_0_7c0eafb823" x="734.876471" y="61.38" style="fill: #4c72b0"/>
    </g>
    <g clip-path="url(#pe844ea33a6)">
     <use xlink:href="#C4_0_7c0eafb823" x="734.876471" y="84.561184" style="fill: #4c72b0"/>
    </g>
    <g clip-path="url(#pe844ea33a6)">
     <use xlink:href="#C4_0_7c0eafb823" x="734.876471" y="126.914912" style="fill: #4c72b0"/>
    </g>
    <g clip-path="url(#pe844ea33a6)">
     <use xlink:href="#C4_0_7c0eafb823" x="734.876471" y="138.770281" style="fill: #4c72b0"/>
    </g>
    <g clip-path="url(#pe844ea33a6)">
     <use xlink:href="#C4_0_7c0eafb823" x="734.876471" y="165.86198" style="fill: #4c72b0"/>
    </g>
    <g clip-path="url(#pe844ea33a6)">
     <use xlink:href="#C4_0_7c0eafb823" x="734.876471" y="150.04063" style="fill: #55a868"/>
    </g>
    <g clip-path="url(#pe844ea33a6)">
     <use xlink:href="#C4_0_7c0eafb823" x="734.876471" y="214.981017" style="fill: #4c72b0"/>
    </g>
    <g clip-path="url(#pe844ea33a6)">
     <use xlink:href="#C4_0_7c0eafb823" x="734.876471" y="312.41999" style="fill: #55a868"/>
    </g>
    <g clip-path="url(#pe844ea33a6)">
     <use xlink:href="#C4_0_7c0eafb823" x="734.876471" y="246.48166" style="fill: #4c72b0"/>
    </g>
    <g clip-path="url(#pe844ea33a6)">
     <use xlink:href="#C4_0_7c0eafb823" x="730.224943" y="163.543604" style="fill: #55a868"/>
    </g>
    <g clip-path="url(#pe844ea33a6)">
     <use xlink:href="#C4_0_7c0eafb823" x="734.876471" y="266.486008" style="fill: #4c72b0"/>
    </g>
    <g clip-path="url(#pe844ea33a6)">
     <use xlink:href="#C4_0_7c0eafb823" x="734.876471" y="234.108363" style="fill: #4c72b0"/>
    </g>
    <g clip-path="url(#pe844ea33a6)">
     <use xlink:href="#C4_0_7c0eafb823" x="734.876471" y="260.982068" style="fill: #4c72b0"/>
    </g>
    <g clip-path="url(#pe844ea33a6)">
     <use xlink:href="#C4_0_7c0eafb823" x="734.876471" y="290.371305" style="fill: #4c72b0"/>
    </g>
    <g clip-path="url(#pe844ea33a6)">
     <use xlink:href="#C4_0_7c0eafb823" x="731.101949" y="308.944715" style="fill: #4c72b0"/>
    </g>
    <g clip-path="url(#pe844ea33a6)">
     <use xlink:href="#C4_0_7c0eafb823" x="734.876471" y="278.783049" style="fill: #4c72b0"/>
    </g>
    <g clip-path="url(#pe844ea33a6)">
     <use xlink:href="#C4_0_7c0eafb823" x="729.630672" y="260.782075" style="fill: #4c72b0"/>
    </g>
   </g>
   <g id="PathCollection_6">
    <defs>
     <path id="C5_0_c63ffb8a84" d="M 0 2.5 
C 0.663008 2.5 1.29895 2.236584 1.767767 1.767767 
C 2.236584 1.29895 2.5 0.663008 2.5 -0 
C 2.5 -0.663008 2.236584 -1.29895 1.767767 -1.767767 
C 1.29895 -2.236584 0.663008 -2.5 0 -2.5 
C -0.663008 -2.5 -1.29895 -2.236584 -1.767767 -1.767767 
C -2.236584 -1.29895 -2.5 -0.663008 -2.5 0 
C -2.5 0.663008 -2.236584 1.29895 -1.767767 1.767767 
C -1.29895 2.236584 -0.663008 2.5 0 2.5 
z
"/>
    </defs>
    <g clip-path="url(#pe844ea33a6)">
     <use xlink:href="#C5_0_c63ffb8a84" x="849.758824" y="165.480989" style="fill: #4c72b0"/>
    </g>
    <g clip-path="url(#pe844ea33a6)">
     <use xlink:href="#C5_0_c63ffb8a84" x="849.758824" y="195.370778" style="fill: #4c72b0"/>
    </g>
    <g clip-path="url(#pe844ea33a6)">
     <use xlink:href="#C5_0_c63ffb8a84" x="849.758824" y="204.081364" style="fill: #dd8452"/>
    </g>
    <g clip-path="url(#pe844ea33a6)">
     <use xlink:href="#C5_0_c63ffb8a84" x="844.827986" y="202.364609" style="fill: #4c72b0"/>
    </g>
    <g clip-path="url(#pe844ea33a6)">
     <use xlink:href="#C5_0_c63ffb8a84" x="849.758824" y="268.942935" style="fill: #55a868"/>
    </g>
    <g clip-path="url(#pe844ea33a6)">
     <use xlink:href="#C5_0_c63ffb8a84" x="848.762346" y="333.670891" style="fill: #dd8452"/>
    </g>
    <g clip-path="url(#pe844ea33a6)">
     <use xlink:href="#C5_0_c63ffb8a84" x="849.758824" y="215.880302" style="fill: #4c72b0"/>
    </g>
    <g clip-path="url(#pe844ea33a6)">
     <use xlink:href="#C5_0_c63ffb8a84" x="849.758824" y="338.58" style="fill: #dd8452"/>
    </g>
    <g clip-path="url(#pe844ea33a6)">
     <use xlink:href="#C5_0_c63ffb8a84" x="849.758824" y="318.508942" style="fill: #dd8452"/>
    </g>
    <g clip-path="url(#pe844ea33a6)">
     <use xlink:href="#C5_0_c63ffb8a84" x="854.566386" y="316.499927" style="fill: #dd8452"/>
    </g>
    <g clip-path="url(#pe844ea33a6)">
     <use xlink:href="#C5_0_c63ffb8a84" x="854.551771" y="266.902492" style="fill: #4c72b0"/>
    </g>
    <g clip-path="url(#pe844ea33a6)">
     <use xlink:href="#C5_0_c63ffb8a84" x="844.636749" y="267.845896" style="fill: #dd8452"/>
    </g>
    <g clip-path="url(#pe844ea33a6)">
     <use xlink:href="#C5_0_c63ffb8a84" x="844.755466" y="316.994412" style="fill: #dd8452"/>
    </g>
   </g>
   <g id="line2d_38"/>
   <g id="line2d_39"/>
   <g id="line2d_40"/>
   <g id="legend_3">
    <g id="patch_13">
     <path d="M 806.8125 97.955938 
L 900.2 97.955938 
Q 902.2 97.955938 902.2 95.955938 
L 902.2 54.52 
Q 902.2 52.52 900.2 52.52 
L 806.8125 52.52 
Q 804.8125 52.52 804.8125 54.52 
L 804.8125 95.955938 
Q 804.8125 97.955938 806.8125 97.955938 
z
" style="fill: #ffffff; opacity: 0.8; stroke: #cccccc; stroke-linejoin: miter"/>
    </g>
    <g id="line2d_41">
     <g>
      <use xlink:href="#m59a1bde094" x="818.8125" y="60.02" style="fill: #4c72b0"/>
     </g>
    </g>
    <g id="text_38">
     <!-- Ridge -->
     <g transform="translate(836.8125 63.52) scale(0.1 -0.1)">
      <use xlink:href="#TimesNewRomanPSMT-52"/>
      <use xlink:href="#TimesNewRomanPSMT-69" x="66.699219"/>
      <use xlink:href="#TimesNewRomanPSMT-64" x="94.482422"/>
      <use xlink:href="#TimesNewRomanPSMT-67" x="144.482422"/>
      <use xlink:href="#TimesNewRomanPSMT-65" x="194.482422"/>
     </g>
    </g>
    <g id="line2d_42">
     <g>
      <use xlink:href="#m4be6e34245" x="818.8125" y="74.177812" style="fill: #dd8452"/>
     </g>
    </g>
    <g id="text_39">
     <!-- Random Forest -->
     <g transform="translate(836.8125 77.677812) scale(0.1 -0.1)">
      <use xlink:href="#TimesNewRomanPSMT-52"/>
      <use xlink:href="#TimesNewRomanPSMT-61" x="66.699219"/>
      <use xlink:href="#TimesNewRomanPSMT-6e" x="111.083984"/>
      <use xlink:href="#TimesNewRomanPSMT-64" x="161.083984"/>
      <use xlink:href="#TimesNewRomanPSMT-6f" x="211.083984"/>
      <use xlink:href="#TimesNewRomanPSMT-6d" x="261.083984"/>
      <use xlink:href="#TimesNewRomanPSMT-20" x="338.867188"/>
      <use xlink:href="#TimesNewRomanPSMT-46" x="363.867188"/>
      <use xlink:href="#TimesNewRomanPSMT-6f" x="419.482422"/>
      <use xlink:href="#TimesNewRomanPSMT-72" x="469.482422"/>
      <use xlink:href="#TimesNewRomanPSMT-65" x="502.783203"/>
      <use xlink:href="#TimesNewRomanPSMT-73" x="547.167969"/>
      <use xlink:href="#TimesNewRomanPSMT-74" x="586.083984"/>
     </g>
    </g>
    <g id="line2d_43">
     <g>
      <use xlink:href="#mfe1fb3348f" x="818.8125" y="88.316875" style="fill: #55a868"/>
     </g>
    </g>
    <g id="text_40">
     <!-- Lasso -->
     <g transform="translate(836.8125 91.816875) scale(0.1 -0.1)">
      <use xlink:href="#TimesNewRomanPSMT-4c"/>
      <use xlink:href="#TimesNewRomanPSMT-61" x="61.083984"/>
      <use xlink:href="#TimesNewRomanPSMT-73" x="105.46875"/>
      <use xlink:href="#TimesNewRomanPSMT-73" x="144.384766"/>
      <use xlink:href="#TimesNewRomanPSMT-6f" x="183.300781"/>
     </g>
    </g>
   </g>
  </g>
 </g>
 <defs>
  <clipPath id="p14a543bcd6">
   <rect x="126" y="47.52" width="229.764706" height="304.92"/>
  </clipPath>
  <clipPath id="pc7a2982aef">
   <rect x="401.717647" y="47.52" width="229.764706" height="304.92"/>
  </clipPath>
  <clipPath id="pe844ea33a6">
   <rect x="677.435294" y="47.52" width="229.764706" height="304.92"/>
  </clipPath>
 </defs>
</svg>
