<?xml version="1.0" encoding="utf-8" standalone="no"?>
<!DOCTYPE svg PUBLIC "-//W3C//DTD SVG 1.1//EN"
  "http://www.w3.org/Graphics/SVG/1.1/DTD/svg11.dtd">
<svg xmlns:xlink="http://www.w3.org/1999/xlink" width="460.8pt" height="345.6pt" viewBox="0 0 460.8 345.6" xmlns="http://www.w3.org/2000/svg" version="1.1">
 <metadata>
  <rdf:RDF xmlns:dc="http://purl.org/dc/elements/1.1/" xmlns:cc="http://creativecommons.org/ns#" xmlns:rdf="http://www.w3.org/1999/02/22-rdf-syntax-ns#">
   <cc:Work>
    <dc:type rdf:resource="http://purl.org/dc/dcmitype/StillImage"/>
    <dc:date>2024-10-10T02:35:52.746163</dc:date>
    <dc:format>image/svg+xml</dc:format>
    <dc:creator>
     <cc:Agent>
      <dc:title>Matplotlib v3.8.4, https://matplotlib.org/</dc:title>
     </cc:Agent>
    </dc:creator>
   </cc:Work>
  </rdf:RDF>
 </metadata>
 <defs>
  <style type="text/css">*{stroke-linejoin: round; stroke-linecap: butt}</style>
 </defs>
 <g id="figure_1">
  <g id="patch_1">
   <path d="M 0 345.6 
L 460.8 345.6 
L 460.8 0 
L 0 0 
z
" style="fill: #ffffff"/>
  </g>
  <g id="axes_1">
   <g id="patch_2">
    <path d="M 57.6 307.584 
L 414.72 307.584 
L 414.72 41.472 
L 57.6 41.472 
z
" style="fill: #ffffff"/>
   </g>
   <g id="matplotlib.axis_1">
    <g id="xtick_1">
     <g id="text_1">
      <!-- Elasticnet -->
      <g style="fill: #262626" transform="translate(49.4475 326.202125) scale(0.12 -0.12)">
       <defs>
        <path id="DejaVuSerif-45" d="M 353 0 
L 353 331 
L 947 331 
L 947 4331 
L 353 4331 
L 353 4666 
L 4109 4666 
L 4109 3628 
L 3725 3628 
L 3725 4281 
L 1581 4281 
L 1581 2719 
L 3109 2719 
L 3109 3303 
L 3494 3303 
L 3494 1753 
L 3109 1753 
L 3109 2338 
L 1581 2338 
L 1581 384 
L 3775 384 
L 3775 1038 
L 4159 1038 
L 4159 0 
L 353 0 
z
" transform="scale(0.015625)"/>
        <path id="DejaVuSerif-6c" d="M 1313 331 
L 1856 331 
L 1856 0 
L 184 0 
L 184 331 
L 738 331 
L 738 4531 
L 184 4531 
L 184 4863 
L 1313 4863 
L 1313 331 
z
" transform="scale(0.015625)"/>
        <path id="DejaVuSerif-61" d="M 2547 1044 
L 2547 1747 
L 1806 1747 
Q 1378 1747 1168 1562 
Q 959 1378 959 997 
Q 959 650 1171 447 
Q 1384 244 1747 244 
Q 2106 244 2326 466 
Q 2547 688 2547 1044 
z
M 3122 2075 
L 3122 331 
L 3634 331 
L 3634 0 
L 2547 0 
L 2547 359 
Q 2356 128 2106 18 
Q 1856 -91 1522 -91 
Q 969 -91 644 203 
Q 319 497 319 997 
Q 319 1513 691 1797 
Q 1063 2081 1741 2081 
L 2547 2081 
L 2547 2309 
Q 2547 2688 2317 2895 
Q 2088 3103 1672 3103 
Q 1328 3103 1125 2947 
Q 922 2791 872 2484 
L 575 2484 
L 575 3156 
Q 875 3284 1158 3348 
Q 1441 3413 1709 3413 
Q 2400 3413 2761 3070 
Q 3122 2728 3122 2075 
z
" transform="scale(0.015625)"/>
        <path id="DejaVuSerif-73" d="M 359 184 
L 359 959 
L 691 959 
Q 703 588 923 403 
Q 1144 219 1575 219 
Q 1963 219 2166 364 
Q 2369 509 2369 788 
Q 2369 1006 2220 1140 
Q 2072 1275 1594 1428 
L 1178 1569 
Q 750 1706 558 1912 
Q 366 2119 366 2438 
Q 366 2894 700 3153 
Q 1034 3413 1625 3413 
Q 1888 3413 2178 3344 
Q 2469 3275 2778 3144 
L 2778 2419 
L 2447 2419 
Q 2434 2741 2221 2922 
Q 2009 3103 1644 3103 
Q 1281 3103 1095 2975 
Q 909 2847 909 2591 
Q 909 2381 1050 2254 
Q 1191 2128 1613 1997 
L 2069 1856 
Q 2541 1709 2748 1489 
Q 2956 1269 2956 922 
Q 2956 450 2595 179 
Q 2234 -91 1600 -91 
Q 1278 -91 972 -22 
Q 666 47 359 184 
z
" transform="scale(0.015625)"/>
        <path id="DejaVuSerif-74" d="M 691 2988 
L 184 2988 
L 184 3322 
L 691 3322 
L 691 4353 
L 1269 4353 
L 1269 3322 
L 2350 3322 
L 2350 2988 
L 1269 2988 
L 1269 878 
Q 1269 456 1350 337 
Q 1431 219 1650 219 
Q 1875 219 1978 351 
Q 2081 484 2088 781 
L 2522 781 
Q 2497 328 2275 118 
Q 2053 -91 1600 -91 
Q 1103 -91 897 129 
Q 691 350 691 878 
L 691 2988 
z
" transform="scale(0.015625)"/>
        <path id="DejaVuSerif-69" d="M 622 4353 
Q 622 4497 726 4603 
Q 831 4709 978 4709 
Q 1122 4709 1226 4603 
Q 1331 4497 1331 4353 
Q 1331 4206 1228 4103 
Q 1125 4000 978 4000 
Q 831 4000 726 4103 
Q 622 4206 622 4353 
z
M 1356 331 
L 1900 331 
L 1900 0 
L 231 0 
L 231 331 
L 781 331 
L 781 2988 
L 231 2988 
L 231 3322 
L 1356 3322 
L 1356 331 
z
" transform="scale(0.015625)"/>
        <path id="DejaVuSerif-63" d="M 3291 997 
Q 3169 466 2822 187 
Q 2475 -91 1925 -91 
Q 1200 -91 759 389 
Q 319 869 319 1663 
Q 319 2459 759 2936 
Q 1200 3413 1925 3413 
Q 2241 3413 2553 3339 
Q 2866 3266 3181 3116 
L 3181 2266 
L 2847 2266 
Q 2781 2703 2561 2903 
Q 2341 3103 1931 3103 
Q 1466 3103 1228 2742 
Q 991 2381 991 1663 
Q 991 944 1227 581 
Q 1463 219 1931 219 
Q 2303 219 2525 412 
Q 2747 606 2828 997 
L 3291 997 
z
" transform="scale(0.015625)"/>
        <path id="DejaVuSerif-6e" d="M 263 0 
L 263 331 
L 781 331 
L 781 2988 
L 231 2988 
L 231 3322 
L 1356 3322 
L 1356 2731 
Q 1516 3069 1770 3241 
Q 2025 3413 2363 3413 
Q 2913 3413 3172 3097 
Q 3431 2781 3431 2113 
L 3431 331 
L 3944 331 
L 3944 0 
L 2356 0 
L 2356 331 
L 2853 331 
L 2853 1931 
Q 2853 2541 2703 2767 
Q 2553 2994 2175 2994 
Q 1775 2994 1565 2701 
Q 1356 2409 1356 1850 
L 1356 331 
L 1856 331 
L 1856 0 
L 263 0 
z
" transform="scale(0.015625)"/>
        <path id="DejaVuSerif-65" d="M 3469 1600 
L 991 1600 
L 991 1575 
Q 991 903 1244 561 
Q 1497 219 1991 219 
Q 2369 219 2611 417 
Q 2853 616 2950 1006 
L 3413 1006 
Q 3275 459 2904 184 
Q 2534 -91 1931 -91 
Q 1203 -91 761 389 
Q 319 869 319 1663 
Q 319 2450 753 2931 
Q 1188 3413 1894 3413 
Q 2647 3413 3050 2948 
Q 3453 2484 3469 1600 
z
M 2791 1931 
Q 2772 2513 2545 2808 
Q 2319 3103 1894 3103 
Q 1497 3103 1269 2806 
Q 1041 2509 991 1931 
L 2791 1931 
z
" transform="scale(0.015625)"/>
       </defs>
       <use xlink:href="#DejaVuSerif-45"/>
       <use xlink:href="#DejaVuSerif-6c" x="72.998047"/>
       <use xlink:href="#DejaVuSerif-61" x="104.980469"/>
       <use xlink:href="#DejaVuSerif-73" x="164.599609"/>
       <use xlink:href="#DejaVuSerif-74" x="215.917969"/>
       <use xlink:href="#DejaVuSerif-69" x="256.103516"/>
       <use xlink:href="#DejaVuSerif-63" x="288.085938"/>
       <use xlink:href="#DejaVuSerif-6e" x="344.091797"/>
       <use xlink:href="#DejaVuSerif-65" x="408.496094"/>
       <use xlink:href="#DejaVuSerif-74" x="467.675781"/>
      </g>
      <!-- herb -->
      <g style="fill: #262626" transform="translate(65.795625 339.6395) scale(0.12 -0.12)">
       <defs>
        <path id="DejaVuSerif-68" d="M 263 0 
L 263 331 
L 781 331 
L 781 4531 
L 231 4531 
L 231 4863 
L 1356 4863 
L 1356 2731 
Q 1516 3069 1770 3241 
Q 2025 3413 2363 3413 
Q 2913 3413 3172 3097 
Q 3431 2781 3431 2113 
L 3431 331 
L 3944 331 
L 3944 0 
L 2356 0 
L 2356 331 
L 2853 331 
L 2853 1931 
Q 2853 2541 2704 2764 
Q 2556 2988 2175 2988 
Q 1775 2988 1565 2697 
Q 1356 2406 1356 1850 
L 1356 331 
L 1856 331 
L 1856 0 
L 263 0 
z
" transform="scale(0.015625)"/>
        <path id="DejaVuSerif-72" d="M 3059 3328 
L 3059 2497 
L 2728 2497 
Q 2713 2744 2591 2866 
Q 2469 2988 2234 2988 
Q 1809 2988 1582 2694 
Q 1356 2400 1356 1850 
L 1356 331 
L 2022 331 
L 2022 0 
L 263 0 
L 263 331 
L 781 331 
L 781 2994 
L 231 2994 
L 231 3322 
L 1356 3322 
L 1356 2731 
Q 1525 3078 1790 3245 
Q 2056 3413 2438 3413 
Q 2578 3413 2733 3391 
Q 2888 3369 3059 3328 
z
" transform="scale(0.015625)"/>
        <path id="DejaVuSerif-62" d="M 738 331 
L 738 4531 
L 184 4531 
L 184 4863 
L 1313 4863 
L 1313 2803 
Q 1481 3116 1742 3264 
Q 2003 3413 2388 3413 
Q 3000 3413 3387 2928 
Q 3775 2444 3775 1663 
Q 3775 881 3387 395 
Q 3000 -91 2388 -91 
Q 2003 -91 1742 57 
Q 1481 206 1313 519 
L 1313 0 
L 184 0 
L 184 331 
L 738 331 
z
M 1313 1497 
Q 1313 897 1542 583 
Q 1772 269 2209 269 
Q 2650 269 2876 622 
Q 3103 975 3103 1663 
Q 3103 2353 2876 2703 
Q 2650 3053 2209 3053 
Q 1772 3053 1542 2737 
Q 1313 2422 1313 1825 
L 1313 1497 
z
" transform="scale(0.015625)"/>
       </defs>
       <use xlink:href="#DejaVuSerif-68"/>
       <use xlink:href="#DejaVuSerif-65" x="64.404297"/>
       <use xlink:href="#DejaVuSerif-72" x="123.583984"/>
       <use xlink:href="#DejaVuSerif-62" x="171.386719"/>
      </g>
     </g>
    </g>
    <g id="xtick_2">
     <g id="text_2">
      <!-- Random Forest -->
      <g style="fill: #262626" transform="translate(78.060937 326.202125) scale(0.12 -0.12)">
       <defs>
        <path id="DejaVuSerif-52" d="M 3066 2316 
Q 3284 2256 3442 2114 
Q 3600 1972 3725 1716 
L 4403 331 
L 4972 331 
L 4972 0 
L 3872 0 
L 3144 1484 
Q 2934 1916 2759 2042 
Q 2584 2169 2278 2169 
L 1581 2169 
L 1581 331 
L 2241 331 
L 2241 0 
L 353 0 
L 353 331 
L 947 331 
L 947 4331 
L 353 4331 
L 353 4666 
L 2719 4666 
Q 3400 4666 3770 4341 
Q 4141 4016 4141 3419 
Q 4141 2938 3870 2661 
Q 3600 2384 3066 2316 
z
M 1581 2503 
L 2503 2503 
Q 2975 2503 3200 2726 
Q 3425 2950 3425 3419 
Q 3425 3888 3200 4109 
Q 2975 4331 2503 4331 
L 1581 4331 
L 1581 2503 
z
" transform="scale(0.015625)"/>
        <path id="DejaVuSerif-64" d="M 3359 331 
L 3909 331 
L 3909 0 
L 2784 0 
L 2784 519 
Q 2616 206 2355 57 
Q 2094 -91 1709 -91 
Q 1097 -91 708 395 
Q 319 881 319 1663 
Q 319 2444 706 2928 
Q 1094 3413 1709 3413 
Q 2094 3413 2355 3264 
Q 2616 3116 2784 2803 
L 2784 4531 
L 2241 4531 
L 2241 4863 
L 3359 4863 
L 3359 331 
z
M 2784 1497 
L 2784 1825 
Q 2784 2422 2554 2737 
Q 2325 3053 1888 3053 
Q 1444 3053 1217 2703 
Q 991 2353 991 1663 
Q 991 975 1217 622 
Q 1444 269 1888 269 
Q 2325 269 2554 583 
Q 2784 897 2784 1497 
z
" transform="scale(0.015625)"/>
        <path id="DejaVuSerif-6f" d="M 1925 219 
Q 2388 219 2623 584 
Q 2859 950 2859 1663 
Q 2859 2375 2623 2739 
Q 2388 3103 1925 3103 
Q 1463 3103 1227 2739 
Q 991 2375 991 1663 
Q 991 950 1228 584 
Q 1466 219 1925 219 
z
M 1925 -91 
Q 1200 -91 759 389 
Q 319 869 319 1663 
Q 319 2456 758 2934 
Q 1197 3413 1925 3413 
Q 2653 3413 3092 2934 
Q 3531 2456 3531 1663 
Q 3531 869 3092 389 
Q 2653 -91 1925 -91 
z
" transform="scale(0.015625)"/>
        <path id="DejaVuSerif-6d" d="M 3316 2675 
Q 3481 3041 3739 3227 
Q 3997 3413 4341 3413 
Q 4863 3413 5119 3089 
Q 5375 2766 5375 2113 
L 5375 331 
L 5894 331 
L 5894 0 
L 4300 0 
L 4300 331 
L 4800 331 
L 4800 2047 
Q 4800 2556 4650 2772 
Q 4500 2988 4153 2988 
Q 3769 2988 3567 2697 
Q 3366 2406 3366 1850 
L 3366 331 
L 3866 331 
L 3866 0 
L 2291 0 
L 2291 331 
L 2791 331 
L 2791 2069 
Q 2791 2566 2641 2777 
Q 2491 2988 2144 2988 
Q 1759 2988 1557 2697 
Q 1356 2406 1356 1850 
L 1356 331 
L 1856 331 
L 1856 0 
L 263 0 
L 263 331 
L 781 331 
L 781 2994 
L 231 2994 
L 231 3322 
L 1356 3322 
L 1356 2731 
Q 1516 3063 1762 3238 
Q 2009 3413 2322 3413 
Q 2709 3413 2968 3220 
Q 3228 3028 3316 2675 
z
" transform="scale(0.015625)"/>
        <path id="DejaVuSerif-20" transform="scale(0.015625)"/>
        <path id="DejaVuSerif-46" d="M 353 0 
L 353 331 
L 947 331 
L 947 4331 
L 353 4331 
L 353 4666 
L 4172 4666 
L 4172 3628 
L 3788 3628 
L 3788 4281 
L 1581 4281 
L 1581 2719 
L 3175 2719 
L 3175 3303 
L 3559 3303 
L 3559 1753 
L 3175 1753 
L 3175 2338 
L 1581 2338 
L 1581 331 
L 2328 331 
L 2328 0 
L 353 0 
z
" transform="scale(0.015625)"/>
       </defs>
       <use xlink:href="#DejaVuSerif-52"/>
       <use xlink:href="#DejaVuSerif-61" x="77.542969"/>
       <use xlink:href="#DejaVuSerif-6e" x="137.162109"/>
       <use xlink:href="#DejaVuSerif-64" x="201.566406"/>
       <use xlink:href="#DejaVuSerif-6f" x="265.580078"/>
       <use xlink:href="#DejaVuSerif-6d" x="325.785156"/>
       <use xlink:href="#DejaVuSerif-20" x="420.609375"/>
       <use xlink:href="#DejaVuSerif-46" x="452.396484"/>
       <use xlink:href="#DejaVuSerif-6f" x="516.28125"/>
       <use xlink:href="#DejaVuSerif-72" x="576.486328"/>
       <use xlink:href="#DejaVuSerif-65" x="624.289062"/>
       <use xlink:href="#DejaVuSerif-73" x="683.46875"/>
       <use xlink:href="#DejaVuSerif-74" x="734.787109"/>
      </g>
      <!-- herb -->
      <g style="fill: #262626" transform="translate(110.435625 339.6395) scale(0.12 -0.12)">
       <use xlink:href="#DejaVuSerif-68"/>
       <use xlink:href="#DejaVuSerif-65" x="64.404297"/>
       <use xlink:href="#DejaVuSerif-72" x="123.583984"/>
       <use xlink:href="#DejaVuSerif-62" x="171.386719"/>
      </g>
     </g>
    </g>
    <g id="xtick_3">
     <g id="text_3">
      <!-- Elasticnet -->
      <g style="fill: #262626" transform="translate(138.7275 326.202125) scale(0.12 -0.12)">
       <use xlink:href="#DejaVuSerif-45"/>
       <use xlink:href="#DejaVuSerif-6c" x="72.998047"/>
       <use xlink:href="#DejaVuSerif-61" x="104.980469"/>
       <use xlink:href="#DejaVuSerif-73" x="164.599609"/>
       <use xlink:href="#DejaVuSerif-74" x="215.917969"/>
       <use xlink:href="#DejaVuSerif-69" x="256.103516"/>
       <use xlink:href="#DejaVuSerif-63" x="288.085938"/>
       <use xlink:href="#DejaVuSerif-6e" x="344.091797"/>
       <use xlink:href="#DejaVuSerif-65" x="408.496094"/>
       <use xlink:href="#DejaVuSerif-74" x="467.675781"/>
      </g>
      <!-- moly -->
      <g style="fill: #262626" transform="translate(154.589062 339.6395) scale(0.12 -0.12)">
       <defs>
        <path id="DejaVuSerif-79" d="M 1381 -609 
L 1600 -56 
L 359 2988 
L -19 2988 
L -19 3322 
L 1509 3322 
L 1509 2988 
L 978 2988 
L 1913 703 
L 2847 2988 
L 2350 2988 
L 2350 3322 
L 3597 3322 
L 3597 2988 
L 3225 2988 
L 1703 -750 
Q 1547 -1138 1356 -1280 
Q 1166 -1422 819 -1422 
Q 672 -1422 517 -1397 
Q 363 -1372 206 -1325 
L 206 -691 
L 500 -691 
Q 519 -903 608 -995 
Q 697 -1088 884 -1088 
Q 1056 -1088 1161 -992 
Q 1266 -897 1381 -609 
z
" transform="scale(0.015625)"/>
       </defs>
       <use xlink:href="#DejaVuSerif-6d"/>
       <use xlink:href="#DejaVuSerif-6f" x="94.824219"/>
       <use xlink:href="#DejaVuSerif-6c" x="155.029297"/>
       <use xlink:href="#DejaVuSerif-79" x="187.011719"/>
      </g>
     </g>
    </g>
    <g id="xtick_4">
     <g id="text_4">
      <!-- Random Forest -->
      <g style="fill: #262626" transform="translate(167.340938 326.202125) scale(0.12 -0.12)">
       <use xlink:href="#DejaVuSerif-52"/>
       <use xlink:href="#DejaVuSerif-61" x="77.542969"/>
       <use xlink:href="#DejaVuSerif-6e" x="137.162109"/>
       <use xlink:href="#DejaVuSerif-64" x="201.566406"/>
       <use xlink:href="#DejaVuSerif-6f" x="265.580078"/>
       <use xlink:href="#DejaVuSerif-6d" x="325.785156"/>
       <use xlink:href="#DejaVuSerif-20" x="420.609375"/>
       <use xlink:href="#DejaVuSerif-46" x="452.396484"/>
       <use xlink:href="#DejaVuSerif-6f" x="516.28125"/>
       <use xlink:href="#DejaVuSerif-72" x="576.486328"/>
       <use xlink:href="#DejaVuSerif-65" x="624.289062"/>
       <use xlink:href="#DejaVuSerif-73" x="683.46875"/>
       <use xlink:href="#DejaVuSerif-74" x="734.787109"/>
      </g>
      <!-- moly -->
      <g style="fill: #262626" transform="translate(199.229063 339.6395) scale(0.12 -0.12)">
       <use xlink:href="#DejaVuSerif-6d"/>
       <use xlink:href="#DejaVuSerif-6f" x="94.824219"/>
       <use xlink:href="#DejaVuSerif-6c" x="155.029297"/>
       <use xlink:href="#DejaVuSerif-79" x="187.011719"/>
      </g>
     </g>
    </g>
    <g id="xtick_5">
     <g id="text_5">
      <!-- Ridge -->
      <g style="fill: #262626" transform="translate(240.81 326.202125) scale(0.12 -0.12)">
       <defs>
        <path id="DejaVuSerif-67" d="M 3359 2988 
L 3359 72 
Q 3359 -644 2965 -1033 
Q 2572 -1422 1844 -1422 
Q 1516 -1422 1216 -1362 
Q 916 -1303 641 -1184 
L 641 -488 
L 941 -488 
Q 997 -813 1206 -963 
Q 1416 -1113 1806 -1113 
Q 2313 -1113 2548 -827 
Q 2784 -541 2784 72 
L 2784 519 
Q 2616 206 2355 57 
Q 2094 -91 1709 -91 
Q 1097 -91 708 395 
Q 319 881 319 1663 
Q 319 2444 706 2928 
Q 1094 3413 1709 3413 
Q 2094 3413 2355 3264 
Q 2616 3116 2784 2803 
L 2784 3322 
L 3909 3322 
L 3909 2988 
L 3359 2988 
z
M 2784 1825 
Q 2784 2422 2554 2737 
Q 2325 3053 1888 3053 
Q 1444 3053 1217 2703 
Q 991 2353 991 1663 
Q 991 975 1217 622 
Q 1444 269 1888 269 
Q 2325 269 2554 583 
Q 2784 897 2784 1497 
L 2784 1825 
z
" transform="scale(0.015625)"/>
       </defs>
       <use xlink:href="#DejaVuSerif-52"/>
       <use xlink:href="#DejaVuSerif-69" x="75.292969"/>
       <use xlink:href="#DejaVuSerif-64" x="107.275391"/>
       <use xlink:href="#DejaVuSerif-67" x="171.289062"/>
       <use xlink:href="#DejaVuSerif-65" x="235.302734"/>
      </g>
      <!-- Regression -->
      <g style="fill: #262626" transform="translate(224.597813 339.810125) scale(0.12 -0.12)">
       <use xlink:href="#DejaVuSerif-52"/>
       <use xlink:href="#DejaVuSerif-65" x="75.292969"/>
       <use xlink:href="#DejaVuSerif-67" x="134.472656"/>
       <use xlink:href="#DejaVuSerif-72" x="198.486328"/>
       <use xlink:href="#DejaVuSerif-65" x="246.289062"/>
       <use xlink:href="#DejaVuSerif-73" x="305.46875"/>
       <use xlink:href="#DejaVuSerif-73" x="356.787109"/>
       <use xlink:href="#DejaVuSerif-69" x="408.105469"/>
       <use xlink:href="#DejaVuSerif-6f" x="440.087891"/>
       <use xlink:href="#DejaVuSerif-6e" x="500.292969"/>
      </g>
      <!-- ft -->
      <g style="fill: #262626" transform="translate(253.847813 353.418125) scale(0.12 -0.12)">
       <defs>
        <path id="DejaVuSerif-66" d="M 2753 4078 
L 2450 4078 
Q 2447 4313 2317 4434 
Q 2188 4556 1941 4556 
Q 1619 4556 1487 4379 
Q 1356 4203 1356 3750 
L 1356 3322 
L 2284 3322 
L 2284 2988 
L 1356 2988 
L 1356 331 
L 2094 331 
L 2094 0 
L 231 0 
L 231 331 
L 781 331 
L 781 2988 
L 231 2988 
L 231 3322 
L 781 3322 
L 781 3738 
Q 781 4294 1070 4578 
Q 1359 4863 1919 4863 
Q 2128 4863 2337 4825 
Q 2547 4788 2753 4709 
L 2753 4078 
z
" transform="scale(0.015625)"/>
       </defs>
       <use xlink:href="#DejaVuSerif-66"/>
       <use xlink:href="#DejaVuSerif-74" x="37.011719"/>
      </g>
     </g>
    </g>
    <g id="xtick_6">
     <g id="text_6">
      <!-- Random Forest -->
      <g style="fill: #262626" transform="translate(256.620938 326.202125) scale(0.12 -0.12)">
       <use xlink:href="#DejaVuSerif-52"/>
       <use xlink:href="#DejaVuSerif-61" x="77.542969"/>
       <use xlink:href="#DejaVuSerif-6e" x="137.162109"/>
       <use xlink:href="#DejaVuSerif-64" x="201.566406"/>
       <use xlink:href="#DejaVuSerif-6f" x="265.580078"/>
       <use xlink:href="#DejaVuSerif-6d" x="325.785156"/>
       <use xlink:href="#DejaVuSerif-20" x="420.609375"/>
       <use xlink:href="#DejaVuSerif-46" x="452.396484"/>
       <use xlink:href="#DejaVuSerif-6f" x="516.28125"/>
       <use xlink:href="#DejaVuSerif-72" x="576.486328"/>
       <use xlink:href="#DejaVuSerif-65" x="624.289062"/>
       <use xlink:href="#DejaVuSerif-73" x="683.46875"/>
       <use xlink:href="#DejaVuSerif-74" x="734.787109"/>
      </g>
      <!-- ft -->
      <g style="fill: #262626" transform="translate(298.487813 339.6395) scale(0.12 -0.12)">
       <use xlink:href="#DejaVuSerif-66"/>
       <use xlink:href="#DejaVuSerif-74" x="37.011719"/>
      </g>
     </g>
    </g>
    <g id="xtick_7">
     <g id="text_7">
      <!-- Ridge -->
      <g style="fill: #262626" transform="translate(330.09 326.202125) scale(0.12 -0.12)">
       <use xlink:href="#DejaVuSerif-52"/>
       <use xlink:href="#DejaVuSerif-69" x="75.292969"/>
       <use xlink:href="#DejaVuSerif-64" x="107.275391"/>
       <use xlink:href="#DejaVuSerif-67" x="171.289062"/>
       <use xlink:href="#DejaVuSerif-65" x="235.302734"/>
      </g>
      <!-- Regression -->
      <g style="fill: #262626" transform="translate(313.877813 339.810125) scale(0.12 -0.12)">
       <use xlink:href="#DejaVuSerif-52"/>
       <use xlink:href="#DejaVuSerif-65" x="75.292969"/>
       <use xlink:href="#DejaVuSerif-67" x="134.472656"/>
       <use xlink:href="#DejaVuSerif-72" x="198.486328"/>
       <use xlink:href="#DejaVuSerif-65" x="246.289062"/>
       <use xlink:href="#DejaVuSerif-73" x="305.46875"/>
       <use xlink:href="#DejaVuSerif-73" x="356.787109"/>
       <use xlink:href="#DejaVuSerif-69" x="408.105469"/>
       <use xlink:href="#DejaVuSerif-6f" x="440.087891"/>
       <use xlink:href="#DejaVuSerif-6e" x="500.292969"/>
      </g>
      <!-- seed -->
      <g style="fill: #262626" transform="translate(333.737813 353.418125) scale(0.12 -0.12)">
       <use xlink:href="#DejaVuSerif-73"/>
       <use xlink:href="#DejaVuSerif-65" x="51.318359"/>
       <use xlink:href="#DejaVuSerif-65" x="110.498047"/>
       <use xlink:href="#DejaVuSerif-64" x="169.677734"/>
      </g>
     </g>
    </g>
    <g id="xtick_8">
     <g id="text_8">
      <!-- Random Forest -->
      <g style="fill: #262626" transform="translate(345.900938 326.202125) scale(0.12 -0.12)">
       <use xlink:href="#DejaVuSerif-52"/>
       <use xlink:href="#DejaVuSerif-61" x="77.542969"/>
       <use xlink:href="#DejaVuSerif-6e" x="137.162109"/>
       <use xlink:href="#DejaVuSerif-64" x="201.566406"/>
       <use xlink:href="#DejaVuSerif-6f" x="265.580078"/>
       <use xlink:href="#DejaVuSerif-6d" x="325.785156"/>
       <use xlink:href="#DejaVuSerif-20" x="420.609375"/>
       <use xlink:href="#DejaVuSerif-46" x="452.396484"/>
       <use xlink:href="#DejaVuSerif-6f" x="516.28125"/>
       <use xlink:href="#DejaVuSerif-72" x="576.486328"/>
       <use xlink:href="#DejaVuSerif-65" x="624.289062"/>
       <use xlink:href="#DejaVuSerif-73" x="683.46875"/>
       <use xlink:href="#DejaVuSerif-74" x="734.787109"/>
      </g>
      <!-- seed -->
      <g style="fill: #262626" transform="translate(378.377813 339.6395) scale(0.12 -0.12)">
       <use xlink:href="#DejaVuSerif-73"/>
       <use xlink:href="#DejaVuSerif-65" x="51.318359"/>
       <use xlink:href="#DejaVuSerif-65" x="110.498047"/>
       <use xlink:href="#DejaVuSerif-64" x="169.677734"/>
      </g>
     </g>
    </g>
   </g>
   <g id="matplotlib.axis_2">
    <g id="ytick_1">
     <g id="line2d_1">
      <path d="M 57.6 307.584 
L 414.72 307.584 
" clip-path="url(#pae28c6e06b)" style="fill: none; stroke: #cccccc; stroke-linecap: round"/>
     </g>
     <g id="text_9">
      <!-- −0.2 -->
      <g style="fill: #262626" transform="translate(18.960625 312.143062) scale(0.12 -0.12)">
       <defs>
        <path id="DejaVuSerif-2212" d="M 678 2259 
L 4684 2259 
L 4684 1753 
L 678 1753 
L 678 2259 
z
" transform="scale(0.015625)"/>
        <path id="DejaVuSerif-30" d="M 2034 219 
Q 2513 219 2750 744 
Q 2988 1269 2988 2328 
Q 2988 3391 2750 3916 
Q 2513 4441 2034 4441 
Q 1556 4441 1318 3916 
Q 1081 3391 1081 2328 
Q 1081 1269 1318 744 
Q 1556 219 2034 219 
z
M 2034 -91 
Q 1275 -91 848 546 
Q 422 1184 422 2328 
Q 422 3475 848 4112 
Q 1275 4750 2034 4750 
Q 2797 4750 3222 4112 
Q 3647 3475 3647 2328 
Q 3647 1184 3222 546 
Q 2797 -91 2034 -91 
z
" transform="scale(0.015625)"/>
        <path id="DejaVuSerif-2e" d="M 603 325 
Q 603 500 722 622 
Q 841 744 1019 744 
Q 1191 744 1312 622 
Q 1434 500 1434 325 
Q 1434 153 1312 31 
Q 1191 -91 1019 -91 
Q 841 -91 722 29 
Q 603 150 603 325 
z
" transform="scale(0.015625)"/>
        <path id="DejaVuSerif-32" d="M 819 3553 
L 469 3553 
L 469 4384 
Q 803 4563 1142 4656 
Q 1481 4750 1806 4750 
Q 2534 4750 2956 4397 
Q 3378 4044 3378 3438 
Q 3378 2753 2422 1800 
Q 2347 1728 2309 1691 
L 1131 513 
L 3078 513 
L 3078 1088 
L 3444 1088 
L 3444 0 
L 434 0 
L 434 341 
L 1850 1753 
Q 2319 2222 2519 2614 
Q 2719 3006 2719 3438 
Q 2719 3909 2473 4175 
Q 2228 4441 1797 4441 
Q 1350 4441 1106 4219 
Q 863 3997 819 3553 
z
" transform="scale(0.015625)"/>
       </defs>
       <use xlink:href="#DejaVuSerif-2212"/>
       <use xlink:href="#DejaVuSerif-30" x="83.789062"/>
       <use xlink:href="#DejaVuSerif-2e" x="147.412109"/>
       <use xlink:href="#DejaVuSerif-32" x="179.199219"/>
      </g>
     </g>
    </g>
    <g id="ytick_2">
     <g id="line2d_2">
      <path d="M 57.6 263.232 
L 414.72 263.232 
" clip-path="url(#pae28c6e06b)" style="fill: none; stroke: #cccccc; stroke-linecap: round"/>
     </g>
     <g id="text_10">
      <!-- 0.0 -->
      <g style="fill: #262626" transform="translate(29.01625 267.791062) scale(0.12 -0.12)">
       <use xlink:href="#DejaVuSerif-30"/>
       <use xlink:href="#DejaVuSerif-2e" x="63.623047"/>
       <use xlink:href="#DejaVuSerif-30" x="95.410156"/>
      </g>
     </g>
    </g>
    <g id="ytick_3">
     <g id="line2d_3">
      <path d="M 57.6 218.88 
L 414.72 218.88 
" clip-path="url(#pae28c6e06b)" style="fill: none; stroke: #cccccc; stroke-linecap: round"/>
     </g>
     <g id="text_11">
      <!-- 0.2 -->
      <g style="fill: #262626" transform="translate(29.01625 223.439062) scale(0.12 -0.12)">
       <use xlink:href="#DejaVuSerif-30"/>
       <use xlink:href="#DejaVuSerif-2e" x="63.623047"/>
       <use xlink:href="#DejaVuSerif-32" x="95.410156"/>
      </g>
     </g>
    </g>
    <g id="ytick_4">
     <g id="line2d_4">
      <path d="M 57.6 174.528 
L 414.72 174.528 
" clip-path="url(#pae28c6e06b)" style="fill: none; stroke: #cccccc; stroke-linecap: round"/>
     </g>
     <g id="text_12">
      <!-- 0.4 -->
      <g style="fill: #262626" transform="translate(29.01625 179.087062) scale(0.12 -0.12)">
       <defs>
        <path id="DejaVuSerif-34" d="M 2234 1581 
L 2234 4063 
L 641 1581 
L 2234 1581 
z
M 3609 0 
L 1484 0 
L 1484 331 
L 2234 331 
L 2234 1247 
L 197 1247 
L 197 1588 
L 2241 4750 
L 2859 4750 
L 2859 1581 
L 3750 1581 
L 3750 1247 
L 2859 1247 
L 2859 331 
L 3609 331 
L 3609 0 
z
" transform="scale(0.015625)"/>
       </defs>
       <use xlink:href="#DejaVuSerif-30"/>
       <use xlink:href="#DejaVuSerif-2e" x="63.623047"/>
       <use xlink:href="#DejaVuSerif-34" x="95.410156"/>
      </g>
     </g>
    </g>
    <g id="ytick_5">
     <g id="line2d_5">
      <path d="M 57.6 130.176 
L 414.72 130.176 
" clip-path="url(#pae28c6e06b)" style="fill: none; stroke: #cccccc; stroke-linecap: round"/>
     </g>
     <g id="text_13">
      <!-- 0.6 -->
      <g style="fill: #262626" transform="translate(29.01625 134.735062) scale(0.12 -0.12)">
       <defs>
        <path id="DejaVuSerif-36" d="M 2094 219 
Q 2534 219 2771 542 
Q 3009 866 3009 1472 
Q 3009 2078 2771 2401 
Q 2534 2725 2094 2725 
Q 1647 2725 1412 2412 
Q 1178 2100 1178 1509 
Q 1178 888 1415 553 
Q 1653 219 2094 219 
z
M 1075 2569 
Q 1288 2803 1556 2918 
Q 1825 3034 2163 3034 
Q 2859 3034 3264 2615 
Q 3669 2197 3669 1472 
Q 3669 763 3233 336 
Q 2797 -91 2069 -91 
Q 1278 -91 853 498 
Q 428 1088 428 2181 
Q 428 3406 931 4078 
Q 1434 4750 2350 4750 
Q 2597 4750 2869 4703 
Q 3141 4656 3425 4563 
L 3425 3794 
L 3072 3794 
Q 3034 4109 2831 4275 
Q 2628 4441 2284 4441 
Q 1678 4441 1381 3981 
Q 1084 3522 1075 2569 
z
" transform="scale(0.015625)"/>
       </defs>
       <use xlink:href="#DejaVuSerif-30"/>
       <use xlink:href="#DejaVuSerif-2e" x="63.623047"/>
       <use xlink:href="#DejaVuSerif-36" x="95.410156"/>
      </g>
     </g>
    </g>
    <g id="ytick_6">
     <g id="line2d_6">
      <path d="M 57.6 85.824 
L 414.72 85.824 
" clip-path="url(#pae28c6e06b)" style="fill: none; stroke: #cccccc; stroke-linecap: round"/>
     </g>
     <g id="text_14">
      <!-- 0.8 -->
      <g style="fill: #262626" transform="translate(29.01625 90.383062) scale(0.12 -0.12)">
       <defs>
        <path id="DejaVuSerif-38" d="M 2981 1275 
Q 2981 1775 2732 2051 
Q 2484 2328 2034 2328 
Q 1584 2328 1336 2051 
Q 1088 1775 1088 1275 
Q 1088 772 1336 495 
Q 1584 219 2034 219 
Q 2484 219 2732 495 
Q 2981 772 2981 1275 
z
M 2853 3541 
Q 2853 3966 2637 4203 
Q 2422 4441 2034 4441 
Q 1650 4441 1433 4203 
Q 1216 3966 1216 3541 
Q 1216 3113 1433 2875 
Q 1650 2638 2034 2638 
Q 2422 2638 2637 2875 
Q 2853 3113 2853 3541 
z
M 2516 2484 
Q 3047 2413 3344 2092 
Q 3641 1772 3641 1275 
Q 3641 619 3225 264 
Q 2809 -91 2034 -91 
Q 1263 -91 845 264 
Q 428 619 428 1275 
Q 428 1772 725 2092 
Q 1022 2413 1556 2484 
Q 1084 2569 832 2842 
Q 581 3116 581 3541 
Q 581 4103 968 4426 
Q 1356 4750 2034 4750 
Q 2713 4750 3100 4426 
Q 3488 4103 3488 3541 
Q 3488 3116 3236 2842 
Q 2984 2569 2516 2484 
z
" transform="scale(0.015625)"/>
       </defs>
       <use xlink:href="#DejaVuSerif-30"/>
       <use xlink:href="#DejaVuSerif-2e" x="63.623047"/>
       <use xlink:href="#DejaVuSerif-38" x="95.410156"/>
      </g>
     </g>
    </g>
    <g id="ytick_7">
     <g id="line2d_7">
      <path d="M 57.6 41.472 
L 414.72 41.472 
" clip-path="url(#pae28c6e06b)" style="fill: none; stroke: #cccccc; stroke-linecap: round"/>
     </g>
     <g id="text_15">
      <!-- 1.0 -->
      <g style="fill: #262626" transform="translate(29.01625 46.031062) scale(0.12 -0.12)">
       <defs>
        <path id="DejaVuSerif-31" d="M 909 0 
L 909 331 
L 1722 331 
L 1722 4213 
L 781 3603 
L 781 4013 
L 1919 4750 
L 2350 4750 
L 2350 331 
L 3163 331 
L 3163 0 
L 909 0 
z
" transform="scale(0.015625)"/>
       </defs>
       <use xlink:href="#DejaVuSerif-31"/>
       <use xlink:href="#DejaVuSerif-2e" x="63.623047"/>
       <use xlink:href="#DejaVuSerif-30" x="95.410156"/>
      </g>
     </g>
    </g>
    <g id="text_16">
     <!-- $\text{r}^2$ -->
     <g style="fill: #262626" transform="translate(12.049063 180.828) rotate(-90) scale(0.14 -0.14)">
      <defs>
       <path id="DejaVuSans-72" d="M 2631 2963 
Q 2534 3019 2420 3045 
Q 2306 3072 2169 3072 
Q 1681 3072 1420 2755 
Q 1159 2438 1159 1844 
L 1159 0 
L 581 0 
L 581 3500 
L 1159 3500 
L 1159 2956 
Q 1341 3275 1631 3429 
Q 1922 3584 2338 3584 
Q 2397 3584 2469 3576 
Q 2541 3569 2628 3553 
L 2631 2963 
z
" transform="scale(0.015625)"/>
       <path id="DejaVuSans-32" d="M 1228 531 
L 3431 531 
L 3431 0 
L 469 0 
L 469 531 
Q 828 903 1448 1529 
Q 2069 2156 2228 2338 
Q 2531 2678 2651 2914 
Q 2772 3150 2772 3378 
Q 2772 3750 2511 3984 
Q 2250 4219 1831 4219 
Q 1534 4219 1204 4116 
Q 875 4013 500 3803 
L 500 4441 
Q 881 4594 1212 4672 
Q 1544 4750 1819 4750 
Q 2544 4750 2975 4387 
Q 3406 4025 3406 3419 
Q 3406 3131 3298 2873 
Q 3191 2616 2906 2266 
Q 2828 2175 2409 1742 
Q 1991 1309 1228 531 
z
" transform="scale(0.015625)"/>
      </defs>
      <use xlink:href="#DejaVuSans-72" transform="translate(0 0.765625)"/>
      <use xlink:href="#DejaVuSans-32" transform="translate(42.070312 39.046875) scale(0.7)"/>
     </g>
    </g>
   </g>
   <g id="PolyCollection_1">
    <defs>
     <path id="m0b15f7b7ae" d="M 80.096742 -93.231933 
L 79.743258 -93.231933 
L 79.708121 -94.626646 
L 79.667669 -96.021358 
L 79.621455 -97.41607 
L 79.569065 -98.810783 
L 79.510128 -100.205495 
L 79.444336 -101.600207 
L 79.371458 -102.99492 
L 79.291349 -104.389632 
L 79.203968 -105.784344 
L 79.109384 -107.179056 
L 79.007785 -108.573769 
L 78.899483 -109.968481 
L 78.784909 -111.363193 
L 78.664615 -112.757906 
L 78.53926 -114.152618 
L 78.4096 -115.54733 
L 78.276472 -116.942043 
L 78.140775 -118.336755 
L 78.003447 -119.731467 
L 77.865445 -121.126179 
L 77.727718 -122.520892 
L 77.59119 -123.915604 
L 77.456735 -125.310316 
L 77.325159 -126.705029 
L 77.19719 -128.099741 
L 77.073461 -129.494453 
L 76.954506 -130.889166 
L 76.840757 -132.283878 
L 76.732543 -133.67859 
L 76.630092 -135.073302 
L 76.533541 -136.468015 
L 76.442939 -137.862727 
L 76.358256 -139.257439 
L 76.279392 -140.652152 
L 76.206182 -142.046864 
L 76.138404 -143.441576 
L 76.07578 -144.836288 
L 76.017984 -146.231001 
L 75.964639 -147.625713 
L 75.915321 -149.020425 
L 75.869559 -150.415138 
L 75.826842 -151.80985 
L 75.786616 -153.204562 
L 75.748299 -154.599275 
L 75.711287 -155.993987 
L 75.67497 -157.388699 
L 75.638752 -158.783411 
L 75.602071 -160.178124 
L 75.564427 -161.572836 
L 75.525406 -162.967548 
L 75.484713 -164.362261 
L 75.442196 -165.756973 
L 75.397872 -167.151685 
L 75.351951 -168.546398 
L 75.304847 -169.94111 
L 75.257191 -171.335822 
L 75.209831 -172.730534 
L 75.16382 -174.125247 
L 75.1204 -175.519959 
L 75.080978 -176.914671 
L 75.047086 -178.309384 
L 75.020338 -179.704096 
L 75.002385 -181.098808 
L 74.994859 -182.493521 
L 74.99932 -183.888233 
L 75.017196 -185.282945 
L 75.04974 -186.677657 
L 75.097974 -188.07237 
L 75.162651 -189.467082 
L 75.244224 -190.861794 
L 75.34282 -192.256507 
L 75.458228 -193.651219 
L 75.5899 -195.045931 
L 75.736958 -196.440643 
L 75.898215 -197.835356 
L 76.072206 -199.230068 
L 76.257224 -200.62478 
L 76.451368 -202.019493 
L 76.652592 -203.414205 
L 76.85876 -204.808917 
L 77.067699 -206.20363 
L 77.277255 -207.598342 
L 77.485342 -208.993054 
L 77.689991 -210.387766 
L 77.88939 -211.782479 
L 78.081918 -213.177191 
L 78.266168 -214.571903 
L 78.440973 -215.966616 
L 78.605406 -217.361328 
L 78.758787 -218.75604 
L 78.900678 -220.150753 
L 79.030867 -221.545465 
L 79.149354 -222.940177 
L 79.256326 -224.334889 
L 79.352135 -225.729602 
L 79.437268 -227.124314 
L 79.512319 -228.519026 
L 79.577966 -229.913739 
L 79.634941 -231.308451 
L 80.205059 -231.308451 
L 80.205059 -231.308451 
L 80.262034 -229.913739 
L 80.327681 -228.519026 
L 80.402732 -227.124314 
L 80.487865 -225.729602 
L 80.583674 -224.334889 
L 80.690646 -222.940177 
L 80.809133 -221.545465 
L 80.939322 -220.150753 
L 81.081213 -218.75604 
L 81.234594 -217.361328 
L 81.399027 -215.966616 
L 81.573832 -214.571903 
L 81.758082 -213.177191 
L 81.95061 -211.782479 
L 82.150009 -210.387766 
L 82.354658 -208.993054 
L 82.562745 -207.598342 
L 82.772301 -206.20363 
L 82.98124 -204.808917 
L 83.187408 -203.414205 
L 83.388632 -202.019493 
L 83.582776 -200.62478 
L 83.767794 -199.230068 
L 83.941785 -197.835356 
L 84.103042 -196.440643 
L 84.2501 -195.045931 
L 84.381772 -193.651219 
L 84.49718 -192.256507 
L 84.595776 -190.861794 
L 84.677349 -189.467082 
L 84.742026 -188.07237 
L 84.79026 -186.677657 
L 84.822804 -185.282945 
L 84.84068 -183.888233 
L 84.845141 -182.493521 
L 84.837615 -181.098808 
L 84.819662 -179.704096 
L 84.792914 -178.309384 
L 84.759022 -176.914671 
L 84.7196 -175.519959 
L 84.67618 -174.125247 
L 84.630169 -172.730534 
L 84.582809 -171.335822 
L 84.535153 -169.94111 
L 84.488049 -168.546398 
L 84.442128 -167.151685 
L 84.397804 -165.756973 
L 84.355287 -164.362261 
L 84.314594 -162.967548 
L 84.275573 -161.572836 
L 84.237929 -160.178124 
L 84.201248 -158.783411 
L 84.16503 -157.388699 
L 84.128713 -155.993987 
L 84.091701 -154.599275 
L 84.053384 -153.204562 
L 84.013158 -151.80985 
L 83.970441 -150.415138 
L 83.924679 -149.020425 
L 83.875361 -147.625713 
L 83.822016 -146.231001 
L 83.76422 -144.836288 
L 83.701596 -143.441576 
L 83.633818 -142.046864 
L 83.560608 -140.652152 
L 83.481744 -139.257439 
L 83.397061 -137.862727 
L 83.306459 -136.468015 
L 83.209908 -135.073302 
L 83.107457 -133.67859 
L 82.999243 -132.283878 
L 82.885494 -130.889166 
L 82.766539 -129.494453 
L 82.64281 -128.099741 
L 82.514841 -126.705029 
L 82.383265 -125.310316 
L 82.24881 -123.915604 
L 82.112282 -122.520892 
L 81.974555 -121.126179 
L 81.836553 -119.731467 
L 81.699225 -118.336755 
L 81.563528 -116.942043 
L 81.4304 -115.54733 
L 81.30074 -114.152618 
L 81.175385 -112.757906 
L 81.055091 -111.363193 
L 80.940517 -109.968481 
L 80.832215 -108.573769 
L 80.730616 -107.179056 
L 80.636032 -105.784344 
L 80.548651 -104.389632 
L 80.468542 -102.99492 
L 80.395664 -101.600207 
L 80.329872 -100.205495 
L 80.270935 -98.810783 
L 80.218545 -97.41607 
L 80.172331 -96.021358 
L 80.131879 -94.626646 
L 80.096742 -93.231933 
z
" style="stroke: #404040; stroke-width: 1.25"/>
    </defs>
    <g clip-path="url(#pae28c6e06b)">
     <use xlink:href="#m0b15f7b7ae" x="0" y="345.6" style="fill: #e6e6e6; stroke: #404040; stroke-width: 1.25"/>
    </g>
   </g>
   <g id="PolyCollection_2">
    <defs>
     <path id="m9108b56696" d="M 124.708734 -101.753958 
L 124.411266 -101.753958 
L 124.380896 -103.28785 
L 124.345697 -104.821741 
L 124.305193 -106.355632 
L 124.258912 -107.889523 
L 124.206399 -109.423414 
L 124.147226 -110.957306 
L 124.081003 -112.491197 
L 124.007393 -114.025088 
L 123.926119 -115.558979 
L 123.836982 -117.092871 
L 123.739865 -118.626762 
L 123.634748 -120.160653 
L 123.521715 -121.694544 
L 123.400964 -123.228435 
L 123.272811 -124.762327 
L 123.137698 -126.296218 
L 122.996192 -127.830109 
L 122.848991 -129.364 
L 122.696921 -130.897892 
L 122.540931 -132.431783 
L 122.38209 -133.965674 
L 122.221577 -135.499565 
L 122.060666 -137.033457 
L 121.900714 -138.567348 
L 121.743137 -140.101239 
L 121.589391 -141.63513 
L 121.440937 -143.169021 
L 121.299217 -144.702913 
L 121.165615 -146.236804 
L 121.04142 -147.770695 
L 120.92779 -149.304586 
L 120.825712 -150.838478 
L 120.735968 -152.372369 
L 120.659098 -153.90626 
L 120.595378 -155.440151 
L 120.544794 -156.974042 
L 120.507032 -158.507934 
L 120.481475 -160.041825 
L 120.467214 -161.575716 
L 120.463063 -163.109607 
L 120.467594 -164.643499 
L 120.479179 -166.17739 
L 120.496038 -167.711281 
L 120.516301 -169.245172 
L 120.538075 -170.779063 
L 120.559507 -172.312955 
L 120.578857 -173.846846 
L 120.594562 -175.380737 
L 120.6053 -176.914628 
L 120.610039 -178.44852 
L 120.608082 -179.982411 
L 120.599098 -181.516302 
L 120.583135 -183.050193 
L 120.560629 -184.584085 
L 120.532387 -186.117976 
L 120.499564 -187.651867 
L 120.463623 -189.185758 
L 120.426287 -190.719649 
L 120.389478 -192.253541 
L 120.355253 -193.787432 
L 120.325733 -195.321323 
L 120.303033 -196.855214 
L 120.289187 -198.389106 
L 120.286087 -199.922997 
L 120.295417 -201.456888 
L 120.318605 -202.990779 
L 120.356774 -204.52467 
L 120.410709 -206.058562 
L 120.480844 -207.592453 
L 120.56724 -209.126344 
L 120.669597 -210.660235 
L 120.787263 -212.194127 
L 120.919261 -213.728018 
L 121.064316 -215.261909 
L 121.220903 -216.7958 
L 121.387289 -218.329692 
L 121.561585 -219.863583 
L 121.741801 -221.397474 
L 121.925898 -222.931365 
L 122.11184 -224.465256 
L 122.297643 -225.999148 
L 122.481425 -227.533039 
L 122.661436 -229.06693 
L 122.836099 -230.600821 
L 123.004032 -232.134713 
L 123.164063 -233.668604 
L 123.315246 -235.202495 
L 123.456861 -236.736386 
L 123.588408 -238.270277 
L 123.709601 -239.804169 
L 123.820351 -241.33806 
L 123.920748 -242.871951 
L 124.011038 -244.405842 
L 124.0916 -245.939734 
L 124.162921 -247.473625 
L 124.225571 -249.007516 
L 124.280179 -250.541407 
L 124.327411 -252.075298 
L 124.367951 -253.60919 
L 124.752049 -253.60919 
L 124.752049 -253.60919 
L 124.792589 -252.075298 
L 124.839821 -250.541407 
L 124.894429 -249.007516 
L 124.957079 -247.473625 
L 125.0284 -245.939734 
L 125.108962 -244.405842 
L 125.199252 -242.871951 
L 125.299649 -241.33806 
L 125.410399 -239.804169 
L 125.531592 -238.270277 
L 125.663139 -236.736386 
L 125.804754 -235.202495 
L 125.955937 -233.668604 
L 126.115968 -232.134713 
L 126.283901 -230.600821 
L 126.458564 -229.06693 
L 126.638575 -227.533039 
L 126.822357 -225.999148 
L 127.00816 -224.465256 
L 127.194102 -222.931365 
L 127.378199 -221.397474 
L 127.558415 -219.863583 
L 127.732711 -218.329692 
L 127.899097 -216.7958 
L 128.055684 -215.261909 
L 128.200739 -213.728018 
L 128.332737 -212.194127 
L 128.450403 -210.660235 
L 128.55276 -209.126344 
L 128.639156 -207.592453 
L 128.709291 -206.058562 
L 128.763226 -204.52467 
L 128.801395 -202.990779 
L 128.824583 -201.456888 
L 128.833913 -199.922997 
L 128.830813 -198.389106 
L 128.816967 -196.855214 
L 128.794267 -195.321323 
L 128.764747 -193.787432 
L 128.730522 -192.253541 
L 128.693713 -190.719649 
L 128.656377 -189.185758 
L 128.620436 -187.651867 
L 128.587613 -186.117976 
L 128.559371 -184.584085 
L 128.536865 -183.050193 
L 128.520902 -181.516302 
L 128.511918 -179.982411 
L 128.509961 -178.44852 
L 128.5147 -176.914628 
L 128.525438 -175.380737 
L 128.541143 -173.846846 
L 128.560493 -172.312955 
L 128.581925 -170.779063 
L 128.603699 -169.245172 
L 128.623962 -167.711281 
L 128.640821 -166.17739 
L 128.652406 -164.643499 
L 128.656937 -163.109607 
L 128.652786 -161.575716 
L 128.638525 -160.041825 
L 128.612968 -158.507934 
L 128.575206 -156.974042 
L 128.524622 -155.440151 
L 128.460902 -153.90626 
L 128.384032 -152.372369 
L 128.294288 -150.838478 
L 128.19221 -149.304586 
L 128.07858 -147.770695 
L 127.954385 -146.236804 
L 127.820783 -144.702913 
L 127.679063 -143.169021 
L 127.530609 -141.63513 
L 127.376863 -140.101239 
L 127.219286 -138.567348 
L 127.059334 -137.033457 
L 126.898423 -135.499565 
L 126.73791 -133.965674 
L 126.579069 -132.431783 
L 126.423079 -130.897892 
L 126.271009 -129.364 
L 126.123808 -127.830109 
L 125.982302 -126.296218 
L 125.847189 -124.762327 
L 125.719036 -123.228435 
L 125.598285 -121.694544 
L 125.485252 -120.160653 
L 125.380135 -118.626762 
L 125.283018 -117.092871 
L 125.193881 -115.558979 
L 125.112607 -114.025088 
L 125.038997 -112.491197 
L 124.972774 -110.957306 
L 124.913601 -109.423414 
L 124.861088 -107.889523 
L 124.814807 -106.355632 
L 124.774303 -104.821741 
L 124.739104 -103.28785 
L 124.708734 -101.753958 
z
" style="stroke: #404040; stroke-width: 1.25"/>
    </defs>
    <g clip-path="url(#pae28c6e06b)">
     <use xlink:href="#m9108b56696" x="0" y="345.6" style="fill: #e6e6e6; stroke: #404040; stroke-width: 1.25"/>
    </g>
   </g>
   <g id="PolyCollection_3">
    <defs>
     <path id="m660290a963" d="M 169.445088 -87.288173 
L 168.954912 -87.288173 
L 168.902149 -88.32628 
L 168.840301 -89.364386 
L 168.768303 -90.402492 
L 168.685062 -91.440598 
L 168.589477 -92.478704 
L 168.48046 -93.51681 
L 168.356961 -94.554916 
L 168.217996 -95.593022 
L 168.062675 -96.631128 
L 167.890243 -97.669234 
L 167.700107 -98.70734 
L 167.491876 -99.745446 
L 167.265399 -100.783552 
L 167.020797 -101.821658 
L 166.758504 -102.859764 
L 166.479294 -103.897871 
L 166.184306 -104.935977 
L 165.875072 -105.974083 
L 165.553523 -107.012189 
L 165.221994 -108.050295 
L 164.883217 -109.088401 
L 164.5403 -110.126507 
L 164.196689 -111.164613 
L 163.85612 -112.202719 
L 163.522554 -113.240825 
L 163.2001 -114.278931 
L 162.89292 -115.317037 
L 162.605132 -116.355143 
L 162.340696 -117.393249 
L 162.103303 -118.431355 
L 161.896264 -119.469461 
L 161.722399 -120.507568 
L 161.583945 -121.545674 
L 161.482469 -122.58378 
L 161.418804 -123.621886 
L 161.393014 -124.659992 
L 161.40437 -125.698098 
L 161.451365 -126.736204 
L 161.531749 -127.77431 
L 161.642594 -128.812416 
L 161.780379 -129.850522 
L 161.941098 -130.888628 
L 162.120381 -131.926734 
L 162.313631 -132.96484 
L 162.516158 -134.002946 
L 162.723329 -135.041052 
L 162.930691 -136.079158 
L 163.134107 -137.117265 
L 163.329861 -138.155371 
L 163.514753 -139.193477 
L 163.686176 -140.231583 
L 163.842161 -141.269689 
L 163.981412 -142.307795 
L 164.103308 -143.345901 
L 164.207891 -144.384007 
L 164.295826 -145.422113 
L 164.368351 -146.460219 
L 164.427204 -147.498325 
L 164.474545 -148.536431 
L 164.512859 -149.574537 
L 164.544864 -150.612643 
L 164.573405 -151.650749 
L 164.601359 -152.688856 
L 164.631539 -153.726962 
L 164.6666 -154.765068 
L 164.708966 -155.803174 
L 164.760756 -156.84128 
L 164.82373 -157.879386 
L 164.899252 -158.917492 
L 164.988256 -159.955598 
L 165.091245 -160.993704 
L 165.208285 -162.03181 
L 165.339029 -163.069916 
L 165.482744 -164.108022 
L 165.63835 -165.146128 
L 165.804472 -166.184234 
L 165.979489 -167.22234 
L 166.161599 -168.260446 
L 166.348876 -169.298553 
L 166.539328 -170.336659 
L 166.73096 -171.374765 
L 166.921822 -172.412871 
L 167.110063 -173.450977 
L 167.293965 -174.489083 
L 167.471982 -175.527189 
L 167.642767 -176.565295 
L 167.805183 -177.603401 
L 167.958321 -178.641507 
L 168.101497 -179.679613 
L 168.234251 -180.717719 
L 168.356333 -181.755825 
L 168.467692 -182.793931 
L 168.568453 -183.832037 
L 168.658897 -184.870143 
L 168.739436 -185.90825 
L 168.810587 -186.946356 
L 168.872948 -187.984462 
L 168.927176 -189.022568 
L 168.973959 -190.060674 
L 169.426041 -190.060674 
L 169.426041 -190.060674 
L 169.472824 -189.022568 
L 169.527052 -187.984462 
L 169.589413 -186.946356 
L 169.660564 -185.90825 
L 169.741103 -184.870143 
L 169.831547 -183.832037 
L 169.932308 -182.793931 
L 170.043667 -181.755825 
L 170.165749 -180.717719 
L 170.298503 -179.679613 
L 170.441679 -178.641507 
L 170.594817 -177.603401 
L 170.757233 -176.565295 
L 170.928018 -175.527189 
L 171.106035 -174.489083 
L 171.289937 -173.450977 
L 171.478178 -172.412871 
L 171.66904 -171.374765 
L 171.860672 -170.336659 
L 172.051124 -169.298553 
L 172.238401 -168.260446 
L 172.420511 -167.22234 
L 172.595528 -166.184234 
L 172.76165 -165.146128 
L 172.917256 -164.108022 
L 173.060971 -163.069916 
L 173.191715 -162.03181 
L 173.308755 -160.993704 
L 173.411744 -159.955598 
L 173.500748 -158.917492 
L 173.57627 -157.879386 
L 173.639244 -156.84128 
L 173.691034 -155.803174 
L 173.7334 -154.765068 
L 173.768461 -153.726962 
L 173.798641 -152.688856 
L 173.826595 -151.650749 
L 173.855136 -150.612643 
L 173.887141 -149.574537 
L 173.925455 -148.536431 
L 173.972796 -147.498325 
L 174.031649 -146.460219 
L 174.104174 -145.422113 
L 174.192109 -144.384007 
L 174.296692 -143.345901 
L 174.418588 -142.307795 
L 174.557839 -141.269689 
L 174.713824 -140.231583 
L 174.885247 -139.193477 
L 175.070139 -138.155371 
L 175.265893 -137.117265 
L 175.469309 -136.079158 
L 175.676671 -135.041052 
L 175.883842 -134.002946 
L 176.086369 -132.96484 
L 176.279619 -131.926734 
L 176.458902 -130.888628 
L 176.619621 -129.850522 
L 176.757406 -128.812416 
L 176.868251 -127.77431 
L 176.948635 -126.736204 
L 176.99563 -125.698098 
L 177.006986 -124.659992 
L 176.981196 -123.621886 
L 176.917531 -122.58378 
L 176.816055 -121.545674 
L 176.677601 -120.507568 
L 176.503736 -119.469461 
L 176.296697 -118.431355 
L 176.059304 -117.393249 
L 175.794868 -116.355143 
L 175.50708 -115.317037 
L 175.1999 -114.278931 
L 174.877446 -113.240825 
L 174.54388 -112.202719 
L 174.203311 -111.164613 
L 173.8597 -110.126507 
L 173.516783 -109.088401 
L 173.178006 -108.050295 
L 172.846477 -107.012189 
L 172.524928 -105.974083 
L 172.215694 -104.935977 
L 171.920706 -103.897871 
L 171.641496 -102.859764 
L 171.379203 -101.821658 
L 171.134601 -100.783552 
L 170.908124 -99.745446 
L 170.699893 -98.70734 
L 170.509757 -97.669234 
L 170.337325 -96.631128 
L 170.182004 -95.593022 
L 170.043039 -94.554916 
L 169.91954 -93.51681 
L 169.810523 -92.478704 
L 169.714938 -91.440598 
L 169.631697 -90.402492 
L 169.559699 -89.364386 
L 169.497851 -88.32628 
L 169.445088 -87.288173 
z
" style="stroke: #404040; stroke-width: 1.25"/>
    </defs>
    <g clip-path="url(#pae28c6e06b)">
     <use xlink:href="#m660290a963" x="0" y="345.6" style="fill: #e6e6e6; stroke: #404040; stroke-width: 1.25"/>
    </g>
   </g>
   <g id="PolyCollection_4">
    <defs>
     <path id="m2143fdd48f" d="M 213.99117 -89.606101 
L 213.68883 -89.606101 
L 213.658449 -90.949255 
L 213.623624 -92.292409 
L 213.584054 -93.635563 
L 213.539477 -94.978718 
L 213.489675 -96.321872 
L 213.434483 -97.665026 
L 213.373786 -99.00818 
L 213.307516 -100.351334 
L 213.235642 -101.694488 
L 213.158159 -103.037642 
L 213.07507 -104.380796 
L 212.986361 -105.723951 
L 212.891978 -107.067105 
L 212.791802 -108.410259 
L 212.685625 -109.753413 
L 212.573129 -111.096567 
L 212.453874 -112.439721 
L 212.327294 -113.782875 
L 212.192708 -115.12603 
L 212.049337 -116.469184 
L 211.896344 -117.812338 
L 211.732886 -119.155492 
L 211.558177 -120.498646 
L 211.371565 -121.8418 
L 211.172616 -123.184954 
L 210.961204 -124.528109 
L 210.737587 -125.871263 
L 210.50249 -127.214417 
L 210.257162 -128.557571 
L 210.003413 -129.900725 
L 209.74363 -131.243879 
L 209.48076 -132.587033 
L 209.218261 -133.930187 
L 208.960021 -135.273342 
L 208.710247 -136.616496 
L 208.473329 -137.95965 
L 208.253686 -139.302804 
L 208.05559 -140.645958 
L 207.883 -141.989112 
L 207.739389 -143.332266 
L 207.627592 -144.675421 
L 207.549673 -146.018575 
L 207.506828 -147.361729 
L 207.499321 -148.704883 
L 207.526455 -150.048037 
L 207.586593 -151.391191 
L 207.677217 -152.734345 
L 207.795018 -154.0775 
L 207.936029 -155.420654 
L 208.095778 -156.763808 
L 208.269459 -158.106962 
L 208.452119 -159.450116 
L 208.638839 -160.79327 
L 208.824918 -162.136424 
L 209.006032 -163.479579 
L 209.178383 -164.822733 
L 209.338818 -166.165887 
L 209.484912 -167.509041 
L 209.615031 -168.852195 
L 209.728351 -170.195349 
L 209.824849 -171.538503 
L 209.905261 -172.881657 
L 209.971014 -174.224812 
L 210.024129 -175.567966 
L 210.067112 -176.91112 
L 210.102824 -178.254274 
L 210.134343 -179.597428 
L 210.164828 -180.940582 
L 210.197383 -182.283736 
L 210.234929 -183.626891 
L 210.28009 -184.970045 
L 210.335101 -186.313199 
L 210.401727 -187.656353 
L 210.481218 -188.999507 
L 210.574276 -190.342661 
L 210.681056 -191.685815 
L 210.80118 -193.02897 
L 210.933784 -194.372124 
L 211.07757 -195.715278 
L 211.230884 -197.058432 
L 211.391789 -198.401586 
L 211.558164 -199.74474 
L 211.727783 -201.087894 
L 211.898403 -202.431048 
L 212.067847 -203.774203 
L 212.234071 -205.117357 
L 212.395219 -206.460511 
L 212.549674 -207.803665 
L 212.696086 -209.146819 
L 212.833388 -210.489973 
L 212.960803 -211.833127 
L 213.077836 -213.176282 
L 213.18426 -214.519436 
L 213.280084 -215.86259 
L 213.365531 -217.205744 
L 213.440998 -218.548898 
L 213.507025 -219.892052 
L 213.564255 -221.235206 
L 213.613404 -222.578361 
L 214.066596 -222.578361 
L 214.066596 -222.578361 
L 214.115745 -221.235206 
L 214.172975 -219.892052 
L 214.239002 -218.548898 
L 214.314469 -217.205744 
L 214.399916 -215.86259 
L 214.49574 -214.519436 
L 214.602164 -213.176282 
L 214.719197 -211.833127 
L 214.846612 -210.489973 
L 214.983914 -209.146819 
L 215.130326 -207.803665 
L 215.284781 -206.460511 
L 215.445929 -205.117357 
L 215.612153 -203.774203 
L 215.781597 -202.431048 
L 215.952217 -201.087894 
L 216.121836 -199.74474 
L 216.288211 -198.401586 
L 216.449116 -197.058432 
L 216.60243 -195.715278 
L 216.746216 -194.372124 
L 216.87882 -193.02897 
L 216.998944 -191.685815 
L 217.105724 -190.342661 
L 217.198782 -188.999507 
L 217.278273 -187.656353 
L 217.344899 -186.313199 
L 217.39991 -184.970045 
L 217.445071 -183.626891 
L 217.482617 -182.283736 
L 217.515172 -180.940582 
L 217.545657 -179.597428 
L 217.577176 -178.254274 
L 217.612888 -176.91112 
L 217.655871 -175.567966 
L 217.708986 -174.224812 
L 217.774739 -172.881657 
L 217.855151 -171.538503 
L 217.951649 -170.195349 
L 218.064969 -168.852195 
L 218.195088 -167.509041 
L 218.341182 -166.165887 
L 218.501617 -164.822733 
L 218.673968 -163.479579 
L 218.855082 -162.136424 
L 219.041161 -160.79327 
L 219.227881 -159.450116 
L 219.410541 -158.106962 
L 219.584222 -156.763808 
L 219.743971 -155.420654 
L 219.884982 -154.0775 
L 220.002783 -152.734345 
L 220.093407 -151.391191 
L 220.153545 -150.048037 
L 220.180679 -148.704883 
L 220.173172 -147.361729 
L 220.130327 -146.018575 
L 220.052408 -144.675421 
L 219.940611 -143.332266 
L 219.797 -141.989112 
L 219.62441 -140.645958 
L 219.426314 -139.302804 
L 219.206671 -137.95965 
L 218.969753 -136.616496 
L 218.719979 -135.273342 
L 218.461739 -133.930187 
L 218.19924 -132.587033 
L 217.93637 -131.243879 
L 217.676587 -129.900725 
L 217.422838 -128.557571 
L 217.17751 -127.214417 
L 216.942413 -125.871263 
L 216.718796 -124.528109 
L 216.507384 -123.184954 
L 216.308435 -121.8418 
L 216.121823 -120.498646 
L 215.947114 -119.155492 
L 215.783656 -117.812338 
L 215.630663 -116.469184 
L 215.487292 -115.12603 
L 215.352706 -113.782875 
L 215.226126 -112.439721 
L 215.106871 -111.096567 
L 214.994375 -109.753413 
L 214.888198 -108.410259 
L 214.788022 -107.067105 
L 214.693639 -105.723951 
L 214.60493 -104.380796 
L 214.521841 -103.037642 
L 214.444358 -101.694488 
L 214.372484 -100.351334 
L 214.306214 -99.00818 
L 214.245517 -97.665026 
L 214.190325 -96.321872 
L 214.140523 -94.978718 
L 214.095946 -93.635563 
L 214.056376 -92.292409 
L 214.021551 -90.949255 
L 213.99117 -89.606101 
z
" style="stroke: #404040; stroke-width: 1.25"/>
    </defs>
    <g clip-path="url(#pae28c6e06b)">
     <use xlink:href="#m2143fdd48f" x="0" y="345.6" style="fill: #e6e6e6; stroke: #404040; stroke-width: 1.25"/>
    </g>
   </g>
   <g id="PolyCollection_5">
    <defs>
     <path id="ma4ba715dec" d="M 258.878781 -203.524988 
L 258.081219 -203.524988 
L 257.993993 -204.078034 
L 257.893252 -204.631079 
L 257.778227 -205.184125 
L 257.648391 -205.73717 
L 257.503512 -206.290216 
L 257.343697 -206.843261 
L 257.169414 -207.396306 
L 256.98151 -207.949352 
L 256.781191 -208.502397 
L 256.569992 -209.055443 
L 256.349712 -209.608488 
L 256.122335 -210.161534 
L 255.889917 -210.714579 
L 255.654476 -211.267624 
L 255.417852 -211.82067 
L 255.181586 -212.373715 
L 254.946792 -212.926761 
L 254.714048 -213.479806 
L 254.48332 -214.032851 
L 254.2539 -214.585897 
L 254.024393 -215.138942 
L 253.792733 -215.691988 
L 253.556241 -216.245033 
L 253.31171 -216.798079 
L 253.055532 -217.351124 
L 252.783836 -217.904169 
L 252.492658 -218.457215 
L 252.178111 -219.01026 
L 251.836561 -219.563306 
L 251.464807 -220.116351 
L 251.060242 -220.669397 
L 250.621008 -221.222442 
L 250.146132 -221.775487 
L 249.635642 -222.328533 
L 249.090661 -222.881578 
L 248.513471 -223.434624 
L 247.907559 -223.987669 
L 247.277623 -224.540715 
L 246.629553 -225.09376 
L 245.970378 -225.646805 
L 245.30817 -226.199851 
L 244.651918 -226.752896 
L 244.01136 -227.305942 
L 243.396786 -227.858987 
L 242.818794 -228.412033 
L 242.288037 -228.965078 
L 241.814926 -229.518123 
L 241.409335 -230.071169 
L 241.080297 -230.624214 
L 240.835699 -231.17726 
L 240.682004 -231.730305 
L 240.624 -232.28335 
L 240.664586 -232.836396 
L 240.804619 -233.389441 
L 241.042817 -233.942487 
L 241.375733 -234.495532 
L 241.797816 -235.048578 
L 242.301532 -235.601623 
L 242.877582 -236.154668 
L 243.515177 -236.707714 
L 244.202385 -237.260759 
L 244.926525 -237.813805 
L 245.674595 -238.36685 
L 246.433713 -238.919896 
L 247.19155 -239.472941 
L 247.936741 -240.025986 
L 248.659239 -240.579032 
L 249.350603 -241.132077 
L 250.00421 -241.685123 
L 250.615368 -242.238168 
L 251.181336 -242.791214 
L 251.701249 -243.344259 
L 252.175958 -243.897304 
L 252.607792 -244.45035 
L 253.000267 -245.003395 
L 253.357757 -245.556441 
L 253.685153 -246.109486 
L 253.987521 -246.662532 
L 254.269798 -247.215577 
L 254.536521 -247.768622 
L 254.791621 -248.321668 
L 255.038272 -248.874713 
L 255.278816 -249.427759 
L 255.514739 -249.980804 
L 255.746721 -250.533849 
L 255.974722 -251.086895 
L 256.198104 -251.63994 
L 256.415785 -252.192986 
L 256.626394 -252.746031 
L 256.828423 -253.299077 
L 257.020374 -253.852122 
L 257.200873 -254.405167 
L 257.368773 -254.958213 
L 257.52321 -255.511258 
L 257.663648 -256.064304 
L 257.789886 -256.617349 
L 257.902046 -257.170395 
L 258.000542 -257.72344 
L 258.086036 -258.276485 
L 258.873964 -258.276485 
L 258.873964 -258.276485 
L 258.959458 -257.72344 
L 259.057954 -257.170395 
L 259.170114 -256.617349 
L 259.296352 -256.064304 
L 259.43679 -255.511258 
L 259.591227 -254.958213 
L 259.759127 -254.405167 
L 259.939626 -253.852122 
L 260.131577 -253.299077 
L 260.333606 -252.746031 
L 260.544215 -252.192986 
L 260.761896 -251.63994 
L 260.985278 -251.086895 
L 261.213279 -250.533849 
L 261.445261 -249.980804 
L 261.681184 -249.427759 
L 261.921728 -248.874713 
L 262.168379 -248.321668 
L 262.423479 -247.768622 
L 262.690202 -247.215577 
L 262.972479 -246.662532 
L 263.274847 -246.109486 
L 263.602243 -245.556441 
L 263.959733 -245.003395 
L 264.352208 -244.45035 
L 264.784042 -243.897304 
L 265.258751 -243.344259 
L 265.778664 -242.791214 
L 266.344632 -242.238168 
L 266.95579 -241.685123 
L 267.609397 -241.132077 
L 268.300761 -240.579032 
L 269.023259 -240.025986 
L 269.76845 -239.472941 
L 270.526287 -238.919896 
L 271.285405 -238.36685 
L 272.033475 -237.813805 
L 272.757615 -237.260759 
L 273.444823 -236.707714 
L 274.082418 -236.154668 
L 274.658468 -235.601623 
L 275.162184 -235.048578 
L 275.584267 -234.495532 
L 275.917183 -233.942487 
L 276.155381 -233.389441 
L 276.295414 -232.836396 
L 276.336 -232.28335 
L 276.277996 -231.730305 
L 276.124301 -231.17726 
L 275.879703 -230.624214 
L 275.550665 -230.071169 
L 275.145074 -229.518123 
L 274.671963 -228.965078 
L 274.141206 -228.412033 
L 273.563214 -227.858987 
L 272.94864 -227.305942 
L 272.308082 -226.752896 
L 271.65183 -226.199851 
L 270.989622 -225.646805 
L 270.330447 -225.09376 
L 269.682377 -224.540715 
L 269.052441 -223.987669 
L 268.446529 -223.434624 
L 267.869339 -222.881578 
L 267.324358 -222.328533 
L 266.813868 -221.775487 
L 266.338992 -221.222442 
L 265.899758 -220.669397 
L 265.495193 -220.116351 
L 265.123439 -219.563306 
L 264.781889 -219.01026 
L 264.467342 -218.457215 
L 264.176164 -217.904169 
L 263.904468 -217.351124 
L 263.64829 -216.798079 
L 263.403759 -216.245033 
L 263.167267 -215.691988 
L 262.935607 -215.138942 
L 262.7061 -214.585897 
L 262.47668 -214.032851 
L 262.245952 -213.479806 
L 262.013208 -212.926761 
L 261.778414 -212.373715 
L 261.542148 -211.82067 
L 261.305524 -211.267624 
L 261.070083 -210.714579 
L 260.837665 -210.161534 
L 260.610288 -209.608488 
L 260.390008 -209.055443 
L 260.178809 -208.502397 
L 259.97849 -207.949352 
L 259.790586 -207.396306 
L 259.616303 -206.843261 
L 259.456488 -206.290216 
L 259.311609 -205.73717 
L 259.181773 -205.184125 
L 259.066748 -204.631079 
L 258.966007 -204.078034 
L 258.878781 -203.524988 
z
" style="stroke: #404040; stroke-width: 1.25"/>
    </defs>
    <g clip-path="url(#pae28c6e06b)">
     <use xlink:href="#ma4ba715dec" x="0" y="345.6" style="fill: #e6e6e6; stroke: #404040; stroke-width: 1.25"/>
    </g>
   </g>
   <g id="PolyCollection_6">
    <defs>
     <path id="mc4f0f5cc27" d="M 304.052717 -197.865802 
L 302.187283 -197.865802 
L 302.01315 -198.345147 
L 301.815202 -198.824492 
L 301.591998 -199.303837 
L 301.342368 -199.783181 
L 301.065483 -200.262526 
L 300.760927 -200.741871 
L 300.428756 -201.221215 
L 300.069561 -201.70056 
L 299.684504 -202.179905 
L 299.275349 -202.659249 
L 298.84447 -203.138594 
L 298.394836 -203.617939 
L 297.929975 -204.097283 
L 297.453915 -204.576628 
L 296.971099 -205.055973 
L 296.486283 -205.535317 
L 296.004414 -206.014662 
L 295.530493 -206.494007 
L 295.069435 -206.973351 
L 294.625919 -207.452696 
L 294.204253 -207.932041 
L 293.808234 -208.411385 
L 293.441041 -208.89073 
L 293.105142 -209.370075 
L 292.802223 -209.849419 
L 292.533157 -210.328764 
L 292.297993 -210.808109 
L 292.095985 -211.287453 
L 291.925643 -211.766798 
L 291.784809 -212.246143 
L 291.670763 -212.725487 
L 291.580335 -213.204832 
L 291.510031 -213.684177 
L 291.456168 -214.163521 
L 291.414994 -214.642866 
L 291.382818 -215.122211 
L 291.356112 -215.601555 
L 291.331615 -216.0809 
L 291.306402 -216.560245 
L 291.277951 -217.039589 
L 291.244181 -217.518934 
L 291.203482 -217.998279 
L 291.15472 -218.477624 
L 291.097237 -218.956968 
L 291.030841 -219.436313 
L 290.955781 -219.915658 
L 290.872724 -220.395002 
L 290.782726 -220.874347 
L 290.687199 -221.353692 
L 290.58788 -221.833036 
L 290.486797 -222.312381 
L 290.386237 -222.791726 
L 290.288709 -223.27107 
L 290.196907 -223.750415 
L 290.113673 -224.22976 
L 290.041951 -224.709104 
L 289.984743 -225.188449 
L 289.945058 -225.667794 
L 289.925857 -226.147138 
L 289.929998 -226.626483 
L 289.960172 -227.105828 
L 290.018849 -227.585172 
L 290.108208 -228.064517 
L 290.230089 -228.543862 
L 290.385931 -229.023206 
L 290.576727 -229.502551 
L 290.802984 -229.981896 
L 291.06469 -230.46124 
L 291.361298 -230.940585 
L 291.691713 -231.41993 
L 292.054305 -231.899274 
L 292.44692 -232.378619 
L 292.866921 -232.857964 
L 293.311225 -233.337308 
L 293.776369 -233.816653 
L 294.258568 -234.295998 
L 294.753799 -234.775342 
L 295.25788 -235.254687 
L 295.766554 -235.734032 
L 296.27558 -236.213376 
L 296.780814 -236.692721 
L 297.278295 -237.172066 
L 297.764313 -237.65141 
L 298.235481 -238.130755 
L 298.688785 -238.6101 
L 299.121628 -239.089445 
L 299.53186 -239.568789 
L 299.917793 -240.048134 
L 300.278204 -240.527479 
L 300.612328 -241.006823 
L 300.919835 -241.486168 
L 301.200801 -241.965513 
L 301.455666 -242.444857 
L 301.685195 -242.924202 
L 301.890426 -243.403547 
L 302.072619 -243.882891 
L 302.233206 -244.362236 
L 302.37374 -244.841581 
L 302.49585 -245.320925 
L 303.74415 -245.320925 
L 303.74415 -245.320925 
L 303.86626 -244.841581 
L 304.006794 -244.362236 
L 304.167381 -243.882891 
L 304.349574 -243.403547 
L 304.554805 -242.924202 
L 304.784334 -242.444857 
L 305.039199 -241.965513 
L 305.320165 -241.486168 
L 305.627672 -241.006823 
L 305.961796 -240.527479 
L 306.322207 -240.048134 
L 306.70814 -239.568789 
L 307.118372 -239.089445 
L 307.551215 -238.6101 
L 308.004519 -238.130755 
L 308.475687 -237.65141 
L 308.961705 -237.172066 
L 309.459186 -236.692721 
L 309.96442 -236.213376 
L 310.473446 -235.734032 
L 310.98212 -235.254687 
L 311.486201 -234.775342 
L 311.981432 -234.295998 
L 312.463631 -233.816653 
L 312.928775 -233.337308 
L 313.373079 -232.857964 
L 313.79308 -232.378619 
L 314.185695 -231.899274 
L 314.548287 -231.41993 
L 314.878702 -230.940585 
L 315.17531 -230.46124 
L 315.437016 -229.981896 
L 315.663273 -229.502551 
L 315.854069 -229.023206 
L 316.009911 -228.543862 
L 316.131792 -228.064517 
L 316.221151 -227.585172 
L 316.279828 -227.105828 
L 316.310002 -226.626483 
L 316.314143 -226.147138 
L 316.294942 -225.667794 
L 316.255257 -225.188449 
L 316.198049 -224.709104 
L 316.126327 -224.22976 
L 316.043093 -223.750415 
L 315.951291 -223.27107 
L 315.853763 -222.791726 
L 315.753203 -222.312381 
L 315.65212 -221.833036 
L 315.552801 -221.353692 
L 315.457274 -220.874347 
L 315.367276 -220.395002 
L 315.284219 -219.915658 
L 315.209159 -219.436313 
L 315.142763 -218.956968 
L 315.08528 -218.477624 
L 315.036518 -217.998279 
L 314.995819 -217.518934 
L 314.962049 -217.039589 
L 314.933598 -216.560245 
L 314.908385 -216.0809 
L 314.883888 -215.601555 
L 314.857182 -215.122211 
L 314.825006 -214.642866 
L 314.783832 -214.163521 
L 314.729969 -213.684177 
L 314.659665 -213.204832 
L 314.569237 -212.725487 
L 314.455191 -212.246143 
L 314.314357 -211.766798 
L 314.144015 -211.287453 
L 313.942007 -210.808109 
L 313.706843 -210.328764 
L 313.437777 -209.849419 
L 313.134858 -209.370075 
L 312.798959 -208.89073 
L 312.431766 -208.411385 
L 312.035747 -207.932041 
L 311.614081 -207.452696 
L 311.170565 -206.973351 
L 310.709507 -206.494007 
L 310.235586 -206.014662 
L 309.753717 -205.535317 
L 309.268901 -205.055973 
L 308.786085 -204.576628 
L 308.310025 -204.097283 
L 307.845164 -203.617939 
L 307.39553 -203.138594 
L 306.964651 -202.659249 
L 306.555496 -202.179905 
L 306.170439 -201.70056 
L 305.811244 -201.221215 
L 305.479073 -200.741871 
L 305.174517 -200.262526 
L 304.897632 -199.783181 
L 304.648002 -199.303837 
L 304.424798 -198.824492 
L 304.22685 -198.345147 
L 304.052717 -197.865802 
z
" style="stroke: #404040; stroke-width: 1.25"/>
    </defs>
    <g clip-path="url(#pae28c6e06b)">
     <use xlink:href="#mc4f0f5cc27" x="0" y="345.6" style="fill: #e6e6e6; stroke: #404040; stroke-width: 1.25"/>
    </g>
   </g>
   <g id="PolyCollection_7">
    <defs>
     <path id="m92bd5d8823" d="M 347.976204 -53.390695 
L 347.543796 -53.390695 
L 347.498194 -55.063654 
L 347.445324 -56.736613 
L 347.384575 -58.409572 
L 347.315399 -60.082531 
L 347.237344 -61.75549 
L 347.150081 -63.428449 
L 347.053436 -65.101409 
L 346.947413 -66.774368 
L 346.832224 -68.447327 
L 346.708306 -70.120286 
L 346.576338 -71.793245 
L 346.437239 -73.466204 
L 346.292175 -75.139163 
L 346.142535 -76.812122 
L 345.989915 -78.485081 
L 345.836076 -80.15804 
L 345.682905 -81.831 
L 345.532356 -83.503959 
L 345.386392 -85.176918 
L 345.246917 -86.849877 
L 345.11571 -88.522836 
L 344.994354 -90.195795 
L 344.884174 -91.868754 
L 344.786177 -93.541713 
L 344.701008 -95.214672 
L 344.62891 -96.887631 
L 344.569703 -98.56059 
L 344.522782 -100.23355 
L 344.487123 -101.906509 
L 344.461315 -103.579468 
L 344.443605 -105.252427 
L 344.431954 -106.925386 
L 344.424116 -108.598345 
L 344.417722 -110.271304 
L 344.41037 -111.944263 
L 344.399727 -113.617222 
L 344.383626 -115.290181 
L 344.360162 -116.96314 
L 344.32778 -118.6361 
L 344.285353 -120.309059 
L 344.232247 -121.982018 
L 344.168361 -123.654977 
L 344.094156 -125.327936 
L 344.010653 -127.000895 
L 343.919413 -128.673854 
L 343.822493 -130.346813 
L 343.722377 -132.019772 
L 343.621887 -133.692731 
L 343.524085 -135.365691 
L 343.432151 -137.03865 
L 343.349265 -138.711609 
L 343.278478 -140.384568 
L 343.222597 -142.057527 
L 343.184072 -143.730486 
L 343.164904 -145.403445 
L 343.166568 -147.076404 
L 343.189966 -148.749363 
L 343.235401 -150.422322 
L 343.302576 -152.095281 
L 343.390629 -153.768241 
L 343.498176 -155.4412 
L 343.623389 -157.114159 
L 343.764083 -158.787118 
L 343.917812 -160.460077 
L 344.081977 -162.133036 
L 344.253924 -163.805995 
L 344.431046 -165.478954 
L 344.610867 -167.151913 
L 344.791115 -168.824872 
L 344.969781 -170.497831 
L 345.145151 -172.170791 
L 345.315832 -173.84375 
L 345.480747 -175.516709 
L 345.639126 -177.189668 
L 345.790478 -178.862627 
L 345.934554 -180.535586 
L 346.071304 -182.208545 
L 346.200834 -183.881504 
L 346.323359 -185.554463 
L 346.439159 -187.227422 
L 346.548548 -188.900382 
L 346.65184 -190.573341 
L 346.749324 -192.2463 
L 346.841257 -193.919259 
L 346.927848 -195.592218 
L 347.009265 -197.265177 
L 347.085631 -198.938136 
L 347.157039 -200.611095 
L 347.223561 -202.284054 
L 347.285258 -203.957013 
L 347.342191 -205.629972 
L 347.394433 -207.302932 
L 347.44208 -208.975891 
L 347.485252 -210.64885 
L 347.524097 -212.321809 
L 347.558796 -213.994768 
L 347.589559 -215.667727 
L 347.61662 -217.340686 
L 347.640238 -219.013645 
L 347.879762 -219.013645 
L 347.879762 -219.013645 
L 347.90338 -217.340686 
L 347.930441 -215.667727 
L 347.961204 -213.994768 
L 347.995903 -212.321809 
L 348.034748 -210.64885 
L 348.07792 -208.975891 
L 348.125567 -207.302932 
L 348.177809 -205.629972 
L 348.234742 -203.957013 
L 348.296439 -202.284054 
L 348.362961 -200.611095 
L 348.434369 -198.938136 
L 348.510735 -197.265177 
L 348.592152 -195.592218 
L 348.678743 -193.919259 
L 348.770676 -192.2463 
L 348.86816 -190.573341 
L 348.971452 -188.900382 
L 349.080841 -187.227422 
L 349.196641 -185.554463 
L 349.319166 -183.881504 
L 349.448696 -182.208545 
L 349.585446 -180.535586 
L 349.729522 -178.862627 
L 349.880874 -177.189668 
L 350.039253 -175.516709 
L 350.204168 -173.84375 
L 350.374849 -172.170791 
L 350.550219 -170.497831 
L 350.728885 -168.824872 
L 350.909133 -167.151913 
L 351.088954 -165.478954 
L 351.266076 -163.805995 
L 351.438023 -162.133036 
L 351.602188 -160.460077 
L 351.755917 -158.787118 
L 351.896611 -157.114159 
L 352.021824 -155.4412 
L 352.129371 -153.768241 
L 352.217424 -152.095281 
L 352.284599 -150.422322 
L 352.330034 -148.749363 
L 352.353432 -147.076404 
L 352.355096 -145.403445 
L 352.335928 -143.730486 
L 352.297403 -142.057527 
L 352.241522 -140.384568 
L 352.170735 -138.711609 
L 352.087849 -137.03865 
L 351.995915 -135.365691 
L 351.898113 -133.692731 
L 351.797623 -132.019772 
L 351.697507 -130.346813 
L 351.600587 -128.673854 
L 351.509347 -127.000895 
L 351.425844 -125.327936 
L 351.351639 -123.654977 
L 351.287753 -121.982018 
L 351.234647 -120.309059 
L 351.19222 -118.6361 
L 351.159838 -116.96314 
L 351.136374 -115.290181 
L 351.120273 -113.617222 
L 351.10963 -111.944263 
L 351.102278 -110.271304 
L 351.095884 -108.598345 
L 351.088046 -106.925386 
L 351.076395 -105.252427 
L 351.058685 -103.579468 
L 351.032877 -101.906509 
L 350.997218 -100.23355 
L 350.950297 -98.56059 
L 350.89109 -96.887631 
L 350.818992 -95.214672 
L 350.733823 -93.541713 
L 350.635826 -91.868754 
L 350.525646 -90.195795 
L 350.40429 -88.522836 
L 350.273083 -86.849877 
L 350.133608 -85.176918 
L 349.987644 -83.503959 
L 349.837095 -81.831 
L 349.683924 -80.15804 
L 349.530085 -78.485081 
L 349.377465 -76.812122 
L 349.227825 -75.139163 
L 349.082761 -73.466204 
L 348.943662 -71.793245 
L 348.811694 -70.120286 
L 348.687776 -68.447327 
L 348.572587 -66.774368 
L 348.466564 -65.101409 
L 348.369919 -63.428449 
L 348.282656 -61.75549 
L 348.204601 -60.082531 
L 348.135425 -58.409572 
L 348.074676 -56.736613 
L 348.021806 -55.063654 
L 347.976204 -53.390695 
z
" style="stroke: #404040; stroke-width: 1.25"/>
    </defs>
    <g clip-path="url(#pae28c6e06b)">
     <use xlink:href="#m92bd5d8823" x="0" y="345.6" style="fill: #e6e6e6; stroke: #404040; stroke-width: 1.25"/>
    </g>
   </g>
   <g id="PolyCollection_8">
    <defs>
     <path id="m8129480c4b" d="M 392.729713 -65.283022 
L 392.070287 -65.283022 
L 392.004712 -66.585101 
L 391.929452 -67.88718 
L 391.843821 -69.189259 
L 391.747236 -70.491338 
L 391.639253 -71.793417 
L 391.519603 -73.095497 
L 391.388225 -74.397576 
L 391.245293 -75.699655 
L 391.091246 -77.001734 
L 390.926801 -78.303813 
L 390.752967 -79.605892 
L 390.571044 -80.907972 
L 390.382609 -82.210051 
L 390.189494 -83.51213 
L 389.993751 -84.814209 
L 389.797601 -86.116288 
L 389.60338 -87.418367 
L 389.41347 -88.720447 
L 389.230222 -90.022526 
L 389.055886 -91.324605 
L 388.892526 -92.626684 
L 388.741947 -93.928763 
L 388.605629 -95.230842 
L 388.484665 -96.532922 
L 388.379716 -97.835001 
L 388.290981 -99.13708 
L 388.218182 -100.439159 
L 388.160571 -101.741238 
L 388.116952 -103.043317 
L 388.085723 -104.345397 
L 388.064936 -105.647476 
L 388.052369 -106.949555 
L 388.045609 -108.251634 
L 388.042148 -109.553713 
L 388.03948 -110.855792 
L 388.035197 -112.157872 
L 388.027087 -113.459951 
L 388.013216 -114.76203 
L 387.992009 -116.064109 
L 387.962308 -117.366188 
L 387.923422 -118.668267 
L 387.875146 -119.970347 
L 387.817778 -121.272426 
L 387.7521 -122.574505 
L 387.67935 -123.876584 
L 387.601177 -125.178663 
L 387.519572 -126.480742 
L 387.436801 -127.782822 
L 387.355316 -129.084901 
L 387.277667 -130.38698 
L 387.206414 -131.689059 
L 387.144037 -132.991138 
L 387.092855 -134.293217 
L 387.054953 -135.595297 
L 387.032118 -136.897376 
L 387.025795 -138.199455 
L 387.03705 -139.501534 
L 387.066555 -140.803613 
L 387.114583 -142.105692 
L 387.181021 -143.407772 
L 387.265396 -144.709851 
L 387.366906 -146.01193 
L 387.484469 -147.314009 
L 387.616769 -148.616088 
L 387.76231 -149.918167 
L 387.919469 -151.220247 
L 388.086549 -152.522326 
L 388.261824 -153.824405 
L 388.443583 -155.126484 
L 388.630167 -156.428563 
L 388.819996 -157.730642 
L 389.01159 -159.032722 
L 389.203582 -160.334801 
L 389.394728 -161.63688 
L 389.583908 -162.938959 
L 389.770121 -164.241038 
L 389.952484 -165.543117 
L 390.130218 -166.845197 
L 390.302645 -168.147276 
L 390.469174 -169.449355 
L 390.629299 -170.751434 
L 390.782586 -172.053513 
L 390.928673 -173.355592 
L 391.067264 -174.657672 
L 391.198126 -175.959751 
L 391.321094 -177.26183 
L 391.436061 -178.563909 
L 391.54299 -179.865988 
L 391.641903 -181.168067 
L 391.73289 -182.470147 
L 391.816099 -183.772226 
L 391.89174 -185.074305 
L 391.960076 -186.376384 
L 392.021421 -187.678463 
L 392.076132 -188.980542 
L 392.124603 -190.282622 
L 392.167254 -191.584701 
L 392.204525 -192.88678 
L 392.236866 -194.188859 
L 392.563134 -194.188859 
L 392.563134 -194.188859 
L 392.595475 -192.88678 
L 392.632746 -191.584701 
L 392.675397 -190.282622 
L 392.723868 -188.980542 
L 392.778579 -187.678463 
L 392.839924 -186.376384 
L 392.90826 -185.074305 
L 392.983901 -183.772226 
L 393.06711 -182.470147 
L 393.158097 -181.168067 
L 393.25701 -179.865988 
L 393.363939 -178.563909 
L 393.478906 -177.26183 
L 393.601874 -175.959751 
L 393.732736 -174.657672 
L 393.871327 -173.355592 
L 394.017414 -172.053513 
L 394.170701 -170.751434 
L 394.330826 -169.449355 
L 394.497355 -168.147276 
L 394.669782 -166.845197 
L 394.847516 -165.543117 
L 395.029879 -164.241038 
L 395.216092 -162.938959 
L 395.405272 -161.63688 
L 395.596418 -160.334801 
L 395.78841 -159.032722 
L 395.980004 -157.730642 
L 396.169833 -156.428563 
L 396.356417 -155.126484 
L 396.538176 -153.824405 
L 396.713451 -152.522326 
L 396.880531 -151.220247 
L 397.03769 -149.918167 
L 397.183231 -148.616088 
L 397.315531 -147.314009 
L 397.433094 -146.01193 
L 397.534604 -144.709851 
L 397.618979 -143.407772 
L 397.685417 -142.105692 
L 397.733445 -140.803613 
L 397.76295 -139.501534 
L 397.774205 -138.199455 
L 397.767882 -136.897376 
L 397.745047 -135.595297 
L 397.707145 -134.293217 
L 397.655963 -132.991138 
L 397.593586 -131.689059 
L 397.522333 -130.38698 
L 397.444684 -129.084901 
L 397.363199 -127.782822 
L 397.280428 -126.480742 
L 397.198823 -125.178663 
L 397.12065 -123.876584 
L 397.0479 -122.574505 
L 396.982222 -121.272426 
L 396.924854 -119.970347 
L 396.876578 -118.668267 
L 396.837692 -117.366188 
L 396.807991 -116.064109 
L 396.786784 -114.76203 
L 396.772913 -113.459951 
L 396.764803 -112.157872 
L 396.76052 -110.855792 
L 396.757852 -109.553713 
L 396.754391 -108.251634 
L 396.747631 -106.949555 
L 396.735064 -105.647476 
L 396.714277 -104.345397 
L 396.683048 -103.043317 
L 396.639429 -101.741238 
L 396.581818 -100.439159 
L 396.509019 -99.13708 
L 396.420284 -97.835001 
L 396.315335 -96.532922 
L 396.194371 -95.230842 
L 396.058053 -93.928763 
L 395.907474 -92.626684 
L 395.744114 -91.324605 
L 395.569778 -90.022526 
L 395.38653 -88.720447 
L 395.19662 -87.418367 
L 395.002399 -86.116288 
L 394.806249 -84.814209 
L 394.610506 -83.51213 
L 394.417391 -82.210051 
L 394.228956 -80.907972 
L 394.047033 -79.605892 
L 393.873199 -78.303813 
L 393.708754 -77.001734 
L 393.554707 -75.699655 
L 393.411775 -74.397576 
L 393.280397 -73.095497 
L 393.160747 -71.793417 
L 393.052764 -70.491338 
L 392.956179 -69.189259 
L 392.870548 -67.88718 
L 392.795288 -66.585101 
L 392.729713 -65.283022 
z
" style="stroke: #404040; stroke-width: 1.25"/>
    </defs>
    <g clip-path="url(#pae28c6e06b)">
     <use xlink:href="#m8129480c4b" x="0" y="345.6" style="fill: #e6e6e6; stroke: #404040; stroke-width: 1.25"/>
    </g>
   </g>
   <g id="patch_3">
    <path d="M 57.6 307.584 
L 57.6 41.472 
" style="fill: none; stroke: #cccccc; stroke-width: 1.25; stroke-linejoin: miter; stroke-linecap: square"/>
   </g>
   <g id="patch_4">
    <path d="M 414.72 307.584 
L 414.72 41.472 
" style="fill: none; stroke: #cccccc; stroke-width: 1.25; stroke-linejoin: miter; stroke-linecap: square"/>
   </g>
   <g id="patch_5">
    <path d="M 57.6 307.584 
L 414.72 307.584 
" style="fill: none; stroke: #cccccc; stroke-width: 1.25; stroke-linejoin: miter; stroke-linecap: square"/>
   </g>
   <g id="patch_6">
    <path d="M 57.6 41.472 
L 414.72 41.472 
" style="fill: none; stroke: #cccccc; stroke-width: 1.25; stroke-linejoin: miter; stroke-linecap: square"/>
   </g>
   <g id="PathCollection_1">
    <defs>
     <path id="C0_0_c032ede2f9" d="M 0 1.5 
C 0.397805 1.5 0.77937 1.341951 1.06066 1.06066 
C 1.341951 0.77937 1.5 0.397805 1.5 -0 
C 1.5 -0.397805 1.341951 -0.77937 1.06066 -1.06066 
C 0.77937 -1.341951 0.397805 -1.5 0 -1.5 
C -0.397805 -1.5 -0.77937 -1.341951 -1.06066 -1.06066 
C -1.341951 -0.77937 -1.5 -0.397805 -1.5 0 
C -1.5 0.397805 -1.341951 0.77937 -1.06066 1.06066 
C -0.77937 1.341951 -0.397805 1.5 0 1.5 
z
"/>
    </defs>
    <g clip-path="url(#pae28c6e06b)">
     <use xlink:href="#C0_0_c032ede2f9" x="79.92" y="189.946361" style="fill: #c44e52"/>
    </g>
    <g clip-path="url(#pae28c6e06b)">
     <use xlink:href="#C0_0_c032ede2f9" x="79.92" y="148.501385" style="fill: #c44e52"/>
    </g>
    <g clip-path="url(#pae28c6e06b)">
     <use xlink:href="#C0_0_c032ede2f9" x="79.92" y="219.785586" style="fill: #c44e52"/>
    </g>
    <g clip-path="url(#pae28c6e06b)">
     <use xlink:href="#C0_0_c032ede2f9" x="79.92" y="211.020072" style="fill: #c44e52"/>
    </g>
    <g clip-path="url(#pae28c6e06b)">
     <use xlink:href="#C0_0_c032ede2f9" x="79.92" y="168.757619" style="fill: #c44e52"/>
    </g>
    <g clip-path="url(#pae28c6e06b)">
     <use xlink:href="#C0_0_c032ede2f9" x="79.92" y="160.261765" style="fill: #c44e52"/>
    </g>
    <g clip-path="url(#pae28c6e06b)">
     <use xlink:href="#C0_0_c032ede2f9" x="79.92" y="198.18013" style="fill: #c44e52"/>
    </g>
    <g clip-path="url(#pae28c6e06b)">
     <use xlink:href="#C0_0_c032ede2f9" x="77.273727" y="146.874029" style="fill: #c44e52"/>
    </g>
    <g clip-path="url(#pae28c6e06b)">
     <use xlink:href="#C0_0_c032ede2f9" x="79.92" y="183.205433" style="fill: #c44e52"/>
    </g>
    <g clip-path="url(#pae28c6e06b)">
     <use xlink:href="#C0_0_c032ede2f9" x="76.94784" y="159.268015" style="fill: #c44e52"/>
    </g>
   </g>
   <g id="PathCollection_2">
    <defs>
     <path id="C1_0_480fd14ef2" d="M 0 1.5 
C 0.397805 1.5 0.77937 1.341951 1.06066 1.06066 
C 1.341951 0.77937 1.5 0.397805 1.5 -0 
C 1.5 -0.397805 1.341951 -0.77937 1.06066 -1.06066 
C 0.77937 -1.341951 0.397805 -1.5 0 -1.5 
C -0.397805 -1.5 -0.77937 -1.341951 -1.06066 -1.06066 
C -1.341951 -0.77937 -1.5 -0.397805 -1.5 0 
C -1.5 0.397805 -1.341951 0.77937 -1.06066 1.06066 
C -0.77937 1.341951 -0.397805 1.5 0 1.5 
z
"/>
    </defs>
    <g clip-path="url(#pae28c6e06b)">
     <use xlink:href="#C1_0_480fd14ef2" x="121.545302" y="185.404616" style="fill: #4c72b0"/>
    </g>
    <g clip-path="url(#pae28c6e06b)">
     <use xlink:href="#C1_0_480fd14ef2" x="124.56" y="148.052292" style="fill: #4c72b0"/>
    </g>
    <g clip-path="url(#pae28c6e06b)">
     <use xlink:href="#C1_0_480fd14ef2" x="124.56" y="208.640945" style="fill: #4c72b0"/>
    </g>
    <g clip-path="url(#pae28c6e06b)">
     <use xlink:href="#C1_0_480fd14ef2" x="124.56" y="194.33029" style="fill: #4c72b0"/>
    </g>
    <g clip-path="url(#pae28c6e06b)">
     <use xlink:href="#C1_0_480fd14ef2" x="124.56" y="154.487784" style="fill: #4c72b0"/>
    </g>
    <g clip-path="url(#pae28c6e06b)">
     <use xlink:href="#C1_0_480fd14ef2" x="124.56" y="136.043507" style="fill: #4c72b0"/>
    </g>
    <g clip-path="url(#pae28c6e06b)">
     <use xlink:href="#C1_0_480fd14ef2" x="124.56" y="186.274416" style="fill: #4c72b0"/>
    </g>
    <g clip-path="url(#pae28c6e06b)">
     <use xlink:href="#C1_0_480fd14ef2" x="124.56" y="127.195907" style="fill: #4c72b0"/>
    </g>
    <g clip-path="url(#pae28c6e06b)">
     <use xlink:href="#C1_0_480fd14ef2" x="124.56" y="174.124585" style="fill: #4c72b0"/>
    </g>
    <g clip-path="url(#pae28c6e06b)">
     <use xlink:href="#C1_0_480fd14ef2" x="124.56" y="140.01031" style="fill: #4c72b0"/>
    </g>
   </g>
   <g id="PathCollection_3">
    <defs>
     <path id="C2_0_f7fcd2ef36" d="M 0 1.5 
C 0.397805 1.5 0.77937 1.341951 1.06066 1.06066 
C 1.341951 0.77937 1.5 0.397805 1.5 -0 
C 1.5 -0.397805 1.341951 -0.77937 1.06066 -1.06066 
C 0.77937 -1.341951 0.397805 -1.5 0 -1.5 
C -0.397805 -1.5 -0.77937 -1.341951 -1.06066 -1.06066 
C -1.341951 -0.77937 -1.5 -0.397805 -1.5 0 
C -1.5 0.397805 -1.341951 0.77937 -1.06066 1.06066 
C -0.77937 1.341951 -0.397805 1.5 0 1.5 
z
"/>
    </defs>
    <g clip-path="url(#pae28c6e06b)">
     <use xlink:href="#C2_0_f7fcd2ef36" x="169.2" y="225.732368" style="fill: #c44e52"/>
    </g>
    <g clip-path="url(#pae28c6e06b)">
     <use xlink:href="#C2_0_f7fcd2ef36" x="166.409301" y="216.550673" style="fill: #c44e52"/>
    </g>
    <g clip-path="url(#pae28c6e06b)">
     <use xlink:href="#C2_0_f7fcd2ef36" x="169.2" y="190.501887" style="fill: #c44e52"/>
    </g>
    <g clip-path="url(#pae28c6e06b)">
     <use xlink:href="#C2_0_f7fcd2ef36" x="166.697832" y="188.679462" style="fill: #c44e52"/>
    </g>
    <g clip-path="url(#pae28c6e06b)">
     <use xlink:href="#C2_0_f7fcd2ef36" x="169.2" y="204.359788" style="fill: #c44e52"/>
    </g>
    <g clip-path="url(#pae28c6e06b)">
     <use xlink:href="#C2_0_f7fcd2ef36" x="170.857897" y="221.899739" style="fill: #c44e52"/>
    </g>
    <g clip-path="url(#pae28c6e06b)">
     <use xlink:href="#C2_0_f7fcd2ef36" x="167.923217" y="222.989854" style="fill: #c44e52"/>
    </g>
    <g clip-path="url(#pae28c6e06b)">
     <use xlink:href="#C2_0_f7fcd2ef36" x="169.2" y="217.942095" style="fill: #c44e52"/>
    </g>
    <g clip-path="url(#pae28c6e06b)">
     <use xlink:href="#C2_0_f7fcd2ef36" x="169.2" y="234.857515" style="fill: #c44e52"/>
    </g>
    <g clip-path="url(#pae28c6e06b)">
     <use xlink:href="#C2_0_f7fcd2ef36" x="169.2" y="178.993638" style="fill: #c44e52"/>
    </g>
   </g>
   <g id="PathCollection_4">
    <defs>
     <path id="C3_0_48935a4706" d="M 0 1.5 
C 0.397805 1.5 0.77937 1.341951 1.06066 1.06066 
C 1.341951 0.77937 1.5 0.397805 1.5 -0 
C 1.5 -0.397805 1.341951 -0.77937 1.06066 -1.06066 
C 0.77937 -1.341951 0.397805 -1.5 0 -1.5 
C -0.397805 -1.5 -0.77937 -1.341951 -1.06066 -1.06066 
C -1.341951 -0.77937 -1.5 -0.397805 -1.5 0 
C -1.5 0.397805 -1.341951 0.77937 -1.06066 1.06066 
C -0.77937 1.341951 -0.397805 1.5 0 1.5 
z
"/>
    </defs>
    <g clip-path="url(#pae28c6e06b)">
     <use xlink:href="#C3_0_48935a4706" x="212.792531" y="199.807602" style="fill: #4c72b0"/>
    </g>
    <g clip-path="url(#pae28c6e06b)">
     <use xlink:href="#C3_0_48935a4706" x="213.84" y="184.153402" style="fill: #4c72b0"/>
    </g>
    <g clip-path="url(#pae28c6e06b)">
     <use xlink:href="#C3_0_48935a4706" x="213.84" y="152.359274" style="fill: #4c72b0"/>
    </g>
    <g clip-path="url(#pae28c6e06b)">
     <use xlink:href="#C3_0_48935a4706" x="213.84" y="164.126724" style="fill: #4c72b0"/>
    </g>
    <g clip-path="url(#pae28c6e06b)">
     <use xlink:href="#C3_0_48935a4706" x="213.84" y="195.062208" style="fill: #4c72b0"/>
    </g>
    <g clip-path="url(#pae28c6e06b)">
     <use xlink:href="#C3_0_48935a4706" x="215.919898" y="199.44862" style="fill: #4c72b0"/>
    </g>
    <g clip-path="url(#pae28c6e06b)">
     <use xlink:href="#C3_0_48935a4706" x="213.84" y="202.636881" style="fill: #4c72b0"/>
    </g>
    <g clip-path="url(#pae28c6e06b)">
     <use xlink:href="#C3_0_48935a4706" x="209.800155" y="198.870494" style="fill: #4c72b0"/>
    </g>
    <g clip-path="url(#pae28c6e06b)">
     <use xlink:href="#C3_0_48935a4706" x="213.84" y="226.656265" style="fill: #4c72b0"/>
    </g>
    <g clip-path="url(#pae28c6e06b)">
     <use xlink:href="#C3_0_48935a4706" x="213.84" y="158.628658" style="fill: #4c72b0"/>
    </g>
   </g>
   <g id="PathCollection_5">
    <defs>
     <path id="C4_0_2431fe8213" d="M 0 1.5 
C 0.397805 1.5 0.77937 1.341951 1.06066 1.06066 
C 1.341951 0.77937 1.5 0.397805 1.5 -0 
C 1.5 -0.397805 1.341951 -0.77937 1.06066 -1.06066 
C 0.77937 -1.341951 0.397805 -1.5 0 -1.5 
C -0.397805 -1.5 -0.77937 -1.341951 -1.06066 -1.06066 
C -1.341951 -0.77937 -1.5 -0.397805 -1.5 0 
C -1.5 0.397805 -1.341951 0.77937 -1.06066 1.06066 
C -0.77937 1.341951 -0.397805 1.5 0 1.5 
z
"/>
    </defs>
    <g clip-path="url(#pae28c6e06b)">
     <use xlink:href="#C4_0_2431fe8213" x="258.48" y="98.410798" style="fill: #c44e52"/>
    </g>
    <g clip-path="url(#pae28c6e06b)">
     <use xlink:href="#C4_0_2431fe8213" x="258.48" y="130.987728" style="fill: #c44e52"/>
    </g>
    <g clip-path="url(#pae28c6e06b)">
     <use xlink:href="#C4_0_2431fe8213" x="256.174868" y="116.00648" style="fill: #c44e52"/>
    </g>
    <g clip-path="url(#pae28c6e06b)">
     <use xlink:href="#C4_0_2431fe8213" x="260.509299" y="108.469786" style="fill: #c44e52"/>
    </g>
    <g clip-path="url(#pae28c6e06b)">
     <use xlink:href="#C4_0_2431fe8213" x="258.713585" y="114.230495" style="fill: #c44e52"/>
    </g>
    <g clip-path="url(#pae28c6e06b)">
     <use xlink:href="#C4_0_2431fe8213" x="255.627867" y="109.490874" style="fill: #c44e52"/>
    </g>
    <g clip-path="url(#pae28c6e06b)">
     <use xlink:href="#C4_0_2431fe8213" x="261.735312" y="113.383109" style="fill: #c44e52"/>
    </g>
    <g clip-path="url(#pae28c6e06b)">
     <use xlink:href="#C4_0_2431fe8213" x="258.48" y="110.764302" style="fill: #c44e52"/>
    </g>
    <g clip-path="url(#pae28c6e06b)">
     <use xlink:href="#C4_0_2431fe8213" x="258.48" y="118.051078" style="fill: #c44e52"/>
    </g>
    <g clip-path="url(#pae28c6e06b)">
     <use xlink:href="#C4_0_2431fe8213" x="258.48" y="123.038658" style="fill: #c44e52"/>
    </g>
   </g>
   <g id="PathCollection_6">
    <defs>
     <path id="C5_0_62df9e72da" d="M 0 1.5 
C 0.397805 1.5 0.77937 1.341951 1.06066 1.06066 
C 1.341951 0.77937 1.5 0.397805 1.5 -0 
C 1.5 -0.397805 1.341951 -0.77937 1.06066 -1.06066 
C 0.77937 -1.341951 0.397805 -1.5 0 -1.5 
C -0.397805 -1.5 -0.77937 -1.341951 -1.06066 -1.06066 
C -1.341951 -0.77937 -1.5 -0.397805 -1.5 0 
C -1.5 0.397805 -1.341951 0.77937 -1.06066 1.06066 
C -0.77937 1.341951 -0.397805 1.5 0 1.5 
z
"/>
    </defs>
    <g clip-path="url(#pae28c6e06b)">
     <use xlink:href="#C5_0_62df9e72da" x="300.600736" y="111.850206" style="fill: #4c72b0"/>
    </g>
    <g clip-path="url(#pae28c6e06b)">
     <use xlink:href="#C5_0_62df9e72da" x="306.084383" y="135.148465" style="fill: #4c72b0"/>
    </g>
    <g clip-path="url(#pae28c6e06b)">
     <use xlink:href="#C5_0_62df9e72da" x="303.12" y="121.738438" style="fill: #4c72b0"/>
    </g>
    <g clip-path="url(#pae28c6e06b)">
     <use xlink:href="#C5_0_62df9e72da" x="300.314753" y="117.250444" style="fill: #4c72b0"/>
    </g>
    <g clip-path="url(#pae28c6e06b)">
     <use xlink:href="#C5_0_62df9e72da" x="300.624722" y="126.210623" style="fill: #4c72b0"/>
    </g>
    <g clip-path="url(#pae28c6e06b)">
     <use xlink:href="#C5_0_62df9e72da" x="303.12" y="128.041596" style="fill: #4c72b0"/>
    </g>
    <g clip-path="url(#pae28c6e06b)">
     <use xlink:href="#C5_0_62df9e72da" x="303.12" y="113.65114" style="fill: #4c72b0"/>
    </g>
    <g clip-path="url(#pae28c6e06b)">
     <use xlink:href="#C5_0_62df9e72da" x="303.12" y="118.615073" style="fill: #4c72b0"/>
    </g>
    <g clip-path="url(#pae28c6e06b)">
     <use xlink:href="#C5_0_62df9e72da" x="303.12" y="136.163067" style="fill: #4c72b0"/>
    </g>
    <g clip-path="url(#pae28c6e06b)">
     <use xlink:href="#C5_0_62df9e72da" x="300.06647" y="135.426306" style="fill: #4c72b0"/>
    </g>
   </g>
   <g id="PathCollection_7">
    <defs>
     <path id="C6_0_837debe163" d="M 0 1.5 
C 0.397805 1.5 0.77937 1.341951 1.06066 1.06066 
C 1.341951 0.77937 1.5 0.397805 1.5 -0 
C 1.5 -0.397805 1.341951 -0.77937 1.06066 -1.06066 
C 0.77937 -1.341951 0.397805 -1.5 0 -1.5 
C -0.397805 -1.5 -0.77937 -1.341951 -1.06066 -1.06066 
C -1.341951 -0.77937 -1.5 -0.397805 -1.5 0 
C -1.5 0.397805 -1.341951 0.77937 -1.06066 1.06066 
C -0.77937 1.341951 -0.397805 1.5 0 1.5 
z
"/>
    </defs>
    <g clip-path="url(#pae28c6e06b)">
     <use xlink:href="#C6_0_837debe163" x="347.76" y="229.530513" style="fill: #c44e52"/>
    </g>
    <g clip-path="url(#pae28c6e06b)">
     <use xlink:href="#C6_0_837debe163" x="347.76" y="244.885656" style="fill: #c44e52"/>
    </g>
    <g clip-path="url(#pae28c6e06b)">
     <use xlink:href="#C6_0_837debe163" x="344.654961" y="202.136431" style="fill: #c44e52"/>
    </g>
    <g clip-path="url(#pae28c6e06b)">
     <use xlink:href="#C6_0_837debe163" x="347.76" y="249.2556" style="fill: #c44e52"/>
    </g>
    <g clip-path="url(#pae28c6e06b)">
     <use xlink:href="#C6_0_837debe163" x="347.76" y="164.122009" style="fill: #c44e52"/>
    </g>
    <g clip-path="url(#pae28c6e06b)">
     <use xlink:href="#C6_0_837debe163" x="347.76" y="202.641491" style="fill: #c44e52"/>
    </g>
    <g clip-path="url(#pae28c6e06b)">
     <use xlink:href="#C6_0_837debe163" x="347.76" y="199.382672" style="fill: #c44e52"/>
    </g>
    <g clip-path="url(#pae28c6e06b)">
     <use xlink:href="#C6_0_837debe163" x="347.76" y="254.673651" style="fill: #c44e52"/>
    </g>
    <g clip-path="url(#pae28c6e06b)">
     <use xlink:href="#C6_0_837debe163" x="347.76" y="193.512347" style="fill: #c44e52"/>
    </g>
    <g clip-path="url(#pae28c6e06b)">
     <use xlink:href="#C6_0_837debe163" x="345.063852" y="191.961022" style="fill: #c44e52"/>
    </g>
   </g>
   <g id="PathCollection_8">
    <defs>
     <path id="C7_0_fb66c0c2ee" d="M 0 1.5 
C 0.397805 1.5 0.77937 1.341951 1.06066 1.06066 
C 1.341951 0.77937 1.5 0.397805 1.5 -0 
C 1.5 -0.397805 1.341951 -0.77937 1.06066 -1.06066 
C 0.77937 -1.341951 0.397805 -1.5 0 -1.5 
C -0.397805 -1.5 -0.77937 -1.341951 -1.06066 -1.06066 
C -1.341951 -0.77937 -1.5 -0.397805 -1.5 0 
C -1.5 0.397805 -1.341951 0.77937 -1.06066 1.06066 
C -0.77937 1.341951 -0.397805 1.5 0 1.5 
z
"/>
    </defs>
    <g clip-path="url(#pae28c6e06b)">
     <use xlink:href="#C7_0_fb66c0c2ee" x="392.4" y="233.279663" style="fill: #4c72b0"/>
    </g>
    <g clip-path="url(#pae28c6e06b)">
     <use xlink:href="#C7_0_fb66c0c2ee" x="389.971854" y="248.241509" style="fill: #4c72b0"/>
    </g>
    <g clip-path="url(#pae28c6e06b)">
     <use xlink:href="#C7_0_fb66c0c2ee" x="392.4" y="211.232004" style="fill: #4c72b0"/>
    </g>
    <g clip-path="url(#pae28c6e06b)">
     <use xlink:href="#C7_0_fb66c0c2ee" x="392.4" y="244.899369" style="fill: #4c72b0"/>
    </g>
    <g clip-path="url(#pae28c6e06b)">
     <use xlink:href="#C7_0_fb66c0c2ee" x="392.4" y="181.575524" style="fill: #4c72b0"/>
    </g>
    <g clip-path="url(#pae28c6e06b)">
     <use xlink:href="#C7_0_fb66c0c2ee" x="392.4" y="195.91091" style="fill: #4c72b0"/>
    </g>
    <g clip-path="url(#pae28c6e06b)">
     <use xlink:href="#C7_0_fb66c0c2ee" x="392.4" y="214.994318" style="fill: #4c72b0"/>
    </g>
    <g clip-path="url(#pae28c6e06b)">
     <use xlink:href="#C7_0_fb66c0c2ee" x="392.4" y="250.152595" style="fill: #4c72b0"/>
    </g>
    <g clip-path="url(#pae28c6e06b)">
     <use xlink:href="#C7_0_fb66c0c2ee" x="392.4" y="208.115124" style="fill: #4c72b0"/>
    </g>
    <g clip-path="url(#pae28c6e06b)">
     <use xlink:href="#C7_0_fb66c0c2ee" x="392.4" y="201.289151" style="fill: #4c72b0"/>
    </g>
   </g>
   <g id="PathCollection_9">
    <defs>
     <path id="mf2e45cba5f" d="M 22.36068 0 
L -22.36068 -0 
" style="stroke: #1a1a1a; stroke-width: 1.5"/>
    </defs>
    <g clip-path="url(#pae28c6e06b)">
     <use xlink:href="#mf2e45cba5f" x="79.92" y="178.58004" style="fill: #1a1a1a; stroke: #1a1a1a; stroke-width: 1.5"/>
     <use xlink:href="#mf2e45cba5f" x="124.56" y="165.456465" style="fill: #1a1a1a; stroke: #1a1a1a; stroke-width: 1.5"/>
     <use xlink:href="#mf2e45cba5f" x="169.2" y="210.250702" style="fill: #1a1a1a; stroke: #1a1a1a; stroke-width: 1.5"/>
     <use xlink:href="#mf2e45cba5f" x="213.84" y="188.175013" style="fill: #1a1a1a; stroke: #1a1a1a; stroke-width: 1.5"/>
     <use xlink:href="#mf2e45cba5f" x="258.48" y="114.283331" style="fill: #1a1a1a; stroke: #1a1a1a; stroke-width: 1.5"/>
     <use xlink:href="#mf2e45cba5f" x="303.12" y="124.409536" style="fill: #1a1a1a; stroke: #1a1a1a; stroke-width: 1.5"/>
     <use xlink:href="#mf2e45cba5f" x="347.76" y="213.210139" style="fill: #1a1a1a; stroke: #1a1a1a; stroke-width: 1.5"/>
     <use xlink:href="#mf2e45cba5f" x="392.4" y="218.969017" style="fill: #1a1a1a; stroke: #1a1a1a; stroke-width: 1.5"/>
    </g>
   </g>
  </g>
 </g>
 <defs>
  <clipPath id="pae28c6e06b">
   <rect x="57.6" y="41.472" width="357.12" height="266.112"/>
  </clipPath>
 </defs>
</svg>
