<?xml version="1.0" encoding="utf-8" standalone="no"?>
<!DOCTYPE svg PUBLIC "-//W3C//DTD SVG 1.1//EN"
  "http://www.w3.org/Graphics/SVG/1.1/DTD/svg11.dtd">
<svg xmlns:xlink="http://www.w3.org/1999/xlink" width="1152pt" height="360pt" viewBox="0 0 1152 360" xmlns="http://www.w3.org/2000/svg" version="1.1">
 <metadata>
  <rdf:RDF xmlns:dc="http://purl.org/dc/elements/1.1/" xmlns:cc="http://creativecommons.org/ns#" xmlns:rdf="http://www.w3.org/1999/02/22-rdf-syntax-ns#">
   <cc:Work>
    <dc:type rdf:resource="http://purl.org/dc/dcmitype/StillImage"/>
    <dc:date>2024-07-19T02:10:05.903634</dc:date>
    <dc:format>image/svg+xml</dc:format>
    <dc:creator>
     <cc:Agent>
      <dc:title>Matplotlib v3.8.4, https://matplotlib.org/</dc:title>
     </cc:Agent>
    </dc:creator>
   </cc:Work>
  </rdf:RDF>
 </metadata>
 <defs>
  <style type="text/css">*{stroke-linejoin: round; stroke-linecap: butt}</style>
 </defs>
 <g id="figure_1">
  <g id="patch_1">
   <path d="M 0 360 
L 1152 360 
L 1152 0 
L 0 0 
z
" style="fill: #ffffff"/>
  </g>
  <g id="axes_1">
   <g id="patch_2">
    <path d="M 144 320.4 
L 1036.8 320.4 
L 1036.8 43.2 
L 144 43.2 
z
" style="fill: #ffffff"/>
   </g>
   <g id="matplotlib.axis_1">
    <g id="xtick_1">
     <g id="text_1">
      <!-- Elasticnet -->
      <g style="fill: #262626" transform="translate(169.3275 339.018125) scale(0.12 -0.12)">
       <defs>
        <path id="DejaVuSerif-45" d="M 353 0 
L 353 331 
L 947 331 
L 947 4331 
L 353 4331 
L 353 4666 
L 4109 4666 
L 4109 3628 
L 3725 3628 
L 3725 4281 
L 1581 4281 
L 1581 2719 
L 3109 2719 
L 3109 3303 
L 3494 3303 
L 3494 1753 
L 3109 1753 
L 3109 2338 
L 1581 2338 
L 1581 384 
L 3775 384 
L 3775 1038 
L 4159 1038 
L 4159 0 
L 353 0 
z
" transform="scale(0.015625)"/>
        <path id="DejaVuSerif-6c" d="M 1313 331 
L 1856 331 
L 1856 0 
L 184 0 
L 184 331 
L 738 331 
L 738 4531 
L 184 4531 
L 184 4863 
L 1313 4863 
L 1313 331 
z
" transform="scale(0.015625)"/>
        <path id="DejaVuSerif-61" d="M 2547 1044 
L 2547 1747 
L 1806 1747 
Q 1378 1747 1168 1562 
Q 959 1378 959 997 
Q 959 650 1171 447 
Q 1384 244 1747 244 
Q 2106 244 2326 466 
Q 2547 688 2547 1044 
z
M 3122 2075 
L 3122 331 
L 3634 331 
L 3634 0 
L 2547 0 
L 2547 359 
Q 2356 128 2106 18 
Q 1856 -91 1522 -91 
Q 969 -91 644 203 
Q 319 497 319 997 
Q 319 1513 691 1797 
Q 1063 2081 1741 2081 
L 2547 2081 
L 2547 2309 
Q 2547 2688 2317 2895 
Q 2088 3103 1672 3103 
Q 1328 3103 1125 2947 
Q 922 2791 872 2484 
L 575 2484 
L 575 3156 
Q 875 3284 1158 3348 
Q 1441 3413 1709 3413 
Q 2400 3413 2761 3070 
Q 3122 2728 3122 2075 
z
" transform="scale(0.015625)"/>
        <path id="DejaVuSerif-73" d="M 359 184 
L 359 959 
L 691 959 
Q 703 588 923 403 
Q 1144 219 1575 219 
Q 1963 219 2166 364 
Q 2369 509 2369 788 
Q 2369 1006 2220 1140 
Q 2072 1275 1594 1428 
L 1178 1569 
Q 750 1706 558 1912 
Q 366 2119 366 2438 
Q 366 2894 700 3153 
Q 1034 3413 1625 3413 
Q 1888 3413 2178 3344 
Q 2469 3275 2778 3144 
L 2778 2419 
L 2447 2419 
Q 2434 2741 2221 2922 
Q 2009 3103 1644 3103 
Q 1281 3103 1095 2975 
Q 909 2847 909 2591 
Q 909 2381 1050 2254 
Q 1191 2128 1613 1997 
L 2069 1856 
Q 2541 1709 2748 1489 
Q 2956 1269 2956 922 
Q 2956 450 2595 179 
Q 2234 -91 1600 -91 
Q 1278 -91 972 -22 
Q 666 47 359 184 
z
" transform="scale(0.015625)"/>
        <path id="DejaVuSerif-74" d="M 691 2988 
L 184 2988 
L 184 3322 
L 691 3322 
L 691 4353 
L 1269 4353 
L 1269 3322 
L 2350 3322 
L 2350 2988 
L 1269 2988 
L 1269 878 
Q 1269 456 1350 337 
Q 1431 219 1650 219 
Q 1875 219 1978 351 
Q 2081 484 2088 781 
L 2522 781 
Q 2497 328 2275 118 
Q 2053 -91 1600 -91 
Q 1103 -91 897 129 
Q 691 350 691 878 
L 691 2988 
z
" transform="scale(0.015625)"/>
        <path id="DejaVuSerif-69" d="M 622 4353 
Q 622 4497 726 4603 
Q 831 4709 978 4709 
Q 1122 4709 1226 4603 
Q 1331 4497 1331 4353 
Q 1331 4206 1228 4103 
Q 1125 4000 978 4000 
Q 831 4000 726 4103 
Q 622 4206 622 4353 
z
M 1356 331 
L 1900 331 
L 1900 0 
L 231 0 
L 231 331 
L 781 331 
L 781 2988 
L 231 2988 
L 231 3322 
L 1356 3322 
L 1356 331 
z
" transform="scale(0.015625)"/>
        <path id="DejaVuSerif-63" d="M 3291 997 
Q 3169 466 2822 187 
Q 2475 -91 1925 -91 
Q 1200 -91 759 389 
Q 319 869 319 1663 
Q 319 2459 759 2936 
Q 1200 3413 1925 3413 
Q 2241 3413 2553 3339 
Q 2866 3266 3181 3116 
L 3181 2266 
L 2847 2266 
Q 2781 2703 2561 2903 
Q 2341 3103 1931 3103 
Q 1466 3103 1228 2742 
Q 991 2381 991 1663 
Q 991 944 1227 581 
Q 1463 219 1931 219 
Q 2303 219 2525 412 
Q 2747 606 2828 997 
L 3291 997 
z
" transform="scale(0.015625)"/>
        <path id="DejaVuSerif-6e" d="M 263 0 
L 263 331 
L 781 331 
L 781 2988 
L 231 2988 
L 231 3322 
L 1356 3322 
L 1356 2731 
Q 1516 3069 1770 3241 
Q 2025 3413 2363 3413 
Q 2913 3413 3172 3097 
Q 3431 2781 3431 2113 
L 3431 331 
L 3944 331 
L 3944 0 
L 2356 0 
L 2356 331 
L 2853 331 
L 2853 1931 
Q 2853 2541 2703 2767 
Q 2553 2994 2175 2994 
Q 1775 2994 1565 2701 
Q 1356 2409 1356 1850 
L 1356 331 
L 1856 331 
L 1856 0 
L 263 0 
z
" transform="scale(0.015625)"/>
        <path id="DejaVuSerif-65" d="M 3469 1600 
L 991 1600 
L 991 1575 
Q 991 903 1244 561 
Q 1497 219 1991 219 
Q 2369 219 2611 417 
Q 2853 616 2950 1006 
L 3413 1006 
Q 3275 459 2904 184 
Q 2534 -91 1931 -91 
Q 1203 -91 761 389 
Q 319 869 319 1663 
Q 319 2450 753 2931 
Q 1188 3413 1894 3413 
Q 2647 3413 3050 2948 
Q 3453 2484 3469 1600 
z
M 2791 1931 
Q 2772 2513 2545 2808 
Q 2319 3103 1894 3103 
Q 1497 3103 1269 2806 
Q 1041 2509 991 1931 
L 2791 1931 
z
" transform="scale(0.015625)"/>
       </defs>
       <use xlink:href="#DejaVuSerif-45"/>
       <use xlink:href="#DejaVuSerif-6c" x="72.998047"/>
       <use xlink:href="#DejaVuSerif-61" x="104.980469"/>
       <use xlink:href="#DejaVuSerif-73" x="164.599609"/>
       <use xlink:href="#DejaVuSerif-74" x="215.917969"/>
       <use xlink:href="#DejaVuSerif-69" x="256.103516"/>
       <use xlink:href="#DejaVuSerif-63" x="288.085938"/>
       <use xlink:href="#DejaVuSerif-6e" x="344.091797"/>
       <use xlink:href="#DejaVuSerif-65" x="408.496094"/>
       <use xlink:href="#DejaVuSerif-74" x="467.675781"/>
      </g>
      <!-- herb -->
      <g style="fill: #262626" transform="translate(185.675625 352.4555) scale(0.12 -0.12)">
       <defs>
        <path id="DejaVuSerif-68" d="M 263 0 
L 263 331 
L 781 331 
L 781 4531 
L 231 4531 
L 231 4863 
L 1356 4863 
L 1356 2731 
Q 1516 3069 1770 3241 
Q 2025 3413 2363 3413 
Q 2913 3413 3172 3097 
Q 3431 2781 3431 2113 
L 3431 331 
L 3944 331 
L 3944 0 
L 2356 0 
L 2356 331 
L 2853 331 
L 2853 1931 
Q 2853 2541 2704 2764 
Q 2556 2988 2175 2988 
Q 1775 2988 1565 2697 
Q 1356 2406 1356 1850 
L 1356 331 
L 1856 331 
L 1856 0 
L 263 0 
z
" transform="scale(0.015625)"/>
        <path id="DejaVuSerif-72" d="M 3059 3328 
L 3059 2497 
L 2728 2497 
Q 2713 2744 2591 2866 
Q 2469 2988 2234 2988 
Q 1809 2988 1582 2694 
Q 1356 2400 1356 1850 
L 1356 331 
L 2022 331 
L 2022 0 
L 263 0 
L 263 331 
L 781 331 
L 781 2994 
L 231 2994 
L 231 3322 
L 1356 3322 
L 1356 2731 
Q 1525 3078 1790 3245 
Q 2056 3413 2438 3413 
Q 2578 3413 2733 3391 
Q 2888 3369 3059 3328 
z
" transform="scale(0.015625)"/>
        <path id="DejaVuSerif-62" d="M 738 331 
L 738 4531 
L 184 4531 
L 184 4863 
L 1313 4863 
L 1313 2803 
Q 1481 3116 1742 3264 
Q 2003 3413 2388 3413 
Q 3000 3413 3387 2928 
Q 3775 2444 3775 1663 
Q 3775 881 3387 395 
Q 3000 -91 2388 -91 
Q 2003 -91 1742 57 
Q 1481 206 1313 519 
L 1313 0 
L 184 0 
L 184 331 
L 738 331 
z
M 1313 1497 
Q 1313 897 1542 583 
Q 1772 269 2209 269 
Q 2650 269 2876 622 
Q 3103 975 3103 1663 
Q 3103 2353 2876 2703 
Q 2650 3053 2209 3053 
Q 1772 3053 1542 2737 
Q 1313 2422 1313 1825 
L 1313 1497 
z
" transform="scale(0.015625)"/>
       </defs>
       <use xlink:href="#DejaVuSerif-68"/>
       <use xlink:href="#DejaVuSerif-65" x="64.404297"/>
       <use xlink:href="#DejaVuSerif-72" x="123.583984"/>
       <use xlink:href="#DejaVuSerif-62" x="171.386719"/>
      </g>
     </g>
    </g>
    <g id="xtick_2">
     <g id="text_2">
      <!-- Random Forest -->
      <g style="fill: #262626" transform="translate(264.900937 339.018125) scale(0.12 -0.12)">
       <defs>
        <path id="DejaVuSerif-52" d="M 3066 2316 
Q 3284 2256 3442 2114 
Q 3600 1972 3725 1716 
L 4403 331 
L 4972 331 
L 4972 0 
L 3872 0 
L 3144 1484 
Q 2934 1916 2759 2042 
Q 2584 2169 2278 2169 
L 1581 2169 
L 1581 331 
L 2241 331 
L 2241 0 
L 353 0 
L 353 331 
L 947 331 
L 947 4331 
L 353 4331 
L 353 4666 
L 2719 4666 
Q 3400 4666 3770 4341 
Q 4141 4016 4141 3419 
Q 4141 2938 3870 2661 
Q 3600 2384 3066 2316 
z
M 1581 2503 
L 2503 2503 
Q 2975 2503 3200 2726 
Q 3425 2950 3425 3419 
Q 3425 3888 3200 4109 
Q 2975 4331 2503 4331 
L 1581 4331 
L 1581 2503 
z
" transform="scale(0.015625)"/>
        <path id="DejaVuSerif-64" d="M 3359 331 
L 3909 331 
L 3909 0 
L 2784 0 
L 2784 519 
Q 2616 206 2355 57 
Q 2094 -91 1709 -91 
Q 1097 -91 708 395 
Q 319 881 319 1663 
Q 319 2444 706 2928 
Q 1094 3413 1709 3413 
Q 2094 3413 2355 3264 
Q 2616 3116 2784 2803 
L 2784 4531 
L 2241 4531 
L 2241 4863 
L 3359 4863 
L 3359 331 
z
M 2784 1497 
L 2784 1825 
Q 2784 2422 2554 2737 
Q 2325 3053 1888 3053 
Q 1444 3053 1217 2703 
Q 991 2353 991 1663 
Q 991 975 1217 622 
Q 1444 269 1888 269 
Q 2325 269 2554 583 
Q 2784 897 2784 1497 
z
" transform="scale(0.015625)"/>
        <path id="DejaVuSerif-6f" d="M 1925 219 
Q 2388 219 2623 584 
Q 2859 950 2859 1663 
Q 2859 2375 2623 2739 
Q 2388 3103 1925 3103 
Q 1463 3103 1227 2739 
Q 991 2375 991 1663 
Q 991 950 1228 584 
Q 1466 219 1925 219 
z
M 1925 -91 
Q 1200 -91 759 389 
Q 319 869 319 1663 
Q 319 2456 758 2934 
Q 1197 3413 1925 3413 
Q 2653 3413 3092 2934 
Q 3531 2456 3531 1663 
Q 3531 869 3092 389 
Q 2653 -91 1925 -91 
z
" transform="scale(0.015625)"/>
        <path id="DejaVuSerif-6d" d="M 3316 2675 
Q 3481 3041 3739 3227 
Q 3997 3413 4341 3413 
Q 4863 3413 5119 3089 
Q 5375 2766 5375 2113 
L 5375 331 
L 5894 331 
L 5894 0 
L 4300 0 
L 4300 331 
L 4800 331 
L 4800 2047 
Q 4800 2556 4650 2772 
Q 4500 2988 4153 2988 
Q 3769 2988 3567 2697 
Q 3366 2406 3366 1850 
L 3366 331 
L 3866 331 
L 3866 0 
L 2291 0 
L 2291 331 
L 2791 331 
L 2791 2069 
Q 2791 2566 2641 2777 
Q 2491 2988 2144 2988 
Q 1759 2988 1557 2697 
Q 1356 2406 1356 1850 
L 1356 331 
L 1856 331 
L 1856 0 
L 263 0 
L 263 331 
L 781 331 
L 781 2994 
L 231 2994 
L 231 3322 
L 1356 3322 
L 1356 2731 
Q 1516 3063 1762 3238 
Q 2009 3413 2322 3413 
Q 2709 3413 2968 3220 
Q 3228 3028 3316 2675 
z
" transform="scale(0.015625)"/>
        <path id="DejaVuSerif-20" transform="scale(0.015625)"/>
        <path id="DejaVuSerif-46" d="M 353 0 
L 353 331 
L 947 331 
L 947 4331 
L 353 4331 
L 353 4666 
L 4172 4666 
L 4172 3628 
L 3788 3628 
L 3788 4281 
L 1581 4281 
L 1581 2719 
L 3175 2719 
L 3175 3303 
L 3559 3303 
L 3559 1753 
L 3175 1753 
L 3175 2338 
L 1581 2338 
L 1581 331 
L 2328 331 
L 2328 0 
L 353 0 
z
" transform="scale(0.015625)"/>
       </defs>
       <use xlink:href="#DejaVuSerif-52"/>
       <use xlink:href="#DejaVuSerif-61" x="77.542969"/>
       <use xlink:href="#DejaVuSerif-6e" x="137.162109"/>
       <use xlink:href="#DejaVuSerif-64" x="201.566406"/>
       <use xlink:href="#DejaVuSerif-6f" x="265.580078"/>
       <use xlink:href="#DejaVuSerif-6d" x="325.785156"/>
       <use xlink:href="#DejaVuSerif-20" x="420.609375"/>
       <use xlink:href="#DejaVuSerif-46" x="452.396484"/>
       <use xlink:href="#DejaVuSerif-6f" x="516.28125"/>
       <use xlink:href="#DejaVuSerif-72" x="576.486328"/>
       <use xlink:href="#DejaVuSerif-65" x="624.289062"/>
       <use xlink:href="#DejaVuSerif-73" x="683.46875"/>
       <use xlink:href="#DejaVuSerif-74" x="734.787109"/>
      </g>
      <!-- herb -->
      <g style="fill: #262626" transform="translate(297.275625 352.4555) scale(0.12 -0.12)">
       <use xlink:href="#DejaVuSerif-68"/>
       <use xlink:href="#DejaVuSerif-65" x="64.404297"/>
       <use xlink:href="#DejaVuSerif-72" x="123.583984"/>
       <use xlink:href="#DejaVuSerif-62" x="171.386719"/>
      </g>
     </g>
    </g>
    <g id="xtick_3">
     <g id="text_3">
      <!-- Elasticnet -->
      <g style="fill: #262626" transform="translate(392.5275 339.018125) scale(0.12 -0.12)">
       <use xlink:href="#DejaVuSerif-45"/>
       <use xlink:href="#DejaVuSerif-6c" x="72.998047"/>
       <use xlink:href="#DejaVuSerif-61" x="104.980469"/>
       <use xlink:href="#DejaVuSerif-73" x="164.599609"/>
       <use xlink:href="#DejaVuSerif-74" x="215.917969"/>
       <use xlink:href="#DejaVuSerif-69" x="256.103516"/>
       <use xlink:href="#DejaVuSerif-63" x="288.085938"/>
       <use xlink:href="#DejaVuSerif-6e" x="344.091797"/>
       <use xlink:href="#DejaVuSerif-65" x="408.496094"/>
       <use xlink:href="#DejaVuSerif-74" x="467.675781"/>
      </g>
      <!-- moly -->
      <g style="fill: #262626" transform="translate(408.389063 352.4555) scale(0.12 -0.12)">
       <defs>
        <path id="DejaVuSerif-79" d="M 1381 -609 
L 1600 -56 
L 359 2988 
L -19 2988 
L -19 3322 
L 1509 3322 
L 1509 2988 
L 978 2988 
L 1913 703 
L 2847 2988 
L 2350 2988 
L 2350 3322 
L 3597 3322 
L 3597 2988 
L 3225 2988 
L 1703 -750 
Q 1547 -1138 1356 -1280 
Q 1166 -1422 819 -1422 
Q 672 -1422 517 -1397 
Q 363 -1372 206 -1325 
L 206 -691 
L 500 -691 
Q 519 -903 608 -995 
Q 697 -1088 884 -1088 
Q 1056 -1088 1161 -992 
Q 1266 -897 1381 -609 
z
" transform="scale(0.015625)"/>
       </defs>
       <use xlink:href="#DejaVuSerif-6d"/>
       <use xlink:href="#DejaVuSerif-6f" x="94.824219"/>
       <use xlink:href="#DejaVuSerif-6c" x="155.029297"/>
       <use xlink:href="#DejaVuSerif-79" x="187.011719"/>
      </g>
     </g>
    </g>
    <g id="xtick_4">
     <g id="text_4">
      <!-- Random Forest -->
      <g style="fill: #262626" transform="translate(488.100937 339.018125) scale(0.12 -0.12)">
       <use xlink:href="#DejaVuSerif-52"/>
       <use xlink:href="#DejaVuSerif-61" x="77.542969"/>
       <use xlink:href="#DejaVuSerif-6e" x="137.162109"/>
       <use xlink:href="#DejaVuSerif-64" x="201.566406"/>
       <use xlink:href="#DejaVuSerif-6f" x="265.580078"/>
       <use xlink:href="#DejaVuSerif-6d" x="325.785156"/>
       <use xlink:href="#DejaVuSerif-20" x="420.609375"/>
       <use xlink:href="#DejaVuSerif-46" x="452.396484"/>
       <use xlink:href="#DejaVuSerif-6f" x="516.28125"/>
       <use xlink:href="#DejaVuSerif-72" x="576.486328"/>
       <use xlink:href="#DejaVuSerif-65" x="624.289062"/>
       <use xlink:href="#DejaVuSerif-73" x="683.46875"/>
       <use xlink:href="#DejaVuSerif-74" x="734.787109"/>
      </g>
      <!-- moly -->
      <g style="fill: #262626" transform="translate(519.989062 352.4555) scale(0.12 -0.12)">
       <use xlink:href="#DejaVuSerif-6d"/>
       <use xlink:href="#DejaVuSerif-6f" x="94.824219"/>
       <use xlink:href="#DejaVuSerif-6c" x="155.029297"/>
       <use xlink:href="#DejaVuSerif-79" x="187.011719"/>
      </g>
     </g>
    </g>
    <g id="xtick_5">
     <g id="text_5">
      <!-- Ridge -->
      <g style="fill: #262626" transform="translate(628.53 339.018125) scale(0.12 -0.12)">
       <defs>
        <path id="DejaVuSerif-67" d="M 3359 2988 
L 3359 72 
Q 3359 -644 2965 -1033 
Q 2572 -1422 1844 -1422 
Q 1516 -1422 1216 -1362 
Q 916 -1303 641 -1184 
L 641 -488 
L 941 -488 
Q 997 -813 1206 -963 
Q 1416 -1113 1806 -1113 
Q 2313 -1113 2548 -827 
Q 2784 -541 2784 72 
L 2784 519 
Q 2616 206 2355 57 
Q 2094 -91 1709 -91 
Q 1097 -91 708 395 
Q 319 881 319 1663 
Q 319 2444 706 2928 
Q 1094 3413 1709 3413 
Q 2094 3413 2355 3264 
Q 2616 3116 2784 2803 
L 2784 3322 
L 3909 3322 
L 3909 2988 
L 3359 2988 
z
M 2784 1825 
Q 2784 2422 2554 2737 
Q 2325 3053 1888 3053 
Q 1444 3053 1217 2703 
Q 991 2353 991 1663 
Q 991 975 1217 622 
Q 1444 269 1888 269 
Q 2325 269 2554 583 
Q 2784 897 2784 1497 
L 2784 1825 
z
" transform="scale(0.015625)"/>
       </defs>
       <use xlink:href="#DejaVuSerif-52"/>
       <use xlink:href="#DejaVuSerif-69" x="75.292969"/>
       <use xlink:href="#DejaVuSerif-64" x="107.275391"/>
       <use xlink:href="#DejaVuSerif-67" x="171.289062"/>
       <use xlink:href="#DejaVuSerif-65" x="235.302734"/>
      </g>
      <!-- Regression -->
      <g style="fill: #262626" transform="translate(612.317813 352.626125) scale(0.12 -0.12)">
       <use xlink:href="#DejaVuSerif-52"/>
       <use xlink:href="#DejaVuSerif-65" x="75.292969"/>
       <use xlink:href="#DejaVuSerif-67" x="134.472656"/>
       <use xlink:href="#DejaVuSerif-72" x="198.486328"/>
       <use xlink:href="#DejaVuSerif-65" x="246.289062"/>
       <use xlink:href="#DejaVuSerif-73" x="305.46875"/>
       <use xlink:href="#DejaVuSerif-73" x="356.787109"/>
       <use xlink:href="#DejaVuSerif-69" x="408.105469"/>
       <use xlink:href="#DejaVuSerif-6f" x="440.087891"/>
       <use xlink:href="#DejaVuSerif-6e" x="500.292969"/>
      </g>
      <!-- ft -->
      <g style="fill: #262626" transform="translate(641.567813 366.234125) scale(0.12 -0.12)">
       <defs>
        <path id="DejaVuSerif-66" d="M 2753 4078 
L 2450 4078 
Q 2447 4313 2317 4434 
Q 2188 4556 1941 4556 
Q 1619 4556 1487 4379 
Q 1356 4203 1356 3750 
L 1356 3322 
L 2284 3322 
L 2284 2988 
L 1356 2988 
L 1356 331 
L 2094 331 
L 2094 0 
L 231 0 
L 231 331 
L 781 331 
L 781 2988 
L 231 2988 
L 231 3322 
L 781 3322 
L 781 3738 
Q 781 4294 1070 4578 
Q 1359 4863 1919 4863 
Q 2128 4863 2337 4825 
Q 2547 4788 2753 4709 
L 2753 4078 
z
" transform="scale(0.015625)"/>
       </defs>
       <use xlink:href="#DejaVuSerif-66"/>
       <use xlink:href="#DejaVuSerif-74" x="37.011719"/>
      </g>
     </g>
    </g>
    <g id="xtick_6">
     <g id="text_6">
      <!-- Random Forest -->
      <g style="fill: #262626" transform="translate(711.300937 339.018125) scale(0.12 -0.12)">
       <use xlink:href="#DejaVuSerif-52"/>
       <use xlink:href="#DejaVuSerif-61" x="77.542969"/>
       <use xlink:href="#DejaVuSerif-6e" x="137.162109"/>
       <use xlink:href="#DejaVuSerif-64" x="201.566406"/>
       <use xlink:href="#DejaVuSerif-6f" x="265.580078"/>
       <use xlink:href="#DejaVuSerif-6d" x="325.785156"/>
       <use xlink:href="#DejaVuSerif-20" x="420.609375"/>
       <use xlink:href="#DejaVuSerif-46" x="452.396484"/>
       <use xlink:href="#DejaVuSerif-6f" x="516.28125"/>
       <use xlink:href="#DejaVuSerif-72" x="576.486328"/>
       <use xlink:href="#DejaVuSerif-65" x="624.289062"/>
       <use xlink:href="#DejaVuSerif-73" x="683.46875"/>
       <use xlink:href="#DejaVuSerif-74" x="734.787109"/>
      </g>
      <!-- ft -->
      <g style="fill: #262626" transform="translate(753.167812 352.4555) scale(0.12 -0.12)">
       <use xlink:href="#DejaVuSerif-66"/>
       <use xlink:href="#DejaVuSerif-74" x="37.011719"/>
      </g>
     </g>
    </g>
    <g id="xtick_7">
     <g id="text_7">
      <!-- Ridge -->
      <g style="fill: #262626" transform="translate(851.73 339.018125) scale(0.12 -0.12)">
       <use xlink:href="#DejaVuSerif-52"/>
       <use xlink:href="#DejaVuSerif-69" x="75.292969"/>
       <use xlink:href="#DejaVuSerif-64" x="107.275391"/>
       <use xlink:href="#DejaVuSerif-67" x="171.289062"/>
       <use xlink:href="#DejaVuSerif-65" x="235.302734"/>
      </g>
      <!-- Regression -->
      <g style="fill: #262626" transform="translate(835.517812 352.626125) scale(0.12 -0.12)">
       <use xlink:href="#DejaVuSerif-52"/>
       <use xlink:href="#DejaVuSerif-65" x="75.292969"/>
       <use xlink:href="#DejaVuSerif-67" x="134.472656"/>
       <use xlink:href="#DejaVuSerif-72" x="198.486328"/>
       <use xlink:href="#DejaVuSerif-65" x="246.289062"/>
       <use xlink:href="#DejaVuSerif-73" x="305.46875"/>
       <use xlink:href="#DejaVuSerif-73" x="356.787109"/>
       <use xlink:href="#DejaVuSerif-69" x="408.105469"/>
       <use xlink:href="#DejaVuSerif-6f" x="440.087891"/>
       <use xlink:href="#DejaVuSerif-6e" x="500.292969"/>
      </g>
      <!-- seed -->
      <g style="fill: #262626" transform="translate(855.377812 366.234125) scale(0.12 -0.12)">
       <use xlink:href="#DejaVuSerif-73"/>
       <use xlink:href="#DejaVuSerif-65" x="51.318359"/>
       <use xlink:href="#DejaVuSerif-65" x="110.498047"/>
       <use xlink:href="#DejaVuSerif-64" x="169.677734"/>
      </g>
     </g>
    </g>
    <g id="xtick_8">
     <g id="text_8">
      <!-- Random Forest -->
      <g style="fill: #262626" transform="translate(934.500937 339.018125) scale(0.12 -0.12)">
       <use xlink:href="#DejaVuSerif-52"/>
       <use xlink:href="#DejaVuSerif-61" x="77.542969"/>
       <use xlink:href="#DejaVuSerif-6e" x="137.162109"/>
       <use xlink:href="#DejaVuSerif-64" x="201.566406"/>
       <use xlink:href="#DejaVuSerif-6f" x="265.580078"/>
       <use xlink:href="#DejaVuSerif-6d" x="325.785156"/>
       <use xlink:href="#DejaVuSerif-20" x="420.609375"/>
       <use xlink:href="#DejaVuSerif-46" x="452.396484"/>
       <use xlink:href="#DejaVuSerif-6f" x="516.28125"/>
       <use xlink:href="#DejaVuSerif-72" x="576.486328"/>
       <use xlink:href="#DejaVuSerif-65" x="624.289062"/>
       <use xlink:href="#DejaVuSerif-73" x="683.46875"/>
       <use xlink:href="#DejaVuSerif-74" x="734.787109"/>
      </g>
      <!-- seed -->
      <g style="fill: #262626" transform="translate(966.977813 352.4555) scale(0.12 -0.12)">
       <use xlink:href="#DejaVuSerif-73"/>
       <use xlink:href="#DejaVuSerif-65" x="51.318359"/>
       <use xlink:href="#DejaVuSerif-65" x="110.498047"/>
       <use xlink:href="#DejaVuSerif-64" x="169.677734"/>
      </g>
     </g>
    </g>
   </g>
   <g id="matplotlib.axis_2">
    <g id="ytick_1">
     <g id="line2d_1">
      <path d="M 144 272.159262 
L 1036.8 272.159262 
" clip-path="url(#p39e518a2ff)" style="fill: none; stroke: #cccccc; stroke-linecap: round"/>
     </g>
     <g id="text_9">
      <!-- 0.0 -->
      <g style="fill: #262626" transform="translate(115.41625 276.718324) scale(0.12 -0.12)">
       <defs>
        <path id="DejaVuSerif-30" d="M 2034 219 
Q 2513 219 2750 744 
Q 2988 1269 2988 2328 
Q 2988 3391 2750 3916 
Q 2513 4441 2034 4441 
Q 1556 4441 1318 3916 
Q 1081 3391 1081 2328 
Q 1081 1269 1318 744 
Q 1556 219 2034 219 
z
M 2034 -91 
Q 1275 -91 848 546 
Q 422 1184 422 2328 
Q 422 3475 848 4112 
Q 1275 4750 2034 4750 
Q 2797 4750 3222 4112 
Q 3647 3475 3647 2328 
Q 3647 1184 3222 546 
Q 2797 -91 2034 -91 
z
" transform="scale(0.015625)"/>
        <path id="DejaVuSerif-2e" d="M 603 325 
Q 603 500 722 622 
Q 841 744 1019 744 
Q 1191 744 1312 622 
Q 1434 500 1434 325 
Q 1434 153 1312 31 
Q 1191 -91 1019 -91 
Q 841 -91 722 29 
Q 603 150 603 325 
z
" transform="scale(0.015625)"/>
       </defs>
       <use xlink:href="#DejaVuSerif-30"/>
       <use xlink:href="#DejaVuSerif-2e" x="63.623047"/>
       <use xlink:href="#DejaVuSerif-30" x="95.410156"/>
      </g>
     </g>
    </g>
    <g id="ytick_2">
     <g id="line2d_2">
      <path d="M 144 217.608363 
L 1036.8 217.608363 
" clip-path="url(#p39e518a2ff)" style="fill: none; stroke: #cccccc; stroke-linecap: round"/>
     </g>
     <g id="text_10">
      <!-- 0.2 -->
      <g style="fill: #262626" transform="translate(115.41625 222.167425) scale(0.12 -0.12)">
       <defs>
        <path id="DejaVuSerif-32" d="M 819 3553 
L 469 3553 
L 469 4384 
Q 803 4563 1142 4656 
Q 1481 4750 1806 4750 
Q 2534 4750 2956 4397 
Q 3378 4044 3378 3438 
Q 3378 2753 2422 1800 
Q 2347 1728 2309 1691 
L 1131 513 
L 3078 513 
L 3078 1088 
L 3444 1088 
L 3444 0 
L 434 0 
L 434 341 
L 1850 1753 
Q 2319 2222 2519 2614 
Q 2719 3006 2719 3438 
Q 2719 3909 2473 4175 
Q 2228 4441 1797 4441 
Q 1350 4441 1106 4219 
Q 863 3997 819 3553 
z
" transform="scale(0.015625)"/>
       </defs>
       <use xlink:href="#DejaVuSerif-30"/>
       <use xlink:href="#DejaVuSerif-2e" x="63.623047"/>
       <use xlink:href="#DejaVuSerif-32" x="95.410156"/>
      </g>
     </g>
    </g>
    <g id="ytick_3">
     <g id="line2d_3">
      <path d="M 144 163.057464 
L 1036.8 163.057464 
" clip-path="url(#p39e518a2ff)" style="fill: none; stroke: #cccccc; stroke-linecap: round"/>
     </g>
     <g id="text_11">
      <!-- 0.4 -->
      <g style="fill: #262626" transform="translate(115.41625 167.616527) scale(0.12 -0.12)">
       <defs>
        <path id="DejaVuSerif-34" d="M 2234 1581 
L 2234 4063 
L 641 1581 
L 2234 1581 
z
M 3609 0 
L 1484 0 
L 1484 331 
L 2234 331 
L 2234 1247 
L 197 1247 
L 197 1588 
L 2241 4750 
L 2859 4750 
L 2859 1581 
L 3750 1581 
L 3750 1247 
L 2859 1247 
L 2859 331 
L 3609 331 
L 3609 0 
z
" transform="scale(0.015625)"/>
       </defs>
       <use xlink:href="#DejaVuSerif-30"/>
       <use xlink:href="#DejaVuSerif-2e" x="63.623047"/>
       <use xlink:href="#DejaVuSerif-34" x="95.410156"/>
      </g>
     </g>
    </g>
    <g id="ytick_4">
     <g id="line2d_4">
      <path d="M 144 108.506565 
L 1036.8 108.506565 
" clip-path="url(#p39e518a2ff)" style="fill: none; stroke: #cccccc; stroke-linecap: round"/>
     </g>
     <g id="text_12">
      <!-- 0.6 -->
      <g style="fill: #262626" transform="translate(115.41625 113.065628) scale(0.12 -0.12)">
       <defs>
        <path id="DejaVuSerif-36" d="M 2094 219 
Q 2534 219 2771 542 
Q 3009 866 3009 1472 
Q 3009 2078 2771 2401 
Q 2534 2725 2094 2725 
Q 1647 2725 1412 2412 
Q 1178 2100 1178 1509 
Q 1178 888 1415 553 
Q 1653 219 2094 219 
z
M 1075 2569 
Q 1288 2803 1556 2918 
Q 1825 3034 2163 3034 
Q 2859 3034 3264 2615 
Q 3669 2197 3669 1472 
Q 3669 763 3233 336 
Q 2797 -91 2069 -91 
Q 1278 -91 853 498 
Q 428 1088 428 2181 
Q 428 3406 931 4078 
Q 1434 4750 2350 4750 
Q 2597 4750 2869 4703 
Q 3141 4656 3425 4563 
L 3425 3794 
L 3072 3794 
Q 3034 4109 2831 4275 
Q 2628 4441 2284 4441 
Q 1678 4441 1381 3981 
Q 1084 3522 1075 2569 
z
" transform="scale(0.015625)"/>
       </defs>
       <use xlink:href="#DejaVuSerif-30"/>
       <use xlink:href="#DejaVuSerif-2e" x="63.623047"/>
       <use xlink:href="#DejaVuSerif-36" x="95.410156"/>
      </g>
     </g>
    </g>
    <g id="ytick_5">
     <g id="line2d_5">
      <path d="M 144 53.955667 
L 1036.8 53.955667 
" clip-path="url(#p39e518a2ff)" style="fill: none; stroke: #cccccc; stroke-linecap: round"/>
     </g>
     <g id="text_13">
      <!-- 0.8 -->
      <g style="fill: #262626" transform="translate(115.41625 58.514729) scale(0.12 -0.12)">
       <defs>
        <path id="DejaVuSerif-38" d="M 2981 1275 
Q 2981 1775 2732 2051 
Q 2484 2328 2034 2328 
Q 1584 2328 1336 2051 
Q 1088 1775 1088 1275 
Q 1088 772 1336 495 
Q 1584 219 2034 219 
Q 2484 219 2732 495 
Q 2981 772 2981 1275 
z
M 2853 3541 
Q 2853 3966 2637 4203 
Q 2422 4441 2034 4441 
Q 1650 4441 1433 4203 
Q 1216 3966 1216 3541 
Q 1216 3113 1433 2875 
Q 1650 2638 2034 2638 
Q 2422 2638 2637 2875 
Q 2853 3113 2853 3541 
z
M 2516 2484 
Q 3047 2413 3344 2092 
Q 3641 1772 3641 1275 
Q 3641 619 3225 264 
Q 2809 -91 2034 -91 
Q 1263 -91 845 264 
Q 428 619 428 1275 
Q 428 1772 725 2092 
Q 1022 2413 1556 2484 
Q 1084 2569 832 2842 
Q 581 3116 581 3541 
Q 581 4103 968 4426 
Q 1356 4750 2034 4750 
Q 2713 4750 3100 4426 
Q 3488 4103 3488 3541 
Q 3488 3116 3236 2842 
Q 2984 2569 2516 2484 
z
" transform="scale(0.015625)"/>
       </defs>
       <use xlink:href="#DejaVuSerif-30"/>
       <use xlink:href="#DejaVuSerif-2e" x="63.623047"/>
       <use xlink:href="#DejaVuSerif-38" x="95.410156"/>
      </g>
     </g>
    </g>
    <g id="text_14">
     <!-- $\text{r}^2$ -->
     <g style="fill: #262626" transform="translate(108.504688 188.1) rotate(-90) scale(0.14 -0.14)">
      <defs>
       <path id="DejaVuSans-72" d="M 2631 2963 
Q 2534 3019 2420 3045 
Q 2306 3072 2169 3072 
Q 1681 3072 1420 2755 
Q 1159 2438 1159 1844 
L 1159 0 
L 581 0 
L 581 3500 
L 1159 3500 
L 1159 2956 
Q 1341 3275 1631 3429 
Q 1922 3584 2338 3584 
Q 2397 3584 2469 3576 
Q 2541 3569 2628 3553 
L 2631 2963 
z
" transform="scale(0.015625)"/>
       <path id="DejaVuSans-32" d="M 1228 531 
L 3431 531 
L 3431 0 
L 469 0 
L 469 531 
Q 828 903 1448 1529 
Q 2069 2156 2228 2338 
Q 2531 2678 2651 2914 
Q 2772 3150 2772 3378 
Q 2772 3750 2511 3984 
Q 2250 4219 1831 4219 
Q 1534 4219 1204 4116 
Q 875 4013 500 3803 
L 500 4441 
Q 881 4594 1212 4672 
Q 1544 4750 1819 4750 
Q 2544 4750 2975 4387 
Q 3406 4025 3406 3419 
Q 3406 3131 3298 2873 
Q 3191 2616 2906 2266 
Q 2828 2175 2409 1742 
Q 1991 1309 1228 531 
z
" transform="scale(0.015625)"/>
      </defs>
      <use xlink:href="#DejaVuSans-72" transform="translate(0 0.765625)"/>
      <use xlink:href="#DejaVuSans-32" transform="translate(42.070312 39.046875) scale(0.7)"/>
     </g>
    </g>
   </g>
   <g id="PolyCollection_1">
    <defs>
     <path id="m9fe77836b4" d="M 200.241856 -101.202872 
L 199.358144 -101.202872 
L 199.270303 -102.918303 
L 199.169173 -104.633734 
L 199.053638 -106.349166 
L 198.922661 -108.064597 
L 198.775319 -109.780028 
L 198.610841 -111.49546 
L 198.428645 -113.210891 
L 198.228373 -114.926322 
L 198.00992 -116.641754 
L 197.773459 -118.357185 
L 197.519463 -120.072616 
L 197.248707 -121.788047 
L 196.962274 -123.503479 
L 196.661538 -125.21891 
L 196.34815 -126.934341 
L 196.023999 -128.649773 
L 195.69118 -130.365204 
L 195.351937 -132.080635 
L 195.008618 -133.796067 
L 194.663612 -135.511498 
L 194.319296 -137.226929 
L 193.977976 -138.94236 
L 193.641837 -140.657792 
L 193.312898 -142.373223 
L 192.992975 -144.088654 
L 192.683652 -145.804086 
L 192.386266 -147.519517 
L 192.101893 -149.234948 
L 191.831357 -150.95038 
L 191.575231 -152.665811 
L 191.333853 -154.381242 
L 191.107348 -156.096674 
L 190.895641 -157.812105 
L 190.69848 -159.527536 
L 190.515455 -161.242967 
L 190.346009 -162.958399 
L 190.18945 -164.67383 
L 190.04496 -166.389261 
L 189.911597 -168.104693 
L 189.788302 -169.820124 
L 189.673899 -171.535555 
L 189.567105 -173.250987 
L 189.466541 -174.966418 
L 189.370748 -176.681849 
L 189.278217 -178.39728 
L 189.187425 -180.112712 
L 189.096879 -181.828143 
L 189.005177 -183.543574 
L 188.911066 -185.259006 
L 188.813515 -186.974437 
L 188.711783 -188.689868 
L 188.60549 -190.4053 
L 188.49468 -192.120731 
L 188.379876 -193.836162 
L 188.262116 -195.551594 
L 188.142978 -197.267025 
L 188.024577 -198.982456 
L 187.909549 -200.697887 
L 187.801001 -202.413319 
L 187.702446 -204.12875 
L 187.617715 -205.844181 
L 187.550845 -207.559613 
L 187.505963 -209.275044 
L 187.487149 -210.990475 
L 187.498299 -212.705907 
L 187.542991 -214.421338 
L 187.624351 -216.136769 
L 187.744935 -217.8522 
L 187.906628 -219.567632 
L 188.11056 -221.283063 
L 188.357049 -222.998494 
L 188.645569 -224.713926 
L 188.974749 -226.429357 
L 189.342394 -228.144788 
L 189.745538 -229.86022 
L 190.180515 -231.575651 
L 190.64306 -233.291082 
L 191.12842 -235.006514 
L 191.631481 -236.721945 
L 192.146901 -238.437376 
L 192.669248 -240.152807 
L 193.193137 -241.868239 
L 193.713355 -243.58367 
L 194.224978 -245.299101 
L 194.723476 -247.014533 
L 195.204794 -248.729964 
L 195.665421 -250.445395 
L 196.102433 -252.160827 
L 196.513514 -253.876258 
L 196.896967 -255.591689 
L 197.251694 -257.30712 
L 197.577167 -259.022552 
L 197.873385 -260.737983 
L 198.140816 -262.453414 
L 198.380338 -264.168846 
L 198.593169 -265.884277 
L 198.780798 -267.599708 
L 198.944916 -269.31514 
L 199.087352 -271.030571 
L 200.512648 -271.030571 
L 200.512648 -271.030571 
L 200.655084 -269.31514 
L 200.819202 -267.599708 
L 201.006831 -265.884277 
L 201.219662 -264.168846 
L 201.459184 -262.453414 
L 201.726615 -260.737983 
L 202.022833 -259.022552 
L 202.348306 -257.30712 
L 202.703033 -255.591689 
L 203.086486 -253.876258 
L 203.497567 -252.160827 
L 203.934579 -250.445395 
L 204.395206 -248.729964 
L 204.876524 -247.014533 
L 205.375022 -245.299101 
L 205.886645 -243.58367 
L 206.406863 -241.868239 
L 206.930752 -240.152807 
L 207.453099 -238.437376 
L 207.968519 -236.721945 
L 208.47158 -235.006514 
L 208.95694 -233.291082 
L 209.419485 -231.575651 
L 209.854462 -229.86022 
L 210.257606 -228.144788 
L 210.625251 -226.429357 
L 210.954431 -224.713926 
L 211.242951 -222.998494 
L 211.48944 -221.283063 
L 211.693372 -219.567632 
L 211.855065 -217.8522 
L 211.975649 -216.136769 
L 212.057009 -214.421338 
L 212.101701 -212.705907 
L 212.112851 -210.990475 
L 212.094037 -209.275044 
L 212.049155 -207.559613 
L 211.982285 -205.844181 
L 211.897554 -204.12875 
L 211.798999 -202.413319 
L 211.690451 -200.697887 
L 211.575423 -198.982456 
L 211.457022 -197.267025 
L 211.337884 -195.551594 
L 211.220124 -193.836162 
L 211.10532 -192.120731 
L 210.99451 -190.4053 
L 210.888217 -188.689868 
L 210.786485 -186.974437 
L 210.688934 -185.259006 
L 210.594823 -183.543574 
L 210.503121 -181.828143 
L 210.412575 -180.112712 
L 210.321783 -178.39728 
L 210.229252 -176.681849 
L 210.133459 -174.966418 
L 210.032895 -173.250987 
L 209.926101 -171.535555 
L 209.811698 -169.820124 
L 209.688403 -168.104693 
L 209.55504 -166.389261 
L 209.41055 -164.67383 
L 209.253991 -162.958399 
L 209.084545 -161.242967 
L 208.90152 -159.527536 
L 208.704359 -157.812105 
L 208.492652 -156.096674 
L 208.266147 -154.381242 
L 208.024769 -152.665811 
L 207.768643 -150.95038 
L 207.498107 -149.234948 
L 207.213734 -147.519517 
L 206.916348 -145.804086 
L 206.607025 -144.088654 
L 206.287102 -142.373223 
L 205.958163 -140.657792 
L 205.622024 -138.94236 
L 205.280704 -137.226929 
L 204.936388 -135.511498 
L 204.591382 -133.796067 
L 204.248063 -132.080635 
L 203.90882 -130.365204 
L 203.576001 -128.649773 
L 203.25185 -126.934341 
L 202.938462 -125.21891 
L 202.637726 -123.503479 
L 202.351293 -121.788047 
L 202.080537 -120.072616 
L 201.826541 -118.357185 
L 201.59008 -116.641754 
L 201.371627 -114.926322 
L 201.171355 -113.210891 
L 200.989159 -111.49546 
L 200.824681 -109.780028 
L 200.677339 -108.064597 
L 200.546362 -106.349166 
L 200.430827 -104.633734 
L 200.329697 -102.918303 
L 200.241856 -101.202872 
z
" style="stroke: #404040; stroke-width: 1.25"/>
    </defs>
    <g clip-path="url(#p39e518a2ff)">
     <use xlink:href="#m9fe77836b4" x="0" y="360" style="fill: #e6e6e6; stroke: #404040; stroke-width: 1.25"/>
    </g>
   </g>
   <g id="PolyCollection_2">
    <defs>
     <path id="mb92697494d" d="M 311.771834 -111.684566 
L 311.028166 -111.684566 
L 310.952239 -113.571181 
L 310.864243 -115.457796 
L 310.762983 -117.344411 
L 310.647281 -119.231026 
L 310.515998 -121.117641 
L 310.368064 -123.004256 
L 310.202507 -124.890871 
L 310.018482 -126.777486 
L 309.815299 -128.6641 
L 309.592456 -130.550715 
L 309.349663 -132.43733 
L 309.08687 -134.323945 
L 308.804288 -136.21056 
L 308.50241 -138.097175 
L 308.182028 -139.98379 
L 307.844244 -141.870405 
L 307.49048 -143.75702 
L 307.122478 -145.643635 
L 306.742302 -147.53025 
L 306.352328 -149.416865 
L 305.955226 -151.30348 
L 305.553942 -153.190094 
L 305.151665 -155.076709 
L 304.751784 -156.963324 
L 304.357843 -158.849939 
L 303.973476 -160.736554 
L 303.602342 -162.623169 
L 303.248043 -164.509784 
L 302.914037 -166.396399 
L 302.60355 -168.283014 
L 302.319474 -170.169629 
L 302.06428 -172.056244 
L 301.839919 -173.942859 
L 301.647746 -175.829473 
L 301.488445 -177.716088 
L 301.361985 -179.602703 
L 301.267579 -181.489318 
L 301.203687 -183.375933 
L 301.168034 -185.262548 
L 301.157656 -187.149163 
L 301.168985 -189.035778 
L 301.197947 -190.922393 
L 301.240094 -192.809008 
L 301.290753 -194.695623 
L 301.345187 -196.582238 
L 301.398767 -198.468852 
L 301.447141 -200.355467 
L 301.486405 -202.242082 
L 301.513251 -204.128697 
L 301.525098 -206.015312 
L 301.520206 -207.901927 
L 301.497744 -209.788542 
L 301.457837 -211.675157 
L 301.401572 -213.561772 
L 301.330967 -215.448387 
L 301.248909 -217.335002 
L 301.159057 -219.221617 
L 301.065717 -221.108232 
L 300.973695 -222.994846 
L 300.888133 -224.881461 
L 300.814334 -226.768076 
L 300.757582 -228.654691 
L 300.722967 -230.541306 
L 300.715217 -232.427921 
L 300.738544 -234.314536 
L 300.796513 -236.201151 
L 300.891934 -238.087766 
L 301.026774 -239.974381 
L 301.202109 -241.860996 
L 301.418099 -243.747611 
L 301.673992 -245.634225 
L 301.968159 -247.52084 
L 302.298152 -249.407455 
L 302.66079 -251.29407 
L 303.052257 -253.180685 
L 303.468222 -255.0673 
L 303.903963 -256.953915 
L 304.354503 -258.84053 
L 304.814745 -260.727145 
L 305.279599 -262.61376 
L 305.744109 -264.500375 
L 306.203562 -266.38699 
L 306.65359 -268.273604 
L 307.090248 -270.160219 
L 307.510079 -272.046834 
L 307.910157 -273.933449 
L 308.288116 -275.820064 
L 308.642152 -277.706679 
L 308.97102 -279.593294 
L 309.274002 -281.479909 
L 309.550877 -283.366524 
L 309.801869 -285.253139 
L 310.027595 -287.139754 
L 310.229 -289.026369 
L 310.407303 -290.912984 
L 310.563928 -292.799598 
L 310.700448 -294.686213 
L 310.818528 -296.572828 
L 310.919877 -298.459443 
L 311.880123 -298.459443 
L 311.880123 -298.459443 
L 311.981472 -296.572828 
L 312.099552 -294.686213 
L 312.236072 -292.799598 
L 312.392697 -290.912984 
L 312.571 -289.026369 
L 312.772405 -287.139754 
L 312.998131 -285.253139 
L 313.249123 -283.366524 
L 313.525998 -281.479909 
L 313.82898 -279.593294 
L 314.157848 -277.706679 
L 314.511884 -275.820064 
L 314.889843 -273.933449 
L 315.289921 -272.046834 
L 315.709752 -270.160219 
L 316.14641 -268.273604 
L 316.596438 -266.38699 
L 317.055891 -264.500375 
L 317.520401 -262.61376 
L 317.985255 -260.727145 
L 318.445497 -258.84053 
L 318.896037 -256.953915 
L 319.331778 -255.0673 
L 319.747743 -253.180685 
L 320.13921 -251.29407 
L 320.501848 -249.407455 
L 320.831841 -247.52084 
L 321.126008 -245.634225 
L 321.381901 -243.747611 
L 321.597891 -241.860996 
L 321.773226 -239.974381 
L 321.908066 -238.087766 
L 322.003487 -236.201151 
L 322.061456 -234.314536 
L 322.084783 -232.427921 
L 322.077033 -230.541306 
L 322.042418 -228.654691 
L 321.985666 -226.768076 
L 321.911867 -224.881461 
L 321.826305 -222.994846 
L 321.734283 -221.108232 
L 321.640943 -219.221617 
L 321.551091 -217.335002 
L 321.469033 -215.448387 
L 321.398428 -213.561772 
L 321.342163 -211.675157 
L 321.302256 -209.788542 
L 321.279794 -207.901927 
L 321.274902 -206.015312 
L 321.286749 -204.128697 
L 321.313595 -202.242082 
L 321.352859 -200.355467 
L 321.401233 -198.468852 
L 321.454813 -196.582238 
L 321.509247 -194.695623 
L 321.559906 -192.809008 
L 321.602053 -190.922393 
L 321.631015 -189.035778 
L 321.642344 -187.149163 
L 321.631966 -185.262548 
L 321.596313 -183.375933 
L 321.532421 -181.489318 
L 321.438015 -179.602703 
L 321.311555 -177.716088 
L 321.152254 -175.829473 
L 320.960081 -173.942859 
L 320.73572 -172.056244 
L 320.480526 -170.169629 
L 320.19645 -168.283014 
L 319.885963 -166.396399 
L 319.551957 -164.509784 
L 319.197658 -162.623169 
L 318.826524 -160.736554 
L 318.442157 -158.849939 
L 318.048216 -156.963324 
L 317.648335 -155.076709 
L 317.246058 -153.190094 
L 316.844774 -151.30348 
L 316.447672 -149.416865 
L 316.057698 -147.53025 
L 315.677522 -145.643635 
L 315.30952 -143.75702 
L 314.955756 -141.870405 
L 314.617972 -139.98379 
L 314.29759 -138.097175 
L 313.995712 -136.21056 
L 313.71313 -134.323945 
L 313.450337 -132.43733 
L 313.207544 -130.550715 
L 312.984701 -128.6641 
L 312.781518 -126.777486 
L 312.597493 -124.890871 
L 312.431936 -123.004256 
L 312.284002 -121.117641 
L 312.152719 -119.231026 
L 312.037017 -117.344411 
L 311.935757 -115.457796 
L 311.847761 -113.571181 
L 311.771834 -111.684566 
z
" style="stroke: #404040; stroke-width: 1.25"/>
    </defs>
    <g clip-path="url(#p39e518a2ff)">
     <use xlink:href="#mb92697494d" x="0" y="360" style="fill: #e6e6e6; stroke: #404040; stroke-width: 1.25"/>
    </g>
   </g>
   <g id="PolyCollection_3">
    <defs>
     <path id="m31de78dd6f" d="M 423.612721 -93.892323 
L 422.387279 -93.892323 
L 422.255374 -95.169145 
L 422.100753 -96.445968 
L 421.920757 -97.72279 
L 421.712654 -98.999612 
L 421.473693 -100.276434 
L 421.201151 -101.553256 
L 420.892404 -102.830079 
L 420.544989 -104.106901 
L 420.156689 -105.383723 
L 419.725608 -106.660545 
L 419.250268 -107.937368 
L 418.72969 -109.21419 
L 418.163496 -110.491012 
L 417.551993 -111.767834 
L 416.896261 -113.044656 
L 416.198234 -114.321479 
L 415.460766 -115.598301 
L 414.68768 -116.875123 
L 413.883807 -118.151945 
L 413.054984 -119.428767 
L 412.208043 -120.70559 
L 411.35075 -121.982412 
L 410.491722 -123.259234 
L 409.640299 -124.536056 
L 408.806385 -125.812878 
L 408.000249 -127.089701 
L 407.232301 -128.366523 
L 406.512831 -129.643345 
L 405.851741 -130.920167 
L 405.258258 -132.19699 
L 404.74066 -133.473812 
L 404.305999 -134.750634 
L 403.959863 -136.027456 
L 403.706172 -137.304278 
L 403.547011 -138.581101 
L 403.482536 -139.857923 
L 403.510925 -141.134745 
L 403.628412 -142.411567 
L 403.829372 -143.688389 
L 404.106485 -144.965212 
L 404.450948 -146.242034 
L 404.852746 -147.518856 
L 405.300954 -148.795678 
L 405.784077 -150.072501 
L 406.290396 -151.349323 
L 406.808321 -152.626145 
L 407.326727 -153.902967 
L 407.835267 -155.179789 
L 408.324652 -156.456612 
L 408.786884 -157.733434 
L 409.21544 -159.010256 
L 409.605403 -160.287078 
L 409.95353 -161.5639 
L 410.25827 -162.840723 
L 410.519727 -164.117545 
L 410.739564 -165.394367 
L 410.920877 -166.671189 
L 411.068011 -167.948011 
L 411.186363 -169.224834 
L 411.282149 -170.501656 
L 411.362159 -171.778478 
L 411.433511 -173.0553 
L 411.503398 -174.332123 
L 411.578846 -175.608945 
L 411.6665 -176.885767 
L 411.772415 -178.162589 
L 411.901889 -179.439411 
L 412.059326 -180.716234 
L 412.248129 -181.993056 
L 412.470641 -183.269878 
L 412.728112 -184.5467 
L 413.020712 -185.823522 
L 413.347572 -187.100345 
L 413.706859 -188.377167 
L 414.095875 -189.653989 
L 414.511179 -190.930811 
L 414.948723 -192.207633 
L 415.403999 -193.484456 
L 415.872189 -194.761278 
L 416.34832 -196.0381 
L 416.827399 -197.314922 
L 417.304556 -198.591745 
L 417.775157 -199.868567 
L 418.234912 -201.145389 
L 418.679956 -202.422211 
L 419.106917 -203.699033 
L 419.512958 -204.975856 
L 419.895803 -206.252678 
L 420.253743 -207.5295 
L 420.585627 -208.806322 
L 420.890832 -210.083144 
L 421.169229 -211.359967 
L 421.421132 -212.636789 
L 421.647243 -213.913611 
L 421.84859 -215.190433 
L 422.026467 -216.467256 
L 422.18237 -217.744078 
L 422.317939 -219.0209 
L 422.434898 -220.297722 
L 423.565102 -220.297722 
L 423.565102 -220.297722 
L 423.682061 -219.0209 
L 423.81763 -217.744078 
L 423.973533 -216.467256 
L 424.15141 -215.190433 
L 424.352757 -213.913611 
L 424.578868 -212.636789 
L 424.830771 -211.359967 
L 425.109168 -210.083144 
L 425.414373 -208.806322 
L 425.746257 -207.5295 
L 426.104197 -206.252678 
L 426.487042 -204.975856 
L 426.893083 -203.699033 
L 427.320044 -202.422211 
L 427.765088 -201.145389 
L 428.224843 -199.868567 
L 428.695444 -198.591745 
L 429.172601 -197.314922 
L 429.65168 -196.0381 
L 430.127811 -194.761278 
L 430.596001 -193.484456 
L 431.051277 -192.207633 
L 431.488821 -190.930811 
L 431.904125 -189.653989 
L 432.293141 -188.377167 
L 432.652428 -187.100345 
L 432.979288 -185.823522 
L 433.271888 -184.5467 
L 433.529359 -183.269878 
L 433.751871 -181.993056 
L 433.940674 -180.716234 
L 434.098111 -179.439411 
L 434.227585 -178.162589 
L 434.3335 -176.885767 
L 434.421154 -175.608945 
L 434.496602 -174.332123 
L 434.566489 -173.0553 
L 434.637841 -171.778478 
L 434.717851 -170.501656 
L 434.813637 -169.224834 
L 434.931989 -167.948011 
L 435.079123 -166.671189 
L 435.260436 -165.394367 
L 435.480273 -164.117545 
L 435.74173 -162.840723 
L 436.04647 -161.5639 
L 436.394597 -160.287078 
L 436.78456 -159.010256 
L 437.213116 -157.733434 
L 437.675348 -156.456612 
L 438.164733 -155.179789 
L 438.673273 -153.902967 
L 439.191679 -152.626145 
L 439.709604 -151.349323 
L 440.215923 -150.072501 
L 440.699046 -148.795678 
L 441.147254 -147.518856 
L 441.549052 -146.242034 
L 441.893515 -144.965212 
L 442.170628 -143.688389 
L 442.371588 -142.411567 
L 442.489075 -141.134745 
L 442.517464 -139.857923 
L 442.452989 -138.581101 
L 442.293828 -137.304278 
L 442.040137 -136.027456 
L 441.694001 -134.750634 
L 441.25934 -133.473812 
L 440.741742 -132.19699 
L 440.148259 -130.920167 
L 439.487169 -129.643345 
L 438.767699 -128.366523 
L 437.999751 -127.089701 
L 437.193615 -125.812878 
L 436.359701 -124.536056 
L 435.508278 -123.259234 
L 434.64925 -121.982412 
L 433.791957 -120.70559 
L 432.945016 -119.428767 
L 432.116193 -118.151945 
L 431.31232 -116.875123 
L 430.539234 -115.598301 
L 429.801766 -114.321479 
L 429.103739 -113.044656 
L 428.448007 -111.767834 
L 427.836504 -110.491012 
L 427.27031 -109.21419 
L 426.749732 -107.937368 
L 426.274392 -106.660545 
L 425.843311 -105.383723 
L 425.455011 -104.106901 
L 425.107596 -102.830079 
L 424.798849 -101.553256 
L 424.526307 -100.276434 
L 424.287346 -98.999612 
L 424.079243 -97.72279 
L 423.899247 -96.445968 
L 423.744626 -95.169145 
L 423.612721 -93.892323 
z
" style="stroke: #404040; stroke-width: 1.25"/>
    </defs>
    <g clip-path="url(#p39e518a2ff)">
     <use xlink:href="#m31de78dd6f" x="0" y="360" style="fill: #e6e6e6; stroke: #404040; stroke-width: 1.25"/>
    </g>
   </g>
   <g id="PolyCollection_4">
    <defs>
     <path id="mfe33abf28e" d="M 534.977925 -96.743266 
L 534.222075 -96.743266 
L 534.146122 -98.395283 
L 534.05906 -100.047301 
L 533.960135 -101.699318 
L 533.848691 -103.351335 
L 533.724188 -105.003352 
L 533.586208 -106.655369 
L 533.434466 -108.307386 
L 533.268789 -109.959404 
L 533.089104 -111.611421 
L 532.895398 -113.263438 
L 532.687676 -114.915455 
L 532.465903 -116.567472 
L 532.229946 -118.219489 
L 531.979506 -119.871507 
L 531.714063 -121.523524 
L 531.432822 -123.175541 
L 531.134684 -124.827558 
L 530.818236 -126.479575 
L 530.481771 -128.131592 
L 530.123343 -129.78361 
L 529.740861 -131.435627 
L 529.332216 -133.087644 
L 528.895442 -134.739661 
L 528.428912 -136.391678 
L 527.931541 -138.043695 
L 527.40301 -139.695713 
L 526.843968 -141.34773 
L 526.256226 -142.999747 
L 525.642904 -144.651764 
L 525.008532 -146.303781 
L 524.359075 -147.955798 
L 523.701901 -149.607816 
L 523.045654 -151.259833 
L 522.400052 -152.91185 
L 521.775616 -154.563867 
L 521.183323 -156.215884 
L 520.634214 -157.867901 
L 520.138975 -159.519919 
L 519.707501 -161.171936 
L 519.348474 -162.823953 
L 519.068979 -164.47597 
L 518.874182 -166.127987 
L 518.767071 -167.780004 
L 518.748302 -169.432021 
L 518.816137 -171.084039 
L 518.966483 -172.736056 
L 519.193042 -174.388073 
L 519.487545 -176.04009 
L 519.840073 -177.692107 
L 520.239445 -179.344124 
L 520.673648 -180.996142 
L 521.130298 -182.648159 
L 521.597098 -184.300176 
L 522.062294 -185.952193 
L 522.515079 -187.60421 
L 522.945958 -189.256227 
L 523.347044 -190.908245 
L 523.71228 -192.560262 
L 524.037578 -194.212279 
L 524.320878 -195.864296 
L 524.562123 -197.516313 
L 524.763153 -199.16833 
L 524.927534 -200.820348 
L 525.060322 -202.472365 
L 525.167781 -204.124382 
L 525.25706 -205.776399 
L 525.335858 -207.428416 
L 525.412071 -209.080433 
L 525.493458 -210.732451 
L 525.587322 -212.384468 
L 525.700225 -214.036485 
L 525.837751 -215.688502 
L 526.004317 -217.340519 
L 526.203045 -218.992536 
L 526.43569 -220.644554 
L 526.702639 -222.296571 
L 527.00295 -223.948588 
L 527.33446 -225.600605 
L 527.693926 -227.252622 
L 528.077209 -228.904639 
L 528.479474 -230.556657 
L 528.895411 -232.208674 
L 529.319457 -233.860691 
L 529.746007 -235.512708 
L 530.169618 -237.164725 
L 530.585177 -238.816742 
L 530.988047 -240.46876 
L 531.374186 -242.120777 
L 531.740215 -243.772794 
L 532.083469 -245.424811 
L 532.402007 -247.076828 
L 532.694591 -248.728845 
L 532.960649 -250.380862 
L 533.20021 -252.03288 
L 533.413827 -253.684897 
L 533.602495 -255.336914 
L 533.767562 -256.988931 
L 533.910637 -258.640948 
L 534.03351 -260.292965 
L 535.16649 -260.292965 
L 535.16649 -260.292965 
L 535.289363 -258.640948 
L 535.432438 -256.988931 
L 535.597505 -255.336914 
L 535.786173 -253.684897 
L 535.99979 -252.03288 
L 536.239351 -250.380862 
L 536.505409 -248.728845 
L 536.797993 -247.076828 
L 537.116531 -245.424811 
L 537.459785 -243.772794 
L 537.825814 -242.120777 
L 538.211953 -240.46876 
L 538.614823 -238.816742 
L 539.030382 -237.164725 
L 539.453993 -235.512708 
L 539.880543 -233.860691 
L 540.304589 -232.208674 
L 540.720526 -230.556657 
L 541.122791 -228.904639 
L 541.506074 -227.252622 
L 541.86554 -225.600605 
L 542.19705 -223.948588 
L 542.497361 -222.296571 
L 542.76431 -220.644554 
L 542.996955 -218.992536 
L 543.195683 -217.340519 
L 543.362249 -215.688502 
L 543.499775 -214.036485 
L 543.612678 -212.384468 
L 543.706542 -210.732451 
L 543.787929 -209.080433 
L 543.864142 -207.428416 
L 543.94294 -205.776399 
L 544.032219 -204.124382 
L 544.139678 -202.472365 
L 544.272466 -200.820348 
L 544.436847 -199.16833 
L 544.637877 -197.516313 
L 544.879122 -195.864296 
L 545.162422 -194.212279 
L 545.48772 -192.560262 
L 545.852956 -190.908245 
L 546.254042 -189.256227 
L 546.684921 -187.60421 
L 547.137706 -185.952193 
L 547.602902 -184.300176 
L 548.069702 -182.648159 
L 548.526352 -180.996142 
L 548.960555 -179.344124 
L 549.359927 -177.692107 
L 549.712455 -176.04009 
L 550.006958 -174.388073 
L 550.233517 -172.736056 
L 550.383863 -171.084039 
L 550.451698 -169.432021 
L 550.432929 -167.780004 
L 550.325818 -166.127987 
L 550.131021 -164.47597 
L 549.851526 -162.823953 
L 549.492499 -161.171936 
L 549.061025 -159.519919 
L 548.565786 -157.867901 
L 548.016677 -156.215884 
L 547.424384 -154.563867 
L 546.799948 -152.91185 
L 546.154346 -151.259833 
L 545.498099 -149.607816 
L 544.840925 -147.955798 
L 544.191468 -146.303781 
L 543.557096 -144.651764 
L 542.943774 -142.999747 
L 542.356032 -141.34773 
L 541.79699 -139.695713 
L 541.268459 -138.043695 
L 540.771088 -136.391678 
L 540.304558 -134.739661 
L 539.867784 -133.087644 
L 539.459139 -131.435627 
L 539.076657 -129.78361 
L 538.718229 -128.131592 
L 538.381764 -126.479575 
L 538.065316 -124.827558 
L 537.767178 -123.175541 
L 537.485937 -121.523524 
L 537.220494 -119.871507 
L 536.970054 -118.219489 
L 536.734097 -116.567472 
L 536.512324 -114.915455 
L 536.304602 -113.263438 
L 536.110896 -111.611421 
L 535.931211 -109.959404 
L 535.765534 -108.307386 
L 535.613792 -106.655369 
L 535.475812 -105.003352 
L 535.351309 -103.351335 
L 535.239865 -101.699318 
L 535.14094 -100.047301 
L 535.053878 -98.395283 
L 534.977925 -96.743266 
z
" style="stroke: #404040; stroke-width: 1.25"/>
    </defs>
    <g clip-path="url(#p39e518a2ff)">
     <use xlink:href="#mfe33abf28e" x="0" y="360" style="fill: #e6e6e6; stroke: #404040; stroke-width: 1.25"/>
    </g>
   </g>
   <g id="PolyCollection_5">
    <defs>
     <path id="m0e1cf94468" d="M 647.196952 -236.858203 
L 645.203048 -236.858203 
L 644.984983 -237.538423 
L 644.733131 -238.218644 
L 644.445567 -238.898864 
L 644.120977 -239.579084 
L 643.758781 -240.259304 
L 643.359242 -240.939524 
L 642.923536 -241.619744 
L 642.453775 -242.299965 
L 641.952977 -242.980185 
L 641.424979 -243.660405 
L 640.874281 -244.340625 
L 640.305836 -245.020845 
L 639.724793 -245.701066 
L 639.136189 -246.381286 
L 638.54463 -247.061506 
L 637.953966 -247.741726 
L 637.366979 -248.421946 
L 636.785121 -249.102166 
L 636.2083 -249.782387 
L 635.634749 -250.462607 
L 635.060981 -251.142827 
L 634.481833 -251.823047 
L 633.890602 -252.503267 
L 633.279276 -253.183487 
L 632.63883 -253.863708 
L 631.959591 -254.543928 
L 631.231646 -255.224148 
L 630.445277 -255.904368 
L 629.591403 -256.584588 
L 628.662018 -257.264808 
L 627.650604 -257.945029 
L 626.552519 -258.625249 
L 625.365329 -259.305469 
L 624.089106 -259.985689 
L 622.726653 -260.665909 
L 621.283678 -261.346129 
L 619.768897 -262.02635 
L 618.194056 -262.70657 
L 616.573883 -263.38679 
L 614.925946 -264.06701 
L 613.270426 -264.74723 
L 611.629794 -265.42745 
L 610.028401 -266.107671 
L 608.491964 -266.787891 
L 607.046986 -267.468111 
L 605.720092 -268.148331 
L 604.537314 -268.828551 
L 603.523338 -269.508771 
L 602.700743 -270.188992 
L 602.089247 -270.869212 
L 601.70501 -271.549432 
L 601.56 -272.229652 
L 601.661466 -272.909872 
L 602.011549 -273.590092 
L 602.607042 -274.270313 
L 603.439333 -274.950533 
L 604.494539 -275.630753 
L 605.75383 -276.310973 
L 607.193955 -276.991193 
L 608.787942 -277.671413 
L 610.505962 -278.351634 
L 612.316313 -279.031854 
L 614.186488 -279.712074 
L 616.084281 -280.392294 
L 617.978875 -281.072514 
L 619.841853 -281.752734 
L 621.648097 -282.432955 
L 623.376508 -283.113175 
L 625.010526 -283.793395 
L 626.53842 -284.473615 
L 627.95334 -285.153835 
L 629.253123 -285.834055 
L 630.439895 -286.514276 
L 631.519479 -287.194496 
L 632.500666 -287.874716 
L 633.394393 -288.554936 
L 634.212882 -289.235156 
L 634.968803 -289.915376 
L 635.674494 -290.595597 
L 636.341302 -291.275817 
L 636.979052 -291.956037 
L 637.595681 -292.636257 
L 638.197039 -293.316477 
L 638.786847 -293.996697 
L 639.366803 -294.676918 
L 639.936804 -295.357138 
L 640.495259 -296.037358 
L 641.039463 -296.717578 
L 641.565984 -297.397798 
L 642.071058 -298.078018 
L 642.550934 -298.758239 
L 643.002183 -299.438459 
L 643.421932 -300.118679 
L 643.808025 -300.798899 
L 644.15912 -301.479119 
L 644.474716 -302.159339 
L 644.755116 -302.83956 
L 645.001355 -303.51978 
L 645.215089 -304.2 
L 647.184911 -304.2 
L 647.184911 -304.2 
L 647.398645 -303.51978 
L 647.644884 -302.83956 
L 647.925284 -302.159339 
L 648.24088 -301.479119 
L 648.591975 -300.798899 
L 648.978068 -300.118679 
L 649.397817 -299.438459 
L 649.849066 -298.758239 
L 650.328942 -298.078018 
L 650.834016 -297.397798 
L 651.360537 -296.717578 
L 651.904741 -296.037358 
L 652.463196 -295.357138 
L 653.033197 -294.676918 
L 653.613153 -293.996697 
L 654.202961 -293.316477 
L 654.804319 -292.636257 
L 655.420948 -291.956037 
L 656.058698 -291.275817 
L 656.725506 -290.595597 
L 657.431197 -289.915376 
L 658.187118 -289.235156 
L 659.005607 -288.554936 
L 659.899334 -287.874716 
L 660.880521 -287.194496 
L 661.960105 -286.514276 
L 663.146877 -285.834055 
L 664.44666 -285.153835 
L 665.86158 -284.473615 
L 667.389474 -283.793395 
L 669.023492 -283.113175 
L 670.751903 -282.432955 
L 672.558147 -281.752734 
L 674.421125 -281.072514 
L 676.315719 -280.392294 
L 678.213512 -279.712074 
L 680.083687 -279.031854 
L 681.894038 -278.351634 
L 683.612058 -277.671413 
L 685.206045 -276.991193 
L 686.64617 -276.310973 
L 687.905461 -275.630753 
L 688.960667 -274.950533 
L 689.792958 -274.270313 
L 690.388451 -273.590092 
L 690.738534 -272.909872 
L 690.84 -272.229652 
L 690.69499 -271.549432 
L 690.310753 -270.869212 
L 689.699257 -270.188992 
L 688.876662 -269.508771 
L 687.862686 -268.828551 
L 686.679908 -268.148331 
L 685.353014 -267.468111 
L 683.908036 -266.787891 
L 682.371599 -266.107671 
L 680.770206 -265.42745 
L 679.129574 -264.74723 
L 677.474054 -264.06701 
L 675.826117 -263.38679 
L 674.205944 -262.70657 
L 672.631103 -262.02635 
L 671.116322 -261.346129 
L 669.673347 -260.665909 
L 668.310894 -259.985689 
L 667.034671 -259.305469 
L 665.847481 -258.625249 
L 664.749396 -257.945029 
L 663.737982 -257.264808 
L 662.808597 -256.584588 
L 661.954723 -255.904368 
L 661.168354 -255.224148 
L 660.440409 -254.543928 
L 659.76117 -253.863708 
L 659.120724 -253.183487 
L 658.509398 -252.503267 
L 657.918167 -251.823047 
L 657.339019 -251.142827 
L 656.765251 -250.462607 
L 656.1917 -249.782387 
L 655.614879 -249.102166 
L 655.033021 -248.421946 
L 654.446034 -247.741726 
L 653.85537 -247.061506 
L 653.263811 -246.381286 
L 652.675207 -245.701066 
L 652.094164 -245.020845 
L 651.525719 -244.340625 
L 650.975021 -243.660405 
L 650.447023 -242.980185 
L 649.946225 -242.299965 
L 649.476464 -241.619744 
L 649.040758 -240.939524 
L 648.641219 -240.259304 
L 648.279023 -239.579084 
L 647.954433 -238.898864 
L 647.666869 -238.218644 
L 647.415017 -237.538423 
L 647.196952 -236.858203 
z
" style="stroke: #404040; stroke-width: 1.25"/>
    </defs>
    <g clip-path="url(#p39e518a2ff)">
     <use xlink:href="#m0e1cf94468" x="0" y="360" style="fill: #e6e6e6; stroke: #404040; stroke-width: 1.25"/>
    </g>
   </g>
   <g id="PolyCollection_6">
    <defs>
     <path id="m105eb0f9ee" d="M 760.131794 -229.897668 
L 755.468206 -229.897668 
L 755.032876 -230.487239 
L 754.538005 -231.076811 
L 753.979995 -231.666383 
L 753.35592 -232.255954 
L 752.663709 -232.845526 
L 751.902317 -233.435098 
L 751.071891 -234.024669 
L 750.173902 -234.614241 
L 749.211259 -235.203813 
L 748.188372 -235.793384 
L 747.111174 -236.382956 
L 745.98709 -236.972528 
L 744.824938 -237.562099 
L 743.634788 -238.151671 
L 742.427748 -238.741243 
L 741.215708 -239.330814 
L 740.011035 -239.920386 
L 738.826232 -240.509958 
L 737.673587 -241.099529 
L 736.564799 -241.689101 
L 735.510632 -242.278673 
L 734.520584 -242.868244 
L 733.602603 -243.457816 
L 732.762855 -244.047388 
L 732.005558 -244.636959 
L 731.332892 -245.226531 
L 730.744983 -245.816103 
L 730.239964 -246.405674 
L 729.814107 -246.995246 
L 729.462022 -247.584818 
L 729.176907 -248.174389 
L 728.950837 -248.763961 
L 728.775079 -249.353533 
L 728.64042 -249.943104 
L 728.537485 -250.532676 
L 728.457044 -251.122248 
L 728.390281 -251.71182 
L 728.329037 -252.301391 
L 728.266004 -252.890963 
L 728.194877 -253.480535 
L 728.110453 -254.070106 
L 728.008705 -254.659678 
L 727.886799 -255.24925 
L 727.743093 -255.838821 
L 727.577103 -256.428393 
L 727.389453 -257.017965 
L 727.181811 -257.607536 
L 726.956816 -258.197108 
L 726.717998 -258.78668 
L 726.4697 -259.376251 
L 726.216993 -259.965823 
L 725.965593 -260.555395 
L 725.721773 -261.144966 
L 725.492269 -261.734538 
L 725.284183 -262.32411 
L 725.104878 -262.913681 
L 724.961858 -263.503253 
L 724.862645 -264.092825 
L 724.814643 -264.682396 
L 724.824994 -265.271968 
L 724.900431 -265.86154 
L 725.047121 -266.451111 
L 725.27052 -267.040683 
L 725.575223 -267.630255 
L 725.964827 -268.219826 
L 726.441818 -268.809398 
L 727.00746 -269.39897 
L 727.661726 -269.988541 
L 728.403244 -270.578113 
L 729.229283 -271.167685 
L 730.135761 -271.757256 
L 731.1173 -272.346828 
L 732.167302 -272.9364 
L 733.278063 -273.525971 
L 734.440922 -274.115543 
L 735.64642 -274.705115 
L 736.884498 -275.294686 
L 738.1447 -275.884258 
L 739.416385 -276.47383 
L 740.68895 -277.063401 
L 741.952035 -277.652973 
L 743.195736 -278.242545 
L 744.410782 -278.832116 
L 745.588703 -279.421688 
L 746.721963 -280.01126 
L 747.804071 -280.600831 
L 748.829651 -281.190403 
L 749.794482 -281.779975 
L 750.695511 -282.369546 
L 751.530821 -282.959118 
L 752.299589 -283.54869 
L 753.002001 -284.138261 
L 753.639164 -284.727833 
L 754.212987 -285.317405 
L 754.726065 -285.906976 
L 755.181548 -286.496548 
L 755.583015 -287.08612 
L 755.93435 -287.675691 
L 756.239626 -288.265263 
L 759.360374 -288.265263 
L 759.360374 -288.265263 
L 759.66565 -287.675691 
L 760.016985 -287.08612 
L 760.418452 -286.496548 
L 760.873935 -285.906976 
L 761.387013 -285.317405 
L 761.960836 -284.727833 
L 762.597999 -284.138261 
L 763.300411 -283.54869 
L 764.069179 -282.959118 
L 764.904489 -282.369546 
L 765.805518 -281.779975 
L 766.770349 -281.190403 
L 767.795929 -280.600831 
L 768.878037 -280.01126 
L 770.011297 -279.421688 
L 771.189218 -278.832116 
L 772.404264 -278.242545 
L 773.647965 -277.652973 
L 774.91105 -277.063401 
L 776.183615 -276.47383 
L 777.4553 -275.884258 
L 778.715502 -275.294686 
L 779.95358 -274.705115 
L 781.159078 -274.115543 
L 782.321937 -273.525971 
L 783.432698 -272.9364 
L 784.4827 -272.346828 
L 785.464239 -271.757256 
L 786.370717 -271.167685 
L 787.196756 -270.578113 
L 787.938274 -269.988541 
L 788.59254 -269.39897 
L 789.158182 -268.809398 
L 789.635173 -268.219826 
L 790.024777 -267.630255 
L 790.32948 -267.040683 
L 790.552879 -266.451111 
L 790.699569 -265.86154 
L 790.775006 -265.271968 
L 790.785357 -264.682396 
L 790.737355 -264.092825 
L 790.638142 -263.503253 
L 790.495122 -262.913681 
L 790.315817 -262.32411 
L 790.107731 -261.734538 
L 789.878227 -261.144966 
L 789.634407 -260.555395 
L 789.383007 -259.965823 
L 789.1303 -259.376251 
L 788.882002 -258.78668 
L 788.643184 -258.197108 
L 788.418189 -257.607536 
L 788.210547 -257.017965 
L 788.022897 -256.428393 
L 787.856907 -255.838821 
L 787.713201 -255.24925 
L 787.591295 -254.659678 
L 787.489547 -254.070106 
L 787.405123 -253.480535 
L 787.333996 -252.890963 
L 787.270963 -252.301391 
L 787.209719 -251.71182 
L 787.142956 -251.122248 
L 787.062515 -250.532676 
L 786.95958 -249.943104 
L 786.824921 -249.353533 
L 786.649163 -248.763961 
L 786.423093 -248.174389 
L 786.137978 -247.584818 
L 785.785893 -246.995246 
L 785.360036 -246.405674 
L 784.855017 -245.816103 
L 784.267108 -245.226531 
L 783.594442 -244.636959 
L 782.837145 -244.047388 
L 781.997397 -243.457816 
L 781.079416 -242.868244 
L 780.089368 -242.278673 
L 779.035201 -241.689101 
L 777.926413 -241.099529 
L 776.773768 -240.509958 
L 775.588965 -239.920386 
L 774.384292 -239.330814 
L 773.172252 -238.741243 
L 771.965212 -238.151671 
L 770.775062 -237.562099 
L 769.61291 -236.972528 
L 768.488826 -236.382956 
L 767.411628 -235.793384 
L 766.388741 -235.203813 
L 765.426098 -234.614241 
L 764.528109 -234.024669 
L 763.697683 -233.435098 
L 762.936291 -232.845526 
L 762.24408 -232.255954 
L 761.620005 -231.666383 
L 761.061995 -231.076811 
L 760.567124 -230.487239 
L 760.131794 -229.897668 
z
" style="stroke: #404040; stroke-width: 1.25"/>
    </defs>
    <g clip-path="url(#p39e518a2ff)">
     <use xlink:href="#m105eb0f9ee" x="0" y="360" style="fill: #e6e6e6; stroke: #404040; stroke-width: 1.25"/>
    </g>
   </g>
   <g id="PolyCollection_7">
    <defs>
     <path id="m2c4b732896" d="M 869.94051 -52.2 
L 868.85949 -52.2 
L 868.745484 -54.257662 
L 868.61331 -56.315324 
L 868.461436 -58.372986 
L 868.288496 -60.430648 
L 868.093359 -62.48831 
L 867.875203 -64.545972 
L 867.633589 -66.603634 
L 867.368531 -68.661295 
L 867.080559 -70.718957 
L 866.770766 -72.776619 
L 866.440844 -74.834281 
L 866.093098 -76.891943 
L 865.730437 -78.949605 
L 865.356338 -81.007267 
L 864.974787 -83.064929 
L 864.590191 -85.122591 
L 864.207263 -87.180253 
L 863.83089 -89.237915 
L 863.46598 -91.295577 
L 863.117293 -93.353239 
L 862.789276 -95.410901 
L 862.485886 -97.468563 
L 862.210435 -99.526224 
L 861.965444 -101.583886 
L 861.752521 -103.641548 
L 861.572274 -105.69921 
L 861.424257 -107.756872 
L 861.306954 -109.814534 
L 861.217807 -111.872196 
L 861.153288 -113.929858 
L 861.109012 -115.98752 
L 861.079885 -118.045182 
L 861.060291 -120.102844 
L 861.044305 -122.160506 
L 861.025925 -124.218168 
L 860.999318 -126.27583 
L 860.959065 -128.333491 
L 860.900404 -130.391153 
L 860.819449 -132.448815 
L 860.713383 -134.506477 
L 860.580618 -136.564139 
L 860.420903 -138.621801 
L 860.23539 -140.679463 
L 860.026632 -142.737125 
L 859.798533 -144.794787 
L 859.556233 -146.852449 
L 859.305942 -148.910111 
L 859.054718 -150.967773 
L 858.810212 -153.025435 
L 858.580378 -155.083097 
L 858.373161 -157.140759 
L 858.196194 -159.19842 
L 858.056492 -161.256082 
L 857.960181 -163.313744 
L 857.91226 -165.371406 
L 857.916421 -167.429068 
L 857.974916 -169.48673 
L 858.088502 -171.544392 
L 858.256441 -173.602054 
L 858.476572 -175.659716 
L 858.745439 -177.717378 
L 859.058472 -179.77504 
L 859.410207 -181.832702 
L 859.794531 -183.890364 
L 860.204943 -185.948026 
L 860.634811 -188.005688 
L 861.077615 -190.063349 
L 861.527166 -192.121011 
L 861.977787 -194.178673 
L 862.424451 -196.236335 
L 862.862878 -198.293997 
L 863.28958 -200.351659 
L 863.701868 -202.409321 
L 864.097816 -204.466983 
L 864.476196 -206.524645 
L 864.836385 -208.582307 
L 865.178261 -210.639969 
L 865.502086 -212.697631 
L 865.808396 -214.755293 
L 866.097898 -216.812955 
L 866.371371 -218.870617 
L 866.629599 -220.928278 
L 866.873311 -222.98594 
L 867.103142 -225.043602 
L 867.319621 -227.101264 
L 867.523161 -229.158926 
L 867.714077 -231.216588 
L 867.892598 -233.27425 
L 868.058903 -235.331912 
L 868.213144 -237.389574 
L 868.355476 -239.447236 
L 868.486084 -241.504898 
L 868.605201 -243.56256 
L 868.713129 -245.620222 
L 868.810242 -247.677884 
L 868.89699 -249.735546 
L 868.973897 -251.793207 
L 869.041551 -253.850869 
L 869.100595 -255.908531 
L 869.699405 -255.908531 
L 869.699405 -255.908531 
L 869.758449 -253.850869 
L 869.826103 -251.793207 
L 869.90301 -249.735546 
L 869.989758 -247.677884 
L 870.086871 -245.620222 
L 870.194799 -243.56256 
L 870.313916 -241.504898 
L 870.444524 -239.447236 
L 870.586856 -237.389574 
L 870.741097 -235.331912 
L 870.907402 -233.27425 
L 871.085923 -231.216588 
L 871.276839 -229.158926 
L 871.480379 -227.101264 
L 871.696858 -225.043602 
L 871.926689 -222.98594 
L 872.170401 -220.928278 
L 872.428629 -218.870617 
L 872.702102 -216.812955 
L 872.991604 -214.755293 
L 873.297914 -212.697631 
L 873.621739 -210.639969 
L 873.963615 -208.582307 
L 874.323804 -206.524645 
L 874.702184 -204.466983 
L 875.098132 -202.409321 
L 875.51042 -200.351659 
L 875.937122 -198.293997 
L 876.375549 -196.236335 
L 876.822213 -194.178673 
L 877.272834 -192.121011 
L 877.722385 -190.063349 
L 878.165189 -188.005688 
L 878.595057 -185.948026 
L 879.005469 -183.890364 
L 879.389793 -181.832702 
L 879.741528 -179.77504 
L 880.054561 -177.717378 
L 880.323428 -175.659716 
L 880.543559 -173.602054 
L 880.711498 -171.544392 
L 880.825084 -169.48673 
L 880.883579 -167.429068 
L 880.88774 -165.371406 
L 880.839819 -163.313744 
L 880.743508 -161.256082 
L 880.603806 -159.19842 
L 880.426839 -157.140759 
L 880.219622 -155.083097 
L 879.989788 -153.025435 
L 879.745282 -150.967773 
L 879.494058 -148.910111 
L 879.243767 -146.852449 
L 879.001467 -144.794787 
L 878.773368 -142.737125 
L 878.56461 -140.679463 
L 878.379097 -138.621801 
L 878.219382 -136.564139 
L 878.086617 -134.506477 
L 877.980551 -132.448815 
L 877.899596 -130.391153 
L 877.840935 -128.333491 
L 877.800682 -126.27583 
L 877.774075 -124.218168 
L 877.755695 -122.160506 
L 877.739709 -120.102844 
L 877.720115 -118.045182 
L 877.690988 -115.98752 
L 877.646712 -113.929858 
L 877.582193 -111.872196 
L 877.493046 -109.814534 
L 877.375743 -107.756872 
L 877.227726 -105.69921 
L 877.047479 -103.641548 
L 876.834556 -101.583886 
L 876.589565 -99.526224 
L 876.314114 -97.468563 
L 876.010724 -95.410901 
L 875.682707 -93.353239 
L 875.33402 -91.295577 
L 874.96911 -89.237915 
L 874.592737 -87.180253 
L 874.209809 -85.122591 
L 873.825213 -83.064929 
L 873.443662 -81.007267 
L 873.069563 -78.949605 
L 872.706902 -76.891943 
L 872.359156 -74.834281 
L 872.029234 -72.776619 
L 871.719441 -70.718957 
L 871.431469 -68.661295 
L 871.166411 -66.603634 
L 870.924797 -64.545972 
L 870.706641 -62.48831 
L 870.511504 -60.430648 
L 870.338564 -58.372986 
L 870.18669 -56.315324 
L 870.054516 -54.257662 
L 869.94051 -52.2 
z
" style="stroke: #404040; stroke-width: 1.25"/>
    </defs>
    <g clip-path="url(#p39e518a2ff)">
     <use xlink:href="#m2c4b732896" x="0" y="360" style="fill: #e6e6e6; stroke: #404040; stroke-width: 1.25"/>
    </g>
   </g>
   <g id="PolyCollection_8">
    <defs>
     <path id="m72b84094c3" d="M 981.824282 -66.827009 
L 980.175718 -66.827009 
L 980.01178 -68.428506 
L 979.823631 -70.030003 
L 979.609553 -71.6315 
L 979.368089 -73.232996 
L 979.098132 -74.834493 
L 978.799009 -76.43599 
L 978.470563 -78.037487 
L 978.113234 -79.638984 
L 977.728114 -81.240481 
L 977.317002 -82.841978 
L 976.882418 -84.443474 
L 976.42761 -86.044971 
L 975.956522 -87.646468 
L 975.473735 -89.247965 
L 974.984376 -90.849462 
L 974.494002 -92.450959 
L 974.00845 -94.052456 
L 973.533674 -95.653952 
L 973.075556 -97.255449 
L 972.639716 -98.856946 
L 972.231315 -100.458443 
L 971.854869 -102.05994 
L 971.514074 -103.661437 
L 971.211664 -105.262934 
L 970.949291 -106.86443 
L 970.727453 -108.465927 
L 970.545455 -110.067424 
L 970.401427 -111.668921 
L 970.292379 -113.270418 
L 970.214308 -114.871915 
L 970.162341 -116.473412 
L 970.130922 -118.074909 
L 970.114022 -119.676405 
L 970.10537 -121.277902 
L 970.0987 -122.879399 
L 970.087993 -124.480896 
L 970.067717 -126.082393 
L 970.033039 -127.68389 
L 969.980021 -129.285387 
L 969.905771 -130.886883 
L 969.808554 -132.48838 
L 969.687866 -134.089877 
L 969.544445 -135.691374 
L 969.38025 -137.292871 
L 969.198376 -138.894368 
L 969.002942 -140.495865 
L 968.798931 -142.097361 
L 968.592004 -143.698858 
L 968.38829 -145.300355 
L 968.194167 -146.901852 
L 968.016035 -148.503349 
L 967.860092 -150.104846 
L 967.732138 -151.706343 
L 967.637382 -153.307839 
L 967.580295 -154.909336 
L 967.564487 -156.510833 
L 967.592625 -158.11233 
L 967.666387 -159.713827 
L 967.786457 -161.315324 
L 967.952552 -162.916821 
L 968.163489 -164.518317 
L 968.417265 -166.119814 
L 968.711173 -167.721311 
L 969.041923 -169.322808 
L 969.405776 -170.924305 
L 969.798674 -172.525802 
L 970.216373 -174.127299 
L 970.654559 -175.728795 
L 971.108957 -177.330292 
L 971.575418 -178.931789 
L 972.049991 -180.533286 
L 972.528974 -182.134783 
L 973.008954 -183.73628 
L 973.486819 -185.337777 
L 973.959769 -186.939273 
L 974.425303 -188.54077 
L 974.88121 -190.142267 
L 975.325545 -191.743764 
L 975.756612 -193.345261 
L 976.172936 -194.946758 
L 976.573248 -196.548255 
L 976.956466 -198.149752 
L 977.321683 -199.751248 
L 977.66816 -201.352745 
L 977.995316 -202.954242 
L 978.302734 -204.555739 
L 978.590153 -206.157236 
L 978.857475 -207.758733 
L 979.104759 -209.36023 
L 979.332225 -210.961726 
L 979.540248 -212.563223 
L 979.729349 -214.16472 
L 979.900189 -215.766217 
L 980.053552 -217.367714 
L 980.190331 -218.969211 
L 980.311508 -220.570708 
L 980.418136 -222.172204 
L 980.511313 -223.773701 
L 980.592166 -225.375198 
L 981.407834 -225.375198 
L 981.407834 -225.375198 
L 981.488687 -223.773701 
L 981.581864 -222.172204 
L 981.688492 -220.570708 
L 981.809669 -218.969211 
L 981.946448 -217.367714 
L 982.099811 -215.766217 
L 982.270651 -214.16472 
L 982.459752 -212.563223 
L 982.667775 -210.961726 
L 982.895241 -209.36023 
L 983.142525 -207.758733 
L 983.409847 -206.157236 
L 983.697266 -204.555739 
L 984.004684 -202.954242 
L 984.33184 -201.352745 
L 984.678317 -199.751248 
L 985.043534 -198.149752 
L 985.426752 -196.548255 
L 985.827064 -194.946758 
L 986.243388 -193.345261 
L 986.674455 -191.743764 
L 987.11879 -190.142267 
L 987.574697 -188.54077 
L 988.040231 -186.939273 
L 988.513181 -185.337777 
L 988.991046 -183.73628 
L 989.471026 -182.134783 
L 989.950009 -180.533286 
L 990.424582 -178.931789 
L 990.891043 -177.330292 
L 991.345441 -175.728795 
L 991.783627 -174.127299 
L 992.201326 -172.525802 
L 992.594224 -170.924305 
L 992.958077 -169.322808 
L 993.288827 -167.721311 
L 993.582735 -166.119814 
L 993.836511 -164.518317 
L 994.047448 -162.916821 
L 994.213543 -161.315324 
L 994.333613 -159.713827 
L 994.407375 -158.11233 
L 994.435513 -156.510833 
L 994.419705 -154.909336 
L 994.362618 -153.307839 
L 994.267862 -151.706343 
L 994.139908 -150.104846 
L 993.983965 -148.503349 
L 993.805833 -146.901852 
L 993.61171 -145.300355 
L 993.407996 -143.698858 
L 993.201069 -142.097361 
L 992.997058 -140.495865 
L 992.801624 -138.894368 
L 992.61975 -137.292871 
L 992.455555 -135.691374 
L 992.312134 -134.089877 
L 992.191446 -132.48838 
L 992.094229 -130.886883 
L 992.019979 -129.285387 
L 991.966961 -127.68389 
L 991.932283 -126.082393 
L 991.912007 -124.480896 
L 991.9013 -122.879399 
L 991.89463 -121.277902 
L 991.885978 -119.676405 
L 991.869078 -118.074909 
L 991.837659 -116.473412 
L 991.785692 -114.871915 
L 991.707621 -113.270418 
L 991.598573 -111.668921 
L 991.454545 -110.067424 
L 991.272547 -108.465927 
L 991.050709 -106.86443 
L 990.788336 -105.262934 
L 990.485926 -103.661437 
L 990.145131 -102.05994 
L 989.768685 -100.458443 
L 989.360284 -98.856946 
L 988.924444 -97.255449 
L 988.466326 -95.653952 
L 987.99155 -94.052456 
L 987.505998 -92.450959 
L 987.015624 -90.849462 
L 986.526265 -89.247965 
L 986.043478 -87.646468 
L 985.57239 -86.044971 
L 985.117582 -84.443474 
L 984.682998 -82.841978 
L 984.271886 -81.240481 
L 983.886766 -79.638984 
L 983.529437 -78.037487 
L 983.200991 -76.43599 
L 982.901868 -74.834493 
L 982.631911 -73.232996 
L 982.390447 -71.6315 
L 982.176369 -70.030003 
L 981.98822 -68.428506 
L 981.824282 -66.827009 
z
" style="stroke: #404040; stroke-width: 1.25"/>
    </defs>
    <g clip-path="url(#p39e518a2ff)">
     <use xlink:href="#m72b84094c3" x="0" y="360" style="fill: #e6e6e6; stroke: #404040; stroke-width: 1.25"/>
    </g>
   </g>
   <g id="patch_3">
    <path d="M 144 320.4 
L 144 43.2 
" style="fill: none; stroke: #cccccc; stroke-width: 1.25; stroke-linejoin: miter; stroke-linecap: square"/>
   </g>
   <g id="patch_4">
    <path d="M 1036.8 320.4 
L 1036.8 43.2 
" style="fill: none; stroke: #cccccc; stroke-width: 1.25; stroke-linejoin: miter; stroke-linecap: square"/>
   </g>
   <g id="patch_5">
    <path d="M 144 320.4 
L 1036.8 320.4 
" style="fill: none; stroke: #cccccc; stroke-width: 1.25; stroke-linejoin: miter; stroke-linecap: square"/>
   </g>
   <g id="patch_6">
    <path d="M 144 43.2 
L 1036.8 43.2 
" style="fill: none; stroke: #cccccc; stroke-width: 1.25; stroke-linejoin: miter; stroke-linecap: square"/>
   </g>
   <g id="PathCollection_1">
    <defs>
     <path id="C0_0_c1268d1715" d="M 0 1.5 
C 0.397805 1.5 0.77937 1.341951 1.06066 1.06066 
C 1.341951 0.77937 1.5 0.397805 1.5 -0 
C 1.5 -0.397805 1.341951 -0.77937 1.06066 -1.06066 
C 0.77937 -1.341951 0.397805 -1.5 0 -1.5 
C -0.397805 -1.5 -0.77937 -1.341951 -1.06066 -1.06066 
C -1.341951 -0.77937 -1.5 -0.397805 -1.5 0 
C -1.5 0.397805 -1.341951 0.77937 -1.06066 1.06066 
C -0.77937 1.341951 -0.397805 1.5 0 1.5 
z
"/>
    </defs>
    <g clip-path="url(#p39e518a2ff)">
     <use xlink:href="#C0_0_c1268d1715" x="199.8" y="182.021332" style="fill: #4c72b0"/>
    </g>
    <g clip-path="url(#p39e518a2ff)">
     <use xlink:href="#C0_0_c1268d1715" x="199.8" y="131.045938" style="fill: #4c72b0"/>
    </g>
    <g clip-path="url(#p39e518a2ff)">
     <use xlink:href="#C0_0_c1268d1715" x="199.8" y="218.722192" style="fill: #4c72b0"/>
    </g>
    <g clip-path="url(#p39e518a2ff)">
     <use xlink:href="#C0_0_c1268d1715" x="199.8" y="207.941017" style="fill: #4c72b0"/>
    </g>
    <g clip-path="url(#p39e518a2ff)">
     <use xlink:href="#C0_0_c1268d1715" x="199.8" y="155.960164" style="fill: #4c72b0"/>
    </g>
    <g clip-path="url(#p39e518a2ff)">
     <use xlink:href="#C0_0_c1268d1715" x="199.8" y="145.510659" style="fill: #4c72b0"/>
    </g>
    <g clip-path="url(#p39e518a2ff)">
     <use xlink:href="#C0_0_c1268d1715" x="199.8" y="192.148484" style="fill: #4c72b0"/>
    </g>
    <g clip-path="url(#p39e518a2ff)">
     <use xlink:href="#C0_0_c1268d1715" x="197.453606" y="129.044366" style="fill: #4c72b0"/>
    </g>
    <g clip-path="url(#p39e518a2ff)">
     <use xlink:href="#C0_0_c1268d1715" x="199.8" y="173.730303" style="fill: #4c72b0"/>
    </g>
    <g clip-path="url(#p39e518a2ff)">
     <use xlink:href="#C0_0_c1268d1715" x="196.923294" y="144.288392" style="fill: #4c72b0"/>
    </g>
   </g>
   <g id="PathCollection_2">
    <defs>
     <path id="C1_0_85675db217" d="M 0 1.5 
C 0.397805 1.5 0.77937 1.341951 1.06066 1.06066 
C 1.341951 0.77937 1.5 0.397805 1.5 -0 
C 1.5 -0.397805 1.341951 -0.77937 1.06066 -1.06066 
C 0.77937 -1.341951 0.397805 -1.5 0 -1.5 
C -0.397805 -1.5 -0.77937 -1.341951 -1.06066 -1.06066 
C -1.341951 -0.77937 -1.5 -0.397805 -1.5 0 
C -1.5 0.397805 -1.341951 0.77937 -1.06066 1.06066 
C -0.77937 1.341951 -0.397805 1.5 0 1.5 
z
"/>
    </defs>
    <g clip-path="url(#p39e518a2ff)">
     <use xlink:href="#C1_0_85675db217" x="308.457095" y="176.435196" style="fill: #c44e52"/>
    </g>
    <g clip-path="url(#p39e518a2ff)">
     <use xlink:href="#C1_0_85675db217" x="311.4" y="130.493574" style="fill: #c44e52"/>
    </g>
    <g clip-path="url(#p39e518a2ff)">
     <use xlink:href="#C1_0_85675db217" x="311.4" y="205.014801" style="fill: #c44e52"/>
    </g>
    <g clip-path="url(#p39e518a2ff)">
     <use xlink:href="#C1_0_85675db217" x="311.4" y="187.41336" style="fill: #c44e52"/>
    </g>
    <g clip-path="url(#p39e518a2ff)">
     <use xlink:href="#C1_0_85675db217" x="311.4" y="138.40893" style="fill: #c44e52"/>
    </g>
    <g clip-path="url(#p39e518a2ff)">
     <use xlink:href="#C1_0_85675db217" x="311.4" y="115.723327" style="fill: #c44e52"/>
    </g>
    <g clip-path="url(#p39e518a2ff)">
     <use xlink:href="#C1_0_85675db217" x="311.4" y="177.50501" style="fill: #c44e52"/>
    </g>
    <g clip-path="url(#p39e518a2ff)">
     <use xlink:href="#C1_0_85675db217" x="311.4" y="104.84119" style="fill: #c44e52"/>
    </g>
    <g clip-path="url(#p39e518a2ff)">
     <use xlink:href="#C1_0_85675db217" x="311.4" y="162.561282" style="fill: #c44e52"/>
    </g>
    <g clip-path="url(#p39e518a2ff)">
     <use xlink:href="#C1_0_85675db217" x="311.4" y="120.60231" style="fill: #c44e52"/>
    </g>
   </g>
   <g id="PathCollection_3">
    <defs>
     <path id="C2_0_c80d8f0b71" d="M 0 1.5 
C 0.397805 1.5 0.77937 1.341951 1.06066 1.06066 
C 1.341951 0.77937 1.5 0.397805 1.5 -0 
C 1.5 -0.397805 1.341951 -0.77937 1.06066 -1.06066 
C 0.77937 -1.341951 0.397805 -1.5 0 -1.5 
C -0.397805 -1.5 -0.77937 -1.341951 -1.06066 -1.06066 
C -1.341951 -0.77937 -1.5 -0.397805 -1.5 0 
C -1.5 0.397805 -1.341951 0.77937 -1.06066 1.06066 
C -0.77937 1.341951 -0.397805 1.5 0 1.5 
z
"/>
    </defs>
    <g clip-path="url(#p39e518a2ff)">
     <use xlink:href="#C2_0_c80d8f0b71" x="423" y="226.036458" style="fill: #4c72b0"/>
    </g>
    <g clip-path="url(#p39e518a2ff)">
     <use xlink:href="#C2_0_c80d8f0b71" x="420.412828" y="214.743399" style="fill: #4c72b0"/>
    </g>
    <g clip-path="url(#p39e518a2ff)">
     <use xlink:href="#C2_0_c80d8f0b71" x="423" y="182.704603" style="fill: #4c72b0"/>
    </g>
    <g clip-path="url(#p39e518a2ff)">
     <use xlink:href="#C2_0_c80d8f0b71" x="420.906391" y="180.463105" style="fill: #4c72b0"/>
    </g>
    <g clip-path="url(#p39e518a2ff)">
     <use xlink:href="#C2_0_c80d8f0b71" x="423" y="199.749177" style="fill: #4c72b0"/>
    </g>
    <g clip-path="url(#p39e518a2ff)">
     <use xlink:href="#C2_0_c80d8f0b71" x="420.182108" y="221.322502" style="fill: #4c72b0"/>
    </g>
    <g clip-path="url(#p39e518a2ff)">
     <use xlink:href="#C2_0_c80d8f0b71" x="423" y="222.663293" style="fill: #4c72b0"/>
    </g>
    <g clip-path="url(#p39e518a2ff)">
     <use xlink:href="#C2_0_c80d8f0b71" x="423" y="216.454783" style="fill: #4c72b0"/>
    </g>
    <g clip-path="url(#p39e518a2ff)">
     <use xlink:href="#C2_0_c80d8f0b71" x="423" y="237.259963" style="fill: #4c72b0"/>
    </g>
    <g clip-path="url(#p39e518a2ff)">
     <use xlink:href="#C2_0_c80d8f0b71" x="423" y="168.549991" style="fill: #4c72b0"/>
    </g>
   </g>
   <g id="PathCollection_4">
    <defs>
     <path id="C3_0_3084a18012" d="M 0 1.5 
C 0.397805 1.5 0.77937 1.341951 1.06066 1.06066 
C 1.341951 0.77937 1.5 0.397805 1.5 -0 
C 1.5 -0.397805 1.341951 -0.77937 1.06066 -1.06066 
C 0.77937 -1.341951 0.397805 -1.5 0 -1.5 
C -0.397805 -1.5 -0.77937 -1.341951 -1.06066 -1.06066 
C -1.341951 -0.77937 -1.5 -0.397805 -1.5 0 
C -1.5 0.397805 -1.341951 0.77937 -1.06066 1.06066 
C -0.77937 1.341951 -0.397805 1.5 0 1.5 
z
"/>
    </defs>
    <g clip-path="url(#p39e518a2ff)">
     <use xlink:href="#C3_0_3084a18012" x="534.6" y="194.1502" style="fill: #c44e52"/>
    </g>
    <g clip-path="url(#p39e518a2ff)">
     <use xlink:href="#C3_0_3084a18012" x="534.6" y="174.896261" style="fill: #c44e52"/>
    </g>
    <g clip-path="url(#p39e518a2ff)">
     <use xlink:href="#C3_0_3084a18012" x="534.6" y="135.790961" style="fill: #c44e52"/>
    </g>
    <g clip-path="url(#p39e518a2ff)">
     <use xlink:href="#C3_0_3084a18012" x="534.6" y="150.264379" style="fill: #c44e52"/>
    </g>
    <g clip-path="url(#p39e518a2ff)">
     <use xlink:href="#C3_0_3084a18012" x="534.6" y="188.313585" style="fill: #c44e52"/>
    </g>
    <g clip-path="url(#p39e518a2ff)">
     <use xlink:href="#C3_0_3084a18012" x="531.484303" y="193.708669" style="fill: #c44e52"/>
    </g>
    <g clip-path="url(#p39e518a2ff)">
     <use xlink:href="#C3_0_3084a18012" x="534.6" y="197.630081" style="fill: #c44e52"/>
    </g>
    <g clip-path="url(#p39e518a2ff)">
     <use xlink:href="#C3_0_3084a18012" x="537.508237" y="192.9976" style="fill: #c44e52"/>
    </g>
    <g clip-path="url(#p39e518a2ff)">
     <use xlink:href="#C3_0_3084a18012" x="534.6" y="227.172807" style="fill: #c44e52"/>
    </g>
    <g clip-path="url(#p39e518a2ff)">
     <use xlink:href="#C3_0_3084a18012" x="534.6" y="143.502012" style="fill: #c44e52"/>
    </g>
   </g>
   <g id="PathCollection_5">
    <defs>
     <path id="C4_0_84a4d6abc1" d="M 0 1.5 
C 0.397805 1.5 0.77937 1.341951 1.06066 1.06066 
C 1.341951 0.77937 1.5 0.397805 1.5 -0 
C 1.5 -0.397805 1.341951 -0.77937 1.06066 -1.06066 
C 0.77937 -1.341951 0.397805 -1.5 0 -1.5 
C -0.397805 -1.5 -0.77937 -1.341951 -1.06066 -1.06066 
C -1.341951 -0.77937 -1.5 -0.397805 -1.5 0 
C -1.5 0.397805 -1.341951 0.77937 -1.06066 1.06066 
C -0.77937 1.341951 -0.397805 1.5 0 1.5 
z
"/>
    </defs>
    <g clip-path="url(#p39e518a2ff)">
     <use xlink:href="#C4_0_84a4d6abc1" x="646.2" y="69.436843" style="fill: #4c72b0"/>
    </g>
    <g clip-path="url(#p39e518a2ff)">
     <use xlink:href="#C4_0_84a4d6abc1" x="646.2" y="109.504953" style="fill: #4c72b0"/>
    </g>
    <g clip-path="url(#p39e518a2ff)">
     <use xlink:href="#C4_0_84a4d6abc1" x="644.482365" y="91.078714" style="fill: #4c72b0"/>
    </g>
    <g clip-path="url(#p39e518a2ff)">
     <use xlink:href="#C4_0_84a4d6abc1" x="647.268465" y="81.808931" style="fill: #4c72b0"/>
    </g>
    <g clip-path="url(#p39e518a2ff)">
     <use xlink:href="#C4_0_84a4d6abc1" x="646.641511" y="88.894336" style="fill: #4c72b0"/>
    </g>
    <g clip-path="url(#p39e518a2ff)">
     <use xlink:href="#C4_0_84a4d6abc1" x="643.513387" y="83.064822" style="fill: #4c72b0"/>
    </g>
    <g clip-path="url(#p39e518a2ff)">
     <use xlink:href="#C4_0_84a4d6abc1" x="643.68772" y="87.85209" style="fill: #4c72b0"/>
    </g>
    <g clip-path="url(#p39e518a2ff)">
     <use xlink:href="#C4_0_84a4d6abc1" x="646.2" y="84.63108" style="fill: #4c72b0"/>
    </g>
    <g clip-path="url(#p39e518a2ff)">
     <use xlink:href="#C4_0_84a4d6abc1" x="646.2" y="93.593475" style="fill: #4c72b0"/>
    </g>
    <g clip-path="url(#p39e518a2ff)">
     <use xlink:href="#C4_0_84a4d6abc1" x="646.2" y="99.727967" style="fill: #4c72b0"/>
    </g>
   </g>
   <g id="PathCollection_6">
    <defs>
     <path id="C5_0_9d6bcfd4a6" d="M 0 1.5 
C 0.397805 1.5 0.77937 1.341951 1.06066 1.06066 
C 1.341951 0.77937 1.5 0.397805 1.5 -0 
C 1.5 -0.397805 1.341951 -0.77937 1.06066 -1.06066 
C 0.77937 -1.341951 0.397805 -1.5 0 -1.5 
C -0.397805 -1.5 -0.77937 -1.341951 -1.06066 -1.06066 
C -1.341951 -0.77937 -1.5 -0.397805 -1.5 0 
C -1.5 0.397805 -1.341951 0.77937 -1.06066 1.06066 
C -0.77937 1.341951 -0.397805 1.5 0 1.5 
z
"/>
    </defs>
    <g clip-path="url(#p39e518a2ff)">
     <use xlink:href="#C5_0_9d6bcfd4a6" x="755.675602" y="85.96669" style="fill: #c44e52"/>
    </g>
    <g clip-path="url(#p39e518a2ff)">
     <use xlink:href="#C5_0_9d6bcfd4a6" x="760.664541" y="114.622467" style="fill: #c44e52"/>
    </g>
    <g clip-path="url(#p39e518a2ff)">
     <use xlink:href="#C5_0_9d6bcfd4a6" x="757.8" y="98.128756" style="fill: #c44e52"/>
    </g>
    <g clip-path="url(#p39e518a2ff)">
     <use xlink:href="#C5_0_9d6bcfd4a6" x="755.189135" y="92.608732" style="fill: #c44e52"/>
    </g>
    <g clip-path="url(#p39e518a2ff)">
     <use xlink:href="#C5_0_9d6bcfd4a6" x="755.718868" y="103.629336" style="fill: #c44e52"/>
    </g>
    <g clip-path="url(#p39e518a2ff)">
     <use xlink:href="#C5_0_9d6bcfd4a6" x="757.8" y="105.881347" style="fill: #c44e52"/>
    </g>
    <g clip-path="url(#p39e518a2ff)">
     <use xlink:href="#C5_0_9d6bcfd4a6" x="757.8" y="88.181756" style="fill: #c44e52"/>
    </g>
    <g clip-path="url(#p39e518a2ff)">
     <use xlink:href="#C5_0_9d6bcfd4a6" x="757.8" y="94.287162" style="fill: #c44e52"/>
    </g>
    <g clip-path="url(#p39e518a2ff)">
     <use xlink:href="#C5_0_9d6bcfd4a6" x="757.8" y="115.870379" style="fill: #c44e52"/>
    </g>
    <g clip-path="url(#p39e518a2ff)">
     <use xlink:href="#C5_0_9d6bcfd4a6" x="754.79714" y="114.964198" style="fill: #c44e52"/>
    </g>
   </g>
   <g id="PathCollection_7">
    <defs>
     <path id="C6_0_94e7b81286" d="M 0 1.5 
C 0.397805 1.5 0.77937 1.341951 1.06066 1.06066 
C 1.341951 0.77937 1.5 0.397805 1.5 -0 
C 1.5 -0.397805 1.341951 -0.77937 1.06066 -1.06066 
C 0.77937 -1.341951 0.397805 -1.5 0 -1.5 
C -0.397805 -1.5 -0.77937 -1.341951 -1.06066 -1.06066 
C -1.341951 -0.77937 -1.5 -0.397805 -1.5 0 
C -1.5 0.397805 -1.341951 0.77937 -1.06066 1.06066 
C -0.77937 1.341951 -0.397805 1.5 0 1.5 
z
"/>
    </defs>
    <g clip-path="url(#p39e518a2ff)">
     <use xlink:href="#C6_0_94e7b81286" x="869.4" y="230.707999" style="fill: #4c72b0"/>
    </g>
    <g clip-path="url(#p39e518a2ff)">
     <use xlink:href="#C6_0_94e7b81286" x="869.4" y="249.594111" style="fill: #4c72b0"/>
    </g>
    <g clip-path="url(#p39e518a2ff)">
     <use xlink:href="#C6_0_94e7b81286" x="866.31827" y="197.014551" style="fill: #4c72b0"/>
    </g>
    <g clip-path="url(#p39e518a2ff)">
     <use xlink:href="#C6_0_94e7b81286" x="869.4" y="254.968939" style="fill: #4c72b0"/>
    </g>
    <g clip-path="url(#p39e518a2ff)">
     <use xlink:href="#C6_0_94e7b81286" x="869.4" y="150.258578" style="fill: #4c72b0"/>
    </g>
    <g clip-path="url(#p39e518a2ff)">
     <use xlink:href="#C6_0_94e7b81286" x="869.4" y="197.635751" style="fill: #4c72b0"/>
    </g>
    <g clip-path="url(#p39e518a2ff)">
     <use xlink:href="#C6_0_94e7b81286" x="869.4" y="193.627555" style="fill: #4c72b0"/>
    </g>
    <g clip-path="url(#p39e518a2ff)">
     <use xlink:href="#C6_0_94e7b81286" x="869.4" y="261.63289" style="fill: #4c72b0"/>
    </g>
    <g clip-path="url(#p39e518a2ff)">
     <use xlink:href="#C6_0_94e7b81286" x="869.4" y="186.407328" style="fill: #4c72b0"/>
    </g>
    <g clip-path="url(#p39e518a2ff)">
     <use xlink:href="#C6_0_94e7b81286" x="866.96923" y="184.49927" style="fill: #4c72b0"/>
    </g>
   </g>
   <g id="PathCollection_8">
    <defs>
     <path id="C7_0_6b46b1839e" d="M 0 1.5 
C 0.397805 1.5 0.77937 1.341951 1.06066 1.06066 
C 1.341951 0.77937 1.5 0.397805 1.5 -0 
C 1.5 -0.397805 1.341951 -0.77937 1.06066 -1.06066 
C 0.77937 -1.341951 0.397805 -1.5 0 -1.5 
C -0.397805 -1.5 -0.77937 -1.341951 -1.06066 -1.06066 
C -1.341951 -0.77937 -1.5 -0.397805 -1.5 0 
C -1.5 0.397805 -1.341951 0.77937 -1.06066 1.06066 
C -0.77937 1.341951 -0.397805 1.5 0 1.5 
z
"/>
    </defs>
    <g clip-path="url(#p39e518a2ff)">
     <use xlink:href="#C7_0_6b46b1839e" x="981" y="235.319279" style="fill: #c44e52"/>
    </g>
    <g clip-path="url(#p39e518a2ff)">
     <use xlink:href="#C7_0_6b46b1839e" x="979.042678" y="253.721655" style="fill: #c44e52"/>
    </g>
    <g clip-path="url(#p39e518a2ff)">
     <use xlink:href="#C7_0_6b46b1839e" x="981" y="208.201683" style="fill: #c44e52"/>
    </g>
    <g clip-path="url(#p39e518a2ff)">
     <use xlink:href="#C7_0_6b46b1839e" x="981" y="249.610977" style="fill: #c44e52"/>
    </g>
    <g clip-path="url(#p39e518a2ff)">
     <use xlink:href="#C7_0_6b46b1839e" x="981" y="171.725592" style="fill: #c44e52"/>
    </g>
    <g clip-path="url(#p39e518a2ff)">
     <use xlink:href="#C7_0_6b46b1839e" x="981" y="189.357449" style="fill: #c44e52"/>
    </g>
    <g clip-path="url(#p39e518a2ff)">
     <use xlink:href="#C7_0_6b46b1839e" x="981" y="212.829154" style="fill: #c44e52"/>
    </g>
    <g clip-path="url(#p39e518a2ff)">
     <use xlink:href="#C7_0_6b46b1839e" x="981" y="256.072201" style="fill: #c44e52"/>
    </g>
    <g clip-path="url(#p39e518a2ff)">
     <use xlink:href="#C7_0_6b46b1839e" x="981" y="204.368065" style="fill: #c44e52"/>
    </g>
    <g clip-path="url(#p39e518a2ff)">
     <use xlink:href="#C7_0_6b46b1839e" x="981" y="195.972437" style="fill: #c44e52"/>
    </g>
   </g>
   <g id="PathCollection_9">
    <defs>
     <path id="m581e5f40bf" d="M 22.36068 0 
L -22.36068 -0 
" style="stroke: #1a1a1a; stroke-width: 1.5"/>
    </defs>
    <g clip-path="url(#p39e518a2ff)">
     <use xlink:href="#m581e5f40bf" x="199.8" y="168.041284" style="fill: #1a1a1a; stroke: #1a1a1a; stroke-width: 1.5"/>
     <use xlink:href="#m581e5f40bf" x="311.4" y="151.899898" style="fill: #1a1a1a; stroke: #1a1a1a; stroke-width: 1.5"/>
     <use xlink:href="#m581e5f40bf" x="423" y="206.994727" style="fill: #1a1a1a; stroke: #1a1a1a; stroke-width: 1.5"/>
     <use xlink:href="#m581e5f40bf" x="534.6" y="179.842656" style="fill: #1a1a1a; stroke: #1a1a1a; stroke-width: 1.5"/>
     <use xlink:href="#m581e5f40bf" x="646.2" y="88.959321" style="fill: #1a1a1a; stroke: #1a1a1a; stroke-width: 1.5"/>
     <use xlink:href="#m581e5f40bf" x="757.8" y="101.414082" style="fill: #1a1a1a; stroke: #1a1a1a; stroke-width: 1.5"/>
     <use xlink:href="#m581e5f40bf" x="869.4" y="210.634697" style="fill: #1a1a1a; stroke: #1a1a1a; stroke-width: 1.5"/>
     <use xlink:href="#m581e5f40bf" x="981" y="217.717849" style="fill: #1a1a1a; stroke: #1a1a1a; stroke-width: 1.5"/>
    </g>
   </g>
  </g>
 </g>
 <defs>
  <clipPath id="p39e518a2ff">
   <rect x="144" y="43.2" width="892.8" height="277.2"/>
  </clipPath>
 </defs>
</svg>
