<?xml version="1.0" encoding="utf-8" standalone="no"?>
<!DOCTYPE svg PUBLIC "-//W3C//DTD SVG 1.1//EN"
  "http://www.w3.org/Graphics/SVG/1.1/DTD/svg11.dtd">
<svg xmlns:xlink="http://www.w3.org/1999/xlink" width="1152pt" height="360pt" viewBox="0 0 1152 360" xmlns="http://www.w3.org/2000/svg" version="1.1">
 <metadata>
  <rdf:RDF xmlns:dc="http://purl.org/dc/elements/1.1/" xmlns:cc="http://creativecommons.org/ns#" xmlns:rdf="http://www.w3.org/1999/02/22-rdf-syntax-ns#">
   <cc:Work>
    <dc:type rdf:resource="http://purl.org/dc/dcmitype/StillImage"/>
    <dc:date>2024-12-16T03:16:15.309424</dc:date>
    <dc:format>image/svg+xml</dc:format>
    <dc:creator>
     <cc:Agent>
      <dc:title>Matplotlib v3.8.4, https://matplotlib.org/</dc:title>
     </cc:Agent>
    </dc:creator>
   </cc:Work>
  </rdf:RDF>
 </metadata>
 <defs>
  <style type="text/css">*{stroke-linejoin: round; stroke-linecap: butt}</style>
 </defs>
 <g id="figure_1">
  <g id="patch_1">
   <path d="M 0 360 
L 1152 360 
L 1152 0 
L 0 0 
z
" style="fill: #ffffff"/>
  </g>
  <g id="axes_1">
   <g id="patch_2">
    <path d="M 144 320.4 
L 1036.8 320.4 
L 1036.8 43.2 
L 144 43.2 
z
" style="fill: #ffffff"/>
   </g>
   <g id="matplotlib.axis_1">
    <g id="xtick_1">
     <g id="text_1">
      <!-- Allyl Concentration -->
      <g style="fill: #262626" transform="translate(201.614062 338.258281) scale(0.11 -0.11)">
       <defs>
        <path id="DejaVuSerif-41" d="M 1281 1691 
L 2994 1691 
L 2138 3909 
L 1281 1691 
z
M -38 0 
L -38 331 
L 372 331 
L 2034 4666 
L 2559 4666 
L 4225 331 
L 4684 331 
L 4684 0 
L 2988 0 
L 2988 331 
L 3506 331 
L 3116 1356 
L 1153 1356 
L 763 331 
L 1275 331 
L 1275 0 
L -38 0 
z
" transform="scale(0.015625)"/>
        <path id="DejaVuSerif-6c" d="M 1313 331 
L 1856 331 
L 1856 0 
L 184 0 
L 184 331 
L 738 331 
L 738 4531 
L 184 4531 
L 184 4863 
L 1313 4863 
L 1313 331 
z
" transform="scale(0.015625)"/>
        <path id="DejaVuSerif-79" d="M 1381 -609 
L 1600 -56 
L 359 2988 
L -19 2988 
L -19 3322 
L 1509 3322 
L 1509 2988 
L 978 2988 
L 1913 703 
L 2847 2988 
L 2350 2988 
L 2350 3322 
L 3597 3322 
L 3597 2988 
L 3225 2988 
L 1703 -750 
Q 1547 -1138 1356 -1280 
Q 1166 -1422 819 -1422 
Q 672 -1422 517 -1397 
Q 363 -1372 206 -1325 
L 206 -691 
L 500 -691 
Q 519 -903 608 -995 
Q 697 -1088 884 -1088 
Q 1056 -1088 1161 -992 
Q 1266 -897 1381 -609 
z
" transform="scale(0.015625)"/>
        <path id="DejaVuSerif-20" transform="scale(0.015625)"/>
        <path id="DejaVuSerif-43" d="M 4513 1234 
Q 4306 581 3820 245 
Q 3334 -91 2591 -91 
Q 2134 -91 1743 65 
Q 1353 222 1050 525 
Q 700 875 529 1320 
Q 359 1766 359 2328 
Q 359 3416 987 4083 
Q 1616 4750 2644 4750 
Q 3025 4750 3456 4650 
Q 3888 4550 4384 4347 
L 4384 3272 
L 4031 3272 
Q 3916 3859 3567 4137 
Q 3219 4416 2591 4416 
Q 1844 4416 1459 3886 
Q 1075 3356 1075 2328 
Q 1075 1303 1459 773 
Q 1844 244 2591 244 
Q 3113 244 3450 492 
Q 3788 741 3938 1234 
L 4513 1234 
z
" transform="scale(0.015625)"/>
        <path id="DejaVuSerif-6f" d="M 1925 219 
Q 2388 219 2623 584 
Q 2859 950 2859 1663 
Q 2859 2375 2623 2739 
Q 2388 3103 1925 3103 
Q 1463 3103 1227 2739 
Q 991 2375 991 1663 
Q 991 950 1228 584 
Q 1466 219 1925 219 
z
M 1925 -91 
Q 1200 -91 759 389 
Q 319 869 319 1663 
Q 319 2456 758 2934 
Q 1197 3413 1925 3413 
Q 2653 3413 3092 2934 
Q 3531 2456 3531 1663 
Q 3531 869 3092 389 
Q 2653 -91 1925 -91 
z
" transform="scale(0.015625)"/>
        <path id="DejaVuSerif-6e" d="M 263 0 
L 263 331 
L 781 331 
L 781 2988 
L 231 2988 
L 231 3322 
L 1356 3322 
L 1356 2731 
Q 1516 3069 1770 3241 
Q 2025 3413 2363 3413 
Q 2913 3413 3172 3097 
Q 3431 2781 3431 2113 
L 3431 331 
L 3944 331 
L 3944 0 
L 2356 0 
L 2356 331 
L 2853 331 
L 2853 1931 
Q 2853 2541 2703 2767 
Q 2553 2994 2175 2994 
Q 1775 2994 1565 2701 
Q 1356 2409 1356 1850 
L 1356 331 
L 1856 331 
L 1856 0 
L 263 0 
z
" transform="scale(0.015625)"/>
        <path id="DejaVuSerif-63" d="M 3291 997 
Q 3169 466 2822 187 
Q 2475 -91 1925 -91 
Q 1200 -91 759 389 
Q 319 869 319 1663 
Q 319 2459 759 2936 
Q 1200 3413 1925 3413 
Q 2241 3413 2553 3339 
Q 2866 3266 3181 3116 
L 3181 2266 
L 2847 2266 
Q 2781 2703 2561 2903 
Q 2341 3103 1931 3103 
Q 1466 3103 1228 2742 
Q 991 2381 991 1663 
Q 991 944 1227 581 
Q 1463 219 1931 219 
Q 2303 219 2525 412 
Q 2747 606 2828 997 
L 3291 997 
z
" transform="scale(0.015625)"/>
        <path id="DejaVuSerif-65" d="M 3469 1600 
L 991 1600 
L 991 1575 
Q 991 903 1244 561 
Q 1497 219 1991 219 
Q 2369 219 2611 417 
Q 2853 616 2950 1006 
L 3413 1006 
Q 3275 459 2904 184 
Q 2534 -91 1931 -91 
Q 1203 -91 761 389 
Q 319 869 319 1663 
Q 319 2450 753 2931 
Q 1188 3413 1894 3413 
Q 2647 3413 3050 2948 
Q 3453 2484 3469 1600 
z
M 2791 1931 
Q 2772 2513 2545 2808 
Q 2319 3103 1894 3103 
Q 1497 3103 1269 2806 
Q 1041 2509 991 1931 
L 2791 1931 
z
" transform="scale(0.015625)"/>
        <path id="DejaVuSerif-74" d="M 691 2988 
L 184 2988 
L 184 3322 
L 691 3322 
L 691 4353 
L 1269 4353 
L 1269 3322 
L 2350 3322 
L 2350 2988 
L 1269 2988 
L 1269 878 
Q 1269 456 1350 337 
Q 1431 219 1650 219 
Q 1875 219 1978 351 
Q 2081 484 2088 781 
L 2522 781 
Q 2497 328 2275 118 
Q 2053 -91 1600 -91 
Q 1103 -91 897 129 
Q 691 350 691 878 
L 691 2988 
z
" transform="scale(0.015625)"/>
        <path id="DejaVuSerif-72" d="M 3059 3328 
L 3059 2497 
L 2728 2497 
Q 2713 2744 2591 2866 
Q 2469 2988 2234 2988 
Q 1809 2988 1582 2694 
Q 1356 2400 1356 1850 
L 1356 331 
L 2022 331 
L 2022 0 
L 263 0 
L 263 331 
L 781 331 
L 781 2994 
L 231 2994 
L 231 3322 
L 1356 3322 
L 1356 2731 
Q 1525 3078 1790 3245 
Q 2056 3413 2438 3413 
Q 2578 3413 2733 3391 
Q 2888 3369 3059 3328 
z
" transform="scale(0.015625)"/>
        <path id="DejaVuSerif-61" d="M 2547 1044 
L 2547 1747 
L 1806 1747 
Q 1378 1747 1168 1562 
Q 959 1378 959 997 
Q 959 650 1171 447 
Q 1384 244 1747 244 
Q 2106 244 2326 466 
Q 2547 688 2547 1044 
z
M 3122 2075 
L 3122 331 
L 3634 331 
L 3634 0 
L 2547 0 
L 2547 359 
Q 2356 128 2106 18 
Q 1856 -91 1522 -91 
Q 969 -91 644 203 
Q 319 497 319 997 
Q 319 1513 691 1797 
Q 1063 2081 1741 2081 
L 2547 2081 
L 2547 2309 
Q 2547 2688 2317 2895 
Q 2088 3103 1672 3103 
Q 1328 3103 1125 2947 
Q 922 2791 872 2484 
L 575 2484 
L 575 3156 
Q 875 3284 1158 3348 
Q 1441 3413 1709 3413 
Q 2400 3413 2761 3070 
Q 3122 2728 3122 2075 
z
" transform="scale(0.015625)"/>
        <path id="DejaVuSerif-69" d="M 622 4353 
Q 622 4497 726 4603 
Q 831 4709 978 4709 
Q 1122 4709 1226 4603 
Q 1331 4497 1331 4353 
Q 1331 4206 1228 4103 
Q 1125 4000 978 4000 
Q 831 4000 726 4103 
Q 622 4206 622 4353 
z
M 1356 331 
L 1900 331 
L 1900 0 
L 231 0 
L 231 331 
L 781 331 
L 781 2988 
L 231 2988 
L 231 3322 
L 1356 3322 
L 1356 331 
z
" transform="scale(0.015625)"/>
       </defs>
       <use xlink:href="#DejaVuSerif-41"/>
       <use xlink:href="#DejaVuSerif-6c" x="72.216797"/>
       <use xlink:href="#DejaVuSerif-6c" x="104.199219"/>
       <use xlink:href="#DejaVuSerif-79" x="136.181641"/>
       <use xlink:href="#DejaVuSerif-6c" x="192.675781"/>
       <use xlink:href="#DejaVuSerif-20" x="224.658203"/>
       <use xlink:href="#DejaVuSerif-43" x="256.445312"/>
       <use xlink:href="#DejaVuSerif-6f" x="332.958984"/>
       <use xlink:href="#DejaVuSerif-6e" x="393.164062"/>
       <use xlink:href="#DejaVuSerif-63" x="457.568359"/>
       <use xlink:href="#DejaVuSerif-65" x="513.574219"/>
       <use xlink:href="#DejaVuSerif-6e" x="572.753906"/>
       <use xlink:href="#DejaVuSerif-74" x="637.158203"/>
       <use xlink:href="#DejaVuSerif-72" x="677.34375"/>
       <use xlink:href="#DejaVuSerif-61" x="725.146484"/>
       <use xlink:href="#DejaVuSerif-74" x="784.765625"/>
       <use xlink:href="#DejaVuSerif-69" x="824.951172"/>
       <use xlink:href="#DejaVuSerif-6f" x="856.933594"/>
       <use xlink:href="#DejaVuSerif-6e" x="917.138672"/>
      </g>
      <!-- (G2P) -->
      <g style="fill: #262626" transform="translate(239.714453 350.732281) scale(0.11 -0.11)">
       <defs>
        <path id="DejaVuSerif-28" d="M 2041 -997 
Q 1281 -656 893 83 
Q 506 822 506 1931 
Q 506 3044 893 3783 
Q 1281 4522 2041 4863 
L 2041 4556 
Q 1559 4225 1350 3623 
Q 1141 3022 1141 1931 
Q 1141 844 1350 242 
Q 1559 -359 2041 -691 
L 2041 -997 
z
" transform="scale(0.015625)"/>
        <path id="DejaVuSerif-47" d="M 4097 3272 
Q 3988 3856 3641 4136 
Q 3294 4416 2675 4416 
Q 1869 4416 1472 3897 
Q 1075 3378 1075 2328 
Q 1075 1300 1484 772 
Q 1894 244 2688 244 
Q 3041 244 3362 331 
Q 3684 419 3975 594 
L 3975 1797 
L 3097 1797 
L 3097 2131 
L 4609 2131 
L 4609 391 
Q 4194 150 3714 29 
Q 3234 -91 2688 -91 
Q 1631 -91 995 570 
Q 359 1231 359 2328 
Q 359 3434 996 4092 
Q 1634 4750 2713 4750 
Q 3113 4750 3539 4658 
Q 3966 4566 4447 4378 
L 4447 3272 
L 4097 3272 
z
" transform="scale(0.015625)"/>
        <path id="DejaVuSerif-32" d="M 819 3553 
L 469 3553 
L 469 4384 
Q 803 4563 1142 4656 
Q 1481 4750 1806 4750 
Q 2534 4750 2956 4397 
Q 3378 4044 3378 3438 
Q 3378 2753 2422 1800 
Q 2347 1728 2309 1691 
L 1131 513 
L 3078 513 
L 3078 1088 
L 3444 1088 
L 3444 0 
L 434 0 
L 434 341 
L 1850 1753 
Q 2319 2222 2519 2614 
Q 2719 3006 2719 3438 
Q 2719 3909 2473 4175 
Q 2228 4441 1797 4441 
Q 1350 4441 1106 4219 
Q 863 3997 819 3553 
z
" transform="scale(0.015625)"/>
        <path id="DejaVuSerif-50" d="M 1581 2375 
L 2406 2375 
Q 2872 2375 3115 2626 
Q 3359 2878 3359 3353 
Q 3359 3831 3115 4081 
Q 2872 4331 2406 4331 
L 1581 4331 
L 1581 2375 
z
M 353 0 
L 353 331 
L 947 331 
L 947 4331 
L 353 4331 
L 353 4666 
L 2559 4666 
Q 3259 4666 3668 4311 
Q 4078 3956 4078 3353 
Q 4078 2753 3668 2397 
Q 3259 2041 2559 2041 
L 1581 2041 
L 1581 331 
L 2303 331 
L 2303 0 
L 353 0 
z
" transform="scale(0.015625)"/>
        <path id="DejaVuSerif-29" d="M 453 -997 
L 453 -691 
Q 934 -359 1145 242 
Q 1356 844 1356 1931 
Q 1356 3022 1145 3623 
Q 934 4225 453 4556 
L 453 4863 
Q 1216 4522 1603 3783 
Q 1991 3044 1991 1931 
Q 1991 822 1603 83 
Q 1216 -656 453 -997 
z
" transform="scale(0.015625)"/>
       </defs>
       <use xlink:href="#DejaVuSerif-28"/>
       <use xlink:href="#DejaVuSerif-47" x="39.013672"/>
       <use xlink:href="#DejaVuSerif-32" x="118.896484"/>
       <use xlink:href="#DejaVuSerif-50" x="182.519531"/>
       <use xlink:href="#DejaVuSerif-29" x="249.804688"/>
      </g>
     </g>
    </g>
    <g id="xtick_2">
     <g id="text_2">
      <!-- Molybdenum -->
      <g style="fill: #262626" transform="translate(442.393437 338.258281) scale(0.11 -0.11)">
       <defs>
        <path id="DejaVuSerif-4d" d="M 353 0 
L 353 331 
L 947 331 
L 947 4331 
L 319 4331 
L 319 4666 
L 1678 4666 
L 3316 1344 
L 4953 4666 
L 6228 4666 
L 6228 4331 
L 5606 4331 
L 5606 331 
L 6203 331 
L 6203 0 
L 4378 0 
L 4378 331 
L 4972 331 
L 4972 3938 
L 3372 684 
L 2931 684 
L 1331 3938 
L 1331 331 
L 1925 331 
L 1925 0 
L 353 0 
z
" transform="scale(0.015625)"/>
        <path id="DejaVuSerif-62" d="M 738 331 
L 738 4531 
L 184 4531 
L 184 4863 
L 1313 4863 
L 1313 2803 
Q 1481 3116 1742 3264 
Q 2003 3413 2388 3413 
Q 3000 3413 3387 2928 
Q 3775 2444 3775 1663 
Q 3775 881 3387 395 
Q 3000 -91 2388 -91 
Q 2003 -91 1742 57 
Q 1481 206 1313 519 
L 1313 0 
L 184 0 
L 184 331 
L 738 331 
z
M 1313 1497 
Q 1313 897 1542 583 
Q 1772 269 2209 269 
Q 2650 269 2876 622 
Q 3103 975 3103 1663 
Q 3103 2353 2876 2703 
Q 2650 3053 2209 3053 
Q 1772 3053 1542 2737 
Q 1313 2422 1313 1825 
L 1313 1497 
z
" transform="scale(0.015625)"/>
        <path id="DejaVuSerif-64" d="M 3359 331 
L 3909 331 
L 3909 0 
L 2784 0 
L 2784 519 
Q 2616 206 2355 57 
Q 2094 -91 1709 -91 
Q 1097 -91 708 395 
Q 319 881 319 1663 
Q 319 2444 706 2928 
Q 1094 3413 1709 3413 
Q 2094 3413 2355 3264 
Q 2616 3116 2784 2803 
L 2784 4531 
L 2241 4531 
L 2241 4863 
L 3359 4863 
L 3359 331 
z
M 2784 1497 
L 2784 1825 
Q 2784 2422 2554 2737 
Q 2325 3053 1888 3053 
Q 1444 3053 1217 2703 
Q 991 2353 991 1663 
Q 991 975 1217 622 
Q 1444 269 1888 269 
Q 2325 269 2554 583 
Q 2784 897 2784 1497 
z
" transform="scale(0.015625)"/>
        <path id="DejaVuSerif-75" d="M 2266 3322 
L 3341 3322 
L 3341 331 
L 3884 331 
L 3884 0 
L 2766 0 
L 2766 588 
Q 2606 256 2353 82 
Q 2100 -91 1766 -91 
Q 1213 -91 952 223 
Q 691 538 691 1209 
L 691 2988 
L 172 2988 
L 172 3322 
L 1269 3322 
L 1269 1388 
Q 1269 781 1417 556 
Q 1566 331 1947 331 
Q 2347 331 2556 625 
Q 2766 919 2766 1478 
L 2766 2988 
L 2266 2988 
L 2266 3322 
z
" transform="scale(0.015625)"/>
        <path id="DejaVuSerif-6d" d="M 3316 2675 
Q 3481 3041 3739 3227 
Q 3997 3413 4341 3413 
Q 4863 3413 5119 3089 
Q 5375 2766 5375 2113 
L 5375 331 
L 5894 331 
L 5894 0 
L 4300 0 
L 4300 331 
L 4800 331 
L 4800 2047 
Q 4800 2556 4650 2772 
Q 4500 2988 4153 2988 
Q 3769 2988 3567 2697 
Q 3366 2406 3366 1850 
L 3366 331 
L 3866 331 
L 3866 0 
L 2291 0 
L 2291 331 
L 2791 331 
L 2791 2069 
Q 2791 2566 2641 2777 
Q 2491 2988 2144 2988 
Q 1759 2988 1557 2697 
Q 1356 2406 1356 1850 
L 1356 331 
L 1856 331 
L 1856 0 
L 263 0 
L 263 331 
L 781 331 
L 781 2994 
L 231 2994 
L 231 3322 
L 1356 3322 
L 1356 2731 
Q 1516 3063 1762 3238 
Q 2009 3413 2322 3413 
Q 2709 3413 2968 3220 
Q 3228 3028 3316 2675 
z
" transform="scale(0.015625)"/>
       </defs>
       <use xlink:href="#DejaVuSerif-4d"/>
       <use xlink:href="#DejaVuSerif-6f" x="102.392578"/>
       <use xlink:href="#DejaVuSerif-6c" x="162.597656"/>
       <use xlink:href="#DejaVuSerif-79" x="194.580078"/>
       <use xlink:href="#DejaVuSerif-62" x="251.074219"/>
       <use xlink:href="#DejaVuSerif-64" x="315.087891"/>
       <use xlink:href="#DejaVuSerif-65" x="379.101562"/>
       <use xlink:href="#DejaVuSerif-6e" x="438.28125"/>
       <use xlink:href="#DejaVuSerif-75" x="502.685547"/>
       <use xlink:href="#DejaVuSerif-6d" x="567.089844"/>
      </g>
      <!-- Concentration -->
      <g style="fill: #262626" transform="translate(438.918984 350.732281) scale(0.11 -0.11)">
       <use xlink:href="#DejaVuSerif-43"/>
       <use xlink:href="#DejaVuSerif-6f" x="76.513672"/>
       <use xlink:href="#DejaVuSerif-6e" x="136.71875"/>
       <use xlink:href="#DejaVuSerif-63" x="201.123047"/>
       <use xlink:href="#DejaVuSerif-65" x="257.128906"/>
       <use xlink:href="#DejaVuSerif-6e" x="316.308594"/>
       <use xlink:href="#DejaVuSerif-74" x="380.712891"/>
       <use xlink:href="#DejaVuSerif-72" x="420.898438"/>
       <use xlink:href="#DejaVuSerif-61" x="468.701172"/>
       <use xlink:href="#DejaVuSerif-74" x="528.320312"/>
       <use xlink:href="#DejaVuSerif-69" x="568.505859"/>
       <use xlink:href="#DejaVuSerif-6f" x="600.488281"/>
       <use xlink:href="#DejaVuSerif-6e" x="660.693359"/>
      </g>
     </g>
    </g>
    <g id="xtick_3">
     <g id="text_3">
      <!-- Flowering Time -->
      <g style="fill: #262626" transform="translate(658.052422 338.258281) scale(0.11 -0.11)">
       <defs>
        <path id="DejaVuSerif-46" d="M 353 0 
L 353 331 
L 947 331 
L 947 4331 
L 353 4331 
L 353 4666 
L 4172 4666 
L 4172 3628 
L 3788 3628 
L 3788 4281 
L 1581 4281 
L 1581 2719 
L 3175 2719 
L 3175 3303 
L 3559 3303 
L 3559 1753 
L 3175 1753 
L 3175 2338 
L 1581 2338 
L 1581 331 
L 2328 331 
L 2328 0 
L 353 0 
z
" transform="scale(0.015625)"/>
        <path id="DejaVuSerif-77" d="M 3072 3322 
L 3922 728 
L 4672 2988 
L 4191 2988 
L 4191 3322 
L 5394 3322 
L 5394 2988 
L 5025 2988 
L 4038 0 
L 3559 0 
L 2741 2484 
L 1919 0 
L 1459 0 
L 475 2988 
L 103 2988 
L 103 3322 
L 1606 3322 
L 1606 2988 
L 1069 2988 
L 1813 728 
L 2669 3322 
L 3072 3322 
z
" transform="scale(0.015625)"/>
        <path id="DejaVuSerif-67" d="M 3359 2988 
L 3359 72 
Q 3359 -644 2965 -1033 
Q 2572 -1422 1844 -1422 
Q 1516 -1422 1216 -1362 
Q 916 -1303 641 -1184 
L 641 -488 
L 941 -488 
Q 997 -813 1206 -963 
Q 1416 -1113 1806 -1113 
Q 2313 -1113 2548 -827 
Q 2784 -541 2784 72 
L 2784 519 
Q 2616 206 2355 57 
Q 2094 -91 1709 -91 
Q 1097 -91 708 395 
Q 319 881 319 1663 
Q 319 2444 706 2928 
Q 1094 3413 1709 3413 
Q 2094 3413 2355 3264 
Q 2616 3116 2784 2803 
L 2784 3322 
L 3909 3322 
L 3909 2988 
L 3359 2988 
z
M 2784 1825 
Q 2784 2422 2554 2737 
Q 2325 3053 1888 3053 
Q 1444 3053 1217 2703 
Q 991 2353 991 1663 
Q 991 975 1217 622 
Q 1444 269 1888 269 
Q 2325 269 2554 583 
Q 2784 897 2784 1497 
L 2784 1825 
z
" transform="scale(0.015625)"/>
        <path id="DejaVuSerif-54" d="M 1222 0 
L 1222 331 
L 1819 331 
L 1819 4294 
L 447 4294 
L 447 3566 
L 63 3566 
L 63 4666 
L 4206 4666 
L 4206 3566 
L 3822 3566 
L 3822 4294 
L 2450 4294 
L 2450 331 
L 3047 331 
L 3047 0 
L 1222 0 
z
" transform="scale(0.015625)"/>
       </defs>
       <use xlink:href="#DejaVuSerif-46"/>
       <use xlink:href="#DejaVuSerif-6c" x="69.384766"/>
       <use xlink:href="#DejaVuSerif-6f" x="101.367188"/>
       <use xlink:href="#DejaVuSerif-77" x="161.572266"/>
       <use xlink:href="#DejaVuSerif-65" x="247.167969"/>
       <use xlink:href="#DejaVuSerif-72" x="306.347656"/>
       <use xlink:href="#DejaVuSerif-69" x="354.150391"/>
       <use xlink:href="#DejaVuSerif-6e" x="386.132812"/>
       <use xlink:href="#DejaVuSerif-67" x="450.537109"/>
       <use xlink:href="#DejaVuSerif-20" x="514.550781"/>
       <use xlink:href="#DejaVuSerif-54" x="546.337891"/>
       <use xlink:href="#DejaVuSerif-69" x="613.037109"/>
       <use xlink:href="#DejaVuSerif-6d" x="645.019531"/>
       <use xlink:href="#DejaVuSerif-65" x="739.84375"/>
      </g>
     </g>
    </g>
    <g id="xtick_4">
     <g id="text_4">
      <!-- Seed Weight -->
      <g style="fill: #262626" transform="translate(890.158984 338.258281) scale(0.11 -0.11)">
       <defs>
        <path id="DejaVuSerif-53" d="M 594 225 
L 594 1288 
L 953 1284 
Q 969 753 1261 498 
Q 1553 244 2150 244 
Q 2706 244 2998 464 
Q 3291 684 3291 1106 
Q 3291 1444 3114 1625 
Q 2938 1806 2369 1978 
L 1753 2163 
Q 1084 2366 811 2669 
Q 538 2972 538 3500 
Q 538 4094 959 4422 
Q 1381 4750 2144 4750 
Q 2469 4750 2856 4679 
Q 3244 4609 3681 4475 
L 3681 3481 
L 3328 3481 
Q 3275 3975 2998 4195 
Q 2722 4416 2156 4416 
Q 1663 4416 1405 4214 
Q 1147 4013 1147 3628 
Q 1147 3294 1340 3103 
Q 1534 2913 2163 2725 
L 2741 2553 
Q 3375 2363 3645 2067 
Q 3916 1772 3916 1275 
Q 3916 597 3481 253 
Q 3047 -91 2188 -91 
Q 1803 -91 1404 -12 
Q 1006 66 594 225 
z
" transform="scale(0.015625)"/>
        <path id="DejaVuSerif-57" d="M 4878 0 
L 4366 0 
L 3297 3794 
L 2228 0 
L 1716 0 
L 494 4331 
L 31 4331 
L 31 4666 
L 1734 4666 
L 1734 4331 
L 1153 4331 
L 2125 884 
L 3188 4666 
L 3694 4666 
L 4775 844 
L 5753 4331 
L 5216 4331 
L 5216 4666 
L 6559 4666 
L 6559 4331 
L 6100 4331 
L 4878 0 
z
" transform="scale(0.015625)"/>
        <path id="DejaVuSerif-68" d="M 263 0 
L 263 331 
L 781 331 
L 781 4531 
L 231 4531 
L 231 4863 
L 1356 4863 
L 1356 2731 
Q 1516 3069 1770 3241 
Q 2025 3413 2363 3413 
Q 2913 3413 3172 3097 
Q 3431 2781 3431 2113 
L 3431 331 
L 3944 331 
L 3944 0 
L 2356 0 
L 2356 331 
L 2853 331 
L 2853 1931 
Q 2853 2541 2704 2764 
Q 2556 2988 2175 2988 
Q 1775 2988 1565 2697 
Q 1356 2406 1356 1850 
L 1356 331 
L 1856 331 
L 1856 0 
L 263 0 
z
" transform="scale(0.015625)"/>
       </defs>
       <use xlink:href="#DejaVuSerif-53"/>
       <use xlink:href="#DejaVuSerif-65" x="68.505859"/>
       <use xlink:href="#DejaVuSerif-65" x="127.685547"/>
       <use xlink:href="#DejaVuSerif-64" x="186.865234"/>
       <use xlink:href="#DejaVuSerif-20" x="250.878906"/>
       <use xlink:href="#DejaVuSerif-57" x="282.666016"/>
       <use xlink:href="#DejaVuSerif-65" x="377.324219"/>
       <use xlink:href="#DejaVuSerif-69" x="436.503906"/>
       <use xlink:href="#DejaVuSerif-67" x="468.486328"/>
       <use xlink:href="#DejaVuSerif-68" x="532.5"/>
       <use xlink:href="#DejaVuSerif-74" x="596.904297"/>
      </g>
     </g>
    </g>
    <g id="text_5">
     <!-- trait -->
     <g style="fill: #262626" transform="translate(577.213125 366.138062) scale(0.12 -0.12)">
      <use xlink:href="#DejaVuSerif-74"/>
      <use xlink:href="#DejaVuSerif-72" x="40.185547"/>
      <use xlink:href="#DejaVuSerif-61" x="87.988281"/>
      <use xlink:href="#DejaVuSerif-69" x="147.607422"/>
      <use xlink:href="#DejaVuSerif-74" x="179.589844"/>
     </g>
    </g>
   </g>
   <g id="matplotlib.axis_2">
    <g id="ytick_1">
     <g id="line2d_1">
      <path d="M 144 299.076923 
L 1036.8 299.076923 
" clip-path="url(#p2474a7f5e9)" style="fill: none; stroke: #cccccc; stroke-linecap: round"/>
     </g>
     <g id="text_6">
      <!-- −0.2 -->
      <g style="fill: #262626" transform="translate(107.788906 303.256064) scale(0.11 -0.11)">
       <defs>
        <path id="DejaVuSerif-2212" d="M 678 2259 
L 4684 2259 
L 4684 1753 
L 678 1753 
L 678 2259 
z
" transform="scale(0.015625)"/>
        <path id="DejaVuSerif-30" d="M 2034 219 
Q 2513 219 2750 744 
Q 2988 1269 2988 2328 
Q 2988 3391 2750 3916 
Q 2513 4441 2034 4441 
Q 1556 4441 1318 3916 
Q 1081 3391 1081 2328 
Q 1081 1269 1318 744 
Q 1556 219 2034 219 
z
M 2034 -91 
Q 1275 -91 848 546 
Q 422 1184 422 2328 
Q 422 3475 848 4112 
Q 1275 4750 2034 4750 
Q 2797 4750 3222 4112 
Q 3647 3475 3647 2328 
Q 3647 1184 3222 546 
Q 2797 -91 2034 -91 
z
" transform="scale(0.015625)"/>
        <path id="DejaVuSerif-2e" d="M 603 325 
Q 603 500 722 622 
Q 841 744 1019 744 
Q 1191 744 1312 622 
Q 1434 500 1434 325 
Q 1434 153 1312 31 
Q 1191 -91 1019 -91 
Q 841 -91 722 29 
Q 603 150 603 325 
z
" transform="scale(0.015625)"/>
       </defs>
       <use xlink:href="#DejaVuSerif-2212"/>
       <use xlink:href="#DejaVuSerif-30" x="83.789062"/>
       <use xlink:href="#DejaVuSerif-2e" x="147.412109"/>
       <use xlink:href="#DejaVuSerif-32" x="179.199219"/>
      </g>
     </g>
    </g>
    <g id="ytick_2">
     <g id="line2d_2">
      <path d="M 144 256.430769 
L 1036.8 256.430769 
" clip-path="url(#p2474a7f5e9)" style="fill: none; stroke: #cccccc; stroke-linecap: round"/>
     </g>
     <g id="text_7">
      <!-- 0.0 -->
      <g style="fill: #262626" transform="translate(117.006563 260.60991) scale(0.11 -0.11)">
       <use xlink:href="#DejaVuSerif-30"/>
       <use xlink:href="#DejaVuSerif-2e" x="63.623047"/>
       <use xlink:href="#DejaVuSerif-30" x="95.410156"/>
      </g>
     </g>
    </g>
    <g id="ytick_3">
     <g id="line2d_3">
      <path d="M 144 213.784615 
L 1036.8 213.784615 
" clip-path="url(#p2474a7f5e9)" style="fill: none; stroke: #cccccc; stroke-linecap: round"/>
     </g>
     <g id="text_8">
      <!-- 0.2 -->
      <g style="fill: #262626" transform="translate(117.006563 217.963756) scale(0.11 -0.11)">
       <use xlink:href="#DejaVuSerif-30"/>
       <use xlink:href="#DejaVuSerif-2e" x="63.623047"/>
       <use xlink:href="#DejaVuSerif-32" x="95.410156"/>
      </g>
     </g>
    </g>
    <g id="ytick_4">
     <g id="line2d_4">
      <path d="M 144 171.138462 
L 1036.8 171.138462 
" clip-path="url(#p2474a7f5e9)" style="fill: none; stroke: #cccccc; stroke-linecap: round"/>
     </g>
     <g id="text_9">
      <!-- 0.4 -->
      <g style="fill: #262626" transform="translate(117.006563 175.317602) scale(0.11 -0.11)">
       <defs>
        <path id="DejaVuSerif-34" d="M 2234 1581 
L 2234 4063 
L 641 1581 
L 2234 1581 
z
M 3609 0 
L 1484 0 
L 1484 331 
L 2234 331 
L 2234 1247 
L 197 1247 
L 197 1588 
L 2241 4750 
L 2859 4750 
L 2859 1581 
L 3750 1581 
L 3750 1247 
L 2859 1247 
L 2859 331 
L 3609 331 
L 3609 0 
z
" transform="scale(0.015625)"/>
       </defs>
       <use xlink:href="#DejaVuSerif-30"/>
       <use xlink:href="#DejaVuSerif-2e" x="63.623047"/>
       <use xlink:href="#DejaVuSerif-34" x="95.410156"/>
      </g>
     </g>
    </g>
    <g id="ytick_5">
     <g id="line2d_5">
      <path d="M 144 128.492308 
L 1036.8 128.492308 
" clip-path="url(#p2474a7f5e9)" style="fill: none; stroke: #cccccc; stroke-linecap: round"/>
     </g>
     <g id="text_10">
      <!-- 0.6 -->
      <g style="fill: #262626" transform="translate(117.006563 132.671448) scale(0.11 -0.11)">
       <defs>
        <path id="DejaVuSerif-36" d="M 2094 219 
Q 2534 219 2771 542 
Q 3009 866 3009 1472 
Q 3009 2078 2771 2401 
Q 2534 2725 2094 2725 
Q 1647 2725 1412 2412 
Q 1178 2100 1178 1509 
Q 1178 888 1415 553 
Q 1653 219 2094 219 
z
M 1075 2569 
Q 1288 2803 1556 2918 
Q 1825 3034 2163 3034 
Q 2859 3034 3264 2615 
Q 3669 2197 3669 1472 
Q 3669 763 3233 336 
Q 2797 -91 2069 -91 
Q 1278 -91 853 498 
Q 428 1088 428 2181 
Q 428 3406 931 4078 
Q 1434 4750 2350 4750 
Q 2597 4750 2869 4703 
Q 3141 4656 3425 4563 
L 3425 3794 
L 3072 3794 
Q 3034 4109 2831 4275 
Q 2628 4441 2284 4441 
Q 1678 4441 1381 3981 
Q 1084 3522 1075 2569 
z
" transform="scale(0.015625)"/>
       </defs>
       <use xlink:href="#DejaVuSerif-30"/>
       <use xlink:href="#DejaVuSerif-2e" x="63.623047"/>
       <use xlink:href="#DejaVuSerif-36" x="95.410156"/>
      </g>
     </g>
    </g>
    <g id="ytick_6">
     <g id="line2d_6">
      <path d="M 144 85.846154 
L 1036.8 85.846154 
" clip-path="url(#p2474a7f5e9)" style="fill: none; stroke: #cccccc; stroke-linecap: round"/>
     </g>
     <g id="text_11">
      <!-- 0.8 -->
      <g style="fill: #262626" transform="translate(117.006563 90.025294) scale(0.11 -0.11)">
       <defs>
        <path id="DejaVuSerif-38" d="M 2981 1275 
Q 2981 1775 2732 2051 
Q 2484 2328 2034 2328 
Q 1584 2328 1336 2051 
Q 1088 1775 1088 1275 
Q 1088 772 1336 495 
Q 1584 219 2034 219 
Q 2484 219 2732 495 
Q 2981 772 2981 1275 
z
M 2853 3541 
Q 2853 3966 2637 4203 
Q 2422 4441 2034 4441 
Q 1650 4441 1433 4203 
Q 1216 3966 1216 3541 
Q 1216 3113 1433 2875 
Q 1650 2638 2034 2638 
Q 2422 2638 2637 2875 
Q 2853 3113 2853 3541 
z
M 2516 2484 
Q 3047 2413 3344 2092 
Q 3641 1772 3641 1275 
Q 3641 619 3225 264 
Q 2809 -91 2034 -91 
Q 1263 -91 845 264 
Q 428 619 428 1275 
Q 428 1772 725 2092 
Q 1022 2413 1556 2484 
Q 1084 2569 832 2842 
Q 581 3116 581 3541 
Q 581 4103 968 4426 
Q 1356 4750 2034 4750 
Q 2713 4750 3100 4426 
Q 3488 4103 3488 3541 
Q 3488 3116 3236 2842 
Q 2984 2569 2516 2484 
z
" transform="scale(0.015625)"/>
       </defs>
       <use xlink:href="#DejaVuSerif-30"/>
       <use xlink:href="#DejaVuSerif-2e" x="63.623047"/>
       <use xlink:href="#DejaVuSerif-38" x="95.410156"/>
      </g>
     </g>
    </g>
    <g id="ytick_7">
     <g id="line2d_7">
      <path d="M 144 43.2 
L 1036.8 43.2 
" clip-path="url(#p2474a7f5e9)" style="fill: none; stroke: #cccccc; stroke-linecap: round"/>
     </g>
     <g id="text_12">
      <!-- 1.0 -->
      <g style="fill: #262626" transform="translate(117.006563 47.379141) scale(0.11 -0.11)">
       <defs>
        <path id="DejaVuSerif-31" d="M 909 0 
L 909 331 
L 1722 331 
L 1722 4213 
L 781 3603 
L 781 4013 
L 1919 4750 
L 2350 4750 
L 2350 331 
L 3163 331 
L 3163 0 
L 909 0 
z
" transform="scale(0.015625)"/>
       </defs>
       <use xlink:href="#DejaVuSerif-31"/>
       <use xlink:href="#DejaVuSerif-2e" x="63.623047"/>
       <use xlink:href="#DejaVuSerif-30" x="95.410156"/>
      </g>
     </g>
    </g>
    <g id="text_13">
     <!-- r² -->
     <g style="fill: #262626" transform="translate(101.293281 187.073437) rotate(-90) scale(0.12 -0.12)">
      <defs>
       <path id="DejaVuSerif-b2" d="M 531 4050 
L 313 4050 
L 313 4544 
Q 519 4644 737 4697 
Q 956 4750 1172 4750 
Q 1603 4750 1870 4544 
Q 2138 4338 2138 4013 
Q 2138 3631 1531 3088 
L 1472 3034 
L 728 2363 
L 1931 2363 
L 1931 2700 
L 2163 2700 
L 2163 2088 
L 281 2088 
L 281 2322 
L 1172 3116 
Q 1441 3356 1556 3547 
Q 1672 3738 1672 3944 
Q 1672 4209 1520 4364 
Q 1369 4519 1106 4519 
Q 863 4519 716 4400 
Q 569 4281 531 4050 
z
" transform="scale(0.015625)"/>
      </defs>
      <use xlink:href="#DejaVuSerif-72"/>
      <use xlink:href="#DejaVuSerif-b2" x="47.802734"/>
     </g>
    </g>
   </g>
   <g id="patch_3">
    <path d="M 255.6 256.430769 
L 255.6 256.430769 
L 255.6 256.430769 
L 255.6 256.430769 
z
" clip-path="url(#p2474a7f5e9)" style="fill: #c03d3e; stroke: #4c4c4c; stroke-linejoin: miter"/>
   </g>
   <g id="patch_4">
    <path d="M 255.6 256.430769 
L 255.6 256.430769 
L 255.6 256.430769 
L 255.6 256.430769 
z
" clip-path="url(#p2474a7f5e9)" style="fill: #dfc120; stroke: #4c4c4c; stroke-linejoin: miter"/>
   </g>
   <g id="patch_5">
    <path d="M 255.6 256.430769 
L 255.6 256.430769 
L 255.6 256.430769 
L 255.6 256.430769 
z
" clip-path="url(#p2474a7f5e9)" style="fill: #e1812c; stroke: #4c4c4c; stroke-linejoin: miter"/>
   </g>
   <g id="patch_6">
    <path d="M 255.6 256.430769 
L 255.6 256.430769 
L 255.6 256.430769 
L 255.6 256.430769 
z
" clip-path="url(#p2474a7f5e9)" style="fill: #c0c0c0; stroke: #4c4c4c; stroke-linejoin: miter"/>
   </g>
   <g id="patch_7">
    <path d="M 255.6 256.430769 
L 255.6 256.430769 
L 255.6 256.430769 
L 255.6 256.430769 
z
" clip-path="url(#p2474a7f5e9)" style="fill: #6076a2; stroke: #4c4c4c; stroke-linejoin: miter"/>
   </g>
   <g id="patch_8">
    <path d="M 166.32 193.714775 
L 202.032 193.714775 
L 202.032 152.647508 
L 166.32 152.647508 
L 166.32 193.714775 
z
" clip-path="url(#p2474a7f5e9)" style="fill: #c03d3e; stroke: #4c4c4c; stroke-linejoin: miter"/>
   </g>
   <g id="line2d_8">
    <path d="M 184.176 193.714775 
L 184.176 226.170072 
" clip-path="url(#p2474a7f5e9)" style="fill: none; stroke: #4c4c4c"/>
   </g>
   <g id="line2d_9">
    <path d="M 184.176 152.647508 
L 184.176 134.364081 
" clip-path="url(#p2474a7f5e9)" style="fill: none; stroke: #4c4c4c"/>
   </g>
   <g id="line2d_10">
    <path d="M 175.248 226.170072 
L 193.104 226.170072 
" clip-path="url(#p2474a7f5e9)" style="fill: none; stroke: #4c4c4c; stroke-linecap: round"/>
   </g>
   <g id="line2d_11">
    <path d="M 175.248 134.364081 
L 193.104 134.364081 
" clip-path="url(#p2474a7f5e9)" style="fill: none; stroke: #4c4c4c; stroke-linecap: round"/>
   </g>
   <g id="line2d_12"/>
   <g id="patch_9">
    <path d="M 389.52 245.572733 
L 425.232 245.572733 
L 425.232 208.452145 
L 389.52 208.452145 
L 389.52 245.572733 
z
" clip-path="url(#p2474a7f5e9)" style="fill: #c03d3e; stroke: #4c4c4c; stroke-linejoin: miter"/>
   </g>
   <g id="line2d_13">
    <path d="M 407.376 245.572733 
L 407.376 268.924419 
" clip-path="url(#p2474a7f5e9)" style="fill: none; stroke: #4c4c4c"/>
   </g>
   <g id="line2d_14">
    <path d="M 407.376 208.452145 
L 407.376 193.748983 
" clip-path="url(#p2474a7f5e9)" style="fill: none; stroke: #4c4c4c"/>
   </g>
   <g id="line2d_15">
    <path d="M 398.448 268.924419 
L 416.304 268.924419 
" clip-path="url(#p2474a7f5e9)" style="fill: none; stroke: #4c4c4c; stroke-linecap: round"/>
   </g>
   <g id="line2d_16">
    <path d="M 398.448 193.748983 
L 416.304 193.748983 
" clip-path="url(#p2474a7f5e9)" style="fill: none; stroke: #4c4c4c; stroke-linecap: round"/>
   </g>
   <g id="line2d_17"/>
   <g id="patch_10">
    <path d="M 612.72 116.342239 
L 648.432 116.342239 
L 648.432 108.908876 
L 612.72 108.908876 
L 612.72 116.342239 
z
" clip-path="url(#p2474a7f5e9)" style="fill: #c03d3e; stroke: #4c4c4c; stroke-linejoin: miter"/>
   </g>
   <g id="line2d_18">
    <path d="M 630.576 116.342239 
L 630.576 121.629479 
" clip-path="url(#p2474a7f5e9)" style="fill: none; stroke: #4c4c4c"/>
   </g>
   <g id="line2d_19">
    <path d="M 630.576 108.908876 
L 630.576 97.948844 
" clip-path="url(#p2474a7f5e9)" style="fill: none; stroke: #4c4c4c"/>
   </g>
   <g id="line2d_20">
    <path d="M 621.648 121.629479 
L 639.504 121.629479 
" clip-path="url(#p2474a7f5e9)" style="fill: none; stroke: #4c4c4c; stroke-linecap: round"/>
   </g>
   <g id="line2d_21">
    <path d="M 621.648 97.948844 
L 639.504 97.948844 
" clip-path="url(#p2474a7f5e9)" style="fill: none; stroke: #4c4c4c; stroke-linecap: round"/>
   </g>
   <g id="line2d_22">
    <defs>
     <path id="mf7301c8824" d="M 0 3 
C 0.795609 3 1.55874 2.683901 2.12132 2.12132 
C 2.683901 1.55874 3 0.795609 3 0 
C 3 -0.795609 2.683901 -1.55874 2.12132 -2.12132 
C 1.55874 -2.683901 0.795609 -3 0 -3 
C -0.795609 -3 -1.55874 -2.683901 -2.12132 -2.12132 
C -2.683901 -1.55874 -3 -0.795609 -3 0 
C -3 0.795609 -2.683901 1.55874 -2.12132 2.12132 
C -1.55874 2.683901 -0.795609 3 0 3 
z
" style="stroke: #4c4c4c"/>
    </defs>
    <g clip-path="url(#p2474a7f5e9)">
     <use xlink:href="#mf7301c8824" x="630.576" y="129.272816" style="fill-opacity: 0; stroke: #4c4c4c"/>
    </g>
   </g>
   <g id="patch_11">
    <path d="M 835.92 235.098914 
L 871.632 235.098914 
L 871.632 190.803777 
L 835.92 190.803777 
L 835.92 235.098914 
z
" clip-path="url(#p2474a7f5e9)" style="fill: #c03d3e; stroke: #4c4c4c; stroke-linejoin: miter"/>
   </g>
   <g id="line2d_23">
    <path d="M 853.776 235.098914 
L 853.776 248.201588 
" clip-path="url(#p2474a7f5e9)" style="fill: none; stroke: #4c4c4c"/>
   </g>
   <g id="line2d_24">
    <path d="M 853.776 190.803777 
L 853.776 161.132701 
" clip-path="url(#p2474a7f5e9)" style="fill: none; stroke: #4c4c4c"/>
   </g>
   <g id="line2d_25">
    <path d="M 844.848 248.201588 
L 862.704 248.201588 
" clip-path="url(#p2474a7f5e9)" style="fill: none; stroke: #4c4c4c; stroke-linecap: round"/>
   </g>
   <g id="line2d_26">
    <path d="M 844.848 161.132701 
L 862.704 161.132701 
" clip-path="url(#p2474a7f5e9)" style="fill: none; stroke: #4c4c4c; stroke-linecap: round"/>
   </g>
   <g id="line2d_27"/>
   <g id="patch_12">
    <path d="M 202.032 201.920575 
L 237.744 201.920575 
L 237.744 151.473657 
L 202.032 151.473657 
L 202.032 201.920575 
z
" clip-path="url(#p2474a7f5e9)" style="fill: #dfc120; stroke: #4c4c4c; stroke-linejoin: miter"/>
   </g>
   <g id="line2d_28">
    <path d="M 219.888 201.920575 
L 219.888 221.638173 
" clip-path="url(#p2474a7f5e9)" style="fill: none; stroke: #4c4c4c"/>
   </g>
   <g id="line2d_29">
    <path d="M 219.888 151.473657 
L 219.888 137.773066 
" clip-path="url(#p2474a7f5e9)" style="fill: none; stroke: #4c4c4c"/>
   </g>
   <g id="line2d_30">
    <path d="M 210.96 221.638173 
L 228.816 221.638173 
" clip-path="url(#p2474a7f5e9)" style="fill: none; stroke: #4c4c4c; stroke-linecap: round"/>
   </g>
   <g id="line2d_31">
    <path d="M 210.96 137.773066 
L 228.816 137.773066 
" clip-path="url(#p2474a7f5e9)" style="fill: none; stroke: #4c4c4c; stroke-linecap: round"/>
   </g>
   <g id="line2d_32"/>
   <g id="patch_13">
    <path d="M 425.232 245.605637 
L 460.944 245.605637 
L 460.944 222.220871 
L 425.232 222.220871 
L 425.232 245.605637 
z
" clip-path="url(#p2474a7f5e9)" style="fill: #dfc120; stroke: #4c4c4c; stroke-linejoin: miter"/>
   </g>
   <g id="line2d_33">
    <path d="M 443.088 245.605637 
L 443.088 258.711628 
" clip-path="url(#p2474a7f5e9)" style="fill: none; stroke: #4c4c4c"/>
   </g>
   <g id="line2d_34">
    <path d="M 443.088 222.220871 
L 443.088 208.703874 
" clip-path="url(#p2474a7f5e9)" style="fill: none; stroke: #4c4c4c"/>
   </g>
   <g id="line2d_35">
    <path d="M 434.16 258.711628 
L 452.016 258.711628 
" clip-path="url(#p2474a7f5e9)" style="fill: none; stroke: #4c4c4c; stroke-linecap: round"/>
   </g>
   <g id="line2d_36">
    <path d="M 434.16 208.703874 
L 452.016 208.703874 
" clip-path="url(#p2474a7f5e9)" style="fill: none; stroke: #4c4c4c; stroke-linecap: round"/>
   </g>
   <g id="line2d_37"/>
   <g id="patch_14">
    <path d="M 648.432 120.1879 
L 684.144 120.1879 
L 684.144 112.454145 
L 648.432 112.454145 
L 648.432 120.1879 
z
" clip-path="url(#p2474a7f5e9)" style="fill: #dfc120; stroke: #4c4c4c; stroke-linejoin: miter"/>
   </g>
   <g id="line2d_38">
    <path d="M 666.288 120.1879 
L 666.288 126.085976 
" clip-path="url(#p2474a7f5e9)" style="fill: none; stroke: #4c4c4c"/>
   </g>
   <g id="line2d_39">
    <path d="M 666.288 112.454145 
L 666.288 111.870168 
" clip-path="url(#p2474a7f5e9)" style="fill: none; stroke: #4c4c4c"/>
   </g>
   <g id="line2d_40">
    <path d="M 657.36 126.085976 
L 675.216 126.085976 
" clip-path="url(#p2474a7f5e9)" style="fill: none; stroke: #4c4c4c; stroke-linecap: round"/>
   </g>
   <g id="line2d_41">
    <path d="M 657.36 111.870168 
L 675.216 111.870168 
" clip-path="url(#p2474a7f5e9)" style="fill: none; stroke: #4c4c4c; stroke-linecap: round"/>
   </g>
   <g id="line2d_42">
    <g clip-path="url(#p2474a7f5e9)">
     <use xlink:href="#mf7301c8824" x="666.288" y="132.589347" style="fill-opacity: 0; stroke: #4c4c4c"/>
     <use xlink:href="#mf7301c8824" x="666.288" y="98.674549" style="fill-opacity: 0; stroke: #4c4c4c"/>
    </g>
   </g>
   <g id="patch_15">
    <path d="M 871.632 233.580426 
L 907.344 233.580426 
L 907.344 207.365872 
L 871.632 207.365872 
L 871.632 233.580426 
z
" clip-path="url(#p2474a7f5e9)" style="fill: #dfc120; stroke: #4c4c4c; stroke-linejoin: miter"/>
   </g>
   <g id="line2d_43">
    <path d="M 889.488 233.580426 
L 889.488 244.353858 
" clip-path="url(#p2474a7f5e9)" style="fill: none; stroke: #4c4c4c"/>
   </g>
   <g id="line2d_44">
    <path d="M 889.488 207.365872 
L 889.488 201.200848 
" clip-path="url(#p2474a7f5e9)" style="fill: none; stroke: #4c4c4c"/>
   </g>
   <g id="line2d_45">
    <path d="M 880.56 244.353858 
L 898.416 244.353858 
" clip-path="url(#p2474a7f5e9)" style="fill: none; stroke: #4c4c4c; stroke-linecap: round"/>
   </g>
   <g id="line2d_46">
    <path d="M 880.56 201.200848 
L 898.416 201.200848 
" clip-path="url(#p2474a7f5e9)" style="fill: none; stroke: #4c4c4c; stroke-linecap: round"/>
   </g>
   <g id="line2d_47">
    <g clip-path="url(#p2474a7f5e9)">
     <use xlink:href="#mf7301c8824" x="889.488" y="281.397722" style="fill-opacity: 0; stroke: #4c4c4c"/>
    </g>
   </g>
   <g id="patch_16">
    <path d="M 237.744 191.901623 
L 273.456 191.901623 
L 273.456 156.704281 
L 237.744 156.704281 
L 237.744 191.901623 
z
" clip-path="url(#p2474a7f5e9)" style="fill: #e1812c; stroke: #4c4c4c; stroke-linejoin: miter"/>
   </g>
   <g id="line2d_48">
    <path d="M 255.6 191.901623 
L 255.6 214.655371 
" clip-path="url(#p2474a7f5e9)" style="fill: none; stroke: #4c4c4c"/>
   </g>
   <g id="line2d_49">
    <path d="M 255.6 156.704281 
L 255.6 144.548105 
" clip-path="url(#p2474a7f5e9)" style="fill: none; stroke: #4c4c4c"/>
   </g>
   <g id="line2d_50">
    <path d="M 246.672 214.655371 
L 264.528 214.655371 
" clip-path="url(#p2474a7f5e9)" style="fill: none; stroke: #4c4c4c; stroke-linecap: round"/>
   </g>
   <g id="line2d_51">
    <path d="M 246.672 144.548105 
L 264.528 144.548105 
" clip-path="url(#p2474a7f5e9)" style="fill: none; stroke: #4c4c4c; stroke-linecap: round"/>
   </g>
   <g id="line2d_52"/>
   <g id="patch_17">
    <path d="M 460.944 217.474351 
L 496.656 217.474351 
L 496.656 189.829194 
L 460.944 189.829194 
L 460.944 217.474351 
z
" clip-path="url(#p2474a7f5e9)" style="fill: #e1812c; stroke: #4c4c4c; stroke-linejoin: miter"/>
   </g>
   <g id="line2d_53">
    <path d="M 478.8 217.474351 
L 478.8 229.14761 
" clip-path="url(#p2474a7f5e9)" style="fill: none; stroke: #4c4c4c"/>
   </g>
   <g id="line2d_54">
    <path d="M 478.8 189.829194 
L 478.8 175.432344 
" clip-path="url(#p2474a7f5e9)" style="fill: none; stroke: #4c4c4c"/>
   </g>
   <g id="line2d_55">
    <path d="M 469.872 229.14761 
L 487.728 229.14761 
" clip-path="url(#p2474a7f5e9)" style="fill: none; stroke: #4c4c4c; stroke-linecap: round"/>
   </g>
   <g id="line2d_56">
    <path d="M 469.872 175.432344 
L 487.728 175.432344 
" clip-path="url(#p2474a7f5e9)" style="fill: none; stroke: #4c4c4c; stroke-linecap: round"/>
   </g>
   <g id="line2d_57"/>
   <g id="patch_18">
    <path d="M 684.144 121.87788 
L 719.856 121.87788 
L 719.856 115.174122 
L 684.144 115.174122 
L 684.144 121.87788 
z
" clip-path="url(#p2474a7f5e9)" style="fill: #e1812c; stroke: #4c4c4c; stroke-linejoin: miter"/>
   </g>
   <g id="line2d_58">
    <path d="M 702 121.87788 
L 702 127.52481 
" clip-path="url(#p2474a7f5e9)" style="fill: none; stroke: #4c4c4c"/>
   </g>
   <g id="line2d_59">
    <path d="M 702 115.174122 
L 702 115.052849 
" clip-path="url(#p2474a7f5e9)" style="fill: none; stroke: #4c4c4c"/>
   </g>
   <g id="line2d_60">
    <path d="M 693.072 127.52481 
L 710.928 127.52481 
" clip-path="url(#p2474a7f5e9)" style="fill: none; stroke: #4c4c4c; stroke-linecap: round"/>
   </g>
   <g id="line2d_61">
    <path d="M 693.072 115.052849 
L 710.928 115.052849 
" clip-path="url(#p2474a7f5e9)" style="fill: none; stroke: #4c4c4c; stroke-linecap: round"/>
   </g>
   <g id="line2d_62">
    <g clip-path="url(#p2474a7f5e9)">
     <use xlink:href="#mf7301c8824" x="702" y="99.039207" style="fill-opacity: 0; stroke: #4c4c4c"/>
    </g>
   </g>
   <g id="patch_19">
    <path d="M 907.344 233.510556 
L 943.056 233.510556 
L 943.056 200.675437 
L 907.344 200.675437 
L 907.344 233.510556 
z
" clip-path="url(#p2474a7f5e9)" style="fill: #e1812c; stroke: #4c4c4c; stroke-linejoin: miter"/>
   </g>
   <g id="line2d_63">
    <path d="M 925.2 233.510556 
L 925.2 242.920509 
" clip-path="url(#p2474a7f5e9)" style="fill: none; stroke: #4c4c4c"/>
   </g>
   <g id="line2d_64">
    <path d="M 925.2 200.675437 
L 925.2 170.428834 
" clip-path="url(#p2474a7f5e9)" style="fill: none; stroke: #4c4c4c"/>
   </g>
   <g id="line2d_65">
    <path d="M 916.272 242.920509 
L 934.128 242.920509 
" clip-path="url(#p2474a7f5e9)" style="fill: none; stroke: #4c4c4c; stroke-linecap: round"/>
   </g>
   <g id="line2d_66">
    <path d="M 916.272 170.428834 
L 934.128 170.428834 
" clip-path="url(#p2474a7f5e9)" style="fill: none; stroke: #4c4c4c; stroke-linecap: round"/>
   </g>
   <g id="line2d_67"/>
   <g id="patch_20">
    <path d="M 273.456 185.595221 
L 309.168 185.595221 
L 309.168 144.033715 
L 273.456 144.033715 
L 273.456 185.595221 
z
" clip-path="url(#p2474a7f5e9)" style="fill: #c0c0c0; stroke: #4c4c4c; stroke-linejoin: miter"/>
   </g>
   <g id="line2d_68">
    <path d="M 291.312 185.595221 
L 291.312 198.398217 
" clip-path="url(#p2474a7f5e9)" style="fill: none; stroke: #4c4c4c"/>
   </g>
   <g id="line2d_69">
    <path d="M 291.312 144.033715 
L 291.312 121.895273 
" clip-path="url(#p2474a7f5e9)" style="fill: none; stroke: #4c4c4c"/>
   </g>
   <g id="line2d_70">
    <path d="M 282.384 198.398217 
L 300.24 198.398217 
" clip-path="url(#p2474a7f5e9)" style="fill: none; stroke: #4c4c4c; stroke-linecap: round"/>
   </g>
   <g id="line2d_71">
    <path d="M 282.384 121.895273 
L 300.24 121.895273 
" clip-path="url(#p2474a7f5e9)" style="fill: none; stroke: #4c4c4c; stroke-linecap: round"/>
   </g>
   <g id="line2d_72"/>
   <g id="patch_21">
    <path d="M 496.656 200.422344 
L 532.368 200.422344 
L 532.368 161.667209 
L 496.656 161.667209 
L 496.656 200.422344 
z
" clip-path="url(#p2474a7f5e9)" style="fill: #c0c0c0; stroke: #4c4c4c; stroke-linejoin: miter"/>
   </g>
   <g id="line2d_73">
    <path d="M 514.512 200.422344 
L 514.512 212.37638 
" clip-path="url(#p2474a7f5e9)" style="fill: none; stroke: #4c4c4c"/>
   </g>
   <g id="line2d_74">
    <path d="M 514.512 161.667209 
L 514.512 154.864026 
" clip-path="url(#p2474a7f5e9)" style="fill: none; stroke: #4c4c4c"/>
   </g>
   <g id="line2d_75">
    <path d="M 505.584 212.37638 
L 523.44 212.37638 
" clip-path="url(#p2474a7f5e9)" style="fill: none; stroke: #4c4c4c; stroke-linecap: round"/>
   </g>
   <g id="line2d_76">
    <path d="M 505.584 154.864026 
L 523.44 154.864026 
" clip-path="url(#p2474a7f5e9)" style="fill: none; stroke: #4c4c4c; stroke-linecap: round"/>
   </g>
   <g id="line2d_77"/>
   <g id="patch_22">
    <path d="M 719.856 130.494898 
L 755.568 130.494898 
L 755.568 115.696124 
L 719.856 115.696124 
L 719.856 130.494898 
z
" clip-path="url(#p2474a7f5e9)" style="fill: #c0c0c0; stroke: #4c4c4c; stroke-linejoin: miter"/>
   </g>
   <g id="line2d_78">
    <path d="M 737.712 130.494898 
L 737.712 134.39232 
" clip-path="url(#p2474a7f5e9)" style="fill: none; stroke: #4c4c4c"/>
   </g>
   <g id="line2d_79">
    <path d="M 737.712 115.696124 
L 737.712 109.708164 
" clip-path="url(#p2474a7f5e9)" style="fill: none; stroke: #4c4c4c"/>
   </g>
   <g id="line2d_80">
    <path d="M 728.784 134.39232 
L 746.64 134.39232 
" clip-path="url(#p2474a7f5e9)" style="fill: none; stroke: #4c4c4c; stroke-linecap: round"/>
   </g>
   <g id="line2d_81">
    <path d="M 728.784 109.708164 
L 746.64 109.708164 
" clip-path="url(#p2474a7f5e9)" style="fill: none; stroke: #4c4c4c; stroke-linecap: round"/>
   </g>
   <g id="line2d_82"/>
   <g id="patch_23">
    <path d="M 943.056 235.750898 
L 978.768 235.750898 
L 978.768 205.436809 
L 943.056 205.436809 
L 943.056 235.750898 
z
" clip-path="url(#p2474a7f5e9)" style="fill: #c0c0c0; stroke: #4c4c4c; stroke-linejoin: miter"/>
   </g>
   <g id="line2d_83">
    <path d="M 960.912 235.750898 
L 960.912 247.583451 
" clip-path="url(#p2474a7f5e9)" style="fill: none; stroke: #4c4c4c"/>
   </g>
   <g id="line2d_84">
    <path d="M 960.912 205.436809 
L 960.912 182.86797 
" clip-path="url(#p2474a7f5e9)" style="fill: none; stroke: #4c4c4c"/>
   </g>
   <g id="line2d_85">
    <path d="M 951.984 247.583451 
L 969.84 247.583451 
" clip-path="url(#p2474a7f5e9)" style="fill: none; stroke: #4c4c4c; stroke-linecap: round"/>
   </g>
   <g id="line2d_86">
    <path d="M 951.984 182.86797 
L 969.84 182.86797 
" clip-path="url(#p2474a7f5e9)" style="fill: none; stroke: #4c4c4c; stroke-linecap: round"/>
   </g>
   <g id="line2d_87"/>
   <g id="patch_24">
    <path d="M 309.168 220.491974 
L 344.88 220.491974 
L 344.88 185.292102 
L 309.168 185.292102 
L 309.168 220.491974 
z
" clip-path="url(#p2474a7f5e9)" style="fill: #6076a2; stroke: #4c4c4c; stroke-linejoin: miter"/>
   </g>
   <g id="line2d_88">
    <path d="M 327.024 220.491974 
L 327.024 265.054788 
" clip-path="url(#p2474a7f5e9)" style="fill: none; stroke: #4c4c4c"/>
   </g>
   <g id="line2d_89">
    <path d="M 327.024 185.292102 
L 327.024 153.678253 
" clip-path="url(#p2474a7f5e9)" style="fill: none; stroke: #4c4c4c"/>
   </g>
   <g id="line2d_90">
    <path d="M 318.096 265.054788 
L 335.952 265.054788 
" clip-path="url(#p2474a7f5e9)" style="fill: none; stroke: #4c4c4c; stroke-linecap: round"/>
   </g>
   <g id="line2d_91">
    <path d="M 318.096 153.678253 
L 335.952 153.678253 
" clip-path="url(#p2474a7f5e9)" style="fill: none; stroke: #4c4c4c; stroke-linecap: round"/>
   </g>
   <g id="line2d_92"/>
   <g id="patch_25">
    <path d="M 532.368 283.449588 
L 568.08 283.449588 
L 568.08 257.615018 
L 532.368 257.615018 
L 532.368 283.449588 
z
" clip-path="url(#p2474a7f5e9)" style="fill: #6076a2; stroke: #4c4c4c; stroke-linejoin: miter"/>
   </g>
   <g id="line2d_93">
    <path d="M 550.224 283.449588 
L 550.224 298.392983 
" clip-path="url(#p2474a7f5e9)" style="fill: none; stroke: #4c4c4c"/>
   </g>
   <g id="line2d_94">
    <path d="M 550.224 257.615018 
L 550.224 250.322556 
" clip-path="url(#p2474a7f5e9)" style="fill: none; stroke: #4c4c4c"/>
   </g>
   <g id="line2d_95">
    <path d="M 541.296 298.392983 
L 559.152 298.392983 
" clip-path="url(#p2474a7f5e9)" style="fill: none; stroke: #4c4c4c; stroke-linecap: round"/>
   </g>
   <g id="line2d_96">
    <path d="M 541.296 250.322556 
L 559.152 250.322556 
" clip-path="url(#p2474a7f5e9)" style="fill: none; stroke: #4c4c4c; stroke-linecap: round"/>
   </g>
   <g id="line2d_97"/>
   <g id="patch_26">
    <path d="M 755.568 128.688966 
L 791.28 128.688966 
L 791.28 117.01516 
L 755.568 117.01516 
L 755.568 128.688966 
z
" clip-path="url(#p2474a7f5e9)" style="fill: #6076a2; stroke: #4c4c4c; stroke-linejoin: miter"/>
   </g>
   <g id="line2d_98">
    <path d="M 773.424 128.688966 
L 773.424 144.939089 
" clip-path="url(#p2474a7f5e9)" style="fill: none; stroke: #4c4c4c"/>
   </g>
   <g id="line2d_99">
    <path d="M 773.424 117.01516 
L 773.424 109.661382 
" clip-path="url(#p2474a7f5e9)" style="fill: none; stroke: #4c4c4c"/>
   </g>
   <g id="line2d_100">
    <path d="M 764.496 144.939089 
L 782.352 144.939089 
" clip-path="url(#p2474a7f5e9)" style="fill: none; stroke: #4c4c4c; stroke-linecap: round"/>
   </g>
   <g id="line2d_101">
    <path d="M 764.496 109.661382 
L 782.352 109.661382 
" clip-path="url(#p2474a7f5e9)" style="fill: none; stroke: #4c4c4c; stroke-linecap: round"/>
   </g>
   <g id="line2d_102"/>
   <g id="patch_27">
    <path d="M 978.768 243.421514 
L 1014.48 243.421514 
L 1014.48 216.141836 
L 978.768 216.141836 
L 978.768 243.421514 
z
" clip-path="url(#p2474a7f5e9)" style="fill: #6076a2; stroke: #4c4c4c; stroke-linejoin: miter"/>
   </g>
   <g id="line2d_103">
    <path d="M 996.624 243.421514 
L 996.624 257.149434 
" clip-path="url(#p2474a7f5e9)" style="fill: none; stroke: #4c4c4c"/>
   </g>
   <g id="line2d_104">
    <path d="M 996.624 216.141836 
L 996.624 179.423778 
" clip-path="url(#p2474a7f5e9)" style="fill: none; stroke: #4c4c4c"/>
   </g>
   <g id="line2d_105">
    <path d="M 987.696 257.149434 
L 1005.552 257.149434 
" clip-path="url(#p2474a7f5e9)" style="fill: none; stroke: #4c4c4c; stroke-linecap: round"/>
   </g>
   <g id="line2d_106">
    <path d="M 987.696 179.423778 
L 1005.552 179.423778 
" clip-path="url(#p2474a7f5e9)" style="fill: none; stroke: #4c4c4c; stroke-linecap: round"/>
   </g>
   <g id="line2d_107">
    <g clip-path="url(#p2474a7f5e9)">
     <use xlink:href="#mf7301c8824" x="996.624" y="308.437807" style="fill-opacity: 0; stroke: #4c4c4c"/>
    </g>
   </g>
   <g id="line2d_108">
    <path d="M 166.32 174.434098 
L 202.032 174.434098 
" clip-path="url(#p2474a7f5e9)" style="fill: none; stroke: #4c4c4c"/>
   </g>
   <g id="line2d_109">
    <path d="M 389.52 229.301488 
L 425.232 229.301488 
" clip-path="url(#p2474a7f5e9)" style="fill: none; stroke: #4c4c4c"/>
   </g>
   <g id="line2d_110">
    <path d="M 612.72 112.752694 
L 648.432 112.752694 
" clip-path="url(#p2474a7f5e9)" style="fill: none; stroke: #4c4c4c"/>
   </g>
   <g id="line2d_111">
    <path d="M 835.92 197.927847 
L 871.632 197.927847 
" clip-path="url(#p2474a7f5e9)" style="fill: none; stroke: #4c4c4c"/>
   </g>
   <g id="line2d_112">
    <path d="M 202.032 171.093652 
L 237.744 171.093652 
" clip-path="url(#p2474a7f5e9)" style="fill: none; stroke: #4c4c4c"/>
   </g>
   <g id="line2d_113">
    <path d="M 425.232 237.061103 
L 460.944 237.061103 
" clip-path="url(#p2474a7f5e9)" style="fill: none; stroke: #4c4c4c"/>
   </g>
   <g id="line2d_114">
    <path d="M 648.432 116.378048 
L 684.144 116.378048 
" clip-path="url(#p2474a7f5e9)" style="fill: none; stroke: #4c4c4c"/>
   </g>
   <g id="line2d_115">
    <path d="M 871.632 212.977906 
L 907.344 212.977906 
" clip-path="url(#p2474a7f5e9)" style="fill: none; stroke: #4c4c4c"/>
   </g>
   <g id="line2d_116">
    <path d="M 237.744 172.536083 
L 273.456 172.536083 
" clip-path="url(#p2474a7f5e9)" style="fill: none; stroke: #4c4c4c"/>
   </g>
   <g id="line2d_117">
    <path d="M 460.944 212.213831 
L 496.656 212.213831 
" clip-path="url(#p2474a7f5e9)" style="fill: none; stroke: #4c4c4c"/>
   </g>
   <g id="line2d_118">
    <path d="M 684.144 115.71291 
L 719.856 115.71291 
" clip-path="url(#p2474a7f5e9)" style="fill: none; stroke: #4c4c4c"/>
   </g>
   <g id="line2d_119">
    <path d="M 907.344 217.430869 
L 943.056 217.430869 
" clip-path="url(#p2474a7f5e9)" style="fill: none; stroke: #4c4c4c"/>
   </g>
   <g id="line2d_120">
    <path d="M 273.456 162.13956 
L 309.168 162.13956 
" clip-path="url(#p2474a7f5e9)" style="fill: none; stroke: #4c4c4c"/>
   </g>
   <g id="line2d_121">
    <path d="M 496.656 190.497891 
L 532.368 190.497891 
" clip-path="url(#p2474a7f5e9)" style="fill: none; stroke: #4c4c4c"/>
   </g>
   <g id="line2d_122">
    <path d="M 719.856 121.636535 
L 755.568 121.636535 
" clip-path="url(#p2474a7f5e9)" style="fill: none; stroke: #4c4c4c"/>
   </g>
   <g id="line2d_123">
    <path d="M 943.056 206.410439 
L 978.768 206.410439 
" clip-path="url(#p2474a7f5e9)" style="fill: none; stroke: #4c4c4c"/>
   </g>
   <g id="line2d_124">
    <path d="M 309.168 194.290822 
L 344.88 194.290822 
" clip-path="url(#p2474a7f5e9)" style="fill: none; stroke: #4c4c4c"/>
   </g>
   <g id="line2d_125">
    <path d="M 532.368 265.607017 
L 568.08 265.607017 
" clip-path="url(#p2474a7f5e9)" style="fill: none; stroke: #4c4c4c"/>
   </g>
   <g id="line2d_126">
    <path d="M 755.568 122.621215 
L 791.28 122.621215 
" clip-path="url(#p2474a7f5e9)" style="fill: none; stroke: #4c4c4c"/>
   </g>
   <g id="line2d_127">
    <path d="M 978.768 237.589209 
L 1014.48 237.589209 
" clip-path="url(#p2474a7f5e9)" style="fill: none; stroke: #4c4c4c"/>
   </g>
   <g id="patch_28">
    <path d="M 144 320.4 
L 144 43.2 
" style="fill: none; stroke: #cccccc; stroke-width: 1.25; stroke-linejoin: miter; stroke-linecap: square"/>
   </g>
   <g id="patch_29">
    <path d="M 1036.8 320.4 
L 1036.8 43.2 
" style="fill: none; stroke: #cccccc; stroke-width: 1.25; stroke-linejoin: miter; stroke-linecap: square"/>
   </g>
   <g id="patch_30">
    <path d="M 144 320.4 
L 1036.8 320.4 
" style="fill: none; stroke: #cccccc; stroke-width: 1.25; stroke-linejoin: miter; stroke-linecap: square"/>
   </g>
   <g id="patch_31">
    <path d="M 144 43.2 
L 1036.8 43.2 
" style="fill: none; stroke: #cccccc; stroke-width: 1.25; stroke-linejoin: miter; stroke-linecap: square"/>
   </g>
   <g id="legend_1">
    <g id="patch_32">
     <path d="M 938.03375 149.999844 
L 1029.1 149.999844 
Q 1031.3 149.999844 1031.3 147.799844 
L 1031.3 50.9 
Q 1031.3 48.7 1029.1 48.7 
L 938.03375 48.7 
Q 935.83375 48.7 935.83375 50.9 
L 935.83375 147.799844 
Q 935.83375 149.999844 938.03375 149.999844 
z
" style="fill: #ffffff; opacity: 0.8; stroke: #cccccc; stroke-linejoin: miter"/>
    </g>
    <g id="text_14">
     <!-- Model -->
     <g style="fill: #262626" transform="translate(964.5 62.218125) scale(0.12 -0.12)">
      <use xlink:href="#DejaVuSerif-4d"/>
      <use xlink:href="#DejaVuSerif-6f" x="102.392578"/>
      <use xlink:href="#DejaVuSerif-64" x="162.597656"/>
      <use xlink:href="#DejaVuSerif-65" x="226.611328"/>
      <use xlink:href="#DejaVuSerif-6c" x="285.791016"/>
     </g>
    </g>
    <g id="patch_33">
     <path d="M 940.23375 78.572031 
L 962.23375 78.572031 
L 962.23375 70.872031 
L 940.23375 70.872031 
z
" style="fill: #c03d3e; stroke: #4c4c4c; stroke-linejoin: miter"/>
    </g>
    <g id="text_15">
     <!-- Ridge -->
     <g style="fill: #262626" transform="translate(971.03375 78.572031) scale(0.11 -0.11)">
      <defs>
       <path id="DejaVuSerif-52" d="M 3066 2316 
Q 3284 2256 3442 2114 
Q 3600 1972 3725 1716 
L 4403 331 
L 4972 331 
L 4972 0 
L 3872 0 
L 3144 1484 
Q 2934 1916 2759 2042 
Q 2584 2169 2278 2169 
L 1581 2169 
L 1581 331 
L 2241 331 
L 2241 0 
L 353 0 
L 353 331 
L 947 331 
L 947 4331 
L 353 4331 
L 353 4666 
L 2719 4666 
Q 3400 4666 3770 4341 
Q 4141 4016 4141 3419 
Q 4141 2938 3870 2661 
Q 3600 2384 3066 2316 
z
M 1581 2503 
L 2503 2503 
Q 2975 2503 3200 2726 
Q 3425 2950 3425 3419 
Q 3425 3888 3200 4109 
Q 2975 4331 2503 4331 
L 1581 4331 
L 1581 2503 
z
" transform="scale(0.015625)"/>
      </defs>
      <use xlink:href="#DejaVuSerif-52"/>
      <use xlink:href="#DejaVuSerif-69" x="75.292969"/>
      <use xlink:href="#DejaVuSerif-64" x="107.275391"/>
      <use xlink:href="#DejaVuSerif-67" x="171.289062"/>
      <use xlink:href="#DejaVuSerif-65" x="235.302734"/>
     </g>
    </g>
    <g id="patch_34">
     <path d="M 940.23375 94.874375 
L 962.23375 94.874375 
L 962.23375 87.174375 
L 940.23375 87.174375 
z
" style="fill: #dfc120; stroke: #4c4c4c; stroke-linejoin: miter"/>
    </g>
    <g id="text_16">
     <!-- Lasso -->
     <g style="fill: #262626" transform="translate(971.03375 94.874375) scale(0.11 -0.11)">
      <defs>
       <path id="DejaVuSerif-4c" d="M 353 0 
L 353 331 
L 947 331 
L 947 4331 
L 353 4331 
L 353 4666 
L 2175 4666 
L 2175 4331 
L 1581 4331 
L 1581 384 
L 3713 384 
L 3713 1166 
L 4097 1166 
L 4097 0 
L 353 0 
z
" transform="scale(0.015625)"/>
       <path id="DejaVuSerif-73" d="M 359 184 
L 359 959 
L 691 959 
Q 703 588 923 403 
Q 1144 219 1575 219 
Q 1963 219 2166 364 
Q 2369 509 2369 788 
Q 2369 1006 2220 1140 
Q 2072 1275 1594 1428 
L 1178 1569 
Q 750 1706 558 1912 
Q 366 2119 366 2438 
Q 366 2894 700 3153 
Q 1034 3413 1625 3413 
Q 1888 3413 2178 3344 
Q 2469 3275 2778 3144 
L 2778 2419 
L 2447 2419 
Q 2434 2741 2221 2922 
Q 2009 3103 1644 3103 
Q 1281 3103 1095 2975 
Q 909 2847 909 2591 
Q 909 2381 1050 2254 
Q 1191 2128 1613 1997 
L 2069 1856 
Q 2541 1709 2748 1489 
Q 2956 1269 2956 922 
Q 2956 450 2595 179 
Q 2234 -91 1600 -91 
Q 1278 -91 972 -22 
Q 666 47 359 184 
z
" transform="scale(0.015625)"/>
      </defs>
      <use xlink:href="#DejaVuSerif-4c"/>
      <use xlink:href="#DejaVuSerif-61" x="66.40625"/>
      <use xlink:href="#DejaVuSerif-73" x="126.025391"/>
      <use xlink:href="#DejaVuSerif-73" x="177.34375"/>
      <use xlink:href="#DejaVuSerif-6f" x="228.662109"/>
     </g>
    </g>
    <g id="patch_35">
     <path d="M 940.23375 111.020312 
L 962.23375 111.020312 
L 962.23375 103.320312 
L 940.23375 103.320312 
z
" style="fill: #e1812c; stroke: #4c4c4c; stroke-linejoin: miter"/>
    </g>
    <g id="text_17">
     <!-- Elasticnet -->
     <g style="fill: #262626" transform="translate(971.03375 111.020312) scale(0.11 -0.11)">
      <defs>
       <path id="DejaVuSerif-45" d="M 353 0 
L 353 331 
L 947 331 
L 947 4331 
L 353 4331 
L 353 4666 
L 4109 4666 
L 4109 3628 
L 3725 3628 
L 3725 4281 
L 1581 4281 
L 1581 2719 
L 3109 2719 
L 3109 3303 
L 3494 3303 
L 3494 1753 
L 3109 1753 
L 3109 2338 
L 1581 2338 
L 1581 384 
L 3775 384 
L 3775 1038 
L 4159 1038 
L 4159 0 
L 353 0 
z
" transform="scale(0.015625)"/>
      </defs>
      <use xlink:href="#DejaVuSerif-45"/>
      <use xlink:href="#DejaVuSerif-6c" x="72.998047"/>
      <use xlink:href="#DejaVuSerif-61" x="104.980469"/>
      <use xlink:href="#DejaVuSerif-73" x="164.599609"/>
      <use xlink:href="#DejaVuSerif-74" x="215.917969"/>
      <use xlink:href="#DejaVuSerif-69" x="256.103516"/>
      <use xlink:href="#DejaVuSerif-63" x="288.085938"/>
      <use xlink:href="#DejaVuSerif-6e" x="344.091797"/>
      <use xlink:href="#DejaVuSerif-65" x="408.496094"/>
      <use xlink:href="#DejaVuSerif-74" x="467.675781"/>
     </g>
    </g>
    <g id="patch_36">
     <path d="M 940.23375 127.16625 
L 962.23375 127.16625 
L 962.23375 119.46625 
L 940.23375 119.46625 
z
" style="fill: #c0c0c0; stroke: #4c4c4c; stroke-linejoin: miter"/>
    </g>
    <g id="text_18">
     <!-- RF -->
     <g style="fill: #262626" transform="translate(971.03375 127.16625) scale(0.11 -0.11)">
      <use xlink:href="#DejaVuSerif-52"/>
      <use xlink:href="#DejaVuSerif-46" x="75.292969"/>
     </g>
    </g>
    <g id="patch_37">
     <path d="M 940.23375 143.312188 
L 962.23375 143.312188 
L 962.23375 135.612188 
L 940.23375 135.612188 
z
" style="fill: #6076a2; stroke: #4c4c4c; stroke-linejoin: miter"/>
    </g>
    <g id="text_19">
     <!-- MLP -->
     <g style="fill: #262626" transform="translate(971.03375 143.312188) scale(0.11 -0.11)">
      <use xlink:href="#DejaVuSerif-4d"/>
      <use xlink:href="#DejaVuSerif-4c" x="102.392578"/>
      <use xlink:href="#DejaVuSerif-50" x="168.798828"/>
     </g>
    </g>
   </g>
  </g>
 </g>
 <defs>
  <clipPath id="p2474a7f5e9">
   <rect x="144" y="43.2" width="892.8" height="277.2"/>
  </clipPath>
 </defs>
</svg>
