<?xml version="1.0" encoding="utf-8" standalone="no"?>
<!DOCTYPE svg PUBLIC "-//W3C//DTD SVG 1.1//EN"
  "http://www.w3.org/Graphics/SVG/1.1/DTD/svg11.dtd">
<svg xmlns:xlink="http://www.w3.org/1999/xlink" width="1008pt" height="396pt" viewBox="0 0 1008 396" xmlns="http://www.w3.org/2000/svg" version="1.1">
 <metadata>
  <rdf:RDF xmlns:dc="http://purl.org/dc/elements/1.1/" xmlns:cc="http://creativecommons.org/ns#" xmlns:rdf="http://www.w3.org/1999/02/22-rdf-syntax-ns#">
   <cc:Work>
    <dc:type rdf:resource="http://purl.org/dc/dcmitype/StillImage"/>
    <dc:date>2024-07-24T07:12:12.721148</dc:date>
    <dc:format>image/svg+xml</dc:format>
    <dc:creator>
     <cc:Agent>
      <dc:title>Matplotlib v3.8.4, https://matplotlib.org/</dc:title>
     </cc:Agent>
    </dc:creator>
   </cc:Work>
  </rdf:RDF>
 </metadata>
 <defs>
  <style type="text/css">*{stroke-linejoin: round; stroke-linecap: butt}</style>
 </defs>
 <g id="figure_1">
  <g id="patch_1">
   <path d="M 0 396 
L 1008 396 
L 1008 0 
L 0 0 
z
" style="fill: #ffffff"/>
  </g>
  <g id="axes_1">
   <g id="patch_2">
    <path d="M 126 352.44 
L 355.764706 352.44 
L 355.764706 47.52 
L 126 47.52 
z
" style="fill: #ffffff"/>
   </g>
   <g id="matplotlib.axis_1">
    <g id="xtick_1">
     <g id="text_1">
      <!-- macroscopic trait -->
      <g style="fill: #262626" transform="translate(134.516958 370.298281) scale(0.11 -0.11)">
       <defs>
        <path id="DejaVuSerif-6d" d="M 3316 2675 
Q 3481 3041 3739 3227 
Q 3997 3413 4341 3413 
Q 4863 3413 5119 3089 
Q 5375 2766 5375 2113 
L 5375 331 
L 5894 331 
L 5894 0 
L 4300 0 
L 4300 331 
L 4800 331 
L 4800 2047 
Q 4800 2556 4650 2772 
Q 4500 2988 4153 2988 
Q 3769 2988 3567 2697 
Q 3366 2406 3366 1850 
L 3366 331 
L 3866 331 
L 3866 0 
L 2291 0 
L 2291 331 
L 2791 331 
L 2791 2069 
Q 2791 2566 2641 2777 
Q 2491 2988 2144 2988 
Q 1759 2988 1557 2697 
Q 1356 2406 1356 1850 
L 1356 331 
L 1856 331 
L 1856 0 
L 263 0 
L 263 331 
L 781 331 
L 781 2994 
L 231 2994 
L 231 3322 
L 1356 3322 
L 1356 2731 
Q 1516 3063 1762 3238 
Q 2009 3413 2322 3413 
Q 2709 3413 2968 3220 
Q 3228 3028 3316 2675 
z
" transform="scale(0.015625)"/>
        <path id="DejaVuSerif-61" d="M 2547 1044 
L 2547 1747 
L 1806 1747 
Q 1378 1747 1168 1562 
Q 959 1378 959 997 
Q 959 650 1171 447 
Q 1384 244 1747 244 
Q 2106 244 2326 466 
Q 2547 688 2547 1044 
z
M 3122 2075 
L 3122 331 
L 3634 331 
L 3634 0 
L 2547 0 
L 2547 359 
Q 2356 128 2106 18 
Q 1856 -91 1522 -91 
Q 969 -91 644 203 
Q 319 497 319 997 
Q 319 1513 691 1797 
Q 1063 2081 1741 2081 
L 2547 2081 
L 2547 2309 
Q 2547 2688 2317 2895 
Q 2088 3103 1672 3103 
Q 1328 3103 1125 2947 
Q 922 2791 872 2484 
L 575 2484 
L 575 3156 
Q 875 3284 1158 3348 
Q 1441 3413 1709 3413 
Q 2400 3413 2761 3070 
Q 3122 2728 3122 2075 
z
" transform="scale(0.015625)"/>
        <path id="DejaVuSerif-63" d="M 3291 997 
Q 3169 466 2822 187 
Q 2475 -91 1925 -91 
Q 1200 -91 759 389 
Q 319 869 319 1663 
Q 319 2459 759 2936 
Q 1200 3413 1925 3413 
Q 2241 3413 2553 3339 
Q 2866 3266 3181 3116 
L 3181 2266 
L 2847 2266 
Q 2781 2703 2561 2903 
Q 2341 3103 1931 3103 
Q 1466 3103 1228 2742 
Q 991 2381 991 1663 
Q 991 944 1227 581 
Q 1463 219 1931 219 
Q 2303 219 2525 412 
Q 2747 606 2828 997 
L 3291 997 
z
" transform="scale(0.015625)"/>
        <path id="DejaVuSerif-72" d="M 3059 3328 
L 3059 2497 
L 2728 2497 
Q 2713 2744 2591 2866 
Q 2469 2988 2234 2988 
Q 1809 2988 1582 2694 
Q 1356 2400 1356 1850 
L 1356 331 
L 2022 331 
L 2022 0 
L 263 0 
L 263 331 
L 781 331 
L 781 2994 
L 231 2994 
L 231 3322 
L 1356 3322 
L 1356 2731 
Q 1525 3078 1790 3245 
Q 2056 3413 2438 3413 
Q 2578 3413 2733 3391 
Q 2888 3369 3059 3328 
z
" transform="scale(0.015625)"/>
        <path id="DejaVuSerif-6f" d="M 1925 219 
Q 2388 219 2623 584 
Q 2859 950 2859 1663 
Q 2859 2375 2623 2739 
Q 2388 3103 1925 3103 
Q 1463 3103 1227 2739 
Q 991 2375 991 1663 
Q 991 950 1228 584 
Q 1466 219 1925 219 
z
M 1925 -91 
Q 1200 -91 759 389 
Q 319 869 319 1663 
Q 319 2456 758 2934 
Q 1197 3413 1925 3413 
Q 2653 3413 3092 2934 
Q 3531 2456 3531 1663 
Q 3531 869 3092 389 
Q 2653 -91 1925 -91 
z
" transform="scale(0.015625)"/>
        <path id="DejaVuSerif-73" d="M 359 184 
L 359 959 
L 691 959 
Q 703 588 923 403 
Q 1144 219 1575 219 
Q 1963 219 2166 364 
Q 2369 509 2369 788 
Q 2369 1006 2220 1140 
Q 2072 1275 1594 1428 
L 1178 1569 
Q 750 1706 558 1912 
Q 366 2119 366 2438 
Q 366 2894 700 3153 
Q 1034 3413 1625 3413 
Q 1888 3413 2178 3344 
Q 2469 3275 2778 3144 
L 2778 2419 
L 2447 2419 
Q 2434 2741 2221 2922 
Q 2009 3103 1644 3103 
Q 1281 3103 1095 2975 
Q 909 2847 909 2591 
Q 909 2381 1050 2254 
Q 1191 2128 1613 1997 
L 2069 1856 
Q 2541 1709 2748 1489 
Q 2956 1269 2956 922 
Q 2956 450 2595 179 
Q 2234 -91 1600 -91 
Q 1278 -91 972 -22 
Q 666 47 359 184 
z
" transform="scale(0.015625)"/>
        <path id="DejaVuSerif-70" d="M 1313 1825 
L 1313 1497 
Q 1313 897 1542 583 
Q 1772 269 2209 269 
Q 2650 269 2876 622 
Q 3103 975 3103 1663 
Q 3103 2353 2876 2703 
Q 2650 3053 2209 3053 
Q 1772 3053 1542 2737 
Q 1313 2422 1313 1825 
z
M 738 2988 
L 184 2988 
L 184 3322 
L 1313 3322 
L 1313 2803 
Q 1481 3116 1742 3264 
Q 2003 3413 2388 3413 
Q 3000 3413 3387 2928 
Q 3775 2444 3775 1663 
Q 3775 881 3387 395 
Q 3000 -91 2388 -91 
Q 2003 -91 1742 57 
Q 1481 206 1313 519 
L 1313 -997 
L 1856 -997 
L 1856 -1331 
L 184 -1331 
L 184 -997 
L 738 -997 
L 738 2988 
z
" transform="scale(0.015625)"/>
        <path id="DejaVuSerif-69" d="M 622 4353 
Q 622 4497 726 4603 
Q 831 4709 978 4709 
Q 1122 4709 1226 4603 
Q 1331 4497 1331 4353 
Q 1331 4206 1228 4103 
Q 1125 4000 978 4000 
Q 831 4000 726 4103 
Q 622 4206 622 4353 
z
M 1356 331 
L 1900 331 
L 1900 0 
L 231 0 
L 231 331 
L 781 331 
L 781 2988 
L 231 2988 
L 231 3322 
L 1356 3322 
L 1356 331 
z
" transform="scale(0.015625)"/>
        <path id="DejaVuSerif-20" transform="scale(0.015625)"/>
        <path id="DejaVuSerif-74" d="M 691 2988 
L 184 2988 
L 184 3322 
L 691 3322 
L 691 4353 
L 1269 4353 
L 1269 3322 
L 2350 3322 
L 2350 2988 
L 1269 2988 
L 1269 878 
Q 1269 456 1350 337 
Q 1431 219 1650 219 
Q 1875 219 1978 351 
Q 2081 484 2088 781 
L 2522 781 
Q 2497 328 2275 118 
Q 2053 -91 1600 -91 
Q 1103 -91 897 129 
Q 691 350 691 878 
L 691 2988 
z
" transform="scale(0.015625)"/>
       </defs>
       <use xlink:href="#DejaVuSerif-6d"/>
       <use xlink:href="#DejaVuSerif-61" x="94.824219"/>
       <use xlink:href="#DejaVuSerif-63" x="154.443359"/>
       <use xlink:href="#DejaVuSerif-72" x="210.449219"/>
       <use xlink:href="#DejaVuSerif-6f" x="258.251953"/>
       <use xlink:href="#DejaVuSerif-73" x="318.457031"/>
       <use xlink:href="#DejaVuSerif-63" x="369.775391"/>
       <use xlink:href="#DejaVuSerif-6f" x="425.78125"/>
       <use xlink:href="#DejaVuSerif-70" x="485.986328"/>
       <use xlink:href="#DejaVuSerif-69" x="550"/>
       <use xlink:href="#DejaVuSerif-63" x="581.982422"/>
       <use xlink:href="#DejaVuSerif-20" x="637.988281"/>
       <use xlink:href="#DejaVuSerif-74" x="669.775391"/>
       <use xlink:href="#DejaVuSerif-72" x="709.960938"/>
       <use xlink:href="#DejaVuSerif-61" x="757.763672"/>
       <use xlink:href="#DejaVuSerif-69" x="817.382812"/>
       <use xlink:href="#DejaVuSerif-74" x="849.365234"/>
      </g>
     </g>
    </g>
    <g id="xtick_2">
     <g id="text_2">
      <!-- biochemical trait -->
      <g style="fill: #262626" transform="translate(250.925561 370.298281) scale(0.11 -0.11)">
       <defs>
        <path id="DejaVuSerif-62" d="M 738 331 
L 738 4531 
L 184 4531 
L 184 4863 
L 1313 4863 
L 1313 2803 
Q 1481 3116 1742 3264 
Q 2003 3413 2388 3413 
Q 3000 3413 3387 2928 
Q 3775 2444 3775 1663 
Q 3775 881 3387 395 
Q 3000 -91 2388 -91 
Q 2003 -91 1742 57 
Q 1481 206 1313 519 
L 1313 0 
L 184 0 
L 184 331 
L 738 331 
z
M 1313 1497 
Q 1313 897 1542 583 
Q 1772 269 2209 269 
Q 2650 269 2876 622 
Q 3103 975 3103 1663 
Q 3103 2353 2876 2703 
Q 2650 3053 2209 3053 
Q 1772 3053 1542 2737 
Q 1313 2422 1313 1825 
L 1313 1497 
z
" transform="scale(0.015625)"/>
        <path id="DejaVuSerif-68" d="M 263 0 
L 263 331 
L 781 331 
L 781 4531 
L 231 4531 
L 231 4863 
L 1356 4863 
L 1356 2731 
Q 1516 3069 1770 3241 
Q 2025 3413 2363 3413 
Q 2913 3413 3172 3097 
Q 3431 2781 3431 2113 
L 3431 331 
L 3944 331 
L 3944 0 
L 2356 0 
L 2356 331 
L 2853 331 
L 2853 1931 
Q 2853 2541 2704 2764 
Q 2556 2988 2175 2988 
Q 1775 2988 1565 2697 
Q 1356 2406 1356 1850 
L 1356 331 
L 1856 331 
L 1856 0 
L 263 0 
z
" transform="scale(0.015625)"/>
        <path id="DejaVuSerif-65" d="M 3469 1600 
L 991 1600 
L 991 1575 
Q 991 903 1244 561 
Q 1497 219 1991 219 
Q 2369 219 2611 417 
Q 2853 616 2950 1006 
L 3413 1006 
Q 3275 459 2904 184 
Q 2534 -91 1931 -91 
Q 1203 -91 761 389 
Q 319 869 319 1663 
Q 319 2450 753 2931 
Q 1188 3413 1894 3413 
Q 2647 3413 3050 2948 
Q 3453 2484 3469 1600 
z
M 2791 1931 
Q 2772 2513 2545 2808 
Q 2319 3103 1894 3103 
Q 1497 3103 1269 2806 
Q 1041 2509 991 1931 
L 2791 1931 
z
" transform="scale(0.015625)"/>
        <path id="DejaVuSerif-6c" d="M 1313 331 
L 1856 331 
L 1856 0 
L 184 0 
L 184 331 
L 738 331 
L 738 4531 
L 184 4531 
L 184 4863 
L 1313 4863 
L 1313 331 
z
" transform="scale(0.015625)"/>
       </defs>
       <use xlink:href="#DejaVuSerif-62"/>
       <use xlink:href="#DejaVuSerif-69" x="64.013672"/>
       <use xlink:href="#DejaVuSerif-6f" x="95.996094"/>
       <use xlink:href="#DejaVuSerif-63" x="156.201172"/>
       <use xlink:href="#DejaVuSerif-68" x="212.207031"/>
       <use xlink:href="#DejaVuSerif-65" x="276.611328"/>
       <use xlink:href="#DejaVuSerif-6d" x="335.791016"/>
       <use xlink:href="#DejaVuSerif-69" x="430.615234"/>
       <use xlink:href="#DejaVuSerif-63" x="462.597656"/>
       <use xlink:href="#DejaVuSerif-61" x="518.603516"/>
       <use xlink:href="#DejaVuSerif-6c" x="578.222656"/>
       <use xlink:href="#DejaVuSerif-20" x="610.205078"/>
       <use xlink:href="#DejaVuSerif-74" x="641.992188"/>
       <use xlink:href="#DejaVuSerif-72" x="682.177734"/>
       <use xlink:href="#DejaVuSerif-61" x="729.980469"/>
       <use xlink:href="#DejaVuSerif-69" x="789.599609"/>
       <use xlink:href="#DejaVuSerif-74" x="821.582031"/>
      </g>
     </g>
    </g>
    <g id="text_3">
     <!-- trait ontology -->
     <g style="fill: #262626" transform="translate(199.526415 385.704063) scale(0.12 -0.12)">
      <defs>
       <path id="DejaVuSerif-6e" d="M 263 0 
L 263 331 
L 781 331 
L 781 2988 
L 231 2988 
L 231 3322 
L 1356 3322 
L 1356 2731 
Q 1516 3069 1770 3241 
Q 2025 3413 2363 3413 
Q 2913 3413 3172 3097 
Q 3431 2781 3431 2113 
L 3431 331 
L 3944 331 
L 3944 0 
L 2356 0 
L 2356 331 
L 2853 331 
L 2853 1931 
Q 2853 2541 2703 2767 
Q 2553 2994 2175 2994 
Q 1775 2994 1565 2701 
Q 1356 2409 1356 1850 
L 1356 331 
L 1856 331 
L 1856 0 
L 263 0 
z
" transform="scale(0.015625)"/>
       <path id="DejaVuSerif-67" d="M 3359 2988 
L 3359 72 
Q 3359 -644 2965 -1033 
Q 2572 -1422 1844 -1422 
Q 1516 -1422 1216 -1362 
Q 916 -1303 641 -1184 
L 641 -488 
L 941 -488 
Q 997 -813 1206 -963 
Q 1416 -1113 1806 -1113 
Q 2313 -1113 2548 -827 
Q 2784 -541 2784 72 
L 2784 519 
Q 2616 206 2355 57 
Q 2094 -91 1709 -91 
Q 1097 -91 708 395 
Q 319 881 319 1663 
Q 319 2444 706 2928 
Q 1094 3413 1709 3413 
Q 2094 3413 2355 3264 
Q 2616 3116 2784 2803 
L 2784 3322 
L 3909 3322 
L 3909 2988 
L 3359 2988 
z
M 2784 1825 
Q 2784 2422 2554 2737 
Q 2325 3053 1888 3053 
Q 1444 3053 1217 2703 
Q 991 2353 991 1663 
Q 991 975 1217 622 
Q 1444 269 1888 269 
Q 2325 269 2554 583 
Q 2784 897 2784 1497 
L 2784 1825 
z
" transform="scale(0.015625)"/>
       <path id="DejaVuSerif-79" d="M 1381 -609 
L 1600 -56 
L 359 2988 
L -19 2988 
L -19 3322 
L 1509 3322 
L 1509 2988 
L 978 2988 
L 1913 703 
L 2847 2988 
L 2350 2988 
L 2350 3322 
L 3597 3322 
L 3597 2988 
L 3225 2988 
L 1703 -750 
Q 1547 -1138 1356 -1280 
Q 1166 -1422 819 -1422 
Q 672 -1422 517 -1397 
Q 363 -1372 206 -1325 
L 206 -691 
L 500 -691 
Q 519 -903 608 -995 
Q 697 -1088 884 -1088 
Q 1056 -1088 1161 -992 
Q 1266 -897 1381 -609 
z
" transform="scale(0.015625)"/>
      </defs>
      <use xlink:href="#DejaVuSerif-74"/>
      <use xlink:href="#DejaVuSerif-72" x="40.185547"/>
      <use xlink:href="#DejaVuSerif-61" x="87.988281"/>
      <use xlink:href="#DejaVuSerif-69" x="147.607422"/>
      <use xlink:href="#DejaVuSerif-74" x="179.589844"/>
      <use xlink:href="#DejaVuSerif-20" x="219.775391"/>
      <use xlink:href="#DejaVuSerif-6f" x="251.5625"/>
      <use xlink:href="#DejaVuSerif-6e" x="311.767578"/>
      <use xlink:href="#DejaVuSerif-74" x="376.171875"/>
      <use xlink:href="#DejaVuSerif-6f" x="416.357422"/>
      <use xlink:href="#DejaVuSerif-6c" x="476.5625"/>
      <use xlink:href="#DejaVuSerif-6f" x="508.544922"/>
      <use xlink:href="#DejaVuSerif-67" x="568.75"/>
      <use xlink:href="#DejaVuSerif-79" x="632.763672"/>
     </g>
    </g>
   </g>
   <g id="matplotlib.axis_2">
    <g id="ytick_1">
     <g id="line2d_1">
      <path d="M 126 325.91914 
L 355.764706 325.91914 
" clip-path="url(#pe90c28e5f2)" style="fill: none; stroke: #cccccc; stroke-linecap: round"/>
     </g>
     <g id="text_4">
      <!-- 2 -->
      <g style="fill: #262626" transform="translate(109.50125 330.09828) scale(0.11 -0.11)">
       <defs>
        <path id="DejaVuSerif-32" d="M 819 3553 
L 469 3553 
L 469 4384 
Q 803 4563 1142 4656 
Q 1481 4750 1806 4750 
Q 2534 4750 2956 4397 
Q 3378 4044 3378 3438 
Q 3378 2753 2422 1800 
Q 2347 1728 2309 1691 
L 1131 513 
L 3078 513 
L 3078 1088 
L 3444 1088 
L 3444 0 
L 434 0 
L 434 341 
L 1850 1753 
Q 2319 2222 2519 2614 
Q 2719 3006 2719 3438 
Q 2719 3909 2473 4175 
Q 2228 4441 1797 4441 
Q 1350 4441 1106 4219 
Q 863 3997 819 3553 
z
" transform="scale(0.015625)"/>
       </defs>
       <use xlink:href="#DejaVuSerif-32"/>
      </g>
     </g>
    </g>
    <g id="ytick_2">
     <g id="line2d_2">
      <path d="M 126 282.441252 
L 355.764706 282.441252 
" clip-path="url(#pe90c28e5f2)" style="fill: none; stroke: #cccccc; stroke-linecap: round"/>
     </g>
     <g id="text_5">
      <!-- 3 -->
      <g style="fill: #262626" transform="translate(109.50125 286.620392) scale(0.11 -0.11)">
       <defs>
        <path id="DejaVuSerif-33" d="M 622 4469 
Q 988 4606 1323 4678 
Q 1659 4750 1953 4750 
Q 2638 4750 3022 4454 
Q 3406 4159 3406 3634 
Q 3406 3213 3140 2930 
Q 2875 2647 2388 2547 
Q 2963 2466 3280 2130 
Q 3597 1794 3597 1259 
Q 3597 606 3158 257 
Q 2719 -91 1894 -91 
Q 1528 -91 1179 -12 
Q 831 66 488 225 
L 488 1131 
L 838 1131 
Q 869 681 1141 450 
Q 1413 219 1906 219 
Q 2384 219 2661 495 
Q 2938 772 2938 1253 
Q 2938 1803 2653 2086 
Q 2369 2369 1819 2369 
L 1522 2369 
L 1522 2688 
L 1678 2688 
Q 2225 2688 2498 2914 
Q 2772 3141 2772 3597 
Q 2772 4006 2547 4223 
Q 2322 4441 1900 4441 
Q 1478 4441 1245 4241 
Q 1013 4041 972 3647 
L 622 3647 
L 622 4469 
z
" transform="scale(0.015625)"/>
       </defs>
       <use xlink:href="#DejaVuSerif-33"/>
      </g>
     </g>
    </g>
    <g id="ytick_3">
     <g id="line2d_3">
      <path d="M 126 238.963363 
L 355.764706 238.963363 
" clip-path="url(#pe90c28e5f2)" style="fill: none; stroke: #cccccc; stroke-linecap: round"/>
     </g>
     <g id="text_6">
      <!-- 4 -->
      <g style="fill: #262626" transform="translate(109.50125 243.142504) scale(0.11 -0.11)">
       <defs>
        <path id="DejaVuSerif-34" d="M 2234 1581 
L 2234 4063 
L 641 1581 
L 2234 1581 
z
M 3609 0 
L 1484 0 
L 1484 331 
L 2234 331 
L 2234 1247 
L 197 1247 
L 197 1588 
L 2241 4750 
L 2859 4750 
L 2859 1581 
L 3750 1581 
L 3750 1247 
L 2859 1247 
L 2859 331 
L 3609 331 
L 3609 0 
z
" transform="scale(0.015625)"/>
       </defs>
       <use xlink:href="#DejaVuSerif-34"/>
      </g>
     </g>
    </g>
    <g id="ytick_4">
     <g id="line2d_4">
      <path d="M 126 195.485475 
L 355.764706 195.485475 
" clip-path="url(#pe90c28e5f2)" style="fill: none; stroke: #cccccc; stroke-linecap: round"/>
     </g>
     <g id="text_7">
      <!-- 5 -->
      <g style="fill: #262626" transform="translate(109.50125 199.664616) scale(0.11 -0.11)">
       <defs>
        <path id="DejaVuSerif-35" d="M 3219 4666 
L 3219 4153 
L 1081 4153 
L 1081 2816 
Q 1244 2928 1461 2984 
Q 1678 3041 1947 3041 
Q 2703 3041 3140 2622 
Q 3578 2203 3578 1478 
Q 3578 738 3136 323 
Q 2694 -91 1894 -91 
Q 1572 -91 1234 -12 
Q 897 66 544 225 
L 544 1131 
L 897 1131 
Q 925 688 1179 453 
Q 1434 219 1894 219 
Q 2388 219 2653 544 
Q 2919 869 2919 1478 
Q 2919 2084 2655 2407 
Q 2391 2731 1894 2731 
Q 1613 2731 1398 2631 
Q 1184 2531 1019 2322 
L 750 2322 
L 750 4666 
L 3219 4666 
z
" transform="scale(0.015625)"/>
       </defs>
       <use xlink:href="#DejaVuSerif-35"/>
      </g>
     </g>
    </g>
    <g id="ytick_5">
     <g id="line2d_5">
      <path d="M 126 152.007587 
L 355.764706 152.007587 
" clip-path="url(#pe90c28e5f2)" style="fill: none; stroke: #cccccc; stroke-linecap: round"/>
     </g>
     <g id="text_8">
      <!-- 6 -->
      <g style="fill: #262626" transform="translate(109.50125 156.186728) scale(0.11 -0.11)">
       <defs>
        <path id="DejaVuSerif-36" d="M 2094 219 
Q 2534 219 2771 542 
Q 3009 866 3009 1472 
Q 3009 2078 2771 2401 
Q 2534 2725 2094 2725 
Q 1647 2725 1412 2412 
Q 1178 2100 1178 1509 
Q 1178 888 1415 553 
Q 1653 219 2094 219 
z
M 1075 2569 
Q 1288 2803 1556 2918 
Q 1825 3034 2163 3034 
Q 2859 3034 3264 2615 
Q 3669 2197 3669 1472 
Q 3669 763 3233 336 
Q 2797 -91 2069 -91 
Q 1278 -91 853 498 
Q 428 1088 428 2181 
Q 428 3406 931 4078 
Q 1434 4750 2350 4750 
Q 2597 4750 2869 4703 
Q 3141 4656 3425 4563 
L 3425 3794 
L 3072 3794 
Q 3034 4109 2831 4275 
Q 2628 4441 2284 4441 
Q 1678 4441 1381 3981 
Q 1084 3522 1075 2569 
z
" transform="scale(0.015625)"/>
       </defs>
       <use xlink:href="#DejaVuSerif-36"/>
      </g>
     </g>
    </g>
    <g id="ytick_6">
     <g id="line2d_6">
      <path d="M 126 108.529699 
L 355.764706 108.529699 
" clip-path="url(#pe90c28e5f2)" style="fill: none; stroke: #cccccc; stroke-linecap: round"/>
     </g>
     <g id="text_9">
      <!-- 7 -->
      <g style="fill: #262626" transform="translate(109.50125 112.708839) scale(0.11 -0.11)">
       <defs>
        <path id="DejaVuSerif-37" d="M 3609 4347 
L 1784 0 
L 1319 0 
L 3059 4153 
L 903 4153 
L 903 3578 
L 538 3578 
L 538 4666 
L 3609 4666 
L 3609 4347 
z
" transform="scale(0.015625)"/>
       </defs>
       <use xlink:href="#DejaVuSerif-37"/>
      </g>
     </g>
    </g>
    <g id="ytick_7">
     <g id="line2d_7">
      <path d="M 126 65.051811 
L 355.764706 65.051811 
" clip-path="url(#pe90c28e5f2)" style="fill: none; stroke: #cccccc; stroke-linecap: round"/>
     </g>
     <g id="text_10">
      <!-- 8 -->
      <g style="fill: #262626" transform="translate(109.50125 69.230951) scale(0.11 -0.11)">
       <defs>
        <path id="DejaVuSerif-38" d="M 2981 1275 
Q 2981 1775 2732 2051 
Q 2484 2328 2034 2328 
Q 1584 2328 1336 2051 
Q 1088 1775 1088 1275 
Q 1088 772 1336 495 
Q 1584 219 2034 219 
Q 2484 219 2732 495 
Q 2981 772 2981 1275 
z
M 2853 3541 
Q 2853 3966 2637 4203 
Q 2422 4441 2034 4441 
Q 1650 4441 1433 4203 
Q 1216 3966 1216 3541 
Q 1216 3113 1433 2875 
Q 1650 2638 2034 2638 
Q 2422 2638 2637 2875 
Q 2853 3113 2853 3541 
z
M 2516 2484 
Q 3047 2413 3344 2092 
Q 3641 1772 3641 1275 
Q 3641 619 3225 264 
Q 2809 -91 2034 -91 
Q 1263 -91 845 264 
Q 428 619 428 1275 
Q 428 1772 725 2092 
Q 1022 2413 1556 2484 
Q 1084 2569 832 2842 
Q 581 3116 581 3541 
Q 581 4103 968 4426 
Q 1356 4750 2034 4750 
Q 2713 4750 3100 4426 
Q 3488 4103 3488 3541 
Q 3488 3116 3236 2842 
Q 2984 2569 2516 2484 
z
" transform="scale(0.015625)"/>
       </defs>
       <use xlink:href="#DejaVuSerif-38"/>
      </g>
     </g>
    </g>
    <g id="text_11">
     <!-- kurtosis of log(p-values$\mathregular{^{-1}}$) in GWAS -->
     <g style="fill: #262626" transform="translate(102.74125 308.82) rotate(-90) scale(0.12 -0.12)">
      <defs>
       <path id="DejaVuSerif-6b" d="M 1831 0 
L 219 0 
L 219 331 
L 738 331 
L 738 4531 
L 184 4531 
L 184 4863 
L 1313 4863 
L 1313 1697 
L 2713 2988 
L 2234 2988 
L 2234 3322 
L 3738 3322 
L 3738 2988 
L 3169 2988 
L 2181 2075 
L 3444 331 
L 3922 331 
L 3922 0 
L 2284 0 
L 2284 331 
L 2759 331 
L 1766 1697 
L 1313 1275 
L 1313 331 
L 1831 331 
L 1831 0 
z
" transform="scale(0.015625)"/>
       <path id="DejaVuSerif-75" d="M 2266 3322 
L 3341 3322 
L 3341 331 
L 3884 331 
L 3884 0 
L 2766 0 
L 2766 588 
Q 2606 256 2353 82 
Q 2100 -91 1766 -91 
Q 1213 -91 952 223 
Q 691 538 691 1209 
L 691 2988 
L 172 2988 
L 172 3322 
L 1269 3322 
L 1269 1388 
Q 1269 781 1417 556 
Q 1566 331 1947 331 
Q 2347 331 2556 625 
Q 2766 919 2766 1478 
L 2766 2988 
L 2266 2988 
L 2266 3322 
z
" transform="scale(0.015625)"/>
       <path id="DejaVuSerif-66" d="M 2753 4078 
L 2450 4078 
Q 2447 4313 2317 4434 
Q 2188 4556 1941 4556 
Q 1619 4556 1487 4379 
Q 1356 4203 1356 3750 
L 1356 3322 
L 2284 3322 
L 2284 2988 
L 1356 2988 
L 1356 331 
L 2094 331 
L 2094 0 
L 231 0 
L 231 331 
L 781 331 
L 781 2988 
L 231 2988 
L 231 3322 
L 781 3322 
L 781 3738 
Q 781 4294 1070 4578 
Q 1359 4863 1919 4863 
Q 2128 4863 2337 4825 
Q 2547 4788 2753 4709 
L 2753 4078 
z
" transform="scale(0.015625)"/>
       <path id="DejaVuSerif-28" d="M 2041 -997 
Q 1281 -656 893 83 
Q 506 822 506 1931 
Q 506 3044 893 3783 
Q 1281 4522 2041 4863 
L 2041 4556 
Q 1559 4225 1350 3623 
Q 1141 3022 1141 1931 
Q 1141 844 1350 242 
Q 1559 -359 2041 -691 
L 2041 -997 
z
" transform="scale(0.015625)"/>
       <path id="DejaVuSerif-2d" d="M 281 1959 
L 1881 1959 
L 1881 1472 
L 281 1472 
L 281 1959 
z
" transform="scale(0.015625)"/>
       <path id="DejaVuSerif-76" d="M 1581 0 
L 359 2988 
L -19 2988 
L -19 3322 
L 1509 3322 
L 1509 2988 
L 978 2988 
L 1913 703 
L 2847 2988 
L 2350 2988 
L 2350 3322 
L 3597 3322 
L 3597 2988 
L 3225 2988 
L 2003 0 
L 1581 0 
z
" transform="scale(0.015625)"/>
       <path id="DejaVuSerif-2212" d="M 678 2259 
L 4684 2259 
L 4684 1753 
L 678 1753 
L 678 2259 
z
" transform="scale(0.015625)"/>
       <path id="DejaVuSerif-31" d="M 909 0 
L 909 331 
L 1722 331 
L 1722 4213 
L 781 3603 
L 781 4013 
L 1919 4750 
L 2350 4750 
L 2350 331 
L 3163 331 
L 3163 0 
L 909 0 
z
" transform="scale(0.015625)"/>
       <path id="DejaVuSerif-29" d="M 453 -997 
L 453 -691 
Q 934 -359 1145 242 
Q 1356 844 1356 1931 
Q 1356 3022 1145 3623 
Q 934 4225 453 4556 
L 453 4863 
Q 1216 4522 1603 3783 
Q 1991 3044 1991 1931 
Q 1991 822 1603 83 
Q 1216 -656 453 -997 
z
" transform="scale(0.015625)"/>
       <path id="DejaVuSerif-47" d="M 4097 3272 
Q 3988 3856 3641 4136 
Q 3294 4416 2675 4416 
Q 1869 4416 1472 3897 
Q 1075 3378 1075 2328 
Q 1075 1300 1484 772 
Q 1894 244 2688 244 
Q 3041 244 3362 331 
Q 3684 419 3975 594 
L 3975 1797 
L 3097 1797 
L 3097 2131 
L 4609 2131 
L 4609 391 
Q 4194 150 3714 29 
Q 3234 -91 2688 -91 
Q 1631 -91 995 570 
Q 359 1231 359 2328 
Q 359 3434 996 4092 
Q 1634 4750 2713 4750 
Q 3113 4750 3539 4658 
Q 3966 4566 4447 4378 
L 4447 3272 
L 4097 3272 
z
" transform="scale(0.015625)"/>
       <path id="DejaVuSerif-57" d="M 4878 0 
L 4366 0 
L 3297 3794 
L 2228 0 
L 1716 0 
L 494 4331 
L 31 4331 
L 31 4666 
L 1734 4666 
L 1734 4331 
L 1153 4331 
L 2125 884 
L 3188 4666 
L 3694 4666 
L 4775 844 
L 5753 4331 
L 5216 4331 
L 5216 4666 
L 6559 4666 
L 6559 4331 
L 6100 4331 
L 4878 0 
z
" transform="scale(0.015625)"/>
       <path id="DejaVuSerif-41" d="M 1281 1691 
L 2994 1691 
L 2138 3909 
L 1281 1691 
z
M -38 0 
L -38 331 
L 372 331 
L 2034 4666 
L 2559 4666 
L 4225 331 
L 4684 331 
L 4684 0 
L 2988 0 
L 2988 331 
L 3506 331 
L 3116 1356 
L 1153 1356 
L 763 331 
L 1275 331 
L 1275 0 
L -38 0 
z
" transform="scale(0.015625)"/>
       <path id="DejaVuSerif-53" d="M 594 225 
L 594 1288 
L 953 1284 
Q 969 753 1261 498 
Q 1553 244 2150 244 
Q 2706 244 2998 464 
Q 3291 684 3291 1106 
Q 3291 1444 3114 1625 
Q 2938 1806 2369 1978 
L 1753 2163 
Q 1084 2366 811 2669 
Q 538 2972 538 3500 
Q 538 4094 959 4422 
Q 1381 4750 2144 4750 
Q 2469 4750 2856 4679 
Q 3244 4609 3681 4475 
L 3681 3481 
L 3328 3481 
Q 3275 3975 2998 4195 
Q 2722 4416 2156 4416 
Q 1663 4416 1405 4214 
Q 1147 4013 1147 3628 
Q 1147 3294 1340 3103 
Q 1534 2913 2163 2725 
L 2741 2553 
Q 3375 2363 3645 2067 
Q 3916 1772 3916 1275 
Q 3916 597 3481 253 
Q 3047 -91 2188 -91 
Q 1803 -91 1404 -12 
Q 1006 66 594 225 
z
" transform="scale(0.015625)"/>
      </defs>
      <use xlink:href="#DejaVuSerif-6b" transform="translate(0 0.7125)"/>
      <use xlink:href="#DejaVuSerif-75" transform="translate(60.595703 0.7125)"/>
      <use xlink:href="#DejaVuSerif-72" transform="translate(125 0.7125)"/>
      <use xlink:href="#DejaVuSerif-74" transform="translate(172.802734 0.7125)"/>
      <use xlink:href="#DejaVuSerif-6f" transform="translate(212.988281 0.7125)"/>
      <use xlink:href="#DejaVuSerif-73" transform="translate(273.193359 0.7125)"/>
      <use xlink:href="#DejaVuSerif-69" transform="translate(324.511719 0.7125)"/>
      <use xlink:href="#DejaVuSerif-73" transform="translate(356.494141 0.7125)"/>
      <use xlink:href="#DejaVuSerif-20" transform="translate(407.8125 0.7125)"/>
      <use xlink:href="#DejaVuSerif-6f" transform="translate(439.599609 0.7125)"/>
      <use xlink:href="#DejaVuSerif-66" transform="translate(499.804688 0.7125)"/>
      <use xlink:href="#DejaVuSerif-20" transform="translate(536.816406 0.7125)"/>
      <use xlink:href="#DejaVuSerif-6c" transform="translate(568.603516 0.7125)"/>
      <use xlink:href="#DejaVuSerif-6f" transform="translate(600.585938 0.7125)"/>
      <use xlink:href="#DejaVuSerif-67" transform="translate(660.791016 0.7125)"/>
      <use xlink:href="#DejaVuSerif-28" transform="translate(724.804688 0.7125)"/>
      <use xlink:href="#DejaVuSerif-70" transform="translate(763.818359 0.7125)"/>
      <use xlink:href="#DejaVuSerif-2d" transform="translate(827.832031 0.7125)"/>
      <use xlink:href="#DejaVuSerif-76" transform="translate(861.621094 0.7125)"/>
      <use xlink:href="#DejaVuSerif-61" transform="translate(918.115234 0.7125)"/>
      <use xlink:href="#DejaVuSerif-6c" transform="translate(977.734375 0.7125)"/>
      <use xlink:href="#DejaVuSerif-75" transform="translate(1009.716797 0.7125)"/>
      <use xlink:href="#DejaVuSerif-65" transform="translate(1074.121094 0.7125)"/>
      <use xlink:href="#DejaVuSerif-73" transform="translate(1133.300781 0.7125)"/>
      <use xlink:href="#DejaVuSerif-2212" transform="translate(1185.5275 37.046875) scale(0.7)"/>
      <use xlink:href="#DejaVuSerif-31" transform="translate(1244.179844 37.046875) scale(0.7)"/>
      <use xlink:href="#DejaVuSerif-29" transform="translate(1291.311289 0.7125)"/>
      <use xlink:href="#DejaVuSerif-20" transform="translate(1330.324961 0.7125)"/>
      <use xlink:href="#DejaVuSerif-69" transform="translate(1362.11207 0.7125)"/>
      <use xlink:href="#DejaVuSerif-6e" transform="translate(1394.094492 0.7125)"/>
      <use xlink:href="#DejaVuSerif-20" transform="translate(1458.498789 0.7125)"/>
      <use xlink:href="#DejaVuSerif-47" transform="translate(1490.285898 0.7125)"/>
      <use xlink:href="#DejaVuSerif-57" transform="translate(1570.168711 0.7125)"/>
      <use xlink:href="#DejaVuSerif-41" transform="translate(1672.951914 0.7125)"/>
      <use xlink:href="#DejaVuSerif-53" transform="translate(1745.168711 0.7125)"/>
     </g>
    </g>
   </g>
   <g id="patch_3">
    <path d="M 126 352.44 
L 126 47.52 
" style="fill: none; stroke: #cccccc; stroke-width: 1.25; stroke-linejoin: miter; stroke-linecap: square"/>
   </g>
   <g id="patch_4">
    <path d="M 126 352.44 
L 355.764706 352.44 
" style="fill: none; stroke: #cccccc; stroke-width: 1.25; stroke-linejoin: miter; stroke-linecap: square"/>
   </g>
   <g id="PathCollection_1">
    <defs>
     <path id="C0_0_41e306125d" d="M 0 2.5 
C 0.663008 2.5 1.29895 2.236584 1.767767 1.767767 
C 2.236584 1.29895 2.5 0.663008 2.5 -0 
C 2.5 -0.663008 2.236584 -1.29895 1.767767 -1.767767 
C 1.29895 -2.236584 0.663008 -2.5 0 -2.5 
C -0.663008 -2.5 -1.29895 -2.236584 -1.767767 -1.767767 
C -2.236584 -1.29895 -2.5 -0.663008 -2.5 0 
C -2.5 0.663008 -2.236584 1.29895 -1.767767 1.767767 
C -1.29895 2.236584 -0.663008 2.5 0 2.5 
z
"/>
    </defs>
    <g clip-path="url(#pe90c28e5f2)">
     <use xlink:href="#C0_0_41e306125d" x="183.441176" y="338.58" style="fill: #4c72b0"/>
    </g>
    <g clip-path="url(#pe90c28e5f2)">
     <use xlink:href="#C0_0_41e306125d" x="183.441176" y="301.799863" style="fill: #4c72b0"/>
    </g>
    <g clip-path="url(#pe90c28e5f2)">
     <use xlink:href="#C0_0_41e306125d" x="185.803544" y="324.038558" style="fill: #4c72b0"/>
    </g>
    <g clip-path="url(#pe90c28e5f2)">
     <use xlink:href="#C0_0_41e306125d" x="178.263659" y="300.971889" style="fill: #4c72b0"/>
    </g>
    <g clip-path="url(#pe90c28e5f2)">
     <use xlink:href="#C0_0_41e306125d" x="178.38116" y="277.648014" style="fill: #4c72b0"/>
    </g>
    <g clip-path="url(#pe90c28e5f2)">
     <use xlink:href="#C0_0_41e306125d" x="183.441176" y="273.032884" style="fill: #4c72b0"/>
    </g>
    <g clip-path="url(#pe90c28e5f2)">
     <use xlink:href="#C0_0_41e306125d" x="183.441176" y="287.18723" style="fill: #4c72b0"/>
    </g>
    <g clip-path="url(#pe90c28e5f2)">
     <use xlink:href="#C0_0_41e306125d" x="183.441176" y="296.525096" style="fill: #4c72b0"/>
    </g>
    <g clip-path="url(#pe90c28e5f2)">
     <use xlink:href="#C0_0_41e306125d" x="188.664644" y="311.462949" style="fill: #4c72b0"/>
    </g>
    <g clip-path="url(#pe90c28e5f2)">
     <use xlink:href="#C0_0_41e306125d" x="178.449632" y="285.637749" style="fill: #4c72b0"/>
    </g>
    <g clip-path="url(#pe90c28e5f2)">
     <use xlink:href="#C0_0_41e306125d" x="183.441176" y="278.980915" style="fill: #4c72b0"/>
    </g>
    <g clip-path="url(#pe90c28e5f2)">
     <use xlink:href="#C0_0_41e306125d" x="178.194927" y="311.776024" style="fill: #55a868"/>
    </g>
    <g clip-path="url(#pe90c28e5f2)">
     <use xlink:href="#C0_0_41e306125d" x="188.16009" y="336.388622" style="fill: #4c72b0"/>
    </g>
    <g clip-path="url(#pe90c28e5f2)">
     <use xlink:href="#C0_0_41e306125d" x="188.090752" y="299.477939" style="fill: #55a868"/>
    </g>
    <g clip-path="url(#pe90c28e5f2)">
     <use xlink:href="#C0_0_41e306125d" x="178.308936" y="330.905458" style="fill: #4c72b0"/>
    </g>
    <g clip-path="url(#pe90c28e5f2)">
     <use xlink:href="#C0_0_41e306125d" x="183.441176" y="311.964997" style="fill: #55a868"/>
    </g>
    <g clip-path="url(#pe90c28e5f2)">
     <use xlink:href="#C0_0_41e306125d" x="188.543605" y="330.781367" style="fill: #4c72b0"/>
    </g>
    <g clip-path="url(#pe90c28e5f2)">
     <use xlink:href="#C0_0_41e306125d" x="193.687888" y="329.783025" style="fill: #4c72b0"/>
    </g>
    <g clip-path="url(#pe90c28e5f2)">
     <use xlink:href="#C0_0_41e306125d" x="183.441176" y="331.958522" style="fill: #4c72b0"/>
    </g>
    <g clip-path="url(#pe90c28e5f2)">
     <use xlink:href="#C0_0_41e306125d" x="178.332428" y="316.881649" style="fill: #4c72b0"/>
    </g>
    <g clip-path="url(#pe90c28e5f2)">
     <use xlink:href="#C0_0_41e306125d" x="181.756088" y="327.223073" style="fill: #4c72b0"/>
    </g>
    <g clip-path="url(#pe90c28e5f2)">
     <use xlink:href="#C0_0_41e306125d" x="183.441176" y="318.033673" style="fill: #4c72b0"/>
    </g>
    <g clip-path="url(#pe90c28e5f2)">
     <use xlink:href="#C0_0_41e306125d" x="178.691247" y="336.450269" style="fill: #4c72b0"/>
    </g>
   </g>
   <g id="PathCollection_2">
    <defs>
     <path id="C1_0_5183720d29" d="M 0 2.5 
C 0.663008 2.5 1.29895 2.236584 1.767767 1.767767 
C 2.236584 1.29895 2.5 0.663008 2.5 -0 
C 2.5 -0.663008 2.236584 -1.29895 1.767767 -1.767767 
C 1.29895 -2.236584 0.663008 -2.5 0 -2.5 
C -0.663008 -2.5 -1.29895 -2.236584 -1.767767 -1.767767 
C -2.236584 -1.29895 -2.5 -0.663008 -2.5 0 
C -2.5 0.663008 -2.236584 1.29895 -1.767767 1.767767 
C -1.29895 2.236584 -0.663008 2.5 0 2.5 
z
"/>
    </defs>
    <g clip-path="url(#pe90c28e5f2)">
     <use xlink:href="#C1_0_5183720d29" x="303.304804" y="270.571992" style="fill: #4c72b0"/>
    </g>
    <g clip-path="url(#pe90c28e5f2)">
     <use xlink:href="#C1_0_5183720d29" x="298.323529" y="261.423255" style="fill: #4c72b0"/>
    </g>
    <g clip-path="url(#pe90c28e5f2)">
     <use xlink:href="#C1_0_5183720d29" x="298.323529" y="194.904612" style="fill: #dd8452"/>
    </g>
    <g clip-path="url(#pe90c28e5f2)">
     <use xlink:href="#C1_0_5183720d29" x="298.323529" y="272.151166" style="fill: #4c72b0"/>
    </g>
    <g clip-path="url(#pe90c28e5f2)">
     <use xlink:href="#C1_0_5183720d29" x="298.323529" y="84.800535" style="fill: #55a868"/>
    </g>
    <g clip-path="url(#pe90c28e5f2)">
     <use xlink:href="#C1_0_5183720d29" x="298.323529" y="208.515019" style="fill: #dd8452"/>
    </g>
    <g clip-path="url(#pe90c28e5f2)">
     <use xlink:href="#C1_0_5183720d29" x="293.268805" y="270.800173" style="fill: #4c72b0"/>
    </g>
    <g clip-path="url(#pe90c28e5f2)">
     <use xlink:href="#C1_0_5183720d29" x="298.323529" y="219.700197" style="fill: #dd8452"/>
    </g>
    <g clip-path="url(#pe90c28e5f2)">
     <use xlink:href="#C1_0_5183720d29" x="298.323529" y="175.753732" style="fill: #dd8452"/>
    </g>
    <g clip-path="url(#pe90c28e5f2)">
     <use xlink:href="#C1_0_5183720d29" x="298.323529" y="237.235593" style="fill: #dd8452"/>
    </g>
    <g clip-path="url(#pe90c28e5f2)">
     <use xlink:href="#C1_0_5183720d29" x="298.323529" y="289.431599" style="fill: #4c72b0"/>
    </g>
    <g clip-path="url(#pe90c28e5f2)">
     <use xlink:href="#C1_0_5183720d29" x="298.323529" y="304.595816" style="fill: #dd8452"/>
    </g>
    <g clip-path="url(#pe90c28e5f2)">
     <use xlink:href="#C1_0_5183720d29" x="298.323529" y="61.38" style="fill: #dd8452"/>
    </g>
   </g>
   <g id="line2d_8"/>
   <g id="line2d_9"/>
   <g id="line2d_10"/>
   <g id="legend_1">
    <g id="patch_5">
     <path d="M 133 99.554375 
L 240.251563 99.554375 
Q 242.251563 99.554375 242.251563 97.554375 
L 242.251563 54.52 
Q 242.251563 52.52 240.251563 52.52 
L 133 52.52 
Q 131 52.52 131 54.52 
L 131 97.554375 
Q 131 99.554375 133 99.554375 
z
" style="fill: #ffffff; opacity: 0.8; stroke: #cccccc; stroke-linejoin: miter"/>
    </g>
    <g id="line2d_11">
     <defs>
      <path id="m06d322e9ac" d="M 0 2.5 
C 0.663008 2.5 1.29895 2.236584 1.767767 1.767767 
C 2.236584 1.29895 2.5 0.663008 2.5 0 
C 2.5 -0.663008 2.236584 -1.29895 1.767767 -1.767767 
C 1.29895 -2.236584 0.663008 -2.5 0 -2.5 
C -0.663008 -2.5 -1.29895 -2.236584 -1.767767 -1.767767 
C -2.236584 -1.29895 -2.5 -0.663008 -2.5 0 
C -2.5 0.663008 -2.236584 1.29895 -1.767767 1.767767 
C -1.29895 2.236584 -0.663008 2.5 0 2.5 
z
"/>
     </defs>
     <g>
      <use xlink:href="#m06d322e9ac" x="145" y="60.618437" style="fill: #4c72b0"/>
     </g>
    </g>
    <g id="text_12">
     <!-- Ridge -->
     <g transform="translate(163 64.118437) scale(0.1 -0.1)">
      <defs>
       <path id="DejaVuSans-52" d="M 2841 2188 
Q 3044 2119 3236 1894 
Q 3428 1669 3622 1275 
L 4263 0 
L 3584 0 
L 2988 1197 
Q 2756 1666 2539 1819 
Q 2322 1972 1947 1972 
L 1259 1972 
L 1259 0 
L 628 0 
L 628 4666 
L 2053 4666 
Q 2853 4666 3247 4331 
Q 3641 3997 3641 3322 
Q 3641 2881 3436 2590 
Q 3231 2300 2841 2188 
z
M 1259 4147 
L 1259 2491 
L 2053 2491 
Q 2509 2491 2742 2702 
Q 2975 2913 2975 3322 
Q 2975 3731 2742 3939 
Q 2509 4147 2053 4147 
L 1259 4147 
z
" transform="scale(0.015625)"/>
       <path id="DejaVuSans-69" d="M 603 3500 
L 1178 3500 
L 1178 0 
L 603 0 
L 603 3500 
z
M 603 4863 
L 1178 4863 
L 1178 4134 
L 603 4134 
L 603 4863 
z
" transform="scale(0.015625)"/>
       <path id="DejaVuSans-64" d="M 2906 2969 
L 2906 4863 
L 3481 4863 
L 3481 0 
L 2906 0 
L 2906 525 
Q 2725 213 2448 61 
Q 2172 -91 1784 -91 
Q 1150 -91 751 415 
Q 353 922 353 1747 
Q 353 2572 751 3078 
Q 1150 3584 1784 3584 
Q 2172 3584 2448 3432 
Q 2725 3281 2906 2969 
z
M 947 1747 
Q 947 1113 1208 752 
Q 1469 391 1925 391 
Q 2381 391 2643 752 
Q 2906 1113 2906 1747 
Q 2906 2381 2643 2742 
Q 2381 3103 1925 3103 
Q 1469 3103 1208 2742 
Q 947 2381 947 1747 
z
" transform="scale(0.015625)"/>
       <path id="DejaVuSans-67" d="M 2906 1791 
Q 2906 2416 2648 2759 
Q 2391 3103 1925 3103 
Q 1463 3103 1205 2759 
Q 947 2416 947 1791 
Q 947 1169 1205 825 
Q 1463 481 1925 481 
Q 2391 481 2648 825 
Q 2906 1169 2906 1791 
z
M 3481 434 
Q 3481 -459 3084 -895 
Q 2688 -1331 1869 -1331 
Q 1566 -1331 1297 -1286 
Q 1028 -1241 775 -1147 
L 775 -588 
Q 1028 -725 1275 -790 
Q 1522 -856 1778 -856 
Q 2344 -856 2625 -561 
Q 2906 -266 2906 331 
L 2906 616 
Q 2728 306 2450 153 
Q 2172 0 1784 0 
Q 1141 0 747 490 
Q 353 981 353 1791 
Q 353 2603 747 3093 
Q 1141 3584 1784 3584 
Q 2172 3584 2450 3431 
Q 2728 3278 2906 2969 
L 2906 3500 
L 3481 3500 
L 3481 434 
z
" transform="scale(0.015625)"/>
       <path id="DejaVuSans-65" d="M 3597 1894 
L 3597 1613 
L 953 1613 
Q 991 1019 1311 708 
Q 1631 397 2203 397 
Q 2534 397 2845 478 
Q 3156 559 3463 722 
L 3463 178 
Q 3153 47 2828 -22 
Q 2503 -91 2169 -91 
Q 1331 -91 842 396 
Q 353 884 353 1716 
Q 353 2575 817 3079 
Q 1281 3584 2069 3584 
Q 2775 3584 3186 3129 
Q 3597 2675 3597 1894 
z
M 3022 2063 
Q 3016 2534 2758 2815 
Q 2500 3097 2075 3097 
Q 1594 3097 1305 2825 
Q 1016 2553 972 2059 
L 3022 2063 
z
" transform="scale(0.015625)"/>
      </defs>
      <use xlink:href="#DejaVuSans-52"/>
      <use xlink:href="#DejaVuSans-69" x="69.482422"/>
      <use xlink:href="#DejaVuSans-64" x="97.265625"/>
      <use xlink:href="#DejaVuSans-67" x="160.742188"/>
      <use xlink:href="#DejaVuSans-65" x="224.21875"/>
     </g>
    </g>
    <g id="line2d_12">
     <defs>
      <path id="m093976691a" d="M 0 2.5 
C 0.663008 2.5 1.29895 2.236584 1.767767 1.767767 
C 2.236584 1.29895 2.5 0.663008 2.5 0 
C 2.5 -0.663008 2.236584 -1.29895 1.767767 -1.767767 
C 1.29895 -2.236584 0.663008 -2.5 0 -2.5 
C -0.663008 -2.5 -1.29895 -2.236584 -1.767767 -1.767767 
C -2.236584 -1.29895 -2.5 -0.663008 -2.5 0 
C -2.5 0.663008 -2.236584 1.29895 -1.767767 1.767767 
C -1.29895 2.236584 -0.663008 2.5 0 2.5 
z
"/>
     </defs>
     <g>
      <use xlink:href="#m093976691a" x="145" y="75.296562" style="fill: #dd8452"/>
     </g>
    </g>
    <g id="text_13">
     <!-- Random Forest -->
     <g transform="translate(163 78.796562) scale(0.1 -0.1)">
      <defs>
       <path id="DejaVuSans-61" d="M 2194 1759 
Q 1497 1759 1228 1600 
Q 959 1441 959 1056 
Q 959 750 1161 570 
Q 1363 391 1709 391 
Q 2188 391 2477 730 
Q 2766 1069 2766 1631 
L 2766 1759 
L 2194 1759 
z
M 3341 1997 
L 3341 0 
L 2766 0 
L 2766 531 
Q 2569 213 2275 61 
Q 1981 -91 1556 -91 
Q 1019 -91 701 211 
Q 384 513 384 1019 
Q 384 1609 779 1909 
Q 1175 2209 1959 2209 
L 2766 2209 
L 2766 2266 
Q 2766 2663 2505 2880 
Q 2244 3097 1772 3097 
Q 1472 3097 1187 3025 
Q 903 2953 641 2809 
L 641 3341 
Q 956 3463 1253 3523 
Q 1550 3584 1831 3584 
Q 2591 3584 2966 3190 
Q 3341 2797 3341 1997 
z
" transform="scale(0.015625)"/>
       <path id="DejaVuSans-6e" d="M 3513 2113 
L 3513 0 
L 2938 0 
L 2938 2094 
Q 2938 2591 2744 2837 
Q 2550 3084 2163 3084 
Q 1697 3084 1428 2787 
Q 1159 2491 1159 1978 
L 1159 0 
L 581 0 
L 581 3500 
L 1159 3500 
L 1159 2956 
Q 1366 3272 1645 3428 
Q 1925 3584 2291 3584 
Q 2894 3584 3203 3211 
Q 3513 2838 3513 2113 
z
" transform="scale(0.015625)"/>
       <path id="DejaVuSans-6f" d="M 1959 3097 
Q 1497 3097 1228 2736 
Q 959 2375 959 1747 
Q 959 1119 1226 758 
Q 1494 397 1959 397 
Q 2419 397 2687 759 
Q 2956 1122 2956 1747 
Q 2956 2369 2687 2733 
Q 2419 3097 1959 3097 
z
M 1959 3584 
Q 2709 3584 3137 3096 
Q 3566 2609 3566 1747 
Q 3566 888 3137 398 
Q 2709 -91 1959 -91 
Q 1206 -91 779 398 
Q 353 888 353 1747 
Q 353 2609 779 3096 
Q 1206 3584 1959 3584 
z
" transform="scale(0.015625)"/>
       <path id="DejaVuSans-6d" d="M 3328 2828 
Q 3544 3216 3844 3400 
Q 4144 3584 4550 3584 
Q 5097 3584 5394 3201 
Q 5691 2819 5691 2113 
L 5691 0 
L 5113 0 
L 5113 2094 
Q 5113 2597 4934 2840 
Q 4756 3084 4391 3084 
Q 3944 3084 3684 2787 
Q 3425 2491 3425 1978 
L 3425 0 
L 2847 0 
L 2847 2094 
Q 2847 2600 2669 2842 
Q 2491 3084 2119 3084 
Q 1678 3084 1418 2786 
Q 1159 2488 1159 1978 
L 1159 0 
L 581 0 
L 581 3500 
L 1159 3500 
L 1159 2956 
Q 1356 3278 1631 3431 
Q 1906 3584 2284 3584 
Q 2666 3584 2933 3390 
Q 3200 3197 3328 2828 
z
" transform="scale(0.015625)"/>
       <path id="DejaVuSans-20" transform="scale(0.015625)"/>
       <path id="DejaVuSans-46" d="M 628 4666 
L 3309 4666 
L 3309 4134 
L 1259 4134 
L 1259 2759 
L 3109 2759 
L 3109 2228 
L 1259 2228 
L 1259 0 
L 628 0 
L 628 4666 
z
" transform="scale(0.015625)"/>
       <path id="DejaVuSans-72" d="M 2631 2963 
Q 2534 3019 2420 3045 
Q 2306 3072 2169 3072 
Q 1681 3072 1420 2755 
Q 1159 2438 1159 1844 
L 1159 0 
L 581 0 
L 581 3500 
L 1159 3500 
L 1159 2956 
Q 1341 3275 1631 3429 
Q 1922 3584 2338 3584 
Q 2397 3584 2469 3576 
Q 2541 3569 2628 3553 
L 2631 2963 
z
" transform="scale(0.015625)"/>
       <path id="DejaVuSans-73" d="M 2834 3397 
L 2834 2853 
Q 2591 2978 2328 3040 
Q 2066 3103 1784 3103 
Q 1356 3103 1142 2972 
Q 928 2841 928 2578 
Q 928 2378 1081 2264 
Q 1234 2150 1697 2047 
L 1894 2003 
Q 2506 1872 2764 1633 
Q 3022 1394 3022 966 
Q 3022 478 2636 193 
Q 2250 -91 1575 -91 
Q 1294 -91 989 -36 
Q 684 19 347 128 
L 347 722 
Q 666 556 975 473 
Q 1284 391 1588 391 
Q 1994 391 2212 530 
Q 2431 669 2431 922 
Q 2431 1156 2273 1281 
Q 2116 1406 1581 1522 
L 1381 1569 
Q 847 1681 609 1914 
Q 372 2147 372 2553 
Q 372 3047 722 3315 
Q 1072 3584 1716 3584 
Q 2034 3584 2315 3537 
Q 2597 3491 2834 3397 
z
" transform="scale(0.015625)"/>
       <path id="DejaVuSans-74" d="M 1172 4494 
L 1172 3500 
L 2356 3500 
L 2356 3053 
L 1172 3053 
L 1172 1153 
Q 1172 725 1289 603 
Q 1406 481 1766 481 
L 2356 481 
L 2356 0 
L 1766 0 
Q 1100 0 847 248 
Q 594 497 594 1153 
L 594 3053 
L 172 3053 
L 172 3500 
L 594 3500 
L 594 4494 
L 1172 4494 
z
" transform="scale(0.015625)"/>
      </defs>
      <use xlink:href="#DejaVuSans-52"/>
      <use xlink:href="#DejaVuSans-61" x="67.232422"/>
      <use xlink:href="#DejaVuSans-6e" x="128.511719"/>
      <use xlink:href="#DejaVuSans-64" x="191.890625"/>
      <use xlink:href="#DejaVuSans-6f" x="255.367188"/>
      <use xlink:href="#DejaVuSans-6d" x="316.548828"/>
      <use xlink:href="#DejaVuSans-20" x="413.960938"/>
      <use xlink:href="#DejaVuSans-46" x="445.748047"/>
      <use xlink:href="#DejaVuSans-6f" x="499.642578"/>
      <use xlink:href="#DejaVuSans-72" x="560.824219"/>
      <use xlink:href="#DejaVuSans-65" x="599.6875"/>
      <use xlink:href="#DejaVuSans-73" x="661.210938"/>
      <use xlink:href="#DejaVuSans-74" x="713.310547"/>
     </g>
    </g>
    <g id="line2d_13">
     <defs>
      <path id="m0b90892a85" d="M 0 2.5 
C 0.663008 2.5 1.29895 2.236584 1.767767 1.767767 
C 2.236584 1.29895 2.5 0.663008 2.5 0 
C 2.5 -0.663008 2.236584 -1.29895 1.767767 -1.767767 
C 1.29895 -2.236584 0.663008 -2.5 0 -2.5 
C -0.663008 -2.5 -1.29895 -2.236584 -1.767767 -1.767767 
C -2.236584 -1.29895 -2.5 -0.663008 -2.5 0 
C -2.5 0.663008 -2.236584 1.29895 -1.767767 1.767767 
C -1.29895 2.236584 -0.663008 2.5 0 2.5 
z
"/>
     </defs>
     <g>
      <use xlink:href="#m0b90892a85" x="145" y="89.974687" style="fill: #55a868"/>
     </g>
    </g>
    <g id="text_14">
     <!-- Lasso -->
     <g transform="translate(163 93.474687) scale(0.1 -0.1)">
      <defs>
       <path id="DejaVuSans-4c" d="M 628 4666 
L 1259 4666 
L 1259 531 
L 3531 531 
L 3531 0 
L 628 0 
L 628 4666 
z
" transform="scale(0.015625)"/>
      </defs>
      <use xlink:href="#DejaVuSans-4c"/>
      <use xlink:href="#DejaVuSans-61" x="55.712891"/>
      <use xlink:href="#DejaVuSans-73" x="116.992188"/>
      <use xlink:href="#DejaVuSans-73" x="169.091797"/>
      <use xlink:href="#DejaVuSans-6f" x="221.191406"/>
     </g>
    </g>
   </g>
  </g>
  <g id="axes_2">
   <g id="patch_6">
    <path d="M 401.717647 352.44 
L 631.482353 352.44 
L 631.482353 47.52 
L 401.717647 47.52 
z
" style="fill: #ffffff"/>
   </g>
   <g id="matplotlib.axis_3">
    <g id="xtick_3">
     <g id="text_15">
      <!-- macroscopic trait -->
      <g style="fill: #262626" transform="translate(410.234605 370.298281) scale(0.11 -0.11)">
       <use xlink:href="#DejaVuSerif-6d"/>
       <use xlink:href="#DejaVuSerif-61" x="94.824219"/>
       <use xlink:href="#DejaVuSerif-63" x="154.443359"/>
       <use xlink:href="#DejaVuSerif-72" x="210.449219"/>
       <use xlink:href="#DejaVuSerif-6f" x="258.251953"/>
       <use xlink:href="#DejaVuSerif-73" x="318.457031"/>
       <use xlink:href="#DejaVuSerif-63" x="369.775391"/>
       <use xlink:href="#DejaVuSerif-6f" x="425.78125"/>
       <use xlink:href="#DejaVuSerif-70" x="485.986328"/>
       <use xlink:href="#DejaVuSerif-69" x="550"/>
       <use xlink:href="#DejaVuSerif-63" x="581.982422"/>
       <use xlink:href="#DejaVuSerif-20" x="637.988281"/>
       <use xlink:href="#DejaVuSerif-74" x="669.775391"/>
       <use xlink:href="#DejaVuSerif-72" x="709.960938"/>
       <use xlink:href="#DejaVuSerif-61" x="757.763672"/>
       <use xlink:href="#DejaVuSerif-69" x="817.382812"/>
       <use xlink:href="#DejaVuSerif-74" x="849.365234"/>
      </g>
     </g>
    </g>
    <g id="xtick_4">
     <g id="text_16">
      <!-- biochemical trait -->
      <g style="fill: #262626" transform="translate(526.643208 370.298281) scale(0.11 -0.11)">
       <use xlink:href="#DejaVuSerif-62"/>
       <use xlink:href="#DejaVuSerif-69" x="64.013672"/>
       <use xlink:href="#DejaVuSerif-6f" x="95.996094"/>
       <use xlink:href="#DejaVuSerif-63" x="156.201172"/>
       <use xlink:href="#DejaVuSerif-68" x="212.207031"/>
       <use xlink:href="#DejaVuSerif-65" x="276.611328"/>
       <use xlink:href="#DejaVuSerif-6d" x="335.791016"/>
       <use xlink:href="#DejaVuSerif-69" x="430.615234"/>
       <use xlink:href="#DejaVuSerif-63" x="462.597656"/>
       <use xlink:href="#DejaVuSerif-61" x="518.603516"/>
       <use xlink:href="#DejaVuSerif-6c" x="578.222656"/>
       <use xlink:href="#DejaVuSerif-20" x="610.205078"/>
       <use xlink:href="#DejaVuSerif-74" x="641.992188"/>
       <use xlink:href="#DejaVuSerif-72" x="682.177734"/>
       <use xlink:href="#DejaVuSerif-61" x="729.980469"/>
       <use xlink:href="#DejaVuSerif-69" x="789.599609"/>
       <use xlink:href="#DejaVuSerif-74" x="821.582031"/>
      </g>
     </g>
    </g>
    <g id="text_17">
     <!-- ont -->
     <g style="fill: #262626" transform="translate(506.712188 385.704063) scale(0.12 -0.12)">
      <use xlink:href="#DejaVuSerif-6f"/>
      <use xlink:href="#DejaVuSerif-6e" x="60.205078"/>
      <use xlink:href="#DejaVuSerif-74" x="124.609375"/>
     </g>
    </g>
   </g>
   <g id="matplotlib.axis_4">
    <g id="ytick_8">
     <g id="line2d_14">
      <path d="M 401.717647 320.620691 
L 631.482353 320.620691 
" clip-path="url(#p8f50072880)" style="fill: none; stroke: #cccccc; stroke-linecap: round"/>
     </g>
     <g id="text_18">
      <!-- 0.2 -->
      <g style="fill: #262626" transform="translate(374.72421 324.799832) scale(0.11 -0.11)">
       <defs>
        <path id="DejaVuSerif-30" d="M 2034 219 
Q 2513 219 2750 744 
Q 2988 1269 2988 2328 
Q 2988 3391 2750 3916 
Q 2513 4441 2034 4441 
Q 1556 4441 1318 3916 
Q 1081 3391 1081 2328 
Q 1081 1269 1318 744 
Q 1556 219 2034 219 
z
M 2034 -91 
Q 1275 -91 848 546 
Q 422 1184 422 2328 
Q 422 3475 848 4112 
Q 1275 4750 2034 4750 
Q 2797 4750 3222 4112 
Q 3647 3475 3647 2328 
Q 3647 1184 3222 546 
Q 2797 -91 2034 -91 
z
" transform="scale(0.015625)"/>
        <path id="DejaVuSerif-2e" d="M 603 325 
Q 603 500 722 622 
Q 841 744 1019 744 
Q 1191 744 1312 622 
Q 1434 500 1434 325 
Q 1434 153 1312 31 
Q 1191 -91 1019 -91 
Q 841 -91 722 29 
Q 603 150 603 325 
z
" transform="scale(0.015625)"/>
       </defs>
       <use xlink:href="#DejaVuSerif-30"/>
       <use xlink:href="#DejaVuSerif-2e" x="63.623047"/>
       <use xlink:href="#DejaVuSerif-32" x="95.410156"/>
      </g>
     </g>
    </g>
    <g id="ytick_9">
     <g id="line2d_15">
      <path d="M 401.717647 266.547597 
L 631.482353 266.547597 
" clip-path="url(#p8f50072880)" style="fill: none; stroke: #cccccc; stroke-linecap: round"/>
     </g>
     <g id="text_19">
      <!-- 0.4 -->
      <g style="fill: #262626" transform="translate(374.72421 270.726737) scale(0.11 -0.11)">
       <use xlink:href="#DejaVuSerif-30"/>
       <use xlink:href="#DejaVuSerif-2e" x="63.623047"/>
       <use xlink:href="#DejaVuSerif-34" x="95.410156"/>
      </g>
     </g>
    </g>
    <g id="ytick_10">
     <g id="line2d_16">
      <path d="M 401.717647 212.474502 
L 631.482353 212.474502 
" clip-path="url(#p8f50072880)" style="fill: none; stroke: #cccccc; stroke-linecap: round"/>
     </g>
     <g id="text_20">
      <!-- 0.6 -->
      <g style="fill: #262626" transform="translate(374.72421 216.653643) scale(0.11 -0.11)">
       <use xlink:href="#DejaVuSerif-30"/>
       <use xlink:href="#DejaVuSerif-2e" x="63.623047"/>
       <use xlink:href="#DejaVuSerif-36" x="95.410156"/>
      </g>
     </g>
    </g>
    <g id="ytick_11">
     <g id="line2d_17">
      <path d="M 401.717647 158.401408 
L 631.482353 158.401408 
" clip-path="url(#p8f50072880)" style="fill: none; stroke: #cccccc; stroke-linecap: round"/>
     </g>
     <g id="text_21">
      <!-- 0.8 -->
      <g style="fill: #262626" transform="translate(374.72421 162.580549) scale(0.11 -0.11)">
       <use xlink:href="#DejaVuSerif-30"/>
       <use xlink:href="#DejaVuSerif-2e" x="63.623047"/>
       <use xlink:href="#DejaVuSerif-38" x="95.410156"/>
      </g>
     </g>
    </g>
    <g id="ytick_12">
     <g id="line2d_18">
      <path d="M 401.717647 104.328313 
L 631.482353 104.328313 
" clip-path="url(#p8f50072880)" style="fill: none; stroke: #cccccc; stroke-linecap: round"/>
     </g>
     <g id="text_22">
      <!-- 1.0 -->
      <g style="fill: #262626" transform="translate(374.72421 108.507454) scale(0.11 -0.11)">
       <use xlink:href="#DejaVuSerif-31"/>
       <use xlink:href="#DejaVuSerif-2e" x="63.623047"/>
       <use xlink:href="#DejaVuSerif-30" x="95.410156"/>
      </g>
     </g>
    </g>
    <g id="ytick_13">
     <g id="line2d_19">
      <path d="M 401.717647 50.255219 
L 631.482353 50.255219 
" clip-path="url(#p8f50072880)" style="fill: none; stroke: #cccccc; stroke-linecap: round"/>
     </g>
     <g id="text_23">
      <!-- 1.2 -->
      <g style="fill: #262626" transform="translate(374.72421 54.43436) scale(0.11 -0.11)">
       <use xlink:href="#DejaVuSerif-31"/>
       <use xlink:href="#DejaVuSerif-2e" x="63.623047"/>
       <use xlink:href="#DejaVuSerif-32" x="95.410156"/>
      </g>
     </g>
    </g>
    <g id="text_24">
     <!-- r2 of pca regression divided by -->
     <g style="fill: #262626" transform="translate(354.44996 294.576562) rotate(-90) scale(0.12 -0.12)">
      <defs>
       <path id="DejaVuSerif-64" d="M 3359 331 
L 3909 331 
L 3909 0 
L 2784 0 
L 2784 519 
Q 2616 206 2355 57 
Q 2094 -91 1709 -91 
Q 1097 -91 708 395 
Q 319 881 319 1663 
Q 319 2444 706 2928 
Q 1094 3413 1709 3413 
Q 2094 3413 2355 3264 
Q 2616 3116 2784 2803 
L 2784 4531 
L 2241 4531 
L 2241 4863 
L 3359 4863 
L 3359 331 
z
M 2784 1497 
L 2784 1825 
Q 2784 2422 2554 2737 
Q 2325 3053 1888 3053 
Q 1444 3053 1217 2703 
Q 991 2353 991 1663 
Q 991 975 1217 622 
Q 1444 269 1888 269 
Q 2325 269 2554 583 
Q 2784 897 2784 1497 
z
" transform="scale(0.015625)"/>
      </defs>
      <use xlink:href="#DejaVuSerif-72"/>
      <use xlink:href="#DejaVuSerif-32" x="47.802734"/>
      <use xlink:href="#DejaVuSerif-20" x="111.425781"/>
      <use xlink:href="#DejaVuSerif-6f" x="143.212891"/>
      <use xlink:href="#DejaVuSerif-66" x="203.417969"/>
      <use xlink:href="#DejaVuSerif-20" x="240.429688"/>
      <use xlink:href="#DejaVuSerif-70" x="272.216797"/>
      <use xlink:href="#DejaVuSerif-63" x="336.230469"/>
      <use xlink:href="#DejaVuSerif-61" x="392.236328"/>
      <use xlink:href="#DejaVuSerif-20" x="451.855469"/>
      <use xlink:href="#DejaVuSerif-72" x="483.642578"/>
      <use xlink:href="#DejaVuSerif-65" x="531.445312"/>
      <use xlink:href="#DejaVuSerif-67" x="590.625"/>
      <use xlink:href="#DejaVuSerif-72" x="654.638672"/>
      <use xlink:href="#DejaVuSerif-65" x="702.441406"/>
      <use xlink:href="#DejaVuSerif-73" x="761.621094"/>
      <use xlink:href="#DejaVuSerif-73" x="812.939453"/>
      <use xlink:href="#DejaVuSerif-69" x="864.257812"/>
      <use xlink:href="#DejaVuSerif-6f" x="896.240234"/>
      <use xlink:href="#DejaVuSerif-6e" x="956.445312"/>
      <use xlink:href="#DejaVuSerif-20" x="1020.849609"/>
      <use xlink:href="#DejaVuSerif-64" x="1052.636719"/>
      <use xlink:href="#DejaVuSerif-69" x="1116.650391"/>
      <use xlink:href="#DejaVuSerif-76" x="1148.632812"/>
      <use xlink:href="#DejaVuSerif-69" x="1205.126953"/>
      <use xlink:href="#DejaVuSerif-64" x="1237.109375"/>
      <use xlink:href="#DejaVuSerif-65" x="1301.123047"/>
      <use xlink:href="#DejaVuSerif-64" x="1360.302734"/>
      <use xlink:href="#DejaVuSerif-20" x="1424.316406"/>
      <use xlink:href="#DejaVuSerif-62" x="1456.103516"/>
      <use xlink:href="#DejaVuSerif-79" x="1520.117188"/>
     </g>
     <!-- r2 of marker based regression -->
     <g style="fill: #262626" transform="translate(368.05796 292.437187) rotate(-90) scale(0.12 -0.12)">
      <use xlink:href="#DejaVuSerif-72"/>
      <use xlink:href="#DejaVuSerif-32" x="47.802734"/>
      <use xlink:href="#DejaVuSerif-20" x="111.425781"/>
      <use xlink:href="#DejaVuSerif-6f" x="143.212891"/>
      <use xlink:href="#DejaVuSerif-66" x="203.417969"/>
      <use xlink:href="#DejaVuSerif-20" x="240.429688"/>
      <use xlink:href="#DejaVuSerif-6d" x="272.216797"/>
      <use xlink:href="#DejaVuSerif-61" x="367.041016"/>
      <use xlink:href="#DejaVuSerif-72" x="426.660156"/>
      <use xlink:href="#DejaVuSerif-6b" x="474.462891"/>
      <use xlink:href="#DejaVuSerif-65" x="535.058594"/>
      <use xlink:href="#DejaVuSerif-72" x="594.238281"/>
      <use xlink:href="#DejaVuSerif-20" x="642.041016"/>
      <use xlink:href="#DejaVuSerif-62" x="673.828125"/>
      <use xlink:href="#DejaVuSerif-61" x="737.841797"/>
      <use xlink:href="#DejaVuSerif-73" x="797.460938"/>
      <use xlink:href="#DejaVuSerif-65" x="848.779297"/>
      <use xlink:href="#DejaVuSerif-64" x="907.958984"/>
      <use xlink:href="#DejaVuSerif-20" x="971.972656"/>
      <use xlink:href="#DejaVuSerif-72" x="1003.759766"/>
      <use xlink:href="#DejaVuSerif-65" x="1051.5625"/>
      <use xlink:href="#DejaVuSerif-67" x="1110.742188"/>
      <use xlink:href="#DejaVuSerif-72" x="1174.755859"/>
      <use xlink:href="#DejaVuSerif-65" x="1222.558594"/>
      <use xlink:href="#DejaVuSerif-73" x="1281.738281"/>
      <use xlink:href="#DejaVuSerif-73" x="1333.056641"/>
      <use xlink:href="#DejaVuSerif-69" x="1384.375"/>
      <use xlink:href="#DejaVuSerif-6f" x="1416.357422"/>
      <use xlink:href="#DejaVuSerif-6e" x="1476.5625"/>
     </g>
    </g>
   </g>
   <g id="patch_7">
    <path d="M 401.717647 352.44 
L 401.717647 47.52 
" style="fill: none; stroke: #cccccc; stroke-width: 1.25; stroke-linejoin: miter; stroke-linecap: square"/>
   </g>
   <g id="patch_8">
    <path d="M 401.717647 352.44 
L 631.482353 352.44 
" style="fill: none; stroke: #cccccc; stroke-width: 1.25; stroke-linejoin: miter; stroke-linecap: square"/>
   </g>
   <g id="PathCollection_3">
    <defs>
     <path id="C2_0_c1372df4fa" d="M 0 2.5 
C 0.663008 2.5 1.29895 2.236584 1.767767 1.767767 
C 2.236584 1.29895 2.5 0.663008 2.5 -0 
C 2.5 -0.663008 2.236584 -1.29895 1.767767 -1.767767 
C 1.29895 -2.236584 0.663008 -2.5 0 -2.5 
C -0.663008 -2.5 -1.29895 -2.236584 -1.767767 -1.767767 
C -2.236584 -1.29895 -2.5 -0.663008 -2.5 0 
C -2.5 0.663008 -2.236584 1.29895 -1.767767 1.767767 
C -1.29895 2.236584 -0.663008 2.5 0 2.5 
z
"/>
    </defs>
    <g clip-path="url(#p8f50072880)">
     <use xlink:href="#C2_0_c1372df4fa" x="453.981001" y="116.744455" style="fill: #4c72b0"/>
    </g>
    <g clip-path="url(#p8f50072880)">
     <use xlink:href="#C2_0_c1372df4fa" x="464.589687" y="112.021556" style="fill: #4c72b0"/>
    </g>
    <g clip-path="url(#p8f50072880)">
     <use xlink:href="#C2_0_c1372df4fa" x="459.158824" y="138.97133" style="fill: #4c72b0"/>
    </g>
    <g clip-path="url(#p8f50072880)">
     <use xlink:href="#C2_0_c1372df4fa" x="459.158824" y="113.398671" style="fill: #4c72b0"/>
    </g>
    <g clip-path="url(#p8f50072880)">
     <use xlink:href="#C2_0_c1372df4fa" x="459.158824" y="127.992644" style="fill: #4c72b0"/>
    </g>
    <g clip-path="url(#p8f50072880)">
     <use xlink:href="#C2_0_c1372df4fa" x="453.924783" y="151.13222" style="fill: #4c72b0"/>
    </g>
    <g clip-path="url(#p8f50072880)">
     <use xlink:href="#C2_0_c1372df4fa" x="459.158824" y="105.764947" style="fill: #4c72b0"/>
    </g>
    <g clip-path="url(#p8f50072880)">
     <use xlink:href="#C2_0_c1372df4fa" x="459.158824" y="86.623743" style="fill: #4c72b0"/>
    </g>
    <g clip-path="url(#p8f50072880)">
     <use xlink:href="#C2_0_c1372df4fa" x="456.387798" y="134.724531" style="fill: #4c72b0"/>
    </g>
    <g clip-path="url(#p8f50072880)">
     <use xlink:href="#C2_0_c1372df4fa" x="458.475708" y="119.328219" style="fill: #4c72b0"/>
    </g>
    <g clip-path="url(#p8f50072880)">
     <use xlink:href="#C2_0_c1372df4fa" x="459.158824" y="151.52179" style="fill: #4c72b0"/>
    </g>
    <g clip-path="url(#p8f50072880)">
     <use xlink:href="#C2_0_c1372df4fa" x="459.158824" y="218.543138" style="fill: #55a868"/>
    </g>
    <g clip-path="url(#p8f50072880)">
     <use xlink:href="#C2_0_c1372df4fa" x="461.545341" y="147.068247" style="fill: #4c72b0"/>
    </g>
    <g clip-path="url(#p8f50072880)">
     <use xlink:href="#C2_0_c1372df4fa" x="459.158824" y="308.80581" style="fill: #55a868"/>
    </g>
    <g clip-path="url(#p8f50072880)">
     <use xlink:href="#C2_0_c1372df4fa" x="455.843229" y="124.115935" style="fill: #4c72b0"/>
    </g>
    <g clip-path="url(#p8f50072880)">
     <use xlink:href="#C2_0_c1372df4fa" x="466.612674" y="122.81359" style="fill: #55a868"/>
    </g>
    <g clip-path="url(#p8f50072880)">
     <use xlink:href="#C2_0_c1372df4fa" x="459.158824" y="61.38" style="fill: #4c72b0"/>
    </g>
    <g clip-path="url(#p8f50072880)">
     <use xlink:href="#C2_0_c1372df4fa" x="462.996272" y="116.7857" style="fill: #4c72b0"/>
    </g>
    <g clip-path="url(#p8f50072880)">
     <use xlink:href="#C2_0_c1372df4fa" x="459.158824" y="94.54151" style="fill: #4c72b0"/>
    </g>
    <g clip-path="url(#p8f50072880)">
     <use xlink:href="#C2_0_c1372df4fa" x="454.047963" y="85.480248" style="fill: #4c72b0"/>
    </g>
    <g clip-path="url(#p8f50072880)">
     <use xlink:href="#C2_0_c1372df4fa" x="461.408825" y="123.475105" style="fill: #4c72b0"/>
    </g>
    <g clip-path="url(#p8f50072880)">
     <use xlink:href="#C2_0_c1372df4fa" x="454.220057" y="111.702715" style="fill: #4c72b0"/>
    </g>
    <g clip-path="url(#p8f50072880)">
     <use xlink:href="#C2_0_c1372df4fa" x="459.158824" y="166.900553" style="fill: #4c72b0"/>
    </g>
   </g>
   <g id="PathCollection_4">
    <defs>
     <path id="C3_0_9d2b1fab2b" d="M 0 2.5 
C 0.663008 2.5 1.29895 2.236584 1.767767 1.767767 
C 2.236584 1.29895 2.5 0.663008 2.5 -0 
C 2.5 -0.663008 2.236584 -1.29895 1.767767 -1.767767 
C 1.29895 -2.236584 0.663008 -2.5 0 -2.5 
C -0.663008 -2.5 -1.29895 -2.236584 -1.767767 -1.767767 
C -2.236584 -1.29895 -2.5 -0.663008 -2.5 0 
C -2.5 0.663008 -2.236584 1.29895 -1.767767 1.767767 
C -1.29895 2.236584 -0.663008 2.5 0 2.5 
z
"/>
    </defs>
    <g clip-path="url(#p8f50072880)">
     <use xlink:href="#C3_0_9d2b1fab2b" x="574.041176" y="87.542483" style="fill: #4c72b0"/>
    </g>
    <g clip-path="url(#p8f50072880)">
     <use xlink:href="#C3_0_9d2b1fab2b" x="568.954453" y="86.305213" style="fill: #4c72b0"/>
    </g>
    <g clip-path="url(#p8f50072880)">
     <use xlink:href="#C3_0_9d2b1fab2b" x="574.041176" y="134.928843" style="fill: #dd8452"/>
    </g>
    <g clip-path="url(#p8f50072880)">
     <use xlink:href="#C3_0_9d2b1fab2b" x="574.041176" y="119.849111" style="fill: #4c72b0"/>
    </g>
    <g clip-path="url(#p8f50072880)">
     <use xlink:href="#C3_0_9d2b1fab2b" x="574.041176" y="213.09613" style="fill: #55a868"/>
    </g>
    <g clip-path="url(#p8f50072880)">
     <use xlink:href="#C3_0_9d2b1fab2b" x="574.041176" y="148.14808" style="fill: #dd8452"/>
    </g>
    <g clip-path="url(#p8f50072880)">
     <use xlink:href="#C3_0_9d2b1fab2b" x="574.041176" y="112.720448" style="fill: #4c72b0"/>
    </g>
    <g clip-path="url(#p8f50072880)">
     <use xlink:href="#C3_0_9d2b1fab2b" x="574.041176" y="142.020343" style="fill: #dd8452"/>
    </g>
    <g clip-path="url(#p8f50072880)">
     <use xlink:href="#C3_0_9d2b1fab2b" x="574.041176" y="338.58" style="fill: #dd8452"/>
    </g>
    <g clip-path="url(#p8f50072880)">
     <use xlink:href="#C3_0_9d2b1fab2b" x="574.041176" y="264.407461" style="fill: #dd8452"/>
    </g>
    <g clip-path="url(#p8f50072880)">
     <use xlink:href="#C3_0_9d2b1fab2b" x="574.041176" y="224.436266" style="fill: #4c72b0"/>
    </g>
    <g clip-path="url(#p8f50072880)">
     <use xlink:href="#C3_0_9d2b1fab2b" x="568.843675" y="263.702134" style="fill: #dd8452"/>
    </g>
    <g clip-path="url(#p8f50072880)">
     <use xlink:href="#C3_0_9d2b1fab2b" x="568.959227" y="337.325063" style="fill: #dd8452"/>
    </g>
   </g>
   <g id="line2d_20"/>
   <g id="line2d_21"/>
   <g id="line2d_22"/>
   <g id="legend_2">
    <g id="patch_9">
     <path d="M 462.974219 223.497187 
L 570.225781 223.497187 
Q 572.225781 223.497187 572.225781 221.497187 
L 572.225781 178.462812 
Q 572.225781 176.462812 570.225781 176.462812 
L 462.974219 176.462812 
Q 460.974219 176.462812 460.974219 178.462812 
L 460.974219 221.497187 
Q 460.974219 223.497187 462.974219 223.497187 
z
" style="fill: #ffffff; opacity: 0.8; stroke: #cccccc; stroke-linejoin: miter"/>
    </g>
    <g id="line2d_23">
     <g>
      <use xlink:href="#m06d322e9ac" x="474.974219" y="184.56125" style="fill: #4c72b0"/>
     </g>
    </g>
    <g id="text_25">
     <!-- Ridge -->
     <g transform="translate(492.974219 188.06125) scale(0.1 -0.1)">
      <use xlink:href="#DejaVuSans-52"/>
      <use xlink:href="#DejaVuSans-69" x="69.482422"/>
      <use xlink:href="#DejaVuSans-64" x="97.265625"/>
      <use xlink:href="#DejaVuSans-67" x="160.742188"/>
      <use xlink:href="#DejaVuSans-65" x="224.21875"/>
     </g>
    </g>
    <g id="line2d_24">
     <g>
      <use xlink:href="#m093976691a" x="474.974219" y="199.239375" style="fill: #dd8452"/>
     </g>
    </g>
    <g id="text_26">
     <!-- Random Forest -->
     <g transform="translate(492.974219 202.739375) scale(0.1 -0.1)">
      <use xlink:href="#DejaVuSans-52"/>
      <use xlink:href="#DejaVuSans-61" x="67.232422"/>
      <use xlink:href="#DejaVuSans-6e" x="128.511719"/>
      <use xlink:href="#DejaVuSans-64" x="191.890625"/>
      <use xlink:href="#DejaVuSans-6f" x="255.367188"/>
      <use xlink:href="#DejaVuSans-6d" x="316.548828"/>
      <use xlink:href="#DejaVuSans-20" x="413.960938"/>
      <use xlink:href="#DejaVuSans-46" x="445.748047"/>
      <use xlink:href="#DejaVuSans-6f" x="499.642578"/>
      <use xlink:href="#DejaVuSans-72" x="560.824219"/>
      <use xlink:href="#DejaVuSans-65" x="599.6875"/>
      <use xlink:href="#DejaVuSans-73" x="661.210938"/>
      <use xlink:href="#DejaVuSans-74" x="713.310547"/>
     </g>
    </g>
    <g id="line2d_25">
     <g>
      <use xlink:href="#m0b90892a85" x="474.974219" y="213.9175" style="fill: #55a868"/>
     </g>
    </g>
    <g id="text_27">
     <!-- Lasso -->
     <g transform="translate(492.974219 217.4175) scale(0.1 -0.1)">
      <use xlink:href="#DejaVuSans-4c"/>
      <use xlink:href="#DejaVuSans-61" x="55.712891"/>
      <use xlink:href="#DejaVuSans-73" x="116.992188"/>
      <use xlink:href="#DejaVuSans-73" x="169.091797"/>
      <use xlink:href="#DejaVuSans-6f" x="221.191406"/>
     </g>
    </g>
   </g>
  </g>
  <g id="axes_3">
   <g id="patch_10">
    <path d="M 677.435294 352.44 
L 907.2 352.44 
L 907.2 47.52 
L 677.435294 47.52 
z
" style="fill: #ffffff"/>
   </g>
   <g id="matplotlib.axis_5">
    <g id="xtick_5">
     <g id="text_28">
      <!-- macroscopic trait -->
      <g style="fill: #262626" transform="translate(685.952252 370.298281) scale(0.11 -0.11)">
       <use xlink:href="#DejaVuSerif-6d"/>
       <use xlink:href="#DejaVuSerif-61" x="94.824219"/>
       <use xlink:href="#DejaVuSerif-63" x="154.443359"/>
       <use xlink:href="#DejaVuSerif-72" x="210.449219"/>
       <use xlink:href="#DejaVuSerif-6f" x="258.251953"/>
       <use xlink:href="#DejaVuSerif-73" x="318.457031"/>
       <use xlink:href="#DejaVuSerif-63" x="369.775391"/>
       <use xlink:href="#DejaVuSerif-6f" x="425.78125"/>
       <use xlink:href="#DejaVuSerif-70" x="485.986328"/>
       <use xlink:href="#DejaVuSerif-69" x="550"/>
       <use xlink:href="#DejaVuSerif-63" x="581.982422"/>
       <use xlink:href="#DejaVuSerif-20" x="637.988281"/>
       <use xlink:href="#DejaVuSerif-74" x="669.775391"/>
       <use xlink:href="#DejaVuSerif-72" x="709.960938"/>
       <use xlink:href="#DejaVuSerif-61" x="757.763672"/>
       <use xlink:href="#DejaVuSerif-69" x="817.382812"/>
       <use xlink:href="#DejaVuSerif-74" x="849.365234"/>
      </g>
     </g>
    </g>
    <g id="xtick_6">
     <g id="text_29">
      <!-- biochemical trait -->
      <g style="fill: #262626" transform="translate(802.360855 370.298281) scale(0.11 -0.11)">
       <use xlink:href="#DejaVuSerif-62"/>
       <use xlink:href="#DejaVuSerif-69" x="64.013672"/>
       <use xlink:href="#DejaVuSerif-6f" x="95.996094"/>
       <use xlink:href="#DejaVuSerif-63" x="156.201172"/>
       <use xlink:href="#DejaVuSerif-68" x="212.207031"/>
       <use xlink:href="#DejaVuSerif-65" x="276.611328"/>
       <use xlink:href="#DejaVuSerif-6d" x="335.791016"/>
       <use xlink:href="#DejaVuSerif-69" x="430.615234"/>
       <use xlink:href="#DejaVuSerif-63" x="462.597656"/>
       <use xlink:href="#DejaVuSerif-61" x="518.603516"/>
       <use xlink:href="#DejaVuSerif-6c" x="578.222656"/>
       <use xlink:href="#DejaVuSerif-20" x="610.205078"/>
       <use xlink:href="#DejaVuSerif-74" x="641.992188"/>
       <use xlink:href="#DejaVuSerif-72" x="682.177734"/>
       <use xlink:href="#DejaVuSerif-61" x="729.980469"/>
       <use xlink:href="#DejaVuSerif-69" x="789.599609"/>
       <use xlink:href="#DejaVuSerif-74" x="821.582031"/>
      </g>
     </g>
    </g>
    <g id="text_30">
     <!-- ontology -->
     <g style="fill: #262626" transform="translate(766.05546 385.704063) scale(0.12 -0.12)">
      <use xlink:href="#DejaVuSerif-6f"/>
      <use xlink:href="#DejaVuSerif-6e" x="60.205078"/>
      <use xlink:href="#DejaVuSerif-74" x="124.609375"/>
      <use xlink:href="#DejaVuSerif-6f" x="164.794922"/>
      <use xlink:href="#DejaVuSerif-6c" x="225"/>
      <use xlink:href="#DejaVuSerif-6f" x="256.982422"/>
      <use xlink:href="#DejaVuSerif-67" x="317.1875"/>
      <use xlink:href="#DejaVuSerif-79" x="381.201172"/>
     </g>
    </g>
   </g>
   <g id="matplotlib.axis_6">
    <g id="ytick_14">
     <g id="line2d_26">
      <path d="M 677.435294 344.858601 
L 907.2 344.858601 
" clip-path="url(#p68d124112b)" style="fill: none; stroke: #cccccc; stroke-linecap: round"/>
     </g>
     <g id="text_31">
      <!-- 0.0 -->
      <g style="fill: #262626" transform="translate(650.441857 349.037741) scale(0.11 -0.11)">
       <use xlink:href="#DejaVuSerif-30"/>
       <use xlink:href="#DejaVuSerif-2e" x="63.623047"/>
       <use xlink:href="#DejaVuSerif-30" x="95.410156"/>
      </g>
     </g>
    </g>
    <g id="ytick_15">
     <g id="line2d_27">
      <path d="M 677.435294 286.041835 
L 907.2 286.041835 
" clip-path="url(#p68d124112b)" style="fill: none; stroke: #cccccc; stroke-linecap: round"/>
     </g>
     <g id="text_32">
      <!-- 0.1 -->
      <g style="fill: #262626" transform="translate(650.441857 290.220975) scale(0.11 -0.11)">
       <use xlink:href="#DejaVuSerif-30"/>
       <use xlink:href="#DejaVuSerif-2e" x="63.623047"/>
       <use xlink:href="#DejaVuSerif-31" x="95.410156"/>
      </g>
     </g>
    </g>
    <g id="ytick_16">
     <g id="line2d_28">
      <path d="M 677.435294 227.225069 
L 907.2 227.225069 
" clip-path="url(#p68d124112b)" style="fill: none; stroke: #cccccc; stroke-linecap: round"/>
     </g>
     <g id="text_33">
      <!-- 0.2 -->
      <g style="fill: #262626" transform="translate(650.441857 231.404209) scale(0.11 -0.11)">
       <use xlink:href="#DejaVuSerif-30"/>
       <use xlink:href="#DejaVuSerif-2e" x="63.623047"/>
       <use xlink:href="#DejaVuSerif-32" x="95.410156"/>
      </g>
     </g>
    </g>
    <g id="ytick_17">
     <g id="line2d_29">
      <path d="M 677.435294 168.408302 
L 907.2 168.408302 
" clip-path="url(#p68d124112b)" style="fill: none; stroke: #cccccc; stroke-linecap: round"/>
     </g>
     <g id="text_34">
      <!-- 0.3 -->
      <g style="fill: #262626" transform="translate(650.441857 172.587443) scale(0.11 -0.11)">
       <use xlink:href="#DejaVuSerif-30"/>
       <use xlink:href="#DejaVuSerif-2e" x="63.623047"/>
       <use xlink:href="#DejaVuSerif-33" x="95.410156"/>
      </g>
     </g>
    </g>
    <g id="ytick_18">
     <g id="line2d_30">
      <path d="M 677.435294 109.591536 
L 907.2 109.591536 
" clip-path="url(#p68d124112b)" style="fill: none; stroke: #cccccc; stroke-linecap: round"/>
     </g>
     <g id="text_35">
      <!-- 0.4 -->
      <g style="fill: #262626" transform="translate(650.441857 113.770677) scale(0.11 -0.11)">
       <use xlink:href="#DejaVuSerif-30"/>
       <use xlink:href="#DejaVuSerif-2e" x="63.623047"/>
       <use xlink:href="#DejaVuSerif-34" x="95.410156"/>
      </g>
     </g>
    </g>
    <g id="ytick_19">
     <g id="line2d_31">
      <path d="M 677.435294 50.77477 
L 907.2 50.77477 
" clip-path="url(#p68d124112b)" style="fill: none; stroke: #cccccc; stroke-linecap: round"/>
     </g>
     <g id="text_36">
      <!-- 0.5 -->
      <g style="fill: #262626" transform="translate(650.441857 54.953911) scale(0.11 -0.11)">
       <use xlink:href="#DejaVuSerif-30"/>
       <use xlink:href="#DejaVuSerif-2e" x="63.623047"/>
       <use xlink:href="#DejaVuSerif-35" x="95.410156"/>
      </g>
     </g>
    </g>
    <g id="text_37">
     <!-- phenotypic variance explained by geographic model -->
     <g style="fill: #262626" transform="translate(643.775607 358.843125) rotate(-90) scale(0.12 -0.12)">
      <defs>
       <path id="DejaVuSerif-78" d="M 1863 2028 
L 2559 2988 
L 2113 2988 
L 2113 3322 
L 3391 3322 
L 3391 2988 
L 2950 2988 
L 2059 1759 
L 3097 331 
L 3531 331 
L 3531 0 
L 1997 0 
L 1997 331 
L 2419 331 
L 1697 1325 
L 972 331 
L 1403 331 
L 1403 0 
L 141 0 
L 141 331 
L 581 331 
L 1497 1594 
L 488 2988 
L 78 2988 
L 78 3322 
L 1563 3322 
L 1563 2988 
L 1166 2988 
L 1863 2028 
z
" transform="scale(0.015625)"/>
      </defs>
      <use xlink:href="#DejaVuSerif-70"/>
      <use xlink:href="#DejaVuSerif-68" x="64.013672"/>
      <use xlink:href="#DejaVuSerif-65" x="128.417969"/>
      <use xlink:href="#DejaVuSerif-6e" x="187.597656"/>
      <use xlink:href="#DejaVuSerif-6f" x="252.001953"/>
      <use xlink:href="#DejaVuSerif-74" x="312.207031"/>
      <use xlink:href="#DejaVuSerif-79" x="352.392578"/>
      <use xlink:href="#DejaVuSerif-70" x="408.886719"/>
      <use xlink:href="#DejaVuSerif-69" x="472.900391"/>
      <use xlink:href="#DejaVuSerif-63" x="504.882812"/>
      <use xlink:href="#DejaVuSerif-20" x="560.888672"/>
      <use xlink:href="#DejaVuSerif-76" x="592.675781"/>
      <use xlink:href="#DejaVuSerif-61" x="649.169922"/>
      <use xlink:href="#DejaVuSerif-72" x="708.789062"/>
      <use xlink:href="#DejaVuSerif-69" x="756.591797"/>
      <use xlink:href="#DejaVuSerif-61" x="788.574219"/>
      <use xlink:href="#DejaVuSerif-6e" x="848.193359"/>
      <use xlink:href="#DejaVuSerif-63" x="912.597656"/>
      <use xlink:href="#DejaVuSerif-65" x="968.603516"/>
      <use xlink:href="#DejaVuSerif-20" x="1027.783203"/>
      <use xlink:href="#DejaVuSerif-65" x="1059.570312"/>
      <use xlink:href="#DejaVuSerif-78" x="1118.75"/>
      <use xlink:href="#DejaVuSerif-70" x="1175.146484"/>
      <use xlink:href="#DejaVuSerif-6c" x="1239.160156"/>
      <use xlink:href="#DejaVuSerif-61" x="1271.142578"/>
      <use xlink:href="#DejaVuSerif-69" x="1330.761719"/>
      <use xlink:href="#DejaVuSerif-6e" x="1362.744141"/>
      <use xlink:href="#DejaVuSerif-65" x="1427.148438"/>
      <use xlink:href="#DejaVuSerif-64" x="1486.328125"/>
      <use xlink:href="#DejaVuSerif-20" x="1550.341797"/>
      <use xlink:href="#DejaVuSerif-62" x="1582.128906"/>
      <use xlink:href="#DejaVuSerif-79" x="1646.142578"/>
      <use xlink:href="#DejaVuSerif-20" x="1702.636719"/>
      <use xlink:href="#DejaVuSerif-67" x="1734.423828"/>
      <use xlink:href="#DejaVuSerif-65" x="1798.4375"/>
      <use xlink:href="#DejaVuSerif-6f" x="1857.617188"/>
      <use xlink:href="#DejaVuSerif-67" x="1917.822266"/>
      <use xlink:href="#DejaVuSerif-72" x="1981.835938"/>
      <use xlink:href="#DejaVuSerif-61" x="2029.638672"/>
      <use xlink:href="#DejaVuSerif-70" x="2089.257812"/>
      <use xlink:href="#DejaVuSerif-68" x="2153.271484"/>
      <use xlink:href="#DejaVuSerif-69" x="2217.675781"/>
      <use xlink:href="#DejaVuSerif-63" x="2249.658203"/>
      <use xlink:href="#DejaVuSerif-20" x="2305.664062"/>
      <use xlink:href="#DejaVuSerif-6d" x="2337.451172"/>
      <use xlink:href="#DejaVuSerif-6f" x="2432.275391"/>
      <use xlink:href="#DejaVuSerif-64" x="2492.480469"/>
      <use xlink:href="#DejaVuSerif-65" x="2556.494141"/>
      <use xlink:href="#DejaVuSerif-6c" x="2615.673828"/>
     </g>
    </g>
   </g>
   <g id="patch_11">
    <path d="M 677.435294 352.44 
L 677.435294 47.52 
" style="fill: none; stroke: #cccccc; stroke-width: 1.25; stroke-linejoin: miter; stroke-linecap: square"/>
   </g>
   <g id="patch_12">
    <path d="M 677.435294 352.44 
L 907.2 352.44 
" style="fill: none; stroke: #cccccc; stroke-width: 1.25; stroke-linejoin: miter; stroke-linecap: square"/>
   </g>
   <g id="PathCollection_5">
    <defs>
     <path id="C4_0_867bef0385" d="M 0 2.5 
C 0.663008 2.5 1.29895 2.236584 1.767767 1.767767 
C 2.236584 1.29895 2.5 0.663008 2.5 -0 
C 2.5 -0.663008 2.236584 -1.29895 1.767767 -1.767767 
C 1.29895 -2.236584 0.663008 -2.5 0 -2.5 
C -0.663008 -2.5 -1.29895 -2.236584 -1.767767 -1.767767 
C -2.236584 -1.29895 -2.5 -0.663008 -2.5 0 
C -2.5 0.663008 -2.236584 1.29895 -1.767767 1.767767 
C -1.29895 2.236584 -0.663008 2.5 0 2.5 
z
"/>
    </defs>
    <g clip-path="url(#p68d124112b)">
     <use xlink:href="#C4_0_867bef0385" x="734.876471" y="253.061135" style="fill: #4c72b0"/>
    </g>
    <g clip-path="url(#p68d124112b)">
     <use xlink:href="#C4_0_867bef0385" x="734.876471" y="205.382881" style="fill: #4c72b0"/>
    </g>
    <g clip-path="url(#p68d124112b)">
     <use xlink:href="#C4_0_867bef0385" x="734.876471" y="90.949274" style="fill: #4c72b0"/>
    </g>
    <g clip-path="url(#p68d124112b)">
     <use xlink:href="#C4_0_867bef0385" x="731.478506" y="123.103444" style="fill: #4c72b0"/>
    </g>
    <g clip-path="url(#p68d124112b)">
     <use xlink:href="#C4_0_867bef0385" x="734.876471" y="176.406837" style="fill: #4c72b0"/>
    </g>
    <g clip-path="url(#p68d124112b)">
     <use xlink:href="#C4_0_867bef0385" x="732.819965" y="200.782449" style="fill: #4c72b0"/>
    </g>
    <g clip-path="url(#p68d124112b)">
     <use xlink:href="#C4_0_867bef0385" x="734.876471" y="61.38" style="fill: #4c72b0"/>
    </g>
    <g clip-path="url(#p68d124112b)">
     <use xlink:href="#C4_0_867bef0385" x="734.876471" y="84.561184" style="fill: #4c72b0"/>
    </g>
    <g clip-path="url(#p68d124112b)">
     <use xlink:href="#C4_0_867bef0385" x="734.876471" y="126.914912" style="fill: #4c72b0"/>
    </g>
    <g clip-path="url(#p68d124112b)">
     <use xlink:href="#C4_0_867bef0385" x="734.876471" y="138.770281" style="fill: #4c72b0"/>
    </g>
    <g clip-path="url(#p68d124112b)">
     <use xlink:href="#C4_0_867bef0385" x="734.876471" y="165.86198" style="fill: #4c72b0"/>
    </g>
    <g clip-path="url(#p68d124112b)">
     <use xlink:href="#C4_0_867bef0385" x="734.876471" y="150.04063" style="fill: #55a868"/>
    </g>
    <g clip-path="url(#p68d124112b)">
     <use xlink:href="#C4_0_867bef0385" x="734.876471" y="214.981017" style="fill: #4c72b0"/>
    </g>
    <g clip-path="url(#p68d124112b)">
     <use xlink:href="#C4_0_867bef0385" x="734.876471" y="312.41999" style="fill: #55a868"/>
    </g>
    <g clip-path="url(#p68d124112b)">
     <use xlink:href="#C4_0_867bef0385" x="734.876471" y="246.48166" style="fill: #4c72b0"/>
    </g>
    <g clip-path="url(#p68d124112b)">
     <use xlink:href="#C4_0_867bef0385" x="730.224943" y="163.543604" style="fill: #55a868"/>
    </g>
    <g clip-path="url(#p68d124112b)">
     <use xlink:href="#C4_0_867bef0385" x="734.876471" y="266.486008" style="fill: #4c72b0"/>
    </g>
    <g clip-path="url(#p68d124112b)">
     <use xlink:href="#C4_0_867bef0385" x="734.876471" y="234.108363" style="fill: #4c72b0"/>
    </g>
    <g clip-path="url(#p68d124112b)">
     <use xlink:href="#C4_0_867bef0385" x="734.876471" y="260.982068" style="fill: #4c72b0"/>
    </g>
    <g clip-path="url(#p68d124112b)">
     <use xlink:href="#C4_0_867bef0385" x="734.876471" y="290.371305" style="fill: #4c72b0"/>
    </g>
    <g clip-path="url(#p68d124112b)">
     <use xlink:href="#C4_0_867bef0385" x="731.101949" y="308.944715" style="fill: #4c72b0"/>
    </g>
    <g clip-path="url(#p68d124112b)">
     <use xlink:href="#C4_0_867bef0385" x="734.876471" y="278.783049" style="fill: #4c72b0"/>
    </g>
    <g clip-path="url(#p68d124112b)">
     <use xlink:href="#C4_0_867bef0385" x="729.630672" y="260.782075" style="fill: #4c72b0"/>
    </g>
   </g>
   <g id="PathCollection_6">
    <defs>
     <path id="C5_0_d28fed79a6" d="M 0 2.5 
C 0.663008 2.5 1.29895 2.236584 1.767767 1.767767 
C 2.236584 1.29895 2.5 0.663008 2.5 -0 
C 2.5 -0.663008 2.236584 -1.29895 1.767767 -1.767767 
C 1.29895 -2.236584 0.663008 -2.5 0 -2.5 
C -0.663008 -2.5 -1.29895 -2.236584 -1.767767 -1.767767 
C -2.236584 -1.29895 -2.5 -0.663008 -2.5 0 
C -2.5 0.663008 -2.236584 1.29895 -1.767767 1.767767 
C -1.29895 2.236584 -0.663008 2.5 0 2.5 
z
"/>
    </defs>
    <g clip-path="url(#p68d124112b)">
     <use xlink:href="#C5_0_d28fed79a6" x="849.758824" y="165.480989" style="fill: #4c72b0"/>
    </g>
    <g clip-path="url(#p68d124112b)">
     <use xlink:href="#C5_0_d28fed79a6" x="849.758824" y="195.370778" style="fill: #4c72b0"/>
    </g>
    <g clip-path="url(#p68d124112b)">
     <use xlink:href="#C5_0_d28fed79a6" x="849.758824" y="204.081364" style="fill: #dd8452"/>
    </g>
    <g clip-path="url(#p68d124112b)">
     <use xlink:href="#C5_0_d28fed79a6" x="844.827986" y="202.364609" style="fill: #4c72b0"/>
    </g>
    <g clip-path="url(#p68d124112b)">
     <use xlink:href="#C5_0_d28fed79a6" x="849.758824" y="268.942935" style="fill: #55a868"/>
    </g>
    <g clip-path="url(#p68d124112b)">
     <use xlink:href="#C5_0_d28fed79a6" x="848.762346" y="333.670891" style="fill: #dd8452"/>
    </g>
    <g clip-path="url(#p68d124112b)">
     <use xlink:href="#C5_0_d28fed79a6" x="849.758824" y="215.880302" style="fill: #4c72b0"/>
    </g>
    <g clip-path="url(#p68d124112b)">
     <use xlink:href="#C5_0_d28fed79a6" x="849.758824" y="338.58" style="fill: #dd8452"/>
    </g>
    <g clip-path="url(#p68d124112b)">
     <use xlink:href="#C5_0_d28fed79a6" x="849.758824" y="318.508942" style="fill: #dd8452"/>
    </g>
    <g clip-path="url(#p68d124112b)">
     <use xlink:href="#C5_0_d28fed79a6" x="854.566386" y="316.499927" style="fill: #dd8452"/>
    </g>
    <g clip-path="url(#p68d124112b)">
     <use xlink:href="#C5_0_d28fed79a6" x="854.551771" y="266.902492" style="fill: #4c72b0"/>
    </g>
    <g clip-path="url(#p68d124112b)">
     <use xlink:href="#C5_0_d28fed79a6" x="844.636749" y="267.845896" style="fill: #dd8452"/>
    </g>
    <g clip-path="url(#p68d124112b)">
     <use xlink:href="#C5_0_d28fed79a6" x="844.755466" y="316.994412" style="fill: #dd8452"/>
    </g>
   </g>
   <g id="line2d_32"/>
   <g id="line2d_33"/>
   <g id="line2d_34"/>
   <g id="legend_3">
    <g id="patch_13">
     <path d="M 792.948438 99.554375 
L 900.2 99.554375 
Q 902.2 99.554375 902.2 97.554375 
L 902.2 54.52 
Q 902.2 52.52 900.2 52.52 
L 792.948438 52.52 
Q 790.948438 52.52 790.948438 54.52 
L 790.948438 97.554375 
Q 790.948438 99.554375 792.948438 99.554375 
z
" style="fill: #ffffff; opacity: 0.8; stroke: #cccccc; stroke-linejoin: miter"/>
    </g>
    <g id="line2d_35">
     <g>
      <use xlink:href="#m06d322e9ac" x="804.948438" y="60.618437" style="fill: #4c72b0"/>
     </g>
    </g>
    <g id="text_38">
     <!-- Ridge -->
     <g transform="translate(822.948438 64.118437) scale(0.1 -0.1)">
      <use xlink:href="#DejaVuSans-52"/>
      <use xlink:href="#DejaVuSans-69" x="69.482422"/>
      <use xlink:href="#DejaVuSans-64" x="97.265625"/>
      <use xlink:href="#DejaVuSans-67" x="160.742188"/>
      <use xlink:href="#DejaVuSans-65" x="224.21875"/>
     </g>
    </g>
    <g id="line2d_36">
     <g>
      <use xlink:href="#m093976691a" x="804.948438" y="75.296562" style="fill: #dd8452"/>
     </g>
    </g>
    <g id="text_39">
     <!-- Random Forest -->
     <g transform="translate(822.948438 78.796562) scale(0.1 -0.1)">
      <use xlink:href="#DejaVuSans-52"/>
      <use xlink:href="#DejaVuSans-61" x="67.232422"/>
      <use xlink:href="#DejaVuSans-6e" x="128.511719"/>
      <use xlink:href="#DejaVuSans-64" x="191.890625"/>
      <use xlink:href="#DejaVuSans-6f" x="255.367188"/>
      <use xlink:href="#DejaVuSans-6d" x="316.548828"/>
      <use xlink:href="#DejaVuSans-20" x="413.960938"/>
      <use xlink:href="#DejaVuSans-46" x="445.748047"/>
      <use xlink:href="#DejaVuSans-6f" x="499.642578"/>
      <use xlink:href="#DejaVuSans-72" x="560.824219"/>
      <use xlink:href="#DejaVuSans-65" x="599.6875"/>
      <use xlink:href="#DejaVuSans-73" x="661.210938"/>
      <use xlink:href="#DejaVuSans-74" x="713.310547"/>
     </g>
    </g>
    <g id="line2d_37">
     <g>
      <use xlink:href="#m0b90892a85" x="804.948438" y="89.974687" style="fill: #55a868"/>
     </g>
    </g>
    <g id="text_40">
     <!-- Lasso -->
     <g transform="translate(822.948438 93.474687) scale(0.1 -0.1)">
      <use xlink:href="#DejaVuSans-4c"/>
      <use xlink:href="#DejaVuSans-61" x="55.712891"/>
      <use xlink:href="#DejaVuSans-73" x="116.992188"/>
      <use xlink:href="#DejaVuSans-73" x="169.091797"/>
      <use xlink:href="#DejaVuSans-6f" x="221.191406"/>
     </g>
    </g>
   </g>
  </g>
 </g>
 <defs>
  <clipPath id="pe90c28e5f2">
   <rect x="126" y="47.52" width="229.764706" height="304.92"/>
  </clipPath>
  <clipPath id="p8f50072880">
   <rect x="401.717647" y="47.52" width="229.764706" height="304.92"/>
  </clipPath>
  <clipPath id="p68d124112b">
   <rect x="677.435294" y="47.52" width="229.764706" height="304.92"/>
  </clipPath>
 </defs>
</svg>
