<?xml version="1.0" encoding="utf-8" standalone="no"?>
<!DOCTYPE svg PUBLIC "-//W3C//DTD SVG 1.1//EN"
  "http://www.w3.org/Graphics/SVG/1.1/DTD/svg11.dtd">
<svg xmlns:xlink="http://www.w3.org/1999/xlink" width="1152pt" height="360pt" viewBox="0 0 1152 360" xmlns="http://www.w3.org/2000/svg" version="1.1">
 <metadata>
  <rdf:RDF xmlns:dc="http://purl.org/dc/elements/1.1/" xmlns:cc="http://creativecommons.org/ns#" xmlns:rdf="http://www.w3.org/1999/02/22-rdf-syntax-ns#">
   <cc:Work>
    <dc:type rdf:resource="http://purl.org/dc/dcmitype/StillImage"/>
    <dc:date>2024-10-20T03:33:01.826280</dc:date>
    <dc:format>image/svg+xml</dc:format>
    <dc:creator>
     <cc:Agent>
      <dc:title>Matplotlib v3.8.4, https://matplotlib.org/</dc:title>
     </cc:Agent>
    </dc:creator>
   </cc:Work>
  </rdf:RDF>
 </metadata>
 <defs>
  <style type="text/css">*{stroke-linejoin: round; stroke-linecap: butt}</style>
 </defs>
 <g id="figure_1">
  <g id="patch_1">
   <path d="M 0 360 
L 1152 360 
L 1152 0 
L 0 0 
z
" style="fill: #ffffff"/>
  </g>
  <g id="axes_1">
   <g id="patch_2">
    <path d="M 144 320.4 
L 1036.8 320.4 
L 1036.8 43.2 
L 144 43.2 
z
" style="fill: #ffffff"/>
   </g>
   <g id="matplotlib.axis_1">
    <g id="xtick_1">
     <g id="text_1">
      <!-- Elasticnet -->
      <g style="fill: #262626" transform="translate(169.3275 339.018125) scale(0.12 -0.12)">
       <defs>
        <path id="DejaVuSerif-45" d="M 353 0 
L 353 331 
L 947 331 
L 947 4331 
L 353 4331 
L 353 4666 
L 4109 4666 
L 4109 3628 
L 3725 3628 
L 3725 4281 
L 1581 4281 
L 1581 2719 
L 3109 2719 
L 3109 3303 
L 3494 3303 
L 3494 1753 
L 3109 1753 
L 3109 2338 
L 1581 2338 
L 1581 384 
L 3775 384 
L 3775 1038 
L 4159 1038 
L 4159 0 
L 353 0 
z
" transform="scale(0.015625)"/>
        <path id="DejaVuSerif-6c" d="M 1313 331 
L 1856 331 
L 1856 0 
L 184 0 
L 184 331 
L 738 331 
L 738 4531 
L 184 4531 
L 184 4863 
L 1313 4863 
L 1313 331 
z
" transform="scale(0.015625)"/>
        <path id="DejaVuSerif-61" d="M 2547 1044 
L 2547 1747 
L 1806 1747 
Q 1378 1747 1168 1562 
Q 959 1378 959 997 
Q 959 650 1171 447 
Q 1384 244 1747 244 
Q 2106 244 2326 466 
Q 2547 688 2547 1044 
z
M 3122 2075 
L 3122 331 
L 3634 331 
L 3634 0 
L 2547 0 
L 2547 359 
Q 2356 128 2106 18 
Q 1856 -91 1522 -91 
Q 969 -91 644 203 
Q 319 497 319 997 
Q 319 1513 691 1797 
Q 1063 2081 1741 2081 
L 2547 2081 
L 2547 2309 
Q 2547 2688 2317 2895 
Q 2088 3103 1672 3103 
Q 1328 3103 1125 2947 
Q 922 2791 872 2484 
L 575 2484 
L 575 3156 
Q 875 3284 1158 3348 
Q 1441 3413 1709 3413 
Q 2400 3413 2761 3070 
Q 3122 2728 3122 2075 
z
" transform="scale(0.015625)"/>
        <path id="DejaVuSerif-73" d="M 359 184 
L 359 959 
L 691 959 
Q 703 588 923 403 
Q 1144 219 1575 219 
Q 1963 219 2166 364 
Q 2369 509 2369 788 
Q 2369 1006 2220 1140 
Q 2072 1275 1594 1428 
L 1178 1569 
Q 750 1706 558 1912 
Q 366 2119 366 2438 
Q 366 2894 700 3153 
Q 1034 3413 1625 3413 
Q 1888 3413 2178 3344 
Q 2469 3275 2778 3144 
L 2778 2419 
L 2447 2419 
Q 2434 2741 2221 2922 
Q 2009 3103 1644 3103 
Q 1281 3103 1095 2975 
Q 909 2847 909 2591 
Q 909 2381 1050 2254 
Q 1191 2128 1613 1997 
L 2069 1856 
Q 2541 1709 2748 1489 
Q 2956 1269 2956 922 
Q 2956 450 2595 179 
Q 2234 -91 1600 -91 
Q 1278 -91 972 -22 
Q 666 47 359 184 
z
" transform="scale(0.015625)"/>
        <path id="DejaVuSerif-74" d="M 691 2988 
L 184 2988 
L 184 3322 
L 691 3322 
L 691 4353 
L 1269 4353 
L 1269 3322 
L 2350 3322 
L 2350 2988 
L 1269 2988 
L 1269 878 
Q 1269 456 1350 337 
Q 1431 219 1650 219 
Q 1875 219 1978 351 
Q 2081 484 2088 781 
L 2522 781 
Q 2497 328 2275 118 
Q 2053 -91 1600 -91 
Q 1103 -91 897 129 
Q 691 350 691 878 
L 691 2988 
z
" transform="scale(0.015625)"/>
        <path id="DejaVuSerif-69" d="M 622 4353 
Q 622 4497 726 4603 
Q 831 4709 978 4709 
Q 1122 4709 1226 4603 
Q 1331 4497 1331 4353 
Q 1331 4206 1228 4103 
Q 1125 4000 978 4000 
Q 831 4000 726 4103 
Q 622 4206 622 4353 
z
M 1356 331 
L 1900 331 
L 1900 0 
L 231 0 
L 231 331 
L 781 331 
L 781 2988 
L 231 2988 
L 231 3322 
L 1356 3322 
L 1356 331 
z
" transform="scale(0.015625)"/>
        <path id="DejaVuSerif-63" d="M 3291 997 
Q 3169 466 2822 187 
Q 2475 -91 1925 -91 
Q 1200 -91 759 389 
Q 319 869 319 1663 
Q 319 2459 759 2936 
Q 1200 3413 1925 3413 
Q 2241 3413 2553 3339 
Q 2866 3266 3181 3116 
L 3181 2266 
L 2847 2266 
Q 2781 2703 2561 2903 
Q 2341 3103 1931 3103 
Q 1466 3103 1228 2742 
Q 991 2381 991 1663 
Q 991 944 1227 581 
Q 1463 219 1931 219 
Q 2303 219 2525 412 
Q 2747 606 2828 997 
L 3291 997 
z
" transform="scale(0.015625)"/>
        <path id="DejaVuSerif-6e" d="M 263 0 
L 263 331 
L 781 331 
L 781 2988 
L 231 2988 
L 231 3322 
L 1356 3322 
L 1356 2731 
Q 1516 3069 1770 3241 
Q 2025 3413 2363 3413 
Q 2913 3413 3172 3097 
Q 3431 2781 3431 2113 
L 3431 331 
L 3944 331 
L 3944 0 
L 2356 0 
L 2356 331 
L 2853 331 
L 2853 1931 
Q 2853 2541 2703 2767 
Q 2553 2994 2175 2994 
Q 1775 2994 1565 2701 
Q 1356 2409 1356 1850 
L 1356 331 
L 1856 331 
L 1856 0 
L 263 0 
z
" transform="scale(0.015625)"/>
        <path id="DejaVuSerif-65" d="M 3469 1600 
L 991 1600 
L 991 1575 
Q 991 903 1244 561 
Q 1497 219 1991 219 
Q 2369 219 2611 417 
Q 2853 616 2950 1006 
L 3413 1006 
Q 3275 459 2904 184 
Q 2534 -91 1931 -91 
Q 1203 -91 761 389 
Q 319 869 319 1663 
Q 319 2450 753 2931 
Q 1188 3413 1894 3413 
Q 2647 3413 3050 2948 
Q 3453 2484 3469 1600 
z
M 2791 1931 
Q 2772 2513 2545 2808 
Q 2319 3103 1894 3103 
Q 1497 3103 1269 2806 
Q 1041 2509 991 1931 
L 2791 1931 
z
" transform="scale(0.015625)"/>
       </defs>
       <use xlink:href="#DejaVuSerif-45"/>
       <use xlink:href="#DejaVuSerif-6c" x="72.998047"/>
       <use xlink:href="#DejaVuSerif-61" x="104.980469"/>
       <use xlink:href="#DejaVuSerif-73" x="164.599609"/>
       <use xlink:href="#DejaVuSerif-74" x="215.917969"/>
       <use xlink:href="#DejaVuSerif-69" x="256.103516"/>
       <use xlink:href="#DejaVuSerif-63" x="288.085938"/>
       <use xlink:href="#DejaVuSerif-6e" x="344.091797"/>
       <use xlink:href="#DejaVuSerif-65" x="408.496094"/>
       <use xlink:href="#DejaVuSerif-74" x="467.675781"/>
      </g>
      <!-- herb -->
      <g style="fill: #262626" transform="translate(185.675625 352.4555) scale(0.12 -0.12)">
       <defs>
        <path id="DejaVuSerif-68" d="M 263 0 
L 263 331 
L 781 331 
L 781 4531 
L 231 4531 
L 231 4863 
L 1356 4863 
L 1356 2731 
Q 1516 3069 1770 3241 
Q 2025 3413 2363 3413 
Q 2913 3413 3172 3097 
Q 3431 2781 3431 2113 
L 3431 331 
L 3944 331 
L 3944 0 
L 2356 0 
L 2356 331 
L 2853 331 
L 2853 1931 
Q 2853 2541 2704 2764 
Q 2556 2988 2175 2988 
Q 1775 2988 1565 2697 
Q 1356 2406 1356 1850 
L 1356 331 
L 1856 331 
L 1856 0 
L 263 0 
z
" transform="scale(0.015625)"/>
        <path id="DejaVuSerif-72" d="M 3059 3328 
L 3059 2497 
L 2728 2497 
Q 2713 2744 2591 2866 
Q 2469 2988 2234 2988 
Q 1809 2988 1582 2694 
Q 1356 2400 1356 1850 
L 1356 331 
L 2022 331 
L 2022 0 
L 263 0 
L 263 331 
L 781 331 
L 781 2994 
L 231 2994 
L 231 3322 
L 1356 3322 
L 1356 2731 
Q 1525 3078 1790 3245 
Q 2056 3413 2438 3413 
Q 2578 3413 2733 3391 
Q 2888 3369 3059 3328 
z
" transform="scale(0.015625)"/>
        <path id="DejaVuSerif-62" d="M 738 331 
L 738 4531 
L 184 4531 
L 184 4863 
L 1313 4863 
L 1313 2803 
Q 1481 3116 1742 3264 
Q 2003 3413 2388 3413 
Q 3000 3413 3387 2928 
Q 3775 2444 3775 1663 
Q 3775 881 3387 395 
Q 3000 -91 2388 -91 
Q 2003 -91 1742 57 
Q 1481 206 1313 519 
L 1313 0 
L 184 0 
L 184 331 
L 738 331 
z
M 1313 1497 
Q 1313 897 1542 583 
Q 1772 269 2209 269 
Q 2650 269 2876 622 
Q 3103 975 3103 1663 
Q 3103 2353 2876 2703 
Q 2650 3053 2209 3053 
Q 1772 3053 1542 2737 
Q 1313 2422 1313 1825 
L 1313 1497 
z
" transform="scale(0.015625)"/>
       </defs>
       <use xlink:href="#DejaVuSerif-68"/>
       <use xlink:href="#DejaVuSerif-65" x="64.404297"/>
       <use xlink:href="#DejaVuSerif-72" x="123.583984"/>
       <use xlink:href="#DejaVuSerif-62" x="171.386719"/>
      </g>
     </g>
    </g>
    <g id="xtick_2">
     <g id="text_2">
      <!-- Random Forest -->
      <g style="fill: #262626" transform="translate(264.900937 339.018125) scale(0.12 -0.12)">
       <defs>
        <path id="DejaVuSerif-52" d="M 3066 2316 
Q 3284 2256 3442 2114 
Q 3600 1972 3725 1716 
L 4403 331 
L 4972 331 
L 4972 0 
L 3872 0 
L 3144 1484 
Q 2934 1916 2759 2042 
Q 2584 2169 2278 2169 
L 1581 2169 
L 1581 331 
L 2241 331 
L 2241 0 
L 353 0 
L 353 331 
L 947 331 
L 947 4331 
L 353 4331 
L 353 4666 
L 2719 4666 
Q 3400 4666 3770 4341 
Q 4141 4016 4141 3419 
Q 4141 2938 3870 2661 
Q 3600 2384 3066 2316 
z
M 1581 2503 
L 2503 2503 
Q 2975 2503 3200 2726 
Q 3425 2950 3425 3419 
Q 3425 3888 3200 4109 
Q 2975 4331 2503 4331 
L 1581 4331 
L 1581 2503 
z
" transform="scale(0.015625)"/>
        <path id="DejaVuSerif-64" d="M 3359 331 
L 3909 331 
L 3909 0 
L 2784 0 
L 2784 519 
Q 2616 206 2355 57 
Q 2094 -91 1709 -91 
Q 1097 -91 708 395 
Q 319 881 319 1663 
Q 319 2444 706 2928 
Q 1094 3413 1709 3413 
Q 2094 3413 2355 3264 
Q 2616 3116 2784 2803 
L 2784 4531 
L 2241 4531 
L 2241 4863 
L 3359 4863 
L 3359 331 
z
M 2784 1497 
L 2784 1825 
Q 2784 2422 2554 2737 
Q 2325 3053 1888 3053 
Q 1444 3053 1217 2703 
Q 991 2353 991 1663 
Q 991 975 1217 622 
Q 1444 269 1888 269 
Q 2325 269 2554 583 
Q 2784 897 2784 1497 
z
" transform="scale(0.015625)"/>
        <path id="DejaVuSerif-6f" d="M 1925 219 
Q 2388 219 2623 584 
Q 2859 950 2859 1663 
Q 2859 2375 2623 2739 
Q 2388 3103 1925 3103 
Q 1463 3103 1227 2739 
Q 991 2375 991 1663 
Q 991 950 1228 584 
Q 1466 219 1925 219 
z
M 1925 -91 
Q 1200 -91 759 389 
Q 319 869 319 1663 
Q 319 2456 758 2934 
Q 1197 3413 1925 3413 
Q 2653 3413 3092 2934 
Q 3531 2456 3531 1663 
Q 3531 869 3092 389 
Q 2653 -91 1925 -91 
z
" transform="scale(0.015625)"/>
        <path id="DejaVuSerif-6d" d="M 3316 2675 
Q 3481 3041 3739 3227 
Q 3997 3413 4341 3413 
Q 4863 3413 5119 3089 
Q 5375 2766 5375 2113 
L 5375 331 
L 5894 331 
L 5894 0 
L 4300 0 
L 4300 331 
L 4800 331 
L 4800 2047 
Q 4800 2556 4650 2772 
Q 4500 2988 4153 2988 
Q 3769 2988 3567 2697 
Q 3366 2406 3366 1850 
L 3366 331 
L 3866 331 
L 3866 0 
L 2291 0 
L 2291 331 
L 2791 331 
L 2791 2069 
Q 2791 2566 2641 2777 
Q 2491 2988 2144 2988 
Q 1759 2988 1557 2697 
Q 1356 2406 1356 1850 
L 1356 331 
L 1856 331 
L 1856 0 
L 263 0 
L 263 331 
L 781 331 
L 781 2994 
L 231 2994 
L 231 3322 
L 1356 3322 
L 1356 2731 
Q 1516 3063 1762 3238 
Q 2009 3413 2322 3413 
Q 2709 3413 2968 3220 
Q 3228 3028 3316 2675 
z
" transform="scale(0.015625)"/>
        <path id="DejaVuSerif-20" transform="scale(0.015625)"/>
        <path id="DejaVuSerif-46" d="M 353 0 
L 353 331 
L 947 331 
L 947 4331 
L 353 4331 
L 353 4666 
L 4172 4666 
L 4172 3628 
L 3788 3628 
L 3788 4281 
L 1581 4281 
L 1581 2719 
L 3175 2719 
L 3175 3303 
L 3559 3303 
L 3559 1753 
L 3175 1753 
L 3175 2338 
L 1581 2338 
L 1581 331 
L 2328 331 
L 2328 0 
L 353 0 
z
" transform="scale(0.015625)"/>
       </defs>
       <use xlink:href="#DejaVuSerif-52"/>
       <use xlink:href="#DejaVuSerif-61" x="77.542969"/>
       <use xlink:href="#DejaVuSerif-6e" x="137.162109"/>
       <use xlink:href="#DejaVuSerif-64" x="201.566406"/>
       <use xlink:href="#DejaVuSerif-6f" x="265.580078"/>
       <use xlink:href="#DejaVuSerif-6d" x="325.785156"/>
       <use xlink:href="#DejaVuSerif-20" x="420.609375"/>
       <use xlink:href="#DejaVuSerif-46" x="452.396484"/>
       <use xlink:href="#DejaVuSerif-6f" x="516.28125"/>
       <use xlink:href="#DejaVuSerif-72" x="576.486328"/>
       <use xlink:href="#DejaVuSerif-65" x="624.289062"/>
       <use xlink:href="#DejaVuSerif-73" x="683.46875"/>
       <use xlink:href="#DejaVuSerif-74" x="734.787109"/>
      </g>
      <!-- herb -->
      <g style="fill: #262626" transform="translate(297.275625 352.4555) scale(0.12 -0.12)">
       <use xlink:href="#DejaVuSerif-68"/>
       <use xlink:href="#DejaVuSerif-65" x="64.404297"/>
       <use xlink:href="#DejaVuSerif-72" x="123.583984"/>
       <use xlink:href="#DejaVuSerif-62" x="171.386719"/>
      </g>
     </g>
    </g>
    <g id="xtick_3">
     <g id="text_3">
      <!-- Elasticnet -->
      <g style="fill: #262626" transform="translate(392.5275 339.018125) scale(0.12 -0.12)">
       <use xlink:href="#DejaVuSerif-45"/>
       <use xlink:href="#DejaVuSerif-6c" x="72.998047"/>
       <use xlink:href="#DejaVuSerif-61" x="104.980469"/>
       <use xlink:href="#DejaVuSerif-73" x="164.599609"/>
       <use xlink:href="#DejaVuSerif-74" x="215.917969"/>
       <use xlink:href="#DejaVuSerif-69" x="256.103516"/>
       <use xlink:href="#DejaVuSerif-63" x="288.085938"/>
       <use xlink:href="#DejaVuSerif-6e" x="344.091797"/>
       <use xlink:href="#DejaVuSerif-65" x="408.496094"/>
       <use xlink:href="#DejaVuSerif-74" x="467.675781"/>
      </g>
      <!-- moly -->
      <g style="fill: #262626" transform="translate(408.389063 352.4555) scale(0.12 -0.12)">
       <defs>
        <path id="DejaVuSerif-79" d="M 1381 -609 
L 1600 -56 
L 359 2988 
L -19 2988 
L -19 3322 
L 1509 3322 
L 1509 2988 
L 978 2988 
L 1913 703 
L 2847 2988 
L 2350 2988 
L 2350 3322 
L 3597 3322 
L 3597 2988 
L 3225 2988 
L 1703 -750 
Q 1547 -1138 1356 -1280 
Q 1166 -1422 819 -1422 
Q 672 -1422 517 -1397 
Q 363 -1372 206 -1325 
L 206 -691 
L 500 -691 
Q 519 -903 608 -995 
Q 697 -1088 884 -1088 
Q 1056 -1088 1161 -992 
Q 1266 -897 1381 -609 
z
" transform="scale(0.015625)"/>
       </defs>
       <use xlink:href="#DejaVuSerif-6d"/>
       <use xlink:href="#DejaVuSerif-6f" x="94.824219"/>
       <use xlink:href="#DejaVuSerif-6c" x="155.029297"/>
       <use xlink:href="#DejaVuSerif-79" x="187.011719"/>
      </g>
     </g>
    </g>
    <g id="xtick_4">
     <g id="text_4">
      <!-- Random Forest -->
      <g style="fill: #262626" transform="translate(488.100937 339.018125) scale(0.12 -0.12)">
       <use xlink:href="#DejaVuSerif-52"/>
       <use xlink:href="#DejaVuSerif-61" x="77.542969"/>
       <use xlink:href="#DejaVuSerif-6e" x="137.162109"/>
       <use xlink:href="#DejaVuSerif-64" x="201.566406"/>
       <use xlink:href="#DejaVuSerif-6f" x="265.580078"/>
       <use xlink:href="#DejaVuSerif-6d" x="325.785156"/>
       <use xlink:href="#DejaVuSerif-20" x="420.609375"/>
       <use xlink:href="#DejaVuSerif-46" x="452.396484"/>
       <use xlink:href="#DejaVuSerif-6f" x="516.28125"/>
       <use xlink:href="#DejaVuSerif-72" x="576.486328"/>
       <use xlink:href="#DejaVuSerif-65" x="624.289062"/>
       <use xlink:href="#DejaVuSerif-73" x="683.46875"/>
       <use xlink:href="#DejaVuSerif-74" x="734.787109"/>
      </g>
      <!-- moly -->
      <g style="fill: #262626" transform="translate(519.989062 352.4555) scale(0.12 -0.12)">
       <use xlink:href="#DejaVuSerif-6d"/>
       <use xlink:href="#DejaVuSerif-6f" x="94.824219"/>
       <use xlink:href="#DejaVuSerif-6c" x="155.029297"/>
       <use xlink:href="#DejaVuSerif-79" x="187.011719"/>
      </g>
     </g>
    </g>
    <g id="xtick_5">
     <g id="text_5">
      <!-- Ridge -->
      <g style="fill: #262626" transform="translate(628.53 339.018125) scale(0.12 -0.12)">
       <defs>
        <path id="DejaVuSerif-67" d="M 3359 2988 
L 3359 72 
Q 3359 -644 2965 -1033 
Q 2572 -1422 1844 -1422 
Q 1516 -1422 1216 -1362 
Q 916 -1303 641 -1184 
L 641 -488 
L 941 -488 
Q 997 -813 1206 -963 
Q 1416 -1113 1806 -1113 
Q 2313 -1113 2548 -827 
Q 2784 -541 2784 72 
L 2784 519 
Q 2616 206 2355 57 
Q 2094 -91 1709 -91 
Q 1097 -91 708 395 
Q 319 881 319 1663 
Q 319 2444 706 2928 
Q 1094 3413 1709 3413 
Q 2094 3413 2355 3264 
Q 2616 3116 2784 2803 
L 2784 3322 
L 3909 3322 
L 3909 2988 
L 3359 2988 
z
M 2784 1825 
Q 2784 2422 2554 2737 
Q 2325 3053 1888 3053 
Q 1444 3053 1217 2703 
Q 991 2353 991 1663 
Q 991 975 1217 622 
Q 1444 269 1888 269 
Q 2325 269 2554 583 
Q 2784 897 2784 1497 
L 2784 1825 
z
" transform="scale(0.015625)"/>
       </defs>
       <use xlink:href="#DejaVuSerif-52"/>
       <use xlink:href="#DejaVuSerif-69" x="75.292969"/>
       <use xlink:href="#DejaVuSerif-64" x="107.275391"/>
       <use xlink:href="#DejaVuSerif-67" x="171.289062"/>
       <use xlink:href="#DejaVuSerif-65" x="235.302734"/>
      </g>
      <!-- Regression -->
      <g style="fill: #262626" transform="translate(612.317813 352.626125) scale(0.12 -0.12)">
       <use xlink:href="#DejaVuSerif-52"/>
       <use xlink:href="#DejaVuSerif-65" x="75.292969"/>
       <use xlink:href="#DejaVuSerif-67" x="134.472656"/>
       <use xlink:href="#DejaVuSerif-72" x="198.486328"/>
       <use xlink:href="#DejaVuSerif-65" x="246.289062"/>
       <use xlink:href="#DejaVuSerif-73" x="305.46875"/>
       <use xlink:href="#DejaVuSerif-73" x="356.787109"/>
       <use xlink:href="#DejaVuSerif-69" x="408.105469"/>
       <use xlink:href="#DejaVuSerif-6f" x="440.087891"/>
       <use xlink:href="#DejaVuSerif-6e" x="500.292969"/>
      </g>
      <!-- ft -->
      <g style="fill: #262626" transform="translate(641.567813 366.234125) scale(0.12 -0.12)">
       <defs>
        <path id="DejaVuSerif-66" d="M 2753 4078 
L 2450 4078 
Q 2447 4313 2317 4434 
Q 2188 4556 1941 4556 
Q 1619 4556 1487 4379 
Q 1356 4203 1356 3750 
L 1356 3322 
L 2284 3322 
L 2284 2988 
L 1356 2988 
L 1356 331 
L 2094 331 
L 2094 0 
L 231 0 
L 231 331 
L 781 331 
L 781 2988 
L 231 2988 
L 231 3322 
L 781 3322 
L 781 3738 
Q 781 4294 1070 4578 
Q 1359 4863 1919 4863 
Q 2128 4863 2337 4825 
Q 2547 4788 2753 4709 
L 2753 4078 
z
" transform="scale(0.015625)"/>
       </defs>
       <use xlink:href="#DejaVuSerif-66"/>
       <use xlink:href="#DejaVuSerif-74" x="37.011719"/>
      </g>
     </g>
    </g>
    <g id="xtick_6">
     <g id="text_6">
      <!-- Random Forest -->
      <g style="fill: #262626" transform="translate(711.300937 339.018125) scale(0.12 -0.12)">
       <use xlink:href="#DejaVuSerif-52"/>
       <use xlink:href="#DejaVuSerif-61" x="77.542969"/>
       <use xlink:href="#DejaVuSerif-6e" x="137.162109"/>
       <use xlink:href="#DejaVuSerif-64" x="201.566406"/>
       <use xlink:href="#DejaVuSerif-6f" x="265.580078"/>
       <use xlink:href="#DejaVuSerif-6d" x="325.785156"/>
       <use xlink:href="#DejaVuSerif-20" x="420.609375"/>
       <use xlink:href="#DejaVuSerif-46" x="452.396484"/>
       <use xlink:href="#DejaVuSerif-6f" x="516.28125"/>
       <use xlink:href="#DejaVuSerif-72" x="576.486328"/>
       <use xlink:href="#DejaVuSerif-65" x="624.289062"/>
       <use xlink:href="#DejaVuSerif-73" x="683.46875"/>
       <use xlink:href="#DejaVuSerif-74" x="734.787109"/>
      </g>
      <!-- ft -->
      <g style="fill: #262626" transform="translate(753.167812 352.4555) scale(0.12 -0.12)">
       <use xlink:href="#DejaVuSerif-66"/>
       <use xlink:href="#DejaVuSerif-74" x="37.011719"/>
      </g>
     </g>
    </g>
    <g id="xtick_7">
     <g id="text_7">
      <!-- Ridge -->
      <g style="fill: #262626" transform="translate(851.73 339.018125) scale(0.12 -0.12)">
       <use xlink:href="#DejaVuSerif-52"/>
       <use xlink:href="#DejaVuSerif-69" x="75.292969"/>
       <use xlink:href="#DejaVuSerif-64" x="107.275391"/>
       <use xlink:href="#DejaVuSerif-67" x="171.289062"/>
       <use xlink:href="#DejaVuSerif-65" x="235.302734"/>
      </g>
      <!-- Regression -->
      <g style="fill: #262626" transform="translate(835.517812 352.626125) scale(0.12 -0.12)">
       <use xlink:href="#DejaVuSerif-52"/>
       <use xlink:href="#DejaVuSerif-65" x="75.292969"/>
       <use xlink:href="#DejaVuSerif-67" x="134.472656"/>
       <use xlink:href="#DejaVuSerif-72" x="198.486328"/>
       <use xlink:href="#DejaVuSerif-65" x="246.289062"/>
       <use xlink:href="#DejaVuSerif-73" x="305.46875"/>
       <use xlink:href="#DejaVuSerif-73" x="356.787109"/>
       <use xlink:href="#DejaVuSerif-69" x="408.105469"/>
       <use xlink:href="#DejaVuSerif-6f" x="440.087891"/>
       <use xlink:href="#DejaVuSerif-6e" x="500.292969"/>
      </g>
      <!-- seed -->
      <g style="fill: #262626" transform="translate(855.377812 366.234125) scale(0.12 -0.12)">
       <use xlink:href="#DejaVuSerif-73"/>
       <use xlink:href="#DejaVuSerif-65" x="51.318359"/>
       <use xlink:href="#DejaVuSerif-65" x="110.498047"/>
       <use xlink:href="#DejaVuSerif-64" x="169.677734"/>
      </g>
     </g>
    </g>
    <g id="xtick_8">
     <g id="text_8">
      <!-- Random Forest -->
      <g style="fill: #262626" transform="translate(934.500937 339.018125) scale(0.12 -0.12)">
       <use xlink:href="#DejaVuSerif-52"/>
       <use xlink:href="#DejaVuSerif-61" x="77.542969"/>
       <use xlink:href="#DejaVuSerif-6e" x="137.162109"/>
       <use xlink:href="#DejaVuSerif-64" x="201.566406"/>
       <use xlink:href="#DejaVuSerif-6f" x="265.580078"/>
       <use xlink:href="#DejaVuSerif-6d" x="325.785156"/>
       <use xlink:href="#DejaVuSerif-20" x="420.609375"/>
       <use xlink:href="#DejaVuSerif-46" x="452.396484"/>
       <use xlink:href="#DejaVuSerif-6f" x="516.28125"/>
       <use xlink:href="#DejaVuSerif-72" x="576.486328"/>
       <use xlink:href="#DejaVuSerif-65" x="624.289062"/>
       <use xlink:href="#DejaVuSerif-73" x="683.46875"/>
       <use xlink:href="#DejaVuSerif-74" x="734.787109"/>
      </g>
      <!-- seed -->
      <g style="fill: #262626" transform="translate(966.977813 352.4555) scale(0.12 -0.12)">
       <use xlink:href="#DejaVuSerif-73"/>
       <use xlink:href="#DejaVuSerif-65" x="51.318359"/>
       <use xlink:href="#DejaVuSerif-65" x="110.498047"/>
       <use xlink:href="#DejaVuSerif-64" x="169.677734"/>
      </g>
     </g>
    </g>
   </g>
   <g id="matplotlib.axis_2">
    <g id="ytick_1">
     <g id="line2d_1">
      <path d="M 144 320.4 
L 1036.8 320.4 
" clip-path="url(#pa00d1cefe4)" style="fill: none; stroke: #cccccc; stroke-linecap: round"/>
     </g>
     <g id="text_9">
      <!-- −0.2 -->
      <g style="fill: #262626" transform="translate(105.360625 324.959063) scale(0.12 -0.12)">
       <defs>
        <path id="DejaVuSerif-2212" d="M 678 2259 
L 4684 2259 
L 4684 1753 
L 678 1753 
L 678 2259 
z
" transform="scale(0.015625)"/>
        <path id="DejaVuSerif-30" d="M 2034 219 
Q 2513 219 2750 744 
Q 2988 1269 2988 2328 
Q 2988 3391 2750 3916 
Q 2513 4441 2034 4441 
Q 1556 4441 1318 3916 
Q 1081 3391 1081 2328 
Q 1081 1269 1318 744 
Q 1556 219 2034 219 
z
M 2034 -91 
Q 1275 -91 848 546 
Q 422 1184 422 2328 
Q 422 3475 848 4112 
Q 1275 4750 2034 4750 
Q 2797 4750 3222 4112 
Q 3647 3475 3647 2328 
Q 3647 1184 3222 546 
Q 2797 -91 2034 -91 
z
" transform="scale(0.015625)"/>
        <path id="DejaVuSerif-2e" d="M 603 325 
Q 603 500 722 622 
Q 841 744 1019 744 
Q 1191 744 1312 622 
Q 1434 500 1434 325 
Q 1434 153 1312 31 
Q 1191 -91 1019 -91 
Q 841 -91 722 29 
Q 603 150 603 325 
z
" transform="scale(0.015625)"/>
        <path id="DejaVuSerif-32" d="M 819 3553 
L 469 3553 
L 469 4384 
Q 803 4563 1142 4656 
Q 1481 4750 1806 4750 
Q 2534 4750 2956 4397 
Q 3378 4044 3378 3438 
Q 3378 2753 2422 1800 
Q 2347 1728 2309 1691 
L 1131 513 
L 3078 513 
L 3078 1088 
L 3444 1088 
L 3444 0 
L 434 0 
L 434 341 
L 1850 1753 
Q 2319 2222 2519 2614 
Q 2719 3006 2719 3438 
Q 2719 3909 2473 4175 
Q 2228 4441 1797 4441 
Q 1350 4441 1106 4219 
Q 863 3997 819 3553 
z
" transform="scale(0.015625)"/>
       </defs>
       <use xlink:href="#DejaVuSerif-2212"/>
       <use xlink:href="#DejaVuSerif-30" x="83.789062"/>
       <use xlink:href="#DejaVuSerif-2e" x="147.412109"/>
       <use xlink:href="#DejaVuSerif-32" x="179.199219"/>
      </g>
     </g>
    </g>
    <g id="ytick_2">
     <g id="line2d_2">
      <path d="M 144 274.2 
L 1036.8 274.2 
" clip-path="url(#pa00d1cefe4)" style="fill: none; stroke: #cccccc; stroke-linecap: round"/>
     </g>
     <g id="text_10">
      <!-- 0.0 -->
      <g style="fill: #262626" transform="translate(115.41625 278.759062) scale(0.12 -0.12)">
       <use xlink:href="#DejaVuSerif-30"/>
       <use xlink:href="#DejaVuSerif-2e" x="63.623047"/>
       <use xlink:href="#DejaVuSerif-30" x="95.410156"/>
      </g>
     </g>
    </g>
    <g id="ytick_3">
     <g id="line2d_3">
      <path d="M 144 228 
L 1036.8 228 
" clip-path="url(#pa00d1cefe4)" style="fill: none; stroke: #cccccc; stroke-linecap: round"/>
     </g>
     <g id="text_11">
      <!-- 0.2 -->
      <g style="fill: #262626" transform="translate(115.41625 232.559062) scale(0.12 -0.12)">
       <use xlink:href="#DejaVuSerif-30"/>
       <use xlink:href="#DejaVuSerif-2e" x="63.623047"/>
       <use xlink:href="#DejaVuSerif-32" x="95.410156"/>
      </g>
     </g>
    </g>
    <g id="ytick_4">
     <g id="line2d_4">
      <path d="M 144 181.8 
L 1036.8 181.8 
" clip-path="url(#pa00d1cefe4)" style="fill: none; stroke: #cccccc; stroke-linecap: round"/>
     </g>
     <g id="text_12">
      <!-- 0.4 -->
      <g style="fill: #262626" transform="translate(115.41625 186.359062) scale(0.12 -0.12)">
       <defs>
        <path id="DejaVuSerif-34" d="M 2234 1581 
L 2234 4063 
L 641 1581 
L 2234 1581 
z
M 3609 0 
L 1484 0 
L 1484 331 
L 2234 331 
L 2234 1247 
L 197 1247 
L 197 1588 
L 2241 4750 
L 2859 4750 
L 2859 1581 
L 3750 1581 
L 3750 1247 
L 2859 1247 
L 2859 331 
L 3609 331 
L 3609 0 
z
" transform="scale(0.015625)"/>
       </defs>
       <use xlink:href="#DejaVuSerif-30"/>
       <use xlink:href="#DejaVuSerif-2e" x="63.623047"/>
       <use xlink:href="#DejaVuSerif-34" x="95.410156"/>
      </g>
     </g>
    </g>
    <g id="ytick_5">
     <g id="line2d_5">
      <path d="M 144 135.6 
L 1036.8 135.6 
" clip-path="url(#pa00d1cefe4)" style="fill: none; stroke: #cccccc; stroke-linecap: round"/>
     </g>
     <g id="text_13">
      <!-- 0.6 -->
      <g style="fill: #262626" transform="translate(115.41625 140.159062) scale(0.12 -0.12)">
       <defs>
        <path id="DejaVuSerif-36" d="M 2094 219 
Q 2534 219 2771 542 
Q 3009 866 3009 1472 
Q 3009 2078 2771 2401 
Q 2534 2725 2094 2725 
Q 1647 2725 1412 2412 
Q 1178 2100 1178 1509 
Q 1178 888 1415 553 
Q 1653 219 2094 219 
z
M 1075 2569 
Q 1288 2803 1556 2918 
Q 1825 3034 2163 3034 
Q 2859 3034 3264 2615 
Q 3669 2197 3669 1472 
Q 3669 763 3233 336 
Q 2797 -91 2069 -91 
Q 1278 -91 853 498 
Q 428 1088 428 2181 
Q 428 3406 931 4078 
Q 1434 4750 2350 4750 
Q 2597 4750 2869 4703 
Q 3141 4656 3425 4563 
L 3425 3794 
L 3072 3794 
Q 3034 4109 2831 4275 
Q 2628 4441 2284 4441 
Q 1678 4441 1381 3981 
Q 1084 3522 1075 2569 
z
" transform="scale(0.015625)"/>
       </defs>
       <use xlink:href="#DejaVuSerif-30"/>
       <use xlink:href="#DejaVuSerif-2e" x="63.623047"/>
       <use xlink:href="#DejaVuSerif-36" x="95.410156"/>
      </g>
     </g>
    </g>
    <g id="ytick_6">
     <g id="line2d_6">
      <path d="M 144 89.4 
L 1036.8 89.4 
" clip-path="url(#pa00d1cefe4)" style="fill: none; stroke: #cccccc; stroke-linecap: round"/>
     </g>
     <g id="text_14">
      <!-- 0.8 -->
      <g style="fill: #262626" transform="translate(115.41625 93.959062) scale(0.12 -0.12)">
       <defs>
        <path id="DejaVuSerif-38" d="M 2981 1275 
Q 2981 1775 2732 2051 
Q 2484 2328 2034 2328 
Q 1584 2328 1336 2051 
Q 1088 1775 1088 1275 
Q 1088 772 1336 495 
Q 1584 219 2034 219 
Q 2484 219 2732 495 
Q 2981 772 2981 1275 
z
M 2853 3541 
Q 2853 3966 2637 4203 
Q 2422 4441 2034 4441 
Q 1650 4441 1433 4203 
Q 1216 3966 1216 3541 
Q 1216 3113 1433 2875 
Q 1650 2638 2034 2638 
Q 2422 2638 2637 2875 
Q 2853 3113 2853 3541 
z
M 2516 2484 
Q 3047 2413 3344 2092 
Q 3641 1772 3641 1275 
Q 3641 619 3225 264 
Q 2809 -91 2034 -91 
Q 1263 -91 845 264 
Q 428 619 428 1275 
Q 428 1772 725 2092 
Q 1022 2413 1556 2484 
Q 1084 2569 832 2842 
Q 581 3116 581 3541 
Q 581 4103 968 4426 
Q 1356 4750 2034 4750 
Q 2713 4750 3100 4426 
Q 3488 4103 3488 3541 
Q 3488 3116 3236 2842 
Q 2984 2569 2516 2484 
z
" transform="scale(0.015625)"/>
       </defs>
       <use xlink:href="#DejaVuSerif-30"/>
       <use xlink:href="#DejaVuSerif-2e" x="63.623047"/>
       <use xlink:href="#DejaVuSerif-38" x="95.410156"/>
      </g>
     </g>
    </g>
    <g id="ytick_7">
     <g id="line2d_7">
      <path d="M 144 43.2 
L 1036.8 43.2 
" clip-path="url(#pa00d1cefe4)" style="fill: none; stroke: #cccccc; stroke-linecap: round"/>
     </g>
     <g id="text_15">
      <!-- 1.0 -->
      <g style="fill: #262626" transform="translate(115.41625 47.759062) scale(0.12 -0.12)">
       <defs>
        <path id="DejaVuSerif-31" d="M 909 0 
L 909 331 
L 1722 331 
L 1722 4213 
L 781 3603 
L 781 4013 
L 1919 4750 
L 2350 4750 
L 2350 331 
L 3163 331 
L 3163 0 
L 909 0 
z
" transform="scale(0.015625)"/>
       </defs>
       <use xlink:href="#DejaVuSerif-31"/>
       <use xlink:href="#DejaVuSerif-2e" x="63.623047"/>
       <use xlink:href="#DejaVuSerif-30" x="95.410156"/>
      </g>
     </g>
    </g>
    <g id="text_16">
     <!-- $\text{r}^2$ -->
     <g style="fill: #262626" transform="translate(98.449062 188.1) rotate(-90) scale(0.14 -0.14)">
      <defs>
       <path id="DejaVuSans-72" d="M 2631 2963 
Q 2534 3019 2420 3045 
Q 2306 3072 2169 3072 
Q 1681 3072 1420 2755 
Q 1159 2438 1159 1844 
L 1159 0 
L 581 0 
L 581 3500 
L 1159 3500 
L 1159 2956 
Q 1341 3275 1631 3429 
Q 1922 3584 2338 3584 
Q 2397 3584 2469 3576 
Q 2541 3569 2628 3553 
L 2631 2963 
z
" transform="scale(0.015625)"/>
       <path id="DejaVuSans-32" d="M 1228 531 
L 3431 531 
L 3431 0 
L 469 0 
L 469 531 
Q 828 903 1448 1529 
Q 2069 2156 2228 2338 
Q 2531 2678 2651 2914 
Q 2772 3150 2772 3378 
Q 2772 3750 2511 3984 
Q 2250 4219 1831 4219 
Q 1534 4219 1204 4116 
Q 875 4013 500 3803 
L 500 4441 
Q 881 4594 1212 4672 
Q 1544 4750 1819 4750 
Q 2544 4750 2975 4387 
Q 3406 4025 3406 3419 
Q 3406 3131 3298 2873 
Q 3191 2616 2906 2266 
Q 2828 2175 2409 1742 
Q 1991 1309 1228 531 
z
" transform="scale(0.015625)"/>
      </defs>
      <use xlink:href="#DejaVuSans-72" transform="translate(0 0.765625)"/>
      <use xlink:href="#DejaVuSans-32" transform="translate(42.070312 39.046875) scale(0.7)"/>
     </g>
    </g>
   </g>
   <g id="PolyCollection_1">
    <defs>
     <path id="me5924b0aac" d="M 200.241856 -97.116597 
L 199.358144 -97.116597 
L 199.270303 -98.569423 
L 199.169173 -100.022248 
L 199.053638 -101.475073 
L 198.922661 -102.927899 
L 198.775319 -104.380724 
L 198.610841 -105.833549 
L 198.428645 -107.286375 
L 198.228373 -108.7392 
L 198.00992 -110.192025 
L 197.773459 -111.64485 
L 197.519463 -113.097676 
L 197.248707 -114.550501 
L 196.962274 -116.003326 
L 196.661538 -117.456152 
L 196.34815 -118.908977 
L 196.023999 -120.361802 
L 195.69118 -121.814628 
L 195.351937 -123.267453 
L 195.008618 -124.720278 
L 194.663612 -126.173104 
L 194.319296 -127.625929 
L 193.977976 -129.078754 
L 193.641837 -130.53158 
L 193.312898 -131.984405 
L 192.992975 -133.43723 
L 192.683652 -134.890055 
L 192.386266 -136.342881 
L 192.101893 -137.795706 
L 191.831357 -139.248531 
L 191.575231 -140.701357 
L 191.333853 -142.154182 
L 191.107348 -143.607007 
L 190.895641 -145.059833 
L 190.69848 -146.512658 
L 190.515455 -147.965483 
L 190.346009 -149.418309 
L 190.18945 -150.871134 
L 190.04496 -152.323959 
L 189.911597 -153.776784 
L 189.788302 -155.22961 
L 189.673899 -156.682435 
L 189.567105 -158.13526 
L 189.466541 -159.588086 
L 189.370748 -161.040911 
L 189.278217 -162.493736 
L 189.187425 -163.946562 
L 189.096879 -165.399387 
L 189.005177 -166.852212 
L 188.911066 -168.305038 
L 188.813515 -169.757863 
L 188.711783 -171.210688 
L 188.60549 -172.663513 
L 188.49468 -174.116339 
L 188.379876 -175.569164 
L 188.262116 -177.021989 
L 188.142978 -178.474815 
L 188.024577 -179.92764 
L 187.909549 -181.380465 
L 187.801001 -182.833291 
L 187.702446 -184.286116 
L 187.617715 -185.738941 
L 187.550845 -187.191767 
L 187.505963 -188.644592 
L 187.487149 -190.097417 
L 187.498299 -191.550243 
L 187.542991 -193.003068 
L 187.624351 -194.455893 
L 187.744935 -195.908718 
L 187.906628 -197.361544 
L 188.11056 -198.814369 
L 188.357049 -200.267194 
L 188.645569 -201.72002 
L 188.974749 -203.172845 
L 189.342394 -204.62567 
L 189.745538 -206.078496 
L 190.180515 -207.531321 
L 190.64306 -208.984146 
L 191.12842 -210.436972 
L 191.631481 -211.889797 
L 192.146901 -213.342622 
L 192.669248 -214.795447 
L 193.193137 -216.248273 
L 193.713355 -217.701098 
L 194.224978 -219.153923 
L 194.723476 -220.606749 
L 195.204794 -222.059574 
L 195.665421 -223.512399 
L 196.102433 -224.965225 
L 196.513514 -226.41805 
L 196.896967 -227.870875 
L 197.251694 -229.323701 
L 197.577167 -230.776526 
L 197.873385 -232.229351 
L 198.140816 -233.682176 
L 198.380338 -235.135002 
L 198.593169 -236.587827 
L 198.780798 -238.040652 
L 198.944916 -239.493478 
L 199.087352 -240.946303 
L 200.512648 -240.946303 
L 200.512648 -240.946303 
L 200.655084 -239.493478 
L 200.819202 -238.040652 
L 201.006831 -236.587827 
L 201.219662 -235.135002 
L 201.459184 -233.682176 
L 201.726615 -232.229351 
L 202.022833 -230.776526 
L 202.348306 -229.323701 
L 202.703033 -227.870875 
L 203.086486 -226.41805 
L 203.497567 -224.965225 
L 203.934579 -223.512399 
L 204.395206 -222.059574 
L 204.876524 -220.606749 
L 205.375022 -219.153923 
L 205.886645 -217.701098 
L 206.406863 -216.248273 
L 206.930752 -214.795447 
L 207.453099 -213.342622 
L 207.968519 -211.889797 
L 208.47158 -210.436972 
L 208.95694 -208.984146 
L 209.419485 -207.531321 
L 209.854462 -206.078496 
L 210.257606 -204.62567 
L 210.625251 -203.172845 
L 210.954431 -201.72002 
L 211.242951 -200.267194 
L 211.48944 -198.814369 
L 211.693372 -197.361544 
L 211.855065 -195.908718 
L 211.975649 -194.455893 
L 212.057009 -193.003068 
L 212.101701 -191.550243 
L 212.112851 -190.097417 
L 212.094037 -188.644592 
L 212.049155 -187.191767 
L 211.982285 -185.738941 
L 211.897554 -184.286116 
L 211.798999 -182.833291 
L 211.690451 -181.380465 
L 211.575423 -179.92764 
L 211.457022 -178.474815 
L 211.337884 -177.021989 
L 211.220124 -175.569164 
L 211.10532 -174.116339 
L 210.99451 -172.663513 
L 210.888217 -171.210688 
L 210.786485 -169.757863 
L 210.688934 -168.305038 
L 210.594823 -166.852212 
L 210.503121 -165.399387 
L 210.412575 -163.946562 
L 210.321783 -162.493736 
L 210.229252 -161.040911 
L 210.133459 -159.588086 
L 210.032895 -158.13526 
L 209.926101 -156.682435 
L 209.811698 -155.22961 
L 209.688403 -153.776784 
L 209.55504 -152.323959 
L 209.41055 -150.871134 
L 209.253991 -149.418309 
L 209.084545 -147.965483 
L 208.90152 -146.512658 
L 208.704359 -145.059833 
L 208.492652 -143.607007 
L 208.266147 -142.154182 
L 208.024769 -140.701357 
L 207.768643 -139.248531 
L 207.498107 -137.795706 
L 207.213734 -136.342881 
L 206.916348 -134.890055 
L 206.607025 -133.43723 
L 206.287102 -131.984405 
L 205.958163 -130.53158 
L 205.622024 -129.078754 
L 205.280704 -127.625929 
L 204.936388 -126.173104 
L 204.591382 -124.720278 
L 204.248063 -123.267453 
L 203.90882 -121.814628 
L 203.576001 -120.361802 
L 203.25185 -118.908977 
L 202.938462 -117.456152 
L 202.637726 -116.003326 
L 202.351293 -114.550501 
L 202.080537 -113.097676 
L 201.826541 -111.64485 
L 201.59008 -110.192025 
L 201.371627 -108.7392 
L 201.171355 -107.286375 
L 200.989159 -105.833549 
L 200.824681 -104.380724 
L 200.677339 -102.927899 
L 200.546362 -101.475073 
L 200.430827 -100.022248 
L 200.329697 -98.569423 
L 200.241856 -97.116597 
z
" style="stroke: #404040; stroke-width: 1.25"/>
    </defs>
    <g clip-path="url(#pa00d1cefe4)">
     <use xlink:href="#me5924b0aac" x="0" y="360" style="fill: #e6e6e6; stroke: #404040; stroke-width: 1.25"/>
    </g>
   </g>
   <g id="PolyCollection_2">
    <defs>
     <path id="med08850371" d="M 311.771834 -105.993707 
L 311.028166 -105.993707 
L 310.952239 -107.59151 
L 310.864243 -109.189313 
L 310.762983 -110.787117 
L 310.647281 -112.38492 
L 310.515998 -113.982723 
L 310.368064 -115.580527 
L 310.202507 -117.17833 
L 310.018482 -118.776133 
L 309.815299 -120.373937 
L 309.592456 -121.97174 
L 309.349663 -123.569544 
L 309.08687 -125.167347 
L 308.804288 -126.76515 
L 308.50241 -128.362954 
L 308.182028 -129.960757 
L 307.844244 -131.55856 
L 307.49048 -133.156364 
L 307.122478 -134.754167 
L 306.742302 -136.35197 
L 306.352328 -137.949774 
L 305.955226 -139.547577 
L 305.553942 -141.145381 
L 305.151665 -142.743184 
L 304.751784 -144.340987 
L 304.357843 -145.938791 
L 303.973476 -147.536594 
L 303.602342 -149.134397 
L 303.248043 -150.732201 
L 302.914037 -152.330004 
L 302.60355 -153.927807 
L 302.319474 -155.525611 
L 302.06428 -157.123414 
L 301.839919 -158.721217 
L 301.647746 -160.319021 
L 301.488445 -161.916824 
L 301.361985 -163.514628 
L 301.267579 -165.112431 
L 301.203687 -166.710234 
L 301.168034 -168.308038 
L 301.157656 -169.905841 
L 301.168985 -171.503644 
L 301.197947 -173.101448 
L 301.240094 -174.699251 
L 301.290753 -176.297054 
L 301.345187 -177.894858 
L 301.398767 -179.492661 
L 301.447141 -181.090465 
L 301.486405 -182.688268 
L 301.513251 -184.286071 
L 301.525098 -185.883875 
L 301.520206 -187.481678 
L 301.497744 -189.079481 
L 301.457837 -190.677285 
L 301.401572 -192.275088 
L 301.330967 -193.872891 
L 301.248909 -195.470695 
L 301.159057 -197.068498 
L 301.065717 -198.666301 
L 300.973695 -200.264105 
L 300.888133 -201.861908 
L 300.814334 -203.459712 
L 300.757582 -205.057515 
L 300.722967 -206.655318 
L 300.715217 -208.253122 
L 300.738544 -209.850925 
L 300.796513 -211.448728 
L 300.891934 -213.046532 
L 301.026774 -214.644335 
L 301.202109 -216.242138 
L 301.418099 -217.839942 
L 301.673992 -219.437745 
L 301.968159 -221.035549 
L 302.298152 -222.633352 
L 302.66079 -224.231155 
L 303.052257 -225.828959 
L 303.468222 -227.426762 
L 303.903963 -229.024565 
L 304.354503 -230.622369 
L 304.814745 -232.220172 
L 305.279599 -233.817975 
L 305.744109 -235.415779 
L 306.203562 -237.013582 
L 306.65359 -238.611386 
L 307.090248 -240.209189 
L 307.510079 -241.806992 
L 307.910157 -243.404796 
L 308.288116 -245.002599 
L 308.642152 -246.600402 
L 308.97102 -248.198206 
L 309.274002 -249.796009 
L 309.550877 -251.393812 
L 309.801869 -252.991616 
L 310.027595 -254.589419 
L 310.229 -256.187222 
L 310.407303 -257.785026 
L 310.563928 -259.382829 
L 310.700448 -260.980633 
L 310.818528 -262.578436 
L 310.919877 -264.176239 
L 311.880123 -264.176239 
L 311.880123 -264.176239 
L 311.981472 -262.578436 
L 312.099552 -260.980633 
L 312.236072 -259.382829 
L 312.392697 -257.785026 
L 312.571 -256.187222 
L 312.772405 -254.589419 
L 312.998131 -252.991616 
L 313.249123 -251.393812 
L 313.525998 -249.796009 
L 313.82898 -248.198206 
L 314.157848 -246.600402 
L 314.511884 -245.002599 
L 314.889843 -243.404796 
L 315.289921 -241.806992 
L 315.709752 -240.209189 
L 316.14641 -238.611386 
L 316.596438 -237.013582 
L 317.055891 -235.415779 
L 317.520401 -233.817975 
L 317.985255 -232.220172 
L 318.445497 -230.622369 
L 318.896037 -229.024565 
L 319.331778 -227.426762 
L 319.747743 -225.828959 
L 320.13921 -224.231155 
L 320.501848 -222.633352 
L 320.831841 -221.035549 
L 321.126008 -219.437745 
L 321.381901 -217.839942 
L 321.597891 -216.242138 
L 321.773226 -214.644335 
L 321.908066 -213.046532 
L 322.003487 -211.448728 
L 322.061456 -209.850925 
L 322.084783 -208.253122 
L 322.077033 -206.655318 
L 322.042418 -205.057515 
L 321.985666 -203.459712 
L 321.911867 -201.861908 
L 321.826305 -200.264105 
L 321.734283 -198.666301 
L 321.640943 -197.068498 
L 321.551091 -195.470695 
L 321.469033 -193.872891 
L 321.398428 -192.275088 
L 321.342163 -190.677285 
L 321.302256 -189.079481 
L 321.279794 -187.481678 
L 321.274902 -185.883875 
L 321.286749 -184.286071 
L 321.313595 -182.688268 
L 321.352859 -181.090465 
L 321.401233 -179.492661 
L 321.454813 -177.894858 
L 321.509247 -176.297054 
L 321.559906 -174.699251 
L 321.602053 -173.101448 
L 321.631015 -171.503644 
L 321.642344 -169.905841 
L 321.631966 -168.308038 
L 321.596313 -166.710234 
L 321.532421 -165.112431 
L 321.438015 -163.514628 
L 321.311555 -161.916824 
L 321.152254 -160.319021 
L 320.960081 -158.721217 
L 320.73572 -157.123414 
L 320.480526 -155.525611 
L 320.19645 -153.927807 
L 319.885963 -152.330004 
L 319.551957 -150.732201 
L 319.197658 -149.134397 
L 318.826524 -147.536594 
L 318.442157 -145.938791 
L 318.048216 -144.340987 
L 317.648335 -142.743184 
L 317.246058 -141.145381 
L 316.844774 -139.547577 
L 316.447672 -137.949774 
L 316.057698 -136.35197 
L 315.677522 -134.754167 
L 315.30952 -133.156364 
L 314.955756 -131.55856 
L 314.617972 -129.960757 
L 314.29759 -128.362954 
L 313.995712 -126.76515 
L 313.71313 -125.167347 
L 313.450337 -123.569544 
L 313.207544 -121.97174 
L 312.984701 -120.373937 
L 312.781518 -118.776133 
L 312.597493 -117.17833 
L 312.431936 -115.580527 
L 312.284002 -113.982723 
L 312.152719 -112.38492 
L 312.037017 -110.787117 
L 311.935757 -109.189313 
L 311.847761 -107.59151 
L 311.771834 -105.993707 
z
" style="stroke: #404040; stroke-width: 1.25"/>
    </defs>
    <g clip-path="url(#pa00d1cefe4)">
     <use xlink:href="#med08850371" x="0" y="360" style="fill: #e6e6e6; stroke: #404040; stroke-width: 1.25"/>
    </g>
   </g>
   <g id="PolyCollection_3">
    <defs>
     <path id="m10ec7c3f4c" d="M 423.612721 -90.925181 
L 422.387279 -90.925181 
L 422.255374 -92.006541 
L 422.100753 -93.087902 
L 421.920757 -94.169262 
L 421.712654 -95.250623 
L 421.473693 -96.331983 
L 421.201151 -97.413344 
L 420.892404 -98.494704 
L 420.544989 -99.576065 
L 420.156689 -100.657425 
L 419.725608 -101.738786 
L 419.250268 -102.820146 
L 418.72969 -103.901507 
L 418.163496 -104.982867 
L 417.551993 -106.064227 
L 416.896261 -107.145588 
L 416.198234 -108.226948 
L 415.460766 -109.308309 
L 414.68768 -110.389669 
L 413.883807 -111.47103 
L 413.054984 -112.55239 
L 412.208043 -113.633751 
L 411.35075 -114.715111 
L 410.491722 -115.796472 
L 409.640299 -116.877832 
L 408.806385 -117.959193 
L 408.000249 -119.040553 
L 407.232301 -120.121914 
L 406.512831 -121.203274 
L 405.851741 -122.284635 
L 405.258258 -123.365995 
L 404.74066 -124.447356 
L 404.305999 -125.528716 
L 403.959863 -126.610077 
L 403.706172 -127.691437 
L 403.547011 -128.772798 
L 403.482536 -129.854158 
L 403.510925 -130.935519 
L 403.628412 -132.016879 
L 403.829372 -133.09824 
L 404.106485 -134.1796 
L 404.450948 -135.260961 
L 404.852746 -136.342321 
L 405.300954 -137.423681 
L 405.784077 -138.505042 
L 406.290396 -139.586402 
L 406.808321 -140.667763 
L 407.326727 -141.749123 
L 407.835267 -142.830484 
L 408.324652 -143.911844 
L 408.786884 -144.993205 
L 409.21544 -146.074565 
L 409.605403 -147.155926 
L 409.95353 -148.237286 
L 410.25827 -149.318647 
L 410.519727 -150.400007 
L 410.739564 -151.481368 
L 410.920877 -152.562728 
L 411.068011 -153.644089 
L 411.186363 -154.725449 
L 411.282149 -155.80681 
L 411.362159 -156.88817 
L 411.433511 -157.969531 
L 411.503398 -159.050891 
L 411.578846 -160.132252 
L 411.6665 -161.213612 
L 411.772415 -162.294973 
L 411.901889 -163.376333 
L 412.059326 -164.457694 
L 412.248129 -165.539054 
L 412.470641 -166.620415 
L 412.728112 -167.701775 
L 413.020712 -168.783136 
L 413.347572 -169.864496 
L 413.706859 -170.945856 
L 414.095875 -172.027217 
L 414.511179 -173.108577 
L 414.948723 -174.189938 
L 415.403999 -175.271298 
L 415.872189 -176.352659 
L 416.34832 -177.434019 
L 416.827399 -178.51538 
L 417.304556 -179.59674 
L 417.775157 -180.678101 
L 418.234912 -181.759461 
L 418.679956 -182.840822 
L 419.106917 -183.922182 
L 419.512958 -185.003543 
L 419.895803 -186.084903 
L 420.253743 -187.166264 
L 420.585627 -188.247624 
L 420.890832 -189.328985 
L 421.169229 -190.410345 
L 421.421132 -191.491706 
L 421.647243 -192.573066 
L 421.84859 -193.654427 
L 422.026467 -194.735787 
L 422.18237 -195.817148 
L 422.317939 -196.898508 
L 422.434898 -197.979869 
L 423.565102 -197.979869 
L 423.565102 -197.979869 
L 423.682061 -196.898508 
L 423.81763 -195.817148 
L 423.973533 -194.735787 
L 424.15141 -193.654427 
L 424.352757 -192.573066 
L 424.578868 -191.491706 
L 424.830771 -190.410345 
L 425.109168 -189.328985 
L 425.414373 -188.247624 
L 425.746257 -187.166264 
L 426.104197 -186.084903 
L 426.487042 -185.003543 
L 426.893083 -183.922182 
L 427.320044 -182.840822 
L 427.765088 -181.759461 
L 428.224843 -180.678101 
L 428.695444 -179.59674 
L 429.172601 -178.51538 
L 429.65168 -177.434019 
L 430.127811 -176.352659 
L 430.596001 -175.271298 
L 431.051277 -174.189938 
L 431.488821 -173.108577 
L 431.904125 -172.027217 
L 432.293141 -170.945856 
L 432.652428 -169.864496 
L 432.979288 -168.783136 
L 433.271888 -167.701775 
L 433.529359 -166.620415 
L 433.751871 -165.539054 
L 433.940674 -164.457694 
L 434.098111 -163.376333 
L 434.227585 -162.294973 
L 434.3335 -161.213612 
L 434.421154 -160.132252 
L 434.496602 -159.050891 
L 434.566489 -157.969531 
L 434.637841 -156.88817 
L 434.717851 -155.80681 
L 434.813637 -154.725449 
L 434.931989 -153.644089 
L 435.079123 -152.562728 
L 435.260436 -151.481368 
L 435.480273 -150.400007 
L 435.74173 -149.318647 
L 436.04647 -148.237286 
L 436.394597 -147.155926 
L 436.78456 -146.074565 
L 437.213116 -144.993205 
L 437.675348 -143.911844 
L 438.164733 -142.830484 
L 438.673273 -141.749123 
L 439.191679 -140.667763 
L 439.709604 -139.586402 
L 440.215923 -138.505042 
L 440.699046 -137.423681 
L 441.147254 -136.342321 
L 441.549052 -135.260961 
L 441.893515 -134.1796 
L 442.170628 -133.09824 
L 442.371588 -132.016879 
L 442.489075 -130.935519 
L 442.517464 -129.854158 
L 442.452989 -128.772798 
L 442.293828 -127.691437 
L 442.040137 -126.610077 
L 441.694001 -125.528716 
L 441.25934 -124.447356 
L 440.741742 -123.365995 
L 440.148259 -122.284635 
L 439.487169 -121.203274 
L 438.767699 -120.121914 
L 437.999751 -119.040553 
L 437.193615 -117.959193 
L 436.359701 -116.877832 
L 435.508278 -115.796472 
L 434.64925 -114.715111 
L 433.791957 -113.633751 
L 432.945016 -112.55239 
L 432.116193 -111.47103 
L 431.31232 -110.389669 
L 430.539234 -109.308309 
L 429.801766 -108.226948 
L 429.103739 -107.145588 
L 428.448007 -106.064227 
L 427.836504 -104.982867 
L 427.27031 -103.901507 
L 426.749732 -102.820146 
L 426.274392 -101.738786 
L 425.843311 -100.657425 
L 425.455011 -99.576065 
L 425.107596 -98.494704 
L 424.798849 -97.413344 
L 424.526307 -96.331983 
L 424.287346 -95.250623 
L 424.079243 -94.169262 
L 423.899247 -93.087902 
L 423.744626 -92.006541 
L 423.612721 -90.925181 
z
" style="stroke: #404040; stroke-width: 1.25"/>
    </defs>
    <g clip-path="url(#pa00d1cefe4)">
     <use xlink:href="#m10ec7c3f4c" x="0" y="360" style="fill: #e6e6e6; stroke: #404040; stroke-width: 1.25"/>
    </g>
   </g>
   <g id="PolyCollection_4">
    <defs>
     <path id="mfe1836e3fb" d="M 534.977925 -93.339689 
L 534.222075 -93.339689 
L 534.146122 -94.738807 
L 534.05906 -96.137926 
L 533.960135 -97.537045 
L 533.848691 -98.936164 
L 533.724188 -100.335283 
L 533.586208 -101.734402 
L 533.434466 -103.133521 
L 533.268789 -104.53264 
L 533.089104 -105.931759 
L 532.895398 -107.330877 
L 532.687676 -108.729996 
L 532.465903 -110.129115 
L 532.229946 -111.528234 
L 531.979506 -112.927353 
L 531.714063 -114.326472 
L 531.432822 -115.725591 
L 531.134684 -117.12471 
L 530.818236 -118.523829 
L 530.481771 -119.922947 
L 530.123343 -121.322066 
L 529.740861 -122.721185 
L 529.332216 -124.120304 
L 528.895442 -125.519423 
L 528.428912 -126.918542 
L 527.931541 -128.317661 
L 527.40301 -129.71678 
L 526.843968 -131.115899 
L 526.256226 -132.515018 
L 525.642904 -133.914136 
L 525.008532 -135.313255 
L 524.359075 -136.712374 
L 523.701901 -138.111493 
L 523.045654 -139.510612 
L 522.400052 -140.909731 
L 521.775616 -142.30885 
L 521.183323 -143.707969 
L 520.634214 -145.107088 
L 520.138975 -146.506206 
L 519.707501 -147.905325 
L 519.348474 -149.304444 
L 519.068979 -150.703563 
L 518.874182 -152.102682 
L 518.767071 -153.501801 
L 518.748302 -154.90092 
L 518.816137 -156.300039 
L 518.966483 -157.699158 
L 519.193042 -159.098276 
L 519.487545 -160.497395 
L 519.840073 -161.896514 
L 520.239445 -163.295633 
L 520.673648 -164.694752 
L 521.130298 -166.093871 
L 521.597098 -167.49299 
L 522.062294 -168.892109 
L 522.515079 -170.291228 
L 522.945958 -171.690347 
L 523.347044 -173.089465 
L 523.71228 -174.488584 
L 524.037578 -175.887703 
L 524.320878 -177.286822 
L 524.562123 -178.685941 
L 524.763153 -180.08506 
L 524.927534 -181.484179 
L 525.060322 -182.883298 
L 525.167781 -184.282417 
L 525.25706 -185.681535 
L 525.335858 -187.080654 
L 525.412071 -188.479773 
L 525.493458 -189.878892 
L 525.587322 -191.278011 
L 525.700225 -192.67713 
L 525.837751 -194.076249 
L 526.004317 -195.475368 
L 526.203045 -196.874487 
L 526.43569 -198.273605 
L 526.702639 -199.672724 
L 527.00295 -201.071843 
L 527.33446 -202.470962 
L 527.693926 -203.870081 
L 528.077209 -205.2692 
L 528.479474 -206.668319 
L 528.895411 -208.067438 
L 529.319457 -209.466557 
L 529.746007 -210.865675 
L 530.169618 -212.264794 
L 530.585177 -213.663913 
L 530.988047 -215.063032 
L 531.374186 -216.462151 
L 531.740215 -217.86127 
L 532.083469 -219.260389 
L 532.402007 -220.659508 
L 532.694591 -222.058627 
L 532.960649 -223.457746 
L 533.20021 -224.856864 
L 533.413827 -226.255983 
L 533.602495 -227.655102 
L 533.767562 -229.054221 
L 533.910637 -230.45334 
L 534.03351 -231.852459 
L 535.16649 -231.852459 
L 535.16649 -231.852459 
L 535.289363 -230.45334 
L 535.432438 -229.054221 
L 535.597505 -227.655102 
L 535.786173 -226.255983 
L 535.99979 -224.856864 
L 536.239351 -223.457746 
L 536.505409 -222.058627 
L 536.797993 -220.659508 
L 537.116531 -219.260389 
L 537.459785 -217.86127 
L 537.825814 -216.462151 
L 538.211953 -215.063032 
L 538.614823 -213.663913 
L 539.030382 -212.264794 
L 539.453993 -210.865675 
L 539.880543 -209.466557 
L 540.304589 -208.067438 
L 540.720526 -206.668319 
L 541.122791 -205.2692 
L 541.506074 -203.870081 
L 541.86554 -202.470962 
L 542.19705 -201.071843 
L 542.497361 -199.672724 
L 542.76431 -198.273605 
L 542.996955 -196.874487 
L 543.195683 -195.475368 
L 543.362249 -194.076249 
L 543.499775 -192.67713 
L 543.612678 -191.278011 
L 543.706542 -189.878892 
L 543.787929 -188.479773 
L 543.864142 -187.080654 
L 543.94294 -185.681535 
L 544.032219 -184.282417 
L 544.139678 -182.883298 
L 544.272466 -181.484179 
L 544.436847 -180.08506 
L 544.637877 -178.685941 
L 544.879122 -177.286822 
L 545.162422 -175.887703 
L 545.48772 -174.488584 
L 545.852956 -173.089465 
L 546.254042 -171.690347 
L 546.684921 -170.291228 
L 547.137706 -168.892109 
L 547.602902 -167.49299 
L 548.069702 -166.093871 
L 548.526352 -164.694752 
L 548.960555 -163.295633 
L 549.359927 -161.896514 
L 549.712455 -160.497395 
L 550.006958 -159.098276 
L 550.233517 -157.699158 
L 550.383863 -156.300039 
L 550.451698 -154.90092 
L 550.432929 -153.501801 
L 550.325818 -152.102682 
L 550.131021 -150.703563 
L 549.851526 -149.304444 
L 549.492499 -147.905325 
L 549.061025 -146.506206 
L 548.565786 -145.107088 
L 548.016677 -143.707969 
L 547.424384 -142.30885 
L 546.799948 -140.909731 
L 546.154346 -139.510612 
L 545.498099 -138.111493 
L 544.840925 -136.712374 
L 544.191468 -135.313255 
L 543.557096 -133.914136 
L 542.943774 -132.515018 
L 542.356032 -131.115899 
L 541.79699 -129.71678 
L 541.268459 -128.317661 
L 540.771088 -126.918542 
L 540.304558 -125.519423 
L 539.867784 -124.120304 
L 539.459139 -122.721185 
L 539.076657 -121.322066 
L 538.718229 -119.922947 
L 538.381764 -118.523829 
L 538.065316 -117.12471 
L 537.767178 -115.725591 
L 537.485937 -114.326472 
L 537.220494 -112.927353 
L 536.970054 -111.528234 
L 536.734097 -110.129115 
L 536.512324 -108.729996 
L 536.304602 -107.330877 
L 536.110896 -105.931759 
L 535.931211 -104.53264 
L 535.765534 -103.133521 
L 535.613792 -101.734402 
L 535.475812 -100.335283 
L 535.351309 -98.936164 
L 535.239865 -97.537045 
L 535.14094 -96.137926 
L 535.053878 -94.738807 
L 534.977925 -93.339689 
z
" style="stroke: #404040; stroke-width: 1.25"/>
    </defs>
    <g clip-path="url(#pa00d1cefe4)">
     <use xlink:href="#mfe1836e3fb" x="0" y="360" style="fill: #e6e6e6; stroke: #404040; stroke-width: 1.25"/>
    </g>
   </g>
   <g id="PolyCollection_5">
    <defs>
     <path id="maeee92b82d" d="M 647.196952 -212.005196 
L 645.203048 -212.005196 
L 644.984983 -212.581285 
L 644.733131 -213.157374 
L 644.445567 -213.733463 
L 644.120977 -214.309552 
L 643.758781 -214.885641 
L 643.359242 -215.46173 
L 642.923536 -216.037819 
L 642.453775 -216.613908 
L 641.952977 -217.189997 
L 641.424979 -217.766086 
L 640.874281 -218.342175 
L 640.305836 -218.918264 
L 639.724793 -219.494353 
L 639.136189 -220.070442 
L 638.54463 -220.646531 
L 637.953966 -221.22262 
L 637.366979 -221.798709 
L 636.785121 -222.374798 
L 636.2083 -222.950887 
L 635.634749 -223.526976 
L 635.060981 -224.103065 
L 634.481833 -224.679154 
L 633.890602 -225.255243 
L 633.279276 -225.831332 
L 632.63883 -226.407421 
L 631.959591 -226.98351 
L 631.231646 -227.559599 
L 630.445277 -228.135688 
L 629.591403 -228.711777 
L 628.662018 -229.287866 
L 627.650604 -229.863955 
L 626.552519 -230.440044 
L 625.365329 -231.016133 
L 624.089106 -231.592222 
L 622.726653 -232.168311 
L 621.283678 -232.7444 
L 619.768897 -233.320489 
L 618.194056 -233.896578 
L 616.573883 -234.472667 
L 614.925946 -235.048756 
L 613.270426 -235.624845 
L 611.629794 -236.200934 
L 610.028401 -236.777023 
L 608.491964 -237.353112 
L 607.046986 -237.929201 
L 605.720092 -238.50529 
L 604.537314 -239.081378 
L 603.523338 -239.657467 
L 602.700743 -240.233556 
L 602.089247 -240.809645 
L 601.70501 -241.385734 
L 601.56 -241.961823 
L 601.661466 -242.537912 
L 602.011549 -243.114001 
L 602.607042 -243.69009 
L 603.439333 -244.266179 
L 604.494539 -244.842268 
L 605.75383 -245.418357 
L 607.193955 -245.994446 
L 608.787942 -246.570535 
L 610.505962 -247.146624 
L 612.316313 -247.722713 
L 614.186488 -248.298802 
L 616.084281 -248.874891 
L 617.978875 -249.45098 
L 619.841853 -250.027069 
L 621.648097 -250.603158 
L 623.376508 -251.179247 
L 625.010526 -251.755336 
L 626.53842 -252.331425 
L 627.95334 -252.907514 
L 629.253123 -253.483603 
L 630.439895 -254.059692 
L 631.519479 -254.635781 
L 632.500666 -255.21187 
L 633.394393 -255.787959 
L 634.212882 -256.364048 
L 634.968803 -256.940137 
L 635.674494 -257.516226 
L 636.341302 -258.092315 
L 636.979052 -258.668404 
L 637.595681 -259.244493 
L 638.197039 -259.820582 
L 638.786847 -260.396671 
L 639.366803 -260.97276 
L 639.936804 -261.548849 
L 640.495259 -262.124938 
L 641.039463 -262.701027 
L 641.565984 -263.277116 
L 642.071058 -263.853205 
L 642.550934 -264.429294 
L 643.002183 -265.005383 
L 643.421932 -265.581472 
L 643.808025 -266.157561 
L 644.15912 -266.73365 
L 644.474716 -267.309739 
L 644.755116 -267.885828 
L 645.001355 -268.461917 
L 645.215089 -269.038006 
L 647.184911 -269.038006 
L 647.184911 -269.038006 
L 647.398645 -268.461917 
L 647.644884 -267.885828 
L 647.925284 -267.309739 
L 648.24088 -266.73365 
L 648.591975 -266.157561 
L 648.978068 -265.581472 
L 649.397817 -265.005383 
L 649.849066 -264.429294 
L 650.328942 -263.853205 
L 650.834016 -263.277116 
L 651.360537 -262.701027 
L 651.904741 -262.124938 
L 652.463196 -261.548849 
L 653.033197 -260.97276 
L 653.613153 -260.396671 
L 654.202961 -259.820582 
L 654.804319 -259.244493 
L 655.420948 -258.668404 
L 656.058698 -258.092315 
L 656.725506 -257.516226 
L 657.431197 -256.940137 
L 658.187118 -256.364048 
L 659.005607 -255.787959 
L 659.899334 -255.21187 
L 660.880521 -254.635781 
L 661.960105 -254.059692 
L 663.146877 -253.483603 
L 664.44666 -252.907514 
L 665.86158 -252.331425 
L 667.389474 -251.755336 
L 669.023492 -251.179247 
L 670.751903 -250.603158 
L 672.558147 -250.027069 
L 674.421125 -249.45098 
L 676.315719 -248.874891 
L 678.213512 -248.298802 
L 680.083687 -247.722713 
L 681.894038 -247.146624 
L 683.612058 -246.570535 
L 685.206045 -245.994446 
L 686.64617 -245.418357 
L 687.905461 -244.842268 
L 688.960667 -244.266179 
L 689.792958 -243.69009 
L 690.388451 -243.114001 
L 690.738534 -242.537912 
L 690.84 -241.961823 
L 690.69499 -241.385734 
L 690.310753 -240.809645 
L 689.699257 -240.233556 
L 688.876662 -239.657467 
L 687.862686 -239.081378 
L 686.679908 -238.50529 
L 685.353014 -237.929201 
L 683.908036 -237.353112 
L 682.371599 -236.777023 
L 680.770206 -236.200934 
L 679.129574 -235.624845 
L 677.474054 -235.048756 
L 675.826117 -234.472667 
L 674.205944 -233.896578 
L 672.631103 -233.320489 
L 671.116322 -232.7444 
L 669.673347 -232.168311 
L 668.310894 -231.592222 
L 667.034671 -231.016133 
L 665.847481 -230.440044 
L 664.749396 -229.863955 
L 663.737982 -229.287866 
L 662.808597 -228.711777 
L 661.954723 -228.135688 
L 661.168354 -227.559599 
L 660.440409 -226.98351 
L 659.76117 -226.407421 
L 659.120724 -225.831332 
L 658.509398 -225.255243 
L 657.918167 -224.679154 
L 657.339019 -224.103065 
L 656.765251 -223.526976 
L 656.1917 -222.950887 
L 655.614879 -222.374798 
L 655.033021 -221.798709 
L 654.446034 -221.22262 
L 653.85537 -220.646531 
L 653.263811 -220.070442 
L 652.675207 -219.494353 
L 652.094164 -218.918264 
L 651.525719 -218.342175 
L 650.975021 -217.766086 
L 650.447023 -217.189997 
L 649.946225 -216.613908 
L 649.476464 -216.037819 
L 649.040758 -215.46173 
L 648.641219 -214.885641 
L 648.279023 -214.309552 
L 647.954433 -213.733463 
L 647.666869 -213.157374 
L 647.415017 -212.581285 
L 647.196952 -212.005196 
z
" style="stroke: #404040; stroke-width: 1.25"/>
    </defs>
    <g clip-path="url(#pa00d1cefe4)">
     <use xlink:href="#maeee92b82d" x="0" y="360" style="fill: #e6e6e6; stroke: #404040; stroke-width: 1.25"/>
    </g>
   </g>
   <g id="PolyCollection_6">
    <defs>
     <path id="mea05e71f5e" d="M 760.131794 -206.110211 
L 755.468206 -206.110211 
L 755.032876 -206.609528 
L 754.538005 -207.108846 
L 753.979995 -207.608163 
L 753.35592 -208.10748 
L 752.663709 -208.606798 
L 751.902317 -209.106115 
L 751.071891 -209.605433 
L 750.173902 -210.10475 
L 749.211259 -210.604067 
L 748.188372 -211.103385 
L 747.111174 -211.602702 
L 745.98709 -212.102019 
L 744.824938 -212.601337 
L 743.634788 -213.100654 
L 742.427748 -213.599971 
L 741.215708 -214.099289 
L 740.011035 -214.598606 
L 738.826232 -215.097924 
L 737.673587 -215.597241 
L 736.564799 -216.096558 
L 735.510632 -216.595876 
L 734.520584 -217.095193 
L 733.602603 -217.59451 
L 732.762855 -218.093828 
L 732.005558 -218.593145 
L 731.332892 -219.092463 
L 730.744983 -219.59178 
L 730.239964 -220.091097 
L 729.814107 -220.590415 
L 729.462022 -221.089732 
L 729.176907 -221.589049 
L 728.950837 -222.088367 
L 728.775079 -222.587684 
L 728.64042 -223.087001 
L 728.537485 -223.586319 
L 728.457044 -224.085636 
L 728.390281 -224.584954 
L 728.329037 -225.084271 
L 728.266004 -225.583588 
L 728.194877 -226.082906 
L 728.110453 -226.582223 
L 728.008705 -227.08154 
L 727.886799 -227.580858 
L 727.743093 -228.080175 
L 727.577103 -228.579493 
L 727.389453 -229.07881 
L 727.181811 -229.578127 
L 726.956816 -230.077445 
L 726.717998 -230.576762 
L 726.4697 -231.076079 
L 726.216993 -231.575397 
L 725.965593 -232.074714 
L 725.721773 -232.574032 
L 725.492269 -233.073349 
L 725.284183 -233.572666 
L 725.104878 -234.071984 
L 724.961858 -234.571301 
L 724.862645 -235.070618 
L 724.814643 -235.569936 
L 724.824994 -236.069253 
L 724.900431 -236.56857 
L 725.047121 -237.067888 
L 725.27052 -237.567205 
L 725.575223 -238.066523 
L 725.964827 -238.56584 
L 726.441818 -239.065157 
L 727.00746 -239.564475 
L 727.661726 -240.063792 
L 728.403244 -240.563109 
L 729.229283 -241.062427 
L 730.135761 -241.561744 
L 731.1173 -242.061062 
L 732.167302 -242.560379 
L 733.278063 -243.059696 
L 734.440922 -243.559014 
L 735.64642 -244.058331 
L 736.884498 -244.557648 
L 738.1447 -245.056966 
L 739.416385 -245.556283 
L 740.68895 -246.0556 
L 741.952035 -246.554918 
L 743.195736 -247.054235 
L 744.410782 -247.553553 
L 745.588703 -248.05287 
L 746.721963 -248.552187 
L 747.804071 -249.051505 
L 748.829651 -249.550822 
L 749.794482 -250.050139 
L 750.695511 -250.549457 
L 751.530821 -251.048774 
L 752.299589 -251.548092 
L 753.002001 -252.047409 
L 753.639164 -252.546726 
L 754.212987 -253.046044 
L 754.726065 -253.545361 
L 755.181548 -254.044678 
L 755.583015 -254.543996 
L 755.93435 -255.043313 
L 756.239626 -255.542631 
L 759.360374 -255.542631 
L 759.360374 -255.542631 
L 759.66565 -255.043313 
L 760.016985 -254.543996 
L 760.418452 -254.044678 
L 760.873935 -253.545361 
L 761.387013 -253.046044 
L 761.960836 -252.546726 
L 762.597999 -252.047409 
L 763.300411 -251.548092 
L 764.069179 -251.048774 
L 764.904489 -250.549457 
L 765.805518 -250.050139 
L 766.770349 -249.550822 
L 767.795929 -249.051505 
L 768.878037 -248.552187 
L 770.011297 -248.05287 
L 771.189218 -247.553553 
L 772.404264 -247.054235 
L 773.647965 -246.554918 
L 774.91105 -246.0556 
L 776.183615 -245.556283 
L 777.4553 -245.056966 
L 778.715502 -244.557648 
L 779.95358 -244.058331 
L 781.159078 -243.559014 
L 782.321937 -243.059696 
L 783.432698 -242.560379 
L 784.4827 -242.061062 
L 785.464239 -241.561744 
L 786.370717 -241.062427 
L 787.196756 -240.563109 
L 787.938274 -240.063792 
L 788.59254 -239.564475 
L 789.158182 -239.065157 
L 789.635173 -238.56584 
L 790.024777 -238.066523 
L 790.32948 -237.567205 
L 790.552879 -237.067888 
L 790.699569 -236.56857 
L 790.775006 -236.069253 
L 790.785357 -235.569936 
L 790.737355 -235.070618 
L 790.638142 -234.571301 
L 790.495122 -234.071984 
L 790.315817 -233.572666 
L 790.107731 -233.073349 
L 789.878227 -232.574032 
L 789.634407 -232.074714 
L 789.383007 -231.575397 
L 789.1303 -231.076079 
L 788.882002 -230.576762 
L 788.643184 -230.077445 
L 788.418189 -229.578127 
L 788.210547 -229.07881 
L 788.022897 -228.579493 
L 787.856907 -228.080175 
L 787.713201 -227.580858 
L 787.591295 -227.08154 
L 787.489547 -226.582223 
L 787.405123 -226.082906 
L 787.333996 -225.583588 
L 787.270963 -225.084271 
L 787.209719 -224.584954 
L 787.142956 -224.085636 
L 787.062515 -223.586319 
L 786.95958 -223.087001 
L 786.824921 -222.587684 
L 786.649163 -222.088367 
L 786.423093 -221.589049 
L 786.137978 -221.089732 
L 785.785893 -220.590415 
L 785.360036 -220.091097 
L 784.855017 -219.59178 
L 784.267108 -219.092463 
L 783.594442 -218.593145 
L 782.837145 -218.093828 
L 781.997397 -217.59451 
L 781.079416 -217.095193 
L 780.089368 -216.595876 
L 779.035201 -216.096558 
L 777.926413 -215.597241 
L 776.773768 -215.097924 
L 775.588965 -214.598606 
L 774.384292 -214.099289 
L 773.172252 -213.599971 
L 771.965212 -213.100654 
L 770.775062 -212.601337 
L 769.61291 -212.102019 
L 768.488826 -211.602702 
L 767.411628 -211.103385 
L 766.388741 -210.604067 
L 765.426098 -210.10475 
L 764.528109 -209.605433 
L 763.697683 -209.106115 
L 762.936291 -208.606798 
L 762.24408 -208.10748 
L 761.620005 -207.608163 
L 761.061995 -207.108846 
L 760.567124 -206.609528 
L 760.131794 -206.110211 
z
" style="stroke: #404040; stroke-width: 1.25"/>
    </defs>
    <g clip-path="url(#pa00d1cefe4)">
     <use xlink:href="#mea05e71f5e" x="0" y="360" style="fill: #e6e6e6; stroke: #404040; stroke-width: 1.25"/>
    </g>
   </g>
   <g id="PolyCollection_7">
    <defs>
     <path id="m85d6cd80d5" d="M 869.94051 -55.615307 
L 868.85949 -55.615307 
L 868.745484 -57.357973 
L 868.61331 -59.100639 
L 868.461436 -60.843304 
L 868.288496 -62.58597 
L 868.093359 -64.328636 
L 867.875203 -66.071302 
L 867.633589 -67.813967 
L 867.368531 -69.556633 
L 867.080559 -71.299299 
L 866.770766 -73.041964 
L 866.440844 -74.78463 
L 866.093098 -76.527296 
L 865.730437 -78.269962 
L 865.356338 -80.012627 
L 864.974787 -81.755293 
L 864.590191 -83.497959 
L 864.207263 -85.240624 
L 863.83089 -86.98329 
L 863.46598 -88.725956 
L 863.117293 -90.468622 
L 862.789276 -92.211287 
L 862.485886 -93.953953 
L 862.210435 -95.696619 
L 861.965444 -97.439285 
L 861.752521 -99.18195 
L 861.572274 -100.924616 
L 861.424257 -102.667282 
L 861.306954 -104.409947 
L 861.217807 -106.152613 
L 861.153288 -107.895279 
L 861.109012 -109.637945 
L 861.079885 -111.38061 
L 861.060291 -113.123276 
L 861.044305 -114.865942 
L 861.025925 -116.608608 
L 860.999318 -118.351273 
L 860.959065 -120.093939 
L 860.900404 -121.836605 
L 860.819449 -123.57927 
L 860.713383 -125.321936 
L 860.580618 -127.064602 
L 860.420903 -128.807268 
L 860.23539 -130.549933 
L 860.026632 -132.292599 
L 859.798533 -134.035265 
L 859.556233 -135.77793 
L 859.305942 -137.520596 
L 859.054718 -139.263262 
L 858.810212 -141.005928 
L 858.580378 -142.748593 
L 858.373161 -144.491259 
L 858.196194 -146.233925 
L 858.056492 -147.976591 
L 857.960181 -149.719256 
L 857.91226 -151.461922 
L 857.916421 -153.204588 
L 857.974916 -154.947253 
L 858.088502 -156.689919 
L 858.256441 -158.432585 
L 858.476572 -160.175251 
L 858.745439 -161.917916 
L 859.058472 -163.660582 
L 859.410207 -165.403248 
L 859.794531 -167.145913 
L 860.204943 -168.888579 
L 860.634811 -170.631245 
L 861.077615 -172.373911 
L 861.527166 -174.116576 
L 861.977787 -175.859242 
L 862.424451 -177.601908 
L 862.862878 -179.344574 
L 863.28958 -181.087239 
L 863.701868 -182.829905 
L 864.097816 -184.572571 
L 864.476196 -186.315236 
L 864.836385 -188.057902 
L 865.178261 -189.800568 
L 865.502086 -191.543234 
L 865.808396 -193.285899 
L 866.097898 -195.028565 
L 866.371371 -196.771231 
L 866.629599 -198.513896 
L 866.873311 -200.256562 
L 867.103142 -201.999228 
L 867.319621 -203.741894 
L 867.523161 -205.484559 
L 867.714077 -207.227225 
L 867.892598 -208.969891 
L 868.058903 -210.712557 
L 868.213144 -212.455222 
L 868.355476 -214.197888 
L 868.486084 -215.940554 
L 868.605201 -217.683219 
L 868.713129 -219.425885 
L 868.810242 -221.168551 
L 868.89699 -222.911217 
L 868.973897 -224.653882 
L 869.041551 -226.396548 
L 869.100595 -228.139214 
L 869.699405 -228.139214 
L 869.699405 -228.139214 
L 869.758449 -226.396548 
L 869.826103 -224.653882 
L 869.90301 -222.911217 
L 869.989758 -221.168551 
L 870.086871 -219.425885 
L 870.194799 -217.683219 
L 870.313916 -215.940554 
L 870.444524 -214.197888 
L 870.586856 -212.455222 
L 870.741097 -210.712557 
L 870.907402 -208.969891 
L 871.085923 -207.227225 
L 871.276839 -205.484559 
L 871.480379 -203.741894 
L 871.696858 -201.999228 
L 871.926689 -200.256562 
L 872.170401 -198.513896 
L 872.428629 -196.771231 
L 872.702102 -195.028565 
L 872.991604 -193.285899 
L 873.297914 -191.543234 
L 873.621739 -189.800568 
L 873.963615 -188.057902 
L 874.323804 -186.315236 
L 874.702184 -184.572571 
L 875.098132 -182.829905 
L 875.51042 -181.087239 
L 875.937122 -179.344574 
L 876.375549 -177.601908 
L 876.822213 -175.859242 
L 877.272834 -174.116576 
L 877.722385 -172.373911 
L 878.165189 -170.631245 
L 878.595057 -168.888579 
L 879.005469 -167.145913 
L 879.389793 -165.403248 
L 879.741528 -163.660582 
L 880.054561 -161.917916 
L 880.323428 -160.175251 
L 880.543559 -158.432585 
L 880.711498 -156.689919 
L 880.825084 -154.947253 
L 880.883579 -153.204588 
L 880.88774 -151.461922 
L 880.839819 -149.719256 
L 880.743508 -147.976591 
L 880.603806 -146.233925 
L 880.426839 -144.491259 
L 880.219622 -142.748593 
L 879.989788 -141.005928 
L 879.745282 -139.263262 
L 879.494058 -137.520596 
L 879.243767 -135.77793 
L 879.001467 -134.035265 
L 878.773368 -132.292599 
L 878.56461 -130.549933 
L 878.379097 -128.807268 
L 878.219382 -127.064602 
L 878.086617 -125.321936 
L 877.980551 -123.57927 
L 877.899596 -121.836605 
L 877.840935 -120.093939 
L 877.800682 -118.351273 
L 877.774075 -116.608608 
L 877.755695 -114.865942 
L 877.739709 -113.123276 
L 877.720115 -111.38061 
L 877.690988 -109.637945 
L 877.646712 -107.895279 
L 877.582193 -106.152613 
L 877.493046 -104.409947 
L 877.375743 -102.667282 
L 877.227726 -100.924616 
L 877.047479 -99.18195 
L 876.834556 -97.439285 
L 876.589565 -95.696619 
L 876.314114 -93.953953 
L 876.010724 -92.211287 
L 875.682707 -90.468622 
L 875.33402 -88.725956 
L 874.96911 -86.98329 
L 874.592737 -85.240624 
L 874.209809 -83.497959 
L 873.825213 -81.755293 
L 873.443662 -80.012627 
L 873.069563 -78.269962 
L 872.706902 -76.527296 
L 872.359156 -74.78463 
L 872.029234 -73.041964 
L 871.719441 -71.299299 
L 871.431469 -69.556633 
L 871.166411 -67.813967 
L 870.924797 -66.071302 
L 870.706641 -64.328636 
L 870.511504 -62.58597 
L 870.338564 -60.843304 
L 870.18669 -59.100639 
L 870.054516 -57.357973 
L 869.94051 -55.615307 
z
" style="stroke: #404040; stroke-width: 1.25"/>
    </defs>
    <g clip-path="url(#pa00d1cefe4)">
     <use xlink:href="#m85d6cd80d5" x="0" y="360" style="fill: #e6e6e6; stroke: #404040; stroke-width: 1.25"/>
    </g>
   </g>
   <g id="PolyCollection_8">
    <defs>
     <path id="m5010db6eaa" d="M 981.824282 -68.003147 
L 980.175718 -68.003147 
L 980.01178 -69.35948 
L 979.823631 -70.715812 
L 979.609553 -72.072145 
L 979.368089 -73.428477 
L 979.098132 -74.78481 
L 978.799009 -76.141142 
L 978.470563 -77.497475 
L 978.113234 -78.853807 
L 977.728114 -80.21014 
L 977.317002 -81.566472 
L 976.882418 -82.922805 
L 976.42761 -84.279137 
L 975.956522 -85.635469 
L 975.473735 -86.991802 
L 974.984376 -88.348134 
L 974.494002 -89.704467 
L 974.00845 -91.060799 
L 973.533674 -92.417132 
L 973.075556 -93.773464 
L 972.639716 -95.129797 
L 972.231315 -96.486129 
L 971.854869 -97.842462 
L 971.514074 -99.198794 
L 971.211664 -100.555127 
L 970.949291 -101.911459 
L 970.727453 -103.267792 
L 970.545455 -104.624124 
L 970.401427 -105.980456 
L 970.292379 -107.336789 
L 970.214308 -108.693121 
L 970.162341 -110.049454 
L 970.130922 -111.405786 
L 970.114022 -112.762119 
L 970.10537 -114.118451 
L 970.0987 -115.474784 
L 970.087993 -116.831116 
L 970.067717 -118.187449 
L 970.033039 -119.543781 
L 969.980021 -120.900114 
L 969.905771 -122.256446 
L 969.808554 -123.612779 
L 969.687866 -124.969111 
L 969.544445 -126.325443 
L 969.38025 -127.681776 
L 969.198376 -129.038108 
L 969.002942 -130.394441 
L 968.798931 -131.750773 
L 968.592004 -133.107106 
L 968.38829 -134.463438 
L 968.194167 -135.819771 
L 968.016035 -137.176103 
L 967.860092 -138.532436 
L 967.732138 -139.888768 
L 967.637382 -141.245101 
L 967.580295 -142.601433 
L 967.564487 -143.957765 
L 967.592625 -145.314098 
L 967.666387 -146.67043 
L 967.786457 -148.026763 
L 967.952552 -149.383095 
L 968.163489 -150.739428 
L 968.417265 -152.09576 
L 968.711173 -153.452093 
L 969.041923 -154.808425 
L 969.405776 -156.164758 
L 969.798674 -157.52109 
L 970.216373 -158.877423 
L 970.654559 -160.233755 
L 971.108957 -161.590088 
L 971.575418 -162.94642 
L 972.049991 -164.302752 
L 972.528974 -165.659085 
L 973.008954 -167.015417 
L 973.486819 -168.37175 
L 973.959769 -169.728082 
L 974.425303 -171.084415 
L 974.88121 -172.440747 
L 975.325545 -173.79708 
L 975.756612 -175.153412 
L 976.172936 -176.509745 
L 976.573248 -177.866077 
L 976.956466 -179.22241 
L 977.321683 -180.578742 
L 977.66816 -181.935075 
L 977.995316 -183.291407 
L 978.302734 -184.647739 
L 978.590153 -186.004072 
L 978.857475 -187.360404 
L 979.104759 -188.716737 
L 979.332225 -190.073069 
L 979.540248 -191.429402 
L 979.729349 -192.785734 
L 979.900189 -194.142067 
L 980.053552 -195.498399 
L 980.190331 -196.854732 
L 980.311508 -198.211064 
L 980.418136 -199.567397 
L 980.511313 -200.923729 
L 980.592166 -202.280062 
L 981.407834 -202.280062 
L 981.407834 -202.280062 
L 981.488687 -200.923729 
L 981.581864 -199.567397 
L 981.688492 -198.211064 
L 981.809669 -196.854732 
L 981.946448 -195.498399 
L 982.099811 -194.142067 
L 982.270651 -192.785734 
L 982.459752 -191.429402 
L 982.667775 -190.073069 
L 982.895241 -188.716737 
L 983.142525 -187.360404 
L 983.409847 -186.004072 
L 983.697266 -184.647739 
L 984.004684 -183.291407 
L 984.33184 -181.935075 
L 984.678317 -180.578742 
L 985.043534 -179.22241 
L 985.426752 -177.866077 
L 985.827064 -176.509745 
L 986.243388 -175.153412 
L 986.674455 -173.79708 
L 987.11879 -172.440747 
L 987.574697 -171.084415 
L 988.040231 -169.728082 
L 988.513181 -168.37175 
L 988.991046 -167.015417 
L 989.471026 -165.659085 
L 989.950009 -164.302752 
L 990.424582 -162.94642 
L 990.891043 -161.590088 
L 991.345441 -160.233755 
L 991.783627 -158.877423 
L 992.201326 -157.52109 
L 992.594224 -156.164758 
L 992.958077 -154.808425 
L 993.288827 -153.452093 
L 993.582735 -152.09576 
L 993.836511 -150.739428 
L 994.047448 -149.383095 
L 994.213543 -148.026763 
L 994.333613 -146.67043 
L 994.407375 -145.314098 
L 994.435513 -143.957765 
L 994.419705 -142.601433 
L 994.362618 -141.245101 
L 994.267862 -139.888768 
L 994.139908 -138.532436 
L 993.983965 -137.176103 
L 993.805833 -135.819771 
L 993.61171 -134.463438 
L 993.407996 -133.107106 
L 993.201069 -131.750773 
L 992.997058 -130.394441 
L 992.801624 -129.038108 
L 992.61975 -127.681776 
L 992.455555 -126.325443 
L 992.312134 -124.969111 
L 992.191446 -123.612779 
L 992.094229 -122.256446 
L 992.019979 -120.900114 
L 991.966961 -119.543781 
L 991.932283 -118.187449 
L 991.912007 -116.831116 
L 991.9013 -115.474784 
L 991.89463 -114.118451 
L 991.885978 -112.762119 
L 991.869078 -111.405786 
L 991.837659 -110.049454 
L 991.785692 -108.693121 
L 991.707621 -107.336789 
L 991.598573 -105.980456 
L 991.454545 -104.624124 
L 991.272547 -103.267792 
L 991.050709 -101.911459 
L 990.788336 -100.555127 
L 990.485926 -99.198794 
L 990.145131 -97.842462 
L 989.768685 -96.486129 
L 989.360284 -95.129797 
L 988.924444 -93.773464 
L 988.466326 -92.417132 
L 987.99155 -91.060799 
L 987.505998 -89.704467 
L 987.015624 -88.348134 
L 986.526265 -86.991802 
L 986.043478 -85.635469 
L 985.57239 -84.279137 
L 985.117582 -82.922805 
L 984.682998 -81.566472 
L 984.271886 -80.21014 
L 983.886766 -78.853807 
L 983.529437 -77.497475 
L 983.200991 -76.141142 
L 982.901868 -74.78481 
L 982.631911 -73.428477 
L 982.390447 -72.072145 
L 982.176369 -70.715812 
L 981.98822 -69.35948 
L 981.824282 -68.003147 
z
" style="stroke: #404040; stroke-width: 1.25"/>
    </defs>
    <g clip-path="url(#pa00d1cefe4)">
     <use xlink:href="#m5010db6eaa" x="0" y="360" style="fill: #e6e6e6; stroke: #404040; stroke-width: 1.25"/>
    </g>
   </g>
   <g id="patch_3">
    <path d="M 144 320.4 
L 144 43.2 
" style="fill: none; stroke: #cccccc; stroke-width: 1.25; stroke-linejoin: miter; stroke-linecap: square"/>
   </g>
   <g id="patch_4">
    <path d="M 1036.8 320.4 
L 1036.8 43.2 
" style="fill: none; stroke: #cccccc; stroke-width: 1.25; stroke-linejoin: miter; stroke-linecap: square"/>
   </g>
   <g id="patch_5">
    <path d="M 144 320.4 
L 1036.8 320.4 
" style="fill: none; stroke: #cccccc; stroke-width: 1.25; stroke-linejoin: miter; stroke-linecap: square"/>
   </g>
   <g id="patch_6">
    <path d="M 144 43.2 
L 1036.8 43.2 
" style="fill: none; stroke: #cccccc; stroke-width: 1.25; stroke-linejoin: miter; stroke-linecap: square"/>
   </g>
   <g id="PathCollection_1">
    <defs>
     <path id="C0_0_2d533d5f14" d="M 0 1.5 
C 0.397805 1.5 0.77937 1.341951 1.06066 1.06066 
C 1.341951 0.77937 1.5 0.397805 1.5 -0 
C 1.5 -0.397805 1.341951 -0.77937 1.06066 -1.06066 
C 0.77937 -1.341951 0.397805 -1.5 0 -1.5 
C -0.397805 -1.5 -0.77937 -1.341951 -1.06066 -1.06066 
C -1.341951 -0.77937 -1.5 -0.397805 -1.5 0 
C -1.5 0.397805 -1.341951 0.77937 -1.06066 1.06066 
C -0.77937 1.341951 -0.397805 1.5 0 1.5 
z
"/>
    </defs>
    <g clip-path="url(#pa00d1cefe4)">
     <use xlink:href="#C0_0_2d533d5f14" x="199.8" y="197.860793" style="fill: #4c72b0"/>
    </g>
    <g clip-path="url(#pa00d1cefe4)">
     <use xlink:href="#C0_0_2d533d5f14" x="199.8" y="154.688943" style="fill: #4c72b0"/>
    </g>
    <g clip-path="url(#pa00d1cefe4)">
     <use xlink:href="#C0_0_2d533d5f14" x="199.8" y="228.943319" style="fill: #4c72b0"/>
    </g>
    <g clip-path="url(#pa00d1cefe4)">
     <use xlink:href="#C0_0_2d533d5f14" x="199.8" y="219.812575" style="fill: #4c72b0"/>
    </g>
    <g clip-path="url(#pa00d1cefe4)">
     <use xlink:href="#C0_0_2d533d5f14" x="199.8" y="175.789187" style="fill: #4c72b0"/>
    </g>
    <g clip-path="url(#pa00d1cefe4)">
     <use xlink:href="#C0_0_2d533d5f14" x="199.8" y="166.939339" style="fill: #4c72b0"/>
    </g>
    <g clip-path="url(#pa00d1cefe4)">
     <use xlink:href="#C0_0_2d533d5f14" x="199.8" y="206.437635" style="fill: #4c72b0"/>
    </g>
    <g clip-path="url(#pa00d1cefe4)">
     <use xlink:href="#C0_0_2d533d5f14" x="197.20108" y="152.993781" style="fill: #4c72b0"/>
    </g>
    <g clip-path="url(#pa00d1cefe4)">
     <use xlink:href="#C0_0_2d533d5f14" x="199.8" y="190.838992" style="fill: #4c72b0"/>
    </g>
    <g clip-path="url(#pa00d1cefe4)">
     <use xlink:href="#C0_0_2d533d5f14" x="196.843462" y="165.904182" style="fill: #4c72b0"/>
    </g>
   </g>
   <g id="PathCollection_2">
    <defs>
     <path id="C1_0_d67fdf0e16" d="M 0 1.5 
C 0.397805 1.5 0.77937 1.341951 1.06066 1.06066 
C 1.341951 0.77937 1.5 0.397805 1.5 -0 
C 1.5 -0.397805 1.341951 -0.77937 1.06066 -1.06066 
C 0.77937 -1.341951 0.397805 -1.5 0 -1.5 
C -0.397805 -1.5 -0.77937 -1.341951 -1.06066 -1.06066 
C -1.341951 -0.77937 -1.5 -0.397805 -1.5 0 
C -1.5 0.397805 -1.341951 0.77937 -1.06066 1.06066 
C -0.77937 1.341951 -0.397805 1.5 0 1.5 
z
"/>
    </defs>
    <g clip-path="url(#pa00d1cefe4)">
     <use xlink:href="#C1_0_d67fdf0e16" x="308.397094" y="193.129808" style="fill: #c44e52"/>
    </g>
    <g clip-path="url(#pa00d1cefe4)">
     <use xlink:href="#C1_0_d67fdf0e16" x="311.4" y="154.221138" style="fill: #c44e52"/>
    </g>
    <g clip-path="url(#pa00d1cefe4)">
     <use xlink:href="#C1_0_d67fdf0e16" x="311.4" y="217.334318" style="fill: #c44e52"/>
    </g>
    <g clip-path="url(#pa00d1cefe4)">
     <use xlink:href="#C1_0_d67fdf0e16" x="311.4" y="202.427385" style="fill: #c44e52"/>
    </g>
    <g clip-path="url(#pa00d1cefe4)">
     <use xlink:href="#C1_0_d67fdf0e16" x="311.4" y="160.924775" style="fill: #c44e52"/>
    </g>
    <g clip-path="url(#pa00d1cefe4)">
     <use xlink:href="#C1_0_d67fdf0e16" x="311.4" y="141.711987" style="fill: #c44e52"/>
    </g>
    <g clip-path="url(#pa00d1cefe4)">
     <use xlink:href="#C1_0_d67fdf0e16" x="311.4" y="194.03585" style="fill: #c44e52"/>
    </g>
    <g clip-path="url(#pa00d1cefe4)">
     <use xlink:href="#C1_0_d67fdf0e16" x="311.4" y="132.495737" style="fill: #c44e52"/>
    </g>
    <g clip-path="url(#pa00d1cefe4)">
     <use xlink:href="#C1_0_d67fdf0e16" x="311.4" y="181.379776" style="fill: #c44e52"/>
    </g>
    <g clip-path="url(#pa00d1cefe4)">
     <use xlink:href="#C1_0_d67fdf0e16" x="311.4" y="145.844073" style="fill: #c44e52"/>
    </g>
   </g>
   <g id="PathCollection_3">
    <defs>
     <path id="C2_0_8b3d465aeb" d="M 0 1.5 
C 0.397805 1.5 0.77937 1.341951 1.06066 1.06066 
C 1.341951 0.77937 1.5 0.397805 1.5 -0 
C 1.5 -0.397805 1.341951 -0.77937 1.06066 -1.06066 
C 0.77937 -1.341951 0.397805 -1.5 0 -1.5 
C -0.397805 -1.5 -0.77937 -1.341951 -1.06066 -1.06066 
C -1.341951 -0.77937 -1.5 -0.397805 -1.5 0 
C -1.5 0.397805 -1.341951 0.77937 -1.06066 1.06066 
C -0.77937 1.341951 -0.397805 1.5 0 1.5 
z
"/>
    </defs>
    <g clip-path="url(#pa00d1cefe4)">
     <use xlink:href="#C2_0_8b3d465aeb" x="423" y="235.137884" style="fill: #4c72b0"/>
    </g>
    <g clip-path="url(#pa00d1cefe4)">
     <use xlink:href="#C2_0_8b3d465aeb" x="420.242026" y="225.573618" style="fill: #4c72b0"/>
    </g>
    <g clip-path="url(#pa00d1cefe4)">
     <use xlink:href="#C2_0_8b3d465aeb" x="423" y="198.439466" style="fill: #4c72b0"/>
    </g>
    <g clip-path="url(#pa00d1cefe4)">
     <use xlink:href="#C2_0_8b3d465aeb" x="420.560872" y="196.541107" style="fill: #4c72b0"/>
    </g>
    <g clip-path="url(#pa00d1cefe4)">
     <use xlink:href="#C2_0_8b3d465aeb" x="423" y="212.874779" style="fill: #4c72b0"/>
    </g>
    <g clip-path="url(#pa00d1cefe4)">
     <use xlink:href="#C2_0_8b3d465aeb" x="424.953989" y="231.145562" style="fill: #4c72b0"/>
    </g>
    <g clip-path="url(#pa00d1cefe4)">
     <use xlink:href="#C2_0_8b3d465aeb" x="422.038361" y="232.281098" style="fill: #4c72b0"/>
    </g>
    <g clip-path="url(#pa00d1cefe4)">
     <use xlink:href="#C2_0_8b3d465aeb" x="423" y="227.023015" style="fill: #4c72b0"/>
    </g>
    <g clip-path="url(#pa00d1cefe4)">
     <use xlink:href="#C2_0_8b3d465aeb" x="423" y="244.643244" style="fill: #4c72b0"/>
    </g>
    <g clip-path="url(#pa00d1cefe4)">
     <use xlink:href="#C2_0_8b3d465aeb" x="423" y="186.451706" style="fill: #4c72b0"/>
    </g>
   </g>
   <g id="PathCollection_4">
    <defs>
     <path id="C3_0_cbe676b563" d="M 0 1.5 
C 0.397805 1.5 0.77937 1.341951 1.06066 1.06066 
C 1.341951 0.77937 1.5 0.397805 1.5 -0 
C 1.5 -0.397805 1.341951 -0.77937 1.06066 -1.06066 
C 0.77937 -1.341951 0.397805 -1.5 0 -1.5 
C -0.397805 -1.5 -0.77937 -1.341951 -1.06066 -1.06066 
C -1.341951 -0.77937 -1.5 -0.397805 -1.5 0 
C -1.5 0.397805 -1.341951 0.77937 -1.06066 1.06066 
C -0.77937 1.341951 -0.397805 1.5 0 1.5 
z
"/>
    </defs>
    <g clip-path="url(#pa00d1cefe4)">
     <use xlink:href="#C3_0_cbe676b563" x="534.01142" y="208.132919" style="fill: #c44e52"/>
    </g>
    <g clip-path="url(#pa00d1cefe4)">
     <use xlink:href="#C3_0_cbe676b563" x="534.6" y="191.82646" style="fill: #c44e52"/>
    </g>
    <g clip-path="url(#pa00d1cefe4)">
     <use xlink:href="#C3_0_cbe676b563" x="534.6" y="158.707577" style="fill: #c44e52"/>
    </g>
    <g clip-path="url(#pa00d1cefe4)">
     <use xlink:href="#C3_0_cbe676b563" x="534.6" y="170.965338" style="fill: #c44e52"/>
    </g>
    <g clip-path="url(#pa00d1cefe4)">
     <use xlink:href="#C3_0_cbe676b563" x="534.6" y="203.1898" style="fill: #c44e52"/>
    </g>
    <g clip-path="url(#pa00d1cefe4)">
     <use xlink:href="#C3_0_cbe676b563" x="537.136854" y="207.758979" style="fill: #c44e52"/>
    </g>
    <g clip-path="url(#pa00d1cefe4)">
     <use xlink:href="#C3_0_cbe676b563" x="534.6" y="211.080084" style="fill: #c44e52"/>
    </g>
    <g clip-path="url(#pa00d1cefe4)">
     <use xlink:href="#C3_0_cbe676b563" x="531.032838" y="207.156764" style="fill: #c44e52"/>
    </g>
    <g clip-path="url(#pa00d1cefe4)">
     <use xlink:href="#C3_0_cbe676b563" x="534.6" y="236.100276" style="fill: #c44e52"/>
    </g>
    <g clip-path="url(#pa00d1cefe4)">
     <use xlink:href="#C3_0_cbe676b563" x="534.6" y="165.238185" style="fill: #c44e52"/>
    </g>
   </g>
   <g id="PathCollection_5">
    <defs>
     <path id="C4_0_6f68abe6bf" d="M 0 1.5 
C 0.397805 1.5 0.77937 1.341951 1.06066 1.06066 
C 1.341951 0.77937 1.5 0.397805 1.5 -0 
C 1.5 -0.397805 1.341951 -0.77937 1.06066 -1.06066 
C 0.77937 -1.341951 0.397805 -1.5 0 -1.5 
C -0.397805 -1.5 -0.77937 -1.341951 -1.06066 -1.06066 
C -1.341951 -0.77937 -1.5 -0.397805 -1.5 0 
C -1.5 0.397805 -1.341951 0.77937 -1.06066 1.06066 
C -0.77937 1.341951 -0.397805 1.5 0 1.5 
z
"/>
    </defs>
    <g clip-path="url(#pa00d1cefe4)">
     <use xlink:href="#C4_0_6f68abe6bf" x="646.2" y="102.511248" style="fill: #4c72b0"/>
    </g>
    <g clip-path="url(#pa00d1cefe4)">
     <use xlink:href="#C4_0_6f68abe6bf" x="646.2" y="136.44555" style="fill: #4c72b0"/>
    </g>
    <g clip-path="url(#pa00d1cefe4)">
     <use xlink:href="#C4_0_6f68abe6bf" x="643.981542" y="120.840083" style="fill: #4c72b0"/>
    </g>
    <g clip-path="url(#pa00d1cefe4)">
     <use xlink:href="#C4_0_6f68abe6bf" x="648.103752" y="112.989361" style="fill: #4c72b0"/>
    </g>
    <g clip-path="url(#pa00d1cefe4)">
     <use xlink:href="#C4_0_6f68abe6bf" x="646.461311" y="118.990099" style="fill: #4c72b0"/>
    </g>
    <g clip-path="url(#pa00d1cefe4)">
     <use xlink:href="#C4_0_6f68abe6bf" x="643.374655" y="114.052994" style="fill: #4c72b0"/>
    </g>
    <g clip-path="url(#pa00d1cefe4)">
     <use xlink:href="#C4_0_6f68abe6bf" x="649.471874" y="118.107405" style="fill: #4c72b0"/>
    </g>
    <g clip-path="url(#pa00d1cefe4)">
     <use xlink:href="#C4_0_6f68abe6bf" x="646.2" y="115.379482" style="fill: #4c72b0"/>
    </g>
    <g clip-path="url(#pa00d1cefe4)">
     <use xlink:href="#C4_0_6f68abe6bf" x="646.2" y="122.969873" style="fill: #4c72b0"/>
    </g>
    <g clip-path="url(#pa00d1cefe4)">
     <use xlink:href="#C4_0_6f68abe6bf" x="646.2" y="128.165269" style="fill: #4c72b0"/>
    </g>
   </g>
   <g id="PathCollection_6">
    <defs>
     <path id="C5_0_37e0f17783" d="M 0 1.5 
C 0.397805 1.5 0.77937 1.341951 1.06066 1.06066 
C 1.341951 0.77937 1.5 0.397805 1.5 -0 
C 1.5 -0.397805 1.341951 -0.77937 1.06066 -1.06066 
C 0.77937 -1.341951 0.397805 -1.5 0 -1.5 
C -0.397805 -1.5 -0.77937 -1.341951 -1.06066 -1.06066 
C -1.341951 -0.77937 -1.5 -0.397805 -1.5 0 
C -1.5 0.397805 -1.341951 0.77937 -1.06066 1.06066 
C -0.77937 1.341951 -0.397805 1.5 0 1.5 
z
"/>
    </defs>
    <g clip-path="url(#pa00d1cefe4)">
     <use xlink:href="#C5_0_37e0f17783" x="755.341851" y="116.510631" style="fill: #c44e52"/>
    </g>
    <g clip-path="url(#pa00d1cefe4)">
     <use xlink:href="#C5_0_37e0f17783" x="760.748054" y="140.779651" style="fill: #c44e52"/>
    </g>
    <g clip-path="url(#pa00d1cefe4)">
     <use xlink:href="#C5_0_37e0f17783" x="757.8" y="126.810873" style="fill: #c44e52"/>
    </g>
    <g clip-path="url(#pa00d1cefe4)">
     <use xlink:href="#C5_0_37e0f17783" x="755.026058" y="122.135879" style="fill: #c44e52"/>
    </g>
    <g clip-path="url(#pa00d1cefe4)">
     <use xlink:href="#C5_0_37e0f17783" x="755.368542" y="131.469399" style="fill: #c44e52"/>
    </g>
    <g clip-path="url(#pa00d1cefe4)">
     <use xlink:href="#C5_0_37e0f17783" x="757.8" y="133.376662" style="fill: #c44e52"/>
    </g>
    <g clip-path="url(#pa00d1cefe4)">
     <use xlink:href="#C5_0_37e0f17783" x="757.8" y="118.386604" style="fill: #c44e52"/>
    </g>
    <g clip-path="url(#pa00d1cefe4)">
     <use xlink:href="#C5_0_37e0f17783" x="757.8" y="123.557367" style="fill: #c44e52"/>
    </g>
    <g clip-path="url(#pa00d1cefe4)">
     <use xlink:href="#C5_0_37e0f17783" x="757.8" y="141.836528" style="fill: #c44e52"/>
    </g>
    <g clip-path="url(#pa00d1cefe4)">
     <use xlink:href="#C5_0_37e0f17783" x="754.754818" y="141.069069" style="fill: #c44e52"/>
    </g>
   </g>
   <g id="PathCollection_7">
    <defs>
     <path id="C6_0_12d7f1ad9f" d="M 0 1.5 
C 0.397805 1.5 0.77937 1.341951 1.06066 1.06066 
C 1.341951 0.77937 1.5 0.397805 1.5 -0 
C 1.5 -0.397805 1.341951 -0.77937 1.06066 -1.06066 
C 0.77937 -1.341951 0.397805 -1.5 0 -1.5 
C -0.397805 -1.5 -0.77937 -1.341951 -1.06066 -1.06066 
C -1.341951 -0.77937 -1.5 -0.397805 -1.5 0 
C -1.5 0.397805 -1.341951 0.77937 -1.06066 1.06066 
C -0.77937 1.341951 -0.397805 1.5 0 1.5 
z
"/>
    </defs>
    <g clip-path="url(#pa00d1cefe4)">
     <use xlink:href="#C6_0_12d7f1ad9f" x="869.4" y="239.094285" style="fill: #4c72b0"/>
    </g>
    <g clip-path="url(#pa00d1cefe4)">
     <use xlink:href="#C6_0_12d7f1ad9f" x="869.4" y="255.089225" style="fill: #4c72b0"/>
    </g>
    <g clip-path="url(#pa00d1cefe4)">
     <use xlink:href="#C6_0_12d7f1ad9f" x="866.298816" y="210.558783" style="fill: #4c72b0"/>
    </g>
    <g clip-path="url(#pa00d1cefe4)">
     <use xlink:href="#C6_0_12d7f1ad9f" x="869.4" y="259.64125" style="fill: #4c72b0"/>
    </g>
    <g clip-path="url(#pa00d1cefe4)">
     <use xlink:href="#C6_0_12d7f1ad9f" x="869.4" y="170.960426" style="fill: #4c72b0"/>
    </g>
    <g clip-path="url(#pa00d1cefe4)">
     <use xlink:href="#C6_0_12d7f1ad9f" x="869.4" y="211.084886" style="fill: #4c72b0"/>
    </g>
    <g clip-path="url(#pa00d1cefe4)">
     <use xlink:href="#C6_0_12d7f1ad9f" x="869.4" y="207.690283" style="fill: #4c72b0"/>
    </g>
    <g clip-path="url(#pa00d1cefe4)">
     <use xlink:href="#C6_0_12d7f1ad9f" x="869.4" y="265.285053" style="fill: #4c72b0"/>
    </g>
    <g clip-path="url(#pa00d1cefe4)">
     <use xlink:href="#C6_0_12d7f1ad9f" x="869.4" y="201.575361" style="fill: #4c72b0"/>
    </g>
    <g clip-path="url(#pa00d1cefe4)">
     <use xlink:href="#C6_0_12d7f1ad9f" x="866.746041" y="199.959397" style="fill: #4c72b0"/>
    </g>
   </g>
   <g id="PathCollection_8">
    <defs>
     <path id="C7_0_85e6e3d1e9" d="M 0 1.5 
C 0.397805 1.5 0.77937 1.341951 1.06066 1.06066 
C 1.341951 0.77937 1.5 0.397805 1.5 -0 
C 1.5 -0.397805 1.341951 -0.77937 1.06066 -1.06066 
C 0.77937 -1.341951 0.397805 -1.5 0 -1.5 
C -0.397805 -1.5 -0.77937 -1.341951 -1.06066 -1.06066 
C -1.341951 -0.77937 -1.5 -0.397805 -1.5 0 
C -1.5 0.397805 -1.341951 0.77937 -1.06066 1.06066 
C -0.77937 1.341951 -0.397805 1.5 0 1.5 
z
"/>
    </defs>
    <g clip-path="url(#pa00d1cefe4)">
     <use xlink:href="#C7_0_85e6e3d1e9" x="981" y="242.999649" style="fill: #c44e52"/>
    </g>
    <g clip-path="url(#pa00d1cefe4)">
     <use xlink:href="#C7_0_85e6e3d1e9" x="978.643444" y="258.584905" style="fill: #c44e52"/>
    </g>
    <g clip-path="url(#pa00d1cefe4)">
     <use xlink:href="#C7_0_85e6e3d1e9" x="981" y="220.033337" style="fill: #c44e52"/>
    </g>
    <g clip-path="url(#pa00d1cefe4)">
     <use xlink:href="#C7_0_85e6e3d1e9" x="981" y="255.103509" style="fill: #c44e52"/>
    </g>
    <g clip-path="url(#pa00d1cefe4)">
     <use xlink:href="#C7_0_85e6e3d1e9" x="981" y="189.141171" style="fill: #c44e52"/>
    </g>
    <g clip-path="url(#pa00d1cefe4)">
     <use xlink:href="#C7_0_85e6e3d1e9" x="981" y="204.073864" style="fill: #c44e52"/>
    </g>
    <g clip-path="url(#pa00d1cefe4)">
     <use xlink:href="#C7_0_85e6e3d1e9" x="981" y="223.952415" style="fill: #c44e52"/>
    </g>
    <g clip-path="url(#pa00d1cefe4)">
     <use xlink:href="#C7_0_85e6e3d1e9" x="981" y="260.57562" style="fill: #c44e52"/>
    </g>
    <g clip-path="url(#pa00d1cefe4)">
     <use xlink:href="#C7_0_85e6e3d1e9" x="981" y="216.786587" style="fill: #c44e52"/>
    </g>
    <g clip-path="url(#pa00d1cefe4)">
     <use xlink:href="#C7_0_85e6e3d1e9" x="981" y="209.676199" style="fill: #c44e52"/>
    </g>
   </g>
   <g id="PathCollection_9">
    <defs>
     <path id="mc2f138b95f" d="M 22.36068 0 
L -22.36068 -0 
" style="stroke: #1a1a1a; stroke-width: 1.5"/>
    </defs>
    <g clip-path="url(#pa00d1cefe4)">
     <use xlink:href="#mc2f138b95f" x="199.8" y="186.020875" style="fill: #1a1a1a; stroke: #1a1a1a; stroke-width: 1.5"/>
     <use xlink:href="#mc2f138b95f" x="311.4" y="172.350485" style="fill: #1a1a1a; stroke: #1a1a1a; stroke-width: 1.5"/>
     <use xlink:href="#mc2f138b95f" x="423" y="219.011148" style="fill: #1a1a1a; stroke: #1a1a1a; stroke-width: 1.5"/>
     <use xlink:href="#mc2f138b95f" x="534.6" y="196.015638" style="fill: #1a1a1a; stroke: #1a1a1a; stroke-width: 1.5"/>
     <use xlink:href="#mc2f138b95f" x="646.2" y="119.045136" style="fill: #1a1a1a; stroke: #1a1a1a; stroke-width: 1.5"/>
     <use xlink:href="#mc2f138b95f" x="757.8" y="129.593266" style="fill: #1a1a1a; stroke: #1a1a1a; stroke-width: 1.5"/>
     <use xlink:href="#mc2f138b95f" x="869.4" y="222.093895" style="fill: #1a1a1a; stroke: #1a1a1a; stroke-width: 1.5"/>
     <use xlink:href="#mc2f138b95f" x="981" y="228.092726" style="fill: #1a1a1a; stroke: #1a1a1a; stroke-width: 1.5"/>
    </g>
   </g>
  </g>
 </g>
 <defs>
  <clipPath id="pa00d1cefe4">
   <rect x="144" y="43.2" width="892.8" height="277.2"/>
  </clipPath>
 </defs>
</svg>
